ply
format ascii 1.0
comment VCGLIB generated
comment TextureFile uv_mapper.jpg
element vertex 4
property float x
property float y
property float z
property float nx
property float ny
property float nz
property uchar red
property uchar green
property uchar blue
property uchar alpha
property float texture_u
property float texture_v
element face 2
property list uchar int vertex_indices
end_header
-0.839412 1.55859 -0.232307 0 0 1 192 192 192 255 0.000000 0.000000
-0.160588 1.55859 -0.232307 0 0 1 192 192 192 255 1.000000 0.000000
-0.839412 2.17435 -0.232307 0 0 1 255 255 255 255 0.000000 1.000000
-0.160588 2.17435 -0.232307 0 0 1 255 255 255 255 1.000000 1.000000
3 0 1 2 
3 2 1 3 
