ply
format ascii 1.0
comment VCGLIB generated
comment TextureFile uv_mapper.jpg
element vertex 6
property float x
property float y
property float z
property float nx
property float ny
property float nz
property uchar red
property uchar green
property uchar blue
property uchar alpha
property float texture_u
property float texture_v
element face 2
property list uchar int vertex_indices
end_header
2.77123 1.55859 -2.84453 1 0 0 255 255 255 255 0.000000 0.000000
2.77123 2.17435 -2.84453 1 0 0 255 255 255 255 1.000000 0.000000
2.77123 2.17435 -2.1657 1 0 0 255 255 255 255 1.000000 1.000000
2.77123 2.17435 -2.1657 1 0 0 255 255 255 255 1.000000 1.000000
2.77123 1.55859 -2.1657 1 0 0 192 192 192 255 0.000000 1.000000
2.77123 1.55859 -2.84453 1 0 0 255 255 255 255 0.000000 0.000000
3 0 1 2 
3 3 4 5 
