ply
format ascii 1.0
comment VCGLIB generated
comment TextureFile SpaceInteriors_Texture.png
element vertex 76
property float x
property float y
property float z
property float nx
property float ny
property float nz
property uchar red
property uchar green
property uchar blue
property uchar alpha
property float texture_u
property float texture_v
element face 44
property list uchar int vertex_indices
end_header
-0.134798 0 0.134796 -0.0188516 -1 2 192 192 192 255 0.359507 0.475389
0.134798 0 0.134796 0.0188516 -2 1 192 192 192 255 0.359507 0.475389
-0.134798 0.341076 0.134796 -1.57612 2.50991 2.55727 192 192 192 255 0.387867 0.475389
0.134798 0.341076 0.134796 0.797486 1.25496 2.77863 192 192 192 255 0.387867 0.475389
-0.134798 0.341076 -0.134796 -1.79391 1.25496 -2.77863 192 192 192 255 0.387867 0.475389
0.134798 0.341076 -0.134796 2.57254 2.50991 -2.55727 192 192 192 255 0.351707 0.475389
-0.134798 0 -0.134796 -2.01527 -2 -1 192 192 192 255 0.359507 0.475389
0.134798 0 -0.134796 2.01527 -1 -2 192 192 192 255 0.359507 0.475389
-0.117998 0.361923 0.117996 -2.77863 1.25496 2.77863 192 192 192 255 0.387867 0.475389
0.117998 0.361923 0.117996 3.55727 2.50991 2.55727 192 192 192 255 0.387867 0.475389
0.117998 0.361923 -0.117996 1.77863 1.25496 -2.77863 192 192 192 255 0.351707 0.475389
-0.117998 0.361923 -0.117996 -2.55727 2.50991 -2.55727 192 192 192 255 0.387867 0.475389
-0.117998 0.425767 0.117996 -1 2 1 192 192 192 255 0.298797 0.036557
0.117998 0.425767 0.117996 1 1 2 192 192 192 255 0.298797 0.036557
0.117998 0.425767 -0.117996 2 2 -1 192 192 192 255 0.298797 0.036557
-0.117998 0.425767 -0.117996 -2 1 -2 192 192 192 255 0.298797 0.036557
0.134798 0.284425 0.134796 1.00358 0 3 192 192 192 255 0.359507 0.475389
-0.134798 0.284425 0.134796 -2.00358 0 3 192 192 192 255 0.359507 0.475389
-0.134798 0.284425 0.071621 -3.01885 0 0 192 192 192 255 0.323347 0.475389
0.134798 0.284425 0.071621 4.01885 0 0 192 192 192 255 0.323347 0.475389
0.134798 0.056651 0.134796 2.00358 0 3 192 192 192 255 0.359507 0.475389
-0.134798 0.056651 0.134796 -1.00358 0 3 192 192 192 255 0.359507 0.475389
-0.134798 0.056651 0.071621 -3.01885 0 0 192 192 192 255 0.323347 0.475389
0.134798 0.056651 0.071621 2.01885 0 0 192 192 192 255 0.323347 0.475389
0.134798 0 0.134796 0.0188516 -2 1 192 192 192 255 0.323347 0.475389
0.134798 0.056651 0.134796 2.00358 0 3 192 192 192 255 0.323347 0.475389
-0.134798 0 0.134796 -0.0188516 -1 2 192 192 192 255 0.323347 0.475389
-0.134798 0.056651 0.134796 -1.00358 0 3 192 192 192 255 0.323347 0.475389
0.117998 0.361923 0.117996 3.55727 2.50991 2.55727 192 192 192 255 0.351707 0.475389
0.134798 0.341076 0.134796 0.797486 1.25496 2.77863 192 192 192 255 0.351707 0.475389
0.134798 0.341076 -0.134796 2.57254 2.50991 -2.55727 192 192 192 255 0.387867 0.475389
0.117998 0.361923 -0.117996 1.77863 1.25496 -2.77863 192 192 192 255 0.387867 0.475389
-0.134798 0.341076 0.134796 -1.57612 2.50991 2.55727 192 192 192 255 0.351707 0.475389
-0.117998 0.361923 0.117996 -2.77863 1.25496 2.77863 192 192 192 255 0.351707 0.475389
-0.117998 0.361923 -0.117996 -2.55727 2.50991 -2.55727 192 192 192 255 0.351707 0.475389
-0.134798 0.341076 -0.134796 -1.79391 1.25496 -2.77863 192 192 192 255 0.351707 0.475389
-0.117998 0.361923 0.117996 -2.77863 1.25496 2.77863 192 192 192 255 0.270436 0.036557
0.117998 0.361923 0.117996 3.55727 2.50991 2.55727 192 192 192 255 0.270436 0.036557
0.117998 0.425767 0.117996 1 1 2 192 192 192 255 0.270436 0.036557
-0.117998 0.425767 0.117996 -1 2 1 192 192 192 255 0.270436 0.036557
0.117998 0.425767 -0.117996 2 2 -1 192 192 192 255 0.234276 0.036557
0.117998 0.425767 0.117996 1 1 2 192 192 192 255 0.234276 0.036557
0.117998 0.361923 0.117996 3.55727 2.50991 2.55727 192 192 192 255 0.234276 0.036557
0.117998 0.361923 -0.117996 1.77863 1.25496 -2.77863 192 192 192 255 0.234276 0.036557
0.117998 0.361923 -0.117996 1.77863 1.25496 -2.77863 192 192 192 255 0.270436 0.036557
-0.117998 0.361923 -0.117996 -2.55727 2.50991 -2.55727 192 192 192 255 0.270436 0.036557
-0.117998 0.425767 -0.117996 -2 1 -2 192 192 192 255 0.270436 0.036557
0.117998 0.425767 -0.117996 2 2 -1 192 192 192 255 0.270436 0.036557
-0.117998 0.361923 0.117996 -2.77863 1.25496 2.77863 192 192 192 255 0.234276 0.036557
-0.117998 0.425767 0.117996 -1 2 1 192 192 192 255 0.234276 0.036557
-0.117998 0.425767 -0.117996 -2 1 -2 192 192 192 255 0.234276 0.036557
-0.117998 0.361923 -0.117996 -2.55727 2.50991 -2.55727 192 192 192 255 0.234276 0.036557
-0.134798 0 -0.134796 -2.01527 -2 -1 192 192 192 255 0.323347 0.475389
0.134798 0 -0.134796 2.01527 -1 -2 192 192 192 255 0.323347 0.475389
0.134798 0.341076 0.134796 0.797486 1.25496 2.77863 192 192 192 255 0.359507 0.475389
-0.134798 0.341076 0.134796 -1.57612 2.50991 2.55727 192 192 192 255 0.359507 0.475389
-0.134798 0.284425 0.134796 -2.00358 0 3 192 192 192 255 0.323347 0.475389
-0.134798 0.341076 0.134796 -1.57612 2.50991 2.55727 192 192 192 255 0.323347 0.475389
-0.134798 0.341076 -0.134796 -1.79391 1.25496 -2.77863 192 192 192 255 0.323347 0.475389
0.134798 0.341076 0.134796 0.797486 1.25496 2.77863 192 192 192 255 0.323347 0.475389
0.134798 0.341076 -0.134796 2.57254 2.50991 -2.55727 192 192 192 255 0.323347 0.475389
0.134798 0.284425 0.134796 1.00358 0 3 192 192 192 255 0.323347 0.475389
-0.134798 0.056651 0.134796 -1.00358 0 3 192 192 192 255 0.299534 0.223661
0.134798 0.056651 0.134796 2.00358 0 3 192 192 192 255 0.299534 0.223661
0.134798 0.284425 0.134796 1.00358 0 3 192 192 192 255 0.299534 0.223661
-0.134798 0.284425 0.134796 -2.00358 0 3 192 192 192 255 0.299534 0.223661
-0.134798 0.056651 0.071621 -3.01885 0 0 192 192 192 255 0.263374 0.223661
-0.134798 0.056651 0.134796 -1.00358 0 3 192 192 192 255 0.263374 0.223661
-0.134798 0.284425 0.134796 -2.00358 0 3 192 192 192 255 0.263374 0.223661
-0.134798 0.284425 0.071621 -3.01885 0 0 192 192 192 255 0.263374 0.223661
-0.134798 0.341076 -0.134796 -1.79391 1.25496 -2.77863 192 192 192 255 0.359507 0.475389
0.134798 0.341076 -0.134796 2.57254 2.50991 -2.55727 192 192 192 255 0.359507 0.475389
0.134798 0.056651 0.134796 2.00358 0 3 192 192 192 255 0.263374 0.223661
0.134798 0.056651 0.071621 2.01885 0 0 192 192 192 255 0.263374 0.223661
0.134798 0.284425 0.071621 4.01885 0 0 192 192 192 255 0.263374 0.223661
0.134798 0.284425 0.134796 1.00358 0 3 192 192 192 255 0.263374 0.223661
3 0 1 20 
3 0 20 21 
3 12 13 14 
3 12 14 15 
3 1 0 6 
3 1 6 7 
3 24 23 25 
3 26 27 22 
3 2 3 9 
3 2 9 8 
3 28 29 5 
3 28 5 10 
3 30 4 11 
3 30 11 31 
3 32 33 34 
3 32 34 35 
3 36 37 38 
3 36 38 39 
3 40 41 42 
3 40 42 43 
3 44 45 46 
3 44 46 47 
3 48 49 50 
3 48 50 51 
3 52 26 22 
3 23 24 53 
3 17 16 54 
3 17 54 55 
3 18 56 57 
3 58 18 57 
3 59 19 60 
3 61 19 59 
3 62 63 64 
3 62 64 65 
3 66 67 68 
3 66 68 69 
3 52 22 18 
3 52 18 58 
3 70 71 7 
3 70 7 6 
3 19 23 53 
3 19 53 60 
3 72 73 74 
3 72 74 75 
