ply
format ascii 1.0
comment VCGLIB generated
comment TextureFile SpaceInteriors_Texture.png
element vertex 256
property float x
property float y
property float z
property float nx
property float ny
property float nz
property uchar red
property uchar green
property uchar blue
property uchar alpha
property float texture_u
property float texture_v
element face 232
property list uchar int vertex_indices
end_header
-0.674778 0.385846 0.672073 2 1 3 192 192 192 255 0.383642 0.329862
0.67477 0.385846 0.672073 -1 2 5 192 192 192 255 0.383642 0.329862
-0.674778 3.80109 0.672073 1 -2 4 192 192 192 255 0.383642 0.329862
0.67477 3.80109 0.672073 -2 -1 3 192 192 192 255 0.383642 0.329862
-0.674778 3.80109 -0.806953 0 0 -5 192 192 192 255 0.363337 0.330442
0.67477 3.80109 -0.806953 0 0 -4 192 192 192 255 0.363337 0.330442
-0.674778 0.385846 -0.806953 0 0 -4 192 192 192 255 0.363337 0.330442
0.67477 0.385846 -0.806953 0 0 -5 192 192 192 255 0.363337 0.330442
-0.610674 1.31684 0.672073 1 2 4 192 192 192 255 0.383642 0.329862
0.61067 1.31684 0.672073 -2 1 3 192 192 192 255 0.383642 0.329862
0.61067 2.59589 0.672073 -1 -2 3 192 192 192 255 0.383642 0.329862
-0.610674 2.59589 0.672073 2 -1 3 192 192 192 255 0.383642 0.329862
-0.617195 3.74932 0.672073 2 -1 3 192 192 192 255 0.383642 0.329862
0.627022 3.74932 0.672073 -1 -2 3 192 192 192 255 0.383642 0.329862
-0.617195 2.92405 0.672073 1 2 4 192 192 192 255 0.383642 0.329862
0.627022 2.92405 0.672073 -2 1 4 192 192 192 255 0.383642 0.329862
-0.610674 1.31684 0.591843 2 1 2 192 192 192 255 0.747927 0.493526
0.61067 1.31684 0.591843 -1 2 1 192 192 192 255 0.504121 0.493526
0.61067 2.59589 0.591843 -2 -1 2 192 192 192 255 0.504121 0.289042
-0.610674 2.59589 0.591843 1 -2 1 192 192 192 255 0.747927 0.289042
-0.76963 3.89594 0.672073 -4 3 0 192 192 192 255 0.454522 0.333932
0.769629 3.89594 0.672073 2 3 0 192 192 192 255 0.454522 0.333932
0.769629 3.89594 -0.806953 2 2 -3 192 192 192 255 0.454522 0.333932
-0.76963 3.89594 -0.806953 -1 1 -3 192 192 192 255 0.454522 0.333932
-0.76963 0.290996 -0.806953 -2 -2 -3 192 192 192 255 0.302936 0.331123
0.769629 0.290996 -0.806953 1 -1 -3 192 192 192 255 0.302936 0.331123
0.769629 0.290996 0.672073 4 -3 0 192 192 192 255 0.302936 0.331123
-0.76963 0.290996 0.672073 -2 -3 0 192 192 192 255 0.302936 0.331123
-0.674778 3.80109 0.794754 2 -1 3 192 192 192 255 0.383642 0.329862
0.67477 3.80109 0.794754 -1 -2 3 192 192 192 255 0.383642 0.329862
0.769629 3.89594 0.794754 2 1 3 192 192 192 255 0.383642 0.329862
-0.76963 3.89594 0.794754 -1 2 3 192 192 192 255 0.383642 0.329862
-0.674778 0.385846 0.794754 1 2 3 192 192 192 255 0.383642 0.329862
0.67477 0.385846 0.794754 -2 1 3 192 192 192 255 0.383642 0.329862
-0.76963 0.290996 0.794754 -2 -1 3 192 192 192 255 0.383642 0.329862
0.769629 0.290996 0.794754 1 -2 3 192 192 192 255 0.383642 0.329862
-0.617195 3.74932 -0.505135 1 -2 2 192 192 192 255 0.264662 0.332447
0.627022 3.74932 -0.505135 -2 -1 1 192 192 192 255 0.264662 0.332447
-0.617195 2.92405 -0.505135 2 1 1 192 192 192 255 0.264662 0.332447
0.627022 2.92405 -0.505135 -1 2 2 192 192 192 255 0.264662 0.332447
-0.641108 0.108345 -0.715828 -2.17532 -1 0.517842 192 192 192 255 0.198639 0.482969
-0.569139 0.108345 -0.629921 0.518364 -2 2.17482 192 192 192 255 0.198639 0.482969
-0.641108 0.297477 -0.715828 -2.05099 2 -0.890862 192 192 192 255 0.198639 0.482969
-0.569139 0.297477 -0.629921 -0.890646 1 2.05069 192 192 192 255 0.198639 0.482969
-0.555246 0.297477 -0.787766 0.890564 1 -2.05127 192 192 192 255 0.198639 0.482969
-0.483278 0.297477 -0.701904 2.05131 2 0.890267 192 192 192 255 0.198639 0.482969
-0.555246 0.108345 -0.787766 -0.518045 -2 -2.17542 192 192 192 255 0.198639 0.482969
-0.483278 0.108345 -0.701904 2.17524 -1 -0.518429 192 192 192 255 0.198639 0.482969
-0.68663 0 -0.64888 -2.17509 -1 0.51832 192 192 192 255 0.106508 0.475292
-0.642998 0 -0.596825 0.518146 -2 2.17534 192 192 192 255 0.106508 0.475292
-0.68663 0.167022 -0.64888 -2.05102 2 -0.890497 192 192 192 255 0.106508 0.475292
-0.642998 0.167022 -0.596825 -0.890508 1 2.05124 192 192 192 255 0.106508 0.475292
-0.562574 0.167022 -0.752846 0.890679 1 -2.05093 192 192 192 255 0.106508 0.475292
-0.518944 0.167022 -0.700775 2.05103 2 0.890717 192 192 192 255 0.106508 0.475292
-0.562574 0 -0.752846 -0.518138 -2 -2.17512 192 192 192 255 0.106508 0.475292
-0.518944 0 -0.700775 2.17526 -1 -0.51801 192 192 192 255 0.106508 0.475292
0.543793 0.108345 -0.652481 -0.432965 -1 2.19374 192 192 192 255 0.198639 0.482969
0.651814 0.108345 -0.682236 2.19376 -2 0.433011 192 192 192 255 0.198639 0.482969
0.543793 0.297477 -0.652481 -1.66263 2 1.49521 192 192 192 255 0.198639 0.482969
0.651814 0.297477 -0.682236 1.49523 1 1.66264 192 192 192 255 0.198639 0.482969
0.51404 0.297477 -0.760498 -1.49534 1 -1.6626 192 192 192 255 0.198639 0.482969
0.622061 0.297477 -0.79026 1.66258 2 -1.49516 192 192 192 255 0.198639 0.482969
0.51404 0.108345 -0.760498 -2.19381 -2 -0.432961 192 192 192 255 0.198639 0.482969
0.622061 0.108345 -0.79026 0.432853 -1 -2.1937 192 192 192 255 0.198639 0.482969
0.585739 0 -0.58329 -0.433252 -1 2.19391 192 192 192 255 0.106508 0.475292
0.651228 0 -0.601318 2.19356 -2 0.432883 192 192 192 255 0.106508 0.475292
0.585739 0.167022 -0.58329 -1.66273 2 1.49541 192 192 192 255 0.106508 0.475292
0.651228 0.167022 -0.601318 1.4949 1 1.66264 192 192 192 255 0.106508 0.475292
0.542747 0.167022 -0.739319 -1.49511 1 -1.66257 192 192 192 255 0.106508 0.475292
0.608236 0.167022 -0.757355 1.66263 2 -1.49536 192 192 192 255 0.106508 0.475292
0.542747 0 -0.739319 -2.19366 -2 -0.432828 192 192 192 255 0.106508 0.475292
0.608236 0 -0.757355 0.433038 -1 -2.19384 192 192 192 255 0.106508 0.475292
-0.650002 0.108345 0.698135 -1.75788 -1 1.38198 192 192 192 255 0.198639 0.482969
-0.548676 0.108345 0.745949 1.38196 -2 1.75793 192 192 192 255 0.198639 0.482969
-0.650002 0.297477 0.698135 -2.23549 2 0.0508564 192 192 192 255 0.198639 0.482969
-0.548676 0.297477 0.745949 0.0508456 1 2.23551 192 192 192 255 0.198639 0.482969
-0.602188 0.297477 0.596809 -0.0507543 1 -2.23544 192 192 192 255 0.198639 0.482969
-0.500862 0.297477 0.64463 2.23552 2 -0.0507837 192 192 192 255 0.198639 0.482969
-0.602188 0.108345 0.596809 -1.38193 -2 -1.75785 192 192 192 255 0.198639 0.482969
-0.500862 0.108345 0.64463 1.75797 -1 -1.38191 192 192 192 255 0.198639 0.482969
-0.663286 0 0.777962 -1.75772 -1 1.38194 192 192 192 255 0.106508 0.475292
-0.601854 0 0.806946 1.382 -2 1.75799 192 192 192 255 0.106508 0.475292
-0.663286 0.167022 0.777962 -2.23535 2 0.0507053 192 192 192 255 0.106508 0.475292
-0.601854 0.167022 0.806946 0.0509503 1 2.23559 192 192 192 255 0.106508 0.475292
-0.594213 0.167022 0.631622 -0.0510285 1 -2.23568 192 192 192 255 0.106508 0.475292
-0.532787 0.167022 0.660599 2.23534 2 -0.0508224 192 192 192 255 0.106508 0.475292
-0.594213 0 0.631622 -1.382 -2 -1.75811 192 192 192 255 0.106508 0.475292
-0.532787 0 0.660599 1.75764 -1 -1.38204 192 192 192 255 0.106508 0.475292
0.552032 0.108345 0.748184 0.0677171 -1 2.23511 192 192 192 255 0.198639 0.482969
0.650681 0.108345 0.695068 2.23501 -2 -0.0677485 192 192 192 255 0.198639 0.482969
0.552032 0.297477 0.748184 -1.28681 2 1.82878 192 192 192 255 0.198639 0.482969
0.650681 0.297477 0.695068 1.82863 1 1.28685 192 192 192 255 0.198639 0.482969
0.498915 0.297477 0.649551 -1.8287 1 -1.28677 192 192 192 255 0.198639 0.482969
0.597565 0.297477 0.596428 1.2868 2 -1.82869 192 192 192 255 0.198639 0.482969
0.498915 0.108345 0.649551 -2.23502 -2 0.0678381 192 192 192 255 0.198639 0.482969
0.597565 0.108345 0.596428 -0.0677887 -1 -2.23503 192 192 192 255 0.198639 0.482969
0.608376 0 0.806305 0.0678982 -1 2.23493 192 192 192 255 0.106508 0.475292
0.668182 0 0.774094 2.23518 -2 -0.0676894 192 192 192 255 0.106508 0.475292
0.608376 0.167022 0.806305 -1.28677 2 1.82859 192 192 192 255 0.106508 0.475292
0.668182 0.167022 0.774094 1.82887 1 1.28679 192 192 192 255 0.106508 0.475292
0.531643 0.167022 0.663795 -1.82834 1 -1.28704 192 192 192 255 0.106508 0.475292
0.591463 0.167022 0.631599 1.28706 2 -1.82867 192 192 192 255 0.106508 0.475292
0.531643 0 0.663795 -2.23489 -2 0.0676079 192 192 192 255 0.106508 0.475292
0.591463 0 0.631599 -0.0673671 -1 -2.23518 192 192 192 255 0.106508 0.475292
-0.522354 2.92405 0.606049 -0.279182 -1.00073 4.11366 192 192 192 255 0.14281 0.265809
0.206154 2.92405 0.475563 2.85092 -2.00035 4.56893 192 192 192 255 0.14281 0.265809
-0.522354 3.66415 0.606049 -1.43987 2.00011 3.30565 192 192 192 255 0.108132 0.26707
0.206154 3.66415 0.475563 1.51338 1.00021 2.77668 192 192 192 255 0.108132 0.26707
-0.642416 3.66415 -0.064255 -1.33701 1 -1.79235 192 192 192 255 0.108132 0.26707
0.08609 3.66415 -0.194763 1.79233 2 -1.33694 192 192 192 255 0.108132 0.26707
-0.642416 2.92405 -0.064255 -2.14501 -2 -0.63171 192 192 192 255 0.14281 0.265809
0.08609 2.92405 -0.194763 0.63166 -1 -2.14497 192 192 192 255 0.14281 0.265809
-0.44595 3.09718 0.592369 1.23394 0.000157726 6.89038 192 192 192 255 0.020451 0.514143
0.129751 3.09718 0.489258 0.881858 0.000316008 4.92162 192 192 192 255 0.020451 0.514143
0.129751 3.59389 0.489258 0.881774 0.000106417 4.92163 192 192 192 255 0.020451 0.514143
-0.44595 3.59389 0.592369 0.705154 0.000212834 3.93735 192 192 192 255 0.020451 0.514143
0.037207 2.97574 0.505844 0.881513 -0.000391608 4.92168 192 192 192 255 0.95038 0.379541
0.114357 2.97574 0.49202 0.705481 -0.000734551 3.9373 192 192 192 255 0.95038 0.379541
0.114304 3.04549 0.492035 0.882 0.00013971 4.92159 192 192 192 255 0.95038 0.379541
0.037189 3.04549 0.505844 0.705191 0.000292944 3.93735 192 192 192 255 0.95038 0.379541
0.301559 2.92405 0.560883 -1 -1 3 192 192 192 255 0.29377 0.170471
0.448574 2.92405 0.560883 2 -2 3 192 192 192 255 0.29377 0.170471
0.301559 3.63177 0.560883 -2 2 3 192 192 192 255 0.327187 0.171732
0.448574 3.63177 0.560883 1 1 3 192 192 192 255 0.327187 0.171732
0.301559 3.63177 -0.051994 -1 1 -2 192 192 192 255 0.327187 0.171732
0.448574 3.63177 -0.051994 2 2 -1 192 192 192 255 0.327187 0.171732
0.301559 2.92405 -0.051994 -2 -2 -1 192 192 192 255 0.29377 0.170471
0.448574 2.92405 -0.051994 1 -1 -2 192 192 192 255 0.29377 0.170471
0.344225 3.3117 0.560883 0 0 5 192 192 192 255 0.393405 0.478359
0.405907 3.3117 0.560883 0 0 4 192 192 192 255 0.393405 0.478359
0.405907 3.56885 0.560883 0 0 5 192 192 192 255 0.393405 0.478359
0.344225 3.56885 0.560883 0 0 4 192 192 192 255 0.393405 0.478359
0.536411 2.92405 0.562927 -0.866264 -1 1.11782 192 192 192 255 0.295404 0.354224
0.607229 2.92405 0.553947 2.23571 -2 1.73258 192 192 192 255 0.295404 0.354224
0.536411 3.63177 0.562927 -1.73253 2 2.23563 192 192 192 255 0.328821 0.355485
0.607229 3.63177 0.553947 1.11786 1 0.86629 192 192 192 255 0.328821 0.355485
0.459337 3.63177 -0.045074 -1.24367 1 -1.85835 192 192 192 255 0.328821 0.355485
0.530151 3.63177 -0.054054 1.85832 2 -1.24359 192 192 192 255 0.328821 0.355485
0.459337 2.92405 -0.045074 -2.10993 -2 -0.740536 192 192 192 255 0.295404 0.354224
0.530151 2.92405 -0.054054 0.740453 -1 -2.10988 192 192 192 255 0.295404 0.354224
0.769629 0.290996 0.672073 4 -3 0 192 192 192 255 0.362204 0.330493
0.769629 0.290996 -0.806953 1 -1 -3 192 192 192 255 0.362204 0.330493
0.769629 3.89594 -0.806953 2 2 -3 192 192 192 255 0.362204 0.330493
0.769629 3.89594 0.672073 2 3 0 192 192 192 255 0.362204 0.330493
-0.76963 0.290996 -0.806953 -2 -2 -3 192 192 192 255 0.362204 0.330493
-0.76963 0.290996 0.672073 -2 -3 0 192 192 192 255 0.362205 0.330493
-0.76963 3.89594 0.672073 -4 3 0 192 192 192 255 0.362205 0.330493
-0.76963 3.89594 -0.806953 -1 1 -3 192 192 192 255 0.362204 0.330493
-0.610674 1.31684 0.672073 1 2 4 192 192 192 255 0.586231 0.592805
0.61067 1.31684 0.672073 -2 1 3 192 192 192 255 0.586231 0.592805
0.61067 1.31684 0.591843 -1 2 1 192 192 192 255 0.586231 0.592805
-0.610674 1.31684 0.591843 2 1 2 192 192 192 255 0.586231 0.592805
0.61067 2.59589 0.672073 -1 -2 3 192 192 192 255 0.586231 0.592805
0.61067 2.59589 0.591843 -2 -1 2 192 192 192 255 0.586231 0.592805
-0.610674 2.59589 0.672073 2 -1 3 192 192 192 255 0.586231 0.592805
-0.610674 2.59589 0.591843 1 -2 1 192 192 192 255 0.586231 0.592805
0.67477 3.80109 -0.806953 0 0 -4 192 192 192 255 0.383642 0.329862
-0.674778 3.80109 -0.806953 0 0 -5 192 192 192 255 0.383642 0.329862
-0.76963 3.89594 -0.806953 -1 1 -3 192 192 192 255 0.383642 0.329862
0.769629 3.89594 -0.806953 2 2 -3 192 192 192 255 0.383642 0.329862
-0.674778 0.385846 -0.806953 0 0 -4 192 192 192 255 0.383642 0.329862
0.67477 0.385846 -0.806953 0 0 -5 192 192 192 255 0.383642 0.329862
0.769629 0.290996 -0.806953 1 -1 -3 192 192 192 255 0.383642 0.329862
-0.76963 0.290996 -0.806953 -2 -2 -3 192 192 192 255 0.383642 0.329862
-0.674778 3.80109 0.672073 1 -2 4 192 192 192 255 0.328157 0.329232
0.67477 3.80109 0.672073 -2 -1 3 192 192 192 255 0.328157 0.329232
0.67477 3.80109 0.794754 -1 -2 3 192 192 192 255 0.328157 0.329232
-0.674778 3.80109 0.794754 2 -1 3 192 192 192 255 0.328157 0.329232
-0.76963 3.89594 0.794754 -1 2 3 192 192 192 255 0.454522 0.333932
0.769629 3.89594 0.794754 2 1 3 192 192 192 255 0.454522 0.333932
0.67477 0.385846 0.672073 -1 2 5 192 192 192 255 0.328157 0.329232
-0.674778 0.385846 0.672073 2 1 3 192 192 192 255 0.328157 0.329232
-0.674778 0.385846 0.794754 1 2 3 192 192 192 255 0.328157 0.329232
0.67477 0.385846 0.794754 -2 1 3 192 192 192 255 0.328157 0.329232
0.769629 0.290996 0.794754 1 -2 3 192 192 192 255 0.302936 0.331123
-0.76963 0.290996 0.794754 -2 -1 3 192 192 192 255 0.302936 0.331123
0.769629 3.89594 0.794754 2 1 3 192 192 192 255 0.362204 0.330493
0.769629 0.290996 0.794754 1 -2 3 192 192 192 255 0.362204 0.330493
-0.76963 0.290996 0.794754 -2 -1 3 192 192 192 255 0.362205 0.330493
-0.76963 3.89594 0.794754 -1 2 3 192 192 192 255 0.362205 0.330493
0.627022 3.74932 0.672073 -1 -2 3 192 192 192 255 0.264662 0.332447
-0.617195 3.74932 0.672073 2 -1 3 192 192 192 255 0.264662 0.332447
-0.617195 2.92405 0.672073 1 2 4 192 192 192 255 0.264662 0.332447
0.627022 2.92405 0.672073 -2 1 4 192 192 192 255 0.264662 0.332447
-0.569139 0.108345 -0.629921 0.518364 -2 2.17482 192 192 192 255 0.170023 0.478084
-0.483278 0.108345 -0.701904 2.17524 -1 -0.518429 192 192 192 255 0.170023 0.478084
-0.483278 0.297477 -0.701904 2.05131 2 0.890267 192 192 192 255 0.170023 0.478084
-0.569139 0.297477 -0.629921 -0.890646 1 2.05069 192 192 192 255 0.170023 0.478084
-0.555246 0.108345 -0.787766 -0.518045 -2 -2.17542 192 192 192 255 0.170023 0.478084
-0.641108 0.108345 -0.715828 -2.17532 -1 0.517842 192 192 192 255 0.170023 0.478084
-0.641108 0.297477 -0.715828 -2.05099 2 -0.890862 192 192 192 255 0.170023 0.478084
-0.555246 0.297477 -0.787766 0.890564 1 -2.05127 192 192 192 255 0.170023 0.478084
0.651814 0.108345 -0.682236 2.19376 -2 0.433011 192 192 192 255 0.170023 0.478084
0.622061 0.108345 -0.79026 0.432853 -1 -2.1937 192 192 192 255 0.170023 0.478084
0.622061 0.297477 -0.79026 1.66258 2 -1.49516 192 192 192 255 0.170023 0.478084
0.651814 0.297477 -0.682236 1.49523 1 1.66264 192 192 192 255 0.170023 0.478084
0.51404 0.108345 -0.760498 -2.19381 -2 -0.432961 192 192 192 255 0.170023 0.478084
0.543793 0.108345 -0.652481 -0.432965 -1 2.19374 192 192 192 255 0.170023 0.478084
0.543793 0.297477 -0.652481 -1.66263 2 1.49521 192 192 192 255 0.170023 0.478084
0.51404 0.297477 -0.760498 -1.49534 1 -1.6626 192 192 192 255 0.170023 0.478084
-0.548676 0.108345 0.745949 1.38196 -2 1.75793 192 192 192 255 0.170023 0.478084
-0.500862 0.108345 0.64463 1.75797 -1 -1.38191 192 192 192 255 0.170023 0.478084
-0.500862 0.297477 0.64463 2.23552 2 -0.0507837 192 192 192 255 0.170023 0.478084
-0.548676 0.297477 0.745949 0.0508456 1 2.23551 192 192 192 255 0.170023 0.478084
-0.602188 0.108345 0.596809 -1.38193 -2 -1.75785 192 192 192 255 0.170023 0.478084
-0.650002 0.108345 0.698135 -1.75788 -1 1.38198 192 192 192 255 0.170023 0.478084
-0.650002 0.297477 0.698135 -2.23549 2 0.0508564 192 192 192 255 0.170023 0.478084
-0.602188 0.297477 0.596809 -0.0507543 1 -2.23544 192 192 192 255 0.170023 0.478084
0.650681 0.108345 0.695068 2.23501 -2 -0.0677485 192 192 192 255 0.170023 0.478084
0.597565 0.108345 0.596428 -0.0677887 -1 -2.23503 192 192 192 255 0.170023 0.478084
0.597565 0.297477 0.596428 1.2868 2 -1.82869 192 192 192 255 0.170023 0.478084
0.650681 0.297477 0.695068 1.82863 1 1.28685 192 192 192 255 0.170023 0.478084
0.498915 0.108345 0.649551 -2.23502 -2 0.0678381 192 192 192 255 0.170023 0.478084
0.552032 0.108345 0.748184 0.0677171 -1 2.23511 192 192 192 255 0.170023 0.478084
0.552032 0.297477 0.748184 -1.28681 2 1.82878 192 192 192 255 0.170023 0.478084
0.498915 0.297477 0.649551 -1.8287 1 -1.28677 192 192 192 255 0.170023 0.478084
-0.642416 3.66415 -0.064255 -1.33701 1 -1.79235 192 192 192 255 0.14281 0.265809
0.08609 3.66415 -0.194763 1.79233 2 -1.33694 192 192 192 255 0.14281 0.265809
0.206154 2.92405 0.475563 2.85092 -2.00035 4.56893 192 192 192 255 0.108132 0.26707
0.08609 2.92405 -0.194763 0.63166 -1 -2.14497 192 192 192 255 0.108132 0.26707
-0.642416 2.92405 -0.064255 -2.14501 -2 -0.63171 192 192 192 255 0.108132 0.26707
-0.522354 2.92405 0.606049 -0.279182 -1.00073 4.11366 192 192 192 255 0.108132 0.26707
0.206154 3.66415 0.475563 1.51338 1.00021 2.77668 192 192 192 255 0.14281 0.265809
0.129751 3.59389 0.489258 0.881774 0.000106417 4.92163 192 192 192 255 0.14281 0.265809
0.129751 3.09718 0.489258 0.881858 0.000316008 4.92162 192 192 192 255 0.14281 0.265809
-0.522354 3.66415 0.606049 -1.43987 2.00011 3.30565 192 192 192 255 0.14281 0.265809
-0.44595 3.59389 0.592369 0.705154 0.000212834 3.93735 192 192 192 255 0.14281 0.265809
-0.44595 3.09718 0.592369 1.23394 0.000157726 6.89038 192 192 192 255 0.14281 0.265809
0.114357 2.97574 0.49202 0.705481 -0.000734551 3.9373 192 192 192 255 0.14281 0.265809
0.037207 2.97574 0.505844 0.881513 -0.000391608 4.92168 192 192 192 255 0.14281 0.265809
0.114304 3.04549 0.492035 0.882 0.00013971 4.92159 192 192 192 255 0.14281 0.265809
0.037189 3.04549 0.505844 0.705191 0.000292944 3.93735 192 192 192 255 0.14281 0.265809
0.301559 3.63177 -0.051994 -1 1 -2 192 192 192 255 0.29377 0.170471
0.448574 3.63177 -0.051994 2 2 -1 192 192 192 255 0.29377 0.170471
0.448574 2.92405 0.560883 2 -2 3 192 192 192 255 0.25657 0.172993
0.448574 2.92405 -0.051994 1 -1 -2 192 192 192 255 0.25657 0.172993
0.448574 3.63177 -0.051994 2 2 -1 192 192 192 255 0.25657 0.172993
0.448574 3.63177 0.560883 1 1 3 192 192 192 255 0.25657 0.172993
0.301559 2.92405 -0.051994 -2 -2 -1 192 192 192 255 0.25657 0.172993
0.301559 2.92405 0.560883 -1 -1 3 192 192 192 255 0.25657 0.172993
0.301559 3.63177 0.560883 -2 2 3 192 192 192 255 0.25657 0.172993
0.301559 3.63177 -0.051994 -1 1 -2 192 192 192 255 0.25657 0.172993
0.405907 3.3117 0.560883 0 0 4 192 192 192 255 0.29377 0.170471
0.344225 3.3117 0.560883 0 0 5 192 192 192 255 0.29377 0.170471
0.448574 3.63177 0.560883 1 1 3 192 192 192 255 0.29377 0.170471
0.405907 3.56885 0.560883 0 0 5 192 192 192 255 0.29377 0.170471
0.301559 3.63177 0.560883 -2 2 3 192 192 192 255 0.29377 0.170471
0.344225 3.56885 0.560883 0 0 4 192 192 192 255 0.29377 0.170471
0.459337 3.63177 -0.045074 -1.24367 1 -1.85835 192 192 192 255 0.295404 0.354224
0.530151 3.63177 -0.054054 1.85832 2 -1.24359 192 192 192 255 0.295404 0.354224
0.607229 3.63177 0.553947 1.11786 1 0.86629 192 192 192 255 0.295404 0.354224
0.459337 2.92405 -0.045074 -2.10993 -2 -0.740536 192 192 192 255 0.258203 0.356746
0.536411 2.92405 0.562927 -0.866264 -1 1.11782 192 192 192 255 0.258203 0.356746
0.536411 3.63177 0.562927 -1.73253 2 2.23563 192 192 192 255 0.258203 0.356746
0.459337 3.63177 -0.045074 -1.24367 1 -1.85835 192 192 192 255 0.258203 0.356746
0.536411 3.63177 0.562927 -1.73253 2 2.23563 192 192 192 255 0.295404 0.354224
3 16 17 18 
3 16 18 19 
3 20 21 22 
3 20 22 23 
3 4 5 7 
3 4 7 6 
3 24 25 26 
3 24 26 27 
3 140 141 142 
3 140 142 143 
3 144 145 146 
3 144 146 147 
3 0 1 9 
3 0 9 8 
3 1 3 13 
3 1 13 15 
3 1 15 10 
3 1 10 9 
3 3 2 12 
3 3 12 13 
3 2 0 8 
3 2 8 14 
3 2 14 12 
3 14 8 11 
3 11 10 15 
3 11 15 14 
3 148 149 150 
3 148 150 151 
3 149 152 153 
3 149 153 150 
3 152 154 155 
3 152 155 153 
3 154 148 151 
3 154 151 155 
3 28 29 30 
3 28 30 31 
3 156 157 158 
3 156 158 159 
3 160 161 162 
3 160 162 163 
3 33 32 34 
3 33 34 35 
3 161 156 159 
3 161 159 162 
3 29 33 35 
3 29 35 30 
3 32 28 31 
3 32 31 34 
3 157 160 163 
3 157 163 158 
3 164 165 166 
3 164 166 167 
3 21 20 168 
3 21 168 169 
3 170 171 172 
3 170 172 173 
3 27 26 174 
3 27 174 175 
3 165 170 173 
3 165 173 166 
3 140 143 176 
3 140 176 177 
3 171 164 167 
3 171 167 172 
3 146 145 178 
3 146 178 179 
3 180 181 36 
3 180 36 37 
3 181 182 38 
3 181 38 36 
3 182 183 39 
3 182 39 38 
3 183 180 37 
3 183 37 39 
3 36 38 39 
3 36 39 37 
3 40 41 43 
3 40 43 42 
3 42 43 45 
3 42 45 44 
3 44 45 47 
3 44 47 46 
3 46 47 41 
3 46 41 40 
3 184 185 186 
3 184 186 187 
3 188 189 190 
3 188 190 191 
3 48 49 51 
3 48 51 50 
3 50 51 53 
3 50 53 52 
3 52 53 55 
3 52 55 54 
3 54 55 49 
3 54 49 48 
3 49 55 53 
3 49 53 51 
3 54 48 50 
3 54 50 52 
3 56 57 59 
3 56 59 58 
3 58 59 61 
3 58 61 60 
3 60 61 63 
3 60 63 62 
3 62 63 57 
3 62 57 56 
3 192 193 194 
3 192 194 195 
3 196 197 198 
3 196 198 199 
3 64 65 67 
3 64 67 66 
3 66 67 69 
3 66 69 68 
3 68 69 71 
3 68 71 70 
3 70 71 65 
3 70 65 64 
3 65 71 69 
3 65 69 67 
3 70 64 66 
3 70 66 68 
3 72 73 75 
3 72 75 74 
3 74 75 77 
3 74 77 76 
3 76 77 79 
3 76 79 78 
3 78 79 73 
3 78 73 72 
3 200 201 202 
3 200 202 203 
3 204 205 206 
3 204 206 207 
3 80 81 83 
3 80 83 82 
3 82 83 85 
3 82 85 84 
3 84 85 87 
3 84 87 86 
3 86 87 81 
3 86 81 80 
3 81 87 85 
3 81 85 83 
3 86 80 82 
3 86 82 84 
3 88 89 91 
3 88 91 90 
3 90 91 93 
3 90 93 92 
3 92 93 95 
3 92 95 94 
3 94 95 89 
3 94 89 88 
3 208 209 210 
3 208 210 211 
3 212 213 214 
3 212 214 215 
3 96 97 99 
3 96 99 98 
3 98 99 101 
3 98 101 100 
3 100 101 103 
3 100 103 102 
3 102 103 97 
3 102 97 96 
3 97 103 101 
3 97 101 99 
3 102 96 98 
3 102 98 100 
3 112 113 114 
3 112 114 115 
3 106 107 109 
3 106 109 108 
3 216 217 111 
3 216 111 110 
3 110 111 105 
3 110 105 104 
3 218 219 109 
3 218 109 107 
3 220 221 106 
3 220 106 108 
3 116 117 118 
3 116 118 119 
3 105 222 223 
3 105 223 224 
3 222 225 226 
3 222 226 223 
3 225 104 227 
3 225 227 226 
3 104 105 228 
3 104 228 229 
3 105 224 230 
3 105 230 228 
3 224 227 231 
3 224 231 230 
3 227 104 229 
3 227 229 231 
3 128 129 130 
3 128 130 131 
3 122 123 125 
3 122 125 124 
3 232 233 127 
3 232 127 126 
3 126 127 121 
3 126 121 120 
3 234 235 236 
3 234 236 237 
3 238 239 240 
3 238 240 241 
3 120 121 242 
3 120 242 243 
3 121 244 245 
3 121 245 242 
3 244 246 247 
3 244 247 245 
3 246 120 243 
3 246 243 247 
3 134 135 137 
3 134 137 136 
3 248 249 139 
3 248 139 138 
3 138 139 133 
3 138 133 132 
3 133 139 249 
3 133 249 250 
3 251 252 253 
3 251 253 254 
3 255 132 133 
3 255 133 250 
