ply
format ascii 1.0
comment VCGLIB generated
comment TextureFile SpaceInteriors_Texture.png
element vertex 52
property float x
property float y
property float z
property float nx
property float ny
property float nz
property uchar red
property uchar green
property uchar blue
property uchar alpha
property float texture_u
property float texture_v
element face 36
property list uchar int vertex_indices
end_header
-0.151385 0 0.151386 -1 -1 2 192 192 192 255 0.356791 0.085437
0.151385 0 0.151386 2 -2 1 192 192 192 255 0.356791 0.085437
-0.151385 0.049029 0.151386 -2 3 1 192 192 192 255 0.356791 0.085437
0.151385 0.049029 0.151386 1 3 2 192 192 192 255 0.356791 0.085437
-0.151385 0.049029 -0.151386 -1 3 -2 192 192 192 255 0.356791 0.085437
0.151385 0.049029 -0.151386 2 3 -1 192 192 192 255 0.356791 0.085437
-0.151385 0 -0.151386 -2 -2 -1 192 192 192 255 0.356791 0.085437
0.151385 0 -0.151386 1 -1 -2 192 192 192 255 0.356791 0.085437
-0.090857 0.049029 0.090855 -1 3 2 192 192 192 255 0.385152 0.085437
0.090857 0.049029 0.090855 2 3 1 192 192 192 255 0.385152 0.085437
0.090857 0.049029 -0.090855 1 3 -2 192 192 192 255 0.385152 0.085437
-0.090857 0.049029 -0.090855 -2 3 -1 192 192 192 255 0.385152 0.085437
-0.090857 0.972503 0.090855 -2 3 1 192 192 192 255 0.356791 0.085437
0.090857 0.972503 0.090855 1 3 2 192 192 192 255 0.356791 0.085437
0.090857 0.972503 -0.090855 2 3 -1 192 192 192 255 0.320631 0.085437
-0.090857 0.972503 -0.090855 -1 3 -2 192 192 192 255 0.356791 0.085437
-0.067038 0.972503 0.067039 0 5 0 192 192 192 255 0.267721 0.085437
0.067038 0.972503 0.067039 0 4 0 192 192 192 255 0.267721 0.085437
0.067038 0.972503 -0.067039 0 5 0 192 192 192 255 0.267721 0.085437
-0.067038 0.972503 -0.067039 0 4 0 192 192 192 255 0.267721 0.085437
0.151385 0 0.151386 2 -2 1 192 192 192 255 0.320631 0.085437
0.151385 0 -0.151386 1 -1 -2 192 192 192 255 0.320631 0.085437
0.151385 0.049029 -0.151386 2 3 -1 192 192 192 255 0.320631 0.085437
0.151385 0.049029 0.151386 1 3 2 192 192 192 255 0.320631 0.085437
-0.151385 0 -0.151386 -2 -2 -1 192 192 192 255 0.320631 0.085437
-0.151385 0 0.151386 -1 -1 2 192 192 192 255 0.320631 0.085437
-0.151385 0.049029 0.151386 -2 3 1 192 192 192 255 0.320631 0.085437
-0.151385 0.049029 -0.151386 -1 3 -2 192 192 192 255 0.320631 0.085437
-0.151385 0.049029 0.151386 -2 3 1 192 192 192 255 0.385152 0.085437
0.151385 0.049029 0.151386 1 3 2 192 192 192 255 0.385152 0.085437
0.151385 0.049029 -0.151386 2 3 -1 192 192 192 255 0.385152 0.085437
-0.151385 0.049029 -0.151386 -1 3 -2 192 192 192 255 0.385152 0.085437
-0.090857 0.049029 0.090855 -1 3 2 192 192 192 255 0.356791 0.085437
0.090857 0.049029 0.090855 2 3 1 192 192 192 255 0.356791 0.085437
0.090857 0.049029 0.090855 2 3 1 192 192 192 255 0.320631 0.085437
0.090857 0.049029 -0.090855 1 3 -2 192 192 192 255 0.320631 0.085437
0.090857 0.972503 0.090855 1 3 2 192 192 192 255 0.320631 0.085437
0.090857 0.049029 -0.090855 1 3 -2 192 192 192 255 0.356791 0.085437
-0.090857 0.049029 -0.090855 -2 3 -1 192 192 192 255 0.356791 0.085437
0.090857 0.972503 -0.090855 2 3 -1 192 192 192 255 0.356791 0.085437
-0.090857 0.049029 -0.090855 -2 3 -1 192 192 192 255 0.320631 0.085437
-0.090857 0.049029 0.090855 -1 3 2 192 192 192 255 0.320631 0.085437
-0.090857 0.972503 0.090855 -2 3 1 192 192 192 255 0.320631 0.085437
-0.090857 0.972503 -0.090855 -1 3 -2 192 192 192 255 0.320631 0.085437
-0.090857 0.972503 0.090855 -2 3 1 192 192 192 255 0.385152 0.085437
0.090857 0.972503 0.090855 1 3 2 192 192 192 255 0.385152 0.085437
0.067038 0.972503 0.067039 0 4 0 192 192 192 255 0.385152 0.085437
-0.067038 0.972503 0.067039 0 5 0 192 192 192 255 0.385152 0.085437
0.090857 0.972503 -0.090855 2 3 -1 192 192 192 255 0.385152 0.085437
0.067038 0.972503 -0.067039 0 5 0 192 192 192 255 0.385152 0.085437
-0.090857 0.972503 -0.090855 -1 3 -2 192 192 192 255 0.385152 0.085437
-0.067038 0.972503 -0.067039 0 4 0 192 192 192 255 0.385152 0.085437
3 0 1 3 
3 0 3 2 
3 16 17 18 
3 16 18 19 
3 4 5 7 
3 4 7 6 
3 6 7 1 
3 6 1 0 
3 20 21 22 
3 20 22 23 
3 24 25 26 
3 24 26 27 
3 28 29 9 
3 28 9 8 
3 29 30 10 
3 29 10 9 
3 30 31 11 
3 30 11 10 
3 31 28 8 
3 31 8 11 
3 32 33 13 
3 32 13 12 
3 34 35 14 
3 34 14 36 
3 37 38 15 
3 37 15 39 
3 40 41 42 
3 40 42 43 
3 44 45 46 
3 44 46 47 
3 45 48 49 
3 45 49 46 
3 48 50 51 
3 48 51 49 
3 50 44 47 
3 50 47 51 
