ply
format ascii 1.0
comment VCGLIB generated
comment TextureFile SpaceInteriors_Texture.png
element vertex 240
property float x
property float y
property float z
property float nx
property float ny
property float nz
property uchar red
property uchar green
property uchar blue
property uchar alpha
property float texture_u
property float texture_v
element face 206
property list uchar int vertex_indices
end_header
-0.48111 0.151186 -0.268626 -1 1 -2 192 192 192 255 0.642114 0.191975
0.48111 0.151186 -0.268626 2 2 -1 192 192 192 255 0.503043 0.191975
-0.48111 0.151186 0.268626 -2 2 1 192 192 192 255 0.642114 0.277855
0.48111 0.151186 0.268626 1 1 2 192 192 192 255 0.503043 0.277855
0.48111 0 -0.268626 1 0 -2 192 192 192 255 0.877579 0.406055
-0.48111 0 -0.268626 -2 0 -1 192 192 192 255 0.877579 0.406055
-0.48111 0 0.268626 -1 0 2 192 192 192 255 0.892889 0.406055
0.48111 0 0.268626 2 0 1 192 192 192 255 0.877579 0.406055
0.068663 0.169934 -0.159951 -2 -3 -1 192 192 192 255 0.301081 0.478788
0.068663 0.169934 0.158748 -1 -3 2 192 192 192 255 0.301081 0.478788
0.068663 0.230799 -0.159951 -1 6 -2 192 192 192 255 0.301081 0.478788
0.068663 0.230799 0.158748 -2 6 1 192 192 192 255 0.301081 0.478788
0.38736 0.230799 -0.159951 2 6 -1 192 192 192 255 0.301081 0.478788
0.38736 0.230799 0.158748 1 6 2 192 192 192 255 0.301081 0.478788
0.38736 0.169934 -0.159951 1 -3 -2 192 192 192 255 0.301081 0.478788
0.38736 0.169934 0.158748 2 -3 1 192 192 192 255 0.301081 0.478788
0.189562 0.230799 -0.039052 0 9 0 192 192 192 255 0.17496 0.474433
0.189562 0.230799 0.037847 0 8 0 192 192 192 255 0.17496 0.474433
0.26646 0.230799 0.037847 0 9 0 192 192 192 255 0.17496 0.474433
0.26646 0.230799 -0.039052 0 8 0 192 192 192 255 0.17496 0.474433
0.097084 0.230799 -0.042447 0 5 0 192 192 192 255 0.289492 0.469661
0.097084 0.230799 0.04124 0 4 0 192 192 192 255 0.289492 0.469661
0.161087 0.230799 0.010446 0 4 0 192 192 192 255 0.364237 0.474433
0.161087 0.230799 -0.011653 0 4 0 192 192 192 255 0.364237 0.474433
0.183929 0.230799 0.131433 0 5 0 192 192 192 255 0.289492 0.469661
0.272093 0.230799 0.131433 0 4 0 192 192 192 255 0.289492 0.469661
0.239651 0.230799 0.065368 0 4 0 192 192 192 255 0.364237 0.474433
0.216372 0.230799 0.065368 0 4 0 192 192 192 255 0.364237 0.474433
0.358936 0.230799 -0.042447 0 4 0 192 192 192 255 0.289492 0.469661
0.358936 0.230799 0.04124 0 5 0 192 192 192 255 0.289492 0.469661
0.294933 0.230799 -0.011653 0 4 0 192 192 192 255 0.364237 0.474433
0.294933 0.230799 0.010446 0 4 0 192 192 192 255 0.364237 0.474433
0.183929 0.230799 -0.132638 0 4 0 192 192 192 255 0.289492 0.469661
0.272093 0.230799 -0.132638 0 5 0 192 192 192 255 0.289492 0.469661
0.216372 0.230799 -0.066573 0 4 0 192 192 192 255 0.364237 0.474433
0.239651 0.230799 -0.066573 0 4 0 192 192 192 255 0.364237 0.474433
0.20015 0.230799 0.098403 0 6 0 192 192 192 255 0.289492 0.469661
0.129112 0.230799 0.098296 0 5 0 192 192 192 255 0.364237 0.474433
0.129086 0.230799 0.025844 0 7 0 192 192 192 255 0.289492 0.469661
0.129086 0.230799 -0.027049 0 6 0 192 192 192 255 0.289492 0.469661
0.129112 0.230799 -0.099502 0 5 0 192 192 192 255 0.364237 0.474433
0.20015 0.230799 -0.099607 0 7 0 192 192 192 255 0.289492 0.469661
0.255871 0.230799 -0.099607 0 6 0 192 192 192 255 0.289492 0.469661
0.32691 0.230799 -0.099502 0 5 0 192 192 192 255 0.364237 0.474433
0.326935 0.230799 -0.027049 0 7 0 192 192 192 255 0.289492 0.469661
0.326935 0.230799 0.025844 0 6 0 192 192 192 255 0.289492 0.469661
0.32691 0.230799 0.098296 0 5 0 192 192 192 255 0.364237 0.474433
0.255871 0.230799 0.098403 0 7 0 192 192 192 255 0.289492 0.469661
0.352081 0.169934 -0.124673 2 -3 -1 192 192 192 255 0.333748 0.475159
0.352081 0.169934 0.123469 1 -3 2 192 192 192 255 0.333748 0.475159
0.103939 0.169934 0.123469 -2 -3 1 192 192 192 255 0.333748 0.475158
0.103939 0.169934 -0.124673 -1 -3 -2 192 192 192 255 0.333748 0.475158
0.352081 0.151186 -0.124673 1 0 -2 192 192 192 255 0.333748 0.475159
0.352081 0.151186 0.123469 2 0 1 192 192 192 255 0.333748 0.475159
0.103939 0.151186 0.123469 -1 0 2 192 192 192 255 0.333748 0.475158
0.103939 0.151186 -0.124673 -2 0 -1 192 192 192 255 0.333748 0.475158
-0.403957 0.169934 -0.159951 -2 -3 -1 192 192 192 255 0.301081 0.478788
-0.403957 0.169934 0.158748 -1 -3 2 192 192 192 255 0.301081 0.478788
-0.403957 0.230799 -0.159951 -1 6 -2 192 192 192 255 0.301081 0.478788
-0.403957 0.230799 0.158748 -2 6 1 192 192 192 255 0.301081 0.478788
-0.08526 0.230799 -0.159951 2 6 -1 192 192 192 255 0.301081 0.478788
-0.08526 0.230799 0.158748 1 6 2 192 192 192 255 0.301081 0.478788
-0.08526 0.169934 -0.159951 1 -3 -2 192 192 192 255 0.301081 0.478788
-0.08526 0.169934 0.158748 2 -3 1 192 192 192 255 0.301081 0.478788
-0.283058 0.230799 -0.039052 0 9 0 192 192 192 255 0.17496 0.474433
-0.283058 0.230799 0.037847 0 8 0 192 192 192 255 0.17496 0.474433
-0.20616 0.230799 0.037847 0 9 0 192 192 192 255 0.17496 0.474433
-0.20616 0.230799 -0.039052 0 8 0 192 192 192 255 0.17496 0.474433
-0.375534 0.230799 -0.042447 0 5 0 192 192 192 255 0.289492 0.469661
-0.375534 0.230799 0.04124 0 4 0 192 192 192 255 0.289492 0.469661
-0.311531 0.230799 0.010446 0 4 0 192 192 192 255 0.364237 0.474433
-0.311531 0.230799 -0.011653 0 4 0 192 192 192 255 0.364237 0.474433
-0.288691 0.230799 0.131433 0 5 0 192 192 192 255 0.289492 0.469661
-0.200527 0.230799 0.131433 0 4 0 192 192 192 255 0.289492 0.469661
-0.232969 0.230799 0.065368 0 4 0 192 192 192 255 0.364237 0.474433
-0.256248 0.230799 0.065368 0 4 0 192 192 192 255 0.364237 0.474433
-0.113682 0.230799 -0.042447 0 4 0 192 192 192 255 0.289492 0.469661
-0.113682 0.230799 0.04124 0 5 0 192 192 192 255 0.289492 0.469661
-0.177685 0.230799 -0.011653 0 4 0 192 192 192 255 0.364237 0.474433
-0.177685 0.230799 0.010446 0 4 0 192 192 192 255 0.364237 0.474433
-0.288691 0.230799 -0.132638 0 4 0 192 192 192 255 0.289492 0.469661
-0.200527 0.230799 -0.132638 0 5 0 192 192 192 255 0.289492 0.469661
-0.256248 0.230799 -0.066573 0 4 0 192 192 192 255 0.364237 0.474433
-0.232969 0.230799 -0.066573 0 4 0 192 192 192 255 0.364237 0.474433
-0.272469 0.230799 0.098403 0 6 0 192 192 192 255 0.289492 0.469661
-0.343508 0.230799 0.098296 0 5 0 192 192 192 255 0.364237 0.474433
-0.343533 0.230799 0.025844 0 7 0 192 192 192 255 0.289492 0.469661
-0.343533 0.230799 -0.027049 0 6 0 192 192 192 255 0.289492 0.469661
-0.343508 0.230799 -0.099502 0 5 0 192 192 192 255 0.364237 0.474433
-0.272469 0.230799 -0.099607 0 7 0 192 192 192 255 0.289492 0.469661
-0.216747 0.230799 -0.099607 0 6 0 192 192 192 255 0.289492 0.469661
-0.14571 0.230799 -0.099502 0 5 0 192 192 192 255 0.364237 0.474433
-0.145683 0.230799 -0.027049 0 7 0 192 192 192 255 0.289492 0.469661
-0.145683 0.230799 0.025844 0 6 0 192 192 192 255 0.289492 0.469661
-0.14571 0.230799 0.098296 0 5 0 192 192 192 255 0.364237 0.474433
-0.216747 0.230799 0.098403 0 7 0 192 192 192 255 0.289492 0.469661
-0.120537 0.169934 -0.124673 2 -3 -1 192 192 192 255 0.333748 0.475159
-0.120537 0.169934 0.123469 1 -3 2 192 192 192 255 0.333748 0.475159
-0.368681 0.169934 0.123469 -2 -3 1 192 192 192 255 0.333748 0.475158
-0.368681 0.169934 -0.124673 -1 -3 -2 192 192 192 255 0.333748 0.475158
-0.120537 0.151186 -0.124673 1 0 -2 192 192 192 255 0.333748 0.475159
-0.120537 0.151186 0.123469 2 0 1 192 192 192 255 0.333748 0.475159
-0.368681 0.151186 0.123469 -1 0 2 192 192 192 255 0.333748 0.475158
-0.368681 0.151186 -0.124673 -2 0 -1 192 192 192 255 0.333748 0.475158
-0.08526 0.177988 0.082557 0 -1 -1 192 192 192 255 0.198551 0.480725
-0.08526 0.177988 0.11712 0 -2 2 192 192 192 255 0.198551 0.480725
-0.08526 0.222744 0.082557 0 2 -2 192 192 192 255 0.229041 0.48
-0.08526 0.222744 0.11712 0 1 1 192 192 192 255 0.229041 0.48
0.068663 0.222744 0.082557 0 1 -1 192 192 192 255 0.229041 0.48
0.068663 0.222744 0.11712 0 2 2 192 192 192 255 0.229041 0.48
0.068663 0.177988 0.082557 0 -2 -2 192 192 192 255 0.198551 0.480725
0.068663 0.177988 0.11712 0 -1 1 192 192 192 255 0.198551 0.480725
-0.08526 0.177988 -0.125596 0 -1 -1 192 192 192 255 0.198551 0.480725
-0.08526 0.177988 -0.091029 0 -2 2 192 192 192 255 0.198551 0.480725
-0.08526 0.222744 -0.125596 0 2 -2 192 192 192 255 0.229041 0.48
-0.08526 0.222744 -0.091029 0 1 1 192 192 192 255 0.229041 0.48
0.068663 0.222744 -0.125596 0 1 -1 192 192 192 255 0.229041 0.48
0.068663 0.222744 -0.091029 0 2 2 192 192 192 255 0.229041 0.48
0.068663 0.177988 -0.125596 0 -2 -2 192 192 192 255 0.198551 0.480725
0.068663 0.177988 -0.091029 0 -1 1 192 192 192 255 0.198551 0.480725
-0.48111 0.151186 -0.268626 -1 1 -2 192 192 192 255 0.877579 0.406055
0.48111 0.151186 -0.268626 2 2 -1 192 192 192 255 0.877579 0.406055
-0.48111 0.151186 0.268626 -2 2 1 192 192 192 255 0.892889 0.406055
-0.48111 0.151186 -0.268626 -1 1 -2 192 192 192 255 0.892889 0.406055
-0.48111 0 -0.268626 -2 0 -1 192 192 192 255 0.892889 0.406055
0.48111 0.151186 0.268626 1 1 2 192 192 192 255 0.877579 0.406055
-0.48111 0.151186 0.268626 -2 2 1 192 192 192 255 0.877579 0.406055
-0.48111 0 0.268626 -1 0 2 192 192 192 255 0.877579 0.406055
0.48111 0.151186 -0.268626 2 2 -1 192 192 192 255 0.892889 0.406055
0.48111 0.151186 0.268626 1 1 2 192 192 192 255 0.892889 0.406055
0.48111 0 0.268626 2 0 1 192 192 192 255 0.892889 0.406055
0.48111 0 -0.268626 1 0 -2 192 192 192 255 0.892889 0.406055
0.068663 0.169934 0.158748 -1 -3 2 192 192 192 255 0.333748 0.475159
0.38736 0.169934 0.158748 2 -3 1 192 192 192 255 0.333748 0.475159
0.38736 0.230799 0.158748 1 6 2 192 192 192 255 0.333748 0.475159
0.068663 0.230799 0.158748 -2 6 1 192 192 192 255 0.333748 0.475159
0.38736 0.169934 -0.159951 1 -3 -2 192 192 192 255 0.333748 0.475159
0.068663 0.169934 -0.159951 -2 -3 -1 192 192 192 255 0.333748 0.475159
0.068663 0.230799 -0.159951 -1 6 -2 192 192 192 255 0.333748 0.475159
0.38736 0.230799 -0.159951 2 6 -1 192 192 192 255 0.333748 0.475159
0.068663 0.230799 -0.159951 -1 6 -2 192 192 192 255 0.364237 0.474433
0.068663 0.230799 0.158748 -2 6 1 192 192 192 255 0.364237 0.474433
0.097084 0.230799 0.04124 0 4 0 192 192 192 255 0.364237 0.474433
0.097084 0.230799 -0.042447 0 5 0 192 192 192 255 0.364237 0.474433
0.129086 0.230799 0.025844 0 7 0 192 192 192 255 0.364237 0.474433
0.189562 0.230799 0.037847 0 8 0 192 192 192 255 0.364237 0.474433
0.189562 0.230799 -0.039052 0 9 0 192 192 192 255 0.364237 0.474433
0.129086 0.230799 -0.027049 0 6 0 192 192 192 255 0.364237 0.474433
0.38736 0.230799 0.158748 1 6 2 192 192 192 255 0.364237 0.474433
0.272093 0.230799 0.131433 0 4 0 192 192 192 255 0.364237 0.474433
0.183929 0.230799 0.131433 0 5 0 192 192 192 255 0.364237 0.474433
0.255871 0.230799 0.098403 0 7 0 192 192 192 255 0.364237 0.474433
0.26646 0.230799 0.037847 0 9 0 192 192 192 255 0.364237 0.474433
0.20015 0.230799 0.098403 0 6 0 192 192 192 255 0.364237 0.474433
0.38736 0.230799 -0.159951 2 6 -1 192 192 192 255 0.364237 0.474433
0.358936 0.230799 -0.042447 0 4 0 192 192 192 255 0.364237 0.474433
0.358936 0.230799 0.04124 0 5 0 192 192 192 255 0.364237 0.474433
0.326935 0.230799 -0.027049 0 7 0 192 192 192 255 0.364237 0.474433
0.26646 0.230799 -0.039052 0 8 0 192 192 192 255 0.364237 0.474433
0.326935 0.230799 0.025844 0 6 0 192 192 192 255 0.364237 0.474433
0.183929 0.230799 -0.132638 0 4 0 192 192 192 255 0.364237 0.474433
0.272093 0.230799 -0.132638 0 5 0 192 192 192 255 0.364237 0.474433
0.20015 0.230799 -0.099607 0 7 0 192 192 192 255 0.364237 0.474433
0.255871 0.230799 -0.099607 0 6 0 192 192 192 255 0.364237 0.474433
0.129086 0.230799 -0.027049 0 6 0 192 192 192 255 0.194854 0.477614
0.129086 0.230799 0.025844 0 7 0 192 192 192 255 0.194854 0.477614
0.161087 0.230799 0.010446 0 4 0 192 192 192 255 0.194854 0.477614
0.161087 0.230799 -0.011653 0 4 0 192 192 192 255 0.194854 0.477614
0.255871 0.230799 -0.099607 0 6 0 192 192 192 255 0.194854 0.477614
0.20015 0.230799 -0.099607 0 7 0 192 192 192 255 0.194854 0.477614
0.216372 0.230799 -0.066573 0 4 0 192 192 192 255 0.194854 0.477614
0.239651 0.230799 -0.066573 0 4 0 192 192 192 255 0.194854 0.477614
0.326935 0.230799 0.025844 0 6 0 192 192 192 255 0.194854 0.477614
0.326935 0.230799 -0.027049 0 7 0 192 192 192 255 0.194854 0.477614
0.294933 0.230799 -0.011653 0 4 0 192 192 192 255 0.194854 0.477614
0.294933 0.230799 0.010446 0 4 0 192 192 192 255 0.194854 0.477614
0.20015 0.230799 0.098403 0 6 0 192 192 192 255 0.194854 0.477614
0.255871 0.230799 0.098403 0 7 0 192 192 192 255 0.194854 0.477614
0.239651 0.230799 0.065368 0 4 0 192 192 192 255 0.194854 0.477614
0.216372 0.230799 0.065368 0 4 0 192 192 192 255 0.194854 0.477614
0.068663 0.169934 0.158748 -1 -3 2 192 192 192 255 0.333748 0.475158
0.068663 0.169934 -0.159951 -2 -3 -1 192 192 192 255 0.333748 0.475158
-0.403957 0.169934 0.158748 -1 -3 2 192 192 192 255 0.333748 0.475159
-0.08526 0.169934 0.158748 2 -3 1 192 192 192 255 0.333748 0.475159
-0.08526 0.230799 0.158748 1 6 2 192 192 192 255 0.333748 0.475159
-0.403957 0.230799 0.158748 -2 6 1 192 192 192 255 0.333748 0.475159
-0.08526 0.169934 -0.159951 1 -3 -2 192 192 192 255 0.333748 0.475159
-0.403957 0.169934 -0.159951 -2 -3 -1 192 192 192 255 0.333748 0.475159
-0.403957 0.230799 -0.159951 -1 6 -2 192 192 192 255 0.333748 0.475159
-0.08526 0.230799 -0.159951 2 6 -1 192 192 192 255 0.333748 0.475159
-0.403957 0.230799 -0.159951 -1 6 -2 192 192 192 255 0.364237 0.474433
-0.403957 0.230799 0.158748 -2 6 1 192 192 192 255 0.364237 0.474433
-0.375534 0.230799 0.04124 0 4 0 192 192 192 255 0.364237 0.474433
-0.375534 0.230799 -0.042447 0 5 0 192 192 192 255 0.364237 0.474433
-0.343533 0.230799 0.025844 0 7 0 192 192 192 255 0.364237 0.474433
-0.283058 0.230799 0.037847 0 8 0 192 192 192 255 0.364237 0.474433
-0.283058 0.230799 -0.039052 0 9 0 192 192 192 255 0.364237 0.474433
-0.343533 0.230799 -0.027049 0 6 0 192 192 192 255 0.364237 0.474433
-0.08526 0.230799 0.158748 1 6 2 192 192 192 255 0.364237 0.474433
-0.200527 0.230799 0.131433 0 4 0 192 192 192 255 0.364237 0.474433
-0.288691 0.230799 0.131433 0 5 0 192 192 192 255 0.364237 0.474433
-0.216747 0.230799 0.098403 0 7 0 192 192 192 255 0.364237 0.474433
-0.20616 0.230799 0.037847 0 9 0 192 192 192 255 0.364237 0.474433
-0.272469 0.230799 0.098403 0 6 0 192 192 192 255 0.364237 0.474433
-0.08526 0.230799 -0.159951 2 6 -1 192 192 192 255 0.364237 0.474433
-0.113682 0.230799 -0.042447 0 4 0 192 192 192 255 0.364237 0.474433
-0.113682 0.230799 0.04124 0 5 0 192 192 192 255 0.364237 0.474433
-0.145683 0.230799 -0.027049 0 7 0 192 192 192 255 0.364237 0.474433
-0.20616 0.230799 -0.039052 0 8 0 192 192 192 255 0.364237 0.474433
-0.145683 0.230799 0.025844 0 6 0 192 192 192 255 0.364237 0.474433
-0.288691 0.230799 -0.132638 0 4 0 192 192 192 255 0.364237 0.474433
-0.200527 0.230799 -0.132638 0 5 0 192 192 192 255 0.364237 0.474433
-0.272469 0.230799 -0.099607 0 7 0 192 192 192 255 0.364237 0.474433
-0.216747 0.230799 -0.099607 0 6 0 192 192 192 255 0.364237 0.474433
-0.343533 0.230799 -0.027049 0 6 0 192 192 192 255 0.194854 0.477614
-0.343533 0.230799 0.025844 0 7 0 192 192 192 255 0.194854 0.477614
-0.311531 0.230799 0.010446 0 4 0 192 192 192 255 0.194854 0.477614
-0.311531 0.230799 -0.011653 0 4 0 192 192 192 255 0.194854 0.477614
-0.216747 0.230799 -0.099607 0 6 0 192 192 192 255 0.194854 0.477614
-0.272469 0.230799 -0.099607 0 7 0 192 192 192 255 0.194854 0.477614
-0.256248 0.230799 -0.066573 0 4 0 192 192 192 255 0.194854 0.477614
-0.232969 0.230799 -0.066573 0 4 0 192 192 192 255 0.194854 0.477614
-0.145683 0.230799 0.025844 0 6 0 192 192 192 255 0.194854 0.477614
-0.145683 0.230799 -0.027049 0 7 0 192 192 192 255 0.194854 0.477614
-0.177685 0.230799 -0.011653 0 4 0 192 192 192 255 0.194854 0.477614
-0.177685 0.230799 0.010446 0 4 0 192 192 192 255 0.194854 0.477614
-0.272469 0.230799 0.098403 0 6 0 192 192 192 255 0.194854 0.477614
-0.216747 0.230799 0.098403 0 7 0 192 192 192 255 0.194854 0.477614
-0.232969 0.230799 0.065368 0 4 0 192 192 192 255 0.194854 0.477614
-0.256248 0.230799 0.065368 0 4 0 192 192 192 255 0.194854 0.477614
-0.403957 0.169934 0.158748 -1 -3 2 192 192 192 255 0.333748 0.475158
-0.403957 0.169934 -0.159951 -2 -3 -1 192 192 192 255 0.333748 0.475158
0.068663 0.222744 0.11712 0 2 2 192 192 192 255 0.198551 0.480725
-0.08526 0.222744 0.11712 0 1 1 192 192 192 255 0.198551 0.480725
-0.08526 0.222744 0.082557 0 2 -2 192 192 192 255 0.198551 0.480725
0.068663 0.222744 0.082557 0 1 -1 192 192 192 255 0.198551 0.480725
0.068663 0.222744 -0.091029 0 2 2 192 192 192 255 0.198551 0.480725
-0.08526 0.222744 -0.091029 0 1 1 192 192 192 255 0.198551 0.480725
-0.08526 0.222744 -0.125596 0 2 -2 192 192 192 255 0.198551 0.480725
0.068663 0.222744 -0.125596 0 1 -1 192 192 192 255 0.198551 0.480725
3 1 0 2 
3 1 2 3 
3 120 121 4 
3 120 4 5 
3 122 123 124 
3 122 124 6 
3 125 126 127 
3 125 127 7 
3 128 129 130 
3 128 130 131 
3 8 9 11 
3 8 11 10 
3 16 17 18 
3 16 18 19 
3 12 13 15 
3 12 15 14 
3 132 133 134 
3 132 134 135 
3 136 137 138 
3 136 138 139 
3 20 21 38 
3 20 38 39 
3 24 25 47 
3 24 47 36 
3 29 28 44 
3 29 44 45 
3 33 32 41 
3 33 41 42 
3 140 141 142 
3 140 142 143 
3 141 37 144 
3 141 144 142 
3 145 146 23 
3 145 23 22 
3 40 140 143 
3 40 143 147 
3 141 148 149 
3 141 149 150 
3 148 46 151 
3 148 151 149 
3 152 145 27 
3 152 27 26 
3 37 141 150 
3 37 150 153 
3 148 154 155 
3 148 155 156 
3 154 43 157 
3 154 157 155 
3 158 152 31 
3 158 31 30 
3 46 148 156 
3 46 156 159 
3 154 140 160 
3 154 160 161 
3 140 40 162 
3 140 162 160 
3 146 158 35 
3 146 35 34 
3 43 154 161 
3 43 161 163 
3 145 37 153 
3 145 153 27 
3 144 37 145 
3 144 145 22 
3 164 165 166 
3 164 166 167 
3 146 40 147 
3 146 147 23 
3 162 40 146 
3 162 146 34 
3 168 169 170 
3 168 170 171 
3 158 43 163 
3 158 163 35 
3 157 43 158 
3 157 158 30 
3 172 173 174 
3 172 174 175 
3 152 46 159 
3 152 159 31 
3 151 46 152 
3 151 152 26 
3 176 177 178 
3 176 178 179 
3 136 133 49 
3 136 49 48 
3 133 180 50 
3 133 50 49 
3 180 181 51 
3 180 51 50 
3 181 136 48 
3 181 48 51 
3 48 49 53 
3 48 53 52 
3 49 50 54 
3 49 54 53 
3 50 51 55 
3 50 55 54 
3 51 48 52 
3 51 52 55 
3 56 57 59 
3 56 59 58 
3 64 65 66 
3 64 66 67 
3 60 61 63 
3 60 63 62 
3 182 183 184 
3 182 184 185 
3 186 187 188 
3 186 188 189 
3 68 69 86 
3 68 86 87 
3 72 73 95 
3 72 95 84 
3 77 76 92 
3 77 92 93 
3 81 80 89 
3 81 89 90 
3 190 191 192 
3 190 192 193 
3 191 85 194 
3 191 194 192 
3 195 196 71 
3 195 71 70 
3 88 190 193 
3 88 193 197 
3 191 198 199 
3 191 199 200 
3 198 94 201 
3 198 201 199 
3 202 195 75 
3 202 75 74 
3 85 191 200 
3 85 200 203 
3 198 204 205 
3 198 205 206 
3 204 91 207 
3 204 207 205 
3 208 202 79 
3 208 79 78 
3 94 198 206 
3 94 206 209 
3 204 190 210 
3 204 210 211 
3 190 88 212 
3 190 212 210 
3 196 208 83 
3 196 83 82 
3 91 204 211 
3 91 211 213 
3 195 85 203 
3 195 203 75 
3 194 85 195 
3 194 195 70 
3 214 215 216 
3 214 216 217 
3 196 88 197 
3 196 197 71 
3 212 88 196 
3 212 196 82 
3 218 219 220 
3 218 220 221 
3 208 91 213 
3 208 213 83 
3 207 91 208 
3 207 208 78 
3 222 223 224 
3 222 224 225 
3 202 94 209 
3 202 209 79 
3 201 94 202 
3 201 202 74 
3 226 227 228 
3 226 228 229 
3 186 183 97 
3 186 97 96 
3 183 230 98 
3 183 98 97 
3 230 231 99 
3 230 99 98 
3 231 186 96 
3 231 96 99 
3 96 97 101 
3 96 101 100 
3 97 98 102 
3 97 102 101 
3 98 99 103 
3 98 103 102 
3 99 96 100 
3 99 100 103 
3 106 107 109 
3 106 109 108 
3 110 111 105 
3 110 105 104 
3 105 111 232 
3 105 232 233 
3 110 104 234 
3 110 234 235 
3 114 115 117 
3 114 117 116 
3 118 119 113 
3 118 113 112 
3 113 119 236 
3 113 236 237 
3 118 112 238 
3 118 238 239 
