ply
format ascii 1.0
comment VCGLIB generated
comment TextureFile SpaceInteriors_Texture.png
element vertex 200
property float x
property float y
property float z
property float nx
property float ny
property float nz
property uchar red
property uchar green
property uchar blue
property uchar alpha
property float texture_u
property float texture_v
element face 128
property list uchar int vertex_indices
end_header
-0.339839 0.119791 -0.138324 -3 -0.418114 3.97809 192 192 192 255 0.271323 0.218473
0.340921 0.119791 -0.138324 3 -0.522644 4.97261 192 192 192 255 0.271323 0.218473
-0.339839 1.35963 -0.008012 -2 1.67547 3.19261 192 192 192 255 0.331374 0.218473
0.340921 1.35963 -0.008012 1 0.680953 3.08809 192 192 192 255 0.331374 0.218473
-0.339839 1.37106 -0.116681 -1 1.22201 -2.05974 192 192 192 255 0.331374 0.218473
0.340921 1.37106 -0.116681 2 2.112 -0.960695 192 192 192 255 0.331374 0.218473
-0.339839 0.131212 -0.246994 -3 0.428513 -4.07697 192 192 192 255 0.271323 0.218473
0.340921 0.131212 -0.246994 3 0.219453 -2.08793 192 192 192 255 0.271323 0.218473
-0.135612 0.119791 -0.138324 1 -2.40716 3.76904 192 192 192 255 0.237177 0.218473
0.136693 0.119791 -0.138324 -2 -1.30811 2.87904 192 192 192 255 0.237177 0.218473
-0.135612 0.131212 -0.246994 2 -0.680934 -3.08809 192 192 192 255 0.237177 0.218473
0.136693 0.131212 -0.246994 -1 -1.57093 -4.18713 192 192 192 255 0.237177 0.218473
-0.339839 0.005711 -0.260185 -2 -1.88451 -1.20358 192 192 192 255 0.237177 0.218473
-0.135612 0.005711 -0.260185 1 -0.78546 -2.09357 192 192 192 255 0.237177 0.218473
-0.135612 -0.005711 -0.151515 2 -2.09357 0.785459 192 192 192 255 0.237177 0.218473
-0.339839 -0.005711 -0.151515 -1 -1.20358 1.88451 192 192 192 255 0.237177 0.218473
0.136693 0.005711 -0.260185 -2 -0.889991 -1.09905 192 192 192 255 0.237177 0.218473
0.136693 -0.005711 -0.151515 -1 -2.1981 1.77998 192 192 192 255 0.237177 0.218473
0.340921 0.005711 -0.260185 1 -1.77998 -2.19811 192 192 192 255 0.237176 0.218473
0.340921 -0.005711 -0.151515 2 -1.09905 0.88999 192 192 192 255 0.237176 0.218473
-0.252704 1.14127 -0.030963 0.999999 0.680937 3.0881 192 192 192 255 0.175083 0.218473
0.253786 1.14127 -0.030963 -1 1.4664 5.18167 192 192 192 255 0.175083 0.218473
0.253786 1.28081 -0.016296 -2 -2.30262 2.77451 192 192 192 255 0.175083 0.218473
-0.252704 1.28081 -0.016296 2 -1.30809 2.87904 192 192 192 255 0.29605 0.218473
-0.252704 1.29223 -0.124966 1 -1.88323 -1.21574 192 192 192 255 0.29605 0.218473
0.253786 1.29223 -0.124966 -1 -0.784175 -2.10573 192 192 192 255 0.29605 0.218473
0.253786 1.15269 -0.139632 -2 1.10289 -0.926522 192 192 192 255 0.29605 0.218473
-0.252704 1.15269 -0.139632 2 2.20194 -1.81651 192 192 192 255 0.099842 0.218473
0.261164 0.392437 -0.219538 2.23517e-008 0.537221 -5.1113 192 192 192 255 0.29605 0.218473
0.261164 0.891467 -0.167088 1.32248e-007 0.424859 -4.04226 192 192 192 255 0.29605 0.218473
-0.260083 0.392437 -0.219538 -2.23517e-008 0.328162 -3.12225 192 192 192 255 0.996976 0.028022
-0.260083 0.891467 -0.167088 -1.32248e-007 0.215802 -2.05322 192 192 192 255 0.996976 0.157186
-0.34038 0.131212 0.201049 -3 0.219453 2.08793 192 192 192 255 0.271323 0.218473
0.34038 0.131212 0.201049 3 0.428513 4.07697 192 192 192 255 0.271323 0.218473
-0.34038 1.37106 0.070736 -2 2.112 0.960695 192 192 192 255 0.331374 0.218473
0.34038 1.37106 0.070736 1 1.22201 2.05974 192 192 192 255 0.331374 0.218473
-0.34038 1.35963 -0.037933 -1 0.680952 -3.08809 192 192 192 255 0.331374 0.218473
0.34038 1.35963 -0.037933 2 1.67547 -3.19261 192 192 192 255 0.331374 0.218473
-0.34038 0.119791 0.09238 -3 -0.62716 -5.96713 192 192 192 255 0.271323 0.218473
0.34038 0.119791 0.09238 3 -0.31358 -2.98357 192 192 192 255 0.271323 0.218473
-0.136152 0.131212 0.201049 1 -1.57092 4.18713 192 192 192 255 0.237177 0.218473
0.136153 0.131212 0.201049 -2 -0.680933 3.08809 192 192 192 255 0.237177 0.218473
-0.136152 0.119791 0.09238 2 -1.3081 -2.87904 192 192 192 255 0.237177 0.218473
0.136153 0.119791 0.09238 -1 -2.40715 -3.76904 192 192 192 255 0.237177 0.218473
-0.34038 -0.005711 0.10557 -2 -2.09357 -0.78546 192 192 192 255 0.237177 0.218473
-0.136152 -0.005711 0.10557 1 -1.20357 -1.88451 192 192 192 255 0.237177 0.218473
-0.136152 0.005711 0.21424 2 -1.88451 1.20358 192 192 192 255 0.237177 0.218473
-0.34038 0.005711 0.21424 -1 -0.78546 2.09357 192 192 192 255 0.237177 0.218473
0.136153 -0.005711 0.10557 -2 -1.09904 -0.889991 192 192 192 255 0.237177 0.218473
0.136153 0.005711 0.21424 -1 -1.77998 2.19811 192 192 192 255 0.237177 0.218473
0.34038 -0.005711 0.10557 1 -2.19809 -1.77998 192 192 192 255 0.237176 0.218473
0.34038 0.005711 0.21424 2 -0.889991 1.09905 192 192 192 255 0.237176 0.218473
-0.253245 1.15269 0.093687 1 1.10289 0.926522 192 192 192 255 0.29605 0.218473
0.253245 1.15269 0.093687 -1 2.20194 1.81651 192 192 192 255 0.099842 0.218473
0.253245 1.29223 0.079021 -2 -1.88323 1.21574 192 192 192 255 0.29605 0.218473
-0.253245 1.29223 0.079021 2 -0.784175 2.10573 192 192 192 255 0.29605 0.218473
-0.253245 1.28081 -0.029649 0.999996 -2.30262 -2.77451 192 192 192 255 0.29605 0.218473
0.253245 1.28081 -0.029649 -0.999998 -1.30809 -2.87904 192 192 192 255 0.29605 0.218473
0.253245 1.14127 -0.014982 -2 0.367349 -6.07166 192 192 192 255 0.175083 0.218473
-0.253245 1.14127 -0.014982 2 1.77999 -2.19811 192 192 192 255 0.175083 0.218473
-0.260623 0.392437 0.173593 -2.23517e-008 0.537221 5.1113 192 192 192 255 0.863687 0.028022
-0.260623 0.891467 0.121143 -1.32248e-007 0.424859 4.04226 192 192 192 255 0.863687 0.157186
0.260624 0.392437 0.173593 2.23517e-008 0.328162 3.12225 192 192 192 255 0.996976 0.028022
0.260624 0.891467 0.121143 1.32248e-007 0.215802 2.05322 192 192 192 255 0.996976 0.157186
0.340921 1.37106 -0.116681 2 2.112 -0.960695 192 192 192 255 0.271323 0.218473
0.340921 1.35963 -0.008012 1 0.680953 3.08809 192 192 192 255 0.271323 0.218473
-0.339839 1.35963 -0.008012 -2 1.67547 3.19261 192 192 192 255 0.271323 0.218473
-0.339839 1.37106 -0.116681 -1 1.22201 -2.05974 192 192 192 255 0.271323 0.218473
-0.339839 0.131212 -0.246994 -3 0.428513 -4.07697 192 192 192 255 0.298019 0.218473
-0.135612 0.131212 -0.246994 2 -0.680934 -3.08809 192 192 192 255 0.298019 0.218473
-0.135612 0.005711 -0.260185 1 -0.78546 -2.09357 192 192 192 255 0.298019 0.218473
-0.339839 0.005711 -0.260185 -2 -1.88451 -1.20358 192 192 192 255 0.298019 0.218473
-0.135612 0.131212 -0.246994 2 -0.680934 -3.08809 192 192 192 255 0.268579 0.218473
-0.135612 0.119791 -0.138324 1 -2.40716 3.76904 192 192 192 255 0.268579 0.218473
-0.135612 -0.005711 -0.151515 2 -2.09357 0.785459 192 192 192 255 0.268579 0.218473
-0.135612 0.005711 -0.260185 1 -0.78546 -2.09357 192 192 192 255 0.268579 0.218473
-0.135612 0.119791 -0.138324 1 -2.40716 3.76904 192 192 192 255 0.177052 0.218473
-0.339839 0.119791 -0.138324 -3 -0.418114 3.97809 192 192 192 255 0.177052 0.218473
-0.339839 -0.005711 -0.151515 -1 -1.20358 1.88451 192 192 192 255 0.177052 0.218473
-0.135612 -0.005711 -0.151515 2 -2.09357 0.785459 192 192 192 255 0.177052 0.218473
-0.339839 0.119791 -0.138324 -3 -0.418114 3.97809 192 192 192 255 0.264654 0.218473
-0.339839 0.131212 -0.246994 -3 0.428513 -4.07697 192 192 192 255 0.264654 0.218473
-0.339839 0.005711 -0.260185 -2 -1.88451 -1.20358 192 192 192 255 0.264654 0.218473
-0.339839 -0.005711 -0.151515 -1 -1.20358 1.88451 192 192 192 255 0.264654 0.218473
0.136693 0.119791 -0.138324 -2 -1.30811 2.87904 192 192 192 255 0.264654 0.218473
0.136693 0.131212 -0.246994 -1 -1.57093 -4.18713 192 192 192 255 0.264654 0.218473
0.136693 0.005711 -0.260185 -2 -0.889991 -1.09905 192 192 192 255 0.264654 0.218473
0.136693 -0.005711 -0.151515 -1 -2.1981 1.77998 192 192 192 255 0.264654 0.218473
0.136693 0.131212 -0.246994 -1 -1.57093 -4.18713 192 192 192 255 0.298019 0.218473
0.340921 0.131212 -0.246994 3 0.219453 -2.08793 192 192 192 255 0.298019 0.218473
0.340921 0.005711 -0.260185 1 -1.77998 -2.19811 192 192 192 255 0.298019 0.218473
0.136693 0.005711 -0.260185 -2 -0.889991 -1.09905 192 192 192 255 0.298019 0.218473
0.340921 0.131212 -0.246994 3 0.219453 -2.08793 192 192 192 255 0.264654 0.218473
0.340921 0.119791 -0.138324 3 -0.522644 4.97261 192 192 192 255 0.264654 0.218473
0.340921 -0.005711 -0.151515 2 -1.09905 0.88999 192 192 192 255 0.264654 0.218473
0.340921 0.005711 -0.260185 1 -1.77998 -2.19811 192 192 192 255 0.264654 0.218473
0.340921 0.119791 -0.138324 3 -0.522644 4.97261 192 192 192 255 0.177052 0.218473
0.136693 0.119791 -0.138324 -2 -1.30811 2.87904 192 192 192 255 0.177052 0.218473
0.136693 -0.005711 -0.151515 -1 -2.1981 1.77998 192 192 192 255 0.177052 0.218473
0.340921 -0.005711 -0.151515 2 -1.09905 0.88999 192 192 192 255 0.177052 0.218473
0.340921 0.119791 -0.138324 3 -0.522644 4.97261 192 192 192 255 0.175083 0.218473
0.340921 1.35963 -0.008012 1 0.680953 3.08809 192 192 192 255 0.175083 0.218473
0.340921 1.35963 -0.008012 1 0.680953 3.08809 192 192 192 255 0.29605 0.218473
-0.339839 1.35963 -0.008012 -2 1.67547 3.19261 192 192 192 255 0.29605 0.218473
0.253786 1.28081 -0.016296 -2 -2.30262 2.77451 192 192 192 255 0.29605 0.218473
-0.339839 1.35963 -0.008012 -2 1.67547 3.19261 192 192 192 255 0.175083 0.218473
-0.339839 0.119791 -0.138324 -3 -0.418114 3.97809 192 192 192 255 0.175083 0.218473
-0.252704 1.28081 -0.016296 2 -1.30809 2.87904 192 192 192 255 0.175083 0.218473
-0.339839 1.37106 -0.116681 -1 1.22201 -2.05974 192 192 192 255 0.29605 0.218473
0.340921 1.37106 -0.116681 2 2.112 -0.960695 192 192 192 255 0.29605 0.218473
0.340921 0.131212 -0.246994 3 0.219453 -2.08793 192 192 192 255 0.29605 0.218473
0.261164 0.891467 -0.167088 1.32248e-007 0.424859 -4.04226 192 192 192 255 0.863687 0.157186
0.261164 0.392437 -0.219538 2.23517e-008 0.537221 -5.1113 192 192 192 255 0.863687 0.028022
0.253786 1.28081 -0.016296 -2 -2.30262 2.77451 192 192 192 255 0.099842 0.218473
-0.252704 1.28081 -0.016296 2 -1.30809 2.87904 192 192 192 255 0.099842 0.218473
-0.252704 1.29223 -0.124966 1 -1.88323 -1.21574 192 192 192 255 0.099842 0.218473
0.253786 1.29223 -0.124966 -1 -0.784175 -2.10573 192 192 192 255 0.099842 0.218473
-0.252704 1.14127 -0.030963 0.999999 0.680937 3.0881 192 192 192 255 0.099842 0.218473
0.253786 1.15269 -0.139632 -2 1.10289 -0.926522 192 192 192 255 0.099842 0.218473
0.253786 1.14127 -0.030963 -1 1.4664 5.18167 192 192 192 255 0.099842 0.218473
0.253786 1.14127 -0.030963 -1 1.4664 5.18167 192 192 192 255 0.195031 0.218473
0.253786 1.15269 -0.139632 -2 1.10289 -0.926522 192 192 192 255 0.195031 0.218473
-0.252704 1.15269 -0.139632 2 2.20194 -1.81651 192 192 192 255 0.195031 0.218473
-0.252704 1.14127 -0.030963 0.999999 0.680937 3.0881 192 192 192 255 0.195031 0.218473
-0.135612 0.119791 -0.138324 1 -2.40716 3.76904 192 192 192 255 0.175083 0.218473
0.136693 0.119791 -0.138324 -2 -1.30811 2.87904 192 192 192 255 0.175083 0.218473
0.136693 0.131212 -0.246994 -1 -1.57093 -4.18713 192 192 192 255 0.29605 0.218473
-0.135612 0.131212 -0.246994 2 -0.680934 -3.08809 192 192 192 255 0.29605 0.218473
-0.339839 0.131212 -0.246994 -3 0.428513 -4.07697 192 192 192 255 0.29605 0.218473
-0.260083 0.392437 -0.219538 -2.23517e-008 0.328162 -3.12225 192 192 192 255 0.29605 0.218473
-0.260083 0.891467 -0.167088 -1.32248e-007 0.215802 -2.05322 192 192 192 255 0.29605 0.218473
-0.252704 1.15269 -0.139632 2 2.20194 -1.81651 192 192 192 255 0.29605 0.218473
0.34038 1.35963 -0.037933 2 1.67547 -3.19261 192 192 192 255 0.271323 0.218473
0.34038 1.37106 0.070736 1 1.22201 2.05974 192 192 192 255 0.271323 0.218473
-0.34038 1.37106 0.070736 -2 2.112 0.960695 192 192 192 255 0.271323 0.218473
-0.34038 1.35963 -0.037933 -1 0.680952 -3.08809 192 192 192 255 0.271323 0.218473
-0.34038 0.119791 0.09238 -3 -0.62716 -5.96713 192 192 192 255 0.177052 0.218473
-0.136152 0.119791 0.09238 2 -1.3081 -2.87904 192 192 192 255 0.177052 0.218473
-0.136152 -0.005711 0.10557 1 -1.20357 -1.88451 192 192 192 255 0.177052 0.218473
-0.34038 -0.005711 0.10557 -2 -2.09357 -0.78546 192 192 192 255 0.177052 0.218473
-0.136152 0.119791 0.09238 2 -1.3081 -2.87904 192 192 192 255 0.268579 0.218473
-0.136152 0.131212 0.201049 1 -1.57092 4.18713 192 192 192 255 0.268579 0.218473
-0.136152 0.005711 0.21424 2 -1.88451 1.20358 192 192 192 255 0.268579 0.218473
-0.136152 -0.005711 0.10557 1 -1.20357 -1.88451 192 192 192 255 0.268579 0.218473
-0.136152 0.131212 0.201049 1 -1.57092 4.18713 192 192 192 255 0.298019 0.218473
-0.34038 0.131212 0.201049 -3 0.219453 2.08793 192 192 192 255 0.298019 0.218473
-0.34038 0.005711 0.21424 -1 -0.78546 2.09357 192 192 192 255 0.298019 0.218473
-0.136152 0.005711 0.21424 2 -1.88451 1.20358 192 192 192 255 0.298019 0.218473
-0.34038 0.131212 0.201049 -3 0.219453 2.08793 192 192 192 255 0.264654 0.218473
-0.34038 0.119791 0.09238 -3 -0.62716 -5.96713 192 192 192 255 0.264654 0.218473
-0.34038 -0.005711 0.10557 -2 -2.09357 -0.78546 192 192 192 255 0.264654 0.218473
-0.34038 0.005711 0.21424 -1 -0.78546 2.09357 192 192 192 255 0.264654 0.218473
0.136153 0.131212 0.201049 -2 -0.680933 3.08809 192 192 192 255 0.264654 0.218473
0.136153 0.119791 0.09238 -1 -2.40715 -3.76904 192 192 192 255 0.264654 0.218473
0.136153 -0.005711 0.10557 -2 -1.09904 -0.889991 192 192 192 255 0.264654 0.218473
0.136153 0.005711 0.21424 -1 -1.77998 2.19811 192 192 192 255 0.264654 0.218473
0.136153 0.119791 0.09238 -1 -2.40715 -3.76904 192 192 192 255 0.177052 0.218473
0.34038 0.119791 0.09238 3 -0.31358 -2.98357 192 192 192 255 0.177052 0.218473
0.34038 -0.005711 0.10557 1 -2.19809 -1.77998 192 192 192 255 0.177052 0.218473
0.136153 -0.005711 0.10557 -2 -1.09904 -0.889991 192 192 192 255 0.177052 0.218473
0.34038 0.119791 0.09238 3 -0.31358 -2.98357 192 192 192 255 0.264654 0.218473
0.34038 0.131212 0.201049 3 0.428513 4.07697 192 192 192 255 0.264654 0.218473
0.34038 0.005711 0.21424 2 -0.889991 1.09905 192 192 192 255 0.264654 0.218473
0.34038 -0.005711 0.10557 1 -2.19809 -1.77998 192 192 192 255 0.264654 0.218473
0.34038 0.131212 0.201049 3 0.428513 4.07697 192 192 192 255 0.298019 0.218473
0.136153 0.131212 0.201049 -2 -0.680933 3.08809 192 192 192 255 0.298019 0.218473
0.136153 0.005711 0.21424 -1 -1.77998 2.19811 192 192 192 255 0.298019 0.218473
0.34038 0.005711 0.21424 2 -0.889991 1.09905 192 192 192 255 0.298019 0.218473
0.34038 1.37106 0.070736 1 1.22201 2.05974 192 192 192 255 0.29605 0.218473
-0.34038 1.37106 0.070736 -2 2.112 0.960695 192 192 192 255 0.29605 0.218473
-0.34038 0.131212 0.201049 -3 0.219453 2.08793 192 192 192 255 0.29605 0.218473
-0.260623 0.392437 0.173593 -2.23517e-008 0.537221 5.1113 192 192 192 255 0.29605 0.218473
-0.260623 0.891467 0.121143 -1.32248e-007 0.424859 4.04226 192 192 192 255 0.29605 0.218473
-0.34038 1.35963 -0.037933 -1 0.680952 -3.08809 192 192 192 255 0.29605 0.218473
0.34038 1.35963 -0.037933 2 1.67547 -3.19261 192 192 192 255 0.29605 0.218473
0.34038 1.35963 -0.037933 2 1.67547 -3.19261 192 192 192 255 0.175083 0.218473
0.34038 0.119791 0.09238 3 -0.31358 -2.98357 192 192 192 255 0.175083 0.218473
0.253245 1.28081 -0.029649 -0.999998 -1.30809 -2.87904 192 192 192 255 0.175083 0.218473
-0.34038 0.119791 0.09238 -3 -0.62716 -5.96713 192 192 192 255 0.175083 0.218473
-0.34038 1.35963 -0.037933 -1 0.680952 -3.08809 192 192 192 255 0.175083 0.218473
-0.253245 1.28081 -0.029649 0.999996 -2.30262 -2.77451 192 192 192 255 0.175083 0.218473
0.253245 1.29223 0.079021 -2 -1.88323 1.21574 192 192 192 255 0.099842 0.218473
-0.253245 1.29223 0.079021 2 -0.784175 2.10573 192 192 192 255 0.099842 0.218473
-0.253245 1.28081 -0.029649 0.999996 -2.30262 -2.77451 192 192 192 255 0.099842 0.218473
0.253245 1.28081 -0.029649 -0.999998 -1.30809 -2.87904 192 192 192 255 0.099842 0.218473
-0.253245 1.15269 0.093687 1 1.10289 0.926522 192 192 192 255 0.099842 0.218473
-0.253245 1.14127 -0.014982 2 1.77999 -2.19811 192 192 192 255 0.099842 0.218473
0.253245 1.14127 -0.014982 -2 0.367349 -6.07166 192 192 192 255 0.099842 0.218473
0.253245 1.15269 0.093687 -1 2.20194 1.81651 192 192 192 255 0.195031 0.218473
0.253245 1.14127 -0.014982 -2 0.367349 -6.07166 192 192 192 255 0.195031 0.218473
-0.253245 1.14127 -0.014982 2 1.77999 -2.19811 192 192 192 255 0.195031 0.218473
-0.253245 1.15269 0.093687 1 1.10289 0.926522 192 192 192 255 0.195031 0.218473
-0.136152 0.131212 0.201049 1 -1.57092 4.18713 192 192 192 255 0.29605 0.218473
0.136153 0.131212 0.201049 -2 -0.680933 3.08809 192 192 192 255 0.29605 0.218473
0.34038 0.131212 0.201049 3 0.428513 4.07697 192 192 192 255 0.29605 0.218473
0.260624 0.392437 0.173593 2.23517e-008 0.328162 3.12225 192 192 192 255 0.29605 0.218473
0.260624 0.891467 0.121143 1.32248e-007 0.215802 2.05322 192 192 192 255 0.29605 0.218473
0.253245 1.15269 0.093687 -1 2.20194 1.81651 192 192 192 255 0.29605 0.218473
0.136153 0.119791 0.09238 -1 -2.40715 -3.76904 192 192 192 255 0.175083 0.218473
-0.136152 0.119791 0.09238 2 -1.3081 -2.87904 192 192 192 255 0.175083 0.218473
3 2 3 5 
3 2 5 4 
3 8 10 11 
3 8 11 9 
3 1 7 64 
3 1 64 65 
3 6 0 66 
3 6 66 67 
3 12 13 14 
3 12 14 15 
3 17 16 18 
3 17 18 19 
3 68 69 70 
3 68 70 71 
3 72 73 74 
3 72 74 75 
3 76 77 78 
3 76 78 79 
3 80 81 82 
3 80 82 83 
3 84 85 86 
3 84 86 87 
3 88 89 90 
3 88 90 91 
3 92 93 94 
3 92 94 95 
3 96 97 98 
3 96 98 99 
3 100 101 22 
3 100 22 21 
3 102 103 23 
3 102 23 104 
3 105 106 20 
3 105 20 107 
3 108 109 25 
3 108 25 24 
3 110 28 109 
3 28 29 109 
3 29 26 109 
3 26 25 109 
3 111 112 30 
3 111 30 31 
3 113 114 115 
3 113 115 116 
3 114 117 27 
3 114 27 115 
3 113 116 118 
3 113 118 119 
3 120 121 122 
3 120 122 123 
3 21 20 106 
3 21 106 124 
3 21 124 125 
3 21 125 100 
3 28 110 126 
3 28 126 127 
3 28 127 128 
3 28 128 129 
3 128 108 129 
3 129 108 130 
3 130 108 131 
3 131 108 24 
3 131 26 29 
3 131 29 130 
3 34 35 37 
3 34 37 36 
3 40 42 43 
3 40 43 41 
3 33 39 132 
3 33 132 133 
3 38 32 134 
3 38 134 135 
3 44 45 46 
3 44 46 47 
3 49 48 50 
3 49 50 51 
3 136 137 138 
3 136 138 139 
3 140 141 142 
3 140 142 143 
3 144 145 146 
3 144 146 147 
3 148 149 150 
3 148 150 151 
3 152 153 154 
3 152 154 155 
3 156 157 158 
3 156 158 159 
3 160 161 162 
3 160 162 163 
3 164 165 166 
3 164 166 167 
3 61 60 62 
3 61 62 63 
3 168 169 55 
3 168 55 54 
3 170 171 169 
3 171 172 169 
3 172 52 169 
3 52 55 169 
3 173 174 57 
3 173 57 56 
3 175 176 58 
3 175 58 177 
3 178 179 180 
3 178 180 59 
3 181 182 183 
3 181 183 184 
3 182 185 186 
3 182 186 183 
3 181 184 187 
3 181 187 53 
3 188 189 190 
3 188 190 191 
3 171 170 192 
3 171 192 193 
3 171 193 194 
3 171 194 195 
3 194 168 195 
3 195 168 196 
3 196 168 197 
3 197 168 54 
3 197 52 172 
3 197 172 196 
3 58 176 198 
3 58 198 199 
3 58 199 178 
3 58 178 59 
