ply
format ascii 1.0
comment VCGLIB generated
comment TextureFile SpaceInteriors_Texture.png
element vertex 202
property float x
property float y
property float z
property float nx
property float ny
property float nz
property uchar red
property uchar green
property uchar blue
property uchar alpha
property float texture_u
property float texture_v
element face 112
property list uchar int vertex_indices
end_header
0.5 0.669105 -0.127421 1.70018 2.18921 -2.35042 192 192 192 255 0.20256 0.37617
-0.5 0.669105 -0.127421 -3.40035 2.16557 -2.67521 192 192 192 255 0.20256 0.37617
0.5 0.669105 0.526417 3.40036 2.16555 3.67521 192 192 192 255 0.20256 0.37617
-0.5 0.669105 0.526417 -1.70018 2.18922 3.35042 192 192 192 255 0.20256 0.37617
0.5 0.510202 0.526417 1 -2 1 192 192 192 255 0.20256 0.37617
-0.5 0.510202 0.526417 -2 -1 2 192 192 192 255 0.20256 0.37617
0.5 0.510202 -0.127421 2 -1 -5 192 192 192 255 0.147865 0.376093
-0.5 0.510202 -0.127421 -1 -2 -1 192 192 192 255 0.147865 0.376093
-0.339079 1.21504 -0.274375 -1 -1 2 192 192 192 255 0.205119 0.376093
0.339079 1.21504 -0.274375 2 -2 1 192 192 192 255 0.205119 0.376093
-0.339079 1.52543 -0.274375 -2 2 1 192 192 192 255 0.205119 0.376093
0.339079 1.52543 -0.274375 1 1 2 192 192 192 255 0.205119 0.376093
-0.339079 1.52543 -0.399244 -1 1 -2 192 192 192 255 0.239984 0.376093
0.339079 1.52543 -0.399244 2 2 -1 192 192 192 255 0.239984 0.376093
-0.339079 1.21504 -0.399244 -2 -2 -1 192 192 192 255 0.205119 0.376093
0.339079 1.21504 -0.399244 1 -1 -2 192 192 192 255 0.205119 0.376093
-0.144805 0 -0.049629 -1 -1 2 192 192 192 255 0.267127 0.063362
0.144805 0 -0.049629 2 -2 1 192 192 192 255 0.267127 0.063362
-0.082722 1.04616 -0.399244 -3 0.567155 2.82361 192 192 192 255 0.368873 0.063362
0.082723 1.04616 -0.399244 3 1.13431 2.64722 192 192 192 255 0.368873 0.063362
-0.082722 1.00378 -0.500807 -3 -1.13431 -2.64722 192 192 192 255 0.269613 0.063362
0.082723 1.00378 -0.500807 3 -0.567155 -2.82361 192 192 192 255 0.269613 0.063362
-0.144805 0 -0.269105 -2 -2 -1 192 192 192 255 0.267127 0.063362
0.144805 0 -0.269105 1 -1 -2 192 192 192 255 0.267127 0.063362
-0.082722 0.581696 -0.210149 -3 -0.567155 -2.82361 192 192 192 255 0.269613 0.063362
-0.082722 0.624075 -0.108586 -3 1.13431 2.64722 192 192 192 255 0.368873 0.063362
0.082723 0.624075 -0.108586 3 0.567155 2.82361 192 192 192 255 0.368873 0.063362
0.082723 0.581696 -0.210149 3 -1.13431 -2.64722 192 192 192 255 0.269613 0.063362
-0.082722 1.42935 -0.399244 -2 2 1 192 192 192 255 0.367012 0.063362
0.082723 1.42935 -0.399244 1 1 2 192 192 192 255 0.367012 0.063362
0.082723 1.42935 -0.500807 2 2 -1 192 192 192 255 0.367012 0.063362
-0.082722 1.42935 -0.500807 -1 1 -2 192 192 192 255 0.367012 0.063362
0 0.669105 -0.127421 -0.700168 4.35478 -4.02564 192 192 192 255 0.20256 0.37617
0 0.669105 0.526417 0.70019 4.35477 2.02564 192 192 192 255 0.20256 0.37617
-0.25 0.669105 0.526417 0.70019 4.35477 3.02564 192 192 192 255 0.20256 0.37617
-0.25 0.669105 -0.127421 -0.700168 4.35478 -4.02564 192 192 192 255 0.20256 0.37617
0.25 0.669105 0.526417 0.70019 4.35477 2.02564 192 192 192 255 0.20256 0.37617
0.25 0.669105 -0.127421 -0.700168 4.35478 -4.02564 192 192 192 255 0.20256 0.37617
0.200733 0.717421 0.473635 0.700182 4.18921 1.35042 192 192 192 255 0.262116 0.376093
0.200733 0.717421 -0.074639 1.40036 3.16555 -0.675212 192 192 192 255 0.262116 0.376093
0.049268 0.717421 -0.074639 -0.700175 4.18922 -1.35042 192 192 192 255 0.262116 0.376093
0.049268 0.717421 0.473635 -1.40035 3.16557 0.675212 192 192 192 255 0.262116 0.376093
-0.299267 0.717421 0.473635 0.700182 4.18921 1.35042 192 192 192 255 0.262116 0.376093
-0.299267 0.717421 -0.074639 1.40036 3.16555 -0.675212 192 192 192 255 0.262116 0.376093
-0.450732 0.717421 -0.074639 -0.700175 4.18922 -1.35042 192 192 192 255 0.262116 0.376093
-0.450732 0.717421 0.473635 -1.40035 3.16557 0.675212 192 192 192 255 0.262116 0.376093
-0.049267 0.717421 -0.074639 1.40036 3.16555 -0.675212 192 192 192 255 0.262116 0.376093
-0.049267 0.717421 0.473635 0.700182 4.18921 1.35042 192 192 192 255 0.262116 0.376093
-0.200732 0.717421 -0.074639 -0.700175 4.18922 -1.35042 192 192 192 255 0.262116 0.376093
-0.200732 0.717421 0.473635 -1.40035 3.16557 0.675212 192 192 192 255 0.262116 0.376093
0.450733 0.717421 -0.074639 1.40036 4.16555 -0.675212 192 192 192 255 0.262116 0.376093
0.299268 0.717421 -0.074639 -0.700175 3.18922 -1.35042 192 192 192 255 0.262116 0.376093
0.299268 0.717421 0.473635 -1.40035 4.16557 0.675212 192 192 192 255 0.262116 0.376093
0.450733 0.717421 0.473635 0.700182 3.18921 1.35042 192 192 192 255 0.262116 0.376093
0.144805 0.069994 -0.269105 2.74748 1.96158 -2.54607 192 192 192 255 0.332823 0.063362
-0.144805 0.069994 -0.269105 -2.49495 1.97656 -2.80944 192 192 192 255 0.332823 0.063362
-0.144805 0.075093 -0.049629 -2.74748 1.94502 2.5115 192 192 192 255 0.332823 0.063362
0.144805 0.075093 -0.049629 2.49496 1.96827 2.71935 192 192 192 255 0.364861 0.063362
-0.082722 0.145766 -0.108586 -2.49495 1.96828 2.71935 192 192 192 255 0.332823 0.063362
-0.082722 0.139129 -0.210149 -2.74748 1.96159 -2.54607 192 192 192 255 0.332823 0.063362
0.082723 0.139129 -0.210149 2.49496 1.97655 -2.80943 192 192 192 255 0.332823 0.063362
0.082723 0.145766 -0.108586 2.74748 1.94501 2.5115 192 192 192 255 0.364861 0.063362
0.5 0.510202 0.526417 1 -2 1 192 192 192 255 0.147865 0.376093
-0.5 0.510202 0.526417 -2 -1 2 192 192 192 255 0.147865 0.376093
0.5 0.510202 -0.127421 2 -1 -5 192 192 192 255 0.20256 0.37617
-0.5 0.510202 -0.127421 -1 -2 -1 192 192 192 255 0.20256 0.37617
-0.5 0.669105 -0.127421 -3.40035 2.16557 -2.67521 192 192 192 255 0.17308 0.376093
-0.5 0.510202 -0.127421 -1 -2 -1 192 192 192 255 0.17308 0.376093
-0.5 0.510202 0.526417 -2 -1 2 192 192 192 255 0.17308 0.376093
-0.5 0.669105 0.526417 -1.70018 2.18922 3.35042 192 192 192 255 0.17308 0.376093
0.5 0.510202 -0.127421 2 -1 -5 192 192 192 255 0.17308 0.376093
0.5 0.669105 -0.127421 1.70018 2.18921 -2.35042 192 192 192 255 0.17308 0.376093
0.5 0.669105 0.526417 3.40036 2.16555 3.67521 192 192 192 255 0.17308 0.376093
0.5 0.510202 0.526417 1 -2 1 192 192 192 255 0.17308 0.376093
-0.339079 1.52543 -0.274375 -2 2 1 192 192 192 255 0.239984 0.376093
0.339079 1.52543 -0.274375 1 1 2 192 192 192 255 0.239984 0.376093
-0.339079 1.52543 -0.399244 -1 1 -2 192 192 192 255 0.205119 0.376093
0.339079 1.52543 -0.399244 2 2 -1 192 192 192 255 0.205119 0.376093
-0.339079 1.21504 -0.399244 -2 -2 -1 192 192 192 255 0.142626 0.376093
0.339079 1.21504 -0.399244 1 -1 -2 192 192 192 255 0.142626 0.376093
0.339079 1.21504 -0.274375 2 -2 1 192 192 192 255 0.142626 0.376093
-0.339079 1.21504 -0.274375 -1 -1 2 192 192 192 255 0.142626 0.376093
0.339079 1.21504 -0.274375 2 -2 1 192 192 192 255 0.17308 0.376093
0.339079 1.21504 -0.399244 1 -1 -2 192 192 192 255 0.17308 0.376093
0.339079 1.52543 -0.399244 2 2 -1 192 192 192 255 0.17308 0.376093
0.339079 1.52543 -0.274375 1 1 2 192 192 192 255 0.17308 0.376093
-0.339079 1.21504 -0.399244 -2 -2 -1 192 192 192 255 0.17308 0.376093
-0.339079 1.21504 -0.274375 -1 -1 2 192 192 192 255 0.17308 0.376093
-0.339079 1.52543 -0.274375 -2 2 1 192 192 192 255 0.17308 0.376093
-0.339079 1.52543 -0.399244 -1 1 -2 192 192 192 255 0.17308 0.376093
0.082723 0.624075 -0.108586 3 0.567155 2.82361 192 192 192 255 0.300108 0.063362
0.082723 0.581696 -0.210149 3 -1.13431 -2.64722 192 192 192 255 0.300108 0.063362
0.082723 1.00378 -0.500807 3 -0.567155 -2.82361 192 192 192 255 0.300108 0.063362
0.082723 1.04616 -0.399244 3 1.13431 2.64722 192 192 192 255 0.300108 0.063362
-0.082722 0.581696 -0.210149 -3 -0.567155 -2.82361 192 192 192 255 0.300108 0.063362
-0.082722 0.624075 -0.108586 -3 1.13431 2.64722 192 192 192 255 0.300108 0.063362
-0.082722 1.04616 -0.399244 -3 0.567155 2.82361 192 192 192 255 0.300108 0.063362
-0.082722 1.00378 -0.500807 -3 -1.13431 -2.64722 192 192 192 255 0.300108 0.063362
-0.144805 0.075093 -0.049629 -2.74748 1.94502 2.5115 192 192 192 255 0.364861 0.063362
-0.082722 0.145766 -0.108586 -2.49495 1.96828 2.71935 192 192 192 255 0.364861 0.063362
0.144805 0.075093 -0.049629 2.49496 1.96827 2.71935 192 192 192 255 0.332823 0.063362
0.082723 0.145766 -0.108586 2.74748 1.94501 2.5115 192 192 192 255 0.332823 0.063362
-0.082722 0.139129 -0.210149 -2.74748 1.96159 -2.54607 192 192 192 255 0.364861 0.063362
0.082723 0.139129 -0.210149 2.49496 1.97655 -2.80943 192 192 192 255 0.364861 0.063362
0.144805 0.069994 -0.269105 2.74748 1.96158 -2.54607 192 192 192 255 0.364861 0.063362
-0.144805 0.069994 -0.269105 -2.49495 1.97656 -2.80944 192 192 192 255 0.364861 0.063362
-0.082722 1.04616 -0.399244 -3 0.567155 2.82361 192 192 192 255 0.327308 0.063362
0.082723 1.04616 -0.399244 3 1.13431 2.64722 192 192 192 255 0.327308 0.063362
0.082723 1.42935 -0.399244 1 1 2 192 192 192 255 0.327308 0.063362
-0.082722 1.42935 -0.399244 -2 2 1 192 192 192 255 0.327308 0.063362
0.082723 1.04616 -0.399244 3 1.13431 2.64722 192 192 192 255 0.298523 0.063362
0.082723 1.00378 -0.500807 3 -0.567155 -2.82361 192 192 192 255 0.298523 0.063362
0.082723 1.42935 -0.500807 2 2 -1 192 192 192 255 0.298523 0.063362
0.082723 1.42935 -0.399244 1 1 2 192 192 192 255 0.298523 0.063362
0.082723 1.00378 -0.500807 3 -0.567155 -2.82361 192 192 192 255 0.327308 0.063362
-0.082722 1.00378 -0.500807 -3 -1.13431 -2.64722 192 192 192 255 0.327308 0.063362
-0.082722 1.42935 -0.500807 -1 1 -2 192 192 192 255 0.327308 0.063362
0.082723 1.42935 -0.500807 2 2 -1 192 192 192 255 0.327308 0.063362
-0.082722 1.00378 -0.500807 -3 -1.13431 -2.64722 192 192 192 255 0.298523 0.063362
-0.082722 1.04616 -0.399244 -3 0.567155 2.82361 192 192 192 255 0.298523 0.063362
-0.082722 1.42935 -0.399244 -2 2 1 192 192 192 255 0.298523 0.063362
-0.082722 1.42935 -0.500807 -1 1 -2 192 192 192 255 0.298523 0.063362
0.25 0.669105 0.526417 0.70019 4.35477 2.02564 192 192 192 255 0.200571 0.376093
0.25 0.669105 -0.127421 -0.700168 4.35478 -4.02564 192 192 192 255 0.200571 0.376093
0.200733 0.717421 -0.074639 1.40036 3.16555 -0.675212 192 192 192 255 0.200571 0.376093
0.200733 0.717421 0.473635 0.700182 4.18921 1.35042 192 192 192 255 0.200571 0.376093
0.25 0.669105 -0.127421 -0.700168 4.35478 -4.02564 192 192 192 255 0.241929 0.376093
0 0.669105 -0.127421 -0.700168 4.35478 -4.02564 192 192 192 255 0.241929 0.376093
0.049268 0.717421 -0.074639 -0.700175 4.18922 -1.35042 192 192 192 255 0.241929 0.376093
0.200733 0.717421 -0.074639 1.40036 3.16555 -0.675212 192 192 192 255 0.241929 0.376093
0 0.669105 -0.127421 -0.700168 4.35478 -4.02564 192 192 192 255 0.200571 0.376093
0 0.669105 0.526417 0.70019 4.35477 2.02564 192 192 192 255 0.200571 0.376093
0.049268 0.717421 0.473635 -1.40035 3.16557 0.675212 192 192 192 255 0.200571 0.376093
0.049268 0.717421 -0.074639 -0.700175 4.18922 -1.35042 192 192 192 255 0.200571 0.376093
0 0.669105 0.526417 0.70019 4.35477 2.02564 192 192 192 255 0.241929 0.376093
0.25 0.669105 0.526417 0.70019 4.35477 2.02564 192 192 192 255 0.241929 0.376093
0.200733 0.717421 0.473635 0.700182 4.18921 1.35042 192 192 192 255 0.241929 0.376093
0.049268 0.717421 0.473635 -1.40035 3.16557 0.675212 192 192 192 255 0.241929 0.376093
-0.25 0.669105 0.526417 0.70019 4.35477 3.02564 192 192 192 255 0.200571 0.376093
-0.25 0.669105 -0.127421 -0.700168 4.35478 -4.02564 192 192 192 255 0.200571 0.376093
-0.299267 0.717421 -0.074639 1.40036 3.16555 -0.675212 192 192 192 255 0.200571 0.376093
-0.299267 0.717421 0.473635 0.700182 4.18921 1.35042 192 192 192 255 0.200571 0.376093
-0.25 0.669105 -0.127421 -0.700168 4.35478 -4.02564 192 192 192 255 0.241929 0.376093
-0.5 0.669105 -0.127421 -3.40035 2.16557 -2.67521 192 192 192 255 0.241929 0.376093
-0.450732 0.717421 -0.074639 -0.700175 4.18922 -1.35042 192 192 192 255 0.241929 0.376093
-0.299267 0.717421 -0.074639 1.40036 3.16555 -0.675212 192 192 192 255 0.241929 0.376093
-0.5 0.669105 -0.127421 -3.40035 2.16557 -2.67521 192 192 192 255 0.200571 0.376093
-0.5 0.669105 0.526417 -1.70018 2.18922 3.35042 192 192 192 255 0.200571 0.376093
-0.450732 0.717421 0.473635 -1.40035 3.16557 0.675212 192 192 192 255 0.200571 0.376093
-0.450732 0.717421 -0.074639 -0.700175 4.18922 -1.35042 192 192 192 255 0.200571 0.376093
-0.5 0.669105 0.526417 -1.70018 2.18922 3.35042 192 192 192 255 0.241929 0.376093
-0.25 0.669105 0.526417 0.70019 4.35477 3.02564 192 192 192 255 0.241929 0.376093
-0.299267 0.717421 0.473635 0.700182 4.18921 1.35042 192 192 192 255 0.241929 0.376093
-0.450732 0.717421 0.473635 -1.40035 3.16557 0.675212 192 192 192 255 0.241929 0.376093
-0.049267 0.717421 -0.074639 1.40036 3.16555 -0.675212 192 192 192 255 0.200571 0.376093
-0.049267 0.717421 0.473635 0.700182 4.18921 1.35042 192 192 192 255 0.200571 0.376093
-0.200732 0.717421 -0.074639 -0.700175 4.18922 -1.35042 192 192 192 255 0.241929 0.376093
-0.049267 0.717421 -0.074639 1.40036 3.16555 -0.675212 192 192 192 255 0.241929 0.376093
-0.200732 0.717421 0.473635 -1.40035 3.16557 0.675212 192 192 192 255 0.200571 0.376093
-0.200732 0.717421 -0.074639 -0.700175 4.18922 -1.35042 192 192 192 255 0.200571 0.376093
-0.049267 0.717421 0.473635 0.700182 4.18921 1.35042 192 192 192 255 0.241929 0.376093
-0.200732 0.717421 0.473635 -1.40035 3.16557 0.675212 192 192 192 255 0.241929 0.376093
0.5 0.669105 -0.127421 1.70018 2.18921 -2.35042 192 192 192 255 0.241929 0.376093
0.299268 0.717421 -0.074639 -0.700175 3.18922 -1.35042 192 192 192 255 0.241929 0.376093
0.450733 0.717421 -0.074639 1.40036 4.16555 -0.675212 192 192 192 255 0.241929 0.376093
0.299268 0.717421 0.473635 -1.40035 4.16557 0.675212 192 192 192 255 0.200571 0.376093
0.299268 0.717421 -0.074639 -0.700175 3.18922 -1.35042 192 192 192 255 0.200571 0.376093
0.5 0.669105 0.526417 3.40036 2.16555 3.67521 192 192 192 255 0.241929 0.376093
0.450733 0.717421 0.473635 0.700182 3.18921 1.35042 192 192 192 255 0.241929 0.376093
0.299268 0.717421 0.473635 -1.40035 4.16557 0.675212 192 192 192 255 0.241929 0.376093
0.5 0.669105 0.526417 3.40036 2.16555 3.67521 192 192 192 255 0.200571 0.376093
0.5 0.669105 -0.127421 1.70018 2.18921 -2.35042 192 192 192 255 0.200571 0.376093
0.450733 0.717421 -0.074639 1.40036 4.16555 -0.675212 192 192 192 255 0.200571 0.376093
0.450733 0.717421 0.473635 0.700182 3.18921 1.35042 192 192 192 255 0.200571 0.376093
-0.144805 0.069994 -0.269105 -2.49495 1.97656 -2.80944 192 192 192 255 0.332147 0.063362
0.144805 0.069994 -0.269105 2.74748 1.96158 -2.54607 192 192 192 255 0.332147 0.063362
0.144805 0 -0.269105 1 -1 -2 192 192 192 255 0.332147 0.063362
-0.144805 0 -0.269105 -2 -2 -1 192 192 192 255 0.332147 0.063362
-0.144805 0 -0.269105 -2 -2 -1 192 192 192 255 0.300108 0.063362
-0.144805 0 -0.049629 -1 -1 2 192 192 192 255 0.300108 0.063362
-0.144805 0.075093 -0.049629 -2.74748 1.94502 2.5115 192 192 192 255 0.300108 0.063362
-0.144805 0.069994 -0.269105 -2.49495 1.97656 -2.80944 192 192 192 255 0.300108 0.063362
-0.144805 0 -0.049629 -1 -1 2 192 192 192 255 0.332147 0.063362
0.144805 0 -0.049629 2 -2 1 192 192 192 255 0.332147 0.063362
0.144805 0.075093 -0.049629 2.49496 1.96827 2.71935 192 192 192 255 0.332147 0.063362
-0.144805 0.075093 -0.049629 -2.74748 1.94502 2.5115 192 192 192 255 0.332147 0.063362
0.144805 0 -0.049629 2 -2 1 192 192 192 255 0.300108 0.063362
0.144805 0 -0.269105 1 -1 -2 192 192 192 255 0.300108 0.063362
0.144805 0.069994 -0.269105 2.74748 1.96158 -2.54607 192 192 192 255 0.300108 0.063362
0.144805 0.075093 -0.049629 2.49496 1.96827 2.71935 192 192 192 255 0.300108 0.063362
-0.082722 0.139129 -0.210149 -2.74748 1.96159 -2.54607 192 192 192 255 0.300108 0.063362
-0.082722 0.145766 -0.108586 -2.49495 1.96828 2.71935 192 192 192 255 0.300108 0.063362
-0.082722 0.581696 -0.210149 -3 -0.567155 -2.82361 192 192 192 255 0.332147 0.063362
0.082723 0.581696 -0.210149 3 -1.13431 -2.64722 192 192 192 255 0.332147 0.063362
0.082723 0.139129 -0.210149 2.49496 1.97655 -2.80943 192 192 192 255 0.332147 0.063362
-0.082722 0.139129 -0.210149 -2.74748 1.96159 -2.54607 192 192 192 255 0.332147 0.063362
0.082723 0.145766 -0.108586 2.74748 1.94501 2.5115 192 192 192 255 0.300108 0.063362
0.082723 0.139129 -0.210149 2.49496 1.97655 -2.80943 192 192 192 255 0.300108 0.063362
-0.082722 0.145766 -0.108586 -2.49495 1.96828 2.71935 192 192 192 255 0.332147 0.063362
0.082723 0.145766 -0.108586 2.74748 1.94501 2.5115 192 192 192 255 0.332147 0.063362
0.082723 0.624075 -0.108586 3 0.567155 2.82361 192 192 192 255 0.332147 0.063362
-0.082722 0.624075 -0.108586 -3 1.13431 2.64722 192 192 192 255 0.332147 0.063362
3 38 39 40 
3 38 40 41 
3 2 36 33 
3 2 33 34 
3 2 34 3 
3 2 3 5 
3 2 5 4 
3 62 63 7 
3 62 7 6 
3 64 65 1 
3 64 1 35 
3 64 35 32 
3 64 32 37 
3 64 37 0 
3 66 67 68 
3 66 68 69 
3 70 71 72 
3 70 72 73 
3 8 9 11 
3 8 11 10 
3 74 75 13 
3 74 13 12 
3 76 77 15 
3 76 15 14 
3 78 79 80 
3 78 80 81 
3 82 83 84 
3 82 84 85 
3 86 87 88 
3 86 88 89 
3 25 26 19 
3 25 19 18 
3 28 29 30 
3 28 30 31 
3 20 21 27 
3 20 27 24 
3 22 23 17 
3 22 17 16 
3 90 91 92 
3 90 92 93 
3 94 95 96 
3 94 96 97 
3 55 56 58 
3 55 58 59 
3 98 57 61 
3 98 61 99 
3 100 54 60 
3 100 60 101 
3 102 103 104 
3 102 104 105 
3 106 107 108 
3 106 108 109 
3 110 111 112 
3 110 112 113 
3 114 115 116 
3 114 116 117 
3 118 119 120 
3 118 120 121 
3 42 43 44 
3 42 44 45 
3 47 46 48 
3 47 48 49 
3 50 51 52 
3 50 52 53 
3 122 123 124 
3 122 124 125 
3 126 127 128 
3 126 128 129 
3 130 131 132 
3 130 132 133 
3 134 135 136 
3 134 136 137 
3 138 139 140 
3 138 140 141 
3 142 143 144 
3 142 144 145 
3 146 147 148 
3 146 148 149 
3 150 151 152 
3 150 152 153 
3 131 130 154 
3 131 154 155 
3 127 142 156 
3 127 156 157 
3 139 138 158 
3 139 158 159 
3 151 134 160 
3 151 160 161 
3 162 126 163 
3 162 163 164 
3 123 122 165 
3 123 165 166 
3 135 167 168 
3 135 168 169 
3 170 171 172 
3 170 172 173 
3 174 175 176 
3 174 176 177 
3 178 179 180 
3 178 180 181 
3 182 183 184 
3 182 184 185 
3 186 187 188 
3 186 188 189 
3 190 191 95 
3 190 95 94 
3 192 193 194 
3 192 194 195 
3 196 197 91 
3 196 91 90 
3 198 199 200 
3 198 200 201 
