ply
format ascii 1.0
comment VCGLIB generated
comment TextureFile SpaceInteriors_Texture.png
element vertex 276
property float x
property float y
property float z
property float nx
property float ny
property float nz
property uchar red
property uchar green
property uchar blue
property uchar alpha
property float texture_u
property float texture_v
element face 168
property list uchar int vertex_indices
end_header
-0.815811 0.991287 0.605385 -1 2 1 192 192 192 255 0.367151 0.061667
-0.531113 0.991287 0.605385 2 1 2 192 192 192 255 0.367151 0.061667
-0.815811 0.991287 0.432152 -2 1 -2 192 192 192 255 0.367151 0.061667
-0.531113 0.991287 0.432152 1 2 -1 192 192 192 255 0.367151 0.061667
-0.815811 0.82515 0.432152 -1 0 -1 192 192 192 255 0.402016 0.061667
-0.531113 0.82515 0.432152 2 0 -2 192 192 192 255 0.402016 0.061667
-0.815811 0.82515 0.605385 -2 0 2 192 192 192 255 0.302131 0.061667
-0.531113 0.82515 0.605385 1 0 1 192 192 192 255 0.302131 0.061667
-0.815811 0.991287 -0.406582 -1 2 1 192 192 192 255 0.367151 0.061667
-0.531113 0.991287 -0.406582 2 1 2 192 192 192 255 0.367151 0.061667
-0.815811 0.991287 -0.579815 -2 1 -2 192 192 192 255 0.367151 0.061667
-0.531113 0.991287 -0.579815 1 2 -1 192 192 192 255 0.367151 0.061667
-0.815811 0.82515 -0.579815 -1 0 -1 192 192 192 255 0.402016 0.061667
-0.531113 0.82515 -0.579815 2 0 -2 192 192 192 255 0.402016 0.061667
-0.815811 0.82515 -0.406582 -2 0 2 192 192 192 255 0.302131 0.061667
-0.531113 0.82515 -0.406582 1 0 1 192 192 192 255 0.302131 0.061667
-0.300095 1.03596 0.300076 -1 -3 2 192 192 192 255 0.265363 0.061977
0.300064 1.03596 0.300076 2 -3 1 192 192 192 255 0.265363 0.061977
-0.300095 1.12494 0.300076 -2 3 1 192 192 192 255 0.265363 0.061977
0.300064 1.12494 0.300076 1 3 2 192 192 192 255 0.265363 0.061977
-0.300095 1.12494 -0.30006 -1 3 -2 192 192 192 255 0.265363 0.061977
0.300064 1.12494 -0.30006 2 3 -1 192 192 192 255 0.265363 0.061977
-0.300095 1.03596 -0.30006 -2 -3 -1 192 192 192 255 0.265363 0.061977
0.300064 1.03596 -0.30006 1 -3 -2 192 192 192 255 0.265363 0.061977
-0.229446 1.12494 0.229416 1 3 -1 192 192 192 255 0.300228 0.061977
0.229385 1.12494 0.229416 -1 3 -2 192 192 192 255 0.300228 0.061977
0.229385 1.12494 -0.229404 -2 3 2 192 192 192 255 0.300228 0.061977
-0.229446 1.12494 -0.229404 2 3 1 192 192 192 255 0.300228 0.061977
-0.229446 1.03596 -0.229404 1 -3 2 192 192 192 255 0.200343 0.061977
0.229385 1.03596 -0.229404 -1 -3 1 192 192 192 255 0.200343 0.061977
0.229385 1.03596 0.229416 -2 -3 -1 192 192 192 255 0.200343 0.061977
-0.229446 1.03596 0.229416 2 -3 -2 192 192 192 255 0.200343 0.061977
-0.879601 0 0.879604 -1 -1 2 192 192 192 255 0.172088 0.062686
0.879608 0 0.879604 2 -2 1 192 192 192 255 0.172088 0.062686
-0.701218 0.948639 0.701237 -2 3 1 192 192 192 255 0.236718 0.061667
0.701241 0.948639 0.701237 1 3 2 192 192 192 255 0.236718 0.061667
-0.701218 0.948639 -0.701229 -1 3 -2 192 192 192 255 0.236144 0.061667
0.701241 0.948639 -0.701229 2 3 -1 192 192 192 255 0.238957 0.061667
-0.879601 0 -0.879604 -2 -2 -1 192 192 192 255 0.172088 0.062686
0.879608 0 -0.879604 1 -1 -2 192 192 192 255 0.172088 0.062686
-0.879601 0.82515 -0.879604 -1 3 -2 192 192 192 255 0.269275 0.063036
-0.879601 0.82515 0.879601 -2 3 1 192 192 192 255 0.269275 0.063036
0.879608 0.82515 0.879601 1 3 2 192 192 192 255 0.269275 0.063036
0.879608 0.82515 -0.879604 2 3 -1 192 192 192 255 0.269275 0.063036
0.701241 0.82515 0.701237 2 3 1 192 192 192 255 0.269275 0.063036
-0.701218 0.82515 0.701237 -1 3 2 192 192 192 255 0.269275 0.063036
-0.701218 0.82515 -0.701229 -2 3 -1 192 192 192 255 0.269275 0.063036
0.701241 0.82515 -0.701229 1 3 -2 192 192 192 255 0.269275 0.063036
-0.08815 0.948639 0.088142 -1.89389 3.9642 0.946936 192 192 192 255 0.951238 0.667547
0.08812 0.948639 0.088142 0.946925 3.9643 1.89387 192 192 192 255 0.960144 0.667547
0.08812 0.948639 -0.088135 1.89385 3.96433 -0.946936 192 192 192 255 0.960144 0.675527
-0.08815 0.948639 -0.088135 -0.946947 3.96423 -1.89387 192 192 192 255 0.951238 0.675527
-0.034195 1.14056 0.034191 -1.65452 3.6853 0.82737 192 192 192 255 0.293294 0.061973
0.034157 1.14056 0.034191 0.827258 2.68514 1.65474 192 192 192 255 0.293294 0.061973
0.034157 1.14056 -0.034176 1.65452 3.68547 -0.827258 192 192 192 255 0.293294 0.061973
-0.034195 1.14056 -0.034176 -0.827258 2.68547 -1.65452 192 192 192 255 0.293294 0.061973
0.052872 1.05247 0.052898 3.89385 -2.03567 1.94694 192 192 192 255 0.230297 0.061973
-0.05291 1.05247 0.052898 -1.94695 -2.03577 3.89387 192 192 192 255 0.230297 0.061973
-0.05291 1.05247 -0.052891 -3.89389 -2.0358 -1.94694 192 192 192 255 0.230297 0.061973
0.052872 1.05247 -0.052891 1.94693 -2.0357 -3.89387 192 192 192 255 0.193207 0.061973
0.052872 1.11301 0.052898 2.65452 4.6853 2.82737 192 192 192 255 0.230297 0.061973
-0.05291 1.11301 0.052898 -2.82726 4.68514 2.65474 192 192 192 255 0.230297 0.061973
-0.05291 1.11301 -0.052891 -2.65452 4.68547 -2.82726 192 192 192 255 0.193207 0.061973
0.052872 1.11301 -0.052891 2.82726 4.68547 -2.65452 192 192 192 255 0.230297 0.061973
-0.229424 1.05247 0.052898 0 -2 1 192 192 192 255 0.193207 0.061973
-0.229424 1.05247 -0.052891 0 -1 -2 192 192 192 255 0.193207 0.061973
-0.229424 1.11301 0.052898 0 1 2 192 192 192 255 0.231366 0.061973
-0.229424 1.11301 -0.052891 0 2 -1 192 192 192 255 0.294796 0.061971
0.229385 1.05247 -0.052891 0 -2 -1 192 192 192 255 0.193207 0.061973
0.229385 1.05247 0.052898 0 -1 2 192 192 192 255 0.193207 0.061973
0.229385 1.11301 -0.052891 0 1 -2 192 192 192 255 0.231366 0.061973
0.229385 1.11301 0.052898 0 2 1 192 192 192 255 0.294796 0.061971
0.052872 1.05247 0.229416 1 -2 0 192 192 192 255 0.230297 0.061973
-0.05291 1.05247 0.229416 -2 -1 0 192 192 192 255 0.230297 0.061973
0.052872 1.11301 0.229416 2 1 0 192 192 192 255 0.198871 0.061973
-0.05291 1.11301 0.229416 -1 2 0 192 192 192 255 0.294796 0.061971
-0.05291 1.05247 -0.229404 -1 -2 0 192 192 192 255 0.230297 0.061973
0.052872 1.05247 -0.229404 2 -1 0 192 192 192 255 0.230297 0.061973
-0.05291 1.11301 -0.229404 -2 1 0 192 192 192 255 0.198871 0.061973
0.052872 1.11301 -0.229404 1 2 0 192 192 192 255 0.294796 0.061971
0.879608 0.577747 -0.879604 1 -3 -2 192 192 192 255 0.205069 0.062686
-0.879601 0.577747 -0.879604 -2 -3 -1 192 192 192 255 0.205069 0.062686
-0.879601 0.577747 0.879601 -1 -3 2 192 192 192 255 0.205069 0.062686
0.879608 0.577747 0.879601 2 -3 1 192 192 192 255 0.237107 0.062686
0.879608 0.289883 -0.879604 2 3 -1 192 192 192 255 0.237107 0.062686
-0.879601 0.289883 -0.879604 -1 3 -2 192 192 192 255 0.237107 0.062686
-0.879601 0.289883 0.879604 -2 3 1 192 192 192 255 0.205069 0.062686
0.879608 0.289883 0.879604 1 3 2 192 192 192 255 0.237107 0.062686
0.830444 0.577747 -0.830444 2 -3 -1 192 192 192 255 0.199963 0.062686
-0.830437 0.577747 -0.830444 -1 -3 -2 192 192 192 255 0.199963 0.062686
0.830444 0.289883 -0.830444 1 3 -2 192 192 192 255 0.199963 0.062686
-0.830437 0.289883 -0.830444 -2 3 -1 192 192 192 255 0.199963 0.062686
-0.830437 0.289883 0.830441 -1 3.00003 2 192 192 192 255 0.167925 0.062686
-0.830437 0.577747 0.830437 -2 -2.99999 1 192 192 192 255 0.167925 0.062686
0.830444 0.289883 0.830441 2 3.00001 1 192 192 192 255 0.199963 0.062686
0.830444 0.577747 0.830437 1 -2.99997 2 192 192 192 255 0.199963 0.062686
-0.815811 0.991287 0.432152 -2 1 -2 192 192 192 255 0.402016 0.061667
-0.531113 0.991287 0.432152 1 2 -1 192 192 192 255 0.402016 0.061667
-0.531113 0.991287 0.605385 2 1 2 192 192 192 255 0.302131 0.061667
-0.815811 0.991287 0.605385 -1 2 1 192 192 192 255 0.302131 0.061667
-0.531113 0.991287 0.605385 2 1 2 192 192 192 255 0.335112 0.061667
-0.531113 0.82515 0.605385 1 0 1 192 192 192 255 0.335112 0.061667
-0.531113 0.82515 0.432152 2 0 -2 192 192 192 255 0.335112 0.061667
-0.531113 0.991287 0.432152 1 2 -1 192 192 192 255 0.335112 0.061667
-0.815811 0.82515 0.605385 -2 0 2 192 192 192 255 0.335112 0.061667
-0.815811 0.991287 0.605385 -1 2 1 192 192 192 255 0.335112 0.061667
-0.815811 0.991287 0.432152 -2 1 -2 192 192 192 255 0.335112 0.061667
-0.815811 0.82515 0.432152 -1 0 -1 192 192 192 255 0.335112 0.061667
-0.815811 0.991287 -0.579815 -2 1 -2 192 192 192 255 0.402016 0.061667
-0.531113 0.991287 -0.579815 1 2 -1 192 192 192 255 0.402016 0.061667
-0.531113 0.991287 -0.406582 2 1 2 192 192 192 255 0.302131 0.061667
-0.815811 0.991287 -0.406582 -1 2 1 192 192 192 255 0.302131 0.061667
-0.531113 0.991287 -0.406582 2 1 2 192 192 192 255 0.335112 0.061667
-0.531113 0.82515 -0.406582 1 0 1 192 192 192 255 0.335112 0.061667
-0.531113 0.82515 -0.579815 2 0 -2 192 192 192 255 0.335112 0.061667
-0.531113 0.991287 -0.579815 1 2 -1 192 192 192 255 0.335112 0.061667
-0.815811 0.82515 -0.406582 -2 0 2 192 192 192 255 0.335112 0.061667
-0.815811 0.991287 -0.406582 -1 2 1 192 192 192 255 0.335112 0.061667
-0.815811 0.991287 -0.579815 -2 1 -2 192 192 192 255 0.335112 0.061667
-0.815811 0.82515 -0.579815 -1 0 -1 192 192 192 255 0.335112 0.061667
0.300064 1.03596 0.300076 2 -3 1 192 192 192 255 0.233324 0.061977
0.300064 1.03596 -0.30006 1 -3 -2 192 192 192 255 0.233324 0.061977
0.300064 1.12494 -0.30006 2 3 -1 192 192 192 255 0.233324 0.061977
0.300064 1.12494 0.300076 1 3 2 192 192 192 255 0.233324 0.061977
-0.300095 1.03596 -0.30006 -2 -3 -1 192 192 192 255 0.233324 0.061977
-0.300095 1.03596 0.300076 -1 -3 2 192 192 192 255 0.233324 0.061977
-0.300095 1.12494 0.300076 -2 3 1 192 192 192 255 0.233324 0.061977
-0.300095 1.12494 -0.30006 -1 3 -2 192 192 192 255 0.233324 0.061977
-0.300095 1.12494 0.300076 -2 3 1 192 192 192 255 0.300228 0.061977
0.300064 1.12494 0.300076 1 3 2 192 192 192 255 0.300228 0.061977
0.300064 1.12494 -0.30006 2 3 -1 192 192 192 255 0.300228 0.061977
-0.300095 1.12494 -0.30006 -1 3 -2 192 192 192 255 0.300228 0.061977
-0.300095 1.03596 -0.30006 -2 -3 -1 192 192 192 255 0.200343 0.061977
0.300064 1.03596 -0.30006 1 -3 -2 192 192 192 255 0.200343 0.061977
0.300064 1.03596 0.300076 2 -3 1 192 192 192 255 0.200343 0.061977
-0.300095 1.03596 0.300076 -1 -3 2 192 192 192 255 0.200343 0.061977
0.229385 1.12494 -0.229404 -2 3 2 192 192 192 255 0.270981 0.061977
-0.229446 1.12494 -0.229404 2 3 1 192 192 192 255 0.270981 0.061977
-0.229446 1.03596 -0.229404 1 -3 2 192 192 192 255 0.270981 0.061977
0.229385 1.03596 -0.229404 -1 -3 1 192 192 192 255 0.270981 0.061977
-0.229446 1.12494 -0.229404 2 3 1 192 192 192 255 0.229481 0.061977
-0.229446 1.12494 0.229416 1 3 -1 192 192 192 255 0.229481 0.061977
-0.229446 1.03596 0.229416 2 -3 -2 192 192 192 255 0.229481 0.061977
-0.229446 1.03596 -0.229404 1 -3 2 192 192 192 255 0.229481 0.061977
0.229385 1.12494 -0.229404 -2 3 2 192 192 192 255 0.229481 0.061977
0.229385 1.03596 -0.229404 -1 -3 1 192 192 192 255 0.229481 0.061977
0.229385 1.03596 0.229416 -2 -3 -1 192 192 192 255 0.229481 0.061977
0.229385 1.12494 0.229416 -1 3 -2 192 192 192 255 0.229481 0.061977
0.229385 1.12494 0.229416 -1 3 -2 192 192 192 255 0.270981 0.061977
0.229385 1.03596 0.229416 -2 -3 -1 192 192 192 255 0.270981 0.061977
-0.229446 1.03596 0.229416 2 -3 -2 192 192 192 255 0.270981 0.061977
-0.229446 1.12494 0.229416 1 3 -1 192 192 192 255 0.270981 0.061977
-0.879601 0.82515 0.879601 -2 3 1 192 192 192 255 0.205069 0.062686
-0.879601 0.82515 -0.879604 -1 3 -2 192 192 192 255 0.205069 0.062686
-0.879601 0.577747 0.879601 -1 -3 2 192 192 192 255 0.237107 0.062686
0.879608 0.82515 0.879601 1 3 2 192 192 192 255 0.237107 0.062686
-0.879601 0.82515 0.879601 -2 3 1 192 192 192 255 0.237107 0.062686
0.879608 0.577747 0.879601 2 -3 1 192 192 192 255 0.205069 0.062686
0.879608 0.82515 -0.879604 2 3 -1 192 192 192 255 0.205069 0.062686
0.879608 0.82515 0.879601 1 3 2 192 192 192 255 0.205069 0.062686
-0.879601 0.82515 -0.879604 -1 3 -2 192 192 192 255 0.237107 0.062686
0.879608 0.82515 -0.879604 2 3 -1 192 192 192 255 0.237107 0.062686
0.879608 0.577747 -0.879604 1 -3 -2 192 192 192 255 0.237107 0.062686
-0.879601 0.577747 -0.879604 -2 -3 -1 192 192 192 255 0.237107 0.062686
-0.701218 0.82515 0.701237 -1 3 2 192 192 192 255 0.236718 0.061667
0.701241 0.82515 0.701237 2 3 1 192 192 192 255 0.236718 0.061667
-0.701218 0.82515 -0.701229 -2 3 -1 192 192 192 255 0.236144 0.061667
-0.701218 0.82515 0.701237 -1 3 2 192 192 192 255 0.236144 0.061667
-0.701218 0.948639 0.701237 -2 3 1 192 192 192 255 0.236144 0.061667
-0.701218 0.948639 -0.701229 -1 3 -2 192 192 192 255 0.238957 0.061667
0.701241 0.82515 -0.701229 1 3 -2 192 192 192 255 0.238957 0.061667
-0.701218 0.82515 -0.701229 -2 3 -1 192 192 192 255 0.238957 0.061667
0.701241 0.82515 0.701237 2 3 1 192 192 192 255 0.236144 0.061667
0.701241 0.82515 -0.701229 1 3 -2 192 192 192 255 0.236143 0.061667
0.701241 0.948639 -0.701229 2 3 -1 192 192 192 255 0.236143 0.061667
0.701241 0.948639 0.701237 1 3 2 192 192 192 255 0.236144 0.061667
-0.701218 0.948639 0.701237 -2 3 1 192 192 192 255 0.920264 0.639789
0.701241 0.948639 0.701237 1 3 2 192 192 192 255 0.991121 0.639789
0.701241 0.948639 -0.701229 2 3 -1 192 192 192 255 0.991121 0.703285
-0.701218 0.948639 -0.701229 -1 3 -2 192 192 192 255 0.920264 0.703285
0.08812 0.948639 0.088142 0.946925 3.9643 1.89387 192 192 192 255 0.230297 0.061973
-0.08815 0.948639 0.088142 -1.89389 3.9642 0.946936 192 192 192 255 0.230297 0.061973
0.08812 0.948639 -0.088135 1.89385 3.96433 -0.946936 192 192 192 255 0.193207 0.061973
0.052872 1.05247 0.052898 3.89385 -2.03567 1.94694 192 192 192 255 0.193207 0.061973
0.08812 0.948639 0.088142 0.946925 3.9643 1.89387 192 192 192 255 0.193207 0.061973
-0.08815 0.948639 -0.088135 -0.946947 3.96423 -1.89387 192 192 192 255 0.230297 0.061973
0.052872 1.05247 -0.052891 1.94693 -2.0357 -3.89387 192 192 192 255 0.230297 0.061973
0.08812 0.948639 -0.088135 1.89385 3.96433 -0.946936 192 192 192 255 0.230297 0.061973
-0.08815 0.948639 0.088142 -1.89389 3.9642 0.946936 192 192 192 255 0.193207 0.061973
-0.05291 1.05247 0.052898 -1.94695 -2.03577 3.89387 192 192 192 255 0.193207 0.061973
-0.05291 1.05247 -0.052891 -3.89389 -2.0358 -1.94694 192 192 192 255 0.193207 0.061973
-0.08815 0.948639 -0.088135 -0.946947 3.96423 -1.89387 192 192 192 255 0.193207 0.061973
0.034157 1.14056 0.034191 0.827258 2.68514 1.65474 192 192 192 255 0.230297 0.061973
-0.034195 1.14056 0.034191 -1.65452 3.6853 0.82737 192 192 192 255 0.230297 0.061973
-0.05291 1.11301 0.052898 -2.82726 4.68514 2.65474 192 192 192 255 0.193207 0.061973
-0.034195 1.14056 0.034191 -1.65452 3.6853 0.82737 192 192 192 255 0.193207 0.061973
-0.034195 1.14056 -0.034176 -0.827258 2.68547 -1.65452 192 192 192 255 0.193207 0.061973
-0.05291 1.11301 -0.052891 -2.65452 4.68547 -2.82726 192 192 192 255 0.230297 0.061973
-0.034195 1.14056 -0.034176 -0.827258 2.68547 -1.65452 192 192 192 255 0.230297 0.061973
0.034157 1.14056 -0.034176 1.65452 3.68547 -0.827258 192 192 192 255 0.230297 0.061973
0.052872 1.11301 0.052898 2.65452 4.6853 2.82737 192 192 192 255 0.193207 0.061973
0.052872 1.11301 -0.052891 2.82726 4.68547 -2.65452 192 192 192 255 0.193207 0.061973
0.034157 1.14056 -0.034176 1.65452 3.68547 -0.827258 192 192 192 255 0.193207 0.061973
0.034157 1.14056 0.034191 0.827258 2.68514 1.65474 192 192 192 255 0.193207 0.061973
-0.05291 1.05247 0.052898 -1.94695 -2.03577 3.89387 192 192 192 255 0.231366 0.061973
-0.05291 1.11301 0.052898 -2.82726 4.68514 2.65474 192 192 192 255 0.231366 0.061973
-0.229424 1.05247 0.052898 0 -2 1 192 192 192 255 0.231366 0.061973
-0.05291 1.11301 0.052898 -2.82726 4.68514 2.65474 192 192 192 255 0.294796 0.061971
-0.05291 1.11301 -0.052891 -2.65452 4.68547 -2.82726 192 192 192 255 0.294796 0.061971
-0.229424 1.11301 0.052898 0 1 2 192 192 192 255 0.294796 0.061971
-0.05291 1.11301 -0.052891 -2.65452 4.68547 -2.82726 192 192 192 255 0.231366 0.061973
-0.05291 1.05247 -0.052891 -3.89389 -2.0358 -1.94694 192 192 192 255 0.231366 0.061973
-0.229424 1.05247 -0.052891 0 -1 -2 192 192 192 255 0.231366 0.061973
-0.229424 1.11301 -0.052891 0 2 -1 192 192 192 255 0.231366 0.061973
0.052872 1.05247 -0.052891 1.94693 -2.0357 -3.89387 192 192 192 255 0.231366 0.061973
0.052872 1.11301 -0.052891 2.82726 4.68547 -2.65452 192 192 192 255 0.231366 0.061973
0.229385 1.05247 -0.052891 0 -2 -1 192 192 192 255 0.231366 0.061973
0.052872 1.11301 -0.052891 2.82726 4.68547 -2.65452 192 192 192 255 0.294796 0.061971
0.052872 1.11301 0.052898 2.65452 4.6853 2.82737 192 192 192 255 0.294796 0.061971
0.229385 1.11301 -0.052891 0 1 -2 192 192 192 255 0.294796 0.061971
0.052872 1.11301 0.052898 2.65452 4.6853 2.82737 192 192 192 255 0.231366 0.061973
0.052872 1.05247 0.052898 3.89385 -2.03567 1.94694 192 192 192 255 0.231366 0.061973
0.229385 1.05247 0.052898 0 -1 2 192 192 192 255 0.231366 0.061973
0.229385 1.11301 0.052898 0 2 1 192 192 192 255 0.231366 0.061973
0.052872 1.05247 0.052898 3.89385 -2.03567 1.94694 192 192 192 255 0.198871 0.061973
0.052872 1.11301 0.052898 2.65452 4.6853 2.82737 192 192 192 255 0.198871 0.061973
0.052872 1.05247 0.229416 1 -2 0 192 192 192 255 0.198871 0.061973
0.052872 1.11301 0.229416 2 1 0 192 192 192 255 0.294796 0.061971
-0.05291 1.11301 0.052898 -2.82726 4.68514 2.65474 192 192 192 255 0.198871 0.061973
-0.05291 1.05247 0.052898 -1.94695 -2.03577 3.89387 192 192 192 255 0.198871 0.061973
-0.05291 1.05247 0.229416 -2 -1 0 192 192 192 255 0.198871 0.061973
-0.05291 1.11301 0.229416 -1 2 0 192 192 192 255 0.198871 0.061973
-0.05291 1.05247 -0.052891 -3.89389 -2.0358 -1.94694 192 192 192 255 0.198871 0.061973
-0.05291 1.11301 -0.052891 -2.65452 4.68547 -2.82726 192 192 192 255 0.198871 0.061973
-0.05291 1.05247 -0.229404 -1 -2 0 192 192 192 255 0.198871 0.061973
-0.05291 1.11301 -0.229404 -2 1 0 192 192 192 255 0.294796 0.061971
0.052872 1.11301 -0.052891 2.82726 4.68547 -2.65452 192 192 192 255 0.198871 0.061973
0.052872 1.05247 -0.052891 1.94693 -2.0357 -3.89387 192 192 192 255 0.198871 0.061973
0.052872 1.05247 -0.229404 2 -1 0 192 192 192 255 0.198871 0.061973
0.052872 1.11301 -0.229404 1 2 0 192 192 192 255 0.198871 0.061973
-0.830437 0.289883 -0.830444 -2 3 -1 192 192 192 255 0.167925 0.062686
-0.830437 0.577747 -0.830444 -1 -3 -2 192 192 192 255 0.167925 0.062686
-0.830437 0.289883 0.830441 -1 3.00003 2 192 192 192 255 0.199963 0.062686
-0.830437 0.577747 0.830437 -2 -2.99999 1 192 192 192 255 0.199963 0.062686
0.830444 0.289883 0.830441 2 3.00001 1 192 192 192 255 0.167925 0.062686
0.830444 0.289883 -0.830444 1 3 -2 192 192 192 255 0.167925 0.062686
0.830444 0.577747 -0.830444 2 -3 -1 192 192 192 255 0.167925 0.062686
0.830444 0.577747 0.830437 1 -2.99997 2 192 192 192 255 0.167925 0.062686
0.879608 0 -0.879604 1 -1 -2 192 192 192 255 0.237107 0.062686
-0.879601 0 -0.879604 -2 -2 -1 192 192 192 255 0.237107 0.062686
-0.879601 0 -0.879604 -2 -2 -1 192 192 192 255 0.205069 0.062686
-0.879601 0 0.879604 -1 -1 2 192 192 192 255 0.205069 0.062686
-0.879601 0.289883 -0.879604 -1 3 -2 192 192 192 255 0.205069 0.062686
-0.879601 0 0.879604 -1 -1 2 192 192 192 255 0.237107 0.062686
0.879608 0 0.879604 2 -2 1 192 192 192 255 0.237107 0.062686
-0.879601 0.289883 0.879604 -2 3 1 192 192 192 255 0.237107 0.062686
0.879608 0 0.879604 2 -2 1 192 192 192 255 0.205069 0.062686
0.879608 0 -0.879604 1 -1 -2 192 192 192 255 0.205069 0.062686
0.879608 0.289883 -0.879604 2 3 -1 192 192 192 255 0.205069 0.062686
0.879608 0.289883 0.879604 1 3 2 192 192 192 255 0.205069 0.062686
-0.879601 0.577747 -0.879604 -2 -3 -1 192 192 192 255 0.171928 0.060914
0.879608 0.577747 -0.879604 1 -3 -2 192 192 192 255 0.171928 0.060914
0.830444 0.577747 -0.830444 2 -3 -1 192 192 192 255 0.171928 0.060914
-0.830437 0.577747 -0.830444 -1 -3 -2 192 192 192 255 0.171928 0.060914
0.879608 0.289883 -0.879604 2 3 -1 192 192 192 255 0.266222 0.0652
-0.879601 0.289883 -0.879604 -1 3 -2 192 192 192 255 0.266222 0.0652
-0.830437 0.289883 -0.830444 -2 3 -1 192 192 192 255 0.266222 0.0652
0.830444 0.289883 -0.830444 1 3 -2 192 192 192 255 0.266222 0.0652
-0.879601 0.289883 0.879604 -2 3 1 192 192 192 255 0.266222 0.0652
-0.830437 0.289883 0.830441 -1 3.00003 2 192 192 192 255 0.266222 0.0652
-0.879601 0.577747 0.879601 -1 -3 2 192 192 192 255 0.171928 0.060914
-0.830437 0.577747 0.830437 -2 -2.99999 1 192 192 192 255 0.171928 0.060914
0.879608 0.289883 0.879604 1 3 2 192 192 192 255 0.266222 0.0652
0.830444 0.289883 0.830441 2 3.00001 1 192 192 192 255 0.266222 0.0652
0.879608 0.577747 0.879601 2 -3 1 192 192 192 255 0.171928 0.060914
0.830444 0.577747 0.830437 1 -2.99997 2 192 192 192 255 0.171928 0.060914
3 0 1 3 
3 0 3 2 
3 96 97 5 
3 96 5 4 
3 6 7 98 
3 6 98 99 
3 100 101 102 
3 100 102 103 
3 104 105 106 
3 104 106 107 
3 8 9 11 
3 8 11 10 
3 108 109 13 
3 108 13 12 
3 14 15 110 
3 14 110 111 
3 112 113 114 
3 112 114 115 
3 116 117 118 
3 116 118 119 
3 16 17 19 
3 16 19 18 
3 20 21 23 
3 20 23 22 
3 120 121 122 
3 120 122 123 
3 124 125 126 
3 124 126 127 
3 128 129 25 
3 128 25 24 
3 129 130 26 
3 129 26 25 
3 130 131 27 
3 130 27 26 
3 131 128 24 
3 131 24 27 
3 132 133 29 
3 132 29 28 
3 133 134 30 
3 133 30 29 
3 134 135 31 
3 134 31 30 
3 135 132 28 
3 135 28 31 
3 136 137 138 
3 136 138 139 
3 140 141 142 
3 140 142 143 
3 144 145 146 
3 144 146 147 
3 148 149 150 
3 148 150 151 
3 41 42 44 
3 41 44 45 
3 52 53 54 
3 52 54 55 
3 46 47 43 
3 46 43 40 
3 38 39 33 
3 38 33 32 
3 42 43 47 
3 42 47 44 
3 40 41 45 
3 40 45 46 
3 81 82 152 
3 81 152 153 
3 154 83 155 
3 154 155 156 
3 157 80 158 
3 157 158 159 
3 160 161 162 
3 160 162 163 
3 164 165 35 
3 164 35 34 
3 166 167 168 
3 166 168 36 
3 169 37 170 
3 169 170 171 
3 172 173 174 
3 172 174 175 
3 176 177 49 
3 176 49 48 
3 177 178 50 
3 177 50 49 
3 178 179 51 
3 178 51 50 
3 179 176 48 
3 179 48 51 
3 180 56 57 
3 180 57 181 
3 182 59 183 
3 182 183 184 
3 185 58 186 
3 185 186 187 
3 188 189 190 
3 188 190 191 
3 61 60 192 
3 61 192 193 
3 62 194 195 
3 62 195 196 
3 63 197 198 
3 63 198 199 
3 200 201 202 
3 200 202 203 
3 190 189 64 
3 190 64 65 
3 204 205 66 
3 204 66 206 
3 207 208 67 
3 207 67 209 
3 210 211 212 
3 210 212 213 
3 183 59 68 
3 183 68 69 
3 214 215 70 
3 214 70 216 
3 217 218 71 
3 217 71 219 
3 220 221 222 
3 220 222 223 
3 57 56 72 
3 57 72 73 
3 224 225 74 
3 224 74 226 
3 218 207 75 
3 218 75 227 
3 228 229 230 
3 228 230 231 
3 186 58 76 
3 186 76 77 
3 232 233 78 
3 232 78 234 
3 208 217 79 
3 208 79 235 
3 236 237 238 
3 236 238 239 
3 89 88 90 
3 89 90 91 
3 240 92 93 
3 240 93 241 
3 242 94 95 
3 242 95 243 
3 244 245 246 
3 244 246 247 
3 85 84 248 
3 85 248 249 
3 250 251 86 
3 250 86 252 
3 253 254 87 
3 253 87 255 
3 256 257 258 
3 256 258 259 
3 260 261 262 
3 260 262 263 
3 264 265 266 
3 264 266 267 
3 265 268 269 
3 265 269 266 
3 270 260 263 
3 270 263 271 
3 268 272 273 
3 268 273 269 
3 274 270 271 
3 274 271 275 
3 272 264 267 
3 272 267 273 
3 261 274 275 
3 261 275 262 
