ply
format ascii 1.0
comment VCGLIB generated
comment TextureFile SpaceInteriors_Texture.png
element vertex 312
property float x
property float y
property float z
property float nx
property float ny
property float nz
property uchar red
property uchar green
property uchar blue
property uchar alpha
property float texture_u
property float texture_v
element face 232
property list uchar int vertex_indices
end_header
-0.442733 0.124541 0.049484 -2.88406 -1.00661 2.94202 192 192 192 255 0.325291 0.023522
-0.343771 0.124541 0.049484 2.94203 -1.00664 2.88404 192 192 192 255 0.325291 0.023522
-0.442733 0.501634 0.049484 -2 -3 1 192 192 192 255 0.419792 0.085437
-0.343771 0.501634 0.049484 1 -3 2 192 192 192 255 0.419792 0.085437
-0.442733 0.501634 -0.04948 -1 -3 -2 192 192 192 255 0.419792 0.085437
-0.343771 0.501634 -0.04948 2 -3 -1 192 192 192 255 0.419792 0.085437
-0.442733 0.124541 -0.04948 -2.94203 -1.00664 -2.88404 192 192 192 255 0.325291 0.023522
-0.343771 0.124541 -0.04948 2.88406 -1.00661 -2.94202 192 192 192 255 0.325291 0.023522
-0.460857 0.501634 0.067608 -1 -3 2 192 192 192 255 0.419792 0.085437
-0.325647 0.501634 0.067608 2 -3 1 192 192 192 255 0.419792 0.085437
-0.325647 0.501634 -0.067604 1 -3 -2 192 192 192 255 0.419792 0.085437
-0.460857 0.501634 -0.067604 -2 -3 -1 192 192 192 255 0.419792 0.085437
-0.460857 0.539928 0.067608 -2 3 1 192 192 192 255 0.419792 0.085437
-0.325647 0.539928 0.067608 1 3 2 192 192 192 255 0.419792 0.085437
-0.325647 0.539928 -0.067604 2 3 -1 192 192 192 255 0.384341 0.086146
-0.460857 0.539928 -0.067604 -1 3 -2 192 192 192 255 0.419792 0.085437
-0.436313 0.539928 0.04306 0 5 0 192 192 192 255 0.299222 0.083264
-0.350192 0.539928 0.04306 0 4 0 192 192 192 255 0.299222 0.083264
-0.350192 0.539928 -0.043056 0 5 0 192 192 192 255 0.299222 0.083264
-0.436313 0.539928 -0.043056 0 4 0 192 192 192 255 0.299222 0.083264
-0.423532 0.070632 -0.030277 -1.88406 -3.00661 -0.94202 192 192 192 255 0.325291 0.023522
-0.362972 0.070632 -0.030277 0.942031 -2.00664 -1.88404 192 192 192 255 0.325291 0.023522
-0.362972 0.070632 0.030281 1.88406 -3.00661 0.94202 192 192 192 255 0.325291 0.023522
-0.423532 0.070632 0.030281 -0.942031 -2.00664 1.88404 192 192 192 255 0.325291 0.023522
-0.442733 0.188468 0.049484 -3 0 3 192 192 192 255 0.325291 0.023522
-0.442733 0.188468 -0.04948 -3 0 -3 192 192 192 255 0.325291 0.023522
-0.343771 0.188468 -0.04948 3 0 -3 192 192 192 255 0.325291 0.023522
-0.343771 0.188468 0.049484 3 0 3 192 192 192 255 0.325291 0.023522
-0.182707 0.124541 0.04948 -2.88407 -1.00652 2.94204 192 192 192 255 0.419792 0.085437
-0.083745 0.124541 0.04948 2.94203 -1.00652 2.88408 192 192 192 255 0.419792 0.085437
-0.182707 0.501634 0.04948 -2 -3 1 192 192 192 255 0.419792 0.085437
-0.083745 0.501634 0.04948 1 -3 2 192 192 192 255 0.419792 0.085437
-0.182707 0.501634 -0.04948 -1 -3 -2 192 192 192 255 0.419792 0.085437
-0.083745 0.501634 -0.04948 2 -3 -1 192 192 192 255 0.419792 0.085437
-0.182707 0.124541 -0.04948 -2.94204 -1.0065 -2.88408 192 192 192 255 0.419792 0.085437
-0.083745 0.124541 -0.04948 2.88406 -1.00655 -2.94204 192 192 192 255 0.419792 0.085437
-0.200832 0.501634 0.067608 -1 -3 2 192 192 192 255 0.419792 0.085437
-0.065621 0.501634 0.067608 2 -3 1 192 192 192 255 0.419792 0.085437
-0.065621 0.501634 -0.067608 1 -3 -2 192 192 192 255 0.419792 0.085437
-0.200832 0.501634 -0.067608 -2 -3 -1 192 192 192 255 0.419792 0.085437
-0.200832 0.539928 0.067608 -2 3 1 192 192 192 255 0.419792 0.085437
-0.065621 0.539928 0.067608 1 3 2 192 192 192 255 0.419792 0.085437
-0.065621 0.539928 -0.067608 2 3 -1 192 192 192 255 0.384341 0.086146
-0.200832 0.539928 -0.067608 -1 3 -2 192 192 192 255 0.419792 0.085437
-0.176287 0.539928 0.04306 0 5 0 192 192 192 255 0.299222 0.083264
-0.090166 0.539928 0.04306 0 4 0 192 192 192 255 0.299222 0.083264
-0.090166 0.539928 -0.04306 0 5 0 192 192 192 255 0.299222 0.083264
-0.176287 0.539928 -0.04306 0 4 0 192 192 192 255 0.299222 0.083264
-0.163507 0.070632 -0.030281 -1.88407 -3.00652 -0.942042 192 192 192 255 0.419792 0.085437
-0.102946 0.070632 -0.030281 0.942031 -2.00652 -1.88408 192 192 192 255 0.419792 0.085437
-0.102946 0.070632 0.030281 1.88406 -3.00655 0.942042 192 192 192 255 0.419792 0.085437
-0.163507 0.070632 0.030281 -0.942036 -2.0065 1.88408 192 192 192 255 0.419792 0.085437
0.344288 0.124541 0.04948 -2.88406 -1.00655 2.94204 192 192 192 255 0.419792 0.085437
0.44325 0.124541 0.04948 2.94203 -1.00652 2.88408 192 192 192 255 0.419792 0.085437
0.344288 0.501634 0.04948 -2 -3 1 192 192 192 255 0.419792 0.085437
0.44325 0.501634 0.04948 1 -3 2 192 192 192 255 0.419792 0.085437
0.344288 0.501634 -0.04948 -1 -3 -2 192 192 192 255 0.419792 0.085437
0.44325 0.501634 -0.04948 2 -3 -1 192 192 192 255 0.419792 0.085437
0.344288 0.124541 -0.04948 -2.94203 -1.00652 -2.88408 192 192 192 255 0.419792 0.085437
0.44325 0.124541 -0.04948 2.88406 -1.00655 -2.94204 192 192 192 255 0.419792 0.085437
0.326163 0.501634 0.067608 -1 -3 2 192 192 192 255 0.419792 0.085437
0.461374 0.501634 0.067608 2 -3 1 192 192 192 255 0.419792 0.085437
0.461374 0.501634 -0.067608 1 -3 -2 192 192 192 255 0.419792 0.085437
0.326163 0.501634 -0.067608 -2 -3 -1 192 192 192 255 0.419792 0.085437
0.326163 0.539928 0.067608 -2 3 1 192 192 192 255 0.419792 0.085437
0.461374 0.539928 0.067608 1 3 2 192 192 192 255 0.419792 0.085437
0.461374 0.539928 -0.067608 2 3 -1 192 192 192 255 0.384341 0.086146
0.326163 0.539928 -0.067608 -1 3 -2 192 192 192 255 0.419792 0.085437
0.350709 0.539928 0.04306 0 5 0 192 192 192 255 0.299222 0.083264
0.43683 0.539928 0.04306 0 4 0 192 192 192 255 0.299222 0.083264
0.43683 0.539928 -0.04306 0 5 0 192 192 192 255 0.299222 0.083264
0.350709 0.539928 -0.04306 0 4 0 192 192 192 255 0.299222 0.083264
0.363489 0.070632 -0.030281 -1.88406 -3.00655 -0.942042 192 192 192 255 0.419792 0.085437
0.424049 0.070632 -0.030281 0.94203 -2.00652 -1.88408 192 192 192 255 0.419792 0.085437
0.424049 0.070632 0.030281 1.88406 -3.00655 0.942042 192 192 192 255 0.419792 0.085437
0.363489 0.070632 0.030281 -0.94203 -2.00652 1.88408 192 192 192 255 0.419792 0.085437
0.091235 0.124541 0.04948 -2.88407 -1.00652 2.94204 192 192 192 255 0.298136 0.332008
0.190196 0.124541 0.04948 2.94204 -1.0065 2.88408 192 192 192 255 0.298136 0.332008
0.091235 0.501634 0.04948 -2 -3 1 192 192 192 255 0.419792 0.085437
0.190196 0.501634 0.04948 1 -3 2 192 192 192 255 0.419792 0.085437
0.091235 0.501634 -0.04948 -1 -3 -2 192 192 192 255 0.419792 0.085437
0.190196 0.501634 -0.04948 2 -3 -1 192 192 192 255 0.419792 0.085437
0.091235 0.124541 -0.04948 -2.94204 -1.0065 -2.88408 192 192 192 255 0.298136 0.332008
0.190196 0.124541 -0.04948 2.88407 -1.00652 -2.94204 192 192 192 255 0.298136 0.332008
0.073111 0.501634 0.067608 -1 -3 2 192 192 192 255 0.419792 0.085437
0.208321 0.501634 0.067608 2 -3 1 192 192 192 255 0.419792 0.085437
0.208321 0.501634 -0.067608 1 -3 -2 192 192 192 255 0.419792 0.085437
0.073111 0.501634 -0.067608 -2 -3 -1 192 192 192 255 0.419792 0.085437
0.073111 0.539928 0.067608 -2 3 1 192 192 192 255 0.419792 0.085437
0.208321 0.539928 0.067608 1 3 2 192 192 192 255 0.419792 0.085437
0.208321 0.539928 -0.067608 2 3 -1 192 192 192 255 0.384341 0.086146
0.073111 0.539928 -0.067608 -1 3 -2 192 192 192 255 0.419792 0.085437
0.097655 0.539928 0.04306 0 5 0 192 192 192 255 0.299222 0.083264
0.183776 0.539928 0.04306 0 4 0 192 192 192 255 0.299222 0.083264
0.183776 0.539928 -0.04306 0 5 0 192 192 192 255 0.299222 0.083264
0.097655 0.539928 -0.04306 0 4 0 192 192 192 255 0.299222 0.083264
0.110435 0.070632 -0.030281 -1.88407 -3.00652 -0.942042 192 192 192 255 0.298136 0.332008
0.170996 0.070632 -0.030281 0.942036 -2.0065 -1.88408 192 192 192 255 0.298136 0.332008
0.170996 0.070632 0.030281 1.88407 -3.00652 0.942042 192 192 192 255 0.298136 0.332008
0.110435 0.070632 0.030281 -0.942036 -2.0065 1.88408 192 192 192 255 0.298136 0.332008
0.190196 0.279496 0.04948 3 0 3 192 192 192 255 0.298136 0.332008
0.091235 0.279496 0.04948 -3 0 3 192 192 192 255 0.298136 0.332008
0.091235 0.279496 -0.04948 -3 0 -3 192 192 192 255 0.298136 0.332008
0.190196 0.279496 -0.04948 3 0 -3 192 192 192 255 0.298136 0.332008
0.507428 0.054307 0.039883 -1 0 2 192 192 192 255 0.354619 0.479191
0.587196 0.054307 0.039883 2 0 1 192 192 192 255 0.354619 0.479191
0.507428 0.446809 0.039883 -2 0 1 192 192 192 255 0.354619 0.479191
0.587196 0.446809 0.039883 1 0 2 192 192 192 255 0.354619 0.479191
0.507428 0.446809 -0.039883 -1 0 -2 192 192 192 255 0.354619 0.479191
0.587196 0.446809 -0.039883 2 0 -1 192 192 192 255 0.354619 0.479191
0.507428 0.054307 -0.039883 -2 0 -1 192 192 192 255 0.354619 0.479191
0.587196 0.054307 -0.039883 1 0 -2 192 192 192 255 0.354619 0.479191
-0.582596 0.054307 0.039883 -1 0 2 192 192 192 255 0.354619 0.479191
-0.502828 0.054307 0.039883 2 0 1 192 192 192 255 0.354619 0.479191
-0.582596 0.446809 0.039883 -2 0 1 192 192 192 255 0.354619 0.479191
-0.502828 0.446809 0.039883 1 0 2 192 192 192 255 0.354619 0.479191
-0.582596 0.446809 -0.039883 -1 0 -2 192 192 192 255 0.354619 0.479191
-0.502828 0.446809 -0.039883 2 0 -1 192 192 192 255 0.354619 0.479191
-0.582596 0.054307 -0.039883 -2 0 -1 192 192 192 255 0.354619 0.479191
-0.502828 0.054307 -0.039883 1 0 -2 192 192 192 255 0.354619 0.479191
-0.616303 0.446809 0.095634 -1 -1 2 192 192 192 255 0.354619 0.479191
0.616303 0.446809 0.095634 2 -2 1 192 192 192 255 0.354619 0.479191
-0.616303 0.501634 0.095634 -2 2 1 192 192 192 255 0.354619 0.479191
0.616303 0.501634 0.095634 1 1 2 192 192 192 255 0.354619 0.479191
-0.616303 0.501634 -0.095634 -1 1 -2 192 192 192 255 0.39007 0.474937
0.616303 0.501634 -0.095634 2 2 -1 192 192 192 255 0.39007 0.474937
-0.616303 0.446809 -0.095634 -2 -2 -1 192 192 192 255 0.354619 0.479191
0.616303 0.446809 -0.095634 1 -1 -2 192 192 192 255 0.354619 0.479191
-0.63369 0 0.148808 -1 -1 2 192 192 192 255 0.354619 0.479191
0.63369 0 0.148808 2 -2 1 192 192 192 255 0.354619 0.479191
-0.63369 0.054307 0.148808 -2 2 1 192 192 192 255 0.354619 0.479191
0.63369 0.054307 0.148808 1 1 2 192 192 192 255 0.354619 0.479191
-0.63369 0.054307 -0.148808 -1 1 -2 192 192 192 255 0.39007 0.474937
0.63369 0.054307 -0.148808 2 2 -1 192 192 192 255 0.39007 0.474937
-0.63369 0 -0.148808 -2 -2 -1 192 192 192 255 0.354619 0.479191
0.63369 0 -0.148808 1 -1 -2 192 192 192 255 0.354619 0.479191
-0.343771 0.124541 0.049484 2.94203 -1.00664 2.88404 192 192 192 255 0.28984 0.024231
-0.343771 0.124541 -0.04948 2.88406 -1.00661 -2.94202 192 192 192 255 0.28984 0.024231
-0.343771 0.188468 -0.04948 3 0 -3 192 192 192 255 0.28984 0.024231
-0.343771 0.188468 0.049484 3 0 3 192 192 192 255 0.28984 0.024231
-0.442733 0.124541 -0.04948 -2.94203 -1.00664 -2.88404 192 192 192 255 0.28984 0.024231
-0.442733 0.124541 0.049484 -2.88406 -1.00661 2.94202 192 192 192 255 0.28984 0.024231
-0.442733 0.188468 0.049484 -3 0 3 192 192 192 255 0.28984 0.024231
-0.442733 0.188468 -0.04948 -3 0 -3 192 192 192 255 0.28984 0.024231
-0.325647 0.501634 0.067608 2 -3 1 192 192 192 255 0.384341 0.086146
-0.325647 0.501634 -0.067604 1 -3 -2 192 192 192 255 0.384341 0.086146
-0.325647 0.539928 0.067608 1 3 2 192 192 192 255 0.384341 0.086146
-0.325647 0.539928 -0.067604 2 3 -1 192 192 192 255 0.419792 0.085437
-0.460857 0.501634 -0.067604 -2 -3 -1 192 192 192 255 0.384341 0.086146
-0.460857 0.501634 0.067608 -1 -3 2 192 192 192 255 0.384341 0.086146
-0.460857 0.539928 0.067608 -2 3 1 192 192 192 255 0.384341 0.086146
-0.460857 0.539928 -0.067604 -1 3 -2 192 192 192 255 0.384341 0.086146
-0.460857 0.539928 0.067608 -2 3 1 192 192 192 255 0.45028 0.088273
-0.325647 0.539928 0.067608 1 3 2 192 192 192 255 0.45028 0.088273
-0.350192 0.539928 0.04306 0 4 0 192 192 192 255 0.45028 0.088273
-0.436313 0.539928 0.04306 0 5 0 192 192 192 255 0.45028 0.088273
-0.325647 0.539928 -0.067604 2 3 -1 192 192 192 255 0.45028 0.088273
-0.350192 0.539928 -0.043056 0 5 0 192 192 192 255 0.45028 0.088273
-0.460857 0.539928 -0.067604 -1 3 -2 192 192 192 255 0.45028 0.088273
-0.436313 0.539928 -0.043056 0 4 0 192 192 192 255 0.45028 0.088273
-0.362972 0.070632 0.030281 1.88406 -3.00661 0.94202 192 192 192 255 0.28984 0.024231
-0.362972 0.070632 -0.030277 0.942031 -2.00664 -1.88404 192 192 192 255 0.28984 0.024231
-0.423532 0.070632 -0.030277 -1.88406 -3.00661 -0.94202 192 192 192 255 0.28984 0.024231
-0.423532 0.070632 0.030281 -0.942031 -2.00664 1.88404 192 192 192 255 0.28984 0.024231
-0.442733 0.188468 -0.04948 -3 0 -3 192 192 192 255 0.384341 0.086146
-0.442733 0.188468 0.049484 -3 0 3 192 192 192 255 0.384341 0.086146
-0.442733 0.501634 0.049484 -2 -3 1 192 192 192 255 0.384341 0.086146
-0.442733 0.501634 -0.04948 -1 -3 -2 192 192 192 255 0.384341 0.086146
-0.343771 0.188468 -0.04948 3 0 -3 192 192 192 255 0.419792 0.085437
-0.442733 0.188468 -0.04948 -3 0 -3 192 192 192 255 0.419792 0.085437
-0.343771 0.188468 0.049484 3 0 3 192 192 192 255 0.384341 0.086146
-0.343771 0.188468 -0.04948 3 0 -3 192 192 192 255 0.384341 0.086146
-0.343771 0.501634 -0.04948 2 -3 -1 192 192 192 255 0.384341 0.086146
-0.343771 0.501634 0.049484 1 -3 2 192 192 192 255 0.384341 0.086146
-0.442733 0.188468 0.049484 -3 0 3 192 192 192 255 0.419792 0.085437
-0.343771 0.188468 0.049484 3 0 3 192 192 192 255 0.419792 0.085437
-0.083745 0.124541 0.04948 2.94203 -1.00652 2.88408 192 192 192 255 0.384341 0.086146
-0.083745 0.124541 -0.04948 2.88406 -1.00655 -2.94204 192 192 192 255 0.384341 0.086146
-0.083745 0.501634 -0.04948 2 -3 -1 192 192 192 255 0.384341 0.086146
-0.083745 0.501634 0.04948 1 -3 2 192 192 192 255 0.384341 0.086146
-0.182707 0.124541 -0.04948 -2.94204 -1.0065 -2.88408 192 192 192 255 0.384341 0.086146
-0.182707 0.124541 0.04948 -2.88407 -1.00652 2.94204 192 192 192 255 0.384341 0.086146
-0.182707 0.501634 0.04948 -2 -3 1 192 192 192 255 0.384341 0.086146
-0.182707 0.501634 -0.04948 -1 -3 -2 192 192 192 255 0.384341 0.086146
-0.065621 0.501634 0.067608 2 -3 1 192 192 192 255 0.384341 0.086146
-0.065621 0.501634 -0.067608 1 -3 -2 192 192 192 255 0.384341 0.086146
-0.065621 0.539928 0.067608 1 3 2 192 192 192 255 0.384341 0.086146
-0.065621 0.539928 -0.067608 2 3 -1 192 192 192 255 0.419792 0.085437
-0.200832 0.501634 -0.067608 -2 -3 -1 192 192 192 255 0.384341 0.086146
-0.200832 0.501634 0.067608 -1 -3 2 192 192 192 255 0.384341 0.086146
-0.200832 0.539928 0.067608 -2 3 1 192 192 192 255 0.384341 0.086146
-0.200832 0.539928 -0.067608 -1 3 -2 192 192 192 255 0.384341 0.086146
-0.200832 0.539928 0.067608 -2 3 1 192 192 192 255 0.45028 0.088273
-0.065621 0.539928 0.067608 1 3 2 192 192 192 255 0.45028 0.088273
-0.090166 0.539928 0.04306 0 4 0 192 192 192 255 0.45028 0.088273
-0.176287 0.539928 0.04306 0 5 0 192 192 192 255 0.45028 0.088273
-0.065621 0.539928 -0.067608 2 3 -1 192 192 192 255 0.45028 0.088273
-0.090166 0.539928 -0.04306 0 5 0 192 192 192 255 0.45028 0.088273
-0.200832 0.539928 -0.067608 -1 3 -2 192 192 192 255 0.45028 0.088273
-0.176287 0.539928 -0.04306 0 4 0 192 192 192 255 0.45028 0.088273
-0.102946 0.070632 0.030281 1.88406 -3.00655 0.942042 192 192 192 255 0.384341 0.086146
-0.102946 0.070632 -0.030281 0.942031 -2.00652 -1.88408 192 192 192 255 0.384341 0.086146
-0.163507 0.070632 -0.030281 -1.88407 -3.00652 -0.942042 192 192 192 255 0.384341 0.086146
-0.163507 0.070632 0.030281 -0.942036 -2.0065 1.88408 192 192 192 255 0.384341 0.086146
0.44325 0.124541 0.04948 2.94203 -1.00652 2.88408 192 192 192 255 0.384341 0.086146
0.44325 0.124541 -0.04948 2.88406 -1.00655 -2.94204 192 192 192 255 0.384341 0.086146
0.44325 0.501634 -0.04948 2 -3 -1 192 192 192 255 0.384341 0.086146
0.44325 0.501634 0.04948 1 -3 2 192 192 192 255 0.384341 0.086146
0.344288 0.124541 -0.04948 -2.94203 -1.00652 -2.88408 192 192 192 255 0.384341 0.086146
0.344288 0.124541 0.04948 -2.88406 -1.00655 2.94204 192 192 192 255 0.384341 0.086146
0.344288 0.501634 0.04948 -2 -3 1 192 192 192 255 0.384341 0.086146
0.344288 0.501634 -0.04948 -1 -3 -2 192 192 192 255 0.384341 0.086146
0.461374 0.501634 0.067608 2 -3 1 192 192 192 255 0.384341 0.086146
0.461374 0.501634 -0.067608 1 -3 -2 192 192 192 255 0.384341 0.086146
0.461374 0.539928 0.067608 1 3 2 192 192 192 255 0.384341 0.086146
0.461374 0.539928 -0.067608 2 3 -1 192 192 192 255 0.419792 0.085437
0.326163 0.501634 -0.067608 -2 -3 -1 192 192 192 255 0.384341 0.086146
0.326163 0.501634 0.067608 -1 -3 2 192 192 192 255 0.384341 0.086146
0.326163 0.539928 0.067608 -2 3 1 192 192 192 255 0.384341 0.086146
0.326163 0.539928 -0.067608 -1 3 -2 192 192 192 255 0.384341 0.086146
0.326163 0.539928 0.067608 -2 3 1 192 192 192 255 0.45028 0.088273
0.461374 0.539928 0.067608 1 3 2 192 192 192 255 0.45028 0.088273
0.43683 0.539928 0.04306 0 4 0 192 192 192 255 0.45028 0.088273
0.350709 0.539928 0.04306 0 5 0 192 192 192 255 0.45028 0.088273
0.461374 0.539928 -0.067608 2 3 -1 192 192 192 255 0.45028 0.088273
0.43683 0.539928 -0.04306 0 5 0 192 192 192 255 0.45028 0.088273
0.326163 0.539928 -0.067608 -1 3 -2 192 192 192 255 0.45028 0.088273
0.350709 0.539928 -0.04306 0 4 0 192 192 192 255 0.45028 0.088273
0.424049 0.070632 0.030281 1.88406 -3.00655 0.942042 192 192 192 255 0.384341 0.086146
0.424049 0.070632 -0.030281 0.94203 -2.00652 -1.88408 192 192 192 255 0.384341 0.086146
0.363489 0.070632 -0.030281 -1.88406 -3.00655 -0.942042 192 192 192 255 0.384341 0.086146
0.363489 0.070632 0.030281 -0.94203 -2.00652 1.88408 192 192 192 255 0.384341 0.086146
0.190196 0.124541 0.04948 2.94204 -1.0065 2.88408 192 192 192 255 0.262685 0.332717
0.190196 0.124541 -0.04948 2.88407 -1.00652 -2.94204 192 192 192 255 0.262685 0.332717
0.190196 0.279496 -0.04948 3 0 -3 192 192 192 255 0.262685 0.332717
0.190196 0.279496 0.04948 3 0 3 192 192 192 255 0.262685 0.332717
0.091235 0.124541 -0.04948 -2.94204 -1.0065 -2.88408 192 192 192 255 0.262685 0.332717
0.091235 0.124541 0.04948 -2.88407 -1.00652 2.94204 192 192 192 255 0.262685 0.332717
0.091235 0.279496 0.04948 -3 0 3 192 192 192 255 0.262685 0.332717
0.091235 0.279496 -0.04948 -3 0 -3 192 192 192 255 0.262685 0.332717
0.208321 0.501634 0.067608 2 -3 1 192 192 192 255 0.384341 0.086146
0.208321 0.501634 -0.067608 1 -3 -2 192 192 192 255 0.384341 0.086146
0.208321 0.539928 0.067608 1 3 2 192 192 192 255 0.384341 0.086146
0.208321 0.539928 -0.067608 2 3 -1 192 192 192 255 0.419792 0.085437
0.073111 0.501634 -0.067608 -2 -3 -1 192 192 192 255 0.384341 0.086146
0.073111 0.501634 0.067608 -1 -3 2 192 192 192 255 0.384341 0.086146
0.073111 0.539928 0.067608 -2 3 1 192 192 192 255 0.384341 0.086146
0.073111 0.539928 -0.067608 -1 3 -2 192 192 192 255 0.384341 0.086146
0.073111 0.539928 0.067608 -2 3 1 192 192 192 255 0.45028 0.088273
0.208321 0.539928 0.067608 1 3 2 192 192 192 255 0.45028 0.088273
0.183776 0.539928 0.04306 0 4 0 192 192 192 255 0.45028 0.088273
0.097655 0.539928 0.04306 0 5 0 192 192 192 255 0.45028 0.088273
0.208321 0.539928 -0.067608 2 3 -1 192 192 192 255 0.45028 0.088273
0.183776 0.539928 -0.04306 0 5 0 192 192 192 255 0.45028 0.088273
0.073111 0.539928 -0.067608 -1 3 -2 192 192 192 255 0.45028 0.088273
0.097655 0.539928 -0.04306 0 4 0 192 192 192 255 0.45028 0.088273
0.170996 0.070632 0.030281 1.88407 -3.00652 0.942042 192 192 192 255 0.262685 0.332717
0.170996 0.070632 -0.030281 0.942036 -2.0065 -1.88408 192 192 192 255 0.262685 0.332717
0.110435 0.070632 -0.030281 -1.88407 -3.00652 -0.942042 192 192 192 255 0.262685 0.332717
0.110435 0.070632 0.030281 -0.942036 -2.0065 1.88408 192 192 192 255 0.262685 0.332717
0.091235 0.279496 0.04948 -3 0 3 192 192 192 255 0.419792 0.085437
0.190196 0.279496 0.04948 3 0 3 192 192 192 255 0.419792 0.085437
0.091235 0.279496 -0.04948 -3 0 -3 192 192 192 255 0.384341 0.086146
0.091235 0.279496 0.04948 -3 0 3 192 192 192 255 0.384341 0.086146
0.091235 0.501634 0.04948 -2 -3 1 192 192 192 255 0.384341 0.086146
0.091235 0.501634 -0.04948 -1 -3 -2 192 192 192 255 0.384341 0.086146
0.190196 0.279496 -0.04948 3 0 -3 192 192 192 255 0.419792 0.085437
0.091235 0.279496 -0.04948 -3 0 -3 192 192 192 255 0.419792 0.085437
0.190196 0.279496 0.04948 3 0 3 192 192 192 255 0.384341 0.086146
0.190196 0.279496 -0.04948 3 0 -3 192 192 192 255 0.384341 0.086146
0.190196 0.501634 -0.04948 2 -3 -1 192 192 192 255 0.384341 0.086146
0.190196 0.501634 0.04948 1 -3 2 192 192 192 255 0.384341 0.086146
0.587196 0.054307 0.039883 2 0 1 192 192 192 255 0.326967 0.479191
0.587196 0.054307 -0.039883 1 0 -2 192 192 192 255 0.326967 0.479191
0.587196 0.446809 -0.039883 2 0 -1 192 192 192 255 0.326967 0.479191
0.587196 0.446809 0.039883 1 0 2 192 192 192 255 0.326967 0.479191
0.507428 0.054307 -0.039883 -2 0 -1 192 192 192 255 0.332639 0.477064
0.507428 0.054307 0.039883 -1 0 2 192 192 192 255 0.332639 0.477064
0.507428 0.446809 0.039883 -2 0 1 192 192 192 255 0.332639 0.477064
0.507428 0.446809 -0.039883 -1 0 -2 192 192 192 255 0.332639 0.477064
-0.502828 0.054307 0.039883 2 0 1 192 192 192 255 0.33193 0.478482
-0.502828 0.054307 -0.039883 1 0 -2 192 192 192 255 0.33193 0.478482
-0.502828 0.446809 -0.039883 2 0 -1 192 192 192 255 0.33193 0.478482
-0.502828 0.446809 0.039883 1 0 2 192 192 192 255 0.33193 0.478482
-0.582596 0.054307 -0.039883 -2 0 -1 192 192 192 255 0.326967 0.479191
-0.582596 0.054307 0.039883 -1 0 2 192 192 192 255 0.326967 0.479191
-0.582596 0.446809 0.039883 -2 0 1 192 192 192 255 0.326967 0.479191
-0.582596 0.446809 -0.039883 -1 0 -2 192 192 192 255 0.326967 0.479191
-0.616303 0.501634 0.095634 -2 2 1 192 192 192 255 0.39007 0.474937
0.616303 0.501634 0.095634 1 1 2 192 192 192 255 0.39007 0.474937
-0.616303 0.501634 -0.095634 -1 1 -2 192 192 192 255 0.354619 0.479191
0.616303 0.501634 -0.095634 2 2 -1 192 192 192 255 0.354619 0.479191
-0.616303 0.446809 -0.095634 -2 -2 -1 192 192 192 255 0.326967 0.479191
0.616303 0.446809 -0.095634 1 -1 -2 192 192 192 255 0.326967 0.479191
0.616303 0.446809 0.095634 2 -2 1 192 192 192 255 0.326967 0.479191
-0.616303 0.446809 0.095634 -1 -1 2 192 192 192 255 0.326967 0.479191
0.616303 0.501634 -0.095634 2 2 -1 192 192 192 255 0.326967 0.479191
0.616303 0.501634 0.095634 1 1 2 192 192 192 255 0.326967 0.479191
-0.616303 0.501634 0.095634 -2 2 1 192 192 192 255 0.326967 0.479191
-0.616303 0.501634 -0.095634 -1 1 -2 192 192 192 255 0.326967 0.479191
-0.63369 0.054307 0.148808 -2 2 1 192 192 192 255 0.39007 0.474937
0.63369 0.054307 0.148808 1 1 2 192 192 192 255 0.39007 0.474937
-0.63369 0.054307 -0.148808 -1 1 -2 192 192 192 255 0.354619 0.479191
0.63369 0.054307 -0.148808 2 2 -1 192 192 192 255 0.354619 0.479191
-0.63369 0 -0.148808 -2 -2 -1 192 192 192 255 0.326967 0.479191
0.63369 0 -0.148808 1 -1 -2 192 192 192 255 0.326967 0.479191
0.63369 0 0.148808 2 -2 1 192 192 192 255 0.326967 0.479191
-0.63369 0 0.148808 -1 -1 2 192 192 192 255 0.326967 0.479191
0.63369 0.054307 -0.148808 2 2 -1 192 192 192 255 0.326967 0.479191
0.63369 0.054307 0.148808 1 1 2 192 192 192 255 0.326967 0.479191
-0.63369 0.054307 0.148808 -2 2 1 192 192 192 255 0.326967 0.479191
-0.63369 0.054307 -0.148808 -1 1 -2 192 192 192 255 0.326967 0.479191
3 0 1 27 
3 0 27 24 
3 16 17 18 
3 16 18 19 
3 25 26 7 
3 25 7 6 
3 20 21 22 
3 20 22 23 
3 136 137 138 
3 136 138 139 
3 140 141 142 
3 140 142 143 
3 2 3 9 
3 2 9 8 
3 3 5 10 
3 3 10 9 
3 5 4 11 
3 5 11 10 
3 4 2 8 
3 4 8 11 
3 8 9 13 
3 8 13 12 
3 144 145 14 
3 144 14 146 
3 10 11 15 
3 10 15 147 
3 148 149 150 
3 148 150 151 
3 152 153 154 
3 152 154 155 
3 153 156 157 
3 153 157 154 
3 156 158 159 
3 156 159 157 
3 158 152 155 
3 158 155 159 
3 6 7 21 
3 6 21 20 
3 137 136 160 
3 137 160 161 
3 1 0 23 
3 1 23 22 
3 141 140 162 
3 141 162 163 
3 164 165 166 
3 164 166 167 
3 4 5 168 
3 4 168 169 
3 170 171 172 
3 170 172 173 
3 174 175 3 
3 174 3 2 
3 28 29 31 
3 28 31 30 
3 44 45 46 
3 44 46 47 
3 32 33 35 
3 32 35 34 
3 48 49 50 
3 48 50 51 
3 176 177 178 
3 176 178 179 
3 180 181 182 
3 180 182 183 
3 30 31 37 
3 30 37 36 
3 31 33 38 
3 31 38 37 
3 33 32 39 
3 33 39 38 
3 32 30 36 
3 32 36 39 
3 36 37 41 
3 36 41 40 
3 184 185 42 
3 184 42 186 
3 38 39 43 
3 38 43 187 
3 188 189 190 
3 188 190 191 
3 192 193 194 
3 192 194 195 
3 193 196 197 
3 193 197 194 
3 196 198 199 
3 196 199 197 
3 198 192 195 
3 198 195 199 
3 34 35 49 
3 34 49 48 
3 177 176 200 
3 177 200 201 
3 29 28 51 
3 29 51 50 
3 181 180 202 
3 181 202 203 
3 52 53 55 
3 52 55 54 
3 68 69 70 
3 68 70 71 
3 56 57 59 
3 56 59 58 
3 72 73 74 
3 72 74 75 
3 204 205 206 
3 204 206 207 
3 208 209 210 
3 208 210 211 
3 54 55 61 
3 54 61 60 
3 55 57 62 
3 55 62 61 
3 57 56 63 
3 57 63 62 
3 56 54 60 
3 56 60 63 
3 60 61 65 
3 60 65 64 
3 212 213 66 
3 212 66 214 
3 62 63 67 
3 62 67 215 
3 216 217 218 
3 216 218 219 
3 220 221 222 
3 220 222 223 
3 221 224 225 
3 221 225 222 
3 224 226 227 
3 224 227 225 
3 226 220 223 
3 226 223 227 
3 58 59 73 
3 58 73 72 
3 205 204 228 
3 205 228 229 
3 53 52 75 
3 53 75 74 
3 209 208 230 
3 209 230 231 
3 76 77 100 
3 76 100 101 
3 92 93 94 
3 92 94 95 
3 102 103 83 
3 102 83 82 
3 96 97 98 
3 96 98 99 
3 232 233 234 
3 232 234 235 
3 236 237 238 
3 236 238 239 
3 78 79 85 
3 78 85 84 
3 79 81 86 
3 79 86 85 
3 81 80 87 
3 81 87 86 
3 80 78 84 
3 80 84 87 
3 84 85 89 
3 84 89 88 
3 240 241 90 
3 240 90 242 
3 86 87 91 
3 86 91 243 
3 244 245 246 
3 244 246 247 
3 248 249 250 
3 248 250 251 
3 249 252 253 
3 249 253 250 
3 252 254 255 
3 252 255 253 
3 254 248 251 
3 254 251 255 
3 82 83 97 
3 82 97 96 
3 233 232 256 
3 233 256 257 
3 77 76 99 
3 77 99 98 
3 237 236 258 
3 237 258 259 
3 260 261 79 
3 260 79 78 
3 262 263 264 
3 262 264 265 
3 80 81 266 
3 80 266 267 
3 268 269 270 
3 268 270 271 
3 104 105 107 
3 104 107 106 
3 108 109 111 
3 108 111 110 
3 272 273 274 
3 272 274 275 
3 276 277 278 
3 276 278 279 
3 112 113 115 
3 112 115 114 
3 116 117 119 
3 116 119 118 
3 280 281 282 
3 280 282 283 
3 284 285 286 
3 284 286 287 
3 120 121 123 
3 120 123 122 
3 288 289 125 
3 288 125 124 
3 290 291 127 
3 290 127 126 
3 292 293 294 
3 292 294 295 
3 294 293 296 
3 294 296 297 
3 292 295 298 
3 292 298 299 
3 128 129 131 
3 128 131 130 
3 300 301 133 
3 300 133 132 
3 302 303 135 
3 302 135 134 
3 304 305 306 
3 304 306 307 
3 306 305 308 
3 306 308 309 
3 304 307 310 
3 304 310 311 
