ply
format ascii 1.0
comment VCGLIB generated
comment TextureFile SpaceInteriors_Texture.png
element vertex 68
property float x
property float y
property float z
property float nx
property float ny
property float nz
property uchar red
property uchar green
property uchar blue
property uchar alpha
property float texture_u
property float texture_v
element face 44
property list uchar int vertex_indices
end_header
-0.239021 0 -0.062344 -2 -1 -2 192 192 192 255 0.23564 0.266359
-0.239021 0 0.062344 -1 -2 1 192 192 192 255 0.23564 0.266359
-0.239021 0.124688 -0.062344 -1 3.00581 -1 192 192 192 255 0.23564 0.266359
-0.239021 0.124688 0.062344 -2 3.00581 2 192 192 192 255 0.23564 0.266359
0.239021 0.124688 -0.062344 2 3.00159 -2 192 192 192 255 0.23564 0.266359
0.239021 0.124688 0.062344 1 3.00159 1 192 192 192 255 0.23564 0.266359
0.239021 0 -0.062344 1 -2 -1 192 192 192 255 0.23564 0.266359
0.239021 0 0.062344 2 -1 2 192 192 192 255 0.23564 0.266359
-0.217215 0.124688 -0.040537 -2 1.00581 -1 192 192 192 255 0.26381 0.258398
-0.217215 0.124688 0.040537 -1 2.00581 2 192 192 192 255 0.26381 0.258398
0.217215 0.124688 0.040537 2 1.00159 2 192 192 192 255 0.26381 0.258398
0.217215 0.124688 -0.040537 1 2.00159 -2 192 192 192 255 0.26381 0.258398
-0.217215 0.1577 -0.040537 -1 2 -2 192 192 192 255 0.988533 0.378022
-0.217215 0.1577 0.040537 -2 1 1 192 192 192 255 0.988533 0.378022
0.217215 0.1577 0.040537 1 2 1 192 192 192 255 0.921472 0.378821
0.217215 0.1577 -0.040537 2 1 -1 192 192 192 255 0.921472 0.378821
0.144291 0.1577 0.040537 0 2 4 192 192 192 255 0.988533 0.378022
0.144291 0.1577 -0.040537 0 4 -3 192 192 192 255 0.988533 0.378022
0.144291 0.124688 -0.040537 0 1.00159 -3 192 192 192 255 0.921472 0.378821
0.144291 0.124688 0.040537 0 2.00159 2 192 192 192 255 0.26381 0.258398
0.049068 0.1577 0.040537 0 4 3 192 192 192 255 0.988533 0.378022
0.049068 0.1577 -0.040537 0 2 -3 192 192 192 255 0.988533 0.378022
0.049068 0.124688 -0.040537 0 2.00581 -3 192 192 192 255 0.26381 0.258398
0.049068 0.124688 0.040537 0 1.00581 3 192 192 192 255 0.26381 0.258398
-0.239021 0 0.062344 -1 -2 1 192 192 192 255 0.202572 0.265746
-0.239021 0 -0.062344 -2 -1 -2 192 192 192 255 0.202572 0.265746
0.239021 0 -0.062344 1 -2 -1 192 192 192 255 0.202572 0.265746
0.239021 0 0.062344 2 -1 2 192 192 192 255 0.202572 0.265746
-0.239021 0.124688 0.062344 -2 3.00581 2 192 192 192 255 0.207471 0.267583
-0.239021 0 0.062344 -1 -2 1 192 192 192 255 0.207471 0.267583
0.239021 0 0.062344 2 -1 2 192 192 192 255 0.207471 0.267583
0.239021 0.124688 0.062344 1 3.00159 1 192 192 192 255 0.207471 0.267583
-0.239021 0 -0.062344 -2 -1 -2 192 192 192 255 0.207471 0.267583
-0.239021 0.124688 -0.062344 -1 3.00581 -1 192 192 192 255 0.207471 0.267583
0.239021 0.124688 -0.062344 2 3.00159 -2 192 192 192 255 0.207471 0.267583
0.239021 0 -0.062344 1 -2 -1 192 192 192 255 0.207471 0.267583
-0.239021 0.124688 -0.062344 -1 3.00581 -1 192 192 192 255 0.26381 0.258398
-0.239021 0.124688 0.062344 -2 3.00581 2 192 192 192 255 0.26381 0.258398
0.239021 0.124688 0.062344 1 3.00159 1 192 192 192 255 0.26381 0.258398
0.239021 0.124688 -0.062344 2 3.00159 -2 192 192 192 255 0.26381 0.258398
-0.217215 0.124688 -0.040537 -2 1.00581 -1 192 192 192 255 0.921472 0.378821
-0.217215 0.124688 0.040537 -1 2.00581 2 192 192 192 255 0.921472 0.378821
-0.217215 0.1577 0.040537 -2 1 1 192 192 192 255 0.921472 0.378821
-0.217215 0.1577 -0.040537 -1 2 -2 192 192 192 255 0.921472 0.378821
0.049068 0.124688 0.040537 0 1.00581 3 192 192 192 255 0.921472 0.378821
0.049068 0.1577 0.040537 0 4 3 192 192 192 255 0.921472 0.378821
0.217215 0.124688 0.040537 2 1.00159 2 192 192 192 255 0.921472 0.378821
0.217215 0.124688 -0.040537 1 2.00159 -2 192 192 192 255 0.921472 0.378821
0.049068 0.124688 -0.040537 0 2.00581 -3 192 192 192 255 0.921472 0.378821
0.049068 0.1577 -0.040537 0 2 -3 192 192 192 255 0.921472 0.378821
0.217215 0.1577 0.040537 1 2 1 192 192 192 255 0.988533 0.378022
0.217215 0.1577 -0.040537 2 1 -1 192 192 192 255 0.988533 0.378022
0.144291 0.1577 -0.040537 0 4 -3 192 192 192 255 0.921472 0.378821
0.144291 0.124688 -0.040537 0 1.00159 -3 192 192 192 255 0.26381 0.258398
0.144291 0.1577 0.040537 0 2 4 192 192 192 255 0.921472 0.378821
0.144291 0.124688 0.040537 0 2.00159 2 192 192 192 255 0.921472 0.378821
0.144291 0.1577 -0.040537 0 4 -3 192 192 192 255 0.271005 0.443585
0.049068 0.1577 -0.040537 0 2 -3 192 192 192 255 0.271005 0.443585
0.049068 0.1577 0.040537 0 4 3 192 192 192 255 0.271005 0.443585
0.144291 0.1577 0.040537 0 2 4 192 192 192 255 0.271005 0.443585
0.144291 0.124688 -0.040537 0 1.00159 -3 192 192 192 255 0.240668 0.443585
0.049068 0.124688 -0.040537 0 2.00581 -3 192 192 192 255 0.240668 0.443585
0.049068 0.1577 -0.040537 0 2 -3 192 192 192 255 0.240668 0.443585
0.144291 0.1577 -0.040537 0 4 -3 192 192 192 255 0.240668 0.443585
0.144291 0.1577 0.040537 0 2 4 192 192 192 255 0.240668 0.443585
0.049068 0.1577 0.040537 0 4 3 192 192 192 255 0.240668 0.443585
0.049068 0.124688 0.040537 0 1.00581 3 192 192 192 255 0.240668 0.443585
0.144291 0.124688 0.040537 0 2.00159 2 192 192 192 255 0.240668 0.443585
3 0 1 3 
3 0 3 2 
3 12 13 20 
3 12 20 21 
3 4 5 7 
3 4 7 6 
3 24 25 26 
3 24 26 27 
3 28 29 30 
3 28 30 31 
3 32 33 34 
3 32 34 35 
3 36 37 9 
3 36 9 8 
3 37 23 9 
3 38 39 11 
3 38 11 10 
3 36 8 22 
3 40 41 42 
3 40 42 43 
3 41 44 45 
3 41 45 42 
3 46 47 15 
3 46 15 14 
3 48 40 43 
3 48 43 49 
3 17 16 50 
3 17 50 51 
3 47 18 52 
3 47 52 15 
3 39 53 11 
3 19 38 10 
3 54 55 46 
3 54 46 14 
3 56 57 58 
3 56 58 59 
3 60 61 62 
3 60 62 63 
3 39 36 22 
3 39 22 53 
3 19 23 37 
3 19 37 38 
3 64 65 66 
3 64 66 67 
