ply
format ascii 1.0
comment VCGLIB generated
comment TextureFile SpaceInteriors_Texture.png
element vertex 104
property float x
property float y
property float z
property float nx
property float ny
property float nz
property uchar red
property uchar green
property uchar blue
property uchar alpha
property float texture_u
property float texture_v
element face 70
property list uchar int vertex_indices
end_header
-0.218826 0 0.260568 -1 -1 2 192 192 192 255 0.168265 0.483111
0.218826 0 0.260568 2 -2 1 192 192 192 255 0.168265 0.483111
-0.218826 0.201656 0.260568 -2 2 1 192 192 192 255 0.168265 0.483111
0.218826 0.201656 0.260568 1 1 2 192 192 192 255 0.168265 0.483111
-0.218826 0.201656 -0.655167 -1 1 -2 192 192 192 255 0.231953 0.483111
0.218826 0.201656 -0.655167 2 2 -1 192 192 192 255 0.231953 0.483111
-0.218826 0 -0.655167 -2 -2 -1 192 192 192 255 0.266859 0.482499
0.218826 0 -0.655167 1 -1 -2 192 192 192 255 0.266859 0.482499
-0.077667 0.308729 -0.004441 -2 -1 -2 192 192 192 255 0.231953 0.483111
0.077606 0.308729 -0.004441 4 -2 -1 192 192 192 255 0.231953 0.483111
-0.077667 0.392881 0.166199 -4 2 2 192 192 192 255 0.231953 0.483111
0.077606 0.392881 0.166199 2 1 4 192 192 192 255 0.231953 0.483111
-0.077667 0.392881 -0.534586 -3 1 -1 192 192 192 255 0.231953 0.483111
0.077606 0.392881 -0.534586 4 2 -2 192 192 192 255 0.231953 0.483111
-0.077667 0.308729 -0.363945 -3 -2 1 192 192 192 255 0.231953 0.483111
0.077606 0.308729 -0.363945 2 -1 2 192 192 192 255 0.231953 0.483111
-0.077667 0.19751 -0.004441 -2 -2 -1 192 192 192 255 0.231953 0.483111
0.077606 0.19751 -0.004441 1 -1 -2 192 192 192 255 0.231953 0.483111
0.077606 0.19751 0.166199 2 -2 2 192 192 192 255 0.231953 0.483111
-0.077667 0.19751 0.166199 -1 -1 4 192 192 192 255 0.231953 0.483111
-0.077667 0.19751 -0.363945 -2 -1 2 192 192 192 255 0.231953 0.483111
0.077606 0.19751 -0.363945 2 -2 1 192 192 192 255 0.196434 0.484336
-0.077667 0.19751 -0.534586 -1 -2 -2 192 192 192 255 0.231953 0.483111
0.077606 0.19751 -0.534586 1 -1 -1 192 192 192 255 0.196434 0.484336
0.031921 0.334411 0.166199 2 2 2 192 192 192 255 0.168265 0.483111
-0.031982 0.334411 0.166199 -1 1 4 192 192 192 255 0.168265 0.483111
-0.031982 0.255981 0.166199 -2 -2 2 192 192 192 255 0.168265 0.483111
0.031921 0.255981 0.166199 1 -1 4 192 192 192 255 0.168265 0.483111
0.031921 0.334411 0.655167 3 1 2 192 192 192 255 0.140503 0.472773
-0.031982 0.334411 0.655167 -4 2 1 192 192 192 255 0.140503 0.472773
-0.031982 0.255981 0.578969 -2 -1 -2 192 192 192 255 0.104985 0.473997
0.031921 0.255981 0.578969 3 -2 -1 192 192 192 255 0.140503 0.472773
-0.031982 0.125974 0.578969 -3 2 -1 192 192 192 255 0.140503 0.472773
0.031921 0.125974 0.578969 4 1 -2 192 192 192 255 0.140503 0.472773
-0.031982 0.046723 0.655167 -3 -1 2 192 192 192 255 0.140503 0.472773
0.031921 0.046723 0.655167 2 -2 1 192 192 192 255 0.140503 0.472773
-0.031982 0.125974 0.260569 -2 1 0 192 192 192 255 0.140503 0.472773
0.031921 0.125974 0.260569 1 2 0 192 192 192 255 0.140503 0.472773
0.031921 0.046723 0.260569 2 -1 0 192 192 192 255 0.104985 0.473997
-0.031982 0.046723 0.260569 -1 -2 0 192 192 192 255 0.140503 0.472773
-0.218826 0.201656 0.260568 -2 2 1 192 192 192 255 0.231953 0.483111
0.218826 0.201656 0.260568 1 1 2 192 192 192 255 0.231953 0.483111
-0.218826 0.201656 -0.655167 -1 1 -2 192 192 192 255 0.266859 0.482499
0.218826 0.201656 -0.655167 2 2 -1 192 192 192 255 0.266859 0.482499
-0.218826 0 -0.655167 -2 -2 -1 192 192 192 255 0.170714 0.479437
0.218826 0 -0.655167 1 -1 -2 192 192 192 255 0.170714 0.479437
0.218826 0 0.260568 2 -2 1 192 192 192 255 0.170714 0.479437
-0.218826 0 0.260568 -1 -1 2 192 192 192 255 0.170714 0.479437
0.218826 0 0.260568 2 -2 1 192 192 192 255 0.196434 0.484336
0.218826 0 -0.655167 1 -1 -2 192 192 192 255 0.196434 0.484336
0.218826 0.201656 -0.655167 2 2 -1 192 192 192 255 0.196434 0.484336
0.218826 0.201656 0.260568 1 1 2 192 192 192 255 0.196434 0.484336
-0.218826 0 -0.655167 -2 -2 -1 192 192 192 255 0.196434 0.484336
-0.218826 0 0.260568 -1 -1 2 192 192 192 255 0.196434 0.484336
-0.218826 0.201656 0.260568 -2 2 1 192 192 192 255 0.196434 0.484336
-0.218826 0.201656 -0.655167 -1 1 -2 192 192 192 255 0.196434 0.484336
0.077606 0.308729 -0.004441 4 -2 -1 192 192 192 255 0.196434 0.484336
0.077606 0.308729 -0.363945 2 -1 2 192 192 192 255 0.196434 0.484336
0.077606 0.392881 -0.534586 4 2 -2 192 192 192 255 0.196434 0.484336
0.077606 0.392881 0.166199 2 1 4 192 192 192 255 0.196434 0.484336
-0.077667 0.308729 -0.363945 -3 -2 1 192 192 192 255 0.196434 0.484336
-0.077667 0.308729 -0.004441 -2 -1 -2 192 192 192 255 0.196434 0.484336
-0.077667 0.392881 0.166199 -4 2 2 192 192 192 255 0.196434 0.484336
-0.077667 0.392881 -0.534586 -3 1 -1 192 192 192 255 0.196434 0.484336
-0.077667 0.19751 -0.004441 -2 -2 -1 192 192 192 255 0.196434 0.484336
-0.077667 0.19751 0.166199 -1 -1 4 192 192 192 255 0.196434 0.484336
0.077606 0.19751 -0.363945 2 -2 1 192 192 192 255 0.231953 0.483111
0.077606 0.19751 -0.534586 1 -1 -1 192 192 192 255 0.231953 0.483111
-0.077667 0.308729 -0.004441 -2 -1 -2 192 192 192 255 0.266859 0.482499
0.077606 0.308729 -0.004441 4 -2 -1 192 192 192 255 0.266859 0.482499
0.077606 0.19751 -0.004441 1 -1 -2 192 192 192 255 0.266859 0.482499
-0.077667 0.19751 -0.004441 -2 -2 -1 192 192 192 255 0.266859 0.482499
0.077606 0.19751 0.166199 2 -2 2 192 192 192 255 0.196434 0.484336
0.077606 0.19751 -0.004441 1 -1 -2 192 192 192 255 0.196434 0.484336
-0.077667 0.19751 -0.534586 -1 -2 -2 192 192 192 255 0.196434 0.484336
-0.077667 0.19751 -0.363945 -2 -1 2 192 192 192 255 0.196434 0.484336
0.077606 0.392881 -0.534586 4 2 -2 192 192 192 255 0.266859 0.482499
0.077606 0.19751 -0.534586 1 -1 -1 192 192 192 255 0.266859 0.482499
-0.077667 0.19751 -0.534586 -1 -2 -2 192 192 192 255 0.266859 0.482499
-0.077667 0.392881 -0.534586 -3 1 -1 192 192 192 255 0.266859 0.482499
0.077606 0.392881 0.166199 2 1 4 192 192 192 255 0.168265 0.483111
-0.077667 0.392881 0.166199 -4 2 2 192 192 192 255 0.168265 0.483111
-0.077667 0.19751 0.166199 -1 -1 4 192 192 192 255 0.168265 0.483111
0.077606 0.19751 0.166199 2 -2 2 192 192 192 255 0.168265 0.483111
0.031921 0.334411 0.166199 2 2 2 192 192 192 255 0.140503 0.472773
-0.031982 0.334411 0.166199 -1 1 4 192 192 192 255 0.140503 0.472773
-0.031982 0.334411 0.655167 -4 2 1 192 192 192 255 0.104985 0.473997
-0.031982 0.334411 0.166199 -1 1 4 192 192 192 255 0.104985 0.473997
-0.031982 0.255981 0.166199 -2 -2 2 192 192 192 255 0.104985 0.473997
-0.031982 0.255981 0.166199 -2 -2 2 192 192 192 255 0.140503 0.472773
0.031921 0.255981 0.166199 1 -1 4 192 192 192 255 0.140503 0.472773
-0.031982 0.255981 0.578969 -2 -1 -2 192 192 192 255 0.140503 0.472773
0.031921 0.255981 0.578969 3 -2 -1 192 192 192 255 0.104985 0.473997
0.031921 0.255981 0.166199 1 -1 4 192 192 192 255 0.104985 0.473997
0.031921 0.334411 0.166199 2 2 2 192 192 192 255 0.104985 0.473997
0.031921 0.334411 0.655167 3 1 2 192 192 192 255 0.104985 0.473997
-0.031982 0.125974 0.578969 -3 2 -1 192 192 192 255 0.104985 0.473997
-0.031982 0.046723 0.655167 -3 -1 2 192 192 192 255 0.104985 0.473997
0.031921 0.046723 0.655167 2 -2 1 192 192 192 255 0.104985 0.473997
0.031921 0.125974 0.578969 4 1 -2 192 192 192 255 0.104985 0.473997
0.031921 0.125974 0.260569 1 2 0 192 192 192 255 0.104985 0.473997
0.031921 0.046723 0.260569 2 -1 0 192 192 192 255 0.140503 0.472773
-0.031982 0.125974 0.260569 -2 1 0 192 192 192 255 0.104985 0.473997
-0.031982 0.046723 0.260569 -1 -2 0 192 192 192 255 0.104985 0.473997
3 0 1 3 
3 0 3 2 
3 40 41 5 
3 40 5 4 
3 42 43 7 
3 42 7 6 
3 44 45 46 
3 44 46 47 
3 48 49 50 
3 48 50 51 
3 52 53 54 
3 52 54 55 
3 10 11 13 
3 10 13 12 
3 14 15 9 
3 14 9 8 
3 56 57 58 
3 56 58 59 
3 60 61 62 
3 60 62 63 
3 16 17 18 
3 16 18 19 
3 62 61 64 
3 62 64 65 
3 58 57 21 
3 58 21 23 
3 66 20 22 
3 66 22 67 
3 68 69 70 
3 68 70 71 
3 72 73 56 
3 72 56 59 
3 15 14 20 
3 15 20 66 
3 63 74 75 
3 63 75 60 
3 76 77 78 
3 76 78 79 
3 80 81 25 
3 80 25 24 
3 25 81 82 
3 25 82 26 
3 82 83 27 
3 82 27 26 
3 27 83 80 
3 27 80 24 
3 84 85 29 
3 84 29 28 
3 86 87 88 
3 86 88 30 
3 89 90 31 
3 89 31 91 
3 92 93 94 
3 92 94 95 
3 91 31 33 
3 91 33 32 
3 28 29 34 
3 28 34 35 
3 86 30 96 
3 86 96 97 
3 95 98 99 
3 95 99 92 
3 32 33 37 
3 32 37 36 
3 99 98 38 
3 99 38 100 
3 35 34 39 
3 35 39 101 
3 97 96 102 
3 97 102 103 
