ply
format ascii 1.0
comment VCGLIB generated
comment TextureFile SpaceInteriors_Texture.png
element vertex 96
property float x
property float y
property float z
property float nx
property float ny
property float nz
property uchar red
property uchar green
property uchar blue
property uchar alpha
property float texture_u
property float texture_v
element face 76
property list uchar int vertex_indices
end_header
-0.751954 0.40585 0.751952 -1 -3 3 192 192 192 255 0.325461 0.480532
0.751952 0.40585 0.751952 2 -3 6.05956 192 192 192 255 0.325461 0.480532
-0.751954 3.42906 0.751952 -2 3 5 192 192 192 255 0.325461 0.480532
0.751952 3.42906 0.751952 1 3 5 192 192 192 255 0.325461 0.480532
-0.751954 3.42906 -0.751952 -1 3 -2 192 192 192 255 0.355224 0.478355
0.751952 3.42906 -0.751952 2 3 -1 192 192 192 255 0.355224 0.478355
-0.751954 0.40585 -0.751952 -2 -3 -1 192 192 192 255 0.355224 0.478355
0.751952 0.40585 -0.751952 1 -3 -2 192 192 192 255 0.355224 0.478355
-0.621543 0.40585 -0.621543 -1 -3 -2 192 192 192 255 0.355224 0.478355
0.621541 0.40585 -0.621543 2 -3 -1 192 192 192 255 0.355224 0.478355
0.621541 0.40585 0.621543 1 -3 2 192 192 192 255 0.355224 0.478355
-0.621543 0.40585 0.621543 -2 -3 1 192 192 192 255 0.355224 0.478355
-0.621543 0 -0.621543 -2 -2 -1 192 192 192 255 0.106332 0.481206
0.621541 0 -0.621543 1 -1 -2 192 192 192 255 0.106332 0.481206
0.621541 0 0.621543 2 -2 1 192 192 192 255 0.106332 0.481206
-0.621543 0 0.621543 -1 -1 2 192 192 192 255 0.106332 0.481206
-0.657035 0.562841 0.751952 0 0 5 192 192 192 255 0.502286 0.010729
0.657039 0.562841 0.751952 0 0 3.05956 192 192 192 255 0.685675 0.010729
0.657039 1.19035 0.751952 0 0 5.05956 192 192 192 255 0.685675 0.079146
-0.657035 1.19035 0.751952 0 0 5 192 192 192 255 0.502286 0.079146
-0.545678 3.24473 0.751952 0 0 4 192 192 192 255 0.333036 0.481933
0.545676 3.24473 0.751952 0 0 8 192 192 192 255 0.333036 0.481933
-0.545678 1.37469 0.751952 0 0 5 192 192 192 255 0.333036 0.481933
0.545676 1.37469 0.751952 0 0 6 192 192 192 255 0.333036 0.481933
-0.567097 3.42906 0.247618 -1 3 2 192 192 192 255 0.387891 0.478355
0.567099 3.42906 0.247618 2 3 1 192 192 192 255 0.387891 0.478355
0.567099 3.42906 -0.247624 1 3 -2 192 192 192 255 0.387891 0.478355
-0.567097 3.42906 -0.247624 -2 3 -1 192 192 192 255 0.387891 0.478355
-0.567097 3.84438 0.247618 -2 2 1 192 192 192 255 0.333173 0.265206
0.567099 3.84438 0.247618 1 1 2 192 192 192 255 0.333173 0.265206
0.567099 3.84438 -0.247624 2 2 -1 192 192 192 255 0.333173 0.265206
-0.567097 3.84438 -0.247624 -1 1 -2 192 192 192 255 0.333173 0.265206
0.686175 1.86152 0.751952 0 0 5 192 192 192 255 0.355224 0.478355
0.686175 1.5911 0.751952 0 0 6 192 192 192 255 0.355224 0.478355
0.59514 1.86152 0.751952 0 0 4 192 192 192 255 0.980461 0.392608
0.59514 1.5911 0.751952 0 0 4 192 192 192 255 0.355224 0.478355
0.59514 1.76482 0.751952 0 0 5 192 192 192 255 0.980461 0.392608
0.686175 1.76482 0.751952 0 0 5 192 192 192 255 0.355224 0.478355
0.59514 1.69146 0.751952 0 0 6 192 192 192 255 0.355224 0.478355
0.686175 1.69146 0.751952 0 0 4 192 192 192 255 0.355224 0.478355
0.751952 0.40585 -0.751952 1 -3 -2 192 192 192 255 0.325461 0.480532
0.751952 3.42906 -0.751952 2 3 -1 192 192 192 255 0.325461 0.480532
-0.751954 0.40585 -0.751952 -2 -3 -1 192 192 192 255 0.325461 0.480532
-0.751954 3.42906 -0.751952 -1 3 -2 192 192 192 255 0.325461 0.480532
0.751952 0.40585 0.751952 2 -3 6.05956 192 192 192 255 0.355224 0.478355
-0.751954 0.40585 0.751952 -1 -3 3 192 192 192 255 0.355224 0.478355
-0.621543 0.40585 -0.621543 -1 -3 -2 192 192 192 255 0.106332 0.481206
0.621541 0.40585 -0.621543 2 -3 -1 192 192 192 255 0.106332 0.481206
0.621541 0.40585 -0.621543 2 -3 -1 192 192 192 255 0.076568 0.483383
0.621541 0.40585 0.621543 1 -3 2 192 192 192 255 0.076568 0.483383
0.621541 0 0.621543 2 -2 1 192 192 192 255 0.076568 0.483383
0.621541 0 -0.621543 1 -1 -2 192 192 192 255 0.076568 0.483383
0.621541 0.40585 0.621543 1 -3 2 192 192 192 255 0.106332 0.481206
-0.621543 0.40585 0.621543 -2 -3 1 192 192 192 255 0.106332 0.481206
-0.621543 0.40585 0.621543 -2 -3 1 192 192 192 255 0.076568 0.483383
-0.621543 0.40585 -0.621543 -1 -3 -2 192 192 192 255 0.076568 0.483383
-0.621543 0 -0.621543 -2 -2 -1 192 192 192 255 0.076568 0.483383
-0.621543 0 0.621543 -1 -1 2 192 192 192 255 0.076568 0.483383
0.657039 0.562841 0.751952 0 0 3.05956 192 192 192 255 0.355224 0.478355
-0.657035 0.562841 0.751952 0 0 5 192 192 192 255 0.355224 0.478355
0.751952 3.42906 0.751952 1 3 5 192 192 192 255 0.355224 0.478355
0.657039 1.19035 0.751952 0 0 5.05956 192 192 192 255 0.355224 0.478355
-0.751954 3.42906 0.751952 -2 3 5 192 192 192 255 0.355224 0.478355
-0.657035 1.19035 0.751952 0 0 5 192 192 192 255 0.355224 0.478355
-0.545678 3.24473 0.751952 0 0 4 192 192 192 255 0.355224 0.478355
0.545676 3.24473 0.751952 0 0 8 192 192 192 255 0.355224 0.478355
-0.545678 1.37469 0.751952 0 0 5 192 192 192 255 0.355224 0.478355
0.545676 1.37469 0.751952 0 0 6 192 192 192 255 0.355224 0.478355
0.686175 1.76482 0.751952 0 0 5 192 192 192 255 0.980461 0.392608
0.686175 1.86152 0.751952 0 0 5 192 192 192 255 0.980461 0.392608
-0.751954 3.42906 0.751952 -2 3 5 192 192 192 255 0.387891 0.478355
0.751952 3.42906 0.751952 1 3 5 192 192 192 255 0.387891 0.478355
0.751952 3.42906 -0.751952 2 3 -1 192 192 192 255 0.387891 0.478355
-0.751954 3.42906 -0.751952 -1 3 -2 192 192 192 255 0.387891 0.478355
-0.567097 3.42906 0.247618 -1 3 2 192 192 192 255 0.300506 0.265206
0.567099 3.42906 0.247618 2 3 1 192 192 192 255 0.300506 0.265206
0.567099 3.84438 0.247618 1 1 2 192 192 192 255 0.300506 0.265206
-0.567097 3.84438 0.247618 -2 2 1 192 192 192 255 0.300506 0.265206
0.567099 3.42906 0.247618 2 3 1 192 192 192 255 0.270742 0.267384
0.567099 3.42906 -0.247624 1 3 -2 192 192 192 255 0.270742 0.267384
0.567099 3.84438 -0.247624 2 2 -1 192 192 192 255 0.270742 0.267384
0.567099 3.84438 0.247618 1 1 2 192 192 192 255 0.270742 0.267384
0.567099 3.42906 -0.247624 1 3 -2 192 192 192 255 0.300506 0.265206
-0.567097 3.42906 -0.247624 -2 3 -1 192 192 192 255 0.300506 0.265206
-0.567097 3.84438 -0.247624 -1 1 -2 192 192 192 255 0.300506 0.265206
0.567099 3.84438 -0.247624 2 2 -1 192 192 192 255 0.300506 0.265206
-0.567097 3.42906 -0.247624 -2 3 -1 192 192 192 255 0.270742 0.267384
-0.567097 3.42906 0.247618 -1 3 2 192 192 192 255 0.270742 0.267384
-0.567097 3.84438 0.247618 -2 2 1 192 192 192 255 0.270742 0.267384
-0.567097 3.84438 -0.247624 -1 1 -2 192 192 192 255 0.270742 0.267384
0.59514 1.86152 0.751952 0 0 4 192 192 192 255 0.355224 0.478355
0.59514 1.76482 0.751952 0 0 5 192 192 192 255 0.355224 0.478355
0.686175 1.5911 0.751952 0 0 6 192 192 192 255 0.954695 0.379725
0.686175 1.69146 0.751952 0 0 4 192 192 192 255 0.954695 0.379725
0.59514 1.69146 0.751952 0 0 6 192 192 192 255 0.954695 0.379725
0.59514 1.5911 0.751952 0 0 4 192 192 192 255 0.954695 0.379725
3 16 17 18 
3 16 18 19 
3 28 29 30 
3 28 30 31 
3 4 5 7 
3 4 7 6 
3 12 13 14 
3 12 14 15 
3 1 40 41 
3 1 41 3 
3 42 0 2 
3 42 2 43 
3 6 7 9 
3 6 9 8 
3 7 44 10 
3 7 10 9 
3 44 45 11 
3 44 11 10 
3 45 6 8 
3 45 8 11 
3 46 47 13 
3 46 13 12 
3 48 49 50 
3 48 50 51 
3 52 53 15 
3 52 15 14 
3 54 55 56 
3 54 56 57 
3 45 44 58 
3 45 58 59 
3 44 60 32 
3 44 32 37 
3 44 37 39 
3 44 39 33 
3 44 33 61 
3 21 20 22 
3 21 22 23 
3 62 45 59 
3 62 59 63 
3 60 62 64 
3 60 64 65 
3 62 63 66 
3 62 66 64 
3 63 61 67 
3 63 67 66 
3 36 68 69 
3 36 69 34 
3 70 71 25 
3 70 25 24 
3 71 72 26 
3 71 26 25 
3 72 73 27 
3 72 27 26 
3 73 70 24 
3 73 24 27 
3 74 75 76 
3 74 76 77 
3 78 79 80 
3 78 80 81 
3 82 83 84 
3 82 84 85 
3 86 87 88 
3 86 88 89 
3 60 65 90 
3 60 90 32 
3 65 67 35 
3 65 35 38 
3 65 38 91 
3 65 91 90 
3 67 61 33 
3 67 33 35 
3 61 58 44 
3 38 39 37 
3 38 37 91 
3 92 93 94 
3 92 94 95 
