ply
format ascii 1.0
comment VCGLIB generated
comment TextureFile SpaceInteriors_Texture.png
element vertex 198
property float x
property float y
property float z
property float nx
property float ny
property float nz
property uchar red
property uchar green
property uchar blue
property uchar alpha
property float texture_u
property float texture_v
element face 168
property list uchar int vertex_indices
end_header
0.903502 1.19474 0.962345 -1 -2 6 192 192 192 255 0.273798 0.44056
0.903502 1.47246 0.962345 0 0 7 192 192 192 255 0.331483 0.44056
0.903502 1.47246 -0.962303 0 0 -3 192 192 192 255 0.331483 0.44056
0.903502 1.19474 -0.962303 -2 -1 -5 192 192 192 255 0.331483 0.44056
0.903502 0 -0.962303 -1 -2 -1 192 192 192 255 0.273798 0.44056
0.903502 0 0.962345 -2 -1 3 192 192 192 255 0.273798 0.44056
1.56813 1.47246 0.962345 2 0 3 192 192 192 255 0.331483 0.44056
1.56813 1.47246 -0.962303 1 0 -1 192 192 192 255 0.331483 0.44056
1.56813 1.19474 -0.962303 3 0 -3 192 192 192 255 0.331483 0.44056
1.56813 0 -0.962303 2 -1 -2 192 192 192 255 0.273798 0.44056
1.56813 0 0.962345 1 -2 3 192 192 192 255 0.273798 0.44056
1.56813 1.19474 0.962345 3 0 3 192 192 192 255 0.331483 0.44056
0.903502 0.943517 0.962345 -3 0 6 192 192 192 255 0.299827 0.44056
0.903502 0.943517 -0.962303 -3 0 -3 192 192 192 255 0.299827 0.44056
1.56813 0.943517 -0.962303 3 0 -3 192 192 192 255 0.331483 0.44056
1.56813 0.943517 0.962345 3 0 6 192 192 192 255 0.331483 0.44056
0.764051 1.23147 0.962345 0 0 6 192 192 192 255 0.331483 0.44056
0.764051 1.43572 0.962345 0 0 5 192 192 192 255 0.331483 0.44056
0 1.47246 0.962345 4.78967e-006 9.09159e-006 2 192 192 192 255 0.331483 0.44056
0 1.47246 -0.962303 0 0 -4 192 192 192 255 0.331483 0.44056
0 1.19474 -0.962303 0 -4 -2 192 192 192 255 0.331483 0.44056
0 1.19474 0.962345 4.78967e-006 -2.00001 2 192 192 192 255 0.273798 0.44056
0 1.23147 0.962345 1.83797e-005 -5.4386e-005 6 192 192 192 255 0.331483 0.44056
0 1.43572 0.962345 2.71801e-005 0.000144553 8 192 192 192 255 0.331483 0.44056
1.52795 1.17541 0.962345 0 0 7 192 192 192 255 0.386353 0.437043
0.943682 1.17541 0.962345 0 0 8 192 192 192 255 0.386353 0.437043
1.52795 0.996421 0.962345 0 0 5 192 192 192 255 0.386353 0.437043
0.943682 0.996421 0.962345 0 0 4 192 192 192 255 0.386353 0.437043
1.52795 1.41955 0.962345 0 0 6 192 192 192 255 0.331483 0.44056
0.943682 1.41955 0.962345 0 0 6 192 192 192 255 0.331483 0.44056
1.51828 0.898715 0.962345 0 0 6 192 192 192 255 0.331483 0.44056
0.953348 0.898715 0.962345 0 0 6 192 192 192 255 0.331483 0.44056
1.51828 0.044802 0.962345 0 0 6 192 192 192 255 0.331483 0.44056
0.953348 0.044802 0.962345 0 0 6 192 192 192 255 0.331483 0.44056
1.36591 1.25679 0.962345 0 0 4 192 192 192 255 0.14225 0.478357
1.36591 1.33817 0.962345 0 0 5 192 192 192 255 0.14225 0.478357
1.10572 1.25679 0.962345 0 0 5 192 192 192 255 0.14225 0.478357
1.10572 1.33817 0.962345 0 0 4 192 192 192 255 0.14225 0.478357
1.36161 0.815048 0.962345 0 0 4 192 192 192 255 0.14225 0.478357
1.11002 0.815048 0.962345 0 0 5 192 192 192 255 0.14225 0.478357
1.36161 0.735276 0.962345 0 0 5 192 192 192 255 0.14225 0.478357
1.11002 0.735276 0.962345 0 0 4 192 192 192 255 0.14225 0.478357
0.143528 1.30689 0.962345 0 0 5 192 192 192 255 0.145767 0.481171
0 1.30689 0.962345 4.54246e-005 -7.24045e-005 6 192 192 192 255 0.145767 0.481171
0 1.39251 0.962345 6.44482e-005 6.3185e-005 6 192 192 192 255 0.145767 0.481171
0.143528 1.39251 0.962345 0 0 4 192 192 192 255 0.145767 0.481171
-0.903502 1.19474 0.962349 1.00001 -2.00002 6 192 192 192 255 0.273798 0.44056
-0.903502 1.47246 0.962349 9.57933e-006 1.81832e-005 7 192 192 192 255 0.331483 0.44056
-0.903502 1.47246 -0.962303 0 0 -3 192 192 192 255 0.331483 0.44056
-0.903502 1.19474 -0.962303 2 -1 -5 192 192 192 255 0.331483 0.44056
-0.903502 0 -0.962303 1 -2 -1 192 192 192 255 0.273798 0.44056
-0.903502 0 0.962349 2 -1 3 192 192 192 255 0.273798 0.44056
-1.56813 1.47246 0.962349 -1 0 3 192 192 192 255 0.331483 0.44056
-1.56813 1.47246 -0.962303 -2 0 -1 192 192 192 255 0.331483 0.44056
-1.56813 1.19474 -0.962303 -3 0 -3 192 192 192 255 0.331483 0.44056
-1.56813 0 -0.962303 -1 -1 -2 192 192 192 255 0.273798 0.44056
-1.56813 0 0.962349 -2 -2 3 192 192 192 255 0.273798 0.44056
-1.56813 1.19474 0.962349 -3 0 3 192 192 192 255 0.331483 0.44056
-0.903502 0.943517 0.962349 3 0 6 192 192 192 255 0.299827 0.44056
-0.903502 0.943517 -0.962303 3 0 -3 192 192 192 255 0.299827 0.44056
-1.56813 0.943517 -0.962303 -3 0 -3 192 192 192 255 0.331483 0.44056
-1.56813 0.943517 0.962349 -3 0 6 192 192 192 255 0.331483 0.44056
-0.764051 1.23147 0.962349 2.23904e-005 -8.14964e-005 6 192 192 192 255 0.331483 0.44056
-0.764051 1.43572 0.962349 1.359e-005 7.22766e-005 5 192 192 192 255 0.331483 0.44056
-1.52795 1.17541 0.962349 0 0 7 192 192 192 255 0.386353 0.437043
-0.943682 1.17541 0.962349 0 0 8 192 192 192 255 0.386353 0.437043
-1.52795 0.996421 0.962349 0 0 5 192 192 192 255 0.386353 0.437043
-0.943682 0.996421 0.962349 0 0 4 192 192 192 255 0.386353 0.437043
-1.52795 1.41955 0.962349 0 0 6 192 192 192 255 0.331483 0.44056
-0.943682 1.41955 0.962349 0 0 6 192 192 192 255 0.331483 0.44056
-1.51828 0.898715 0.962349 0 0 6 192 192 192 255 0.331483 0.44056
-0.953348 0.898715 0.962349 0 0 6 192 192 192 255 0.331483 0.44056
-1.51828 0.044802 0.962349 0 0 6 192 192 192 255 0.331483 0.44056
-0.953348 0.044802 0.962349 0 0 6 192 192 192 255 0.331483 0.44056
-1.36591 1.25679 0.962349 0 0 4 192 192 192 255 0.14225 0.478357
-1.36591 1.33817 0.962349 0 0 5 192 192 192 255 0.14225 0.478357
-1.10572 1.25679 0.962349 0 0 5 192 192 192 255 0.14225 0.478357
-1.10572 1.33817 0.962349 0 0 4 192 192 192 255 0.14225 0.478357
-1.36161 0.815048 0.962349 0 0 4 192 192 192 255 0.14225 0.478357
-1.11002 0.815048 0.962349 0 0 5 192 192 192 255 0.14225 0.478357
-1.36161 0.735276 0.962349 0 0 5 192 192 192 255 0.14225 0.478357
-1.11002 0.735276 0.962349 0 0 4 192 192 192 255 0.14225 0.478357
-0.143528 1.30689 0.962349 6.44482e-005 -3.62022e-005 5 192 192 192 255 0.145767 0.481171
-0.143528 1.39251 0.962349 4.54246e-005 0.00012637 4 192 192 192 255 0.145767 0.481171
-1.67336 1.47246 1.04733 -1 -1 2 192 192 192 255 0.324962 0.085185
1.67336 1.47246 1.04733 2 -2 1 192 192 192 255 0.324962 0.085185
-1.67336 1.55162 1.04733 -2 2 1 192 192 192 255 0.324962 0.085185
1.67336 1.55162 1.04733 1 1 2 192 192 192 255 0.324962 0.085185
-1.67336 1.55162 -1.04733 -1 1 -2 192 192 192 255 0.356618 0.085185
1.67336 1.55162 -1.04733 2 2 -1 192 192 192 255 0.356618 0.085185
-1.67336 1.47246 -1.04733 -2 -2 -1 192 192 192 255 0.324962 0.085185
1.67336 1.47246 -1.04733 1 -1 -2 192 192 192 255 0.324962 0.085185
0 1.19474 -0.962303 0 -4 -2 192 192 192 255 0.273798 0.44056
0.903502 1.19474 -0.962303 -2 -1 -5 192 192 192 255 0.273798 0.44056
0.903502 1.19474 -0.962303 -2 -1 -5 192 192 192 255 0.299827 0.44056
0.903502 1.19474 0.962345 -1 -2 6 192 192 192 255 0.299827 0.44056
0.903502 0.943517 -0.962303 -3 0 -3 192 192 192 255 0.331483 0.44056
0.903502 0 -0.962303 -1 -2 -1 192 192 192 255 0.299827 0.44056
0.903502 0 0.962345 -2 -1 3 192 192 192 255 0.299827 0.44056
1.56813 0 -0.962303 2 -1 -2 192 192 192 255 0.331483 0.44056
0.903502 0 -0.962303 -1 -2 -1 192 192 192 255 0.331483 0.44056
0.903502 1.19474 0.962345 -1 -2 6 192 192 192 255 0.331483 0.44056
0 1.19474 0.962345 4.78967e-006 -2.00001 2 192 192 192 255 0.331483 0.44056
1.52795 1.17541 0.962345 0 0 7 192 192 192 255 0.331483 0.44056
1.52795 0.996421 0.962345 0 0 5 192 192 192 255 0.331483 0.44056
0.943682 0.996421 0.962345 0 0 4 192 192 192 255 0.331483 0.44056
0.903502 0.943517 0.962345 -3 0 6 192 192 192 255 0.331483 0.44056
0.943682 1.17541 0.962345 0 0 8 192 192 192 255 0.331483 0.44056
1.56813 0 0.962345 1 -2 3 192 192 192 255 0.331483 0.44056
0.903502 0 0.962345 -2 -1 3 192 192 192 255 0.331483 0.44056
1.52795 1.41955 0.962345 0 0 6 192 192 192 255 0.386353 0.437043
1.36591 1.33817 0.962345 0 0 5 192 192 192 255 0.386353 0.437043
1.36591 1.25679 0.962345 0 0 4 192 192 192 255 0.386353 0.437043
1.10572 1.25679 0.962345 0 0 5 192 192 192 255 0.386353 0.437043
1.10572 1.33817 0.962345 0 0 4 192 192 192 255 0.386353 0.437043
0.943682 1.41955 0.962345 0 0 6 192 192 192 255 0.386353 0.437043
0.953348 0.898715 0.962345 0 0 6 192 192 192 255 0.386353 0.437043
1.11002 0.815048 0.962345 0 0 5 192 192 192 255 0.386353 0.437043
1.36161 0.815048 0.962345 0 0 4 192 192 192 255 0.386353 0.437043
1.51828 0.898715 0.962345 0 0 6 192 192 192 255 0.386353 0.437043
1.36161 0.735276 0.962345 0 0 5 192 192 192 255 0.386353 0.437043
1.51828 0.044802 0.962345 0 0 6 192 192 192 255 0.386353 0.437043
1.11002 0.735276 0.962345 0 0 4 192 192 192 255 0.386353 0.437043
0.953348 0.044802 0.962345 0 0 6 192 192 192 255 0.386353 0.437043
0.764051 1.23147 0.962345 0 0 6 192 192 192 255 0.38987 0.439857
0.143528 1.30689 0.962345 0 0 5 192 192 192 255 0.38987 0.439857
0 1.30689 0.962345 4.54246e-005 -7.24045e-005 6 192 192 192 255 0.38987 0.439857
0 1.23147 0.962345 1.83797e-005 -5.4386e-005 6 192 192 192 255 0.38987 0.439857
0 1.43572 0.962345 2.71801e-005 0.000144553 8 192 192 192 255 0.38987 0.439857
0 1.39251 0.962345 6.44482e-005 6.3185e-005 6 192 192 192 255 0.38987 0.439857
0.143528 1.39251 0.962345 0 0 4 192 192 192 255 0.38987 0.439857
0.764051 1.43572 0.962345 0 0 5 192 192 192 255 0.38987 0.439857
-0.903502 1.19474 -0.962303 2 -1 -5 192 192 192 255 0.273798 0.44056
-0.903502 1.19474 -0.962303 2 -1 -5 192 192 192 255 0.299827 0.44056
-0.903502 1.19474 0.962349 1.00001 -2.00002 6 192 192 192 255 0.299827 0.44056
-0.903502 0.943517 -0.962303 3 0 -3 192 192 192 255 0.331483 0.44056
-0.903502 0 0.962349 2 -1 3 192 192 192 255 0.299827 0.44056
-0.903502 0 -0.962303 1 -2 -1 192 192 192 255 0.299827 0.44056
-1.56813 0 -0.962303 -1 -1 -2 192 192 192 255 0.331483 0.44056
-0.903502 0 -0.962303 1 -2 -1 192 192 192 255 0.331483 0.44056
-0.903502 1.19474 0.962349 1.00001 -2.00002 6 192 192 192 255 0.331483 0.44056
-1.52795 0.996421 0.962349 0 0 5 192 192 192 255 0.331483 0.44056
-1.52795 1.17541 0.962349 0 0 7 192 192 192 255 0.331483 0.44056
-0.903502 0.943517 0.962349 3 0 6 192 192 192 255 0.331483 0.44056
-0.943682 0.996421 0.962349 0 0 4 192 192 192 255 0.331483 0.44056
-0.943682 1.17541 0.962349 0 0 8 192 192 192 255 0.331483 0.44056
-1.56813 0 0.962349 -2 -2 3 192 192 192 255 0.331483 0.44056
-0.903502 0 0.962349 2 -1 3 192 192 192 255 0.331483 0.44056
-1.52795 1.41955 0.962349 0 0 6 192 192 192 255 0.386353 0.437043
-1.36591 1.25679 0.962349 0 0 4 192 192 192 255 0.386353 0.437043
-1.36591 1.33817 0.962349 0 0 5 192 192 192 255 0.386353 0.437043
-1.10572 1.25679 0.962349 0 0 5 192 192 192 255 0.386353 0.437043
-0.943682 1.41955 0.962349 0 0 6 192 192 192 255 0.386353 0.437043
-1.10572 1.33817 0.962349 0 0 4 192 192 192 255 0.386353 0.437043
-0.953348 0.898715 0.962349 0 0 6 192 192 192 255 0.386353 0.437043
-1.51828 0.898715 0.962349 0 0 6 192 192 192 255 0.386353 0.437043
-1.36161 0.815048 0.962349 0 0 4 192 192 192 255 0.386353 0.437043
-1.11002 0.815048 0.962349 0 0 5 192 192 192 255 0.386353 0.437043
-1.51828 0.044802 0.962349 0 0 6 192 192 192 255 0.386353 0.437043
-1.36161 0.735276 0.962349 0 0 5 192 192 192 255 0.386353 0.437043
-0.953348 0.044802 0.962349 0 0 6 192 192 192 255 0.386353 0.437043
-1.11002 0.735276 0.962349 0 0 4 192 192 192 255 0.386353 0.437043
-0.764051 1.23147 0.962349 2.23904e-005 -8.14964e-005 6 192 192 192 255 0.38987 0.439857
-0.143528 1.30689 0.962349 6.44482e-005 -3.62022e-005 5 192 192 192 255 0.38987 0.439857
-0.764051 1.43572 0.962349 1.359e-005 7.22766e-005 5 192 192 192 255 0.38987 0.439857
-0.143528 1.39251 0.962349 4.54246e-005 0.00012637 4 192 192 192 255 0.38987 0.439857
-1.67336 1.55162 1.04733 -2 2 1 192 192 192 255 0.356618 0.085185
1.67336 1.55162 1.04733 1 1 2 192 192 192 255 0.356618 0.085185
-1.67336 1.55162 -1.04733 -1 1 -2 192 192 192 255 0.324962 0.085185
1.67336 1.55162 -1.04733 2 2 -1 192 192 192 255 0.324962 0.085185
-1.67336 1.47246 -1.04733 -2 -2 -1 192 192 192 255 0.267277 0.085185
1.67336 1.47246 -1.04733 1 -1 -2 192 192 192 255 0.267277 0.085185
1.67336 1.47246 1.04733 2 -2 1 192 192 192 255 0.267277 0.085185
-1.67336 1.47246 1.04733 -1 -1 2 192 192 192 255 0.267277 0.085185
1.67336 1.47246 1.04733 2 -2 1 192 192 192 255 0.293306 0.085185
1.67336 1.47246 -1.04733 1 -1 -2 192 192 192 255 0.293306 0.085185
1.67336 1.55162 -1.04733 2 2 -1 192 192 192 255 0.293306 0.085185
1.67336 1.55162 1.04733 1 1 2 192 192 192 255 0.293306 0.085185
-1.67336 1.47246 -1.04733 -2 -2 -1 192 192 192 255 0.293306 0.085185
-1.67336 1.47246 1.04733 -1 -1 2 192 192 192 255 0.293306 0.085185
-1.67336 1.55162 1.04733 -2 2 1 192 192 192 255 0.293306 0.085185
-1.67336 1.55162 -1.04733 -1 1 -2 192 192 192 255 0.293306 0.085185
-1.56813 1.47246 -0.962303 -2 0 -1 192 192 192 255 0.238729 0.439507
-1.56813 1.19474 -0.962303 -3 0 -3 192 192 192 255 0.238729 0.439507
-1.56813 1.19474 0.962349 -3 0 3 192 192 192 255 0.238729 0.439507
-1.56813 1.47246 0.962349 -1 0 3 192 192 192 255 0.238729 0.439507
-1.56813 0.943517 0.962349 -3 0 6 192 192 192 255 0.238729 0.439507
-1.56813 0.943517 -0.962303 -3 0 -3 192 192 192 255 0.238729 0.439507
-1.56813 0 -0.962303 -1 -1 -2 192 192 192 255 0.238729 0.439507
-1.56813 0 0.962349 -2 -2 3 192 192 192 255 0.238729 0.439507
1.56813 1.47246 0.962345 2 0 3 192 192 192 255 0.238729 0.439507
1.56813 1.19474 0.962345 3 0 3 192 192 192 255 0.238729 0.439507
1.56813 1.19474 -0.962303 3 0 -3 192 192 192 255 0.238729 0.439507
1.56813 1.47246 -0.962303 1 0 -1 192 192 192 255 0.238729 0.439507
1.56813 0.943517 0.962345 3 0 6 192 192 192 255 0.238729 0.439507
1.56813 0.943517 -0.962303 3 0 -3 192 192 192 255 0.238729 0.439507
1.56813 0 -0.962303 2 -1 -2 192 192 192 255 0.238729 0.439507
1.56813 0 0.962345 1 -2 3 192 192 192 255 0.238729 0.439507
3 42 45 44 
3 42 44 43 
3 3 20 19 
3 3 19 2 
3 0 21 92 
3 0 92 93 
3 94 13 12 
3 94 12 95 
3 8 3 2 
3 8 2 7 
3 14 96 3 
3 14 3 8 
3 10 5 4 
3 10 4 9 
3 25 27 26 
3 25 26 24 
3 35 37 36 
3 35 36 34 
3 13 97 98 
3 13 98 12 
3 99 100 96 
3 99 96 14 
3 39 41 40 
3 39 40 38 
3 101 16 22 
3 101 22 102 
3 23 17 1 
3 23 1 18 
3 1 17 16 
3 1 16 101 
3 11 103 104 
3 11 104 15 
3 15 104 105 
3 15 105 106 
3 106 105 107 
3 106 107 101 
3 6 28 103 
3 6 103 11 
3 101 107 29 
3 101 29 1 
3 1 29 28 
3 1 28 6 
3 106 31 30 
3 106 30 15 
3 15 30 32 
3 15 32 108 
3 108 32 33 
3 108 33 109 
3 109 33 31 
3 109 31 106 
3 110 111 112 
3 110 112 24 
3 24 112 113 
3 24 113 25 
3 25 113 114 
3 25 114 115 
3 115 114 111 
3 115 111 110 
3 116 117 118 
3 116 118 119 
3 119 118 120 
3 119 120 121 
3 121 120 122 
3 121 122 123 
3 123 122 117 
3 123 117 116 
3 124 125 126 
3 124 126 127 
3 128 129 130 
3 128 130 131 
3 131 130 125 
3 131 125 124 
3 82 43 44 
3 82 44 83 
3 49 48 19 
3 49 19 20 
3 46 132 92 
3 46 92 21 
3 133 134 58 
3 133 58 59 
3 54 53 48 
3 54 48 49 
3 60 54 49 
3 60 49 135 
3 56 55 50 
3 56 50 51 
3 65 64 66 
3 65 66 67 
3 75 74 76 
3 75 76 77 
3 59 58 136 
3 59 136 137 
3 138 60 135 
3 138 135 139 
3 79 78 80 
3 79 80 81 
3 140 102 22 
3 140 22 62 
3 23 18 47 
3 23 47 63 
3 47 140 62 
3 47 62 63 
3 57 61 141 
3 57 141 142 
3 61 143 144 
3 61 144 141 
3 143 140 145 
3 143 145 144 
3 52 57 142 
3 52 142 68 
3 140 47 69 
3 140 69 145 
3 47 52 68 
3 47 68 69 
3 143 61 70 
3 143 70 71 
3 61 146 72 
3 61 72 70 
3 146 147 73 
3 146 73 72 
3 147 143 71 
3 147 71 73 
3 148 64 149 
3 148 149 150 
3 64 65 151 
3 64 151 149 
3 65 152 153 
3 65 153 151 
3 152 148 150 
3 152 150 153 
3 154 155 156 
3 154 156 157 
3 155 158 159 
3 155 159 156 
3 158 160 161 
3 158 161 159 
3 160 154 157 
3 160 157 161 
3 162 127 126 
3 162 126 163 
3 128 164 165 
3 128 165 129 
3 164 162 163 
3 164 163 165 
3 84 85 87 
3 84 87 86 
3 166 167 89 
3 166 89 88 
3 168 169 91 
3 168 91 90 
3 170 171 172 
3 170 172 173 
3 174 175 176 
3 174 176 177 
3 178 179 180 
3 178 180 181 
3 182 183 184 
3 182 184 185 
3 186 184 183 
3 186 183 187 
3 187 188 189 
3 187 189 186 
3 190 191 192 
3 190 192 193 
3 191 194 195 
3 191 195 192 
3 196 195 194 
3 196 194 197 
