ply
format ascii 1.0
comment VCGLIB generated
comment TextureFile SpaceInteriors_Texture.png
element vertex 132
property float x
property float y
property float z
property float nx
property float ny
property float nz
property uchar red
property uchar green
property uchar blue
property uchar alpha
property float texture_u
property float texture_v
element face 106
property list uchar int vertex_indices
end_header
-0.770575 15.829 -1.06457 -1 -2.99998 1.00001 192 192 192 255 0.167607 0.061667
-0.770575 15.829 -1.68398 -2 -2.99996 -2.00003 192 192 192 255 0.167607 0.061667
-0.151155 15.829 -1.06457 2.00003 -3 2.00003 192 192 192 255 0.267492 0.061667
-0.151155 15.829 -1.68398 1.00006 -3 -1.00001 192 192 192 255 0.267492 0.061667
-0.151155 15.9299 -1.06457 1 0 1 192 192 192 255 0.267492 0.061667
-0.151155 15.9299 -1.68398 2 0 -2 192 192 192 255 0.267492 0.061667
-0.770573 15.9299 -1.06457 -2 3.89673e-005 2 192 192 192 255 0.167607 0.061667
-0.770573 15.9299 -1.68398 -1 1.94836e-005 -1 192 192 192 255 0.167607 0.061667
-0.637304 15.829 -1.19783 -2.02715 -2.98559 1.06104 192 192 192 255 0.232626 0.061667
-0.637304 15.829 -1.55071 -0.937373 -2.97198 -1.96816 192 192 192 255 0.232626 0.061667
-0.284424 15.829 -1.55071 2.02916 -3.05362 -1.06318 192 192 192 255 0.232626 0.061667
-0.284424 15.829 -1.19783 0.942116 -3.08034 1.96672 192 192 192 255 0.232626 0.061667
1.14109 0 1.76735 0.992652 -1.09638 2.07315 192 192 192 255 0.232626 0.061667
1.18075 0.444762 1.76735 1.98532 1.80724 1.14631 192 192 192 255 0.232626 0.061667
0.970665 0 1.76735 -2.97728 -1.7068 0.776978 192 192 192 255 0.232626 0.061667
1.01325 0.444763 1.76735 -2.9742 1.30557 1.75415 192 192 192 255 0.232626 0.061667
1.00212 0 1.32259 -2.97547 -0.689252 -2.22291 192 192 192 255 0.232626 0.061667
1.05193 0.444763 1.32259 -2.97231 2.32435 -1.24493 192 192 192 255 0.232626 0.061667
1.17034 0 1.32259 1.9853 -2.19276 -0.85369 192 192 192 255 0.232626 0.061667
1.21705 0.444762 1.32259 0.992658 0.903618 -1.92684 192 192 192 255 0.232626 0.061667
0.985834 0.090941 1.67641 -3.3678 -0.633623 1.73545 192 192 192 255 0.267492 0.061667
1.01197 0.353823 1.67641 -2.94932 2.32143 0.793807 192 192 192 255 0.267492 0.061667
1.03402 0.353823 1.41353 -2.61066 1.24964 -2.20907 192 192 192 255 0.267492 0.061667
1.00536 0.090941 1.41353 -3.04142 -1.70139 -1.26922 192 192 192 255 0.267492 0.061667
0.564381 0.131656 1.61846 -1.11058 -2.82318 2.7831 192 192 192 255 0.202829 0.22105
0.556791 0.390656 1.6044 -0.816106 3.11386 2.82457 192 192 192 255 0.202829 0.22105
0.65723 0.390805 1.35495 1.06102 2.8182 -2.79394 192 192 192 255 0.265046 0.22105
0.662796 0.131809 1.36901 0.769586 -3.11935 -2.8373 192 192 192 255 0.202829 0.22105
-0.204803 0.053408 1.27167 -1.38248 -2.72054 2.65957 192 192 192 255 0.202829 0.22105
-0.127277 0.312935 1.28134 -0.529525 2.98719 3.04079 192 192 192 255 0.202829 0.22105
-0.035618 0.311462 1.02782 1.33122 2.72801 -2.67716 192 192 192 255 0.265046 0.22105
-0.11504 0.051939 1.01816 0.448817 -2.96013 -3.06608 192 192 192 255 0.202829 0.22105
-0.837776 0.396396 1.0068 -3.45285 -2.40999 0.735513 192 192 192 255 0.202829 0.22105
-0.836643 0.655229 1.00068 -0.407656 2.41404 3.55763 192 192 192 255 0.202829 0.22105
-0.724241 0.6642 0.751865 3.46774 2.28956 -0.561317 192 192 192 255 0.265046 0.22105
-0.72753 0.405368 0.75798 0.496731 -2.61019 -3.3542 192 192 192 255 0.202829 0.22105
-1.21705 1.23884 -0.132236 -3.92687 -1.1118 -1.14974 192 192 192 255 0.202829 0.22105
-1.11729 1.48793 0.085501 -1.53422 1.86795 3.12908 192 192 192 255 0.202829 0.22105
-0.845997 1.48798 0.0452 4.05054 0.928699 1.33733 192 192 192 255 0.265046 0.22105
-0.947016 1.23808 -0.174194 1.61989 -1.99909 -2.94944 192 192 192 255 0.202829 0.22105
-0.756445 2.92291 -0.982195 -3.9968 -0.421447 -0.871278 192 192 192 255 0.202829 0.22105
-0.582205 3.14625 -0.804251 -0.700857 1.24503 3.20808 192 192 192 255 0.202829 0.22105
-0.388937 3.09287 -0.970367 4.00196 0.378147 0.858509 192 192 192 255 0.265046 0.22105
-0.561741 2.87101 -1.14763 0.713504 -1.34148 -3.22872 192 192 192 255 0.202829 0.22105
-0.922298 5.8496 -1.29199 -4.57042 0.132559 0.0117645 192 192 192 255 0.202829 0.22105
-0.643801 5.7566 -0.936977 0.0910977 0.191929 3.73686 192 192 192 255 0.202829 0.22105
-0.478079 5.74568 -1.15594 4.57835 -0.211399 0.00843024 192 192 192 255 0.265046 0.22105
-0.754675 5.83789 -1.50796 -0.0982891 -0.197256 -3.7048 192 192 192 255 0.202829 0.22105
-0.525385 8.91837 -1.53803 -4.21615 0.0161719 1.08617 192 192 192 255 0.202829 0.22105
-0.273088 9.09394 -1.2778 0.801341 0.416849 3.27936 192 192 192 255 0.202829 0.22105
-0.134342 9.13935 -1.49647 4.19951 0.0921735 -1.034 192 192 192 255 0.265046 0.22105
-0.392889 8.95923 -1.76735 -0.815141 -0.339788 -3.22391 192 192 192 255 0.202829 0.22105
-0.726946 11.0379 -1.33404 -3.40011 -0.30853 2.4374 192 192 192 255 0.202829 0.22105
-0.412643 11.1169 -1.31297 2.09152 -0.116109 3.01496 192 192 192 255 0.202829 0.22105
-0.430578 11.1607 -1.56281 3.39463 0.289959 -2.39867 192 192 192 255 0.265046 0.22105
-0.744682 11.0818 -1.5838 -2.09234 0.123471 -2.9933 192 192 192 255 0.202829 0.22105
-0.770575 15.829 -1.68398 -2 -2.99996 -2.00003 192 192 192 255 0.200588 0.061667
-0.770573 15.9299 -1.68398 -1 1.94836e-005 -1 192 192 192 255 0.200588 0.061667
-0.151155 15.9299 -1.68398 2 0 -2 192 192 192 255 0.200588 0.061667
-0.151155 15.829 -1.68398 1.00006 -3 -1.00001 192 192 192 255 0.200588 0.061667
-0.770573 15.9299 -1.06457 -2 3.89673e-005 2 192 192 192 255 0.200588 0.061667
-0.770575 15.829 -1.06457 -1 -2.99998 1.00001 192 192 192 255 0.200588 0.061667
-0.151155 15.829 -1.06457 2.00003 -3 2.00003 192 192 192 255 0.200588 0.061667
-0.151155 15.9299 -1.06457 1 0 1 192 192 192 255 0.200588 0.061667
-0.770575 15.829 -1.06457 -1 -2.99998 1.00001 192 192 192 255 0.232626 0.061667
-0.770575 15.829 -1.68398 -2 -2.99996 -2.00003 192 192 192 255 0.232626 0.061667
-0.151155 15.829 -1.68398 1.00006 -3 -1.00001 192 192 192 255 0.232626 0.061667
-0.151155 15.829 -1.06457 2.00003 -3 2.00003 192 192 192 255 0.232626 0.061667
1.17034 0 1.32259 1.9853 -2.19276 -0.85369 192 192 192 255 0.167607 0.061667
1.21705 0.444762 1.32259 0.992658 0.903618 -1.92684 192 192 192 255 0.167607 0.061667
1.18075 0.444762 1.76735 1.98532 1.80724 1.14631 192 192 192 255 0.167607 0.061667
1.14109 0 1.76735 0.992652 -1.09638 2.07315 192 192 192 255 0.167607 0.061667
1.18075 0.444762 1.76735 1.98532 1.80724 1.14631 192 192 192 255 0.200588 0.061667
1.21705 0.444762 1.32259 0.992658 0.903618 -1.92684 192 192 192 255 0.200588 0.061667
1.05193 0.444763 1.32259 -2.97231 2.32435 -1.24493 192 192 192 255 0.200588 0.061667
1.01325 0.444763 1.76735 -2.9742 1.30557 1.75415 192 192 192 255 0.200588 0.061667
1.17034 0 1.32259 1.9853 -2.19276 -0.85369 192 192 192 255 0.200588 0.061667
1.14109 0 1.76735 0.992652 -1.09638 2.07315 192 192 192 255 0.200588 0.061667
0.970665 0 1.76735 -2.97728 -1.7068 0.776978 192 192 192 255 0.200588 0.061667
1.00212 0 1.32259 -2.97547 -0.689252 -2.22291 192 192 192 255 0.200588 0.061667
0.970665 0 1.76735 -2.97728 -1.7068 0.776978 192 192 192 255 0.267492 0.061667
1.01325 0.444763 1.76735 -2.9742 1.30557 1.75415 192 192 192 255 0.267492 0.061667
1.05193 0.444763 1.32259 -2.97231 2.32435 -1.24493 192 192 192 255 0.267492 0.061667
1.00212 0 1.32259 -2.97547 -0.689252 -2.22291 192 192 192 255 0.267492 0.061667
0.985834 0.090941 1.67641 -3.3678 -0.633623 1.73545 192 192 192 255 0.202829 0.22105
1.01197 0.353823 1.67641 -2.94932 2.32143 0.793807 192 192 192 255 0.202829 0.22105
1.01197 0.353823 1.67641 -2.94932 2.32143 0.793807 192 192 192 255 0.265046 0.22105
1.03402 0.353823 1.41353 -2.61066 1.24964 -2.20907 192 192 192 255 0.265046 0.22105
0.556791 0.390656 1.6044 -0.816106 3.11386 2.82457 192 192 192 255 0.265046 0.22105
1.03402 0.353823 1.41353 -2.61066 1.24964 -2.20907 192 192 192 255 0.202829 0.22105
1.00536 0.090941 1.41353 -3.04142 -1.70139 -1.26922 192 192 192 255 0.202829 0.22105
0.65723 0.390805 1.35495 1.06102 2.8182 -2.79394 192 192 192 255 0.202829 0.22105
1.00536 0.090941 1.41353 -3.04142 -1.70139 -1.26922 192 192 192 255 0.175737 0.22105
0.985834 0.090941 1.67641 -3.3678 -0.633623 1.73545 192 192 192 255 0.175737 0.22105
0.564381 0.131656 1.61846 -1.11058 -2.82318 2.7831 192 192 192 255 0.175737 0.22105
0.662796 0.131809 1.36901 0.769586 -3.11935 -2.8373 192 192 192 255 0.175737 0.22105
-0.127277 0.312935 1.28134 -0.529525 2.98719 3.04079 192 192 192 255 0.265046 0.22105
-0.035618 0.311462 1.02782 1.33122 2.72801 -2.67716 192 192 192 255 0.202829 0.22105
-0.204803 0.053408 1.27167 -1.38248 -2.72054 2.65957 192 192 192 255 0.175737 0.22105
-0.11504 0.051939 1.01816 0.448817 -2.96013 -3.06608 192 192 192 255 0.175737 0.22105
-0.836643 0.655229 1.00068 -0.407656 2.41404 3.55763 192 192 192 255 0.265046 0.22105
-0.724241 0.6642 0.751865 3.46774 2.28956 -0.561317 192 192 192 255 0.202829 0.22105
-0.837776 0.396396 1.0068 -3.45285 -2.40999 0.735513 192 192 192 255 0.175737 0.22105
-0.72753 0.405368 0.75798 0.496731 -2.61019 -3.3542 192 192 192 255 0.175737 0.22105
-1.11729 1.48793 0.085501 -1.53422 1.86795 3.12908 192 192 192 255 0.265046 0.22105
-0.845997 1.48798 0.0452 4.05054 0.928699 1.33733 192 192 192 255 0.202829 0.22105
-1.21705 1.23884 -0.132236 -3.92687 -1.1118 -1.14974 192 192 192 255 0.175737 0.22105
-0.947016 1.23808 -0.174194 1.61989 -1.99909 -2.94944 192 192 192 255 0.175737 0.22105
-0.582205 3.14625 -0.804251 -0.700857 1.24503 3.20808 192 192 192 255 0.265046 0.22105
-0.388937 3.09287 -0.970367 4.00196 0.378147 0.858509 192 192 192 255 0.202829 0.22105
-0.756445 2.92291 -0.982195 -3.9968 -0.421447 -0.871278 192 192 192 255 0.175737 0.22105
-0.561741 2.87101 -1.14763 0.713504 -1.34148 -3.22872 192 192 192 255 0.175737 0.22105
-0.643801 5.7566 -0.936977 0.0910977 0.191929 3.73686 192 192 192 255 0.265046 0.22105
-0.478079 5.74568 -1.15594 4.57835 -0.211399 0.00843024 192 192 192 255 0.202829 0.22105
-0.922298 5.8496 -1.29199 -4.57042 0.132559 0.0117645 192 192 192 255 0.175737 0.22105
-0.754675 5.83789 -1.50796 -0.0982891 -0.197256 -3.7048 192 192 192 255 0.175737 0.22105
-0.273088 9.09394 -1.2778 0.801341 0.416849 3.27936 192 192 192 255 0.265046 0.22105
-0.134342 9.13935 -1.49647 4.19951 0.0921735 -1.034 192 192 192 255 0.202829 0.22105
-0.525385 8.91837 -1.53803 -4.21615 0.0161719 1.08617 192 192 192 255 0.175737 0.22105
-0.392889 8.95923 -1.76735 -0.815141 -0.339788 -3.22391 192 192 192 255 0.175737 0.22105
-0.412643 11.1169 -1.31297 2.09152 -0.116109 3.01496 192 192 192 255 0.265046 0.22105
-0.430578 11.1607 -1.56281 3.39463 0.289959 -2.39867 192 192 192 255 0.202829 0.22105
-0.726946 11.0379 -1.33404 -3.40011 -0.30853 2.4374 192 192 192 255 0.175737 0.22105
-0.744682 11.0818 -1.5838 -2.09234 0.123471 -2.9933 192 192 192 255 0.175737 0.22105
-0.284424 15.829 -1.19783 0.942116 -3.08034 1.96672 192 192 192 255 0.202829 0.22105
-0.637304 15.829 -1.19783 -2.02715 -2.98559 1.06104 192 192 192 255 0.202829 0.22105
-0.284424 15.829 -1.55071 2.02916 -3.05362 -1.06318 192 192 192 255 0.265046 0.22105
-0.284424 15.829 -1.19783 0.942116 -3.08034 1.96672 192 192 192 255 0.265046 0.22105
-0.637304 15.829 -1.55071 -0.937373 -2.97198 -1.96816 192 192 192 255 0.202829 0.22105
-0.284424 15.829 -1.55071 2.02916 -3.05362 -1.06318 192 192 192 255 0.202829 0.22105
-0.637304 15.829 -1.19783 -2.02715 -2.98559 1.06104 192 192 192 255 0.175737 0.22105
-0.637304 15.829 -1.55071 -0.937373 -2.97198 -1.96816 192 192 192 255 0.175737 0.22105
3 2 3 5 
3 2 5 4 
3 6 7 1 
3 6 1 0 
3 56 57 58 
3 56 58 59 
3 60 61 62 
3 60 62 63 
3 64 65 9 
3 64 9 8 
3 65 66 10 
3 65 10 9 
3 66 67 11 
3 66 11 10 
3 67 64 8 
3 67 8 11 
3 12 13 15 
3 12 15 14 
3 16 17 19 
3 16 19 18 
3 68 69 70 
3 68 70 71 
3 72 73 74 
3 72 74 75 
3 76 77 78 
3 76 78 79 
3 80 81 21 
3 80 21 20 
3 81 82 22 
3 81 22 21 
3 82 83 23 
3 82 23 22 
3 83 80 20 
3 83 20 23 
3 84 85 25 
3 84 25 24 
3 86 87 26 
3 86 26 88 
3 89 90 27 
3 89 27 91 
3 92 93 94 
3 92 94 95 
3 24 25 29 
3 24 29 28 
3 88 26 30 
3 88 30 96 
3 91 27 31 
3 91 31 97 
3 95 94 98 
3 95 98 99 
3 28 29 33 
3 28 33 32 
3 96 30 34 
3 96 34 100 
3 97 31 35 
3 97 35 101 
3 99 98 102 
3 99 102 103 
3 32 33 37 
3 32 37 36 
3 100 34 38 
3 100 38 104 
3 101 35 39 
3 101 39 105 
3 103 102 106 
3 103 106 107 
3 36 37 41 
3 36 41 40 
3 104 38 42 
3 104 42 108 
3 105 39 43 
3 105 43 109 
3 107 106 110 
3 107 110 111 
3 40 41 45 
3 40 45 44 
3 108 42 46 
3 108 46 112 
3 109 43 47 
3 109 47 113 
3 111 110 114 
3 111 114 115 
3 44 45 49 
3 44 49 48 
3 112 46 50 
3 112 50 116 
3 113 47 51 
3 113 51 117 
3 115 114 118 
3 115 118 119 
3 48 49 53 
3 48 53 52 
3 116 50 54 
3 116 54 120 
3 117 51 55 
3 117 55 121 
3 119 118 122 
3 119 122 123 
3 52 53 124 
3 52 124 125 
3 120 54 126 
3 120 126 127 
3 121 55 128 
3 121 128 129 
3 123 122 130 
3 123 130 131 
