ply
format ascii 1.0
comment VCGLIB generated
comment TextureFile SpaceInteriors_Texture.png
element vertex 20
property float x
property float y
property float z
property float nx
property float ny
property float nz
property uchar red
property uchar green
property uchar blue
property uchar alpha
property float texture_u
property float texture_v
element face 10
property list uchar int vertex_indices
end_header
-0.292953 0.123591 -0.275558 -1 1 -2 192 192 192 255 0.747645 0.287859
0.292953 0.123591 -0.275558 2 2 -1.00001 192 192 192 255 0.640466 0.287859
-0.292955 0.123591 0.275558 -2 2 0.999993 192 192 192 255 0.747645 0.37374
0.292955 0.123591 0.275558 1 1 2 192 192 192 255 0.640466 0.37374
0.292953 0 -0.275558 1 0 -2 192 192 192 255 0.877579 0.406055
-0.292953 0 -0.275558 -2 0 -1.00001 192 192 192 255 0.877579 0.406055
-0.292955 0 0.275558 -1 0 2 192 192 192 255 0.892889 0.406055
0.292955 0 0.275558 2 0 0.999993 192 192 192 255 0.877579 0.406055
-0.292953 0.123591 -0.275558 -1 1 -2 192 192 192 255 0.877579 0.406055
0.292953 0.123591 -0.275558 2 2 -1.00001 192 192 192 255 0.877579 0.406055
-0.292955 0.123591 0.275558 -2 2 0.999993 192 192 192 255 0.892889 0.406055
-0.292953 0.123591 -0.275558 -1 1 -2 192 192 192 255 0.892889 0.406055
-0.292953 0 -0.275558 -2 0 -1.00001 192 192 192 255 0.892889 0.406055
0.292955 0.123591 0.275558 1 1 2 192 192 192 255 0.877579 0.406055
-0.292955 0.123591 0.275558 -2 2 0.999993 192 192 192 255 0.877579 0.406055
-0.292955 0 0.275558 -1 0 2 192 192 192 255 0.877579 0.406055
0.292953 0.123591 -0.275558 2 2 -1.00001 192 192 192 255 0.892889 0.406055
0.292955 0.123591 0.275558 1 1 2 192 192 192 255 0.892889 0.406055
0.292955 0 0.275558 2 0 0.999993 192 192 192 255 0.892889 0.406055
0.292953 0 -0.275558 1 0 -2 192 192 192 255 0.892889 0.406055
3 1 0 2 
3 1 2 3 
3 8 9 4 
3 8 4 5 
3 10 11 12 
3 10 12 6 
3 13 14 15 
3 13 15 7 
3 16 17 18 
3 16 18 19 
