ply
format ascii 1.0
comment VCGLIB generated
comment TextureFile SpaceInteriors_Texture.png
element vertex 294
property float x
property float y
property float z
property float nx
property float ny
property float nz
property uchar red
property uchar green
property uchar blue
property uchar alpha
property float texture_u
property float texture_v
element face 152
property list uchar int vertex_indices
end_header
-0.018126 1.16455 0.5 -1 -1 2 192 192 192 255 0.202697 0.061667
0.981874 1.16455 0.5 2 -2 1 192 192 192 255 0.202697 0.061667
-0.018126 1.23902 0.5 -2 2 1 192 192 192 255 0.202697 0.061667
0.981874 1.23902 0.5 1 1 2 192 192 192 255 0.202697 0.061667
-0.018126 1.23902 -0.5 -1 1 -2 192 192 192 255 0.237563 0.061667
0.981874 1.23902 -0.5 2 2 -1 192 192 192 255 0.237563 0.061667
-0.018126 1.16455 -0.5 -2 -2 -1 192 192 192 255 0.202697 0.061667
0.981874 1.16455 -0.5 1 -1 -2 192 192 192 255 0.202697 0.061667
-0.018126 0.664555 0.5 -1 -1 2 192 192 192 255 0.202697 0.061667
0.981874 0.664555 0.5 2 -2 1 192 192 192 255 0.202697 0.061667
-0.018126 0.739021 0.5 -2 2 1 192 192 192 255 0.202697 0.061667
0.981874 0.739021 0.5 1 1 2 192 192 192 255 0.202697 0.061667
-0.018126 0.739021 -0.5 -1 1 -2 192 192 192 255 0.237563 0.061667
0.981874 0.739021 -0.5 2 2 -1 192 192 192 255 0.237563 0.061667
-0.018126 0.664555 -0.5 -2 -2 -1 192 192 192 255 0.202697 0.061667
0.981874 0.664555 -0.5 1 -1 -2 192 192 192 255 0.202697 0.061667
-0.018126 0.164555 0.5 -1 -1 2 192 192 192 255 0.202697 0.061667
0.981874 0.164555 0.5 2 -2 1 192 192 192 255 0.202697 0.061667
-0.018126 0.239021 0.5 -2 2 1 192 192 192 255 0.202697 0.061667
0.981874 0.239021 0.5 1 1 2 192 192 192 255 0.202697 0.061667
-0.018126 0.239021 -0.5 -1 1 -2 192 192 192 255 0.237563 0.061667
0.981874 0.239021 -0.5 2 2 -1 192 192 192 255 0.237563 0.061667
-0.018126 0.164555 -0.5 -2 -2 -1 192 192 192 255 0.202697 0.061667
0.981874 0.164555 -0.5 1 -1 -2 192 192 192 255 0.202697 0.061667
-0.977076 1.66455 0.5 -1 -1 2 192 192 192 255 0.202697 0.061667
0.981874 1.66455 0.5 2 -2 1 192 192 192 255 0.202697 0.061667
-0.977076 1.73902 0.5 -2 2 1 192 192 192 255 0.202697 0.061667
0.981874 1.73902 0.5 1 1 2 192 192 192 255 0.202697 0.061667
-0.977076 1.73902 -0.5 -1 1 -2 192 192 192 255 0.237563 0.061667
0.981874 1.73902 -0.5 2 2 -1 192 192 192 255 0.237563 0.061667
-0.977076 1.66455 -0.5 -2 -2 -1 192 192 192 255 0.202697 0.061667
0.981874 1.66455 -0.5 1 -1 -2 192 192 192 255 0.202697 0.061667
0.901169 0 -0.419291 -1 -1 2 192 192 192 255 0.363719 0.061879
1.02633 0 -0.419291 2 -2 1 192 192 192 255 0.363719 0.061879
0.901169 1.79601 -0.419291 -2 2 1 192 192 192 255 0.363719 0.061879
1.02633 1.79601 -0.419291 1 1 2 192 192 192 255 0.363719 0.061879
0.901169 1.79601 -0.544456 -1 1 -2 192 192 192 255 0.398584 0.061879
1.02633 1.79601 -0.544456 2 2 -1 192 192 192 255 0.398584 0.061879
0.901169 0 -0.544456 -2 -2 -1 192 192 192 255 0.363719 0.061879
1.02633 0 -0.544456 1 -1 -2 192 192 192 255 0.363719 0.061879
-0.062582 0 -0.419291 -1 -1 2 192 192 192 255 0.363719 0.061879
0.062584 0 -0.419291 2 -2 1 192 192 192 255 0.363719 0.061879
-0.062582 1.79601 -0.419291 -2 2 1 192 192 192 255 0.363719 0.061879
0.062584 1.79601 -0.419291 1 1 2 192 192 192 255 0.363719 0.061879
-0.062582 1.79601 -0.544456 -1 1 -2 192 192 192 255 0.398584 0.061879
0.062584 1.79601 -0.544456 2 2 -1 192 192 192 255 0.398584 0.061879
-0.062582 0 -0.544456 -2 -2 -1 192 192 192 255 0.363719 0.061879
0.062584 0 -0.544456 1 -1 -2 192 192 192 255 0.363719 0.061879
0.901169 0 0.544456 -1 -1 2 192 192 192 255 0.363719 0.061879
1.02633 0 0.544456 2 -2 1 192 192 192 255 0.363719 0.061879
0.901169 1.79601 0.544456 -2 2 1 192 192 192 255 0.363719 0.061879
1.02633 1.79601 0.544456 1 1 2 192 192 192 255 0.363719 0.061879
0.901169 1.79601 0.419291 -1 1 -2 192 192 192 255 0.398584 0.061879
1.02633 1.79601 0.419291 2 2 -1 192 192 192 255 0.398584 0.061879
0.901169 0 0.419291 -2 -2 -1 192 192 192 255 0.363719 0.061879
1.02633 0 0.419291 1 -1 -2 192 192 192 255 0.363719 0.061879
-0.062582 0 0.544456 -1 -1 2 192 192 192 255 0.363719 0.061879
0.062584 0 0.544456 2 -2 1 192 192 192 255 0.363719 0.061879
-0.062582 1.79601 0.544456 -2 2 1 192 192 192 255 0.363719 0.061879
0.062584 1.79601 0.544456 1 1 2 192 192 192 255 0.363719 0.061879
-0.062582 1.79601 0.419291 -1 1 -2 192 192 192 255 0.398584 0.061879
0.062584 1.79601 0.419291 2 2 -1 192 192 192 255 0.398584 0.061879
-0.062582 0 0.419291 -2 -2 -1 192 192 192 255 0.363719 0.061879
0.062584 0 0.419291 1 -1 -2 192 192 192 255 0.363719 0.061879
-1.02633 0 -0.419291 -1 -1 2 192 192 192 255 0.363719 0.061879
-0.901165 0 -0.419291 2 -2 1 192 192 192 255 0.363719 0.061879
-1.02633 1.79601 -0.419291 -2 2 1 192 192 192 255 0.363719 0.061879
-0.901165 1.79601 -0.419291 1 1 2 192 192 192 255 0.363719 0.061879
-1.02633 1.79601 -0.544456 -1 1 -2 192 192 192 255 0.398584 0.061879
-0.901165 1.79601 -0.544456 2 2 -1 192 192 192 255 0.398584 0.061879
-1.02633 0 -0.544456 -2 -2 -1 192 192 192 255 0.363719 0.061879
-0.901165 0 -0.544456 1 -1 -2 192 192 192 255 0.363719 0.061879
-1.02633 0 0.544456 -1 -1 2 192 192 192 255 0.363719 0.061879
-0.901165 0 0.544456 2 -2 1 192 192 192 255 0.363719 0.061879
-1.02633 1.79601 0.544456 -2 2 1 192 192 192 255 0.363719 0.061879
-0.901165 1.79601 0.544456 1 1 2 192 192 192 255 0.363719 0.061879
-1.02633 1.79601 0.419291 -1 1 -2 192 192 192 255 0.398584 0.061879
-0.901165 1.79601 0.419291 2 2 -1 192 192 192 255 0.398584 0.061879
-1.02633 0 0.419291 -2 -2 -1 192 192 192 255 0.363719 0.061879
-0.901165 0 0.419291 1 -1 -2 192 192 192 255 0.363719 0.061879
-0.928909 0.164555 0.447035 -2 -1 3 192 192 192 255 0.200168 0.061667
-0.03484 0.164555 0.447035 2 -2 1 192 192 192 255 0.200168 0.061667
-0.928909 0.985619 0.447035 -3.06854 0 2 192 192 192 255 0.525603 0.867369
-0.03484 0.985619 0.447035 3.06854 0 3 192 192 192 255 0.234985 0.06135
-0.928909 1.06228 -0.447032 -1.06854 3 -2 192 192 192 255 0.265187 0.061667
-0.03484 1.06228 -0.447032 1.06854 3 -1 192 192 192 255 0.265187 0.061667
-0.928909 0.164555 -0.447032 -2 -2 -1 192 192 192 255 0.265187 0.061667
-0.03484 0.164555 -0.447032 2 -1 -2 192 192 192 255 0.265187 0.061667
-0.928909 0.575087 0.447035 -1 0 3 192 192 192 255 0.525603 0.779068
-0.03484 0.575087 0.447035 1 0 4 192 192 192 255 0.234985 0.06135
-0.481873 0.575087 0.447035 0 0 4 192 192 192 255 0.601788 0.779068
-0.481873 0.985619 0.447035 0 0 6 192 192 192 255 0.601788 0.867369
-0.03484 1.06228 0.447035 0.0685373 4 1 192 192 192 255 0.237305 0.061701
-0.928909 1.06228 0.447035 -0.0685373 2 3 192 192 192 255 0.237305 0.061701
-0.132816 1.06228 0.34906 0 4 0 192 192 192 255 0.233801 0.064535
-0.132816 1.06228 -0.349055 0 4 0 192 192 192 255 0.233801 0.064535
-0.830933 1.06228 -0.349055 0 5 0 192 192 192 255 0.233801 0.064535
-0.830933 1.06228 0.34906 0 5 0 192 192 192 255 0.233801 0.064535
-0.018126 1.23902 0.5 -2 2 1 192 192 192 255 0.237563 0.061667
0.981874 1.23902 0.5 1 1 2 192 192 192 255 0.237563 0.061667
-0.018126 1.23902 -0.5 -1 1 -2 192 192 192 255 0.202697 0.061667
0.981874 1.23902 -0.5 2 2 -1 192 192 192 255 0.202697 0.061667
-0.018126 1.16455 -0.5 -2 -2 -1 192 192 192 255 0.137678 0.061667
0.981874 1.16455 -0.5 1 -1 -2 192 192 192 255 0.137678 0.061667
0.981874 1.16455 0.5 2 -2 1 192 192 192 255 0.137678 0.061667
-0.018126 1.16455 0.5 -1 -1 2 192 192 192 255 0.137678 0.061667
0.981874 1.16455 0.5 2 -2 1 192 192 192 255 0.170659 0.061667
0.981874 1.16455 -0.5 1 -1 -2 192 192 192 255 0.170659 0.061667
0.981874 1.23902 -0.5 2 2 -1 192 192 192 255 0.170659 0.061667
0.981874 1.23902 0.5 1 1 2 192 192 192 255 0.170659 0.061667
-0.018126 1.16455 -0.5 -2 -2 -1 192 192 192 255 0.170659 0.061667
-0.018126 1.16455 0.5 -1 -1 2 192 192 192 255 0.170659 0.061667
-0.018126 1.23902 0.5 -2 2 1 192 192 192 255 0.170659 0.061667
-0.018126 1.23902 -0.5 -1 1 -2 192 192 192 255 0.170659 0.061667
-0.018126 0.739021 0.5 -2 2 1 192 192 192 255 0.237563 0.061667
0.981874 0.739021 0.5 1 1 2 192 192 192 255 0.237563 0.061667
-0.018126 0.739021 -0.5 -1 1 -2 192 192 192 255 0.202697 0.061667
0.981874 0.739021 -0.5 2 2 -1 192 192 192 255 0.202697 0.061667
-0.018126 0.664555 -0.5 -2 -2 -1 192 192 192 255 0.137678 0.061667
0.981874 0.664555 -0.5 1 -1 -2 192 192 192 255 0.137678 0.061667
0.981874 0.664555 0.5 2 -2 1 192 192 192 255 0.137678 0.061667
-0.018126 0.664555 0.5 -1 -1 2 192 192 192 255 0.137678 0.061667
0.981874 0.664555 0.5 2 -2 1 192 192 192 255 0.170659 0.061667
0.981874 0.664555 -0.5 1 -1 -2 192 192 192 255 0.170659 0.061667
0.981874 0.739021 -0.5 2 2 -1 192 192 192 255 0.170659 0.061667
0.981874 0.739021 0.5 1 1 2 192 192 192 255 0.170659 0.061667
-0.018126 0.664555 -0.5 -2 -2 -1 192 192 192 255 0.170659 0.061667
-0.018126 0.664555 0.5 -1 -1 2 192 192 192 255 0.170659 0.061667
-0.018126 0.739021 0.5 -2 2 1 192 192 192 255 0.170659 0.061667
-0.018126 0.739021 -0.5 -1 1 -2 192 192 192 255 0.170659 0.061667
-0.018126 0.239021 0.5 -2 2 1 192 192 192 255 0.237563 0.061667
0.981874 0.239021 0.5 1 1 2 192 192 192 255 0.237563 0.061667
-0.018126 0.239021 -0.5 -1 1 -2 192 192 192 255 0.202697 0.061667
0.981874 0.239021 -0.5 2 2 -1 192 192 192 255 0.202697 0.061667
-0.018126 0.164555 -0.5 -2 -2 -1 192 192 192 255 0.137678 0.061667
0.981874 0.164555 -0.5 1 -1 -2 192 192 192 255 0.137678 0.061667
0.981874 0.164555 0.5 2 -2 1 192 192 192 255 0.137678 0.061667
-0.018126 0.164555 0.5 -1 -1 2 192 192 192 255 0.137678 0.061667
0.981874 0.164555 0.5 2 -2 1 192 192 192 255 0.170659 0.061667
0.981874 0.164555 -0.5 1 -1 -2 192 192 192 255 0.170659 0.061667
0.981874 0.239021 -0.5 2 2 -1 192 192 192 255 0.170659 0.061667
0.981874 0.239021 0.5 1 1 2 192 192 192 255 0.170659 0.061667
-0.018126 0.164555 -0.5 -2 -2 -1 192 192 192 255 0.170659 0.061667
-0.018126 0.164555 0.5 -1 -1 2 192 192 192 255 0.170659 0.061667
-0.018126 0.239021 0.5 -2 2 1 192 192 192 255 0.170659 0.061667
-0.018126 0.239021 -0.5 -1 1 -2 192 192 192 255 0.170659 0.061667
-0.977076 1.73902 0.5 -2 2 1 192 192 192 255 0.237563 0.061667
0.981874 1.73902 0.5 1 1 2 192 192 192 255 0.237563 0.061667
-0.977076 1.73902 -0.5 -1 1 -2 192 192 192 255 0.202697 0.061667
0.981874 1.73902 -0.5 2 2 -1 192 192 192 255 0.202697 0.061667
-0.977076 1.66455 -0.5 -2 -2 -1 192 192 192 255 0.137678 0.061667
0.981874 1.66455 -0.5 1 -1 -2 192 192 192 255 0.137678 0.061667
0.981874 1.66455 0.5 2 -2 1 192 192 192 255 0.137678 0.061667
-0.977076 1.66455 0.5 -1 -1 2 192 192 192 255 0.137678 0.061667
0.981874 1.66455 0.5 2 -2 1 192 192 192 255 0.170659 0.061667
0.981874 1.66455 -0.5 1 -1 -2 192 192 192 255 0.170659 0.061667
0.981874 1.73902 -0.5 2 2 -1 192 192 192 255 0.170659 0.061667
0.981874 1.73902 0.5 1 1 2 192 192 192 255 0.170659 0.061667
-0.977076 1.66455 -0.5 -2 -2 -1 192 192 192 255 0.170659 0.061667
-0.977076 1.66455 0.5 -1 -1 2 192 192 192 255 0.170659 0.061667
-0.977076 1.73902 0.5 -2 2 1 192 192 192 255 0.170659 0.061667
-0.977076 1.73902 -0.5 -1 1 -2 192 192 192 255 0.170659 0.061667
0.901169 1.79601 -0.419291 -2 2 1 192 192 192 255 0.398584 0.061879
1.02633 1.79601 -0.419291 1 1 2 192 192 192 255 0.398584 0.061879
0.901169 1.79601 -0.544456 -1 1 -2 192 192 192 255 0.363719 0.061879
1.02633 1.79601 -0.544456 2 2 -1 192 192 192 255 0.363719 0.061879
0.901169 0 -0.544456 -2 -2 -1 192 192 192 255 0.298699 0.061879
1.02633 0 -0.544456 1 -1 -2 192 192 192 255 0.298699 0.061879
1.02633 0 -0.419291 2 -2 1 192 192 192 255 0.298699 0.061879
0.901169 0 -0.419291 -1 -1 2 192 192 192 255 0.298699 0.061879
1.02633 0 -0.419291 2 -2 1 192 192 192 255 0.33168 0.061879
1.02633 0 -0.544456 1 -1 -2 192 192 192 255 0.33168 0.061879
1.02633 1.79601 -0.544456 2 2 -1 192 192 192 255 0.33168 0.061879
1.02633 1.79601 -0.419291 1 1 2 192 192 192 255 0.33168 0.061879
0.901169 0 -0.544456 -2 -2 -1 192 192 192 255 0.33168 0.061879
0.901169 0 -0.419291 -1 -1 2 192 192 192 255 0.33168 0.061879
0.901169 1.79601 -0.419291 -2 2 1 192 192 192 255 0.33168 0.061879
0.901169 1.79601 -0.544456 -1 1 -2 192 192 192 255 0.33168 0.061879
-0.062582 1.79601 -0.419291 -2 2 1 192 192 192 255 0.398584 0.061879
0.062584 1.79601 -0.419291 1 1 2 192 192 192 255 0.398584 0.061879
-0.062582 1.79601 -0.544456 -1 1 -2 192 192 192 255 0.363719 0.061879
0.062584 1.79601 -0.544456 2 2 -1 192 192 192 255 0.363719 0.061879
-0.062582 0 -0.544456 -2 -2 -1 192 192 192 255 0.298699 0.061879
0.062584 0 -0.544456 1 -1 -2 192 192 192 255 0.298699 0.061879
0.062584 0 -0.419291 2 -2 1 192 192 192 255 0.298699 0.061879
-0.062582 0 -0.419291 -1 -1 2 192 192 192 255 0.298699 0.061879
0.062584 0 -0.419291 2 -2 1 192 192 192 255 0.33168 0.061879
0.062584 0 -0.544456 1 -1 -2 192 192 192 255 0.33168 0.061879
0.062584 1.79601 -0.544456 2 2 -1 192 192 192 255 0.33168 0.061879
0.062584 1.79601 -0.419291 1 1 2 192 192 192 255 0.33168 0.061879
-0.062582 0 -0.544456 -2 -2 -1 192 192 192 255 0.33168 0.061879
-0.062582 0 -0.419291 -1 -1 2 192 192 192 255 0.33168 0.061879
-0.062582 1.79601 -0.419291 -2 2 1 192 192 192 255 0.33168 0.061879
-0.062582 1.79601 -0.544456 -1 1 -2 192 192 192 255 0.33168 0.061879
0.901169 1.79601 0.544456 -2 2 1 192 192 192 255 0.398584 0.061879
1.02633 1.79601 0.544456 1 1 2 192 192 192 255 0.398584 0.061879
0.901169 1.79601 0.419291 -1 1 -2 192 192 192 255 0.363719 0.061879
1.02633 1.79601 0.419291 2 2 -1 192 192 192 255 0.363719 0.061879
0.901169 0 0.419291 -2 -2 -1 192 192 192 255 0.298699 0.061879
1.02633 0 0.419291 1 -1 -2 192 192 192 255 0.298699 0.061879
1.02633 0 0.544456 2 -2 1 192 192 192 255 0.298699 0.061879
0.901169 0 0.544456 -1 -1 2 192 192 192 255 0.298699 0.061879
1.02633 0 0.544456 2 -2 1 192 192 192 255 0.33168 0.061879
1.02633 0 0.419291 1 -1 -2 192 192 192 255 0.33168 0.061879
1.02633 1.79601 0.419291 2 2 -1 192 192 192 255 0.33168 0.061879
1.02633 1.79601 0.544456 1 1 2 192 192 192 255 0.33168 0.061879
0.901169 0 0.419291 -2 -2 -1 192 192 192 255 0.33168 0.061879
0.901169 0 0.544456 -1 -1 2 192 192 192 255 0.33168 0.061879
0.901169 1.79601 0.544456 -2 2 1 192 192 192 255 0.33168 0.061879
0.901169 1.79601 0.419291 -1 1 -2 192 192 192 255 0.33168 0.061879
-0.062582 1.79601 0.544456 -2 2 1 192 192 192 255 0.398584 0.061879
0.062584 1.79601 0.544456 1 1 2 192 192 192 255 0.398584 0.061879
-0.062582 1.79601 0.419291 -1 1 -2 192 192 192 255 0.363719 0.061879
0.062584 1.79601 0.419291 2 2 -1 192 192 192 255 0.363719 0.061879
-0.062582 0 0.419291 -2 -2 -1 192 192 192 255 0.298699 0.061879
0.062584 0 0.419291 1 -1 -2 192 192 192 255 0.298699 0.061879
0.062584 0 0.544456 2 -2 1 192 192 192 255 0.298699 0.061879
-0.062582 0 0.544456 -1 -1 2 192 192 192 255 0.298699 0.061879
0.062584 0 0.544456 2 -2 1 192 192 192 255 0.33168 0.061879
0.062584 0 0.419291 1 -1 -2 192 192 192 255 0.33168 0.061879
0.062584 1.79601 0.419291 2 2 -1 192 192 192 255 0.33168 0.061879
0.062584 1.79601 0.544456 1 1 2 192 192 192 255 0.33168 0.061879
-0.062582 0 0.419291 -2 -2 -1 192 192 192 255 0.33168 0.061879
-0.062582 0 0.544456 -1 -1 2 192 192 192 255 0.33168 0.061879
-0.062582 1.79601 0.544456 -2 2 1 192 192 192 255 0.33168 0.061879
-0.062582 1.79601 0.419291 -1 1 -2 192 192 192 255 0.33168 0.061879
-1.02633 1.79601 -0.419291 -2 2 1 192 192 192 255 0.398584 0.061879
-0.901165 1.79601 -0.419291 1 1 2 192 192 192 255 0.398584 0.061879
-1.02633 1.79601 -0.544456 -1 1 -2 192 192 192 255 0.363719 0.061879
-0.901165 1.79601 -0.544456 2 2 -1 192 192 192 255 0.363719 0.061879
-1.02633 0 -0.544456 -2 -2 -1 192 192 192 255 0.298699 0.061879
-0.901165 0 -0.544456 1 -1 -2 192 192 192 255 0.298699 0.061879
-0.901165 0 -0.419291 2 -2 1 192 192 192 255 0.298699 0.061879
-1.02633 0 -0.419291 -1 -1 2 192 192 192 255 0.298699 0.061879
-0.901165 0 -0.419291 2 -2 1 192 192 192 255 0.33168 0.061879
-0.901165 0 -0.544456 1 -1 -2 192 192 192 255 0.33168 0.061879
-0.901165 1.79601 -0.544456 2 2 -1 192 192 192 255 0.33168 0.061879
-0.901165 1.79601 -0.419291 1 1 2 192 192 192 255 0.33168 0.061879
-1.02633 0 -0.544456 -2 -2 -1 192 192 192 255 0.33168 0.061879
-1.02633 0 -0.419291 -1 -1 2 192 192 192 255 0.33168 0.061879
-1.02633 1.79601 -0.419291 -2 2 1 192 192 192 255 0.33168 0.061879
-1.02633 1.79601 -0.544456 -1 1 -2 192 192 192 255 0.33168 0.061879
-1.02633 1.79601 0.544456 -2 2 1 192 192 192 255 0.398584 0.061879
-0.901165 1.79601 0.544456 1 1 2 192 192 192 255 0.398584 0.061879
-1.02633 1.79601 0.419291 -1 1 -2 192 192 192 255 0.363719 0.061879
-0.901165 1.79601 0.419291 2 2 -1 192 192 192 255 0.363719 0.061879
-1.02633 0 0.419291 -2 -2 -1 192 192 192 255 0.298699 0.061879
-0.901165 0 0.419291 1 -1 -2 192 192 192 255 0.298699 0.061879
-0.901165 0 0.544456 2 -2 1 192 192 192 255 0.298699 0.061879
-1.02633 0 0.544456 -1 -1 2 192 192 192 255 0.298699 0.061879
-0.901165 0 0.544456 2 -2 1 192 192 192 255 0.33168 0.061879
-0.901165 0 0.419291 1 -1 -2 192 192 192 255 0.33168 0.061879
-0.901165 1.79601 0.419291 2 2 -1 192 192 192 255 0.33168 0.061879
-0.901165 1.79601 0.544456 1 1 2 192 192 192 255 0.33168 0.061879
-1.02633 0 0.419291 -2 -2 -1 192 192 192 255 0.33168 0.061879
-1.02633 0 0.544456 -1 -1 2 192 192 192 255 0.33168 0.061879
-1.02633 1.79601 0.544456 -2 2 1 192 192 192 255 0.33168 0.061879
-1.02633 1.79601 0.419291 -1 1 -2 192 192 192 255 0.33168 0.061879
-0.928909 0.164555 -0.447032 -2 -2 -1 192 192 192 255 0.200168 0.061667
-0.03484 0.164555 -0.447032 2 -1 -2 192 192 192 255 0.200168 0.061667
-0.928909 0.985619 0.447035 -3.06854 0 2 192 192 192 255 0.234985 0.06135
-0.928909 1.06228 -0.447032 -1.06854 3 -2 192 192 192 255 0.234985 0.06135
-0.928909 0.164555 -0.447032 -2 -2 -1 192 192 192 255 0.234985 0.06135
-0.928909 0.164555 0.447035 -2 -1 3 192 192 192 255 0.234985 0.06135
-0.928909 0.575087 0.447035 -1 0 3 192 192 192 255 0.234985 0.06135
-0.03484 0.164555 0.447035 2 -2 1 192 192 192 255 0.234985 0.06135
-0.03484 0.164555 -0.447032 2 -1 -2 192 192 192 255 0.234985 0.06135
-0.03484 1.06228 -0.447032 1.06854 3 -1 192 192 192 255 0.234985 0.06135
-0.928909 0.164555 0.447035 -2 -1 3 192 192 192 255 0.509542 0.67471
-0.03484 0.164555 0.447035 2 -2 1 192 192 192 255 0.672183 0.67471
-0.03484 0.575087 0.447035 1 0 4 192 192 192 255 0.672183 0.74747
-0.481873 0.575087 0.447035 0 0 4 192 192 192 255 0.590862 0.74747
-0.928909 0.575087 0.447035 -1 0 3 192 192 192 255 0.509542 0.74747
-0.481873 0.985619 0.447035 0 0 6 192 192 192 255 0.672409 0.746781
-0.481873 0.575087 0.447035 0 0 4 192 192 192 255 0.672409 0.674191
-0.03484 0.575087 0.447035 1 0 4 192 192 192 255 0.75008 0.674191
-0.03484 0.985619 0.447035 3.06854 0 3 192 192 192 255 0.75008 0.746781
-0.03484 0.985619 0.447035 3.06854 0 3 192 192 192 255 0.237305 0.061701
-0.03484 1.06228 -0.447032 1.06854 3 -1 192 192 192 255 0.237305 0.061701
-0.928909 1.06228 -0.447032 -1.06854 3 -2 192 192 192 255 0.237305 0.061701
-0.928909 0.985619 0.447035 -3.06854 0 2 192 192 192 255 0.237305 0.061701
-0.928909 1.06228 0.447035 -0.0685373 2 3 192 192 192 255 0.258931 0.061701
-0.928909 0.985619 0.447035 -3.06854 0 2 192 192 192 255 0.258931 0.061701
-0.481873 0.985619 0.447035 0 0 6 192 192 192 255 0.258931 0.061701
-0.03484 0.985619 0.447035 3.06854 0 3 192 192 192 255 0.258931 0.061701
-0.03484 1.06228 0.447035 0.0685373 4 1 192 192 192 255 0.258931 0.061701
-0.03484 1.06228 0.447035 0.0685373 4 1 192 192 192 255 0.301282 0.061701
-0.03484 1.06228 -0.447032 1.06854 3 -1 192 192 192 255 0.301282 0.061701
-0.132816 1.06228 -0.349055 0 4 0 192 192 192 255 0.301282 0.061701
-0.132816 1.06228 0.34906 0 4 0 192 192 192 255 0.301282 0.061701
-0.928909 1.06228 -0.447032 -1.06854 3 -2 192 192 192 255 0.301282 0.061701
-0.830933 1.06228 -0.349055 0 5 0 192 192 192 255 0.301282 0.061701
-0.928909 1.06228 0.447035 -0.0685373 2 3 192 192 192 255 0.301282 0.061701
-0.830933 1.06228 0.34906 0 5 0 192 192 192 255 0.301282 0.061701
3 0 1 3 
3 0 3 2 
3 98 99 5 
3 98 5 4 
3 100 101 7 
3 100 7 6 
3 102 103 104 
3 102 104 105 
3 106 107 108 
3 106 108 109 
3 110 111 112 
3 110 112 113 
3 8 9 11 
3 8 11 10 
3 114 115 13 
3 114 13 12 
3 116 117 15 
3 116 15 14 
3 118 119 120 
3 118 120 121 
3 122 123 124 
3 122 124 125 
3 126 127 128 
3 126 128 129 
3 16 17 19 
3 16 19 18 
3 130 131 21 
3 130 21 20 
3 132 133 23 
3 132 23 22 
3 134 135 136 
3 134 136 137 
3 138 139 140 
3 138 140 141 
3 142 143 144 
3 142 144 145 
3 24 25 27 
3 24 27 26 
3 146 147 29 
3 146 29 28 
3 148 149 31 
3 148 31 30 
3 150 151 152 
3 150 152 153 
3 154 155 156 
3 154 156 157 
3 158 159 160 
3 158 160 161 
3 32 33 35 
3 32 35 34 
3 162 163 37 
3 162 37 36 
3 164 165 39 
3 164 39 38 
3 166 167 168 
3 166 168 169 
3 170 171 172 
3 170 172 173 
3 174 175 176 
3 174 176 177 
3 40 41 43 
3 40 43 42 
3 178 179 45 
3 178 45 44 
3 180 181 47 
3 180 47 46 
3 182 183 184 
3 182 184 185 
3 186 187 188 
3 186 188 189 
3 190 191 192 
3 190 192 193 
3 48 49 51 
3 48 51 50 
3 194 195 53 
3 194 53 52 
3 196 197 55 
3 196 55 54 
3 198 199 200 
3 198 200 201 
3 202 203 204 
3 202 204 205 
3 206 207 208 
3 206 208 209 
3 56 57 59 
3 56 59 58 
3 210 211 61 
3 210 61 60 
3 212 213 63 
3 212 63 62 
3 214 215 216 
3 214 216 217 
3 218 219 220 
3 218 220 221 
3 222 223 224 
3 222 224 225 
3 64 65 67 
3 64 67 66 
3 226 227 69 
3 226 69 68 
3 228 229 71 
3 228 71 70 
3 230 231 232 
3 230 232 233 
3 234 235 236 
3 234 236 237 
3 238 239 240 
3 238 240 241 
3 72 73 75 
3 72 75 74 
3 242 243 77 
3 242 77 76 
3 244 245 79 
3 244 79 78 
3 246 247 248 
3 246 248 249 
3 250 251 252 
3 250 252 253 
3 254 255 256 
3 254 256 257 
3 88 90 91 
3 88 91 82 
3 94 95 96 
3 94 96 97 
3 84 85 87 
3 84 87 86 
3 258 259 81 
3 258 81 80 
3 260 261 262 
3 260 262 263 
3 260 263 264 
3 83 89 265 
3 83 265 266 
3 83 266 267 
3 268 269 270 
3 268 270 271 
3 268 271 272 
3 273 274 275 
3 273 275 276 
3 277 278 92 
3 279 280 93 
3 281 282 283 
3 281 283 284 
3 281 284 285 
3 286 287 288 
3 286 288 289 
3 287 290 291 
3 287 291 288 
3 290 292 293 
3 290 293 291 
3 293 292 286 
3 293 286 289 
