ply
format ascii 1.0
comment VCGLIB generated
comment TextureFile SpaceInteriors_Texture.png
element vertex 104
property float x
property float y
property float z
property float nx
property float ny
property float nz
property uchar red
property uchar green
property uchar blue
property uchar alpha
property float texture_u
property float texture_v
element face 64
property list uchar int vertex_indices
end_header
-1 0 0 -1 -1 2 192 192 192 255 0.233113 0.062866
0 0 0 2 -2 2 192 192 192 255 0.233113 0.062866
-1 1 0 -2 3 1 192 192 192 255 0.233113 0.062866
0 1 0 1 3 1 192 192 192 255 0.233113 0.062866
-1 1 -1 -1 3 -1 192 192 192 255 0.233113 0.062866
0 1 -1 2 3 -2 192 192 192 255 0.233113 0.062866
-1 0 -1 -2 -3 -2 192 192 192 255 0.233113 0.062866
0 0 -1 1 -3 -1 192 192 192 255 0.233113 0.062866
-0.750756 1 0 1.92777 3 2.53262 192 192 192 255 0.235244 0.062866
-0.750756 0 0 0.963887 -2 1.26631 192 192 192 255 0.235244 0.062866
-0.250252 0 0 -1.92777 -1 1.53263 192 192 192 255 0.235244 0.062866
-0.250252 1 0 -0.963886 3 2.26632 192 192 192 255 0.235244 0.062866
-0.700706 0 -0.181151 1.92777 -3 1.53262 192 192 192 255 0.235244 0.062866
-0.700706 1 -0.181151 0.963887 2 2.26631 192 192 192 255 0.235244 0.062866
-0.300303 1 -0.181151 -1.92777 4 1.53263 192 192 192 255 0.235244 0.062866
-0.300303 0 -0.181151 -0.963886 -3 2.26632 192 192 192 255 0.235244 0.062866
-0.275925 1 -0.326961 -1.90888 2 2.59681 192 192 192 255 0.292982 0.062866
-0.20127 1 -0.088178 -0.95444 3 2.2984 192 192 192 255 0.292982 0.062866
-0.799741 1 -0.088178 1.90888 3 1.59681 192 192 192 255 0.292982 0.062866
-0.725086 1 -0.326961 0.95444 4 1.2984 192 192 192 255 0.292982 0.062866
-0.945102 1 -0.088178 -1 3 2 192 192 192 255 0.292982 0.062866
-0.945102 1 -0.92238 -3 3 -1 192 192 192 255 0.292982 0.062866
-0.055907 1 -0.088178 3 3 1 192 192 192 255 0.292982 0.062866
-0.055907 1 -0.92238 1 3 -2 192 192 192 255 0.292982 0.062866
-0.275925 1.08932 -0.326961 -0.95444 3.12848 1.2984 192 192 192 255 0.932625 0.874589
-0.055907 1.08932 -0.92238 2 1.12848 -1 192 192 192 255 0.992775 0.992054
-0.799741 1.08932 -0.088178 0.95444 2 2.2984 192 192 192 255 0.750668 0.869189
-0.725086 1.08932 -0.326961 1.90888 2.12848 2.59681 192 192 192 255 0.750668 0.869189
-0.945102 1.08932 -0.92238 -1 2.12848 -2 192 192 192 255 0.74968 0.992054
-0.945102 1.08932 -0.088178 -2 1 1 192 192 192 255 0.750668 0.869189
-0.20127 1.08932 -0.088178 -1.90888 2 1.59681 192 192 192 255 0.233436 0.062338
-0.055907 1.08932 -0.088178 1 1 2 192 192 192 255 0.265609 0.058294
-0.945102 1.08932 -0.338438 -2 2.12848 0 192 192 192 255 0.750668 0.869189
-0.055907 1.08932 -0.338438 2 2.12848 0 192 192 192 255 0.992775 0.876853
-1 0 0 -1 -1 2 192 192 192 255 0.264046 0.062866
-0.750756 0 0 0.963887 -2 1.26631 192 192 192 255 0.264046 0.062866
-0.750756 1 0 1.92777 3 2.53262 192 192 192 255 0.264046 0.062866
-1 1 0 -2 3 1 192 192 192 255 0.264046 0.062866
-0.250252 1 0 -0.963886 3 2.26632 192 192 192 255 0.264046 0.062866
-0.250252 0 0 -1.92777 -1 1.53263 192 192 192 255 0.264046 0.062866
0 0 0 2 -2 2 192 192 192 255 0.264046 0.062866
0 1 0 1 3 1 192 192 192 255 0.264046 0.062866
-0.300303 0 -0.181151 -0.963886 -3 2.26632 192 192 192 255 0.264046 0.062866
-0.300303 1 -0.181151 -1.92777 4 1.53263 192 192 192 255 0.264046 0.062866
-0.700706 1 -0.181151 0.963887 2 2.26631 192 192 192 255 0.264046 0.062866
-0.700706 0 -0.181151 1.92777 -3 1.53262 192 192 192 255 0.264046 0.062866
-1 0 -1 -2 -3 -2 192 192 192 255 0.264046 0.062866
-1 1 -1 -1 3 -1 192 192 192 255 0.264046 0.062866
0 1 -1 2 3 -2 192 192 192 255 0.264046 0.062866
0 0 -1 1 -3 -1 192 192 192 255 0.264046 0.062866
-0.300303 1 -0.181151 -1.92777 4 1.53263 192 192 192 255 0.292982 0.062866
-0.250252 1 0 -0.963886 3 2.26632 192 192 192 255 0.292982 0.062866
-0.750756 1 0 1.92777 3 2.53262 192 192 192 255 0.292982 0.062866
-0.700706 1 -0.181151 0.963887 2 2.26631 192 192 192 255 0.292982 0.062866
-1 1 0 -2 3 1 192 192 192 255 0.292982 0.062866
-1 1 -1 -1 3 -1 192 192 192 255 0.292982 0.062866
0 1 0 1 3 1 192 192 192 255 0.292982 0.062866
0 1 -1 2 3 -2 192 192 192 255 0.292982 0.062866
-0.725086 1.08932 -0.326961 1.90888 2.12848 2.59681 192 192 192 255 0.80983 0.874589
-0.945102 1.08932 -0.92238 -1 2.12848 -2 192 192 192 255 0.265609 0.058294
-0.055907 1.08932 -0.92238 2 1.12848 -1 192 192 192 255 0.265609 0.058294
-0.055907 1 -0.92238 1 3 -2 192 192 192 255 0.265609 0.058294
-0.945102 1 -0.92238 -3 3 -1 192 192 192 255 0.265609 0.058294
-0.799741 1 -0.088178 1.90888 3 1.59681 192 192 192 255 0.233436 0.062338
-0.725086 1 -0.326961 0.95444 4 1.2984 192 192 192 255 0.233436 0.062338
-0.725086 1.08932 -0.326961 1.90888 2.12848 2.59681 192 192 192 255 0.233436 0.062338
-0.799741 1.08932 -0.088178 0.95444 2 2.2984 192 192 192 255 0.233436 0.062338
-0.945102 1 -0.92238 -3 3 -1 192 192 192 255 0.233436 0.062338
-0.945102 1 -0.088178 -1 3 2 192 192 192 255 0.233436 0.062338
-0.945102 1.08932 -0.088178 -2 1 1 192 192 192 255 0.233436 0.062338
-0.945102 1.08932 -0.338438 -2 2.12848 0 192 192 192 255 0.233436 0.062338
-0.945102 1.08932 -0.92238 -1 2.12848 -2 192 192 192 255 0.233436 0.062338
-0.945102 1 -0.088178 -1 3 2 192 192 192 255 0.265609 0.058294
-0.799741 1 -0.088178 1.90888 3 1.59681 192 192 192 255 0.265609 0.058294
-0.799741 1.08932 -0.088178 0.95444 2 2.2984 192 192 192 255 0.265609 0.058294
-0.945102 1.08932 -0.088178 -2 1 1 192 192 192 255 0.265609 0.058294
-0.725086 1.08932 -0.326961 1.90888 2.12848 2.59681 192 192 192 255 0.265609 0.058294
-0.725086 1 -0.326961 0.95444 4 1.2984 192 192 192 255 0.265609 0.058294
-0.275925 1 -0.326961 -1.90888 2 2.59681 192 192 192 255 0.265609 0.058294
-0.275925 1.08932 -0.326961 -0.95444 3.12848 1.2984 192 192 192 255 0.265609 0.058294
-0.275925 1 -0.326961 -1.90888 2 2.59681 192 192 192 255 0.233436 0.062338
-0.20127 1 -0.088178 -0.95444 3 2.2984 192 192 192 255 0.233436 0.062338
-0.275925 1.08932 -0.326961 -0.95444 3.12848 1.2984 192 192 192 255 0.233436 0.062338
-0.20127 1 -0.088178 -0.95444 3 2.2984 192 192 192 255 0.265609 0.058294
-0.055907 1 -0.088178 3 3 1 192 192 192 255 0.265609 0.058294
-0.20127 1.08932 -0.088178 -1.90888 2 1.59681 192 192 192 255 0.265609 0.058294
-0.055907 1 -0.088178 3 3 1 192 192 192 255 0.233436 0.062338
-0.055907 1 -0.92238 1 3 -2 192 192 192 255 0.233436 0.062338
-0.055907 1.08932 -0.92238 2 1.12848 -1 192 192 192 255 0.233436 0.062338
-0.055907 1.08932 -0.338438 2 2.12848 0 192 192 192 255 0.233436 0.062338
-0.055907 1.08932 -0.088178 1 1 2 192 192 192 255 0.233436 0.062338
-0.945102 1.08932 -0.338438 -2 2.12848 0 192 192 192 255 0.74968 0.876853
-0.055907 1.08932 -0.338438 2 2.12848 0 192 192 192 255 0.750668 0.869189
-0.275925 1.08932 -0.326961 -0.95444 3.12848 1.2984 192 192 192 255 0.750668 0.869189
-0.20127 1.08932 -0.088178 -1.90888 2 1.59681 192 192 192 255 0.750668 0.869189
-0.055907 1.08932 -0.088178 1 1 2 192 192 192 255 0.750668 0.869189
-0.300303 0 -0.181151 -0.963886 -3 2.26632 192 192 192 255 0.203405 0.061572
0 0 -1 1 -3 -1 192 192 192 255 0.203405 0.061572
0 0 0 2 -2 2 192 192 192 255 0.203405 0.061572
-0.250252 0 0 -1.92777 -1 1.53263 192 192 192 255 0.203405 0.061572
-0.750756 0 0 0.963887 -2 1.26631 192 192 192 255 0.203405 0.061572
-1 0 0 -1 -1 2 192 192 192 255 0.203405 0.061572
-1 0 -1 -2 -3 -2 192 192 192 255 0.203405 0.061572
-0.700706 0 -0.181151 1.92777 -3 1.53262 192 192 192 255 0.203405 0.061572
3 14 15 10 
3 14 10 11 
3 1 7 5 
3 1 5 3 
3 6 0 2 
3 6 2 4 
3 26 27 32 
3 26 32 29 
3 8 9 12 
3 8 12 13 
3 34 35 36 
3 34 36 37 
3 38 39 40 
3 38 40 41 
3 42 43 44 
3 42 44 45 
3 46 47 48 
3 46 48 49 
3 50 51 17 
3 50 17 16 
3 52 53 19 
3 52 19 18 
3 54 52 18 
3 54 18 20 
3 55 54 20 
3 55 20 21 
3 51 56 22 
3 51 22 17 
3 56 57 23 
3 56 23 22 
3 21 23 57 
3 21 57 55 
3 19 53 50 
3 19 50 16 
3 28 58 24 
3 28 24 25 
3 25 24 33 
3 59 60 61 
3 59 61 62 
3 63 64 65 
3 63 65 66 
3 67 68 69 
3 67 69 70 
3 67 70 71 
3 72 73 74 
3 72 74 75 
3 76 77 78 
3 76 78 79 
3 80 81 30 
3 80 30 82 
3 83 84 31 
3 83 31 85 
3 86 87 88 
3 86 88 89 
3 86 89 90 
3 91 58 28 
3 92 93 94 
3 92 94 95 
3 96 97 98 
3 96 98 99 
3 100 101 102 
3 100 102 103 
3 103 102 97 
3 103 97 96 
