ply
format ascii 1.0
comment VCGLIB generated
comment TextureFile SpaceInteriors_Texture.png
element vertex 132
property float x
property float y
property float z
property float nx
property float ny
property float nz
property uchar red
property uchar green
property uchar blue
property uchar alpha
property float texture_u
property float texture_v
element face 100
property list uchar int vertex_indices
end_header
-1.76199 1.25066 0.035103 -1 -1 2 192 192 192 255 0.117418 0.472631
-1.51189 1.25066 0.035103 3 -2 1 192 192 192 255 0.117418 0.472631
-1.76199 1.44302 0.035103 -2 2 1 192 192 192 255 0.117418 0.472631
-1.51189 1.44302 0.035103 3 1 2 192 192 192 255 0.117418 0.472631
-1.76199 1.44302 -0.035103 -1 1 -2 192 192 192 255 0.14096 0.473904
-1.51189 1.44302 -0.035103 3 2 -1 192 192 192 255 0.14096 0.473904
-1.76199 1.25066 -0.035103 -2 -2 -1 192 192 192 255 0.117418 0.472631
-1.51189 1.25066 -0.035103 3 -1 -2 192 192 192 255 0.117418 0.472631
-1.51189 1.27317 -0.020805 3 -1 -2 192 192 192 255 0.117418 0.472631
-1.51189 1.27317 0.020813 3 -2 1 192 192 192 255 0.117418 0.472631
-1.51189 1.42051 -0.020805 3 2 -1 192 192 192 255 0.117418 0.472631
-1.51189 1.42051 0.020813 3 1 2 192 192 192 255 0.117418 0.472631
-1.70956 0.154468 0.072624 -1 3 2 192 192 192 255 0.359202 0.089595
-1.56432 0.154468 0.072624 2 3 1 192 192 192 255 0.359202 0.089595
-1.70956 1.51037 0.072624 -2 2 1 192 192 192 255 0.359202 0.089595
-1.56432 1.51037 0.072624 1 1 2 192 192 192 255 0.359202 0.089595
-1.70956 1.51037 -0.072617 -1 1 -2 192 192 192 255 0.41583 0.088322
-1.56432 1.51037 -0.072617 2 2 -1 192 192 192 255 0.41583 0.088322
-1.70956 0.154468 -0.072617 -2 3 -1 192 192 192 255 0.359202 0.089595
-1.56432 0.154468 -0.072617 1 3 -2 192 192 192 255 0.359202 0.089595
-1.92971 0.154468 -0.292778 -1 3 -2 192 192 192 255 0.41583 0.088322
-1.34417 0.154468 -0.292778 2 3 -1 192 192 192 255 0.41583 0.088322
-1.34417 0.154468 0.292778 1 3 2 192 192 192 255 0.41583 0.088322
-1.92971 0.154468 0.292778 -2 3 1 192 192 192 255 0.41583 0.088322
-1.92971 0 -0.292778 -2 -2 -1 192 192 192 255 0.39356 0.089595
-1.34417 0 -0.292778 1 -1 -2 192 192 192 255 0.39356 0.089595
-1.34417 0 0.292778 2 -2 1 192 192 192 255 0.39356 0.089595
-1.92971 0 0.292778 -1 -1 2 192 192 192 255 0.39356 0.089595
1.76199 1.25066 0.035103 1 -1 2 192 192 192 255 0.117418 0.472631
1.51189 1.25066 0.035103 -3 -2 1 192 192 192 255 0.117418 0.472631
1.76199 1.44302 0.035103 2 2 1 192 192 192 255 0.117418 0.472631
1.51189 1.44302 0.035103 -3 1 2 192 192 192 255 0.117418 0.472631
1.76199 1.44302 -0.035103 1 1 -2 192 192 192 255 0.14096 0.473904
1.51189 1.44302 -0.035103 -3 2 -1 192 192 192 255 0.14096 0.473904
1.76199 1.25066 -0.035103 2 -2 -1 192 192 192 255 0.117418 0.472631
1.51189 1.25066 -0.035103 -3 -1 -2 192 192 192 255 0.117418 0.472631
1.51189 1.27317 -0.020805 -3 -2 -1 192 192 192 255 0.264397 0.169129
1.51189 1.27317 0.020813 -3 -1 2 192 192 192 255 0.264397 0.169129
1.51189 1.42051 -0.020805 -3 1 -2 192 192 192 255 0.264397 0.169129
1.51189 1.42051 0.020813 -3 2 1 192 192 192 255 0.287939 0.170401
1.70956 0.154468 0.072624 1 3 2 192 192 192 255 0.359202 0.089595
1.56432 0.154468 0.072624 -2 3 1 192 192 192 255 0.359202 0.089595
1.70956 1.51037 0.072624 2 2 1 192 192 192 255 0.359202 0.089595
1.56432 1.51037 0.072624 -1 1 2 192 192 192 255 0.359202 0.089595
1.70956 1.51037 -0.072617 1 1 -2 192 192 192 255 0.41583 0.088322
1.56432 1.51037 -0.072617 -2 2 -1 192 192 192 255 0.41583 0.088322
1.70956 0.154468 -0.072617 2 3 -1 192 192 192 255 0.359202 0.089595
1.56432 0.154468 -0.072617 -1 3 -2 192 192 192 255 0.359202 0.089595
1.92971 0.154468 -0.292778 1 3 -2 192 192 192 255 0.41583 0.088322
1.34417 0.154468 -0.292778 -2 3 -1 192 192 192 255 0.41583 0.088322
1.34417 0.154468 0.292778 -1 3 2 192 192 192 255 0.41583 0.088322
1.92971 0.154468 0.292778 2 3 1 192 192 192 255 0.41583 0.088322
1.92971 0 -0.292778 2 -2 -1 192 192 192 255 0.39356 0.089595
1.34417 0 -0.292778 -1 -1 -2 192 192 192 255 0.39356 0.089595
1.34417 0 0.292778 -2 -2 1 192 192 192 255 0.39356 0.089595
1.92971 0 0.292778 1 -1 2 192 192 192 255 0.39356 0.089595
-1.76199 1.44302 0.035103 -2 2 1 192 192 192 255 0.14096 0.473904
-1.51189 1.44302 0.035103 3 1 2 192 192 192 255 0.14096 0.473904
-1.76199 1.44302 -0.035103 -1 1 -2 192 192 192 255 0.117418 0.472631
-1.51189 1.44302 -0.035103 3 2 -1 192 192 192 255 0.117418 0.472631
-1.51189 1.27317 0.020813 3 -2 1 192 192 192 255 0.264397 0.169129
-1.51189 1.27317 -0.020805 3 -1 -2 192 192 192 255 0.264397 0.169129
-1.51189 1.42051 -0.020805 3 2 -1 192 192 192 255 0.264397 0.169129
-1.51189 1.42051 -0.020805 3 2 -1 192 192 192 255 0.287939 0.170401
-1.51189 1.42051 0.020813 3 1 2 192 192 192 255 0.287939 0.170401
1.51189 1.42051 -0.020805 -3 1 -2 192 192 192 255 0.287939 0.170401
-1.51189 1.42051 0.020813 3 1 2 192 192 192 255 0.264397 0.169129
1.51189 1.42051 0.020813 -3 2 1 192 192 192 255 0.264397 0.169129
-1.70956 1.51037 0.072624 -2 2 1 192 192 192 255 0.41583 0.088322
-1.56432 1.51037 0.072624 1 1 2 192 192 192 255 0.41583 0.088322
-1.70956 1.51037 -0.072617 -1 1 -2 192 192 192 255 0.359202 0.089595
-1.56432 1.51037 -0.072617 2 2 -1 192 192 192 255 0.359202 0.089595
-1.56432 0.154468 0.072624 2 3 1 192 192 192 255 0.39356 0.089595
-1.56432 0.154468 -0.072617 1 3 -2 192 192 192 255 0.39356 0.089595
-1.56432 1.51037 -0.072617 2 2 -1 192 192 192 255 0.39356 0.089595
-1.56432 1.51037 0.072624 1 1 2 192 192 192 255 0.39356 0.089595
-1.70956 0.154468 -0.072617 -2 3 -1 192 192 192 255 0.39356 0.089595
-1.70956 0.154468 0.072624 -1 3 2 192 192 192 255 0.39356 0.089595
-1.70956 1.51037 0.072624 -2 2 1 192 192 192 255 0.39356 0.089595
-1.70956 1.51037 -0.072617 -1 1 -2 192 192 192 255 0.39356 0.089595
-1.70956 0.154468 -0.072617 -2 3 -1 192 192 192 255 0.41583 0.088322
-1.56432 0.154468 -0.072617 1 3 -2 192 192 192 255 0.41583 0.088322
-1.56432 0.154468 0.072624 2 3 1 192 192 192 255 0.41583 0.088322
-1.70956 0.154468 0.072624 -1 3 2 192 192 192 255 0.41583 0.088322
-1.92971 0.154468 -0.292778 -1 3 -2 192 192 192 255 0.359202 0.089595
-1.34417 0.154468 -0.292778 2 3 -1 192 192 192 255 0.359202 0.089595
-1.34417 0 -0.292778 1 -1 -2 192 192 192 255 0.359202 0.089595
-1.92971 0 -0.292778 -2 -2 -1 192 192 192 255 0.359202 0.089595
-1.34417 0.154468 -0.292778 2 3 -1 192 192 192 255 0.39356 0.089595
-1.34417 0.154468 0.292778 1 3 2 192 192 192 255 0.39356 0.089595
-1.34417 0.154468 0.292778 1 3 2 192 192 192 255 0.359202 0.089595
-1.92971 0.154468 0.292778 -2 3 1 192 192 192 255 0.359202 0.089595
-1.92971 0 0.292778 -1 -1 2 192 192 192 255 0.359202 0.089595
-1.34417 0 0.292778 2 -2 1 192 192 192 255 0.359202 0.089595
-1.92971 0.154468 0.292778 -2 3 1 192 192 192 255 0.39356 0.089595
-1.92971 0.154468 -0.292778 -1 3 -2 192 192 192 255 0.39356 0.089595
1.76199 1.44302 0.035103 2 2 1 192 192 192 255 0.14096 0.473904
1.51189 1.44302 0.035103 -3 1 2 192 192 192 255 0.14096 0.473904
1.76199 1.44302 -0.035103 1 1 -2 192 192 192 255 0.117418 0.472631
1.51189 1.44302 -0.035103 -3 2 -1 192 192 192 255 0.117418 0.472631
1.51189 1.27317 0.020813 -3 -1 2 192 192 192 255 0.117418 0.472631
1.51189 1.27317 -0.020805 -3 -2 -1 192 192 192 255 0.117418 0.472631
1.51189 1.42051 -0.020805 -3 1 -2 192 192 192 255 0.117418 0.472631
1.51189 1.42051 0.020813 -3 2 1 192 192 192 255 0.117418 0.472631
1.70956 1.51037 0.072624 2 2 1 192 192 192 255 0.41583 0.088322
1.56432 1.51037 0.072624 -1 1 2 192 192 192 255 0.41583 0.088322
1.70956 1.51037 -0.072617 1 1 -2 192 192 192 255 0.359202 0.089595
1.56432 1.51037 -0.072617 -2 2 -1 192 192 192 255 0.359202 0.089595
1.56432 0.154468 0.072624 -2 3 1 192 192 192 255 0.39356 0.089595
1.56432 1.51037 0.072624 -1 1 2 192 192 192 255 0.39356 0.089595
1.56432 1.51037 -0.072617 -2 2 -1 192 192 192 255 0.39356 0.089595
1.56432 0.154468 -0.072617 -1 3 -2 192 192 192 255 0.39356 0.089595
1.70956 0.154468 -0.072617 2 3 -1 192 192 192 255 0.39356 0.089595
1.70956 1.51037 -0.072617 1 1 -2 192 192 192 255 0.39356 0.089595
1.70956 1.51037 0.072624 2 2 1 192 192 192 255 0.39356 0.089595
1.70956 0.154468 0.072624 1 3 2 192 192 192 255 0.39356 0.089595
1.70956 0.154468 -0.072617 2 3 -1 192 192 192 255 0.41583 0.088322
1.56432 0.154468 -0.072617 -1 3 -2 192 192 192 255 0.41583 0.088322
1.56432 0.154468 0.072624 -2 3 1 192 192 192 255 0.41583 0.088322
1.70956 0.154468 0.072624 1 3 2 192 192 192 255 0.41583 0.088322
1.92971 0.154468 -0.292778 1 3 -2 192 192 192 255 0.359202 0.089595
1.92971 0 -0.292778 2 -2 -1 192 192 192 255 0.359202 0.089595
1.34417 0 -0.292778 -1 -1 -2 192 192 192 255 0.359202 0.089595
1.34417 0.154468 -0.292778 -2 3 -1 192 192 192 255 0.359202 0.089595
1.34417 0.154468 -0.292778 -2 3 -1 192 192 192 255 0.39356 0.089595
1.34417 0.154468 0.292778 -1 3 2 192 192 192 255 0.39356 0.089595
1.34417 0.154468 0.292778 -1 3 2 192 192 192 255 0.359202 0.089595
1.34417 0 0.292778 -2 -2 1 192 192 192 255 0.359202 0.089595
1.92971 0 0.292778 1 -1 2 192 192 192 255 0.359202 0.089595
1.92971 0.154468 0.292778 2 3 1 192 192 192 255 0.359202 0.089595
1.92971 0.154468 0.292778 2 3 1 192 192 192 255 0.39356 0.089595
1.92971 0.154468 -0.292778 1 3 -2 192 192 192 255 0.39356 0.089595
3 0 1 3 
3 0 3 2 
3 56 57 5 
3 56 5 4 
3 58 59 7 
3 58 7 6 
3 6 7 1 
3 6 1 0 
3 6 0 2 
3 6 2 58 
3 1 7 8 
3 1 8 9 
3 7 59 10 
3 7 10 8 
3 59 3 11 
3 59 11 10 
3 3 1 9 
3 3 9 11 
3 60 61 36 
3 60 36 37 
3 61 62 38 
3 61 38 36 
3 63 64 39 
3 63 39 65 
3 66 60 37 
3 66 37 67 
3 12 13 15 
3 12 15 14 
3 68 69 17 
3 68 17 16 
3 70 71 19 
3 70 19 18 
3 24 25 26 
3 24 26 27 
3 72 73 74 
3 72 74 75 
3 76 77 78 
3 76 78 79 
3 80 81 21 
3 80 21 20 
3 81 82 22 
3 81 22 21 
3 82 83 23 
3 82 23 22 
3 83 80 20 
3 83 20 23 
3 84 85 86 
3 84 86 87 
3 88 89 26 
3 88 26 25 
3 90 91 92 
3 90 92 93 
3 94 95 24 
3 94 24 27 
3 28 30 31 
3 28 31 29 
3 96 32 33 
3 96 33 97 
3 98 34 35 
3 98 35 99 
3 34 28 29 
3 34 29 35 
3 34 98 30 
3 34 30 28 
3 29 100 101 
3 29 101 35 
3 35 101 102 
3 35 102 99 
3 99 102 103 
3 99 103 31 
3 31 103 100 
3 31 100 29 
3 40 42 43 
3 40 43 41 
3 104 44 45 
3 104 45 105 
3 106 46 47 
3 106 47 107 
3 52 55 54 
3 52 54 53 
3 108 109 110 
3 108 110 111 
3 112 113 114 
3 112 114 115 
3 116 48 49 
3 116 49 117 
3 117 49 50 
3 117 50 118 
3 118 50 51 
3 118 51 119 
3 119 51 48 
3 119 48 116 
3 120 121 122 
3 120 122 123 
3 124 53 54 
3 124 54 125 
3 126 127 128 
3 126 128 129 
3 130 55 52 
3 130 52 131 
