ply
format ascii 1.0
comment VCGLIB generated
comment TextureFile SpaceInteriors_Texture.png
element vertex 48
property float x
property float y
property float z
property float nx
property float ny
property float nz
property uchar red
property uchar green
property uchar blue
property uchar alpha
property float texture_u
property float texture_v
element face 28
property list uchar int vertex_indices
end_header
0 0 -1 1 -1 -2 192 192 192 255 0.264046 0.062866
-1 0 -1 -2 -2 -1 192 192 192 255 0.264046 0.062866
0 0.264526 -1 2 3 -1 192 192 192 255 0.264046 0.062866
-1 0.264526 -1 -1 3 -2 192 192 192 255 0.264046 0.062866
0 0.264526 0 1 3 2 192 192 192 255 0.264046 0.062866
-1 0.264526 0 -2 3 1 192 192 192 255 0.264046 0.062866
0 0 0 2 -2 1 192 192 192 255 0.264046 0.062866
-1 0 0 -1 -1 2 192 192 192 255 0.264046 0.062866
-0.148447 0.264526 -0.851553 -1 3 2 192 192 192 255 0.291671 0.062866
-0.851554 0.264526 -0.851553 2 3 1 192 192 192 255 0.291671 0.062866
-0.851554 0.264526 -0.148447 1 3 -2 192 192 192 255 0.291671 0.062866
-0.148447 0.264526 -0.148447 -2 3 -1 192 192 192 255 0.291671 0.062866
-0.148447 0.175764 -0.851553 -2 2 1 192 192 192 255 0.886057 0.763084
-0.851554 0.175764 -0.851553 1 1 2 192 192 192 255 0.991682 0.763084
-0.851554 0.175764 -0.148447 2 2 -1 192 192 192 255 0.991682 0.874381
-0.148447 0.175764 -0.148447 -1 1 -2 192 192 192 255 0.886057 0.874381
0 0 0 2 -2 1 192 192 192 255 0.199188 0.062866
-1 0 0 -1 -1 2 192 192 192 255 0.199188 0.062866
-1 0 -1 -2 -2 -1 192 192 192 255 0.199188 0.062866
0 0 -1 1 -1 -2 192 192 192 255 0.199188 0.062866
-1 0 -1 -2 -2 -1 192 192 192 255 0.233113 0.062866
-1 0 0 -1 -1 2 192 192 192 255 0.233113 0.062866
-1 0.264526 0 -2 3 1 192 192 192 255 0.233113 0.062866
-1 0.264526 -1 -1 3 -2 192 192 192 255 0.233113 0.062866
0 0 0 2 -2 1 192 192 192 255 0.233113 0.062866
0 0 -1 1 -1 -2 192 192 192 255 0.233113 0.062866
0 0.264526 -1 2 3 -1 192 192 192 255 0.233113 0.062866
0 0.264526 0 1 3 2 192 192 192 255 0.233113 0.062866
0 0.264526 -1 2 3 -1 192 192 192 255 0.291671 0.062866
-1 0.264526 -1 -1 3 -2 192 192 192 255 0.291671 0.062866
-1 0.264526 0 -2 3 1 192 192 192 255 0.291671 0.062866
0 0.264526 0 1 3 2 192 192 192 255 0.291671 0.062866
-0.148447 0.264526 -0.851553 -1 3 2 192 192 192 255 0.269658 0.062866
-0.851554 0.264526 -0.851553 2 3 1 192 192 192 255 0.269658 0.062866
-0.851554 0.175764 -0.851553 1 1 2 192 192 192 255 0.269658 0.062866
-0.148447 0.175764 -0.851553 -2 2 1 192 192 192 255 0.269658 0.062866
-0.851554 0.264526 -0.851553 2 3 1 192 192 192 255 0.235226 0.062866
-0.851554 0.264526 -0.148447 1 3 -2 192 192 192 255 0.235226 0.062866
-0.851554 0.175764 -0.148447 2 2 -1 192 192 192 255 0.235226 0.062866
-0.851554 0.175764 -0.851553 1 1 2 192 192 192 255 0.235226 0.062866
-0.851554 0.264526 -0.148447 1 3 -2 192 192 192 255 0.269658 0.062866
-0.148447 0.264526 -0.148447 -2 3 -1 192 192 192 255 0.269658 0.062866
-0.148447 0.175764 -0.148447 -1 1 -2 192 192 192 255 0.269658 0.062866
-0.851554 0.175764 -0.148447 2 2 -1 192 192 192 255 0.269658 0.062866
-0.148447 0.264526 -0.148447 -2 3 -1 192 192 192 255 0.235226 0.062866
-0.148447 0.264526 -0.851553 -1 3 2 192 192 192 255 0.235226 0.062866
-0.148447 0.175764 -0.851553 -2 2 1 192 192 192 255 0.235226 0.062866
-0.148447 0.175764 -0.148447 -1 1 -2 192 192 192 255 0.235226 0.062866
3 0 1 3 
3 0 3 2 
3 12 13 14 
3 12 14 15 
3 4 5 7 
3 4 7 6 
3 16 17 18 
3 16 18 19 
3 20 21 22 
3 20 22 23 
3 24 25 26 
3 24 26 27 
3 28 29 9 
3 28 9 8 
3 29 30 10 
3 29 10 9 
3 30 31 11 
3 30 11 10 
3 31 28 8 
3 31 8 11 
3 32 33 34 
3 32 34 35 
3 36 37 38 
3 36 38 39 
3 40 41 42 
3 40 42 43 
3 44 45 46 
3 44 46 47 
