ply
format ascii 1.0
comment VCGLIB generated
comment TextureFile SpaceInteriors_Texture.png
element vertex 237
property float x
property float y
property float z
property float nx
property float ny
property float nz
property uchar red
property uchar green
property uchar blue
property uchar alpha
property float texture_u
property float texture_v
element face 135
property list uchar int vertex_indices
end_header
-0.643573 0 0.561848 -1 0 2 192 192 192 255 0.233148 0.061667
0.643577 0 0.561848 3 0 2 192 192 192 255 0.233148 0.061667
-0.643573 0.124396 0.561848 -2 2 1 192 192 192 255 0.233148 0.061667
0.643577 0.124396 0.561848 1 2 1 192 192 192 255 0.233148 0.061667
-0.643573 0.124396 -0.561849 -1 1 -2 192 192 192 255 0.233148 0.061667
0.643577 0.124396 -0.561851 2 1 -2 192 192 192 255 0.233148 0.061667
-0.643573 0 -0.561849 -2 0 -1 192 192 192 255 0.233148 0.061667
0.643577 0 -0.561851 2 0 -1 192 192 192 255 0.233148 0.061667
0.643577 0 -1e-006 1 0 0 192 192 192 255 0.233148 0.061667
-0.514857 0 -0.561849 -3.93614e-006 0 -4 192 192 192 255 0.265187 0.061667
-0.514857 0.124396 -0.561849 -1.96807e-006 4 -2 192 192 192 255 0.668363 0.672883
-0.514857 0.124396 0.561848 0 2 3 192 192 192 255 0.265187 0.061667
-0.514857 0 0.561848 0 0 3 192 192 192 255 0.265187 0.061667
0.514861 0 0.561848 0 0 2 192 192 192 255 0.265187 0.061667
0.514861 0.124396 0.561848 0 3 4 192 192 192 255 0.265187 0.061667
0.514861 0.124396 -0.561851 -3.93614e-006 3 -3 192 192 192 255 0.748572 0.672883
0.514861 0 -0.561851 -1.96807e-006 0 -3 192 192 192 255 0.265187 0.061667
-0.747716 0.283113 0.735727 -3 2 1 192 192 192 255 0.267261 0.061667
-0.661495 0.283113 0.735727 3 1 2 192 192 192 255 0.267261 0.061667
-0.747716 0.283113 -0.735727 -3 1 -2 192 192 192 255 0.267261 0.061667
-0.661495 0.283113 -0.735727 3 2 -1 192 192 192 255 0.267261 0.061667
-0.747716 0.196892 -0.647318 -3 -2 1 192 192 192 255 0.267261 0.061667
-0.661495 0.196892 -0.647318 3 -1 2 192 192 192 255 0.267261 0.061667
-0.747716 0.196892 0.647318 -3 -1 -2 192 192 192 255 0.267261 0.061667
-0.661495 0.196892 0.647318 3 -2 -1 192 192 192 255 0.267261 0.061667
-0.747716 0.058773 -0.735727 -2 3 -1 192 192 192 255 0.300052 0.061667
-0.661495 0.058773 -0.735727 1 3 -2 192 192 192 255 0.300052 0.061667
-0.661495 0.058773 -0.647318 2 3 1 192 192 192 255 0.240032 0.061667
-0.747716 0.058773 -0.647318 -1 3 2 192 192 192 255 0.198113 0.061667
-0.747716 0.058773 0.647318 -2 3 -1 192 192 192 255 0.29711 0.061667
-0.661495 0.058773 0.647318 1 3 -2 192 192 192 255 0.29711 0.061667
-0.661495 0.058773 0.735727 2 3 1 192 192 192 255 0.244197 0.061667
-0.747716 0.058773 0.735727 -1 3 2 192 192 192 255 0.200168 0.061667
-0.775563 0.058773 -0.76428 -1 3 -2 192 192 192 255 0.26373 0.062198
-0.633651 0.058773 -0.76428 2 3 -1 192 192 192 255 0.26373 0.062198
-0.633651 0.058773 -0.618765 1 3 2 192 192 192 255 0.26373 0.062198
-0.775563 0.058773 -0.618765 -2 3 1 192 192 192 255 0.26373 0.062198
-0.775562 0.058773 0.618765 -1 3 -2 192 192 192 255 0.26373 0.062198
-0.633648 0.058773 0.618765 2 3 -1 192 192 192 255 0.26373 0.062198
-0.633648 0.058773 0.76428 1 3 2 192 192 192 255 0.26373 0.062198
-0.775562 0.058773 0.76428 -2 3 1 192 192 192 255 0.26373 0.062198
-0.775563 0 -0.76428 -2 0 -1 192 192 192 255 0.297952 0.062198
-0.633651 0 -0.76428 1 0 -2 192 192 192 255 0.297952 0.062198
-0.633651 0 -0.618765 2 0 1 192 192 192 255 0.235124 0.062198
-0.775563 0 -0.618765 -1 0 2 192 192 192 255 0.209288 0.062198
-0.775562 0 0.618765 -2 0 -1 192 192 192 255 0.297952 0.062198
-0.633648 0 0.618765 1 0 -2 192 192 192 255 0.297952 0.062198
-0.633648 0 0.76428 2 0 1 192 192 192 255 0.235124 0.062198
-0.775562 0 0.76428 -1 0 2 192 192 192 255 0.209288 0.062198
0.661496 0.283113 0.735727 -3 2 1 192 192 192 255 0.267261 0.061667
0.747717 0.283113 0.735727 3 1 2 192 192 192 255 0.267261 0.061667
0.661496 0.283113 -0.735727 -3 1 -2 192 192 192 255 0.267261 0.061667
0.747717 0.283113 -0.735727 3 2 -1 192 192 192 255 0.267261 0.061667
0.661496 0.196892 -0.647318 -3 -2 1 192 192 192 255 0.267261 0.061667
0.747717 0.196892 -0.647318 3 -1 2 192 192 192 255 0.267261 0.061667
0.661496 0.196892 0.647318 -3 -1 -2 192 192 192 255 0.267261 0.061667
0.747717 0.196892 0.647318 3 -2 -1 192 192 192 255 0.267261 0.061667
0.661496 0.058773 -0.735727 -2 3 -1 192 192 192 255 0.300052 0.061667
0.747717 0.058773 -0.735727 1 3 -2 192 192 192 255 0.300052 0.061667
0.747717 0.058773 -0.647318 2 3 1 192 192 192 255 0.240032 0.061667
0.661496 0.058773 -0.647318 -1 3 2 192 192 192 255 0.198113 0.061667
0.661496 0.058773 0.647318 -2 3 -1 192 192 192 255 0.29711 0.061667
0.747717 0.058773 0.647318 1 3 -2 192 192 192 255 0.29711 0.061667
0.747717 0.058773 0.735727 2 3 1 192 192 192 255 0.244197 0.061667
0.661496 0.058773 0.735727 -1 3 2 192 192 192 255 0.200168 0.061667
0.633649 0.058773 -0.76428 -1 3 -2 192 192 192 255 0.26373 0.062198
0.775561 0.058773 -0.76428 2 3 -1 192 192 192 255 0.26373 0.062198
0.775561 0.058773 -0.618765 1 3 2 192 192 192 255 0.26373 0.062198
0.633649 0.058773 -0.618765 -2 3 1 192 192 192 255 0.26373 0.062198
0.63365 0.058773 0.618765 -1 3 -2 192 192 192 255 0.26373 0.062198
0.775564 0.058773 0.618765 2 3 -1 192 192 192 255 0.26373 0.062198
0.775564 0.058773 0.76428 1 3 2 192 192 192 255 0.26373 0.062198
0.63365 0.058773 0.76428 -2 3 1 192 192 192 255 0.26373 0.062198
0.633649 0 -0.76428 -2 0 -1 192 192 192 255 0.297952 0.062198
0.775561 0 -0.76428 1 0 -2 192 192 192 255 0.297952 0.062198
0.775561 0 -0.618765 2 0 1 192 192 192 255 0.235124 0.062198
0.633649 0 -0.618765 -1 0 2 192 192 192 255 0.209288 0.062198
0.63365 0 0.618765 -2 0 -1 192 192 192 255 0.297952 0.062198
0.775564 0 0.618765 1 0 -2 192 192 192 255 0.297952 0.062198
0.775564 0 0.76428 2 0 1 192 192 192 255 0.235124 0.062198
0.63365 0 0.76428 -1 0 2 192 192 192 255 0.209288 0.062198
0.514861 0.124396 0.561848 0 3 4 192 192 192 255 0.748572 0.592606
-0.514857 0.124396 0.561848 0 2 3 192 192 192 255 0.668363 0.592606
0.514861 0.124396 -0.561851 -3.93614e-006 3 -3 192 192 192 255 0.265187 0.061667
-0.514857 0.124396 -0.561849 -1.96807e-006 4 -2 192 192 192 255 0.265187 0.061667
-0.643573 0.124396 -0.561849 -1 1 -2 192 192 192 255 0.830804 0.555149
-0.514857 0.124396 -0.561849 -1.96807e-006 4 -2 192 192 192 255 0.830804 0.555149
-0.514857 0 -0.561849 -3.93614e-006 0 -4 192 192 192 255 0.830804 0.555149
-0.643573 0 -0.561849 -2 0 -1 192 192 192 255 0.830804 0.555149
-0.643573 0.124396 0.561848 -2 2 1 192 192 192 255 0.978349 0.548121
-0.514857 0.124396 0.561848 0 2 3 192 192 192 255 0.978349 0.563377
-0.514857 0.124396 -0.561849 -1.96807e-006 4 -2 192 192 192 255 0.797565 0.563377
-0.643573 0.124396 -0.561849 -1 1 -2 192 192 192 255 0.797565 0.548121
-0.643573 0 0.561848 -1 0 2 192 192 192 255 0.811893 0.551867
-0.514857 0 0.561848 0 0 3 192 192 192 255 0.811892 0.551867
-0.514857 0.124396 0.561848 0 2 3 192 192 192 255 0.811892 0.551867
-0.643573 0.124396 0.561848 -2 2 1 192 192 192 255 0.811893 0.551867
0.514861 0.124396 0.561848 0 3 4 192 192 192 255 0.811893 0.551867
0.514861 0 0.561848 0 0 2 192 192 192 255 0.811893 0.551867
0.643577 0 0.561848 3 0 2 192 192 192 255 0.811893 0.551867
0.643577 0.124396 0.561848 1 2 1 192 192 192 255 0.811893 0.551867
0.514861 0.124396 -0.561851 -3.93614e-006 3 -3 192 192 192 255 0.797565 0.548121
0.514861 0.124396 0.561848 0 3 4 192 192 192 255 0.978349 0.548121
0.643577 0.124396 0.561848 1 2 1 192 192 192 255 0.978349 0.563376
0.643577 0.124396 -0.561851 2 1 -2 192 192 192 255 0.797565 0.563376
0.514861 0 -0.561851 -1.96807e-006 0 -3 192 192 192 255 0.830804 0.555149
0.514861 0.124396 -0.561851 -3.93614e-006 3 -3 192 192 192 255 0.830804 0.555149
0.643577 0.124396 -0.561851 2 1 -2 192 192 192 255 0.830804 0.555149
0.643577 0 -0.561851 2 0 -1 192 192 192 255 0.830804 0.555149
-0.661495 0.283113 0.735727 3 1 2 192 192 192 255 0.233148 0.061667
-0.661495 0.196892 0.647318 3 -2 -1 192 192 192 255 0.233148 0.061667
-0.661495 0.196892 -0.647318 3 -1 2 192 192 192 255 0.233148 0.061667
-0.661495 0.283113 -0.735727 3 2 -1 192 192 192 255 0.233148 0.061667
-0.747716 0.196892 0.647318 -3 -1 -2 192 192 192 255 0.233148 0.061667
-0.747716 0.283113 0.735727 -3 2 1 192 192 192 255 0.233148 0.061667
-0.747716 0.283113 -0.735727 -3 1 -2 192 192 192 255 0.233148 0.061667
-0.747716 0.196892 -0.647318 -3 -2 1 192 192 192 255 0.233148 0.061667
-0.747716 0.283113 -0.735727 -3 1 -2 192 192 192 255 0.300052 0.061667
-0.661495 0.283113 -0.735727 3 2 -1 192 192 192 255 0.300052 0.061667
-0.661495 0.283113 -0.735727 3 2 -1 192 192 192 255 0.240032 0.061667
-0.661495 0.196892 -0.647318 3 -1 2 192 192 192 255 0.240032 0.061667
-0.661495 0.058773 -0.735727 1 3 -2 192 192 192 255 0.240032 0.061667
-0.661495 0.196892 -0.647318 3 -1 2 192 192 192 255 0.198113 0.061667
-0.747716 0.196892 -0.647318 -3 -2 1 192 192 192 255 0.198113 0.061667
-0.661495 0.058773 -0.647318 2 3 1 192 192 192 255 0.198113 0.061667
-0.747716 0.196892 -0.647318 -3 -2 1 192 192 192 255 0.240032 0.061667
-0.747716 0.283113 -0.735727 -3 1 -2 192 192 192 255 0.240032 0.061667
-0.747716 0.058773 -0.735727 -2 3 -1 192 192 192 255 0.240032 0.061667
-0.747716 0.058773 -0.647318 -1 3 2 192 192 192 255 0.240032 0.061667
-0.747716 0.196892 0.647318 -3 -1 -2 192 192 192 255 0.29711 0.061667
-0.661495 0.196892 0.647318 3 -2 -1 192 192 192 255 0.29711 0.061667
-0.661495 0.196892 0.647318 3 -2 -1 192 192 192 255 0.244197 0.061667
-0.661495 0.283113 0.735727 3 1 2 192 192 192 255 0.244197 0.061667
-0.661495 0.058773 0.647318 1 3 -2 192 192 192 255 0.244197 0.061667
-0.661495 0.283113 0.735727 3 1 2 192 192 192 255 0.200168 0.061667
-0.747716 0.283113 0.735727 -3 2 1 192 192 192 255 0.200168 0.061667
-0.661495 0.058773 0.735727 2 3 1 192 192 192 255 0.200168 0.061667
-0.747716 0.283113 0.735727 -3 2 1 192 192 192 255 0.244197 0.061667
-0.747716 0.196892 0.647318 -3 -1 -2 192 192 192 255 0.244197 0.061667
-0.747716 0.058773 0.647318 -2 3 -1 192 192 192 255 0.244197 0.061667
-0.747716 0.058773 0.735727 -1 3 2 192 192 192 255 0.244197 0.061667
-0.747716 0.058773 -0.735727 -2 3 -1 192 192 192 255 0.26373 0.062198
-0.661495 0.058773 -0.735727 1 3 -2 192 192 192 255 0.26373 0.062198
-0.661495 0.058773 -0.647318 2 3 1 192 192 192 255 0.26373 0.062198
-0.747716 0.058773 -0.647318 -1 3 2 192 192 192 255 0.26373 0.062198
-0.747716 0.058773 0.647318 -2 3 -1 192 192 192 255 0.26373 0.062198
-0.661495 0.058773 0.647318 1 3 -2 192 192 192 255 0.26373 0.062198
-0.661495 0.058773 0.735727 2 3 1 192 192 192 255 0.26373 0.062198
-0.747716 0.058773 0.735727 -1 3 2 192 192 192 255 0.26373 0.062198
-0.775563 0.058773 -0.76428 -1 3 -2 192 192 192 255 0.297952 0.062198
-0.633651 0.058773 -0.76428 2 3 -1 192 192 192 255 0.297952 0.062198
-0.633651 0.058773 -0.76428 2 3 -1 192 192 192 255 0.235124 0.062198
-0.633651 0.058773 -0.618765 1 3 2 192 192 192 255 0.235124 0.062198
-0.633651 0 -0.76428 1 0 -2 192 192 192 255 0.235124 0.062198
-0.633651 0.058773 -0.618765 1 3 2 192 192 192 255 0.209288 0.062198
-0.775563 0.058773 -0.618765 -2 3 1 192 192 192 255 0.209288 0.062198
-0.633651 0 -0.618765 2 0 1 192 192 192 255 0.209288 0.062198
-0.775563 0.058773 -0.618765 -2 3 1 192 192 192 255 0.235124 0.062198
-0.775563 0.058773 -0.76428 -1 3 -2 192 192 192 255 0.235124 0.062198
-0.775563 0 -0.76428 -2 0 -1 192 192 192 255 0.235124 0.062198
-0.775563 0 -0.618765 -1 0 2 192 192 192 255 0.235124 0.062198
-0.775562 0.058773 0.618765 -1 3 -2 192 192 192 255 0.297952 0.062198
-0.633648 0.058773 0.618765 2 3 -1 192 192 192 255 0.297952 0.062198
-0.633648 0.058773 0.618765 2 3 -1 192 192 192 255 0.235124 0.062198
-0.633648 0.058773 0.76428 1 3 2 192 192 192 255 0.235124 0.062198
-0.633648 0 0.618765 1 0 -2 192 192 192 255 0.235124 0.062198
-0.633648 0.058773 0.76428 1 3 2 192 192 192 255 0.209288 0.062198
-0.775562 0.058773 0.76428 -2 3 1 192 192 192 255 0.209288 0.062198
-0.633648 0 0.76428 2 0 1 192 192 192 255 0.209288 0.062198
-0.775562 0.058773 0.76428 -2 3 1 192 192 192 255 0.235124 0.062198
-0.775562 0.058773 0.618765 -1 3 -2 192 192 192 255 0.235124 0.062198
-0.775562 0 0.618765 -2 0 -1 192 192 192 255 0.235124 0.062198
-0.775562 0 0.76428 -1 0 2 192 192 192 255 0.235124 0.062198
0.747717 0.283113 0.735727 3 1 2 192 192 192 255 0.233148 0.061667
0.747717 0.196892 0.647318 3 -2 -1 192 192 192 255 0.233148 0.061667
0.747717 0.196892 -0.647318 3 -1 2 192 192 192 255 0.233148 0.061667
0.747717 0.283113 -0.735727 3 2 -1 192 192 192 255 0.233148 0.061667
0.661496 0.196892 0.647318 -3 -1 -2 192 192 192 255 0.233148 0.061667
0.661496 0.283113 0.735727 -3 2 1 192 192 192 255 0.233148 0.061667
0.661496 0.283113 -0.735727 -3 1 -2 192 192 192 255 0.233148 0.061667
0.661496 0.196892 -0.647318 -3 -2 1 192 192 192 255 0.233148 0.061667
0.661496 0.283113 -0.735727 -3 1 -2 192 192 192 255 0.300052 0.061667
0.747717 0.283113 -0.735727 3 2 -1 192 192 192 255 0.300052 0.061667
0.747717 0.283113 -0.735727 3 2 -1 192 192 192 255 0.240032 0.061667
0.747717 0.196892 -0.647318 3 -1 2 192 192 192 255 0.240032 0.061667
0.747717 0.058773 -0.735727 1 3 -2 192 192 192 255 0.240032 0.061667
0.747717 0.196892 -0.647318 3 -1 2 192 192 192 255 0.198113 0.061667
0.661496 0.196892 -0.647318 -3 -2 1 192 192 192 255 0.198113 0.061667
0.747717 0.058773 -0.647318 2 3 1 192 192 192 255 0.198113 0.061667
0.661496 0.196892 -0.647318 -3 -2 1 192 192 192 255 0.240032 0.061667
0.661496 0.283113 -0.735727 -3 1 -2 192 192 192 255 0.240032 0.061667
0.661496 0.058773 -0.735727 -2 3 -1 192 192 192 255 0.240032 0.061667
0.661496 0.058773 -0.647318 -1 3 2 192 192 192 255 0.240032 0.061667
0.661496 0.196892 0.647318 -3 -1 -2 192 192 192 255 0.29711 0.061667
0.747717 0.196892 0.647318 3 -2 -1 192 192 192 255 0.29711 0.061667
0.747717 0.196892 0.647318 3 -2 -1 192 192 192 255 0.244197 0.061667
0.747717 0.283113 0.735727 3 1 2 192 192 192 255 0.244197 0.061667
0.747717 0.058773 0.647318 1 3 -2 192 192 192 255 0.244197 0.061667
0.747717 0.283113 0.735727 3 1 2 192 192 192 255 0.200168 0.061667
0.661496 0.283113 0.735727 -3 2 1 192 192 192 255 0.200168 0.061667
0.747717 0.058773 0.735727 2 3 1 192 192 192 255 0.200168 0.061667
0.661496 0.283113 0.735727 -3 2 1 192 192 192 255 0.244197 0.061667
0.661496 0.196892 0.647318 -3 -1 -2 192 192 192 255 0.244197 0.061667
0.661496 0.058773 0.647318 -2 3 -1 192 192 192 255 0.244197 0.061667
0.661496 0.058773 0.735727 -1 3 2 192 192 192 255 0.244197 0.061667
0.661496 0.058773 -0.735727 -2 3 -1 192 192 192 255 0.26373 0.062198
0.747717 0.058773 -0.735727 1 3 -2 192 192 192 255 0.26373 0.062198
0.747717 0.058773 -0.647318 2 3 1 192 192 192 255 0.26373 0.062198
0.661496 0.058773 -0.647318 -1 3 2 192 192 192 255 0.26373 0.062198
0.661496 0.058773 0.647318 -2 3 -1 192 192 192 255 0.26373 0.062198
0.747717 0.058773 0.647318 1 3 -2 192 192 192 255 0.26373 0.062198
0.747717 0.058773 0.735727 2 3 1 192 192 192 255 0.26373 0.062198
0.661496 0.058773 0.735727 -1 3 2 192 192 192 255 0.26373 0.062198
0.633649 0.058773 -0.76428 -1 3 -2 192 192 192 255 0.297952 0.062198
0.775561 0.058773 -0.76428 2 3 -1 192 192 192 255 0.297952 0.062198
0.775561 0.058773 -0.76428 2 3 -1 192 192 192 255 0.235124 0.062198
0.775561 0.058773 -0.618765 1 3 2 192 192 192 255 0.235124 0.062198
0.775561 0 -0.76428 1 0 -2 192 192 192 255 0.235124 0.062198
0.775561 0.058773 -0.618765 1 3 2 192 192 192 255 0.209288 0.062198
0.633649 0.058773 -0.618765 -2 3 1 192 192 192 255 0.209288 0.062198
0.775561 0 -0.618765 2 0 1 192 192 192 255 0.209288 0.062198
0.633649 0.058773 -0.618765 -2 3 1 192 192 192 255 0.235124 0.062198
0.633649 0.058773 -0.76428 -1 3 -2 192 192 192 255 0.235124 0.062198
0.633649 0 -0.76428 -2 0 -1 192 192 192 255 0.235124 0.062198
0.633649 0 -0.618765 -1 0 2 192 192 192 255 0.235124 0.062198
0.63365 0.058773 0.618765 -1 3 -2 192 192 192 255 0.297952 0.062198
0.775564 0.058773 0.618765 2 3 -1 192 192 192 255 0.297952 0.062198
0.775564 0.058773 0.618765 2 3 -1 192 192 192 255 0.235124 0.062198
0.775564 0.058773 0.76428 1 3 2 192 192 192 255 0.235124 0.062198
0.775564 0 0.618765 1 0 -2 192 192 192 255 0.235124 0.062198
0.775564 0.058773 0.76428 1 3 2 192 192 192 255 0.209288 0.062198
0.63365 0.058773 0.76428 -2 3 1 192 192 192 255 0.209288 0.062198
0.775564 0 0.76428 2 0 1 192 192 192 255 0.209288 0.062198
0.63365 0.058773 0.76428 -2 3 1 192 192 192 255 0.235124 0.062198
0.63365 0.058773 0.618765 -1 3 -2 192 192 192 255 0.235124 0.062198
0.63365 0 0.618765 -2 0 -1 192 192 192 255 0.235124 0.062198
0.63365 0 0.76428 -1 0 2 192 192 192 255 0.235124 0.062198
3 12 13 14 
3 12 14 11 
3 81 15 10 
3 81 10 82 
3 83 16 9 
3 83 9 84 
3 1 8 7 
3 1 7 5 
3 1 5 3 
3 6 0 2 
3 6 2 4 
3 85 86 87 
3 85 87 88 
3 89 90 91 
3 89 91 92 
3 93 94 95 
3 93 95 96 
3 97 98 99 
3 97 99 100 
3 101 102 103 
3 101 103 104 
3 105 106 107 
3 105 107 108 
3 17 18 20 
3 17 20 19 
3 21 22 24 
3 21 24 23 
3 109 110 111 
3 109 111 112 
3 113 114 115 
3 113 115 116 
3 117 118 26 
3 117 26 25 
3 119 120 27 
3 119 27 121 
3 122 123 28 
3 122 28 124 
3 125 126 127 
3 125 127 128 
3 129 130 30 
3 129 30 29 
3 131 132 31 
3 131 31 133 
3 134 135 32 
3 134 32 136 
3 137 138 139 
3 137 139 140 
3 141 142 34 
3 141 34 33 
3 142 143 35 
3 142 35 34 
3 143 144 36 
3 143 36 35 
3 144 141 33 
3 144 33 36 
3 145 146 38 
3 145 38 37 
3 146 147 39 
3 146 39 38 
3 147 148 40 
3 147 40 39 
3 148 145 37 
3 148 37 40 
3 149 150 42 
3 149 42 41 
3 151 152 43 
3 151 43 153 
3 154 155 44 
3 154 44 156 
3 157 158 159 
3 157 159 160 
3 161 162 46 
3 161 46 45 
3 163 164 47 
3 163 47 165 
3 166 167 48 
3 166 48 168 
3 169 170 171 
3 169 171 172 
3 49 50 52 
3 49 52 51 
3 53 54 56 
3 53 56 55 
3 173 174 175 
3 173 175 176 
3 177 178 179 
3 177 179 180 
3 181 182 58 
3 181 58 57 
3 183 184 59 
3 183 59 185 
3 186 187 60 
3 186 60 188 
3 189 190 191 
3 189 191 192 
3 193 194 62 
3 193 62 61 
3 195 196 63 
3 195 63 197 
3 198 199 64 
3 198 64 200 
3 201 202 203 
3 201 203 204 
3 205 206 66 
3 205 66 65 
3 206 207 67 
3 206 67 66 
3 207 208 68 
3 207 68 67 
3 208 205 65 
3 208 65 68 
3 209 210 70 
3 209 70 69 
3 210 211 71 
3 210 71 70 
3 211 212 72 
3 211 72 71 
3 212 209 69 
3 212 69 72 
3 213 214 74 
3 213 74 73 
3 215 216 75 
3 215 75 217 
3 218 219 76 
3 218 76 220 
3 221 222 223 
3 221 223 224 
3 225 226 78 
3 225 78 77 
3 227 228 79 
3 227 79 229 
3 230 231 80 
3 230 80 232 
3 233 234 235 
3 233 235 236 
