ply
format ascii 1.0
comment VCGLIB generated
comment TextureFile SpaceInteriors_Texture.png
element vertex 60
property float x
property float y
property float z
property float nx
property float ny
property float nz
property uchar red
property uchar green
property uchar blue
property uchar alpha
property float texture_u
property float texture_v
element face 44
property list uchar int vertex_indices
end_header
-0.049481 0.053909 0.049481 -2.88406 -1.00658 2.94203 192 192 192 255 0.419792 0.085437
0.049481 0.053909 0.049481 2.94203 -1.00658 2.88406 192 192 192 255 0.419792 0.085437
-0.049481 0.431002 0.049481 -2 -3 1 192 192 192 255 0.419792 0.085437
0.049481 0.431002 0.049481 1 -3 2 192 192 192 255 0.419792 0.085437
-0.049481 0.431002 -0.049481 -1 -3 -2 192 192 192 255 0.419792 0.085437
0.049481 0.431002 -0.049481 2 -3 -1 192 192 192 255 0.419792 0.085437
-0.049481 0.053909 -0.049481 -2.94203 -1.00658 -2.88406 192 192 192 255 0.419792 0.085437
0.049481 0.053909 -0.049481 2.88406 -1.00658 -2.94203 192 192 192 255 0.419792 0.085437
-0.067605 0.431002 0.067606 -1 -3 2 192 192 192 255 0.358816 0.084728
0.067605 0.431002 0.067606 2 -3 1 192 192 192 255 0.358816 0.084728
0.067605 0.431002 -0.067606 1 -3 -2 192 192 192 255 0.358816 0.084728
-0.067605 0.431002 -0.067606 -2 -3 -1 192 192 192 255 0.358816 0.084728
-0.067605 0.469296 0.067606 -2 3 1 192 192 192 255 0.419792 0.085437
0.067605 0.469296 0.067606 1 3 2 192 192 192 255 0.419792 0.085437
0.067605 0.469296 -0.067606 2 3 -1 192 192 192 255 0.387177 0.087564
-0.067605 0.469296 -0.067606 -1 3 -2 192 192 192 255 0.419792 0.085437
-0.04306 0.469296 0.04306 0 5 0 192 192 192 255 0.299222 0.083264
0.043061 0.469296 0.04306 0 4 0 192 192 192 255 0.299222 0.083264
0.043061 0.469296 -0.043059 0 5 0 192 192 192 255 0.299222 0.083264
-0.04306 0.469296 -0.043059 0 4 0 192 192 192 255 0.299222 0.083264
-0.03028 0 -0.03028 -1.88406 -3.00658 -0.942031 192 192 192 255 0.419792 0.085437
0.03028 0 -0.03028 0.942031 -2.00658 -1.88406 192 192 192 255 0.419792 0.085437
0.03028 0 0.03028 1.88406 -3.00658 0.942031 192 192 192 255 0.419792 0.085437
-0.03028 0 0.03028 -0.942031 -2.00658 1.88406 192 192 192 255 0.419792 0.085437
0.049481 0.053909 0.049481 2.94203 -1.00658 2.88406 192 192 192 255 0.387177 0.087564
0.049481 0.053909 -0.049481 2.88406 -1.00658 -2.94203 192 192 192 255 0.387177 0.087564
0.049481 0.431002 -0.049481 2 -3 -1 192 192 192 255 0.387177 0.087564
0.049481 0.431002 0.049481 1 -3 2 192 192 192 255 0.387177 0.087564
-0.049481 0.053909 -0.049481 -2.94203 -1.00658 -2.88406 192 192 192 255 0.387177 0.087564
-0.049481 0.053909 0.049481 -2.88406 -1.00658 2.94203 192 192 192 255 0.387177 0.087564
-0.049481 0.431002 0.049481 -2 -3 1 192 192 192 255 0.387177 0.087564
-0.049481 0.431002 -0.049481 -1 -3 -2 192 192 192 255 0.387177 0.087564
-0.049481 0.431002 0.049481 -2 -3 1 192 192 192 255 0.358816 0.084728
0.049481 0.431002 0.049481 1 -3 2 192 192 192 255 0.358816 0.084728
0.049481 0.431002 -0.049481 2 -3 -1 192 192 192 255 0.358816 0.084728
-0.049481 0.431002 -0.049481 -1 -3 -2 192 192 192 255 0.358816 0.084728
-0.067605 0.431002 0.067606 -1 -3 2 192 192 192 255 0.419792 0.085437
0.067605 0.431002 0.067606 2 -3 1 192 192 192 255 0.419792 0.085437
0.067605 0.431002 0.067606 2 -3 1 192 192 192 255 0.387177 0.087564
0.067605 0.431002 -0.067606 1 -3 -2 192 192 192 255 0.387177 0.087564
0.067605 0.469296 0.067606 1 3 2 192 192 192 255 0.387177 0.087564
0.067605 0.431002 -0.067606 1 -3 -2 192 192 192 255 0.419792 0.085437
-0.067605 0.431002 -0.067606 -2 -3 -1 192 192 192 255 0.419792 0.085437
0.067605 0.469296 -0.067606 2 3 -1 192 192 192 255 0.419792 0.085437
-0.067605 0.431002 -0.067606 -2 -3 -1 192 192 192 255 0.387177 0.087564
-0.067605 0.431002 0.067606 -1 -3 2 192 192 192 255 0.387177 0.087564
-0.067605 0.469296 0.067606 -2 3 1 192 192 192 255 0.387177 0.087564
-0.067605 0.469296 -0.067606 -1 3 -2 192 192 192 255 0.387177 0.087564
-0.067605 0.469296 0.067606 -2 3 1 192 192 192 255 0.448862 0.086855
0.067605 0.469296 0.067606 1 3 2 192 192 192 255 0.448862 0.086855
0.043061 0.469296 0.04306 0 4 0 192 192 192 255 0.448862 0.086855
-0.04306 0.469296 0.04306 0 5 0 192 192 192 255 0.448862 0.086855
0.067605 0.469296 -0.067606 2 3 -1 192 192 192 255 0.448862 0.086855
0.043061 0.469296 -0.043059 0 5 0 192 192 192 255 0.448862 0.086855
-0.067605 0.469296 -0.067606 -1 3 -2 192 192 192 255 0.448862 0.086855
-0.04306 0.469296 -0.043059 0 4 0 192 192 192 255 0.448862 0.086855
0.03028 0 0.03028 1.88406 -3.00658 0.942031 192 192 192 255 0.387177 0.087564
0.03028 0 -0.03028 0.942031 -2.00658 -1.88406 192 192 192 255 0.387177 0.087564
-0.03028 0 -0.03028 -1.88406 -3.00658 -0.942031 192 192 192 255 0.387177 0.087564
-0.03028 0 0.03028 -0.942031 -2.00658 1.88406 192 192 192 255 0.387177 0.087564
3 0 1 3 
3 0 3 2 
3 16 17 18 
3 16 18 19 
3 4 5 7 
3 4 7 6 
3 20 21 22 
3 20 22 23 
3 24 25 26 
3 24 26 27 
3 28 29 30 
3 28 30 31 
3 32 33 9 
3 32 9 8 
3 33 34 10 
3 33 10 9 
3 34 35 11 
3 34 11 10 
3 35 32 8 
3 35 8 11 
3 36 37 13 
3 36 13 12 
3 38 39 14 
3 38 14 40 
3 41 42 15 
3 41 15 43 
3 44 45 46 
3 44 46 47 
3 48 49 50 
3 48 50 51 
3 49 52 53 
3 49 53 50 
3 52 54 55 
3 52 55 53 
3 54 48 51 
3 54 51 55 
3 6 7 21 
3 6 21 20 
3 25 24 56 
3 25 56 57 
3 1 0 23 
3 1 23 22 
3 29 28 58 
3 29 58 59 
