ply
format ascii 1.0
comment VCGLIB generated
comment TextureFile SpaceInteriors_Texture.png
element vertex 20
property float x
property float y
property float z
property float nx
property float ny
property float nz
property uchar red
property uchar green
property uchar blue
property uchar alpha
property float texture_u
property float texture_v
element face 10
property list uchar int vertex_indices
end_header
0.852848 0.123591 -0.190151 2 1 -1 192 192 192 255 0.746944 0.493584
0.852848 0.123591 0.190151 1 2 2 192 192 192 255 0.746944 0.450618
-0.852848 0.123591 -0.190151 -1 2 -2 192 192 192 255 0.530953 0.493584
-0.852848 0.123591 0.190151 -2 1 1 192 192 192 255 0.530953 0.450618
-0.852848 0 -0.190151 -2 0 -1 192 192 192 255 0.877579 0.406055
0.852848 0 -0.190151 1 0 -2 192 192 192 255 0.877579 0.406055
0.852848 0 0.190151 2 0 1 192 192 192 255 0.877579 0.406055
-0.852848 0 0.190151 -1 0 2 192 192 192 255 0.877579 0.406055
-0.852848 0.123591 -0.190151 -1 2 -2 192 192 192 255 0.877579 0.406055
0.852848 0.123591 -0.190151 2 1 -1 192 192 192 255 0.877579 0.406055
0.852848 0.123591 0.190151 1 2 2 192 192 192 255 0.877579 0.406055
-0.852848 0.123591 0.190151 -2 1 1 192 192 192 255 0.877579 0.406055
0.852848 0.123591 -0.190151 2 1 -1 192 192 192 255 0.892889 0.406055
0.852848 0.123591 0.190151 1 2 2 192 192 192 255 0.892889 0.406055
0.852848 0 0.190151 2 0 1 192 192 192 255 0.892889 0.406055
0.852848 0 -0.190151 1 0 -2 192 192 192 255 0.892889 0.406055
-0.852848 0.123591 0.190151 -2 1 1 192 192 192 255 0.892889 0.406055
-0.852848 0.123591 -0.190151 -1 2 -2 192 192 192 255 0.892889 0.406055
-0.852848 0 -0.190151 -2 0 -1 192 192 192 255 0.892889 0.406055
-0.852848 0 0.190151 -1 0 2 192 192 192 255 0.892889 0.406055
3 1 0 2 
3 1 2 3 
3 5 4 8 
3 5 8 9 
3 7 6 10 
3 7 10 11 
3 12 13 14 
3 12 14 15 
3 16 17 18 
3 16 18 19 
