ply
format ascii 1.0
comment VCGLIB generated
comment TextureFile SpaceInteriors_Texture.png
element vertex 88
property float x
property float y
property float z
property float nx
property float ny
property float nz
property uchar red
property uchar green
property uchar blue
property uchar alpha
property float texture_u
property float texture_v
element face 68
property list uchar int vertex_indices
end_header
-0.500347 0.054662 0.612022 -3.00003 1.07183 2.68855 192 192 192 255 0.327442 0.474306
0.500347 0.054662 0.612022 2.99998 3.21544 7.06567 192 192 192 255 0.327442 0.474306
-0.500347 0.406512 0.388668 -2.00003 5.21571 5.06549 192 192 192 255 0.327442 0.474306
0.500347 0.406512 0.388668 1.00001 5.0719 1.6885 192 192 192 255 0.327442 0.474306
-0.500347 0.406512 -0.612022 -1 4 -1 192 192 192 255 0.362184 0.475724
0.500347 0.406512 -0.612022 2 2 -2 192 192 192 255 0.362184 0.475724
-0.500347 0.054662 -0.612022 -3 0 -4 192 192 192 255 0.362184 0.475724
0.500347 0.054662 -0.612022 3 0 -2 192 192 192 255 0.362184 0.475724
-0.43644 0.406512 0.324761 -1 4 1 192 192 192 255 0.394799 0.476433
0.43644 0.406512 0.324761 2 2 2 192 192 192 255 0.394799 0.476433
0.43644 0.406512 -0.548115 1 4 -1 192 192 192 255 0.394799 0.476433
-0.43644 0.406512 -0.548115 -2 2 -2 192 192 192 255 0.394799 0.476433
-0.43644 0.475307 0.324761 -2 -2 2 192 192 192 255 0.133661 0.470184
0.43644 0.475307 0.324761 1 -4 1 192 192 192 255 0.133661 0.470184
0.43644 0.475307 -0.548115 2 -2 -2 192 192 192 255 0.133661 0.470184
-0.43644 0.475307 -0.548115 -1 -4 -1 192 192 192 255 0.133661 0.470184
-0.493164 0.475307 0.38149 -1 -4 1 192 192 192 255 0.362184 0.475724
0.493165 0.475307 0.38149 2 -2 2 192 192 192 255 0.362184 0.475724
0.493165 0.475307 -0.60484 1 -4 -1 192 192 192 255 0.362184 0.475724
-0.493164 0.475307 -0.60484 -2 -2 -2 192 192 192 255 0.362184 0.475724
-0.493164 0.557195 0.38149 -2 1 2 192 192 192 255 0.394799 0.476433
0.493165 0.557195 0.38149 1 2 1 192 192 192 255 0.394799 0.476433
0.493165 0.557195 -0.60484 2 1 -2 192 192 192 255 0.394799 0.476433
-0.493164 0.557195 -0.60484 -1 2 -1 192 192 192 255 0.394799 0.476433
-0.406927 0.203164 0.517755 -6.49555e-005 3.2155 5.06563 192 192 192 255 0.954268 0.378775
-0.112273 0.204922 0.516641 -4.71018e-006 2.14371 3.37706 192 192 192 255 0.362184 0.475724
-0.112273 0.291535 0.461658 1.79045e-005 2.67974 4.22126 192 192 192 255 0.362184 0.475724
-0.406927 0.293293 0.460543 -1.97188e-005 1.60782 2.53277 192 192 192 255 0.954268 0.378775
-0.283486 0.203164 0.517755 -2.46391e-005 2.14364 3.3771 192 192 192 255 0.954268 0.378775
-0.283486 0.293293 0.460543 -5.54003e-006 3.21563 5.06554 192 192 192 255 0.954268 0.378775
-0.226457 0.204922 0.516641 -3.39188e-005 2.67958 4.22135 192 192 192 255 0.362184 0.475724
-0.226457 0.291535 0.461658 1.50743e-006 2.67974 4.22125 192 192 192 255 0.362184 0.475724
-0.500347 0 -0.612022 -2 -1 -1 192 192 192 255 0.268697 0.478494
-0.500347 0 0.612022 -1 -2 2 192 192 192 255 0.268697 0.478494
0.500347 0 -0.612022 1 -2 -2 192 192 192 255 0.268697 0.478494
0.500347 0 0.612022 2 -1 1 192 192 192 255 0.268697 0.478494
0.500347 0.054662 -0.612022 3 0 -2 192 192 192 255 0.327442 0.474306
0.500347 0.406512 -0.612022 2 2 -2 192 192 192 255 0.327442 0.474306
-0.500347 0.054662 -0.612022 -3 0 -4 192 192 192 255 0.327442 0.474306
-0.500347 0.406512 -0.612022 -1 4 -1 192 192 192 255 0.327442 0.474306
-0.500347 0.406512 0.388668 -2.00003 5.21571 5.06549 192 192 192 255 0.394799 0.476433
0.500347 0.406512 0.388668 1.00001 5.0719 1.6885 192 192 192 255 0.394799 0.476433
0.500347 0.406512 -0.612022 2 2 -2 192 192 192 255 0.394799 0.476433
-0.500347 0.406512 -0.612022 -1 4 -1 192 192 192 255 0.394799 0.476433
-0.43644 0.406512 0.324761 -1 4 1 192 192 192 255 0.133661 0.470184
0.43644 0.406512 0.324761 2 2 2 192 192 192 255 0.133661 0.470184
0.43644 0.406512 -0.548115 1 4 -1 192 192 192 255 0.133661 0.470184
-0.43644 0.406512 -0.548115 -2 2 -2 192 192 192 255 0.133661 0.470184
-0.43644 0.475307 0.324761 -2 -2 2 192 192 192 255 0.362184 0.475724
0.43644 0.475307 0.324761 1 -4 1 192 192 192 255 0.362184 0.475724
0.43644 0.475307 -0.548115 2 -2 -2 192 192 192 255 0.362184 0.475724
-0.43644 0.475307 -0.548115 -1 -4 -1 192 192 192 255 0.362184 0.475724
-0.493164 0.557195 0.38149 -2 1 2 192 192 192 255 0.362184 0.475724
0.493165 0.557195 0.38149 1 2 1 192 192 192 255 0.362184 0.475724
0.493165 0.475307 0.38149 2 -2 2 192 192 192 255 0.327442 0.474306
0.493165 0.475307 -0.60484 1 -4 -1 192 192 192 255 0.327442 0.474306
0.493165 0.557195 -0.60484 2 1 -2 192 192 192 255 0.327442 0.474306
0.493165 0.557195 0.38149 1 2 1 192 192 192 255 0.327442 0.474306
-0.493164 0.557195 -0.60484 -1 2 -1 192 192 192 255 0.362184 0.475724
0.493165 0.557195 -0.60484 2 1 -2 192 192 192 255 0.362184 0.475724
-0.493164 0.475307 -0.60484 -2 -2 -2 192 192 192 255 0.327442 0.474306
-0.493164 0.475307 0.38149 -1 -4 1 192 192 192 255 0.327442 0.474306
-0.493164 0.557195 0.38149 -2 1 2 192 192 192 255 0.327442 0.474306
-0.493164 0.557195 -0.60484 -1 2 -1 192 192 192 255 0.327442 0.474306
0.500347 0.054662 0.612022 2.99998 3.21544 7.06567 192 192 192 255 0.362184 0.475724
-0.283486 0.203164 0.517755 -2.46391e-005 2.14364 3.3771 192 192 192 255 0.362184 0.475724
-0.406927 0.203164 0.517755 -6.49555e-005 3.2155 5.06563 192 192 192 255 0.362184 0.475724
-0.500347 0.054662 0.612022 -3.00003 1.07183 2.68855 192 192 192 255 0.362184 0.475724
0.500347 0.406512 0.388668 1.00001 5.0719 1.6885 192 192 192 255 0.362184 0.475724
-0.500347 0.406512 0.388668 -2.00003 5.21571 5.06549 192 192 192 255 0.362184 0.475724
-0.406927 0.293293 0.460543 -1.97188e-005 1.60782 2.53277 192 192 192 255 0.362184 0.475724
-0.283486 0.293293 0.460543 -5.54003e-006 3.21563 5.06554 192 192 192 255 0.362184 0.475724
-0.226457 0.291535 0.461658 1.50743e-006 2.67974 4.22125 192 192 192 255 0.296396 0.327531
-0.226457 0.204922 0.516641 -3.39188e-005 2.67958 4.22135 192 192 192 255 0.296396 0.327531
-0.112273 0.204922 0.516641 -4.71018e-006 2.14371 3.37706 192 192 192 255 0.296396 0.327531
-0.112273 0.291535 0.461658 1.79045e-005 2.67974 4.22126 192 192 192 255 0.296396 0.327531
-0.500347 0.054662 0.612022 -3.00003 1.07183 2.68855 192 192 192 255 0.233955 0.477076
-0.500347 0.054662 -0.612022 -3 0 -4 192 192 192 255 0.233955 0.477076
-0.500347 0 -0.612022 -2 -1 -1 192 192 192 255 0.233955 0.477076
-0.500347 0 0.612022 -1 -2 2 192 192 192 255 0.233955 0.477076
-0.500347 0.054662 -0.612022 -3 0 -4 192 192 192 255 0.268697 0.478494
0.500347 0.054662 -0.612022 3 0 -2 192 192 192 255 0.268697 0.478494
0.500347 0.054662 -0.612022 3 0 -2 192 192 192 255 0.233955 0.477076
0.500347 0.054662 0.612022 2.99998 3.21544 7.06567 192 192 192 255 0.233955 0.477076
0.500347 0 0.612022 2 -1 1 192 192 192 255 0.233955 0.477076
0.500347 0 -0.612022 1 -2 -2 192 192 192 255 0.233955 0.477076
0.500347 0.054662 0.612022 2.99998 3.21544 7.06567 192 192 192 255 0.268697 0.478494
-0.500347 0.054662 0.612022 -3.00003 1.07183 2.68855 192 192 192 255 0.268697 0.478494
3 24 28 29 
3 24 29 27 
3 23 20 21 
3 23 21 22 
3 6 4 5 
3 6 5 7 
3 33 32 34 
3 33 34 35 
3 1 36 37 
3 1 37 3 
3 38 0 2 
3 38 2 39 
3 8 40 41 
3 8 41 9 
3 41 42 10 
3 41 10 9 
3 43 11 10 
3 43 10 42 
3 43 40 8 
3 43 8 11 
3 12 44 45 
3 12 45 13 
3 45 46 14 
3 45 14 13 
3 47 15 14 
3 47 14 46 
3 47 44 12 
3 47 12 15 
3 16 48 49 
3 16 49 17 
3 49 50 18 
3 49 18 17 
3 51 19 18 
3 51 18 50 
3 51 48 16 
3 51 16 19 
3 52 16 17 
3 52 17 53 
3 54 55 56 
3 54 56 57 
3 19 58 59 
3 19 59 18 
3 60 61 62 
3 60 62 63 
3 64 25 30 
3 64 30 65 
3 64 65 66 
3 64 66 67 
3 64 68 26 
3 64 26 25 
3 69 70 71 
3 69 71 31 
3 69 31 26 
3 69 26 68 
3 69 67 66 
3 69 66 70 
3 71 65 30 
3 71 30 31 
3 72 73 74 
3 72 74 75 
3 76 77 78 
3 76 78 79 
3 80 81 34 
3 80 34 32 
3 82 83 84 
3 82 84 85 
3 86 87 33 
3 86 33 35 
