ply
format ascii 1.0
comment VCGLIB generated
comment TextureFile SpaceInteriors_Texture.png
element vertex 92
property float x
property float y
property float z
property float nx
property float ny
property float nz
property uchar red
property uchar green
property uchar blue
property uchar alpha
property float texture_u
property float texture_v
element face 68
property list uchar int vertex_indices
end_header
-0.534798 0 0.764502 -3 -1 2 192 192 192 255 0.323425 0.264916
0.534798 0 0.764502 3 -2 3 192 192 192 255 0.358876 0.267043
-0.534798 1.75795 0.764502 -3 2 2 192 192 192 255 0.392199 0.26917
0.534798 1.75795 0.764502 3 1 2 192 192 192 255 0.358876 0.267043
-0.534798 1.75795 -0.870577 -3 3 -1 192 192 192 255 0.392199 0.26917
0.534798 1.75795 -0.870577 3 3 -2 192 192 192 255 0.358876 0.267043
-0.534798 0 -0.870577 -3 -2 -2 192 192 192 255 0.358876 0.267043
0.534798 0 -0.870577 3 -1 -1 192 192 192 255 0.358876 0.267043
0.313341 1.75795 0.764502 3 2 1 192 192 192 255 0.358876 0.267043
0.313341 0.211131 0.764502 2 -1 3 192 192 192 255 0.358876 0.267043
-0.31334 1.75795 0.764502 -3 1 1 192 192 192 255 0.392199 0.26917
-0.31334 0.211131 0.764502 -1 -2 4 192 192 192 255 0.107883 0.481166
0.313341 1.75795 0.501379 1 3 -2 192 192 192 255 0.107883 0.481166
-0.31334 1.75795 0.501379 -2 3 -1 192 192 192 255 0.392199 0.26917
-0.31334 1.86402 0.870577 -3 2 3 192 192 192 255 0.170986 0.481166
0.313341 1.86402 0.870577 3 1 3 192 192 192 255 0.170986 0.481166
0.313341 1.86402 0.501379 2 2 -1 192 192 192 255 0.170986 0.481166
-0.31334 1.86402 0.501379 -1 1 -2 192 192 192 255 0.170986 0.481166
-0.31334 0.211131 0.870577 -2 -1 4 192 192 192 255 0.107883 0.481166
0.313341 0.211131 0.870577 1 -2 5 192 192 192 255 0.102211 0.476912
-0.185396 1.04914 0.870577 0 0 6 192 192 192 255 0.975505 0.391411
-0.185396 1.7502 0.870577 0 0 5 192 192 192 255 0.975505 0.391412
0.185397 1.04914 0.870577 0 0 6 192 192 192 255 0.975505 0.391411
0.185397 1.7502 0.870577 0 0 4 192 192 192 255 0.975505 0.391412
0.534798 1.61988 0.636083 4 0 0 192 192 192 255 0.393617 0.267043
0.534798 1.61988 -0.742158 5 0 0 192 192 192 255 0.393617 0.267043
0.534798 0.138067 0.636083 5 0 0 192 192 192 255 0.393617 0.267043
0.534798 0.138067 -0.742158 4 0 0 192 192 192 255 0.393617 0.267043
-0.534798 0.138067 0.636083 -5 0 0 192 192 192 255 0.393617 0.267043
-0.534798 1.61988 0.636083 -4 0 0 192 192 192 255 0.393617 0.267043
-0.534798 1.61988 -0.742158 -5 0 0 192 192 192 255 0.393617 0.267043
-0.534798 0.138067 -0.742158 -4 0 0 192 192 192 255 0.393617 0.267043
0.164716 0.901932 0.870577 0 0 4 192 192 192 255 0.921619 0.377231
0.074933 0.901932 0.870577 0 0 5 192 192 192 255 0.921619 0.377231
0.164716 0.977767 0.870577 0 0 5 192 192 192 255 0.921619 0.377231
0.074933 0.977767 0.870577 0 0 4 192 192 192 255 0.921619 0.377231
-0.534798 1.75795 -0.870577 -3 3 -1 192 192 192 255 0.358876 0.267043
0.534798 0 0.764502 3 -2 3 192 192 192 255 0.323425 0.264916
-0.534798 0 -0.870577 -3 -2 -2 192 192 192 255 0.323425 0.264916
0.534798 0 -0.870577 3 -1 -1 192 192 192 255 0.323425 0.264916
0.313341 1.75795 0.764502 3 2 1 192 192 192 255 0.107883 0.481166
0.313341 1.86402 0.501379 2 2 -1 192 192 192 255 0.107883 0.481166
0.313341 1.86402 0.870577 3 1 3 192 192 192 255 0.107883 0.481166
0.313341 1.75795 0.501379 1 3 -2 192 192 192 255 0.137662 0.479039
-0.31334 1.75795 0.501379 -2 3 -1 192 192 192 255 0.137662 0.479039
-0.31334 1.86402 0.501379 -1 1 -2 192 192 192 255 0.137662 0.479039
0.313341 1.86402 0.501379 2 2 -1 192 192 192 255 0.137662 0.479039
-0.31334 1.75795 0.501379 -2 3 -1 192 192 192 255 0.107883 0.481166
-0.31334 1.75795 0.764502 -3 1 1 192 192 192 255 0.107883 0.481166
-0.31334 1.86402 0.870577 -3 2 3 192 192 192 255 0.107883 0.481166
-0.31334 1.86402 0.501379 -1 1 -2 192 192 192 255 0.107883 0.481166
-0.31334 0.211131 0.764502 -1 -2 4 192 192 192 255 0.102211 0.476912
0.313341 0.211131 0.764502 2 -1 3 192 192 192 255 0.102211 0.476912
-0.31334 0.211131 0.870577 -2 -1 4 192 192 192 255 0.102211 0.476912
0.313341 0.211131 0.764502 2 -1 3 192 192 192 255 0.107883 0.481166
0.313341 0.211131 0.870577 1 -2 5 192 192 192 255 0.107883 0.481166
-0.31334 1.86402 0.870577 -3 2 3 192 192 192 255 0.137662 0.479039
-0.31334 0.211131 0.870577 -2 -1 4 192 192 192 255 0.137662 0.479039
-0.185396 1.04914 0.870577 0 0 6 192 192 192 255 0.137662 0.479039
-0.185396 1.7502 0.870577 0 0 5 192 192 192 255 0.137662 0.479039
0.313341 0.211131 0.870577 1 -2 5 192 192 192 255 0.137662 0.479039
0.313341 1.86402 0.870577 3 1 3 192 192 192 255 0.137662 0.479039
0.185397 1.7502 0.870577 0 0 4 192 192 192 255 0.137662 0.479039
0.185397 1.04914 0.870577 0 0 6 192 192 192 255 0.137662 0.479039
-0.31334 0.211131 0.764502 -1 -2 4 192 192 192 255 0.358876 0.267043
-0.31334 1.75795 0.764502 -3 1 1 192 192 192 255 0.358876 0.267043
-0.534798 1.75795 0.764502 -3 2 2 192 192 192 255 0.358876 0.267043
-0.534798 0 0.764502 -3 -1 2 192 192 192 255 0.358876 0.267043
0.534798 1.75795 -0.870577 3 3 -2 192 192 192 255 0.392199 0.26917
0.313341 1.75795 0.501379 1 3 -2 192 192 192 255 0.392199 0.26917
0.313341 1.75795 0.764502 3 2 1 192 192 192 255 0.392199 0.26917
0.534798 1.75795 0.764502 3 1 2 192 192 192 255 0.392199 0.26917
0.534798 1.75795 -0.870577 3 3 -2 192 192 192 255 0.328388 0.264916
0.534798 1.75795 0.764502 3 1 2 192 192 192 255 0.328388 0.264916
0.534798 1.61988 0.636083 4 0 0 192 192 192 255 0.328388 0.264916
0.534798 1.61988 -0.742158 5 0 0 192 192 192 255 0.328388 0.264916
0.534798 0 0.764502 3 -2 3 192 192 192 255 0.328388 0.264916
0.534798 0.138067 0.636083 5 0 0 192 192 192 255 0.328388 0.264916
0.534798 0 -0.870577 3 -1 -1 192 192 192 255 0.328388 0.264916
0.534798 0.138067 -0.742158 4 0 0 192 192 192 255 0.328388 0.264916
-0.534798 0 0.764502 -3 -1 2 192 192 192 255 0.328388 0.264916
-0.534798 1.75795 0.764502 -3 2 2 192 192 192 255 0.328388 0.264916
-0.534798 1.61988 0.636083 -4 0 0 192 192 192 255 0.328388 0.264916
-0.534798 0.138067 0.636083 -5 0 0 192 192 192 255 0.328388 0.264916
-0.534798 1.75795 -0.870577 -3 3 -1 192 192 192 255 0.328388 0.264916
-0.534798 1.61988 -0.742158 -5 0 0 192 192 192 255 0.328388 0.264916
-0.534798 0 -0.870577 -3 -2 -2 192 192 192 255 0.328388 0.264916
-0.534798 0.138067 -0.742158 -4 0 0 192 192 192 255 0.328388 0.264916
0.164716 0.901932 0.870577 0 0 4 192 192 192 255 0.137662 0.479039
0.074933 0.901932 0.870577 0 0 5 192 192 192 255 0.137662 0.479039
0.164716 0.977767 0.870577 0 0 5 192 192 192 255 0.137662 0.479039
0.074933 0.977767 0.870577 0 0 4 192 192 192 255 0.137662 0.479039
3 9 1 3 
3 9 3 8 
3 2 10 13 
3 2 13 4 
3 6 36 5 
3 6 5 7 
3 37 0 38 
3 37 38 39 
3 25 24 26 
3 25 26 27 
3 28 29 30 
3 28 30 31 
3 14 15 16 
3 14 16 17 
3 21 20 22 
3 21 22 23 
3 40 12 41 
3 40 41 42 
3 43 44 45 
3 43 45 46 
3 47 48 49 
3 47 49 50 
3 48 11 18 
3 48 18 49 
3 51 52 19 
3 51 19 53 
3 54 40 42 
3 54 42 55 
3 56 57 58 
3 56 58 59 
3 33 32 34 
3 33 34 35 
3 60 61 62 
3 60 62 63 
3 61 56 59 
3 61 59 62 
3 64 65 66 
3 64 66 67 
3 64 67 1 
3 64 1 9 
3 68 69 70 
3 68 70 71 
3 4 13 69 
3 4 69 68 
3 72 73 74 
3 72 74 75 
3 73 76 77 
3 73 77 74 
3 76 78 79 
3 76 79 77 
3 78 72 75 
3 78 75 79 
3 80 81 82 
3 80 82 83 
3 81 84 85 
3 81 85 82 
3 84 86 87 
3 84 87 85 
3 86 80 83 
3 86 83 87 
3 57 60 88 
3 57 88 89 
3 60 63 90 
3 60 90 88 
3 63 58 91 
3 63 91 90 
3 58 57 89 
3 58 89 91 
