ply
format ascii 1.0
comment VCGLIB generated
comment TextureFile SpaceInteriors_Texture.png
element vertex 60
property float x
property float y
property float z
property float nx
property float ny
property float nz
property uchar red
property uchar green
property uchar blue
property uchar alpha
property float texture_u
property float texture_v
element face 30
property list uchar int vertex_indices
end_header
1 0 0.099625 2 -3 2 192 192 192 255 0.361595 0.061667
1 0 0 1 -1 0 192 192 192 255 0.361595 0.061667
1 5 0.099625 1 2 1 192 192 192 255 0.361595 0.061667
1 5 0 2 2 0 192 192 192 255 0.361595 0.061667
0 5 0.099625 -2 3 1 192 192 192 255 0.361595 0.061667
0 5 0 -1 1 0 192 192 192 255 0.361595 0.061667
0 0 0.099625 -1 -2 2 192 192 192 255 0.361595 0.061667
0 0 0 -2 -2 0 192 192 192 255 0.361595 0.061667
0.925507 5 0.099625 -1 1 2 192 192 192 255 0.329556 0.061667
0.75 5 0 0 0 0 192 192 192 255 9.09185e-039 2.93888e-039
0.75 0 0 0 0 0 192 192 192 255 9.27555e-039 9.64289e-039
0.925507 0 0.099625 -2 -1 1 192 192 192 255 0.329556 0.061667
0.25 0 0 0 0 0 192 192 192 255 1.06531e-038 1.01939e-038
0.25 5 0 0 0 0 192 192 192 255 1.05612e-038 9.27555e-039
0.074493 5 0.099625 2 1 2 192 192 192 255 0.329556 0.061667
0.074493 0 0.099625 1 -1 1 192 192 192 255 0.329556 0.061667
0.074493 5 0 0 4 0 192 192 192 255 0.29916 0.086662
0.074493 5 0.076889 1 3 2 192 192 192 255 0.29916 0.086662
0.074493 0 0.076889 2 -5 1 192 192 192 255 0.199275 0.086662
0.074493 0 0 0 -2 0 192 192 192 255 0.199275 0.086662
0.925507 5 0.076889 -2 5 1 192 192 192 255 0.29916 0.086662
0.925507 5 0 0 2 0 192 192 192 255 0.29916 0.086662
0.925507 0 0 0 -4 0 192 192 192 255 0.199275 0.086662
0.925507 0 0.076889 -1 -3 2 192 192 192 255 0.199275 0.086662
0.074493 5 0.076889 1 3 2 192 192 192 255 0.577337 0.504958
0.074493 0 0.076889 2 -5 1 192 192 192 255 0.577337 0.502072
0.925507 0 0.076889 -1 -3 2 192 192 192 255 0.645541 0.502072
0.925507 5 0.076889 -2 5 1 192 192 192 255 0.645541 0.504958
1 0 0.099625 2 -3 2 192 192 192 255 0.329556 0.061667
1 5 0.099625 1 2 1 192 192 192 255 0.329556 0.061667
0 0 0.099625 -1 -2 2 192 192 192 255 0.329556 0.061667
0 5 0.099625 -2 3 1 192 192 192 255 0.329556 0.061667
0 5 0.099625 -2 3 1 192 192 192 255 0.39646 0.061667
0.074493 5 0.099625 2 1 2 192 192 192 255 0.39646 0.061667
0.074493 5 0.076889 1 3 2 192 192 192 255 0.39646 0.061667
0.074493 5 0 0 4 0 192 192 192 255 0.39646 0.061667
0 5 0 -1 1 0 192 192 192 255 0.39646 0.061667
0.074493 0 0.076889 2 -5 1 192 192 192 255 0.296575 0.061667
0.074493 0 0.099625 1 -1 1 192 192 192 255 0.296575 0.061667
0 0 0.099625 -1 -2 2 192 192 192 255 0.296575 0.061667
0 0 0 -2 -2 0 192 192 192 255 0.296575 0.061667
0.074493 0 0 0 -2 0 192 192 192 255 0.296575 0.061667
0.074493 5 0.099625 2 1 2 192 192 192 255 0.269081 0.061667
0.074493 0 0.099625 1 -1 1 192 192 192 255 0.269081 0.061667
0.074493 0 0.076889 2 -5 1 192 192 192 255 0.269081 0.061667
0.074493 5 0.076889 1 3 2 192 192 192 255 0.269081 0.061667
0.925507 5 0.076889 -2 5 1 192 192 192 255 0.39646 0.061667
0.925507 5 0.099625 -1 1 2 192 192 192 255 0.39646 0.061667
1 5 0.099625 1 2 1 192 192 192 255 0.39646 0.061667
1 5 0 2 2 0 192 192 192 255 0.39646 0.061667
0.925507 5 0 0 2 0 192 192 192 255 0.39646 0.061667
1 0 0.099625 2 -3 2 192 192 192 255 0.296575 0.061667
0.925507 0 0.099625 -2 -1 1 192 192 192 255 0.296575 0.061667
0.925507 0 0.076889 -1 -3 2 192 192 192 255 0.296575 0.061667
0.925507 0 0 0 -4 0 192 192 192 255 0.296575 0.061667
1 0 0 1 -1 0 192 192 192 255 0.296575 0.061667
0.925507 0 0.099625 -2 -1 1 192 192 192 255 0.269081 0.061667
0.925507 5 0.099625 -1 1 2 192 192 192 255 0.269081 0.061667
0.925507 5 0.076889 -2 5 1 192 192 192 255 0.269081 0.061667
0.925507 0 0.076889 -1 -3 2 192 192 192 255 0.269081 0.061667
3 0 1 3 
3 0 3 2 
3 16 17 20 
3 16 20 21 
3 4 5 7 
3 4 7 6 
3 18 19 22 
3 18 22 23 
3 24 25 26 
3 24 26 27 
3 8 11 28 
3 8 28 29 
3 30 15 14 
3 30 14 31 
3 32 33 34 
3 32 34 35 
3 32 35 36 
3 37 38 39 
3 37 39 40 
3 37 40 41 
3 42 43 44 
3 42 44 45 
3 46 47 48 
3 46 48 49 
3 46 49 50 
3 51 52 53 
3 51 53 54 
3 51 54 55 
3 56 57 58 
3 56 58 59 
