ply
format ascii 1.0
comment VCGLIB generated
comment TextureFile SpaceInteriors_Texture.png
element vertex 276
property float x
property float y
property float z
property float nx
property float ny
property float nz
property uchar red
property uchar green
property uchar blue
property uchar alpha
property float texture_u
property float texture_v
element face 198
property list uchar int vertex_indices
end_header
-0.280647 0 0.409897 -1 -1 2 192 192 192 255 0.327495 0.472971
0.280647 0 0.409897 2 -2 1 192 192 192 255 0.327495 0.472971
-0.280647 0.125337 0.409897 -2 3 1 192 192 192 255 0.327495 0.472971
0.280647 0.125337 0.409897 1 3 2 192 192 192 255 0.327495 0.472971
-0.280647 0.125337 -0.483055 -1 3 -2 192 192 192 255 0.327495 0.472971
0.280647 0.125337 -0.483055 2 3 -1 192 192 192 255 0.327495 0.472971
-0.280647 0 -0.483055 -2 -2 -1 192 192 192 255 0.327495 0.472971
0.280647 0 -0.483055 1 -1 -2 192 192 192 255 0.327495 0.472971
-0.175524 0.125337 -0.024162 -1 3 2 192 192 192 255 0.357983 0.478643
0.175526 0.125337 -0.024162 3 3 1 192 192 192 255 0.357983 0.478643
0.175526 0.125337 -0.42104 3 3 -2 192 192 192 255 0.357983 0.478643
-0.175524 0.125337 -0.42104 -2 3 -1 192 192 192 255 0.357983 0.478643
-0.175524 0.418129 -0.024162 -2.41206 2.85997 1.44959 192 192 192 255 0.327495 0.472971
0.175526 0.418129 -0.024162 3.82396 2.79679 2.2248 192 192 192 255 0.327495 0.472971
0.175526 0.418129 -0.42104 3.41198 2.55019 -2.14616 192 192 192 255 0.327495 0.472971
-0.175524 0.418129 -0.42104 -1.82411 2.64181 -2.57308 192 192 192 255 0.327495 0.472971
-0.092651 0.455607 -0.186615 -1.82411 2.79503 2.22442 192 192 192 255 0.327495 0.472971
0.092634 0.455607 -0.186615 2.41197 2.85633 1.44878 192 192 192 255 0.327495 0.472971
0.092634 0.455607 -0.367447 1.82396 2.64005 -2.57349 192 192 192 255 0.357983 0.478643
-0.092651 0.455607 -0.367447 -2.41205 2.54677 -2.14691 192 192 192 255 0.357983 0.478643
-0.093132 0.700083 -0.186615 -2.96366 -1.9516 1.37204 192 192 192 255 0.327495 0.472971
0.093157 0.700083 -0.186615 2.90491 -1.08912 1.69223 192 192 192 255 0.327495 0.472971
0.093157 0.779643 -0.367447 2.02241 1.77707 -1.91127 192 192 192 255 0.357983 0.478643
-0.093132 0.779643 -0.367447 -1.02242 0.888682 -2.4556 192 192 192 255 0.357983 0.478643
-0.093132 0.846272 -0.237129 -1.90491 2.62984 -1.56884 192 192 192 255 0.357983 0.478643
0.093157 0.846272 -0.237129 0.963665 2.81492 -0.784408 192 192 192 255 0.357983 0.478643
-0.172028 0.77208 0.005463 -2.88249 -3.08713 -0.282055 192 192 192 255 0.297007 0.474389
0.17205 0.77208 0.005463 2.94125 -2.94813 0.385462 192 192 192 255 0.297007 0.474389
0.17205 0.846272 0.005463 3.8825 2.03534 -2.26858 192 192 192 255 0.299843 0.474389
-0.172028 0.846272 0.005463 -4.94124 2.51767 -1.1343 192 192 192 255 0.357983 0.478643
-0.172028 0.774612 0.205315 -2 -0.99992 2.01267 192 192 192 255 0.327495 0.472971
0.17205 0.774612 0.205315 1 -1.99984 1.02534 192 192 192 255 0.327495 0.472971
0.17205 0.848804 0.205315 4 0.551865 2.83393 192 192 192 255 0.327495 0.472971
-0.172028 0.848804 0.205315 -2 1.10373 2.66787 192 192 192 255 0.327495 0.472971
-0.172028 0.930623 0.067604 -1 2.17706 -1.74543 192 192 192 255 0.357983 0.478643
0.17205 0.930623 0.067604 2 2.57476 -1.07553 192 192 192 255 0.357983 0.478643
-0.172028 0.941082 0.144249 -2 2.5335 0.563519 192 192 192 255 0.357983 0.478643
0.17205 0.941082 0.144249 1 2.09455 1.53266 192 192 192 255 0.357983 0.478643
0.175526 0.193304 -0.135544 4.01848 -1.88872 0.932704 192 192 192 255 0.299843 0.474389
0.175526 0.193304 -0.309662 4.05021 -0.944358 -1.86541 192 192 192 255 0.299843 0.474389
0.175526 0.350162 -0.309662 4.0185 1.88871 -0.932704 192 192 192 255 0.299843 0.474389
0.175526 0.350162 -0.135544 4.05021 0.944355 1.86541 192 192 192 255 0.299843 0.474389
0.266468 0.224979 -0.170708 3.0502 -0.944358 1.86541 192 192 192 255 0.079694 0.477835
0.266468 0.224979 -0.274498 2.01848 -1.88872 -0.932704 192 192 192 255 0.079694 0.477835
0.266468 0.318486 -0.274498 3.05022 0.944355 -1.86541 192 192 192 255 0.079694 0.477835
0.266468 0.318486 -0.170708 2.0185 1.88871 0.932704 192 192 192 255 0.079694 0.477835
-0.248425 0.762334 0.257187 -1 -2.2183 0.281975 192 192 192 255 0.076166 0.478527
0.248425 0.762334 0.257187 2 -2.2183 0.281975 192 192 192 255 0.079002 0.478527
-0.248425 0.784119 0.289719 -1.99999 0.838702 3.04889 192 192 192 255 0.076166 0.478528
0.248425 0.784119 0.289719 0.999986 0.838648 3.04892 192 192 192 255 0.079002 0.478527
-0.248425 0.975316 0.161652 -0.999986 3.3312 1.37946 192 192 192 255 0.136432 0.478527
0.248425 0.975316 0.161652 1.99999 2.50041 1.93596 192 192 192 255 0.079002 0.478527
-0.248425 0.95353 0.129128 -2 -0.282148 -2.21824 192 192 192 255 0.136432 0.478527
0.248425 0.95353 0.129128 1 0.548683 -2.77476 192 192 192 255 0.079002 0.478527
0 0.975316 0.161652 6.86678e-006 5.83161 3.31543 192 192 192 255 0.136432 0.478527
0 0.95353 0.129128 0 1.37951 -3.33129 192 192 192 255 0.136432 0.478527
0 0.762334 0.257187 0 -3.88777 -2.21059 192 192 192 255 0.076166 0.478527
0 0.784119 0.289719 -6.73412e-006 0.0155402 7.21064 192 192 192 255 0.076166 0.478528
-0.188389 0.830325 0.258766 -0.999986 0.00784552 3.60549 192 192 192 255 0.106654 0.477109
-0.060034 0.830325 0.258766 1.99999 0.838753 3.04896 192 192 192 255 0.106653 0.477109
-0.060034 0.92911 0.192604 0.999986 3.33125 1.37954 192 192 192 255 0.106653 0.477109
-0.188389 0.92911 0.192604 -1.99999 2.50044 1.936 192 192 192 255 0.106654 0.477109
0.060036 0.830325 0.258766 -0.999986 0.00784576 3.60549 192 192 192 255 0.106653 0.477109
0.060036 0.92911 0.192604 -1.99999 2.50044 1.936 192 192 192 255 0.106653 0.477109
0.188389 0.830325 0.258766 1.99999 0.838753 3.04896 192 192 192 255 0.106653 0.477109
0.188389 0.92911 0.192604 0.999986 3.33125 1.37954 192 192 192 255 0.106653 0.477109
-0.188389 0.98055 0.483055 -1.99991 0.838729 3.04898 192 192 192 255 0.05135 0.479237
-0.060034 0.98055 0.483055 0.999827 0.00781155 3.60551 192 192 192 255 0.05135 0.479237
-0.060034 1.07933 0.416893 1.99991 2.50013 1.93621 192 192 192 255 0.079002 0.478527
-0.188389 1.07933 0.416893 -0.999827 3.33107 1.37966 192 192 192 255 0.136432 0.478527
0.060036 0.98055 0.483055 -1.99991 0.838729 3.04898 192 192 192 255 0.079002 0.478527
0.060036 1.07933 0.416893 -0.999827 3.33107 1.37966 192 192 192 255 0.079002 0.478527
0.188389 0.98055 0.483055 0.999827 0.00781155 3.60551 192 192 192 255 0.05135 0.479237
0.188389 1.07933 0.416893 1.99991 2.50013 1.93621 192 192 192 255 0.079002 0.478527
-0.149881 1.01019 0.463203 0.000173195 2.78251 4.15423 192 192 192 255 0.198755 0.478494
-0.098539 1.01019 0.463203 -8.655e-005 2.22608 3.32334 192 192 192 255 0.198755 0.478494
-0.098539 1.0497 0.436737 -0.0001731 2.78235 4.15434 192 192 192 255 0.198755 0.478494
-0.149881 1.0497 0.436737 8.65977e-005 2.22577 3.32355 192 192 192 255 0.198755 0.478494
0.098543 1.01019 0.463203 0.0001732 2.22601 3.32338 192 192 192 255 0.198755 0.478494
0.098543 1.0497 0.436737 8.65999e-005 2.78226 4.1544 192 192 192 255 0.198755 0.478494
0.149883 1.01019 0.463203 -8.65477e-005 2.78257 4.15419 192 192 192 255 0.198755 0.478494
0.149883 1.0497 0.436737 -0.000173095 2.22586 3.32349 192 192 192 255 0.198755 0.478494
-0.238825 0.42541 0.277733 -1 -1 2 192 192 192 255 0.110808 0.476417
0.238825 0.42541 0.277733 2 -2 1 192 192 192 255 0.110808 0.476417
-0.238825 0.467086 0.277733 -2 2 1 192 192 192 255 0.110808 0.476417
0.238825 0.467086 0.277733 1 1 2 192 192 192 255 0.110808 0.476417
-0.238825 0.467086 -0.350891 -1 1 -2 192 192 192 255 0.140587 0.477835
0.238825 0.467086 -0.350891 2 2 -1 192 192 192 255 0.140587 0.477835
-0.238825 0.42541 -0.350891 -2 -2 -1 192 192 192 255 0.110808 0.476417
0.238825 0.42541 -0.350891 1 -1 -2 192 192 192 255 0.110808 0.476417
-0.029844 0.552175 0.120316 -0.913334 -2.2216 1.82668 192 192 192 255 0.117715 0.267317
0.029844 0.552175 0.120316 1.82667 -3.22162 0.913341 192 192 192 255 0.117715 0.267317
-0.096222 0.701054 0.186691 -2.82667 -1.22162 2.91334 192 192 192 255 0.117715 0.267317
0.096222 0.701054 0.186691 2.91333 -1.2216 2.82668 192 192 192 255 0.117715 0.267317
-0.096222 0.701054 -0.005753 -2.91333 -1.2217 -2.82664 192 192 192 255 0.117715 0.267317
0.096222 0.701054 -0.005753 2.82667 -1.22167 -2.91332 192 192 192 255 0.117715 0.267317
-0.029844 0.552175 0.060631 -1.82667 -3.22167 -0.91332 192 192 192 255 0.117715 0.267317
0.029844 0.552175 0.060631 0.913334 -2.2217 -1.82664 192 192 192 255 0.117715 0.267317
-0.096222 0.77208 0.186691 -2 0 1 192 192 192 255 0.148203 0.265898
0.096222 0.77208 0.186691 1 0 2 192 192 192 255 0.148203 0.265898
0.096222 0.77208 -0.005753 2 0 -1 192 192 192 255 0.148203 0.265898
-0.096222 0.77208 -0.005753 -1 0 -2 192 192 192 255 0.148203 0.265898
-0.116512 0.125337 0.220657 -0.957334 -0.133109 1.91469 192 192 192 255 0.104576 0.477109
0.116512 0.125337 0.220657 1.91467 -1.13308 0.957343 192 192 192 255 0.104576 0.477109
-0.078674 0.250686 0.182823 -1.91467 2.86692 0.957343 192 192 192 255 0.104576 0.477109
0.078674 0.250686 0.182823 0.957334 1.86689 1.91469 192 192 192 255 0.104576 0.477109
-0.078674 0.250686 0.025475 -0.957334 1.8669 -1.91468 192 192 192 255 0.134355 0.478527
0.078674 0.250686 0.025475 1.91467 2.86693 -0.957341 192 192 192 255 0.134355 0.478527
-0.116512 0.125337 -0.01236 -1.91467 -1.13307 -0.957341 192 192 192 255 0.104576 0.477109
0.116512 0.125337 -0.01236 0.957334 -0.133096 -1.91468 192 192 192 255 0.104576 0.477109
-0.280647 0 -0.483055 -2 -2 -1 192 192 192 255 0.297007 0.474389
0.280647 0 -0.483055 1 -1 -2 192 192 192 255 0.297007 0.474389
0.280647 0 0.409897 2 -2 1 192 192 192 255 0.297007 0.474389
-0.280647 0 0.409897 -1 -1 2 192 192 192 255 0.297007 0.474389
0.280647 0 0.409897 2 -2 1 192 192 192 255 0.299843 0.474389
0.280647 0 -0.483055 1 -1 -2 192 192 192 255 0.299843 0.474389
0.280647 0.125337 -0.483055 2 3 -1 192 192 192 255 0.299843 0.474389
0.280647 0.125337 0.409897 1 3 2 192 192 192 255 0.299843 0.474389
-0.280647 0 -0.483055 -2 -2 -1 192 192 192 255 0.299843 0.474389
-0.280647 0 0.409897 -1 -1 2 192 192 192 255 0.299843 0.474389
-0.280647 0.125337 0.409897 -2 3 1 192 192 192 255 0.299843 0.474389
-0.280647 0.125337 -0.483055 -1 3 -2 192 192 192 255 0.299843 0.474389
-0.280647 0.125337 0.409897 -2 3 1 192 192 192 255 0.357983 0.478643
0.280647 0.125337 0.409897 1 3 2 192 192 192 255 0.357983 0.478643
0.280647 0.125337 -0.483055 2 3 -1 192 192 192 255 0.357983 0.478643
-0.280647 0.125337 -0.483055 -1 3 -2 192 192 192 255 0.357983 0.478643
-0.175524 0.125337 -0.024162 -1 3 2 192 192 192 255 0.327495 0.472971
0.175526 0.125337 -0.024162 3 3 1 192 192 192 255 0.327495 0.472971
0.175526 0.125337 -0.42104 3 3 -2 192 192 192 255 0.327495 0.472971
-0.175524 0.125337 -0.42104 -2 3 -1 192 192 192 255 0.327495 0.472971
-0.175524 0.125337 -0.42104 -2 3 -1 192 192 192 255 0.299843 0.474389
-0.175524 0.125337 -0.024162 -1 3 2 192 192 192 255 0.299843 0.474389
-0.175524 0.418129 -0.024162 -2.41206 2.85997 1.44959 192 192 192 255 0.299843 0.474389
-0.175524 0.418129 -0.42104 -1.82411 2.64181 -2.57308 192 192 192 255 0.299843 0.474389
0.175526 0.418129 -0.024162 3.82396 2.79679 2.2248 192 192 192 255 0.357983 0.478643
0.175526 0.418129 -0.42104 3.41198 2.55019 -2.14616 192 192 192 255 0.357983 0.478643
0.092634 0.455607 -0.186615 2.41197 2.85633 1.44878 192 192 192 255 0.357983 0.478643
-0.175524 0.418129 -0.42104 -1.82411 2.64181 -2.57308 192 192 192 255 0.357983 0.478643
-0.175524 0.418129 -0.024162 -2.41206 2.85997 1.44959 192 192 192 255 0.357983 0.478643
-0.092651 0.455607 -0.186615 -1.82411 2.79503 2.22442 192 192 192 255 0.357983 0.478643
0.092634 0.455607 -0.186615 2.41197 2.85633 1.44878 192 192 192 255 0.299843 0.474389
0.092634 0.455607 -0.367447 1.82396 2.64005 -2.57349 192 192 192 255 0.299843 0.474389
0.093157 0.779643 -0.367447 2.02241 1.77707 -1.91127 192 192 192 255 0.299843 0.474389
0.093157 0.700083 -0.186615 2.90491 -1.08912 1.69223 192 192 192 255 0.299843 0.474389
0.092634 0.455607 -0.367447 1.82396 2.64005 -2.57349 192 192 192 255 0.327495 0.472971
-0.092651 0.455607 -0.367447 -2.41205 2.54677 -2.14691 192 192 192 255 0.327495 0.472971
-0.093132 0.779643 -0.367447 -1.02242 0.888682 -2.4556 192 192 192 255 0.327495 0.472971
0.093157 0.779643 -0.367447 2.02241 1.77707 -1.91127 192 192 192 255 0.327495 0.472971
-0.092651 0.455607 -0.367447 -2.41205 2.54677 -2.14691 192 192 192 255 0.299843 0.474389
-0.092651 0.455607 -0.186615 -1.82411 2.79503 2.22442 192 192 192 255 0.299843 0.474389
-0.093132 0.700083 -0.186615 -2.96366 -1.9516 1.37204 192 192 192 255 0.299843 0.474389
-0.093132 0.779643 -0.367447 -1.02242 0.888682 -2.4556 192 192 192 255 0.299843 0.474389
0.093157 0.846272 -0.237129 0.963665 2.81492 -0.784408 192 192 192 255 0.299843 0.474389
-0.093132 0.846272 -0.237129 -1.90491 2.62984 -1.56884 192 192 192 255 0.299843 0.474389
-0.093132 0.700083 -0.186615 -2.96366 -1.9516 1.37204 192 192 192 255 0.297007 0.474389
0.093157 0.700083 -0.186615 2.90491 -1.08912 1.69223 192 192 192 255 0.297007 0.474389
0.17205 0.77208 0.005463 2.94125 -2.94813 0.385462 192 192 192 255 0.299843 0.474389
0.17205 0.846272 0.005463 3.8825 2.03534 -2.26858 192 192 192 255 0.357983 0.478643
-0.172028 0.77208 0.005463 -2.88249 -3.08713 -0.282055 192 192 192 255 0.299843 0.474389
-0.172028 0.846272 0.005463 -4.94124 2.51767 -1.1343 192 192 192 255 0.299843 0.474389
0.17205 0.774612 0.205315 1 -1.99984 1.02534 192 192 192 255 0.297007 0.474389
-0.172028 0.774612 0.205315 -2 -0.99992 2.01267 192 192 192 255 0.297007 0.474389
0.17205 0.848804 0.205315 4 0.551865 2.83393 192 192 192 255 0.299843 0.474389
0.17205 0.774612 0.205315 1 -1.99984 1.02534 192 192 192 255 0.299843 0.474389
-0.172028 0.774612 0.205315 -2 -0.99992 2.01267 192 192 192 255 0.299843 0.474389
-0.172028 0.848804 0.205315 -2 1.10373 2.66787 192 192 192 255 0.299843 0.474389
-0.172028 0.941082 0.144249 -2 2.5335 0.563519 192 192 192 255 0.299843 0.474389
-0.172028 0.930623 0.067604 -1 2.17706 -1.74543 192 192 192 255 0.299843 0.474389
0.17205 0.941082 0.144249 1 2.09455 1.53266 192 192 192 255 0.327495 0.472971
-0.172028 0.941082 0.144249 -2 2.5335 0.563519 192 192 192 255 0.327495 0.472971
0.17205 0.930623 0.067604 2 2.57476 -1.07553 192 192 192 255 0.299843 0.474389
0.17205 0.941082 0.144249 1 2.09455 1.53266 192 192 192 255 0.299843 0.474389
0.175526 0.125337 -0.024162 3 3 1 192 192 192 255 0.299843 0.474389
0.175526 0.125337 -0.42104 3 3 -2 192 192 192 255 0.299843 0.474389
0.175526 0.418129 -0.42104 3.41198 2.55019 -2.14616 192 192 192 255 0.299843 0.474389
0.175526 0.418129 -0.024162 3.82396 2.79679 2.2248 192 192 192 255 0.299843 0.474389
0.175526 0.193304 -0.135544 4.01848 -1.88872 0.932704 192 192 192 255 0.076858 0.477835
0.175526 0.193304 -0.309662 4.05021 -0.944358 -1.86541 192 192 192 255 0.076858 0.477835
0.266468 0.224979 -0.274498 2.01848 -1.88872 -0.932704 192 192 192 255 0.076858 0.477835
0.266468 0.224979 -0.170708 3.0502 -0.944358 1.86541 192 192 192 255 0.076858 0.477835
0.175526 0.193304 -0.309662 4.05021 -0.944358 -1.86541 192 192 192 255 0.107346 0.476417
0.175526 0.350162 -0.309662 4.0185 1.88871 -0.932704 192 192 192 255 0.107346 0.476417
0.266468 0.318486 -0.274498 3.05022 0.944355 -1.86541 192 192 192 255 0.107346 0.476417
0.266468 0.224979 -0.274498 2.01848 -1.88872 -0.932704 192 192 192 255 0.107346 0.476417
0.175526 0.350162 -0.309662 4.0185 1.88871 -0.932704 192 192 192 255 0.137124 0.477835
0.175526 0.350162 -0.135544 4.05021 0.944355 1.86541 192 192 192 255 0.137124 0.477835
0.266468 0.318486 -0.170708 2.0185 1.88871 0.932704 192 192 192 255 0.137124 0.477835
0.266468 0.318486 -0.274498 3.05022 0.944355 -1.86541 192 192 192 255 0.137124 0.477835
0.175526 0.350162 -0.135544 4.05021 0.944355 1.86541 192 192 192 255 0.107346 0.476417
0.175526 0.193304 -0.135544 4.01848 -1.88872 0.932704 192 192 192 255 0.107346 0.476417
0.266468 0.224979 -0.170708 3.0502 -0.944358 1.86541 192 192 192 255 0.107346 0.476417
0.266468 0.318486 -0.170708 2.0185 1.88871 0.932704 192 192 192 255 0.107346 0.476417
-0.248425 0.95353 0.129128 -2 -0.282148 -2.21824 192 192 192 255 0.106654 0.477109
0 0.95353 0.129128 0 1.37951 -3.33129 192 192 192 255 0.106653 0.477109
0 0.762334 0.257187 0 -3.88777 -2.21059 192 192 192 255 0.106653 0.477109
-0.248425 0.762334 0.257187 -1 -2.2183 0.281975 192 192 192 255 0.106654 0.477109
-0.248425 0.95353 0.129128 -2 -0.282148 -2.21824 192 192 192 255 0.079002 0.478527
-0.248425 0.762334 0.257187 -1 -2.2183 0.281975 192 192 192 255 0.079002 0.478527
-0.248425 0.784119 0.289719 -1.99999 0.838702 3.04889 192 192 192 255 0.079002 0.478527
-0.248425 0.975316 0.161652 -0.999986 3.3312 1.37946 192 192 192 255 0.079002 0.478527
0.248425 0.975316 0.161652 1.99999 2.50041 1.93596 192 192 192 255 0.136432 0.478527
0.248425 0.95353 0.129128 1 0.548683 -2.77476 192 192 192 255 0.136432 0.478527
0.248425 0.95353 0.129128 1 0.548683 -2.77476 192 192 192 255 0.106653 0.477109
0.248425 0.762334 0.257187 2 -2.2183 0.281975 192 192 192 255 0.106653 0.477109
0.248425 0.762334 0.257187 2 -2.2183 0.281975 192 192 192 255 0.076166 0.478527
0.248425 0.784119 0.289719 0.999986 0.838648 3.04892 192 192 192 255 0.076166 0.478528
-0.248425 0.784119 0.289719 -1.99999 0.838702 3.04889 192 192 192 255 0.106654 0.477109
0 0.784119 0.289719 -6.73412e-006 0.0155402 7.21064 192 192 192 255 0.106653 0.477109
0 0.975316 0.161652 6.86678e-006 5.83161 3.31543 192 192 192 255 0.106653 0.477109
-0.248425 0.975316 0.161652 -0.999986 3.3312 1.37946 192 192 192 255 0.106654 0.477109
0.248425 0.784119 0.289719 0.999986 0.838648 3.04892 192 192 192 255 0.106653 0.477109
0.248425 0.975316 0.161652 1.99999 2.50041 1.93596 192 192 192 255 0.106653 0.477109
-0.188389 0.830325 0.258766 -0.999986 0.00784552 3.60549 192 192 192 255 0.05135 0.479237
-0.060034 0.830325 0.258766 1.99999 0.838753 3.04896 192 192 192 255 0.05135 0.479237
-0.060034 0.830325 0.258766 1.99999 0.838753 3.04896 192 192 192 255 0.079002 0.478527
-0.060034 0.92911 0.192604 0.999986 3.33125 1.37954 192 192 192 255 0.079002 0.478527
-0.060034 0.98055 0.483055 0.999827 0.00781155 3.60551 192 192 192 255 0.079002 0.478527
-0.060034 0.92911 0.192604 0.999986 3.33125 1.37954 192 192 192 255 0.136432 0.478527
-0.188389 0.92911 0.192604 -1.99999 2.50044 1.936 192 192 192 255 0.136432 0.478527
-0.060034 1.07933 0.416893 1.99991 2.50013 1.93621 192 192 192 255 0.136432 0.478527
-0.188389 0.92911 0.192604 -1.99999 2.50044 1.936 192 192 192 255 0.079002 0.478527
-0.188389 0.830325 0.258766 -0.999986 0.00784552 3.60549 192 192 192 255 0.079002 0.478527
-0.188389 0.98055 0.483055 -1.99991 0.838729 3.04898 192 192 192 255 0.079002 0.478527
-0.188389 1.07933 0.416893 -0.999827 3.33107 1.37966 192 192 192 255 0.079002 0.478527
0.060036 0.92911 0.192604 -1.99999 2.50044 1.936 192 192 192 255 0.079002 0.478527
0.060036 0.830325 0.258766 -0.999986 0.00784576 3.60549 192 192 192 255 0.079002 0.478527
0.060036 0.830325 0.258766 -0.999986 0.00784576 3.60549 192 192 192 255 0.05135 0.479237
0.188389 0.830325 0.258766 1.99999 0.838753 3.04896 192 192 192 255 0.05135 0.479237
0.060036 0.98055 0.483055 -1.99991 0.838729 3.04898 192 192 192 255 0.05135 0.479237
0.188389 0.830325 0.258766 1.99999 0.838753 3.04896 192 192 192 255 0.079002 0.478527
0.188389 0.92911 0.192604 0.999986 3.33125 1.37954 192 192 192 255 0.079002 0.478527
0.188389 0.98055 0.483055 0.999827 0.00781155 3.60551 192 192 192 255 0.079002 0.478527
0.188389 0.92911 0.192604 0.999986 3.33125 1.37954 192 192 192 255 0.136432 0.478527
0.060036 0.92911 0.192604 -1.99999 2.50044 1.936 192 192 192 255 0.136432 0.478527
0.060036 1.07933 0.416893 -0.999827 3.33107 1.37966 192 192 192 255 0.136432 0.478527
0.188389 1.07933 0.416893 1.99991 2.50013 1.93621 192 192 192 255 0.136432 0.478527
-0.188389 0.98055 0.483055 -1.99991 0.838729 3.04898 192 192 192 255 0.136432 0.478527
-0.060034 0.98055 0.483055 0.999827 0.00781155 3.60551 192 192 192 255 0.136432 0.478527
-0.098539 1.01019 0.463203 -8.655e-005 2.22608 3.32334 192 192 192 255 0.136432 0.478527
-0.149881 1.01019 0.463203 0.000173195 2.78251 4.15423 192 192 192 255 0.136432 0.478527
-0.098539 1.0497 0.436737 -0.0001731 2.78235 4.15434 192 192 192 255 0.136432 0.478527
-0.149881 1.0497 0.436737 8.65977e-005 2.22577 3.32355 192 192 192 255 0.136432 0.478527
0.060036 0.98055 0.483055 -1.99991 0.838729 3.04898 192 192 192 255 0.136432 0.478527
0.098543 1.01019 0.463203 0.0001732 2.22601 3.32338 192 192 192 255 0.136432 0.478527
0.098543 1.0497 0.436737 8.65999e-005 2.78226 4.1544 192 192 192 255 0.136432 0.478527
0.188389 0.98055 0.483055 0.999827 0.00781155 3.60551 192 192 192 255 0.136432 0.478527
0.149883 1.01019 0.463203 -8.65477e-005 2.78257 4.15419 192 192 192 255 0.136432 0.478527
0.149883 1.0497 0.436737 -0.000173095 2.22586 3.32349 192 192 192 255 0.136432 0.478527
-0.238825 0.467086 0.277733 -2 2 1 192 192 192 255 0.140587 0.477835
0.238825 0.467086 0.277733 1 1 2 192 192 192 255 0.140587 0.477835
-0.238825 0.467086 -0.350891 -1 1 -2 192 192 192 255 0.110808 0.476417
0.238825 0.467086 -0.350891 2 2 -1 192 192 192 255 0.110808 0.476417
0.238825 0.42541 0.277733 2 -2 1 192 192 192 255 0.083157 0.477835
0.238825 0.42541 -0.350891 1 -1 -2 192 192 192 255 0.083157 0.477835
0.238825 0.467086 -0.350891 2 2 -1 192 192 192 255 0.083157 0.477835
0.238825 0.467086 0.277733 1 1 2 192 192 192 255 0.083157 0.477835
-0.238825 0.42541 -0.350891 -2 -2 -1 192 192 192 255 0.083157 0.477835
-0.238825 0.42541 0.277733 -1 -1 2 192 192 192 255 0.083157 0.477835
-0.238825 0.467086 0.277733 -2 2 1 192 192 192 255 0.083157 0.477835
-0.238825 0.467086 -0.350891 -1 1 -2 192 192 192 255 0.083157 0.477835
-0.096222 0.701054 0.186691 -2.82667 -1.22162 2.91334 192 192 192 255 0.148203 0.265898
0.096222 0.701054 0.186691 2.91333 -1.2216 2.82668 192 192 192 255 0.148203 0.265898
0.096222 0.701054 -0.005753 2.82667 -1.22167 -2.91332 192 192 192 255 0.148203 0.265898
-0.096222 0.701054 -0.005753 -2.91333 -1.2217 -2.82664 192 192 192 255 0.148203 0.265898
-0.078674 0.250686 0.182823 -1.91467 2.86692 0.957343 192 192 192 255 0.134355 0.478527
0.078674 0.250686 0.182823 0.957334 1.86689 1.91469 192 192 192 255 0.134355 0.478527
-0.078674 0.250686 0.025475 -0.957334 1.8669 -1.91468 192 192 192 255 0.104576 0.477109
0.078674 0.250686 0.025475 1.91467 2.86693 -0.957341 192 192 192 255 0.104576 0.477109
0.116512 0.125337 0.220657 1.91467 -1.13308 0.957343 192 192 192 255 0.076924 0.478527
0.116512 0.125337 -0.01236 0.957334 -0.133096 -1.91468 192 192 192 255 0.076924 0.478527
0.078674 0.250686 0.025475 1.91467 2.86693 -0.957341 192 192 192 255 0.076924 0.478527
0.078674 0.250686 0.182823 0.957334 1.86689 1.91469 192 192 192 255 0.076924 0.478527
-0.116512 0.125337 -0.01236 -1.91467 -1.13307 -0.957341 192 192 192 255 0.076924 0.478527
-0.116512 0.125337 0.220657 -0.957334 -0.133109 1.91469 192 192 192 255 0.076924 0.478527
-0.078674 0.250686 0.182823 -1.91467 2.86692 0.957343 192 192 192 255 0.076924 0.478527
-0.078674 0.250686 0.025475 -0.957334 1.8669 -1.91468 192 192 192 255 0.076924 0.478527
3 0 1 3 
3 0 3 2 
3 24 25 22 
3 24 22 23 
3 4 5 7 
3 4 7 6 
3 110 111 112 
3 110 112 113 
3 114 115 116 
3 114 116 117 
3 118 119 120 
3 118 120 121 
3 122 123 9 
3 122 9 8 
3 123 124 10 
3 123 10 9 
3 124 125 11 
3 124 11 10 
3 125 122 8 
3 125 8 11 
3 126 127 13 
3 126 13 12 
3 42 43 44 
3 42 44 45 
3 128 129 15 
3 128 15 14 
3 130 131 132 
3 130 132 133 
3 12 13 17 
3 12 17 16 
3 134 135 18 
3 134 18 136 
3 135 137 19 
3 135 19 18 
3 137 138 139 
3 137 139 19 
3 16 17 21 
3 16 21 20 
3 140 141 142 
3 140 142 143 
3 144 145 146 
3 144 146 147 
3 148 149 150 
3 148 150 151 
3 30 31 32 
3 30 32 33 
3 143 142 152 
3 151 150 153 
3 154 155 27 
3 154 27 26 
3 143 152 28 
3 143 28 156 
3 25 24 29 
3 25 29 157 
3 153 150 158 
3 153 158 159 
3 26 27 160 
3 26 160 161 
3 156 28 162 
3 156 162 163 
3 35 34 36 
3 35 36 37 
3 159 158 164 
3 159 164 165 
3 157 29 34 
3 157 34 35 
3 159 165 166 
3 159 166 167 
3 33 32 168 
3 33 168 169 
3 162 28 170 
3 162 170 171 
3 172 173 39 
3 172 39 38 
3 173 174 40 
3 173 40 39 
3 174 175 41 
3 174 41 40 
3 175 172 38 
3 175 38 41 
3 176 177 178 
3 176 178 179 
3 180 181 182 
3 180 182 183 
3 184 185 186 
3 184 186 187 
3 188 189 190 
3 188 190 191 
3 46 56 57 
3 46 57 48 
3 74 75 76 
3 74 76 77 
3 50 54 55 
3 50 55 52 
3 192 193 194 
3 192 194 195 
3 47 53 51 
3 47 51 49 
3 196 197 198 
3 196 198 199 
3 54 200 201 
3 54 201 55 
3 194 193 202 
3 194 202 203 
3 57 56 204 
3 57 204 205 
3 79 78 80 
3 79 80 81 
3 206 207 59 
3 206 59 58 
3 207 208 60 
3 207 60 59 
3 208 209 61 
3 208 61 60 
3 209 206 58 
3 209 58 61 
3 208 207 62 
3 208 62 63 
3 207 210 64 
3 207 64 62 
3 210 211 65 
3 210 65 64 
3 211 208 63 
3 211 63 65 
3 212 213 67 
3 212 67 66 
3 214 215 68 
3 214 68 216 
3 217 218 69 
3 217 69 219 
3 220 221 222 
3 220 222 223 
3 224 225 70 
3 224 70 71 
3 226 227 72 
3 226 72 228 
3 229 230 73 
3 229 73 231 
3 232 233 234 
3 232 234 235 
3 236 237 238 
3 236 238 239 
3 237 219 240 
3 237 240 238 
3 219 69 241 
3 219 241 240 
3 69 236 239 
3 69 239 241 
3 234 242 243 
3 234 243 244 
3 242 245 246 
3 242 246 243 
3 245 235 247 
3 245 247 246 
3 235 234 244 
3 235 244 247 
3 82 83 85 
3 82 85 84 
3 248 249 87 
3 248 87 86 
3 250 251 89 
3 250 89 88 
3 88 89 83 
3 88 83 82 
3 252 253 254 
3 252 254 255 
3 256 257 258 
3 256 258 259 
3 90 91 93 
3 90 93 92 
3 94 95 97 
3 94 97 96 
3 96 97 91 
3 96 91 90 
3 91 97 95 
3 91 95 93 
3 96 90 92 
3 96 92 94 
3 260 261 99 
3 260 99 98 
3 261 262 100 
3 261 100 99 
3 262 263 101 
3 262 101 100 
3 263 260 98 
3 263 98 101 
3 102 103 105 
3 102 105 104 
3 264 265 107 
3 264 107 106 
3 266 267 109 
3 266 109 108 
3 108 109 103 
3 108 103 102 
3 268 269 270 
3 268 270 271 
3 272 273 274 
3 272 274 275 
