ply
format ascii 1.0
comment VCGLIB generated
comment TextureFile SpaceInteriors_Texture.png
element vertex 208
property float x
property float y
property float z
property float nx
property float ny
property float nz
property uchar red
property uchar green
property uchar blue
property uchar alpha
property float texture_u
property float texture_v
element face 192
property list uchar int vertex_indices
end_header
-1.07107 0.345301 -1.15689 -3 -3 -3 192 192 192 255 0.230047 0.182149
-1.07107 0.345301 1.10215 -3 -3 3 192 192 192 255 0.230047 0.182149
-1.07107 1.23679 -1.15689 -3 3 -3 192 192 192 255 0.230047 0.182149
-1.07107 1.23679 1.10215 -3 3 3 192 192 192 255 0.230047 0.182149
1.07107 1.23679 -1.15689 3 3 -3 192 192 192 255 0.32846 0.181451
1.07107 1.23679 1.10215 3 3 3 192 192 192 255 0.32846 0.181451
1.07107 0.345301 -1.15689 3 -3 -3 192 192 192 255 0.230047 0.182149
1.07107 0.345301 1.10215 3 -3 3 192 192 192 255 0.230047 0.182149
-1.07107 0.475796 -0.972626 -2.96241 1.99974 0.999986 192 192 192 255 0.230047 0.182149
-1.07107 0.475796 0.917885 -2.97331 0.999869 -1.99997 192 192 192 255 0.230047 0.182149
-1.07107 1.1063 0.917885 -2.96237 -1.99974 -0.999986 192 192 192 255 0.230047 0.182149
-1.07107 1.1063 -0.972626 -2.9734 -0.999869 1.99997 192 192 192 255 0.230047 0.182149
-0.872864 1.23679 -0.972626 1.99861 2.91751 0.999969 192 192 192 255 0.32846 0.181451
-0.872864 1.23679 0.917885 0.999304 2.94677 -1.99994 192 192 192 255 0.32846 0.181451
0.872864 1.23679 0.917885 -1.99861 2.91745 -0.999968 192 192 192 255 0.32846 0.181451
0.872864 1.23679 -0.972626 -0.999304 2.94689 1.99994 192 192 192 255 0.32846 0.181451
1.07107 1.1063 -0.972626 2.96241 -1.99974 0.999986 192 192 192 255 0.230047 0.182149
1.07107 1.1063 0.917885 2.97331 -0.999869 -1.99997 192 192 192 255 0.230047 0.182149
1.07107 0.475796 0.917885 2.96237 1.99974 -0.999986 192 192 192 255 0.230047 0.182149
1.07107 0.475796 -0.972626 2.9734 0.999869 1.99997 192 192 192 255 0.230047 0.182149
0.872864 0.345301 -0.972626 -1.99861 -2.91751 0.999969 192 192 192 255 0.202827 0.180055
0.872864 0.345301 0.917885 -0.999304 -2.94677 -1.99994 192 192 192 255 0.202827 0.180055
-0.872864 0.345301 0.917885 1.99861 -2.91745 -0.999968 192 192 192 255 0.202827 0.180055
-0.872864 0.345301 -0.972626 0.999304 -2.94689 1.99994 192 192 192 255 0.202827 0.180055
0.872864 0.475796 1.10215 -1.99933 0.999854 2.93105 192 192 192 255 0.262851 0.181451
-0.872864 0.475796 1.10215 0.999664 1.99971 2.93988 192 192 192 255 0.262851 0.181451
0.872864 1.1063 1.10215 -0.999664 -1.99971 2.93988 192 192 192 255 0.262851 0.181451
-0.872864 1.1063 1.10215 1.99933 -0.999854 2.93105 192 192 192 255 0.262851 0.181451
0.872864 0.475796 -1.15689 -0.999664 1.99971 -2.93989 192 192 192 255 0.262851 0.181451
-0.872864 0.475796 -1.15689 1.99933 0.999854 -2.93105 192 192 192 255 0.262851 0.181451
-0.872864 1.1063 -1.15689 0.999664 -1.99971 -2.93989 192 192 192 255 0.262851 0.181451
0.872864 1.1063 -1.15689 -1.99933 -0.999854 -2.93105 192 192 192 255 0.262851 0.181451
-0.877617 0.472663 -0.973633 3.02488 3.08207 3.06006 192 192 192 255 0.32846 0.181451
-0.877617 0.472663 0.9189 3.03626 3.05282 -3.06887 192 192 192 255 0.32846 0.181451
-0.877617 1.10943 0.9189 3.02496 -3.08213 -3.06006 192 192 192 255 0.262851 0.181451
-0.877617 1.10943 -0.973633 3.03622 -3.0527 3.06887 192 192 192 255 0.202827 0.180055
0.877617 1.10943 0.9189 -3.03626 -3.05282 -3.06887 192 192 192 255 0.262851 0.181451
0.877617 1.10943 -0.973633 -3.02488 -3.08207 3.06006 192 192 192 255 0.230047 0.182149
0.877617 0.472663 0.9189 -3.02496 3.08213 -3.06006 192 192 192 255 0.262851 0.181451
0.877617 0.472663 -0.973633 -3.03622 3.0527 3.06887 192 192 192 255 0.32846 0.181451
0.90757 0.125764 1.06652 -1 -1 2 192 192 192 255 0.198639 0.482969
1.03762 0.125764 1.06652 2 -2 1 192 192 192 255 0.198639 0.482969
0.90757 0.345301 1.06652 -2 2 1 192 192 192 255 0.198639 0.482969
1.03762 0.345301 1.06652 1 1 2 192 192 192 255 0.198639 0.482969
0.90757 0.345301 0.93647 -1 1 -2 192 192 192 255 0.198639 0.482969
1.03762 0.345301 0.93647 2 2 -1 192 192 192 255 0.198639 0.482969
0.90757 0.125764 0.93647 -2 -2 -1 192 192 192 255 0.198639 0.482969
1.03762 0.125764 0.93647 1 -1 -2 192 192 192 255 0.198639 0.482969
0.933174 0 1.15689 -1 -1 2 192 192 192 255 0.106508 0.475292
1.01202 0 1.15689 2 -2 1 192 192 192 255 0.106508 0.475292
0.933174 0.193874 1.15689 -2 2 1 192 192 192 255 0.106508 0.475292
1.01202 0.193874 1.15689 1 1 2 192 192 192 255 0.106508 0.475292
0.933174 0.193874 0.969048 -1 1 -2 192 192 192 255 0.106508 0.475292
1.01202 0.193874 0.969048 2 2 -1 192 192 192 255 0.106508 0.475292
0.933174 0 0.969048 -2 -2 -1 192 192 192 255 0.106508 0.475292
1.01202 0 0.969048 1 -1 -2 192 192 192 255 0.106508 0.475292
-1.03561 0.125764 1.06652 -1 -1 2 192 192 192 255 0.198639 0.482969
-0.905552 0.125764 1.06652 2 -2 1 192 192 192 255 0.198639 0.482969
-1.03561 0.345301 1.06652 -2 2 1 192 192 192 255 0.198639 0.482969
-0.905552 0.345301 1.06652 1 1 2 192 192 192 255 0.198639 0.482969
-1.03561 0.345301 0.93647 -1 1 -2 192 192 192 255 0.198639 0.482969
-0.905552 0.345301 0.93647 2 2 -1 192 192 192 255 0.198639 0.482969
-1.03561 0.125764 0.93647 -2 -2 -1 192 192 192 255 0.198639 0.482969
-0.905552 0.125764 0.93647 1 -1 -2 192 192 192 255 0.198639 0.482969
-1.01001 0 1.15689 -1 -1 2 192 192 192 255 0.106508 0.475292
-0.931156 0 1.15689 2 -2 1 192 192 192 255 0.106508 0.475292
-1.01001 0.193874 1.15689 -2 2 1 192 192 192 255 0.106508 0.475292
-0.931156 0.193874 1.15689 1 1 2 192 192 192 255 0.106508 0.475292
-1.01001 0.193874 0.969048 -1 1 -2 192 192 192 255 0.106508 0.475292
-0.931156 0.193874 0.969048 2 2 -1 192 192 192 255 0.106508 0.475292
-1.01001 0 0.969048 -2 -2 -1 192 192 192 255 0.106508 0.475292
-0.931156 0 0.969048 1 -1 -2 192 192 192 255 0.106508 0.475292
-1.03561 0.125764 -0.990677 -1 -1 2 192 192 192 255 0.198639 0.482969
-0.905552 0.125764 -0.990677 2 -2 1 192 192 192 255 0.198639 0.482969
-1.03561 0.345301 -0.990677 -2 2 1 192 192 192 255 0.198639 0.482969
-0.905552 0.345301 -0.990677 1 1 2 192 192 192 255 0.198639 0.482969
-1.03561 0.345301 -1.12072 -1 1 -2 192 192 192 255 0.198639 0.482969
-0.905552 0.345301 -1.12072 2 2 -1 192 192 192 255 0.198639 0.482969
-1.03561 0.125764 -1.12072 -2 -2 -1 192 192 192 255 0.198639 0.482969
-0.905552 0.125764 -1.12072 1 -1 -2 192 192 192 255 0.198639 0.482969
-1.01001 0 -0.900299 -1 -1 2 192 192 192 255 0.106508 0.475292
-0.931156 0 -0.900299 2 -2 1 192 192 192 255 0.106508 0.475292
-1.01001 0.193874 -0.900299 -2 2 1 192 192 192 255 0.106508 0.475292
-0.931156 0.193874 -0.900299 1 1 2 192 192 192 255 0.106508 0.475292
-1.01001 0.193874 -1.08815 -1 1 -2 192 192 192 255 0.106508 0.475292
-0.931156 0.193874 -1.08815 2 2 -1 192 192 192 255 0.106508 0.475292
-1.01001 0 -1.08815 -2 -2 -1 192 192 192 255 0.106508 0.475292
-0.931156 0 -1.08815 1 -1 -2 192 192 192 255 0.106508 0.475292
0.90757 0.125764 -0.990677 -1 -1 2 192 192 192 255 0.198639 0.482969
1.03762 0.125764 -0.990677 2 -2 1 192 192 192 255 0.198639 0.482969
0.90757 0.345301 -0.990677 -2 2 1 192 192 192 255 0.198639 0.482969
1.03762 0.345301 -0.990677 1 1 2 192 192 192 255 0.198639 0.482969
0.90757 0.345301 -1.12072 -1 1 -2 192 192 192 255 0.198639 0.482969
1.03762 0.345301 -1.12072 2 2 -1 192 192 192 255 0.198639 0.482969
0.90757 0.125764 -1.12072 -2 -2 -1 192 192 192 255 0.198639 0.482969
1.03762 0.125764 -1.12072 1 -1 -2 192 192 192 255 0.198639 0.482969
0.933174 0 -0.900299 -1 -1 2 192 192 192 255 0.106508 0.475292
1.01202 0 -0.900299 2 -2 1 192 192 192 255 0.106508 0.475292
0.933174 0.193874 -0.900299 -2 2 1 192 192 192 255 0.106508 0.475292
1.01202 0.193874 -0.900299 1 1 2 192 192 192 255 0.106508 0.475292
0.933174 0.193874 -1.08815 -1 1 -2 192 192 192 255 0.106508 0.475292
1.01202 0.193874 -1.08815 2 2 -1 192 192 192 255 0.106508 0.475292
0.933174 0 -1.08815 -2 -2 -1 192 192 192 255 0.106508 0.475292
1.01202 0 -1.08815 1 -1 -2 192 192 192 255 0.106508 0.475292
-1.07107 1.23679 -1.15689 -3 3 -3 192 192 192 255 0.32846 0.181451
-1.07107 1.23679 1.10215 -3 3 3 192 192 192 255 0.32846 0.181451
1.07107 1.23679 -1.15689 3 3 -3 192 192 192 255 0.230047 0.182149
1.07107 1.23679 1.10215 3 3 3 192 192 192 255 0.230047 0.182149
1.07107 0.345301 -1.15689 3 -3 -3 192 192 192 255 0.202827 0.180055
1.07107 0.345301 1.10215 3 -3 3 192 192 192 255 0.202827 0.180055
-1.07107 0.345301 1.10215 -3 -3 3 192 192 192 255 0.202827 0.180055
-1.07107 0.345301 -1.15689 -3 -3 -3 192 192 192 255 0.202827 0.180055
-1.07107 0.345301 1.10215 -3 -3 3 192 192 192 255 0.262851 0.181451
1.07107 0.345301 1.10215 3 -3 3 192 192 192 255 0.262851 0.181451
1.07107 1.23679 1.10215 3 3 3 192 192 192 255 0.262851 0.181451
-1.07107 1.23679 1.10215 -3 3 3 192 192 192 255 0.262851 0.181451
1.07107 0.345301 -1.15689 3 -3 -3 192 192 192 255 0.262851 0.181451
-1.07107 0.345301 -1.15689 -3 -3 -3 192 192 192 255 0.262851 0.181451
-1.07107 1.23679 -1.15689 -3 3 -3 192 192 192 255 0.262851 0.181451
1.07107 1.23679 -1.15689 3 3 -3 192 192 192 255 0.262851 0.181451
-1.07107 0.475796 -0.972626 -2.96241 1.99974 0.999986 192 192 192 255 0.32846 0.181451
-1.07107 0.475796 0.917885 -2.97331 0.999869 -1.99997 192 192 192 255 0.32846 0.181451
-1.07107 0.475796 0.917885 -2.97331 0.999869 -1.99997 192 192 192 255 0.262851 0.181451
-1.07107 1.1063 0.917885 -2.96237 -1.99974 -0.999986 192 192 192 255 0.262851 0.181451
-0.877617 0.472663 0.9189 3.03626 3.05282 -3.06887 192 192 192 255 0.262851 0.181451
-1.07107 1.1063 0.917885 -2.96237 -1.99974 -0.999986 192 192 192 255 0.202827 0.180055
-1.07107 1.1063 -0.972626 -2.9734 -0.999869 1.99997 192 192 192 255 0.202827 0.180055
-0.877617 1.10943 0.9189 3.02496 -3.08213 -3.06006 192 192 192 255 0.202827 0.180055
-1.07107 1.1063 -0.972626 -2.9734 -0.999869 1.99997 192 192 192 255 0.262851 0.181451
-1.07107 0.475796 -0.972626 -2.96241 1.99974 0.999986 192 192 192 255 0.262851 0.181451
-0.877617 0.472663 -0.973633 3.02488 3.08207 3.06006 192 192 192 255 0.262851 0.181451
-0.877617 1.10943 -0.973633 3.03622 -3.0527 3.06887 192 192 192 255 0.262851 0.181451
-0.872864 1.23679 -0.972626 1.99861 2.91751 0.999969 192 192 192 255 0.230047 0.182149
-0.872864 1.23679 0.917885 0.999304 2.94677 -1.99994 192 192 192 255 0.230047 0.182149
-0.877617 1.10943 0.9189 3.02496 -3.08213 -3.06006 192 192 192 255 0.230047 0.182149
-0.877617 1.10943 -0.973633 3.03622 -3.0527 3.06887 192 192 192 255 0.230047 0.182149
-0.872864 1.23679 0.917885 0.999304 2.94677 -1.99994 192 192 192 255 0.262851 0.181451
0.872864 1.23679 0.917885 -1.99861 2.91745 -0.999968 192 192 192 255 0.262851 0.181451
0.872864 1.23679 0.917885 -1.99861 2.91745 -0.999968 192 192 192 255 0.230047 0.182149
0.872864 1.23679 -0.972626 -0.999304 2.94689 1.99994 192 192 192 255 0.230047 0.182149
0.877617 1.10943 0.9189 -3.03626 -3.05282 -3.06887 192 192 192 255 0.230047 0.182149
0.872864 1.23679 -0.972626 -0.999304 2.94689 1.99994 192 192 192 255 0.262851 0.181451
-0.872864 1.23679 -0.972626 1.99861 2.91751 0.999969 192 192 192 255 0.262851 0.181451
0.877617 1.10943 -0.973633 -3.02488 -3.08207 3.06006 192 192 192 255 0.262851 0.181451
1.07107 1.1063 -0.972626 2.96241 -1.99974 0.999986 192 192 192 255 0.202827 0.180055
1.07107 1.1063 0.917885 2.97331 -0.999869 -1.99997 192 192 192 255 0.202827 0.180055
0.877617 1.10943 0.9189 -3.03626 -3.05282 -3.06887 192 192 192 255 0.202827 0.180055
0.877617 1.10943 -0.973633 -3.02488 -3.08207 3.06006 192 192 192 255 0.202827 0.180055
1.07107 1.1063 0.917885 2.97331 -0.999869 -1.99997 192 192 192 255 0.262851 0.181451
1.07107 0.475796 0.917885 2.96237 1.99974 -0.999986 192 192 192 255 0.262851 0.181451
1.07107 0.475796 0.917885 2.96237 1.99974 -0.999986 192 192 192 255 0.32846 0.181451
1.07107 0.475796 -0.972626 2.9734 0.999869 1.99997 192 192 192 255 0.32846 0.181451
0.877617 0.472663 0.9189 -3.02496 3.08213 -3.06006 192 192 192 255 0.32846 0.181451
1.07107 0.475796 -0.972626 2.9734 0.999869 1.99997 192 192 192 255 0.262851 0.181451
1.07107 1.1063 -0.972626 2.96241 -1.99974 0.999986 192 192 192 255 0.262851 0.181451
0.877617 0.472663 -0.973633 -3.03622 3.0527 3.06887 192 192 192 255 0.262851 0.181451
0.872864 0.345301 -0.972626 -1.99861 -2.91751 0.999969 192 192 192 255 0.230047 0.182149
0.872864 0.345301 0.917885 -0.999304 -2.94677 -1.99994 192 192 192 255 0.230047 0.182149
0.877617 0.472663 0.9189 -3.02496 3.08213 -3.06006 192 192 192 255 0.230047 0.182149
0.877617 0.472663 -0.973633 -3.03622 3.0527 3.06887 192 192 192 255 0.230047 0.182149
0.872864 0.345301 0.917885 -0.999304 -2.94677 -1.99994 192 192 192 255 0.262851 0.181451
-0.872864 0.345301 0.917885 1.99861 -2.91745 -0.999968 192 192 192 255 0.262851 0.181451
-0.872864 0.345301 0.917885 1.99861 -2.91745 -0.999968 192 192 192 255 0.230047 0.182149
-0.872864 0.345301 -0.972626 0.999304 -2.94689 1.99994 192 192 192 255 0.230047 0.182149
-0.877617 0.472663 -0.973633 3.02488 3.08207 3.06006 192 192 192 255 0.230047 0.182149
-0.877617 0.472663 0.9189 3.03626 3.05282 -3.06887 192 192 192 255 0.230047 0.182149
-0.872864 0.345301 -0.972626 0.999304 -2.94689 1.99994 192 192 192 255 0.262851 0.181451
0.872864 0.345301 -0.972626 -1.99861 -2.91751 0.999969 192 192 192 255 0.262851 0.181451
-0.872864 0.475796 1.10215 0.999664 1.99971 2.93988 192 192 192 255 0.32846 0.181451
0.872864 0.475796 1.10215 -1.99933 0.999854 2.93105 192 192 192 255 0.32846 0.181451
0.872864 1.1063 1.10215 -0.999664 -1.99971 2.93988 192 192 192 255 0.202827 0.180055
-0.872864 1.1063 1.10215 1.99933 -0.999854 2.93105 192 192 192 255 0.202827 0.180055
0.872864 0.475796 -1.15689 -0.999664 1.99971 -2.93989 192 192 192 255 0.32846 0.181451
-0.872864 0.475796 -1.15689 1.99933 0.999854 -2.93105 192 192 192 255 0.32846 0.181451
-0.872864 1.1063 -1.15689 0.999664 -1.99971 -2.93989 192 192 192 255 0.202827 0.180055
0.872864 1.1063 -1.15689 -1.99933 -0.999854 -2.93105 192 192 192 255 0.202827 0.180055
1.03762 0.125764 1.06652 2 -2 1 192 192 192 255 0.170023 0.478084
1.03762 0.125764 0.93647 1 -1 -2 192 192 192 255 0.170023 0.478084
1.03762 0.345301 0.93647 2 2 -1 192 192 192 255 0.170023 0.478084
1.03762 0.345301 1.06652 1 1 2 192 192 192 255 0.170023 0.478084
0.90757 0.125764 0.93647 -2 -2 -1 192 192 192 255 0.170023 0.478084
0.90757 0.125764 1.06652 -1 -1 2 192 192 192 255 0.170023 0.478084
0.90757 0.345301 1.06652 -2 2 1 192 192 192 255 0.170023 0.478084
0.90757 0.345301 0.93647 -1 1 -2 192 192 192 255 0.170023 0.478084
-0.905552 0.125764 1.06652 2 -2 1 192 192 192 255 0.170023 0.478084
-0.905552 0.125764 0.93647 1 -1 -2 192 192 192 255 0.170023 0.478084
-0.905552 0.345301 0.93647 2 2 -1 192 192 192 255 0.170023 0.478084
-0.905552 0.345301 1.06652 1 1 2 192 192 192 255 0.170023 0.478084
-1.03561 0.125764 0.93647 -2 -2 -1 192 192 192 255 0.170023 0.478084
-1.03561 0.125764 1.06652 -1 -1 2 192 192 192 255 0.170023 0.478084
-1.03561 0.345301 1.06652 -2 2 1 192 192 192 255 0.170023 0.478084
-1.03561 0.345301 0.93647 -1 1 -2 192 192 192 255 0.170023 0.478084
-0.905552 0.125764 -0.990677 2 -2 1 192 192 192 255 0.170023 0.478084
-0.905552 0.125764 -1.12072 1 -1 -2 192 192 192 255 0.170023 0.478084
-0.905552 0.345301 -1.12072 2 2 -1 192 192 192 255 0.170023 0.478084
-0.905552 0.345301 -0.990677 1 1 2 192 192 192 255 0.170023 0.478084
-1.03561 0.125764 -1.12072 -2 -2 -1 192 192 192 255 0.170023 0.478084
-1.03561 0.125764 -0.990677 -1 -1 2 192 192 192 255 0.170023 0.478084
-1.03561 0.345301 -0.990677 -2 2 1 192 192 192 255 0.170023 0.478084
-1.03561 0.345301 -1.12072 -1 1 -2 192 192 192 255 0.170023 0.478084
1.03762 0.125764 -0.990677 2 -2 1 192 192 192 255 0.170023 0.478084
1.03762 0.125764 -1.12072 1 -1 -2 192 192 192 255 0.170023 0.478084
1.03762 0.345301 -1.12072 2 2 -1 192 192 192 255 0.170023 0.478084
1.03762 0.345301 -0.990677 1 1 2 192 192 192 255 0.170023 0.478084
0.90757 0.125764 -1.12072 -2 -2 -1 192 192 192 255 0.170023 0.478084
0.90757 0.125764 -0.990677 -1 -1 2 192 192 192 255 0.170023 0.478084
0.90757 0.345301 -0.990677 -2 2 1 192 192 192 255 0.170023 0.478084
0.90757 0.345301 -1.12072 -1 1 -2 192 192 192 255 0.170023 0.478084
3 0 1 9 
3 0 9 8 
3 1 3 10 
3 1 10 9 
3 3 2 11 
3 3 11 10 
3 2 0 8 
3 2 8 11 
3 104 105 13 
3 104 13 12 
3 105 5 14 
3 105 14 13 
3 5 4 15 
3 5 15 14 
3 4 104 12 
3 4 12 15 
3 106 107 17 
3 106 17 16 
3 107 7 18 
3 107 18 17 
3 7 6 19 
3 7 19 18 
3 6 106 16 
3 6 16 19 
3 108 109 21 
3 108 21 20 
3 109 110 22 
3 109 22 21 
3 110 111 23 
3 110 23 22 
3 111 108 20 
3 111 20 23 
3 112 113 24 
3 112 24 25 
3 113 114 26 
3 113 26 24 
3 114 115 27 
3 114 27 26 
3 115 112 25 
3 115 25 27 
3 116 117 29 
3 116 29 28 
3 117 118 30 
3 117 30 29 
3 118 119 31 
3 118 31 30 
3 119 116 28 
3 119 28 31 
3 120 121 33 
3 120 33 32 
3 122 123 34 
3 122 34 124 
3 125 126 35 
3 125 35 127 
3 128 129 130 
3 128 130 131 
3 132 133 134 
3 132 134 135 
3 136 137 36 
3 136 36 34 
3 138 139 37 
3 138 37 140 
3 141 142 131 
3 141 131 143 
3 144 145 146 
3 144 146 147 
3 148 149 38 
3 148 38 36 
3 150 151 39 
3 150 39 152 
3 153 154 143 
3 153 143 155 
3 156 157 158 
3 156 158 159 
3 160 161 124 
3 160 124 38 
3 162 163 164 
3 162 164 165 
3 166 167 155 
3 166 155 130 
3 168 169 152 
3 168 152 33 
3 24 26 36 
3 24 36 38 
3 170 171 127 
3 170 127 146 
3 27 25 124 
3 27 124 34 
3 172 173 32 
3 172 32 39 
3 29 30 131 
3 29 131 130 
3 174 175 147 
3 174 147 35 
3 31 28 155 
3 31 155 143 
3 40 41 43 
3 40 43 42 
3 42 43 45 
3 42 45 44 
3 44 45 47 
3 44 47 46 
3 46 47 41 
3 46 41 40 
3 176 177 178 
3 176 178 179 
3 180 181 182 
3 180 182 183 
3 48 49 51 
3 48 51 50 
3 50 51 53 
3 50 53 52 
3 52 53 55 
3 52 55 54 
3 54 55 49 
3 54 49 48 
3 49 55 53 
3 49 53 51 
3 54 48 50 
3 54 50 52 
3 56 57 59 
3 56 59 58 
3 58 59 61 
3 58 61 60 
3 60 61 63 
3 60 63 62 
3 62 63 57 
3 62 57 56 
3 184 185 186 
3 184 186 187 
3 188 189 190 
3 188 190 191 
3 64 65 67 
3 64 67 66 
3 66 67 69 
3 66 69 68 
3 68 69 71 
3 68 71 70 
3 70 71 65 
3 70 65 64 
3 65 71 69 
3 65 69 67 
3 70 64 66 
3 70 66 68 
3 72 73 75 
3 72 75 74 
3 74 75 77 
3 74 77 76 
3 76 77 79 
3 76 79 78 
3 78 79 73 
3 78 73 72 
3 192 193 194 
3 192 194 195 
3 196 197 198 
3 196 198 199 
3 80 81 83 
3 80 83 82 
3 82 83 85 
3 82 85 84 
3 84 85 87 
3 84 87 86 
3 86 87 81 
3 86 81 80 
3 81 87 85 
3 81 85 83 
3 86 80 82 
3 86 82 84 
3 88 89 91 
3 88 91 90 
3 90 91 93 
3 90 93 92 
3 92 93 95 
3 92 95 94 
3 94 95 89 
3 94 89 88 
3 200 201 202 
3 200 202 203 
3 204 205 206 
3 204 206 207 
3 96 97 99 
3 96 99 98 
3 98 99 101 
3 98 101 100 
3 100 101 103 
3 100 103 102 
3 102 103 97 
3 102 97 96 
3 97 103 101 
3 97 101 99 
3 102 96 98 
3 102 98 100 
