ply
format ascii 1.0
comment VCGLIB generated
comment TextureFile SpaceInteriors_Texture.png
element vertex 54
property float x
property float y
property float z
property float nx
property float ny
property float nz
property uchar red
property uchar green
property uchar blue
property uchar alpha
property float texture_u
property float texture_v
element face 32
property list uchar int vertex_indices
end_header
0 0 0 1 -1 3 192 192 192 255 0.200168 0.061667
0 1 -0.620782 2 2.7906 0.612333 192 192 192 255 0.233148 0.061667
0 1 -1 1 1 -2 192 192 192 255 0.233148 0.061667
0 0 -1 3 -2 -1 192 192 192 255 0.200168 0.061667
0 0.519194 0 2 1.5812 4.22467 192 192 192 255 0.233148 0.061667
-1 0.519194 0 -1 0.7906 3.61233 192 192 192 255 0.750511 0.672591
-1 1 -0.620782 -3 2.5812 1.22467 192 192 192 255 0.750511 0.880844
-1 1 -1 -1 2 -1 192 192 192 255 0.300052 0.061667
-1 0 -1 -2 -1 -2 192 192 192 255 0.200168 0.061667
-1 0 0 -2 -2 3 192 192 192 255 0.200168 0.061667
-0.86638 0.44982 0 2 -1 3 192 192 192 255 0.265187 0.061667
-0.86638 0.069374 0 1 2 3 192 192 192 255 0.265187 0.061667
-0.133619 0.069374 0 -2 1 3 192 192 192 255 0.265187 0.061667
-0.133619 0.44982 0 -1 -2 3 192 192 192 255 0.265187 0.061667
-0.86638 0.44982 -0.070731 1 -2 2 192 192 192 255 0.509012 0.990932
-0.86638 0.069374 -0.070731 2 1 1 192 192 192 255 0.509012 0.937253
-0.133619 0.069374 -0.070731 -1 2 2 192 192 192 255 0.645066 0.937253
-0.133619 0.44982 -0.070731 -2 -1 1 192 192 192 255 0.645066 0.990932
0 0 -1 3 -2 -1 192 192 192 255 0.233148 0.061667
0 0 0 1 -1 3 192 192 192 255 0.233148 0.061667
0 0.519194 0 2 1.5812 4.22467 192 192 192 255 0.506956 0.672591
0 1 -0.620782 2 2.7906 0.612333 192 192 192 255 0.506956 0.880844
-1 1 -0.620782 -3 2.5812 1.22467 192 192 192 255 0.300052 0.061667
0 1 -0.620782 2 2.7906 0.612333 192 192 192 255 0.300052 0.061667
0 1 -1 1 1 -2 192 192 192 255 0.300052 0.061667
-1 0 -1 -2 -1 -2 192 192 192 255 0.265187 0.061667
-1 1 -1 -1 2 -1 192 192 192 255 0.265187 0.061667
0 1 -1 1 1 -2 192 192 192 255 0.265187 0.061667
0 0 -1 3 -2 -1 192 192 192 255 0.265187 0.061667
-1 1 -0.620782 -3 2.5812 1.22467 192 192 192 255 0.236477 0.060738
-1 1 -1 -1 2 -1 192 192 192 255 0.236477 0.060738
-1 0 -1 -2 -1 -2 192 192 192 255 0.236477 0.060739
-1 0 0 -2 -2 3 192 192 192 255 0.236477 0.060739
-1 0.519194 0 -1 0.7906 3.61233 192 192 192 255 0.236477 0.060738
-1 0.519194 0 -1 0.7906 3.61233 192 192 192 255 0.265187 0.061667
-1 0 0 -2 -2 3 192 192 192 255 0.265187 0.061667
0 0 0 1 -1 3 192 192 192 255 0.265187 0.061667
0 0.519194 0 2 1.5812 4.22467 192 192 192 255 0.265187 0.061667
-0.86638 0.44982 0 2 -1 3 192 192 192 255 0.205902 0.061667
-0.86638 0.069374 0 1 2 3 192 192 192 255 0.205902 0.061667
-0.86638 0.069374 -0.070731 2 1 1 192 192 192 255 0.205902 0.061667
-0.86638 0.44982 -0.070731 1 -2 2 192 192 192 255 0.205902 0.061667
-0.86638 0.069374 0 1 2 3 192 192 192 255 0.297794 0.061667
-0.133619 0.069374 0 -2 1 3 192 192 192 255 0.297794 0.061667
-0.133619 0.069374 -0.070731 -1 2 2 192 192 192 255 0.297794 0.061667
-0.86638 0.069374 -0.070731 2 1 1 192 192 192 255 0.297794 0.061667
-0.133619 0.069374 0 -2 1 3 192 192 192 255 0.205902 0.061667
-0.133619 0.44982 0 -1 -2 3 192 192 192 255 0.205902 0.061667
-0.133619 0.44982 -0.070731 -2 -1 1 192 192 192 255 0.205902 0.061667
-0.133619 0.069374 -0.070731 -1 2 2 192 192 192 255 0.205902 0.061667
-0.133619 0.44982 0 -1 -2 3 192 192 192 255 0.169343 0.061667
-0.86638 0.44982 0 2 -1 3 192 192 192 255 0.169343 0.061667
-0.86638 0.44982 -0.070731 1 -2 2 192 192 192 255 0.169343 0.061667
-0.133619 0.44982 -0.070731 -2 -1 1 192 192 192 255 0.169343 0.061667
3 9 8 3 
3 9 3 0 
3 18 2 1 
3 18 1 4 
3 18 4 19 
3 14 15 16 
3 14 16 17 
3 6 5 20 
3 6 20 21 
3 7 22 23 
3 7 23 24 
3 25 26 27 
3 25 27 28 
3 29 30 31 
3 29 31 32 
3 29 32 33 
3 34 35 11 
3 34 11 10 
3 35 36 12 
3 35 12 11 
3 36 37 13 
3 36 13 12 
3 37 34 10 
3 37 10 13 
3 38 39 40 
3 38 40 41 
3 42 43 44 
3 42 44 45 
3 46 47 48 
3 46 48 49 
3 50 51 52 
3 50 52 53 
