ply
format ascii 1.0
comment VCGLIB generated
comment TextureFile SpaceInteriors_Texture.png
element vertex 56
property float x
property float y
property float z
property float nx
property float ny
property float nz
property uchar red
property uchar green
property uchar blue
property uchar alpha
property float texture_u
property float texture_v
element face 28
property list uchar int vertex_indices
end_header
-0.134798 0 0.134796 -1 -1 2 192 192 192 255 0.326183 0.476807
0.134798 0 0.134796 2 -2 1 192 192 192 255 0.326183 0.476807
-0.134798 0.410021 0.134796 -2.95867 0.853537 2.91735 192 192 192 255 0.326183 0.476807
0.134798 0.410021 0.134796 2.91735 0.853529 2.95867 192 192 192 255 0.326183 0.476807
-0.134798 0.410021 -0.134796 -2.91734 0.853545 -2.95867 192 192 192 255 0.326183 0.476807
0.134798 0.410021 -0.134796 2.95867 0.853529 -2.91735 192 192 192 255 0.326183 0.476807
-0.134798 0 -0.134796 -2 -2 -1 192 192 192 255 0.326183 0.476807
0.134798 0 -0.134796 1 -1 -2 192 192 192 255 0.326183 0.476807
-0.070309 0.627314 0.070309 -2.91734 0.853545 2.95867 192 192 192 255 0.359507 0.475389
0.070311 0.627314 0.070309 2.95867 0.853529 2.91735 192 192 192 255 0.359507 0.475389
0.070311 0.627314 -0.070309 2.91735 0.853529 -2.95867 192 192 192 255 0.323347 0.475389
-0.070309 0.627314 -0.070309 -2.95867 0.853537 -2.91735 192 192 192 255 0.359507 0.475389
-0.070309 0.691158 0.070309 -2 2 1 192 192 192 255 0.292565 0.332252
0.070311 0.691158 0.070309 1 1 2 192 192 192 255 0.292565 0.332252
0.070311 0.691158 -0.070309 2 2 -1 192 192 192 255 0.292565 0.332252
-0.070309 0.691158 -0.070309 -1 1 -2 192 192 192 255 0.292565 0.332252
-0.134798 0 -0.134796 -2 -2 -1 192 192 192 255 0.359507 0.475389
0.134798 0 -0.134796 1 -1 -2 192 192 192 255 0.359507 0.475389
0.134798 0 0.134796 2 -2 1 192 192 192 255 0.359507 0.475389
-0.134798 0 0.134796 -1 -1 2 192 192 192 255 0.359507 0.475389
0.134798 0 0.134796 2 -2 1 192 192 192 255 0.290023 0.476807
0.134798 0 -0.134796 1 -1 -2 192 192 192 255 0.290023 0.476807
0.134798 0.410021 -0.134796 2.95867 0.853529 -2.91735 192 192 192 255 0.290023 0.476807
0.134798 0.410021 0.134796 2.91735 0.853529 2.95867 192 192 192 255 0.290023 0.476807
-0.134798 0 -0.134796 -2 -2 -1 192 192 192 255 0.290023 0.476807
-0.134798 0 0.134796 -1 -1 2 192 192 192 255 0.290023 0.476807
-0.134798 0.410021 0.134796 -2.95867 0.853537 2.91735 192 192 192 255 0.290023 0.476807
-0.134798 0.410021 -0.134796 -2.91734 0.853545 -2.95867 192 192 192 255 0.290023 0.476807
-0.134798 0.410021 0.134796 -2.95867 0.853537 2.91735 192 192 192 255 0.359507 0.475389
0.134798 0.410021 0.134796 2.91735 0.853529 2.95867 192 192 192 255 0.359507 0.475389
0.134798 0.410021 0.134796 2.91735 0.853529 2.95867 192 192 192 255 0.323347 0.475389
0.134798 0.410021 -0.134796 2.95867 0.853529 -2.91735 192 192 192 255 0.323347 0.475389
0.070311 0.627314 0.070309 2.95867 0.853529 2.91735 192 192 192 255 0.323347 0.475389
0.134798 0.410021 -0.134796 2.95867 0.853529 -2.91735 192 192 192 255 0.359507 0.475389
-0.134798 0.410021 -0.134796 -2.91734 0.853545 -2.95867 192 192 192 255 0.359507 0.475389
0.070311 0.627314 -0.070309 2.91735 0.853529 -2.95867 192 192 192 255 0.359507 0.475389
-0.134798 0.410021 -0.134796 -2.91734 0.853545 -2.95867 192 192 192 255 0.323347 0.475389
-0.134798 0.410021 0.134796 -2.95867 0.853537 2.91735 192 192 192 255 0.323347 0.475389
-0.070309 0.627314 0.070309 -2.91734 0.853545 2.95867 192 192 192 255 0.323347 0.475389
-0.070309 0.627314 -0.070309 -2.95867 0.853537 -2.91735 192 192 192 255 0.323347 0.475389
-0.070309 0.627314 0.070309 -2.91734 0.853545 2.95867 192 192 192 255 0.264204 0.332252
0.070311 0.627314 0.070309 2.95867 0.853529 2.91735 192 192 192 255 0.264204 0.332252
0.070311 0.691158 0.070309 1 1 2 192 192 192 255 0.264204 0.332252
-0.070309 0.691158 0.070309 -2 2 1 192 192 192 255 0.264204 0.332252
0.070311 0.627314 0.070309 2.95867 0.853529 2.91735 192 192 192 255 0.228044 0.332252
0.070311 0.627314 -0.070309 2.91735 0.853529 -2.95867 192 192 192 255 0.228044 0.332252
0.070311 0.691158 -0.070309 2 2 -1 192 192 192 255 0.228044 0.332252
0.070311 0.691158 0.070309 1 1 2 192 192 192 255 0.228044 0.332252
0.070311 0.627314 -0.070309 2.91735 0.853529 -2.95867 192 192 192 255 0.264204 0.332252
-0.070309 0.627314 -0.070309 -2.95867 0.853537 -2.91735 192 192 192 255 0.264204 0.332252
-0.070309 0.691158 -0.070309 -1 1 -2 192 192 192 255 0.264204 0.332252
0.070311 0.691158 -0.070309 2 2 -1 192 192 192 255 0.264204 0.332252
-0.070309 0.627314 -0.070309 -2.95867 0.853537 -2.91735 192 192 192 255 0.228044 0.332252
-0.070309 0.627314 0.070309 -2.91734 0.853545 2.95867 192 192 192 255 0.228044 0.332252
-0.070309 0.691158 0.070309 -2 2 1 192 192 192 255 0.228044 0.332252
-0.070309 0.691158 -0.070309 -1 1 -2 192 192 192 255 0.228044 0.332252
3 0 1 3 
3 0 3 2 
3 12 13 14 
3 12 14 15 
3 4 5 7 
3 4 7 6 
3 16 17 18 
3 16 18 19 
3 20 21 22 
3 20 22 23 
3 24 25 26 
3 24 26 27 
3 28 29 9 
3 28 9 8 
3 30 31 10 
3 30 10 32 
3 33 34 11 
3 33 11 35 
3 36 37 38 
3 36 38 39 
3 40 41 42 
3 40 42 43 
3 44 45 46 
3 44 46 47 
3 48 49 50 
3 48 50 51 
3 52 53 54 
3 52 54 55 
