ply
format ascii 1.0
comment VCGLIB generated
comment TextureFile SpaceInteriors_Texture.png
element vertex 40
property float x
property float y
property float z
property float nx
property float ny
property float nz
property uchar red
property uchar green
property uchar blue
property uchar alpha
property float texture_u
property float texture_v
element face 28
property list uchar int vertex_indices
end_header
-0.062344 0 -0.062344 -2 -1 -1 192 192 192 255 0.23564 0.266359
-0.062344 0 0.062344 -1 -2 2 192 192 192 255 0.23564 0.266359
-0.062344 0.124688 -0.062344 -1 3 -2 192 192 192 255 0.23564 0.266359
-0.062344 0.124688 0.062344 -2 3 1 192 192 192 255 0.23564 0.266359
0.062344 0.124688 -0.062344 2 3 -1 192 192 192 255 0.23564 0.266359
0.062344 0.124688 0.062344 1 3 2 192 192 192 255 0.23564 0.266359
0.062344 0 -0.062344 1 -2 -2 192 192 192 255 0.23564 0.266359
0.062344 0 0.062344 2 -1 1 192 192 192 255 0.23564 0.266359
-0.040537 0.124688 -0.040537 -2 3 -1 192 192 192 255 0.26381 0.258398
-0.040537 0.124688 0.040537 -1 3 2 192 192 192 255 0.26381 0.258398
0.040537 0.124688 0.040537 2 3 1 192 192 192 255 0.26381 0.258398
0.040537 0.124688 -0.040537 1 3 -2 192 192 192 255 0.26381 0.258398
-0.040537 0.1577 -0.040537 -1 2 -2 192 192 192 255 0.984998 0.377375
-0.040537 0.1577 0.040537 -2 1 1 192 192 192 255 0.984998 0.377375
0.040537 0.1577 0.040537 1 2 2 192 192 192 255 0.984998 0.377375
0.040537 0.1577 -0.040537 2 1 -1 192 192 192 255 0.984998 0.377375
0.062344 0 -0.062344 1 -2 -2 192 192 192 255 0.202572 0.265746
0.062344 0 0.062344 2 -1 1 192 192 192 255 0.202572 0.265746
-0.062344 0 0.062344 -1 -2 2 192 192 192 255 0.202572 0.265746
-0.062344 0 -0.062344 -2 -1 -1 192 192 192 255 0.202572 0.265746
-0.062344 0 0.062344 -1 -2 2 192 192 192 255 0.207471 0.267583
0.062344 0 0.062344 2 -1 1 192 192 192 255 0.207471 0.267583
0.062344 0.124688 0.062344 1 3 2 192 192 192 255 0.207471 0.267583
-0.062344 0.124688 0.062344 -2 3 1 192 192 192 255 0.207471 0.267583
0.062344 0 -0.062344 1 -2 -2 192 192 192 255 0.207471 0.267583
-0.062344 0 -0.062344 -2 -1 -1 192 192 192 255 0.207471 0.267583
-0.062344 0.124688 -0.062344 -1 3 -2 192 192 192 255 0.207471 0.267583
0.062344 0.124688 -0.062344 2 3 -1 192 192 192 255 0.207471 0.267583
-0.062344 0.124688 -0.062344 -1 3 -2 192 192 192 255 0.26381 0.258398
-0.062344 0.124688 0.062344 -2 3 1 192 192 192 255 0.26381 0.258398
0.062344 0.124688 0.062344 1 3 2 192 192 192 255 0.26381 0.258398
0.062344 0.124688 -0.062344 2 3 -1 192 192 192 255 0.26381 0.258398
-0.040537 0.124688 -0.040537 -2 3 -1 192 192 192 255 0.919093 0.378173
-0.040537 0.124688 0.040537 -1 3 2 192 192 192 255 0.919093 0.378173
-0.040537 0.1577 0.040537 -2 1 1 192 192 192 255 0.919093 0.378173
-0.040537 0.1577 -0.040537 -1 2 -2 192 192 192 255 0.919093 0.378173
0.040537 0.124688 0.040537 2 3 1 192 192 192 255 0.919093 0.378173
0.040537 0.1577 0.040537 1 2 2 192 192 192 255 0.919093 0.378173
0.040537 0.124688 -0.040537 1 3 -2 192 192 192 255 0.919093 0.378173
0.040537 0.1577 -0.040537 2 1 -1 192 192 192 255 0.919093 0.378173
3 0 1 3 
3 0 3 2 
3 12 13 14 
3 12 14 15 
3 4 5 7 
3 4 7 6 
3 16 17 18 
3 16 18 19 
3 20 21 22 
3 20 22 23 
3 24 25 26 
3 24 26 27 
3 28 29 9 
3 28 9 8 
3 29 30 10 
3 29 10 9 
3 30 31 11 
3 30 11 10 
3 31 28 8 
3 31 8 11 
3 32 33 34 
3 32 34 35 
3 33 36 37 
3 33 37 34 
3 36 38 39 
3 36 39 37 
3 38 32 35 
3 38 35 39 
