ply
format ascii 1.0
comment VCGLIB generated
comment TextureFile SpaceInteriors_Texture.png
element vertex 146
property float x
property float y
property float z
property float nx
property float ny
property float nz
property uchar red
property uchar green
property uchar blue
property uchar alpha
property float texture_u
property float texture_v
element face 82
property list uchar int vertex_indices
end_header
0.370923 1.08238 -0.043026 1.79753 1.86251 -2.55381 192 192 192 255 0.20256 0.37617
-0.370923 1.08238 -0.043026 -3.59506 1.83618 -2.77691 192 192 192 255 0.20256 0.37617
0.370923 1.08238 0.442022 3.59506 1.83619 3.7769 192 192 192 255 0.20256 0.37617
-0.370923 1.08238 0.442022 -1.79753 1.86253 3.5538 192 192 192 255 0.20256 0.37617
0.370923 0.923475 0.442022 1 -2 1 192 192 192 255 0.20256 0.37617
-0.370923 0.923475 0.442022 -2 -1 2 192 192 192 255 0.20256 0.37617
0.370923 0.923475 -0.043026 2 -1 -5 192 192 192 255 0.147865 0.376093
-0.370923 0.923475 -0.043026 -1 -2 -1 192 192 192 255 0.147865 0.376093
-0.157159 0 0.30924 -1 -0.999978 2 192 192 192 255 0.267127 0.063362
0.15716 0 0.30924 2 -1.99999 1 192 192 192 255 0.267127 0.063362
-0.157159 0 0.078684 -2 -2 -1 192 192 192 255 0.267127 0.063362
0.15716 0 0.078684 1 -1 -2 192 192 192 255 0.267127 0.063362
-0.082722 0.923475 0.143181 -1 0 -2 192 192 192 255 0.300108 0.063362
-0.082722 0.923475 0.244744 -2 -1.33473e-006 1 192 192 192 255 0.300108 0.063362
0.082722 0.923475 0.244744 1 -2.66947e-006 2 192 192 192 255 0.300108 0.063362
0.082722 0.923475 0.143181 2 0 -1 192 192 192 255 0.332147 0.063362
0 1.08238 -0.043026 -0.797521 3.69872 -4.33072 192 192 192 255 0.20256 0.37617
0 1.08238 0.442022 0.797521 3.69875 2.3307 192 192 192 255 0.20256 0.37617
-0.185462 1.08238 0.442022 0.797521 3.69875 3.3307 192 192 192 255 0.20256 0.37617
-0.185462 1.08238 -0.043026 -0.797521 3.69872 -4.33072 192 192 192 255 0.20256 0.37617
0.185462 1.08238 0.442022 0.797521 3.69875 2.3307 192 192 192 255 0.20256 0.37617
0.185462 1.08238 -0.043026 -0.797521 3.69872 -4.33072 192 192 192 255 0.20256 0.37617
0.148913 1.13069 0.402865 0.797521 3.86254 1.5538 192 192 192 255 0.262116 0.376093
0.148913 1.13069 -0.00387 1.59504 2.8362 -0.776906 192 192 192 255 0.262116 0.376093
0.036549 1.13069 -0.00387 -0.797521 3.86252 -1.55381 192 192 192 255 0.262116 0.376093
0.036549 1.13069 0.402865 -1.59504 2.83621 0.776898 192 192 192 255 0.262116 0.376093
-0.222011 1.13069 0.402865 0.797521 3.86254 1.5538 192 192 192 255 0.262116 0.376093
-0.222011 1.13069 -0.00387 1.59504 2.8362 -0.776906 192 192 192 255 0.262116 0.376093
-0.334375 1.13069 -0.00387 -0.797529 3.86251 -1.55381 192 192 192 255 0.262116 0.376093
-0.334375 1.13069 0.402865 -1.59506 2.83619 0.776898 192 192 192 255 0.262116 0.376093
-0.036549 1.13069 -0.00387 1.59504 2.8362 -0.776906 192 192 192 255 0.262116 0.376093
-0.036549 1.13069 0.402865 0.797521 3.86254 1.5538 192 192 192 255 0.262116 0.376093
-0.148913 1.13069 -0.00387 -0.797521 3.86252 -1.55381 192 192 192 255 0.262116 0.376093
-0.148913 1.13069 0.402865 -1.59504 2.83621 0.776898 192 192 192 255 0.262116 0.376093
0.334375 1.13069 -0.00387 1.59506 3.83618 -0.776906 192 192 192 255 0.262116 0.376093
0.222011 1.13069 -0.00387 -0.797521 2.86252 -1.55381 192 192 192 255 0.262116 0.376093
0.222011 1.13069 0.402865 -1.59504 3.83621 0.776898 192 192 192 255 0.262116 0.376093
0.334375 1.13069 0.402865 0.797529 2.86253 1.5538 192 192 192 255 0.262116 0.376093
0.15716 0.093404 0.078684 2.74072 1.90757 -2.57254 192 192 192 255 0.329936 0.063362
-0.157159 0.093404 0.078684 -2.48146 1.96149 -2.78627 192 192 192 255 0.329936 0.063362
-0.157159 0.093404 0.309239 -2.74073 1.90757 2.57255 192 192 192 255 0.329936 0.063362
0.15716 0.093404 0.309239 2.48145 1.96152 2.78628 192 192 192 255 0.361975 0.063362
-0.082722 0.175478 0.244743 -2.48146 1.96148 2.78628 192 192 192 255 0.329936 0.063362
-0.082722 0.175478 0.143181 -2.74073 1.90757 -2.57254 192 192 192 255 0.329936 0.063362
0.082722 0.175478 0.143181 2.48145 1.9615 -2.78627 192 192 192 255 0.329936 0.063362
0.082722 0.175478 0.244743 2.74072 1.90756 2.57255 192 192 192 255 0.361975 0.063362
0.370923 0.923475 0.442022 1 -2 1 192 192 192 255 0.147865 0.376093
-0.370923 0.923475 0.442022 -2 -1 2 192 192 192 255 0.147865 0.376093
0.370923 0.923475 -0.043026 2 -1 -5 192 192 192 255 0.20256 0.37617
-0.370923 0.923475 -0.043026 -1 -2 -1 192 192 192 255 0.20256 0.37617
-0.370923 1.08238 -0.043026 -3.59506 1.83618 -2.77691 192 192 192 255 0.17308 0.376093
-0.370923 0.923475 -0.043026 -1 -2 -1 192 192 192 255 0.17308 0.376093
-0.370923 0.923475 0.442022 -2 -1 2 192 192 192 255 0.17308 0.376093
-0.370923 1.08238 0.442022 -1.79753 1.86253 3.5538 192 192 192 255 0.17308 0.376093
0.370923 0.923475 -0.043026 2 -1 -5 192 192 192 255 0.17308 0.376093
0.370923 1.08238 -0.043026 1.79753 1.86251 -2.55381 192 192 192 255 0.17308 0.376093
0.370923 1.08238 0.442022 3.59506 1.83619 3.7769 192 192 192 255 0.17308 0.376093
0.370923 0.923475 0.442022 1 -2 1 192 192 192 255 0.17308 0.376093
-0.157159 0.093404 0.309239 -2.74073 1.90757 2.57255 192 192 192 255 0.361975 0.063362
-0.082722 0.175478 0.244743 -2.48146 1.96148 2.78628 192 192 192 255 0.361975 0.063362
0.15716 0.093404 0.309239 2.48145 1.96152 2.78628 192 192 192 255 0.329936 0.063362
0.082722 0.175478 0.244743 2.74072 1.90756 2.57255 192 192 192 255 0.329936 0.063362
-0.082722 0.175478 0.143181 -2.74073 1.90757 -2.57254 192 192 192 255 0.361975 0.063362
0.082722 0.175478 0.143181 2.48145 1.9615 -2.78627 192 192 192 255 0.361975 0.063362
0.15716 0.093404 0.078684 2.74072 1.90757 -2.57254 192 192 192 255 0.361975 0.063362
-0.157159 0.093404 0.078684 -2.48146 1.96149 -2.78627 192 192 192 255 0.361975 0.063362
0.185462 1.08238 0.442022 0.797521 3.69875 2.3307 192 192 192 255 0.200571 0.376093
0.185462 1.08238 -0.043026 -0.797521 3.69872 -4.33072 192 192 192 255 0.200571 0.376093
0.148913 1.13069 -0.00387 1.59504 2.8362 -0.776906 192 192 192 255 0.200571 0.376093
0.148913 1.13069 0.402865 0.797521 3.86254 1.5538 192 192 192 255 0.200571 0.376093
0.185462 1.08238 -0.043026 -0.797521 3.69872 -4.33072 192 192 192 255 0.241929 0.376093
0 1.08238 -0.043026 -0.797521 3.69872 -4.33072 192 192 192 255 0.241929 0.376093
0.036549 1.13069 -0.00387 -0.797521 3.86252 -1.55381 192 192 192 255 0.241929 0.376093
0.148913 1.13069 -0.00387 1.59504 2.8362 -0.776906 192 192 192 255 0.241929 0.376093
0 1.08238 -0.043026 -0.797521 3.69872 -4.33072 192 192 192 255 0.200571 0.376093
0 1.08238 0.442022 0.797521 3.69875 2.3307 192 192 192 255 0.200571 0.376093
0.036549 1.13069 0.402865 -1.59504 2.83621 0.776898 192 192 192 255 0.200571 0.376093
0.036549 1.13069 -0.00387 -0.797521 3.86252 -1.55381 192 192 192 255 0.200571 0.376093
0 1.08238 0.442022 0.797521 3.69875 2.3307 192 192 192 255 0.241929 0.376093
0.185462 1.08238 0.442022 0.797521 3.69875 2.3307 192 192 192 255 0.241929 0.376093
0.148913 1.13069 0.402865 0.797521 3.86254 1.5538 192 192 192 255 0.241929 0.376093
0.036549 1.13069 0.402865 -1.59504 2.83621 0.776898 192 192 192 255 0.241929 0.376093
-0.185462 1.08238 0.442022 0.797521 3.69875 3.3307 192 192 192 255 0.200571 0.376093
-0.185462 1.08238 -0.043026 -0.797521 3.69872 -4.33072 192 192 192 255 0.200571 0.376093
-0.222011 1.13069 -0.00387 1.59504 2.8362 -0.776906 192 192 192 255 0.200571 0.376093
-0.222011 1.13069 0.402865 0.797521 3.86254 1.5538 192 192 192 255 0.200571 0.376093
-0.185462 1.08238 -0.043026 -0.797521 3.69872 -4.33072 192 192 192 255 0.241929 0.376093
-0.370923 1.08238 -0.043026 -3.59506 1.83618 -2.77691 192 192 192 255 0.241929 0.376093
-0.334375 1.13069 -0.00387 -0.797529 3.86251 -1.55381 192 192 192 255 0.241929 0.376093
-0.222011 1.13069 -0.00387 1.59504 2.8362 -0.776906 192 192 192 255 0.241929 0.376093
-0.370923 1.08238 -0.043026 -3.59506 1.83618 -2.77691 192 192 192 255 0.200571 0.376093
-0.370923 1.08238 0.442022 -1.79753 1.86253 3.5538 192 192 192 255 0.200571 0.376093
-0.334375 1.13069 0.402865 -1.59506 2.83619 0.776898 192 192 192 255 0.200571 0.376093
-0.334375 1.13069 -0.00387 -0.797529 3.86251 -1.55381 192 192 192 255 0.200571 0.376093
-0.370923 1.08238 0.442022 -1.79753 1.86253 3.5538 192 192 192 255 0.241929 0.376093
-0.185462 1.08238 0.442022 0.797521 3.69875 3.3307 192 192 192 255 0.241929 0.376093
-0.222011 1.13069 0.402865 0.797521 3.86254 1.5538 192 192 192 255 0.241929 0.376093
-0.334375 1.13069 0.402865 -1.59506 2.83619 0.776898 192 192 192 255 0.241929 0.376093
-0.036549 1.13069 -0.00387 1.59504 2.8362 -0.776906 192 192 192 255 0.200571 0.376093
-0.036549 1.13069 0.402865 0.797521 3.86254 1.5538 192 192 192 255 0.200571 0.376093
-0.148913 1.13069 -0.00387 -0.797521 3.86252 -1.55381 192 192 192 255 0.241929 0.376093
-0.036549 1.13069 -0.00387 1.59504 2.8362 -0.776906 192 192 192 255 0.241929 0.376093
-0.148913 1.13069 0.402865 -1.59504 2.83621 0.776898 192 192 192 255 0.200571 0.376093
-0.148913 1.13069 -0.00387 -0.797521 3.86252 -1.55381 192 192 192 255 0.200571 0.376093
-0.036549 1.13069 0.402865 0.797521 3.86254 1.5538 192 192 192 255 0.241929 0.376093
-0.148913 1.13069 0.402865 -1.59504 2.83621 0.776898 192 192 192 255 0.241929 0.376093
0.370923 1.08238 -0.043026 1.79753 1.86251 -2.55381 192 192 192 255 0.241929 0.376093
0.222011 1.13069 -0.00387 -0.797521 2.86252 -1.55381 192 192 192 255 0.241929 0.376093
0.334375 1.13069 -0.00387 1.59506 3.83618 -0.776906 192 192 192 255 0.241929 0.376093
0.222011 1.13069 0.402865 -1.59504 3.83621 0.776898 192 192 192 255 0.200571 0.376093
0.222011 1.13069 -0.00387 -0.797521 2.86252 -1.55381 192 192 192 255 0.200571 0.376093
0.370923 1.08238 0.442022 3.59506 1.83619 3.7769 192 192 192 255 0.241929 0.376093
0.334375 1.13069 0.402865 0.797529 2.86253 1.5538 192 192 192 255 0.241929 0.376093
0.222011 1.13069 0.402865 -1.59504 3.83621 0.776898 192 192 192 255 0.241929 0.376093
0.370923 1.08238 0.442022 3.59506 1.83619 3.7769 192 192 192 255 0.200571 0.376093
0.370923 1.08238 -0.043026 1.79753 1.86251 -2.55381 192 192 192 255 0.200571 0.376093
0.334375 1.13069 -0.00387 1.59506 3.83618 -0.776906 192 192 192 255 0.200571 0.376093
0.334375 1.13069 0.402865 0.797529 2.86253 1.5538 192 192 192 255 0.200571 0.376093
-0.157159 0.093404 0.078684 -2.48146 1.96149 -2.78627 192 192 192 255 0.332147 0.063362
0.15716 0.093404 0.078684 2.74072 1.90757 -2.57254 192 192 192 255 0.332147 0.063362
0.15716 0 0.078684 1 -1 -2 192 192 192 255 0.332147 0.063362
-0.157159 0 0.078684 -2 -2 -1 192 192 192 255 0.332147 0.063362
-0.157159 0 0.078684 -2 -2 -1 192 192 192 255 0.300108 0.063362
-0.157159 0 0.30924 -1 -0.999978 2 192 192 192 255 0.300108 0.063362
-0.157159 0.093404 0.309239 -2.74073 1.90757 2.57255 192 192 192 255 0.300108 0.063362
-0.157159 0.093404 0.078684 -2.48146 1.96149 -2.78627 192 192 192 255 0.300108 0.063362
-0.157159 0 0.30924 -1 -0.999978 2 192 192 192 255 0.332147 0.063362
0.15716 0 0.30924 2 -1.99999 1 192 192 192 255 0.332147 0.063362
0.15716 0.093404 0.309239 2.48145 1.96152 2.78628 192 192 192 255 0.332147 0.063362
-0.157159 0.093404 0.309239 -2.74073 1.90757 2.57255 192 192 192 255 0.332147 0.063362
0.15716 0 0.30924 2 -1.99999 1 192 192 192 255 0.300108 0.063362
0.15716 0 0.078684 1 -1 -2 192 192 192 255 0.300108 0.063362
0.15716 0.093404 0.078684 2.74072 1.90757 -2.57254 192 192 192 255 0.300108 0.063362
0.15716 0.093404 0.309239 2.48145 1.96152 2.78628 192 192 192 255 0.300108 0.063362
-0.082722 0.175478 0.143181 -2.74073 1.90757 -2.57254 192 192 192 255 0.300108 0.063362
-0.082722 0.175478 0.244743 -2.48146 1.96148 2.78628 192 192 192 255 0.300108 0.063362
-0.082722 0.923475 0.143181 -1 0 -2 192 192 192 255 0.332147 0.063362
0.082722 0.175478 0.143181 2.48145 1.9615 -2.78627 192 192 192 255 0.332147 0.063362
-0.082722 0.175478 0.143181 -2.74073 1.90757 -2.57254 192 192 192 255 0.332147 0.063362
0.082722 0.175478 0.244743 2.74072 1.90756 2.57255 192 192 192 255 0.300108 0.063362
0.082722 0.175478 0.143181 2.48145 1.9615 -2.78627 192 192 192 255 0.300108 0.063362
0.082722 0.923475 0.143181 2 0 -1 192 192 192 255 0.300108 0.063362
-0.082722 0.175478 0.244743 -2.48146 1.96148 2.78628 192 192 192 255 0.332147 0.063362
0.082722 0.175478 0.244743 2.74072 1.90756 2.57255 192 192 192 255 0.332147 0.063362
0.082722 0.923475 0.244744 1 -2.66947e-006 2 192 192 192 255 0.332147 0.063362
-0.082722 0.923475 0.244744 -2 -1.33473e-006 1 192 192 192 255 0.332147 0.063362
3 22 23 24 
3 22 24 25 
3 2 20 17 
3 2 17 18 
3 2 18 3 
3 2 3 5 
3 2 5 4 
3 46 47 7 
3 46 7 6 
3 48 49 1 
3 48 1 19 
3 48 19 16 
3 48 16 21 
3 48 21 0 
3 50 51 52 
3 50 52 53 
3 54 55 56 
3 54 56 57 
3 10 11 9 
3 10 9 8 
3 39 40 42 
3 39 42 43 
3 58 41 45 
3 58 45 59 
3 60 38 44 
3 60 44 61 
3 62 63 64 
3 62 64 65 
3 26 27 28 
3 26 28 29 
3 31 30 32 
3 31 32 33 
3 34 35 36 
3 34 36 37 
3 66 67 68 
3 66 68 69 
3 70 71 72 
3 70 72 73 
3 74 75 76 
3 74 76 77 
3 78 79 80 
3 78 80 81 
3 82 83 84 
3 82 84 85 
3 86 87 88 
3 86 88 89 
3 90 91 92 
3 90 92 93 
3 94 95 96 
3 94 96 97 
3 75 74 98 
3 75 98 99 
3 71 86 100 
3 71 100 101 
3 83 82 102 
3 83 102 103 
3 95 78 104 
3 95 104 105 
3 106 70 107 
3 106 107 108 
3 67 66 109 
3 67 109 110 
3 79 111 112 
3 79 112 113 
3 114 115 116 
3 114 116 117 
3 118 119 120 
3 118 120 121 
3 122 123 124 
3 122 124 125 
3 126 127 128 
3 126 128 129 
3 130 131 132 
3 130 132 133 
3 134 135 13 
3 134 13 12 
3 136 15 137 
3 136 137 138 
3 139 140 141 
3 139 141 14 
3 142 143 144 
3 142 144 145 
