ply
format ascii 1.0
comment VCGLIB generated
comment TextureFile SpaceInteriors_Texture.png
element vertex 24
property float x
property float y
property float z
property float nx
property float ny
property float nz
property uchar red
property uchar green
property uchar blue
property uchar alpha
property float texture_u
property float texture_v
element face 12
property list uchar int vertex_indices
end_header
-1 0 0 -1 -1 2 192 192 192 255 0.264046 0.062866
0 0 0 2 -2 1 192 192 192 255 0.264046 0.062866
-1 0.278048 0 -2 2 1 192 192 192 255 0.264046 0.062866
0 0.278048 0 1 1 2 192 192 192 255 0.264046 0.062866
-1 0.278048 -1 -1 1 -2 192 192 192 255 0.64894 0.853541
0 0.278048 -1 2 2 -1 192 192 192 255 0.729181 0.853541
-1 0 -1 -2 -2 -1 192 192 192 255 0.264046 0.062866
0 0 -1 1 -1 -2 192 192 192 255 0.264046 0.062866
-1 0.278048 0 -2 2 1 192 192 192 255 0.64894 0.773718
0 0.278048 0 1 1 2 192 192 192 255 0.729181 0.773718
-1 0.278048 -1 -1 1 -2 192 192 192 255 0.264046 0.062866
0 0.278048 -1 2 2 -1 192 192 192 255 0.264046 0.062866
-1 0 -1 -2 -2 -1 192 192 192 255 0.199188 0.062866
0 0 -1 1 -1 -2 192 192 192 255 0.199188 0.062866
0 0 0 2 -2 1 192 192 192 255 0.199188 0.062866
-1 0 0 -1 -1 2 192 192 192 255 0.199188 0.062866
0 0 0 2 -2 1 192 192 192 255 0.233113 0.062866
0 0 -1 1 -1 -2 192 192 192 255 0.233113 0.062866
0 0.278048 -1 2 2 -1 192 192 192 255 0.233113 0.062866
0 0.278048 0 1 1 2 192 192 192 255 0.233113 0.062866
-1 0 -1 -2 -2 -1 192 192 192 255 0.233113 0.062866
-1 0 0 -1 -1 2 192 192 192 255 0.233113 0.062866
-1 0.278048 0 -2 2 1 192 192 192 255 0.233113 0.062866
-1 0.278048 -1 -1 1 -2 192 192 192 255 0.233113 0.062866
3 0 1 3 
3 0 3 2 
3 8 9 5 
3 8 5 4 
3 10 11 7 
3 10 7 6 
3 12 13 14 
3 12 14 15 
3 16 17 18 
3 16 18 19 
3 20 21 22 
3 20 22 23 
