ply
format ascii 1.0
comment VCGLIB generated
comment TextureFile SpaceInteriors_Texture.png
element vertex 172
property float x
property float y
property float z
property float nx
property float ny
property float nz
property uchar red
property uchar green
property uchar blue
property uchar alpha
property float texture_u
property float texture_v
element face 152
property list uchar int vertex_indices
end_header
0.410733 0 0.264118 0 -3 6 192 192 192 255 0.32858 0.061974
1.23313 0 0.264118 2 -2 3 192 192 192 255 0.32858 0.061974
0.410733 2.9772 0.264118 0 3 6 192 192 192 255 0.358344 0.062518
1.23313 2.9772 0.264118 1 1 3 192 192 192 255 0.358344 0.062518
0.410733 2.9772 -0.360004 0 3 -3 192 192 192 255 0.358344 0.062518
1.23313 2.9772 -0.360004 2 2 -1 192 192 192 255 0.358344 0.062518
0.410733 0 -0.360004 0 -3 -3 192 192 192 255 0.32858 0.061974
1.23313 0 -0.360004 1 -1 -2 192 192 192 255 0.32858 0.061974
0.481802 0.075429 0.264118 0 0 6 192 192 192 255 0.32858 0.061974
1.16266 0.075429 0.264118 0 0 6 192 192 192 255 0.32858 0.061974
1.16266 2.90177 0.264118 0 0 7 192 192 192 255 0.32858 0.061974
0.481802 2.90177 0.264118 0 0 6 192 192 192 255 0.32858 0.061974
0.521382 0.121123 0.264118 0 0 6 192 192 192 255 0.106539 0.469908
1.12308 0.121123 0.264118 0 0 6 192 192 192 255 0.106539 0.469908
1.12308 2.85608 0.264118 0 0 6 192 192 192 255 0.106539 0.469908
0.521382 2.85608 0.264118 0 0 6 192 192 192 255 0.106539 0.469908
0.582319 0.22676 0.264118 0 0 5 192 192 192 255 0.267451 0.063595
1.06214 0.22676 0.264118 0 0 4 192 192 192 255 0.267451 0.063595
1.06214 2.38198 0.264118 0 0 5 192 192 192 255 0.32858 0.061974
0.582319 2.38198 0.264118 0 0 6 192 192 192 255 0.32858 0.061974
1.06214 1.99659 0.264118 0 0 7.08436 192 192 192 255 0.32858 0.061974
0.582319 1.99659 0.264118 0 0 6.08436 192 192 192 255 0.32858 0.061974
0.410733 1.4886 -0.360004 0 0 -6 192 192 192 255 0.32858 0.061974
1.23313 1.4886 -0.360004 3 0 -3 192 192 192 255 0.32858 0.061974
1.23313 1.4886 0.264118 3 0 3 192 192 192 255 0.294461 0.062518
1.16266 1.4886 0.264118 0 0 5 192 192 192 255 0.32858 0.061974
1.12308 1.4886 0.264118 0 0 6.08436 192 192 192 255 0.106539 0.469908
1.06214 0.612152 0.264118 0 0 5.08436 192 192 192 255 0.267451 0.063595
0.582319 0.612152 0.264118 0 0 4.08436 192 192 192 255 0.267451 0.063595
0.521382 1.4886 0.264118 0 0 6.08436 192 192 192 255 0.106539 0.469908
0.481802 1.4886 0.264118 0 0 6 192 192 192 255 0.32858 0.061974
0.410733 1.4886 0.264118 0 0 6 192 192 192 255 0.32858 0.061974
0.579549 1.3172 0.317989 -1 -1 2 192 192 192 255 0.365638 0.265206
0.633415 1.3172 0.317989 2 -2 1 192 192 192 255 0.365638 0.265206
0.579549 1.66911 0.317989 -2 2 1 192 192 192 255 0.365638 0.265206
0.633415 1.66911 0.317989 1 1 2 192 192 192 255 0.365638 0.265206
0.579549 1.66911 0.264126 -1 1 -2 192 192 192 255 0.388868 0.26811
0.633415 1.66911 0.264126 2 2 -1 192 192 192 255 0.388868 0.26811
0.579549 1.3172 0.264126 -2 -2 -1 192 192 192 255 0.365638 0.265206
0.633415 1.3172 0.264126 1 -1 -2 192 192 192 255 0.365638 0.265206
-0.411496 0 0.264118 -2 -1 3 192 192 192 255 0.32858 0.061974
-0.411496 2.9772 0.264118 -1 2 3 192 192 192 255 0.358344 0.062518
-0.411496 2.9772 -0.360004 -2 1 -2 192 192 192 255 0.358344 0.062518
-0.411496 0 -0.360004 -1 -2 -1 192 192 192 255 0.32858 0.061974
-0.341191 0.075429 0.264118 0 0 6 192 192 192 255 0.32858 0.061974
0.339664 0.075429 0.264118 0 0 6 192 192 192 255 0.32858 0.061974
0.339664 2.90177 0.264118 0 0 7 192 192 192 255 0.32858 0.061974
-0.341191 2.90177 0.264118 0 0 6 192 192 192 255 0.32858 0.061974
-0.301611 0.121123 0.264118 0 0 6 192 192 192 255 0.106539 0.469908
0.300084 0.121123 0.264118 0 0 6 192 192 192 255 0.106539 0.469908
0.300084 2.85608 0.264118 0 0 6 192 192 192 255 0.106539 0.469908
-0.301611 2.85608 0.264118 0 0 6 192 192 192 255 0.106539 0.469908
-0.240674 0.22676 0.264118 0 0 5 192 192 192 255 0.267451 0.063595
0.239147 0.22676 0.264118 0 0 4 192 192 192 255 0.267451 0.063595
0.239147 2.38198 0.264118 0 0 5 192 192 192 255 0.32858 0.061974
-0.240674 2.38198 0.264118 0 0 6 192 192 192 255 0.32858 0.061974
0.239147 1.99659 0.264118 0 0 7.08436 192 192 192 255 0.32858 0.061974
-0.240674 1.99659 0.264118 0 0 6.08436 192 192 192 255 0.32858 0.061974
-0.411496 1.4886 -0.360004 -3 0 -3 192 192 192 255 0.32858 0.061974
0.339664 1.4886 0.264118 0 0 5 192 192 192 255 0.32858 0.061974
0.300084 1.4886 0.264118 0 0 6.08436 192 192 192 255 0.106539 0.469908
0.239147 0.612152 0.264118 0 0 5.08436 192 192 192 255 0.267451 0.063595
-0.240674 0.612152 0.264118 0 0 4.08436 192 192 192 255 0.267451 0.063595
-0.301611 1.4886 0.264118 0 0 6.08436 192 192 192 255 0.106539 0.469908
-0.341191 1.4886 0.264118 0 0 6 192 192 192 255 0.32858 0.061974
-0.411496 1.4886 0.264118 -3 0 3 192 192 192 255 0.32858 0.061974
-0.243444 1.3172 0.317989 -1 -1 2 192 192 192 255 0.365638 0.265206
-0.189578 1.3172 0.317989 2 -2 1 192 192 192 255 0.365638 0.265206
-0.243444 1.66911 0.317989 -2 2 1 192 192 192 255 0.365638 0.265206
-0.189578 1.66911 0.317989 1 1 2 192 192 192 255 0.365638 0.265206
-0.243444 1.66911 0.264126 -1 1 -2 192 192 192 255 0.388868 0.26811
-0.189578 1.66911 0.264126 2 2 -1 192 192 192 255 0.388868 0.26811
-0.243444 1.3172 0.264126 -2 -2 -1 192 192 192 255 0.365638 0.265206
-0.189578 1.3172 0.264126 1 -1 -2 192 192 192 255 0.365638 0.265206
0.826021 2.03334 0.264118 0 0 4 192 192 192 255 0.29512 0.220214
0.669133 2.19023 0.264118 0 0 5 192 192 192 255 0.29512 0.220214
0.982543 2.19271 0.264118 0 0 5 192 192 192 255 0.29512 0.220214
0.825655 2.3496 0.264118 0 0 4 192 192 192 255 0.29512 0.220214
-0.002362 2.02905 0.264118 0 0 4 192 192 192 255 0.29512 0.220214
-0.161001 2.18769 0.264118 0 0 5 192 192 192 255 0.29512 0.220214
0.159474 2.19089 0.264118 0 0 5 192 192 192 255 0.29512 0.220214
0.000836 2.34952 0.264118 0 0 4 192 192 192 255 0.29512 0.220214
1.23313 0 0.264118 2 -2 3 192 192 192 255 0.294461 0.062518
1.23313 0 -0.360004 1 -1 -2 192 192 192 255 0.294461 0.062518
1.23313 1.4886 -0.360004 3 0 -3 192 192 192 255 0.294461 0.062518
1.23313 1.4886 0.264118 3 0 3 192 192 192 255 0.32858 0.061974
1.23313 2.9772 0.264118 1 1 3 192 192 192 255 0.32858 0.061974
0.410733 2.9772 0.264118 0 3 6 192 192 192 255 0.32858 0.061974
0.481802 0.075429 0.264118 0 0 6 192 192 192 255 0.106539 0.469908
1.16266 0.075429 0.264118 0 0 6 192 192 192 255 0.106539 0.469908
1.16266 1.4886 0.264118 0 0 5 192 192 192 255 0.106539 0.469908
1.16266 2.90177 0.264118 0 0 7 192 192 192 255 0.106539 0.469908
0.481802 2.90177 0.264118 0 0 6 192 192 192 255 0.106539 0.469908
0.481802 1.4886 0.264118 0 0 6 192 192 192 255 0.106539 0.469908
0.521382 0.121123 0.264118 0 0 6 192 192 192 255 0.32858 0.061974
1.12308 0.121123 0.264118 0 0 6 192 192 192 255 0.32858 0.061974
1.06214 0.22676 0.264118 0 0 4 192 192 192 255 0.32858 0.061974
0.582319 0.22676 0.264118 0 0 5 192 192 192 255 0.32858 0.061974
1.12308 1.4886 0.264118 0 0 6.08436 192 192 192 255 0.32858 0.061974
1.06214 0.612152 0.264118 0 0 5.08436 192 192 192 255 0.32858 0.061974
1.12308 2.85608 0.264118 0 0 6 192 192 192 255 0.32858 0.061974
0.521382 2.85608 0.264118 0 0 6 192 192 192 255 0.32858 0.061974
0.521382 1.4886 0.264118 0 0 6.08436 192 192 192 255 0.32858 0.061974
0.582319 0.612152 0.264118 0 0 4.08436 192 192 192 255 0.32858 0.061974
0.410733 2.9772 -0.360004 0 3 -3 192 192 192 255 0.32858 0.061974
1.23313 2.9772 -0.360004 2 2 -1 192 192 192 255 0.32858 0.061974
1.23313 2.9772 -0.360004 2 2 -1 192 192 192 255 0.294461 0.062518
1.23313 2.9772 0.264118 1 1 3 192 192 192 255 0.294461 0.062518
0.579549 1.66911 0.317989 -2 2 1 192 192 192 255 0.388868 0.26811
0.633415 1.66911 0.317989 1 1 2 192 192 192 255 0.388868 0.26811
0.579549 1.66911 0.264126 -1 1 -2 192 192 192 255 0.365638 0.265206
0.633415 1.66911 0.264126 2 2 -1 192 192 192 255 0.365638 0.265206
0.633415 1.3172 0.317989 2 -2 1 192 192 192 255 0.331519 0.26811
0.633415 1.3172 0.264126 1 -1 -2 192 192 192 255 0.331519 0.26811
0.633415 1.66911 0.264126 2 2 -1 192 192 192 255 0.331519 0.26811
0.633415 1.66911 0.317989 1 1 2 192 192 192 255 0.331519 0.26811
0.579549 1.3172 0.264126 -2 -2 -1 192 192 192 255 0.331519 0.26811
0.579549 1.3172 0.317989 -1 -1 2 192 192 192 255 0.331519 0.26811
0.579549 1.66911 0.317989 -2 2 1 192 192 192 255 0.331519 0.26811
0.579549 1.66911 0.264126 -1 1 -2 192 192 192 255 0.331519 0.26811
-0.411496 2.9772 0.264118 -1 2 3 192 192 192 255 0.32858 0.061974
-0.341191 0.075429 0.264118 0 0 6 192 192 192 255 0.106539 0.469908
0.339664 0.075429 0.264118 0 0 6 192 192 192 255 0.106539 0.469908
0.339664 1.4886 0.264118 0 0 5 192 192 192 255 0.106539 0.469908
0.339664 2.90177 0.264118 0 0 7 192 192 192 255 0.106539 0.469908
-0.341191 2.90177 0.264118 0 0 6 192 192 192 255 0.106539 0.469908
-0.341191 1.4886 0.264118 0 0 6 192 192 192 255 0.106539 0.469908
-0.301611 0.121123 0.264118 0 0 6 192 192 192 255 0.32858 0.061974
0.300084 0.121123 0.264118 0 0 6 192 192 192 255 0.32858 0.061974
0.239147 0.22676 0.264118 0 0 4 192 192 192 255 0.32858 0.061974
-0.240674 0.22676 0.264118 0 0 5 192 192 192 255 0.32858 0.061974
0.300084 1.4886 0.264118 0 0 6.08436 192 192 192 255 0.32858 0.061974
0.239147 0.612152 0.264118 0 0 5.08436 192 192 192 255 0.32858 0.061974
0.300084 2.85608 0.264118 0 0 6 192 192 192 255 0.32858 0.061974
-0.301611 2.85608 0.264118 0 0 6 192 192 192 255 0.32858 0.061974
-0.301611 1.4886 0.264118 0 0 6.08436 192 192 192 255 0.32858 0.061974
-0.240674 0.612152 0.264118 0 0 4.08436 192 192 192 255 0.32858 0.061974
-0.411496 2.9772 -0.360004 -2 1 -2 192 192 192 255 0.32858 0.061974
-0.243444 1.66911 0.317989 -2 2 1 192 192 192 255 0.388868 0.26811
-0.189578 1.66911 0.317989 1 1 2 192 192 192 255 0.388868 0.26811
-0.243444 1.66911 0.264126 -1 1 -2 192 192 192 255 0.365638 0.265206
-0.189578 1.66911 0.264126 2 2 -1 192 192 192 255 0.365638 0.265206
-0.189578 1.3172 0.317989 2 -2 1 192 192 192 255 0.331519 0.26811
-0.189578 1.3172 0.264126 1 -1 -2 192 192 192 255 0.331519 0.26811
-0.189578 1.66911 0.264126 2 2 -1 192 192 192 255 0.331519 0.26811
-0.189578 1.66911 0.317989 1 1 2 192 192 192 255 0.331519 0.26811
-0.243444 1.3172 0.264126 -2 -2 -1 192 192 192 255 0.331519 0.26811
-0.243444 1.3172 0.317989 -1 -1 2 192 192 192 255 0.331519 0.26811
-0.243444 1.66911 0.317989 -2 2 1 192 192 192 255 0.331519 0.26811
-0.243444 1.66911 0.264126 -1 1 -2 192 192 192 255 0.331519 0.26811
0.582319 1.99659 0.264118 0 0 6.08436 192 192 192 255 0.264795 0.181275
1.06214 1.99659 0.264118 0 0 7.08436 192 192 192 255 0.264795 0.181275
0.826021 2.03334 0.264118 0 0 4 192 192 192 255 0.264795 0.181275
0.669133 2.19023 0.264118 0 0 5 192 192 192 255 0.264795 0.181275
1.06214 2.38198 0.264118 0 0 5 192 192 192 255 0.264795 0.181275
0.982543 2.19271 0.264118 0 0 5 192 192 192 255 0.264795 0.181275
0.582319 2.38198 0.264118 0 0 6 192 192 192 255 0.264795 0.181275
0.825655 2.3496 0.264118 0 0 4 192 192 192 255 0.264795 0.181275
-0.240674 1.99659 0.264118 0 0 6.08436 192 192 192 255 0.264795 0.181275
0.239147 1.99659 0.264118 0 0 7.08436 192 192 192 255 0.264795 0.181275
-0.002362 2.02905 0.264118 0 0 4 192 192 192 255 0.264795 0.181275
-0.161001 2.18769 0.264118 0 0 5 192 192 192 255 0.264795 0.181275
0.239147 2.38198 0.264118 0 0 5 192 192 192 255 0.264795 0.181275
0.159474 2.19089 0.264118 0 0 5 192 192 192 255 0.264795 0.181275
-0.240674 2.38198 0.264118 0 0 6 192 192 192 255 0.264795 0.181275
0.000836 2.34952 0.264118 0 0 4 192 192 192 255 0.264795 0.181275
-0.411496 1.4886 0.264118 -3 0 3 192 192 192 255 0.325149 0.062932
-0.411496 2.9772 0.264118 -1 2 3 192 192 192 255 0.325149 0.062932
-0.411496 2.9772 -0.360004 -2 1 -2 192 192 192 255 0.325149 0.062932
-0.411496 1.4886 -0.360004 -3 0 -3 192 192 192 255 0.325149 0.062932
-0.411496 0 -0.360004 -1 -2 -1 192 192 192 255 0.325149 0.062932
-0.411496 0 0.264118 -2 -1 3 192 192 192 255 0.325149 0.062932
3 16 17 27 
3 16 27 28 
3 2 3 5 
3 2 5 4 
3 22 23 7 
3 22 7 6 
3 6 7 1 
3 6 1 0 
3 82 83 84 
3 82 84 24 
3 0 1 9 
3 0 9 8 
3 1 85 25 
3 1 25 9 
3 86 87 11 
3 86 11 10 
3 31 0 8 
3 31 8 30 
3 88 89 13 
3 88 13 12 
3 89 90 26 
3 89 26 13 
3 91 92 15 
3 91 15 14 
3 93 88 12 
3 93 12 29 
3 94 95 96 
3 94 96 97 
3 95 98 99 
3 95 99 96 
3 100 101 19 
3 100 19 18 
3 102 94 97 
3 102 97 103 
3 85 86 10 
3 85 10 25 
3 26 90 91 
3 26 91 14 
3 20 98 100 
3 20 100 18 
3 75 74 76 
3 75 76 77 
3 101 102 21 
3 101 21 19 
3 92 93 29 
3 92 29 15 
3 87 31 30 
3 87 30 11 
3 104 105 23 
3 104 23 22 
3 24 84 106 
3 24 106 107 
3 99 98 20 
3 103 99 20 
3 103 20 21 
3 102 103 21 
3 32 33 35 
3 32 35 34 
3 108 109 37 
3 108 37 36 
3 110 111 39 
3 110 39 38 
3 38 39 33 
3 38 33 32 
3 112 113 114 
3 112 114 115 
3 116 117 118 
3 116 118 119 
3 52 53 61 
3 52 61 62 
3 41 2 4 
3 41 4 42 
3 58 22 6 
3 58 6 43 
3 43 6 0 
3 43 0 40 
3 40 0 45 
3 40 45 44 
3 0 31 59 
3 0 59 45 
3 87 120 47 
3 87 47 46 
3 65 40 44 
3 65 44 64 
3 121 122 49 
3 121 49 48 
3 122 123 60 
3 122 60 49 
3 124 125 51 
3 124 51 50 
3 126 121 48 
3 126 48 63 
3 127 128 129 
3 127 129 130 
3 128 131 132 
3 128 132 129 
3 133 134 55 
3 133 55 54 
3 135 127 130 
3 135 130 136 
3 31 87 46 
3 31 46 59 
3 60 123 124 
3 60 124 50 
3 56 131 133 
3 56 133 54 
3 79 78 80 
3 79 80 81 
3 134 135 57 
3 134 57 55 
3 125 126 63 
3 125 63 51 
3 120 65 64 
3 120 64 47 
3 137 104 22 
3 137 22 58 
3 132 131 56 
3 136 132 56 
3 136 56 57 
3 135 136 57 
3 66 67 69 
3 66 69 68 
3 138 139 71 
3 138 71 70 
3 140 141 73 
3 140 73 72 
3 72 73 67 
3 72 67 66 
3 142 143 144 
3 142 144 145 
3 146 147 148 
3 146 148 149 
3 150 151 152 
3 150 152 153 
3 151 154 155 
3 151 155 152 
3 154 156 157 
3 154 157 155 
3 156 150 153 
3 156 153 157 
3 158 159 160 
3 158 160 161 
3 159 162 163 
3 159 163 160 
3 162 164 165 
3 162 165 163 
3 164 158 161 
3 164 161 165 
3 166 167 168 
3 166 168 169 
3 169 170 171 
3 169 171 166 
