ply
format ascii 1.0
comment VCGLIB generated
comment TextureFile SpaceInteriors_Texture.png
element vertex 72
property float x
property float y
property float z
property float nx
property float ny
property float nz
property uchar red
property uchar green
property uchar blue
property uchar alpha
property float texture_u
property float texture_v
element face 48
property list uchar int vertex_indices
end_header
-0.602255 0.453915 0.141842 -2 -1 -1 192 192 192 255 0.323934 0.064371
-0.602255 0.453915 0.27734 -1 -2 3 192 192 192 255 0.323934 0.064371
-0.602255 1.52196 0.141842 -1 2 -2 192 192 192 255 0.323934 0.064371
-0.602255 1.52196 0.27734 -2 1 3 192 192 192 255 0.323934 0.064371
0.602257 1.52196 0.141842 2 1 -1 192 192 192 255 0.392734 0.062207
0.602257 1.52196 0.27734 1 2 3 192 192 192 255 0.392734 0.062207
0.602257 0.453915 0.141842 1 -2 -2 192 192 192 255 0.323934 0.064371
0.602257 0.453915 0.27734 2 -1 3 192 192 192 255 0.323934 0.064371
0.52882 0.524809 0.27734 0 0 4 192 192 192 255 0.36199 0.336548
-0.528818 0.524809 0.27734 0 0 5 192 192 192 255 0.36199 0.336548
0.52882 1.45107 0.27734 0 0 5 192 192 192 255 0.36199 0.336548
-0.528818 1.45107 0.27734 0 0 4 192 192 192 255 0.36199 0.336548
-0.132648 0.1047 -0.141842 -2 3 -1 192 192 192 255 0.136075 0.064742
-0.132648 0.1047 0.141842 -1 3 2 192 192 192 255 0.136075 0.064742
-0.132648 1.1686 -0.141842 -1 2 -2 192 192 192 255 0.136075 0.064742
-0.132648 1.1686 0.141842 -2 1 1 192 192 192 255 0.136075 0.064742
0.155636 1.1686 -0.141842 2 1 -1 192 192 192 255 0.201413 0.06431
0.155636 1.1686 0.141842 1 2 2 192 192 192 255 0.201413 0.06431
0.155636 0.1047 -0.141842 1 3 -2 192 192 192 255 0.136075 0.064742
0.155636 0.1047 0.141842 2 3 1 192 192 192 255 0.136075 0.064742
0.344231 0.1047 -0.327431 2 3 -1 192 192 192 255 0.201413 0.06431
0.344231 0.1047 0.327431 1 3 2 192 192 192 255 0.201413 0.06431
-0.321243 0.1047 0.327431 -2 3 1 192 192 192 255 0.201413 0.06431
-0.321243 0.1047 -0.327431 -1 3 -2 192 192 192 255 0.201413 0.06431
0.344231 0 -0.327431 1 -2 -2 192 192 192 255 0.136075 0.064742
0.344231 0 0.327431 2 -1 1 192 192 192 255 0.136075 0.064742
-0.321243 0 0.327431 -1 -2 2 192 192 192 255 0.136075 0.064742
-0.321243 0 -0.327431 -2 -1 -1 192 192 192 255 0.136075 0.064742
-0.602255 1.52196 0.141842 -1 2 -2 192 192 192 255 0.392734 0.062207
-0.602255 1.52196 0.27734 -2 1 3 192 192 192 255 0.392734 0.062207
0.602257 1.52196 0.141842 2 1 -1 192 192 192 255 0.323934 0.064371
0.602257 1.52196 0.27734 1 2 3 192 192 192 255 0.323934 0.064371
0.602257 0.453915 0.141842 1 -2 -2 192 192 192 255 0.357252 0.063072
-0.602255 0.453915 0.141842 -2 -1 -1 192 192 192 255 0.357252 0.063072
-0.602255 1.52196 0.141842 -1 2 -2 192 192 192 255 0.357252 0.063072
0.602257 1.52196 0.141842 2 1 -1 192 192 192 255 0.357252 0.063072
-0.602255 0.453915 0.27734 -1 -2 3 192 192 192 255 0.357252 0.063072
0.602257 0.453915 0.27734 2 -1 3 192 192 192 255 0.357252 0.063072
0.52882 0.524809 0.27734 0 0 4 192 192 192 255 0.357252 0.063072
-0.528818 0.524809 0.27734 0 0 5 192 192 192 255 0.357252 0.063072
0.602257 1.52196 0.27734 1 2 3 192 192 192 255 0.357252 0.063072
0.52882 1.45107 0.27734 0 0 5 192 192 192 255 0.357252 0.063072
-0.602255 1.52196 0.27734 -2 1 3 192 192 192 255 0.357252 0.063072
-0.528818 1.45107 0.27734 0 0 4 192 192 192 255 0.357252 0.063072
-0.132648 1.1686 -0.141842 -1 2 -2 192 192 192 255 0.201413 0.06431
-0.132648 1.1686 0.141842 -2 1 1 192 192 192 255 0.201413 0.06431
0.155636 1.1686 -0.141842 2 1 -1 192 192 192 255 0.136075 0.064742
0.155636 1.1686 0.141842 1 2 2 192 192 192 255 0.136075 0.064742
-0.132648 0.1047 0.141842 -1 3 2 192 192 192 255 0.169393 0.063444
0.155636 0.1047 0.141842 2 3 1 192 192 192 255 0.169393 0.063444
0.155636 1.1686 0.141842 1 2 2 192 192 192 255 0.169393 0.063444
-0.132648 1.1686 0.141842 -2 1 1 192 192 192 255 0.169393 0.063444
0.155636 0.1047 -0.141842 1 3 -2 192 192 192 255 0.169393 0.063444
-0.132648 0.1047 -0.141842 -2 3 -1 192 192 192 255 0.169393 0.063444
-0.132648 1.1686 -0.141842 -1 2 -2 192 192 192 255 0.169393 0.063444
0.155636 1.1686 -0.141842 2 1 -1 192 192 192 255 0.169393 0.063444
0.155636 0.1047 -0.141842 1 3 -2 192 192 192 255 0.201413 0.06431
0.155636 0.1047 0.141842 2 3 1 192 192 192 255 0.201413 0.06431
-0.132648 0.1047 0.141842 -1 3 2 192 192 192 255 0.201413 0.06431
-0.132648 0.1047 -0.141842 -2 3 -1 192 192 192 255 0.201413 0.06431
0.344231 0.1047 -0.327431 2 3 -1 192 192 192 255 0.136075 0.064742
0.344231 0.1047 0.327431 1 3 2 192 192 192 255 0.136075 0.064742
0.344231 0.1047 0.327431 1 3 2 192 192 192 255 0.169393 0.063444
-0.321243 0.1047 0.327431 -2 3 1 192 192 192 255 0.169393 0.063444
-0.321243 0 0.327431 -1 -2 2 192 192 192 255 0.169393 0.063444
0.344231 0 0.327431 2 -1 1 192 192 192 255 0.169393 0.063444
-0.321243 0.1047 0.327431 -2 3 1 192 192 192 255 0.136075 0.064742
-0.321243 0.1047 -0.327431 -1 3 -2 192 192 192 255 0.136075 0.064742
-0.321243 0.1047 -0.327431 -1 3 -2 192 192 192 255 0.169393 0.063444
0.344231 0.1047 -0.327431 2 3 -1 192 192 192 255 0.169393 0.063444
0.344231 0 -0.327431 1 -2 -2 192 192 192 255 0.169393 0.063444
-0.321243 0 -0.327431 -2 -1 -1 192 192 192 255 0.169393 0.063444
3 0 1 3 
3 0 3 2 
3 28 29 5 
3 28 5 4 
3 30 31 7 
3 30 7 6 
3 6 7 1 
3 6 1 0 
3 9 8 10 
3 9 10 11 
3 32 33 34 
3 32 34 35 
3 36 37 38 
3 36 38 39 
3 37 40 41 
3 37 41 38 
3 40 42 43 
3 40 43 41 
3 42 36 39 
3 42 39 43 
3 12 13 15 
3 12 15 14 
3 44 45 17 
3 44 17 16 
3 46 47 19 
3 46 19 18 
3 24 25 26 
3 24 26 27 
3 48 49 50 
3 48 50 51 
3 52 53 54 
3 52 54 55 
3 56 57 21 
3 56 21 20 
3 57 58 22 
3 57 22 21 
3 58 59 23 
3 58 23 22 
3 59 56 20 
3 59 20 23 
3 60 61 25 
3 60 25 24 
3 62 63 64 
3 62 64 65 
3 66 67 27 
3 66 27 26 
3 68 69 70 
3 68 70 71 
