ply
format ascii 1.0
comment VCGLIB generated
comment TextureFile SpaceInteriors_Texture.png
element vertex 332
property float x
property float y
property float z
property float nx
property float ny
property float nz
property uchar red
property uchar green
property uchar blue
property uchar alpha
property float texture_u
property float texture_v
element face 284
property list uchar int vertex_indices
end_header
0.410733 0 0.264118 0 -3 6 192 192 192 255 0.32858 0.329387
1.23313 0 0.264118 2 -2 3 192 192 192 255 0.32858 0.329387
0.410733 2.9772 0.264118 0 3 6 192 192 192 255 0.358344 0.332291
1.23313 2.9772 0.264118 1 1 3 192 192 192 255 0.358344 0.332291
0.410733 2.9772 -0.360008 0 3 -3 192 192 192 255 0.358344 0.332291
1.23313 2.9772 -0.360008 2 2 -1 192 192 192 255 0.358344 0.332291
0.410733 0 -0.360008 0 -3 -3 192 192 192 255 0.32858 0.329387
1.23313 0 -0.360008 1 -1 -2 192 192 192 255 0.32858 0.329387
0.481802 0.075429 0.264118 0 0 6 192 192 192 255 0.32858 0.329387
1.16266 0.075429 0.264118 0 0 6 192 192 192 255 0.32858 0.329387
1.16266 2.90177 0.264118 0 0 7 192 192 192 255 0.32858 0.329387
0.481802 2.90177 0.264118 0 0 6 192 192 192 255 0.32858 0.329387
0.521382 0.121123 0.264118 0 0 6 192 192 192 255 0.106539 0.469908
1.12308 0.121123 0.264118 0 0 6 192 192 192 255 0.106539 0.469908
1.12308 2.85608 0.264118 0 0 6 192 192 192 255 0.106539 0.469908
0.521382 2.85608 0.264118 0 0 6 192 192 192 255 0.106539 0.469908
0.582319 0.22676 0.264118 0 0 5 192 192 192 255 0.785053 0.012981
1.06214 0.22676 0.264118 0 0 4 192 192 192 255 0.785053 0.010374
1.06214 2.75044 0.264118 0 0 4 192 192 192 255 0.32858 0.329387
0.582319 2.75044 0.264118 0 0 4 192 192 192 255 0.32858 0.329387
1.06214 2.36505 0.264118 0 0 5.10682 192 192 192 255 0.32858 0.329387
0.582319 2.36505 0.264118 0 0 5.10682 192 192 192 255 0.785053 0.012981
0.410733 1.4886 -0.360008 0 0 -6 192 192 192 255 0.32858 0.329387
1.23313 1.4886 -0.360008 3 0 -3 192 192 192 255 0.32858 0.329387
1.23313 1.4886 0.264118 3 0 3 192 192 192 255 0.294461 0.332291
1.16266 1.4886 0.264118 0 0 5 192 192 192 255 0.32858 0.329387
1.12308 1.4886 0.264118 0 0 6.10682 192 192 192 255 0.106539 0.469908
1.06214 0.612152 0.264118 0 0 5.10682 192 192 192 255 0.700261 0.010374
0.582319 0.612152 0.264118 0 0 4.10682 192 192 192 255 0.700261 0.012981
0.521382 1.4886 0.264118 0 0 6.10682 192 192 192 255 0.106539 0.469908
0.481802 1.4886 0.264118 0 0 6 192 192 192 255 0.32858 0.329387
0.410733 1.4886 0.264118 0 0 6 192 192 192 255 0.32858 0.329387
0.579549 1.3172 0.317986 -1 -1 2 192 192 192 255 0.365638 0.265206
0.633415 1.3172 0.317986 2 -2 1 192 192 192 255 0.365638 0.265206
0.579549 1.66911 0.317986 -2 2 1 192 192 192 255 0.365638 0.265206
0.633415 1.66911 0.317986 1 1 2 192 192 192 255 0.365638 0.265206
0.579549 1.66911 0.264122 -1 1 -2 192 192 192 255 0.388868 0.26811
0.633415 1.66911 0.264122 2 2 -1 192 192 192 255 0.388868 0.26811
0.579549 1.3172 0.264122 -2 -2 -1 192 192 192 255 0.365638 0.265206
0.633415 1.3172 0.264122 1 -1 -2 192 192 192 255 0.365638 0.265206
0.73076 1.70538 0.360008 -0.982768 -0.982768 2.36969 192 192 192 255 0.146621 0.474919
0.790577 1.70538 0.360008 1.96553 -1.96554 1.73938 192 192 192 255 0.146621 0.474919
0.73076 1.7652 0.360008 -1.96554 1.96554 1.73938 192 192 192 255 0.146621 0.474919
0.790577 1.7652 0.360008 0.982767 0.982768 2.36969 192 192 192 255 0.146621 0.474919
0.801607 1.77623 0.301365 1.96553 1.96554 3.73938 192 192 192 255 0.169851 0.477822
0.71973 1.77623 0.301365 -0.982768 0.982768 3.36969 192 192 192 255 0.169851 0.477822
0.71973 1.69435 0.301365 -1.96554 -1.96554 3.73938 192 192 192 255 0.146621 0.474919
0.801607 1.69435 0.301365 0.982767 -0.982768 3.36969 192 192 192 255 0.146621 0.474919
0.701068 1.79489 0.264122 -1 1 -2 192 192 192 255 0.365638 0.265206
0.820269 1.79489 0.264122 1 2 -1 192 192 192 255 0.365638 0.265206
0.820269 1.67569 0.264122 2 -1 -2 192 192 192 255 0.365638 0.265206
0.701068 1.67569 0.264122 -2 -2 -1 192 192 192 255 0.365638 0.265206
0.820269 1.79489 0.301365 2 1 3 192 192 192 255 0.388868 0.26811
0.701068 1.79489 0.301365 -2 2 3 192 192 192 255 0.388868 0.26811
0.701068 1.67569 0.301365 -1 -1 3 192 192 192 255 0.331519 0.26811
0.820269 1.67569 0.301365 1 -2 3 192 192 192 255 0.365638 0.265206
-0.411497 0 0.264118 0 -3 6 192 192 192 255 0.32858 0.329387
-0.411497 2.9772 0.264118 0 3 6 192 192 192 255 0.358344 0.332291
-0.411497 2.9772 -0.360008 0 3 -3 192 192 192 255 0.358344 0.332291
-0.411497 0 -0.360008 0 -3 -3 192 192 192 255 0.32858 0.329387
-0.341191 0.075429 0.264118 0 0 6 192 192 192 255 0.32858 0.329387
0.339664 0.075429 0.264118 0 0 6 192 192 192 255 0.32858 0.329387
0.339664 2.90177 0.264118 0 0 7 192 192 192 255 0.32858 0.329387
-0.341191 2.90177 0.264118 0 0 6 192 192 192 255 0.32858 0.329387
-0.301611 0.121123 0.264118 0 0 6 192 192 192 255 0.106539 0.469908
0.300084 0.121123 0.264118 0 0 6 192 192 192 255 0.106539 0.469908
0.300084 2.85608 0.264118 0 0 6 192 192 192 255 0.106539 0.469908
-0.301611 2.85608 0.264118 0 0 6 192 192 192 255 0.106539 0.469908
-0.240674 0.22676 0.264118 0 0 5 192 192 192 255 0.785053 0.012981
0.239147 0.22676 0.264118 0 0 4 192 192 192 255 0.785053 0.010374
0.239147 2.75044 0.264118 0 0 4 192 192 192 255 0.32858 0.329387
-0.240674 2.75044 0.264118 0 0 4 192 192 192 255 0.32858 0.329387
0.239147 2.36505 0.264118 0 0 5.10682 192 192 192 255 0.32858 0.329387
-0.240674 2.36505 0.264118 0 0 5.10682 192 192 192 255 0.785053 0.012981
-0.411497 1.4886 -0.360008 0 0 -6 192 192 192 255 0.32858 0.329387
0.339664 1.4886 0.264118 0 0 5 192 192 192 255 0.32858 0.329387
0.300084 1.4886 0.264118 0 0 6.10682 192 192 192 255 0.106539 0.469908
0.239147 0.612152 0.264118 0 0 5.10682 192 192 192 255 0.700261 0.010374
-0.240674 0.612152 0.264118 0 0 4.10682 192 192 192 255 0.700261 0.012981
-0.301611 1.4886 0.264118 0 0 6.10682 192 192 192 255 0.106539 0.469908
-0.341191 1.4886 0.264118 0 0 6 192 192 192 255 0.32858 0.329387
-0.411497 1.4886 0.264118 0 0 6 192 192 192 255 0.32858 0.329387
-0.243444 1.3172 0.317986 -1 -1 2 192 192 192 255 0.365638 0.265206
-0.189578 1.3172 0.317986 2 -2 1 192 192 192 255 0.365638 0.265206
-0.243444 1.66911 0.317986 -2 2 1 192 192 192 255 0.365638 0.265206
-0.189578 1.66911 0.317986 1 1 2 192 192 192 255 0.365638 0.265206
-0.243444 1.66911 0.264122 -1 1 -2 192 192 192 255 0.388868 0.26811
-0.189578 1.66911 0.264122 2 2 -1 192 192 192 255 0.388868 0.26811
-0.243444 1.3172 0.264122 -2 -2 -1 192 192 192 255 0.365638 0.265206
-0.189578 1.3172 0.264122 1 -1 -2 192 192 192 255 0.365638 0.265206
-0.092233 1.70538 0.360008 -0.982767 -0.982768 2.36969 192 192 192 255 0.146621 0.474919
-0.032416 1.70538 0.360008 1.96553 -1.96554 1.73938 192 192 192 255 0.146621 0.474919
-0.092233 1.7652 0.360008 -1.96553 1.96554 1.73938 192 192 192 255 0.146621 0.474919
-0.032416 1.7652 0.360008 0.982767 0.982768 2.36969 192 192 192 255 0.146621 0.474919
-0.021386 1.77623 0.301365 1.96553 1.96554 3.73938 192 192 192 255 0.169851 0.477822
-0.103263 1.77623 0.301365 -0.982767 0.982768 3.36969 192 192 192 255 0.169851 0.477822
-0.103263 1.69435 0.301365 -1.96553 -1.96554 3.73938 192 192 192 255 0.146621 0.474919
-0.021386 1.69435 0.301365 0.982767 -0.982768 3.36969 192 192 192 255 0.146621 0.474919
-0.121925 1.79489 0.264122 -1 1 -2 192 192 192 255 0.365638 0.265206
-0.002724 1.79489 0.264122 1 2 -1 192 192 192 255 0.365638 0.265206
-0.002724 1.67569 0.264122 2 -1 -2 192 192 192 255 0.365638 0.265206
-0.121925 1.67569 0.264122 -2 -2 -1 192 192 192 255 0.365638 0.265206
-0.002724 1.79489 0.301365 2 1 3 192 192 192 255 0.388868 0.26811
-0.121925 1.79489 0.301365 -2 2 3 192 192 192 255 0.388868 0.26811
-0.121925 1.67569 0.301365 -1 -1 3 192 192 192 255 0.331519 0.26811
-0.002724 1.67569 0.301365 1 -2 3 192 192 192 255 0.365638 0.265206
-1.23313 0 0.264118 -1 -1 3 192 192 192 255 0.32858 0.329387
-1.23313 2.9772 0.264118 -2 2 3 192 192 192 255 0.358344 0.332291
-1.23313 2.9772 -0.360008 -1 1 -2 192 192 192 255 0.358344 0.332291
-1.23313 0 -0.360008 -2 -2 -1 192 192 192 255 0.32858 0.329387
-1.16266 0.075429 0.264118 0 0 6 192 192 192 255 0.32858 0.329387
-0.481803 0.075429 0.264118 0 0 6 192 192 192 255 0.32858 0.329387
-0.481803 2.90177 0.264118 0 0 7 192 192 192 255 0.32858 0.329387
-1.16266 2.90177 0.264118 0 0 6 192 192 192 255 0.32858 0.329387
-1.12308 0.121123 0.264118 0 0 6 192 192 192 255 0.106539 0.469908
-0.521383 0.121123 0.264118 0 0 6 192 192 192 255 0.106539 0.469908
-0.521383 2.85608 0.264118 0 0 6 192 192 192 255 0.106539 0.469908
-1.12308 2.85608 0.264118 0 0 6 192 192 192 255 0.106539 0.469908
-1.06214 0.22676 0.264118 0 0 5 192 192 192 255 0.785053 0.012981
-0.58232 0.22676 0.264118 0 0 4 192 192 192 255 0.785053 0.010374
-0.58232 2.75044 0.264118 0 0 4 192 192 192 255 0.32858 0.329387
-1.06214 2.75044 0.264118 0 0 4 192 192 192 255 0.32858 0.329387
-0.58232 2.36505 0.264118 0 0 5.10682 192 192 192 255 0.32858 0.329387
-1.06214 2.36505 0.264118 0 0 5.10682 192 192 192 255 0.785053 0.012981
-1.23313 1.4886 -0.360008 -3 0 -3 192 192 192 255 0.32858 0.329387
-0.481803 1.4886 0.264118 0 0 5 192 192 192 255 0.32858 0.329387
-0.521383 1.4886 0.264118 0 0 6.10682 192 192 192 255 0.106539 0.469908
-0.58232 0.612152 0.264118 0 0 5.10682 192 192 192 255 0.700261 0.010374
-1.06214 0.612152 0.264118 0 0 4.10682 192 192 192 255 0.700261 0.012981
-1.12308 1.4886 0.264118 0 0 6.10682 192 192 192 255 0.106539 0.469908
-1.16266 1.4886 0.264118 0 0 6 192 192 192 255 0.32858 0.329387
-1.23313 1.4886 0.264118 -3 0 3 192 192 192 255 0.294461 0.332291
-1.06491 1.3172 0.317986 -1 -1 2 192 192 192 255 0.365638 0.265206
-1.01104 1.3172 0.317986 2 -2 1 192 192 192 255 0.365638 0.265206
-1.06491 1.66911 0.317986 -2 2 1 192 192 192 255 0.365638 0.265206
-1.01104 1.66911 0.317986 1 1 2 192 192 192 255 0.365638 0.265206
-1.06491 1.66911 0.264122 -1 1 -2 192 192 192 255 0.388868 0.26811
-1.01104 1.66911 0.264122 2 2 -1 192 192 192 255 0.388868 0.26811
-1.06491 1.3172 0.264122 -2 -2 -1 192 192 192 255 0.365638 0.265206
-1.01104 1.3172 0.264122 1 -1 -2 192 192 192 255 0.365638 0.265206
-0.9137 1.70538 0.360008 -0.982767 -0.982768 2.36969 192 192 192 255 0.146621 0.474919
-0.853882 1.70538 0.360008 1.96553 -1.96554 1.73938 192 192 192 255 0.146621 0.474919
-0.9137 1.7652 0.360008 -1.96553 1.96554 1.73938 192 192 192 255 0.146621 0.474919
-0.853882 1.7652 0.360008 0.982767 0.982768 2.36969 192 192 192 255 0.146621 0.474919
-0.842852 1.77623 0.301365 1.96553 1.96554 3.73938 192 192 192 255 0.169851 0.477822
-0.92473 1.77623 0.301365 -0.982767 0.982768 3.36969 192 192 192 255 0.169851 0.477822
-0.92473 1.69435 0.301365 -1.96553 -1.96554 3.73938 192 192 192 255 0.146621 0.474919
-0.842852 1.69435 0.301365 0.982767 -0.982768 3.36969 192 192 192 255 0.146621 0.474919
-0.943392 1.79489 0.264122 -1 1 -2 192 192 192 255 0.365638 0.265206
-0.824191 1.79489 0.264122 1 2 -1 192 192 192 255 0.365638 0.265206
-0.824191 1.67569 0.264122 2 -1 -2 192 192 192 255 0.365638 0.265206
-0.943392 1.67569 0.264122 -2 -2 -1 192 192 192 255 0.365638 0.265206
-0.824191 1.79489 0.301365 2 1 3 192 192 192 255 0.388868 0.26811
-0.943392 1.79489 0.301365 -2 2 3 192 192 192 255 0.388868 0.26811
-0.943392 1.67569 0.301365 -1 -1 3 192 192 192 255 0.331519 0.26811
-0.824191 1.67569 0.301365 1 -2 3 192 192 192 255 0.365638 0.265206
1.23313 0 0.264118 2 -2 3 192 192 192 255 0.294461 0.332291
1.23313 0 -0.360008 1 -1 -2 192 192 192 255 0.294461 0.332291
1.23313 1.4886 -0.360008 3 0 -3 192 192 192 255 0.294461 0.332291
1.23313 1.4886 0.264118 3 0 3 192 192 192 255 0.32858 0.329387
1.23313 2.9772 0.264118 1 1 3 192 192 192 255 0.32858 0.329387
0.410733 2.9772 0.264118 0 3 6 192 192 192 255 0.32858 0.329387
0.481802 0.075429 0.264118 0 0 6 192 192 192 255 0.106539 0.469908
1.16266 0.075429 0.264118 0 0 6 192 192 192 255 0.106539 0.469908
1.16266 1.4886 0.264118 0 0 5 192 192 192 255 0.106539 0.469908
1.16266 2.90177 0.264118 0 0 7 192 192 192 255 0.106539 0.469908
0.481802 2.90177 0.264118 0 0 6 192 192 192 255 0.106539 0.469908
0.481802 1.4886 0.264118 0 0 6 192 192 192 255 0.106539 0.469908
0.521382 0.121123 0.264118 0 0 6 192 192 192 255 0.32858 0.329387
1.12308 0.121123 0.264118 0 0 6 192 192 192 255 0.32858 0.329387
1.06214 0.22676 0.264118 0 0 4 192 192 192 255 0.32858 0.329387
0.582319 0.22676 0.264118 0 0 5 192 192 192 255 0.32858 0.329387
1.12308 1.4886 0.264118 0 0 6.10682 192 192 192 255 0.32858 0.329387
1.06214 0.612152 0.264118 0 0 5.10682 192 192 192 255 0.32858 0.329387
1.12308 2.85608 0.264118 0 0 6 192 192 192 255 0.32858 0.329387
0.521382 2.85608 0.264118 0 0 6 192 192 192 255 0.32858 0.329387
0.521382 1.4886 0.264118 0 0 6.10682 192 192 192 255 0.32858 0.329387
0.582319 0.612152 0.264118 0 0 4.10682 192 192 192 255 0.32858 0.329387
1.06214 2.36505 0.264118 0 0 5.10682 192 192 192 255 0.785053 0.010374
1.06214 2.75044 0.264118 0 0 4 192 192 192 255 0.700261 0.010374
0.582319 2.75044 0.264118 0 0 4 192 192 192 255 0.700261 0.012981
0.582319 2.36505 0.264118 0 0 5.10682 192 192 192 255 0.32858 0.329387
0.410733 2.9772 -0.360008 0 3 -3 192 192 192 255 0.32858 0.329387
1.23313 2.9772 -0.360008 2 2 -1 192 192 192 255 0.32858 0.329387
1.23313 2.9772 -0.360008 2 2 -1 192 192 192 255 0.294461 0.332291
1.23313 2.9772 0.264118 1 1 3 192 192 192 255 0.294461 0.332291
0.579549 1.66911 0.317986 -2 2 1 192 192 192 255 0.388868 0.26811
0.633415 1.66911 0.317986 1 1 2 192 192 192 255 0.388868 0.26811
0.579549 1.66911 0.264122 -1 1 -2 192 192 192 255 0.365638 0.265206
0.633415 1.66911 0.264122 2 2 -1 192 192 192 255 0.365638 0.265206
0.633415 1.3172 0.317986 2 -2 1 192 192 192 255 0.331519 0.26811
0.633415 1.3172 0.264122 1 -1 -2 192 192 192 255 0.331519 0.26811
0.633415 1.66911 0.264122 2 2 -1 192 192 192 255 0.331519 0.26811
0.633415 1.66911 0.317986 1 1 2 192 192 192 255 0.331519 0.26811
0.579549 1.3172 0.264122 -2 -2 -1 192 192 192 255 0.331519 0.26811
0.579549 1.3172 0.317986 -1 -1 2 192 192 192 255 0.331519 0.26811
0.579549 1.66911 0.317986 -2 2 1 192 192 192 255 0.331519 0.26811
0.579549 1.66911 0.264122 -1 1 -2 192 192 192 255 0.331519 0.26811
0.73076 1.7652 0.360008 -1.96554 1.96554 1.73938 192 192 192 255 0.169851 0.477822
0.790577 1.7652 0.360008 0.982767 0.982768 2.36969 192 192 192 255 0.169851 0.477822
0.801607 1.77623 0.301365 1.96553 1.96554 3.73938 192 192 192 255 0.146621 0.474919
0.71973 1.77623 0.301365 -0.982768 0.982768 3.36969 192 192 192 255 0.146621 0.474919
0.820269 1.79489 0.264122 1 2 -1 192 192 192 255 0.388868 0.26811
0.701068 1.79489 0.264122 -1 1 -2 192 192 192 255 0.388868 0.26811
0.701068 1.67569 0.264122 -2 -2 -1 192 192 192 255 0.331519 0.26811
0.701068 1.79489 0.301365 -2 2 3 192 192 192 255 0.331519 0.26811
0.701068 1.79489 0.264122 -1 1 -2 192 192 192 255 0.331519 0.26811
0.701068 1.67569 0.301365 -1 -1 3 192 192 192 255 0.365638 0.265206
0.820269 1.79489 0.301365 2 1 3 192 192 192 255 0.331519 0.26811
0.820269 1.67569 0.301365 1 -2 3 192 192 192 255 0.331519 0.26811
0.820269 1.67569 0.264122 2 -1 -2 192 192 192 255 0.331519 0.26811
0.820269 1.79489 0.264122 1 2 -1 192 192 192 255 0.331519 0.26811
0.71973 1.77623 0.301365 -0.982768 0.982768 3.36969 192 192 192 255 0.365638 0.265206
0.801607 1.77623 0.301365 1.96553 1.96554 3.73938 192 192 192 255 0.365638 0.265206
0.820269 1.79489 0.301365 2 1 3 192 192 192 255 0.365638 0.265206
0.701068 1.79489 0.301365 -2 2 3 192 192 192 255 0.365638 0.265206
0.71973 1.69435 0.301365 -1.96554 -1.96554 3.73938 192 192 192 255 0.365638 0.265206
0.801607 1.69435 0.301365 0.982767 -0.982768 3.36969 192 192 192 255 0.365638 0.265206
-0.411497 2.9772 0.264118 0 3 6 192 192 192 255 0.32858 0.329387
-0.341191 0.075429 0.264118 0 0 6 192 192 192 255 0.106539 0.469908
0.339664 0.075429 0.264118 0 0 6 192 192 192 255 0.106539 0.469908
0.339664 1.4886 0.264118 0 0 5 192 192 192 255 0.106539 0.469908
0.339664 2.90177 0.264118 0 0 7 192 192 192 255 0.106539 0.469908
-0.341191 2.90177 0.264118 0 0 6 192 192 192 255 0.106539 0.469908
-0.341191 1.4886 0.264118 0 0 6 192 192 192 255 0.106539 0.469908
-0.301611 0.121123 0.264118 0 0 6 192 192 192 255 0.32858 0.329387
0.300084 0.121123 0.264118 0 0 6 192 192 192 255 0.32858 0.329387
0.239147 0.22676 0.264118 0 0 4 192 192 192 255 0.32858 0.329387
-0.240674 0.22676 0.264118 0 0 5 192 192 192 255 0.32858 0.329387
0.300084 1.4886 0.264118 0 0 6.10682 192 192 192 255 0.32858 0.329387
0.239147 0.612152 0.264118 0 0 5.10682 192 192 192 255 0.32858 0.329387
0.300084 2.85608 0.264118 0 0 6 192 192 192 255 0.32858 0.329387
-0.301611 2.85608 0.264118 0 0 6 192 192 192 255 0.32858 0.329387
-0.301611 1.4886 0.264118 0 0 6.10682 192 192 192 255 0.32858 0.329387
-0.240674 0.612152 0.264118 0 0 4.10682 192 192 192 255 0.32858 0.329387
0.239147 2.36505 0.264118 0 0 5.10682 192 192 192 255 0.785053 0.010374
0.239147 2.75044 0.264118 0 0 4 192 192 192 255 0.700261 0.010374
-0.240674 2.75044 0.264118 0 0 4 192 192 192 255 0.700261 0.012981
-0.240674 2.36505 0.264118 0 0 5.10682 192 192 192 255 0.32858 0.329387
-0.411497 2.9772 -0.360008 0 3 -3 192 192 192 255 0.32858 0.329387
-0.243444 1.66911 0.317986 -2 2 1 192 192 192 255 0.388868 0.26811
-0.189578 1.66911 0.317986 1 1 2 192 192 192 255 0.388868 0.26811
-0.243444 1.66911 0.264122 -1 1 -2 192 192 192 255 0.365638 0.265206
-0.189578 1.66911 0.264122 2 2 -1 192 192 192 255 0.365638 0.265206
-0.189578 1.3172 0.317986 2 -2 1 192 192 192 255 0.331519 0.26811
-0.189578 1.3172 0.264122 1 -1 -2 192 192 192 255 0.331519 0.26811
-0.189578 1.66911 0.264122 2 2 -1 192 192 192 255 0.331519 0.26811
-0.189578 1.66911 0.317986 1 1 2 192 192 192 255 0.331519 0.26811
-0.243444 1.3172 0.264122 -2 -2 -1 192 192 192 255 0.331519 0.26811
-0.243444 1.3172 0.317986 -1 -1 2 192 192 192 255 0.331519 0.26811
-0.243444 1.66911 0.317986 -2 2 1 192 192 192 255 0.331519 0.26811
-0.243444 1.66911 0.264122 -1 1 -2 192 192 192 255 0.331519 0.26811
-0.092233 1.7652 0.360008 -1.96553 1.96554 1.73938 192 192 192 255 0.169851 0.477822
-0.032416 1.7652 0.360008 0.982767 0.982768 2.36969 192 192 192 255 0.169851 0.477822
-0.021386 1.77623 0.301365 1.96553 1.96554 3.73938 192 192 192 255 0.146621 0.474919
-0.103263 1.77623 0.301365 -0.982767 0.982768 3.36969 192 192 192 255 0.146621 0.474919
-0.002724 1.79489 0.264122 1 2 -1 192 192 192 255 0.388868 0.26811
-0.121925 1.79489 0.264122 -1 1 -2 192 192 192 255 0.388868 0.26811
-0.121925 1.67569 0.264122 -2 -2 -1 192 192 192 255 0.331519 0.26811
-0.121925 1.79489 0.301365 -2 2 3 192 192 192 255 0.331519 0.26811
-0.121925 1.79489 0.264122 -1 1 -2 192 192 192 255 0.331519 0.26811
-0.121925 1.67569 0.301365 -1 -1 3 192 192 192 255 0.365638 0.265206
-0.002724 1.79489 0.301365 2 1 3 192 192 192 255 0.331519 0.26811
-0.002724 1.67569 0.301365 1 -2 3 192 192 192 255 0.331519 0.26811
-0.002724 1.67569 0.264122 2 -1 -2 192 192 192 255 0.331519 0.26811
-0.002724 1.79489 0.264122 1 2 -1 192 192 192 255 0.331519 0.26811
-0.103263 1.77623 0.301365 -0.982767 0.982768 3.36969 192 192 192 255 0.365638 0.265206
-0.021386 1.77623 0.301365 1.96553 1.96554 3.73938 192 192 192 255 0.365638 0.265206
-0.002724 1.79489 0.301365 2 1 3 192 192 192 255 0.365638 0.265206
-0.121925 1.79489 0.301365 -2 2 3 192 192 192 255 0.365638 0.265206
-0.103263 1.69435 0.301365 -1.96553 -1.96554 3.73938 192 192 192 255 0.365638 0.265206
-0.021386 1.69435 0.301365 0.982767 -0.982768 3.36969 192 192 192 255 0.365638 0.265206
-1.23313 0 -0.360008 -2 -2 -1 192 192 192 255 0.294461 0.332291
-1.23313 0 0.264118 -1 -1 3 192 192 192 255 0.294461 0.332291
-1.23313 1.4886 -0.360008 -3 0 -3 192 192 192 255 0.294461 0.332291
-1.23313 2.9772 0.264118 -2 2 3 192 192 192 255 0.32858 0.329387
-1.23313 1.4886 0.264118 -3 0 3 192 192 192 255 0.32858 0.329387
-1.16266 0.075429 0.264118 0 0 6 192 192 192 255 0.106539 0.469908
-0.481803 0.075429 0.264118 0 0 6 192 192 192 255 0.106539 0.469908
-0.481803 1.4886 0.264118 0 0 5 192 192 192 255 0.106539 0.469908
-0.481803 2.90177 0.264118 0 0 7 192 192 192 255 0.106539 0.469908
-1.16266 2.90177 0.264118 0 0 6 192 192 192 255 0.106539 0.469908
-1.16266 1.4886 0.264118 0 0 6 192 192 192 255 0.106539 0.469908
-1.12308 0.121123 0.264118 0 0 6 192 192 192 255 0.32858 0.329387
-0.521383 0.121123 0.264118 0 0 6 192 192 192 255 0.32858 0.329387
-0.58232 0.22676 0.264118 0 0 4 192 192 192 255 0.32858 0.329387
-1.06214 0.22676 0.264118 0 0 5 192 192 192 255 0.32858 0.329387
-0.521383 1.4886 0.264118 0 0 6.10682 192 192 192 255 0.32858 0.329387
-0.58232 0.612152 0.264118 0 0 5.10682 192 192 192 255 0.32858 0.329387
-0.521383 2.85608 0.264118 0 0 6 192 192 192 255 0.32858 0.329387
-1.12308 2.85608 0.264118 0 0 6 192 192 192 255 0.32858 0.329387
-1.12308 1.4886 0.264118 0 0 6.10682 192 192 192 255 0.32858 0.329387
-1.06214 0.612152 0.264118 0 0 4.10682 192 192 192 255 0.32858 0.329387
-0.58232 2.36505 0.264118 0 0 5.10682 192 192 192 255 0.785053 0.010374
-0.58232 2.75044 0.264118 0 0 4 192 192 192 255 0.700261 0.010374
-1.06214 2.75044 0.264118 0 0 4 192 192 192 255 0.700261 0.012981
-1.06214 2.36505 0.264118 0 0 5.10682 192 192 192 255 0.32858 0.329387
-1.23313 2.9772 0.264118 -2 2 3 192 192 192 255 0.294461 0.332291
-1.23313 2.9772 -0.360008 -1 1 -2 192 192 192 255 0.294461 0.332291
-1.23313 2.9772 -0.360008 -1 1 -2 192 192 192 255 0.32858 0.329387
-1.06491 1.66911 0.317986 -2 2 1 192 192 192 255 0.388868 0.26811
-1.01104 1.66911 0.317986 1 1 2 192 192 192 255 0.388868 0.26811
-1.06491 1.66911 0.264122 -1 1 -2 192 192 192 255 0.365638 0.265206
-1.01104 1.66911 0.264122 2 2 -1 192 192 192 255 0.365638 0.265206
-1.01104 1.3172 0.317986 2 -2 1 192 192 192 255 0.331519 0.26811
-1.01104 1.3172 0.264122 1 -1 -2 192 192 192 255 0.331519 0.26811
-1.01104 1.66911 0.264122 2 2 -1 192 192 192 255 0.331519 0.26811
-1.01104 1.66911 0.317986 1 1 2 192 192 192 255 0.331519 0.26811
-1.06491 1.3172 0.264122 -2 -2 -1 192 192 192 255 0.331519 0.26811
-1.06491 1.3172 0.317986 -1 -1 2 192 192 192 255 0.331519 0.26811
-1.06491 1.66911 0.317986 -2 2 1 192 192 192 255 0.331519 0.26811
-1.06491 1.66911 0.264122 -1 1 -2 192 192 192 255 0.331519 0.26811
-0.9137 1.7652 0.360008 -1.96553 1.96554 1.73938 192 192 192 255 0.169851 0.477822
-0.853882 1.7652 0.360008 0.982767 0.982768 2.36969 192 192 192 255 0.169851 0.477822
-0.842852 1.77623 0.301365 1.96553 1.96554 3.73938 192 192 192 255 0.146621 0.474919
-0.92473 1.77623 0.301365 -0.982767 0.982768 3.36969 192 192 192 255 0.146621 0.474919
-0.824191 1.79489 0.264122 1 2 -1 192 192 192 255 0.388868 0.26811
-0.943392 1.79489 0.264122 -1 1 -2 192 192 192 255 0.388868 0.26811
-0.943392 1.67569 0.264122 -2 -2 -1 192 192 192 255 0.331519 0.26811
-0.943392 1.79489 0.301365 -2 2 3 192 192 192 255 0.331519 0.26811
-0.943392 1.79489 0.264122 -1 1 -2 192 192 192 255 0.331519 0.26811
-0.943392 1.67569 0.301365 -1 -1 3 192 192 192 255 0.365638 0.265206
-0.824191 1.79489 0.301365 2 1 3 192 192 192 255 0.331519 0.26811
-0.824191 1.67569 0.301365 1 -2 3 192 192 192 255 0.331519 0.26811
-0.824191 1.67569 0.264122 2 -1 -2 192 192 192 255 0.331519 0.26811
-0.824191 1.79489 0.264122 1 2 -1 192 192 192 255 0.331519 0.26811
-0.92473 1.77623 0.301365 -0.982767 0.982768 3.36969 192 192 192 255 0.365638 0.265206
-0.842852 1.77623 0.301365 1.96553 1.96554 3.73938 192 192 192 255 0.365638 0.265206
-0.824191 1.79489 0.301365 2 1 3 192 192 192 255 0.365638 0.265206
-0.943392 1.79489 0.301365 -2 2 3 192 192 192 255 0.365638 0.265206
-0.92473 1.69435 0.301365 -1.96553 -1.96554 3.73938 192 192 192 255 0.365638 0.265206
-0.842852 1.69435 0.301365 0.982767 -0.982768 3.36969 192 192 192 255 0.365638 0.265206
3 16 17 27 
3 16 27 28 
3 2 3 5 
3 2 5 4 
3 22 23 7 
3 22 7 6 
3 6 7 1 
3 6 1 0 
3 156 157 158 
3 156 158 24 
3 0 1 9 
3 0 9 8 
3 1 159 25 
3 1 25 9 
3 160 161 11 
3 160 11 10 
3 31 0 8 
3 31 8 30 
3 162 163 13 
3 162 13 12 
3 163 164 26 
3 163 26 13 
3 165 166 15 
3 165 15 14 
3 167 162 12 
3 167 12 29 
3 168 169 170 
3 168 170 171 
3 169 172 173 
3 169 173 170 
3 174 175 19 
3 174 19 18 
3 176 168 171 
3 176 171 177 
3 159 160 10 
3 159 10 25 
3 26 164 165 
3 26 165 14 
3 20 172 174 
3 20 174 18 
3 21 178 179 
3 21 179 180 
3 175 176 181 
3 175 181 19 
3 166 167 29 
3 166 29 15 
3 161 31 30 
3 161 30 11 
3 182 183 23 
3 182 23 22 
3 24 158 184 
3 24 184 185 
3 173 172 20 
3 177 173 20 
3 177 20 181 
3 176 177 181 
3 32 33 35 
3 32 35 34 
3 186 187 37 
3 186 37 36 
3 188 189 39 
3 188 39 38 
3 38 39 33 
3 38 33 32 
3 190 191 192 
3 190 192 193 
3 194 195 196 
3 194 196 197 
3 40 41 43 
3 40 43 42 
3 198 199 44 
3 198 44 45 
3 48 49 50 
3 48 50 51 
3 46 47 41 
3 46 41 40 
3 41 47 200 
3 41 200 43 
3 46 40 42 
3 46 42 201 
3 53 52 202 
3 53 202 203 
3 204 54 205 
3 204 205 206 
3 51 50 55 
3 51 55 207 
3 208 209 210 
3 208 210 211 
3 212 213 214 
3 212 214 215 
3 216 212 215 
3 216 215 207 
3 217 216 207 
3 217 207 55 
3 213 217 55 
3 213 55 214 
3 68 69 77 
3 68 77 78 
3 57 2 4 
3 57 4 58 
3 74 22 6 
3 74 6 59 
3 59 6 0 
3 59 0 56 
3 56 0 61 
3 56 61 60 
3 0 31 75 
3 0 75 61 
3 161 218 63 
3 161 63 62 
3 81 56 60 
3 81 60 80 
3 219 220 65 
3 219 65 64 
3 220 221 76 
3 220 76 65 
3 222 223 67 
3 222 67 66 
3 224 219 64 
3 224 64 79 
3 225 226 227 
3 225 227 228 
3 226 229 230 
3 226 230 227 
3 231 232 71 
3 231 71 70 
3 233 225 228 
3 233 228 234 
3 31 161 62 
3 31 62 75 
3 76 221 222 
3 76 222 66 
3 72 229 231 
3 72 231 70 
3 73 235 236 
3 73 236 237 
3 232 233 238 
3 232 238 71 
3 223 224 79 
3 223 79 67 
3 218 81 80 
3 218 80 63 
3 239 182 22 
3 239 22 74 
3 230 229 72 
3 234 230 72 
3 234 72 238 
3 233 234 238 
3 82 83 85 
3 82 85 84 
3 240 241 87 
3 240 87 86 
3 242 243 89 
3 242 89 88 
3 88 89 83 
3 88 83 82 
3 244 245 246 
3 244 246 247 
3 248 249 250 
3 248 250 251 
3 90 91 93 
3 90 93 92 
3 252 253 94 
3 252 94 95 
3 98 99 100 
3 98 100 101 
3 96 97 91 
3 96 91 90 
3 91 97 254 
3 91 254 93 
3 96 90 92 
3 96 92 255 
3 103 102 256 
3 103 256 257 
3 258 104 259 
3 258 259 260 
3 101 100 105 
3 101 105 261 
3 262 263 264 
3 262 264 265 
3 266 267 268 
3 266 268 269 
3 270 266 269 
3 270 269 261 
3 271 270 261 
3 271 261 105 
3 267 271 105 
3 267 105 268 
3 118 119 127 
3 118 127 128 
3 107 57 58 
3 107 58 108 
3 124 74 59 
3 124 59 109 
3 109 59 56 
3 109 56 106 
3 272 273 131 
3 272 131 274 
3 106 56 111 
3 106 111 110 
3 56 81 125 
3 56 125 111 
3 218 275 113 
3 218 113 112 
3 276 106 110 
3 276 110 130 
3 277 278 115 
3 277 115 114 
3 278 279 126 
3 278 126 115 
3 280 281 117 
3 280 117 116 
3 282 277 114 
3 282 114 129 
3 283 284 285 
3 283 285 286 
3 284 287 288 
3 284 288 285 
3 289 290 121 
3 289 121 120 
3 291 283 286 
3 291 286 292 
3 81 218 112 
3 81 112 125 
3 126 279 280 
3 126 280 116 
3 122 287 289 
3 122 289 120 
3 123 293 294 
3 123 294 295 
3 290 291 296 
3 290 296 121 
3 281 282 129 
3 281 129 117 
3 275 276 130 
3 275 130 113 
3 274 131 297 
3 274 297 298 
3 299 239 74 
3 299 74 124 
3 288 287 122 
3 292 288 122 
3 292 122 296 
3 291 292 296 
3 132 133 135 
3 132 135 134 
3 300 301 137 
3 300 137 136 
3 302 303 139 
3 302 139 138 
3 138 139 133 
3 138 133 132 
3 304 305 306 
3 304 306 307 
3 308 309 310 
3 308 310 311 
3 140 141 143 
3 140 143 142 
3 312 313 144 
3 312 144 145 
3 148 149 150 
3 148 150 151 
3 146 147 141 
3 146 141 140 
3 141 147 314 
3 141 314 143 
3 146 140 142 
3 146 142 315 
3 153 152 316 
3 153 316 317 
3 318 154 319 
3 318 319 320 
3 151 150 155 
3 151 155 321 
3 322 323 324 
3 322 324 325 
3 326 327 328 
3 326 328 329 
3 330 326 329 
3 330 329 321 
3 331 330 321 
3 331 321 155 
3 327 331 155 
3 327 155 328 
