ply
format ascii 1.0
comment VCGLIB generated
comment TextureFile SpaceInteriors_Texture.png
element vertex 336
property float x
property float y
property float z
property float nx
property float ny
property float nz
property uchar red
property uchar green
property uchar blue
property uchar alpha
property float texture_u
property float texture_v
element face 216
property list uchar int vertex_indices
end_header
-0.301649 -0.863927 0.065135 -1.96571 -1.55317 0.982853 192 192 192 255 0.263919 0.087164
-0.17138 -0.863927 0.065135 1.96571 -2.73755 1.96571 192 192 192 255 0.263919 0.087164
-0.327099 0.863927 0.090585 -1.71751 3.53715 0.858759 192 192 192 255 0.328938 0.087164
-0.145931 0.863927 0.090585 0.858757 2.53714 1.71752 192 192 192 255 0.328938 0.087164
-0.327099 0.863927 -0.090584 -0.858757 2.53714 -1.71752 192 192 192 255 0.363804 0.087164
-0.145931 0.863927 -0.090584 1.71751 3.53715 -0.858759 192 192 192 255 0.363804 0.087164
-0.301649 -0.863927 -0.065134 -0.982853 -2.36878 -0.982854 192 192 192 255 0.263919 0.087164
-0.17138 -0.863927 -0.065134 0.982854 -1.55316 -1.96571 192 192 192 255 0.263919 0.087164
-0.407748 0.728759 -0.171232 -1.71751 4.53715 -0.858759 192 192 192 255 0.328938 0.087164
-0.407748 0.728759 0.171233 -0.858757 4.53714 1.71752 192 192 192 255 0.328938 0.087164
-0.065282 0.728759 0.171233 1.71751 4.53715 0.858759 192 192 192 255 0.328938 0.087164
-0.065282 0.728759 -0.171232 0.858757 4.53714 -1.71752 192 192 192 255 0.328938 0.087164
-0.407748 0.698314 -0.171232 -1 -3 -2 192 192 192 255 0.2969 0.087164
-0.407748 0.698314 0.171233 -2 -3 1 192 192 192 255 0.2969 0.087164
-0.065282 0.698314 0.171233 1 -3 2 192 192 192 255 0.328938 0.087164
-0.065282 0.698314 -0.171232 2 -3 -1 192 192 192 255 0.2969 0.087164
-0.407748 0.542226 -0.171232 -2 3 -1 192 192 192 255 0.2969 0.087164
-0.407748 0.542226 0.171233 -1 3 2 192 192 192 255 0.2969 0.087164
-0.065282 0.542226 0.171233 2 3 1 192 192 192 255 0.328938 0.087164
-0.065282 0.542226 -0.171232 1 3 -2 192 192 192 255 0.2969 0.087164
-0.407748 0.500617 -0.171232 -1 -3 -2 192 192 192 255 0.2969 0.087164
-0.407748 0.500617 0.171233 -2 -3 1 192 192 192 255 0.328938 0.087164
-0.065282 0.500617 0.171233 1 -3 2 192 192 192 255 0.328938 0.087164
-0.065282 0.500617 -0.171232 2 -3 -1 192 192 192 255 0.328938 0.087164
-0.346673 -0.623936 -0.110157 -1.96571 -3.73755 -1.96571 192 192 192 255 0.2969 0.087164
-0.346673 -0.623936 0.110159 -0.982853 -3.55317 1.96571 192 192 192 255 0.2969 0.087164
-0.126357 -0.623936 0.110159 0.982854 -3.36878 0.982853 192 192 192 255 0.328938 0.087164
-0.126357 -0.623936 -0.110157 1.96571 -3.55316 -0.982854 192 192 192 255 0.2969 0.087164
-0.065282 -0.58168 0.171233 2 3 1 192 192 192 255 0.328938 0.087164
-0.407748 -0.58168 0.171233 -1 3 2 192 192 192 255 0.328938 0.087164
-0.407748 -0.58168 -0.171232 -2 3 -1 192 192 192 255 0.2969 0.087164
-0.065282 -0.58168 -0.171232 1 3 -2 192 192 192 255 0.328938 0.087164
-0.433863 0.698314 -0.197347 -2 -3 -1 192 192 192 255 0.359734 0.087164
-0.433863 0.698314 0.197348 -1 -3 2 192 192 192 255 0.359734 0.087164
-0.433863 0.728759 0.197348 -2 3 1 192 192 192 255 0.359734 0.087164
-0.433863 0.728759 -0.197347 -1 3 -2 192 192 192 255 0.359734 0.087164
-0.039167 0.698314 0.197348 2 -3 1 192 192 192 255 0.391772 0.087164
-0.039167 0.728759 0.197348 1 3 2 192 192 192 255 0.391772 0.087164
-0.039167 0.698314 -0.197347 1 -3 -2 192 192 192 255 0.359734 0.087164
-0.039167 0.728759 -0.197347 2 3 -1 192 192 192 255 0.359734 0.087164
-0.433863 0.500617 -0.197347 -2 -3 -1 192 192 192 255 0.359734 0.087164
-0.433863 0.500617 0.197348 -1 -3 2 192 192 192 255 0.359734 0.087164
-0.433863 0.542226 0.197348 -2 3 1 192 192 192 255 0.359734 0.087164
-0.433863 0.542226 -0.197347 -1 3 -2 192 192 192 255 0.359734 0.087164
-0.039167 0.500617 0.197348 2 -3 1 192 192 192 255 0.391772 0.087164
-0.039167 0.542226 0.197348 1 3 2 192 192 192 255 0.391772 0.087164
-0.039167 0.500617 -0.197347 1 -3 -2 192 192 192 255 0.359734 0.087164
-0.039167 0.542226 -0.197347 2 3 -1 192 192 192 255 0.359734 0.087164
-0.433863 -0.623936 -0.197347 -2 -3 -1 192 192 192 255 0.359734 0.087164
-0.433863 -0.623936 0.197348 -1 -3 2 192 192 192 255 0.359734 0.087164
-0.433863 -0.58168 0.197348 -2 3 1 192 192 192 255 0.359734 0.087164
-0.433863 -0.58168 -0.197347 -1 3 -2 192 192 192 255 0.359734 0.087164
-0.039167 -0.623936 0.197348 2 -3 1 192 192 192 255 0.391772 0.087164
-0.039167 -0.58168 0.197348 1 3 2 192 192 192 255 0.391772 0.087164
-0.039167 -0.623936 -0.197347 1 -3 -2 192 192 192 255 0.359734 0.087164
-0.039167 -0.58168 -0.197347 2 3 -1 192 192 192 255 0.359734 0.087164
0.132213 -0.863927 0.065135 -1.96571 -1.55316 0.982853 192 192 192 255 0.263919 0.087164
0.262482 -0.863927 0.065135 1.96571 -2.73756 1.96571 192 192 192 255 0.263919 0.087164
0.106764 0.863927 0.090585 -1.71751 3.53715 0.85876 192 192 192 255 0.328938 0.087164
0.287932 0.863927 0.090585 0.858757 2.53714 1.71752 192 192 192 255 0.328938 0.087164
0.106764 0.863927 -0.090584 -0.858757 2.53714 -1.71752 192 192 192 255 0.363804 0.087164
0.287932 0.863927 -0.090584 1.71751 3.53715 -0.85876 192 192 192 255 0.363804 0.087164
0.132213 -0.863927 -0.065134 -0.982854 -2.36877 -0.982854 192 192 192 255 0.263919 0.087164
0.262482 -0.863927 -0.065134 0.982853 -1.55316 -1.96571 192 192 192 255 0.263919 0.087164
0.026115 0.728759 -0.171232 -1.71751 4.53715 -0.85876 192 192 192 255 0.328938 0.087164
0.026115 0.728759 0.171233 -0.858757 4.53714 1.71752 192 192 192 255 0.328938 0.087164
0.368581 0.728759 0.171233 1.71751 4.53715 0.85876 192 192 192 255 0.328938 0.087164
0.368581 0.728759 -0.171232 0.858757 4.53714 -1.71752 192 192 192 255 0.328938 0.087164
0.026115 0.698314 -0.171232 -1 -3 -2 192 192 192 255 0.2969 0.087164
0.026115 0.698314 0.171233 -2 -3 1 192 192 192 255 0.2969 0.087164
0.368581 0.698314 0.171233 1 -3 2 192 192 192 255 0.328938 0.087164
0.368581 0.698314 -0.171232 2 -3 -1 192 192 192 255 0.2969 0.087164
0.026115 0.542226 -0.171232 -2 3 -1 192 192 192 255 0.2969 0.087164
0.026115 0.542226 0.171233 -1 3 2 192 192 192 255 0.2969 0.087164
0.368581 0.542226 0.171233 2 3 1 192 192 192 255 0.328938 0.087164
0.368581 0.542226 -0.171232 1 3 -2 192 192 192 255 0.2969 0.087164
0.026115 0.500617 -0.171232 -1 -3 -2 192 192 192 255 0.2969 0.087164
0.026115 0.500617 0.171233 -2 -3 1 192 192 192 255 0.328938 0.087164
0.368581 0.500617 0.171233 1 -3 2 192 192 192 255 0.328938 0.087164
0.368581 0.500617 -0.171232 2 -3 -1 192 192 192 255 0.328938 0.087164
0.08719 -0.623936 -0.110157 -1.96571 -3.73754 -1.96571 192 192 192 255 0.2969 0.087164
0.08719 -0.623936 0.110159 -0.982854 -3.55317 1.96571 192 192 192 255 0.2969 0.087164
0.307506 -0.623936 0.110159 0.982853 -3.36878 0.982853 192 192 192 255 0.328938 0.087164
0.307506 -0.623936 -0.110157 1.96571 -3.55317 -0.982854 192 192 192 255 0.2969 0.087164
0.368581 -0.58168 0.171233 2 3 1 192 192 192 255 0.328938 0.087164
0.026115 -0.58168 0.171233 -1 3 2 192 192 192 255 0.328938 0.087164
0.026115 -0.58168 -0.171232 -2 3 -1 192 192 192 255 0.2969 0.087164
0.368581 -0.58168 -0.171232 1 3 -2 192 192 192 255 0.328938 0.087164
0 0.698314 -0.197347 -2 -3 -1 192 192 192 255 0.359734 0.087164
0 0.698314 0.197348 -1 -3 2 192 192 192 255 0.359734 0.087164
0 0.728759 0.197348 -2 3 1 192 192 192 255 0.359734 0.087164
0 0.728759 -0.197347 -1 3 -2 192 192 192 255 0.359734 0.087164
0.394696 0.698314 0.197348 2 -3 1 192 192 192 255 0.391772 0.087164
0.394696 0.728759 0.197348 1 3 2 192 192 192 255 0.391772 0.087164
0.394696 0.698314 -0.197347 1 -3 -2 192 192 192 255 0.359734 0.087164
0.394696 0.728759 -0.197347 2 3 -1 192 192 192 255 0.359734 0.087164
0 0.500617 -0.197347 -2 -3 -1 192 192 192 255 0.359734 0.087164
0 0.500617 0.197348 -1 -3 2 192 192 192 255 0.359734 0.087164
0 0.542226 0.197348 -2 3 1 192 192 192 255 0.359734 0.087164
0 0.542226 -0.197347 -1 3 -2 192 192 192 255 0.359734 0.087164
0.394696 0.500617 0.197348 2 -3 1 192 192 192 255 0.391772 0.087164
0.394696 0.542226 0.197348 1 3 2 192 192 192 255 0.391772 0.087164
0.394696 0.500617 -0.197347 1 -3 -2 192 192 192 255 0.359734 0.087164
0.394696 0.542226 -0.197347 2 3 -1 192 192 192 255 0.359734 0.087164
0 -0.623936 -0.197347 -2 -3 -1 192 192 192 255 0.359734 0.087164
0 -0.623936 0.197348 -1 -3 2 192 192 192 255 0.359734 0.087164
0 -0.58168 0.197348 -2 3 1 192 192 192 255 0.359734 0.087164
0 -0.58168 -0.197347 -1 3 -2 192 192 192 255 0.359734 0.087164
0.394696 -0.623936 0.197348 2 -3 1 192 192 192 255 0.391772 0.087164
0.394696 -0.58168 0.197348 1 3 2 192 192 192 255 0.391772 0.087164
0.394696 -0.623936 -0.197347 1 -3 -2 192 192 192 255 0.359734 0.087164
0.394696 -0.58168 -0.197347 2 3 -1 192 192 192 255 0.359734 0.087164
-0.327099 0.863927 0.090585 -1.71751 3.53715 0.858759 192 192 192 255 0.363804 0.087164
-0.145931 0.863927 0.090585 0.858757 2.53714 1.71752 192 192 192 255 0.363804 0.087164
-0.327099 0.863927 -0.090584 -0.858757 2.53714 -1.71752 192 192 192 255 0.328938 0.087164
-0.145931 0.863927 -0.090584 1.71751 3.53715 -0.858759 192 192 192 255 0.328938 0.087164
-0.065282 0.728759 0.171233 1.71751 4.53715 0.858759 192 192 192 255 0.2969 0.087164
-0.065282 0.728759 -0.171232 0.858757 4.53714 -1.71752 192 192 192 255 0.2969 0.087164
-0.145931 0.863927 -0.090584 1.71751 3.53715 -0.858759 192 192 192 255 0.2969 0.087164
-0.145931 0.863927 0.090585 0.858757 2.53714 1.71752 192 192 192 255 0.2969 0.087164
-0.407748 0.728759 -0.171232 -1.71751 4.53715 -0.858759 192 192 192 255 0.2969 0.087164
-0.407748 0.728759 0.171233 -0.858757 4.53714 1.71752 192 192 192 255 0.2969 0.087164
-0.327099 0.863927 0.090585 -1.71751 3.53715 0.858759 192 192 192 255 0.2969 0.087164
-0.327099 0.863927 -0.090584 -0.858757 2.53714 -1.71752 192 192 192 255 0.2969 0.087164
-0.433863 0.698314 0.197348 -1 -3 2 192 192 192 255 0.391772 0.087164
-0.433863 0.728759 0.197348 -2 3 1 192 192 192 255 0.391772 0.087164
-0.039167 0.698314 0.197348 2 -3 1 192 192 192 255 0.359734 0.087164
-0.039167 0.728759 0.197348 1 3 2 192 192 192 255 0.359734 0.087164
-0.433863 0.728759 -0.197347 -1 3 -2 192 192 192 255 0.391772 0.087164
-0.039167 0.728759 -0.197347 2 3 -1 192 192 192 255 0.391772 0.087164
-0.039167 0.698314 -0.197347 1 -3 -2 192 192 192 255 0.391772 0.087164
-0.433863 0.698314 -0.197347 -2 -3 -1 192 192 192 255 0.391772 0.087164
-0.407748 0.542226 0.171233 -1 3 2 192 192 192 255 0.328938 0.087164
-0.407748 0.698314 0.171233 -2 -3 1 192 192 192 255 0.328938 0.087164
-0.065282 0.542226 0.171233 2 3 1 192 192 192 255 0.2969 0.087164
-0.065282 0.698314 0.171233 1 -3 2 192 192 192 255 0.2969 0.087164
-0.407748 0.698314 -0.171232 -1 -3 -2 192 192 192 255 0.328938 0.087164
-0.065282 0.698314 -0.171232 2 -3 -1 192 192 192 255 0.328938 0.087164
-0.065282 0.542226 -0.171232 1 3 -2 192 192 192 255 0.328938 0.087164
-0.407748 0.542226 -0.171232 -2 3 -1 192 192 192 255 0.328938 0.087164
-0.433863 0.500617 0.197348 -1 -3 2 192 192 192 255 0.391772 0.087164
-0.433863 0.542226 0.197348 -2 3 1 192 192 192 255 0.391772 0.087164
-0.039167 0.500617 0.197348 2 -3 1 192 192 192 255 0.359734 0.087164
-0.039167 0.542226 0.197348 1 3 2 192 192 192 255 0.359734 0.087164
-0.433863 0.542226 -0.197347 -1 3 -2 192 192 192 255 0.391772 0.087164
-0.039167 0.542226 -0.197347 2 3 -1 192 192 192 255 0.391772 0.087164
-0.039167 0.500617 -0.197347 1 -3 -2 192 192 192 255 0.391772 0.087164
-0.433863 0.500617 -0.197347 -2 -3 -1 192 192 192 255 0.391772 0.087164
-0.433863 -0.623936 0.197348 -1 -3 2 192 192 192 255 0.391772 0.087164
-0.433863 -0.58168 0.197348 -2 3 1 192 192 192 255 0.391772 0.087164
-0.039167 -0.623936 0.197348 2 -3 1 192 192 192 255 0.359734 0.087164
-0.039167 -0.58168 0.197348 1 3 2 192 192 192 255 0.359734 0.087164
-0.433863 -0.58168 -0.197347 -1 3 -2 192 192 192 255 0.391772 0.087164
-0.039167 -0.58168 -0.197347 2 3 -1 192 192 192 255 0.391772 0.087164
-0.039167 -0.623936 -0.197347 1 -3 -2 192 192 192 255 0.391772 0.087164
-0.433863 -0.623936 -0.197347 -2 -3 -1 192 192 192 255 0.391772 0.087164
-0.301649 -0.863927 0.065135 -1.96571 -1.55317 0.982853 192 192 192 255 0.2969 0.087164
-0.301649 -0.863927 -0.065134 -0.982853 -2.36878 -0.982854 192 192 192 255 0.2969 0.087164
-0.17138 -0.863927 0.065135 1.96571 -2.73755 1.96571 192 192 192 255 0.328938 0.087164
-0.346673 -0.623936 0.110159 -0.982853 -3.55317 1.96571 192 192 192 255 0.328938 0.087164
-0.301649 -0.863927 0.065135 -1.96571 -1.55317 0.982853 192 192 192 255 0.328938 0.087164
-0.126357 -0.623936 0.110159 0.982854 -3.36878 0.982853 192 192 192 255 0.2969 0.087164
-0.17138 -0.863927 0.065135 1.96571 -2.73755 1.96571 192 192 192 255 0.2969 0.087164
-0.17138 -0.863927 -0.065134 0.982854 -1.55316 -1.96571 192 192 192 255 0.2969 0.087164
-0.346673 -0.623936 -0.110157 -1.96571 -3.73755 -1.96571 192 192 192 255 0.328938 0.087164
-0.126357 -0.623936 -0.110157 1.96571 -3.55316 -0.982854 192 192 192 255 0.328938 0.087164
-0.17138 -0.863927 -0.065134 0.982854 -1.55316 -1.96571 192 192 192 255 0.328938 0.087164
-0.301649 -0.863927 -0.065134 -0.982853 -2.36878 -0.982854 192 192 192 255 0.328938 0.087164
-0.407748 -0.58168 0.171233 -1 3 2 192 192 192 255 0.2969 0.087164
-0.407748 0.500617 0.171233 -2 -3 1 192 192 192 255 0.2969 0.087164
-0.407748 0.500617 -0.171232 -1 -3 -2 192 192 192 255 0.328938 0.087164
-0.407748 -0.58168 -0.171232 -2 3 -1 192 192 192 255 0.328938 0.087164
-0.065282 -0.58168 0.171233 2 3 1 192 192 192 255 0.2969 0.087164
-0.065282 -0.58168 -0.171232 1 3 -2 192 192 192 255 0.2969 0.087164
-0.065282 0.500617 -0.171232 2 -3 -1 192 192 192 255 0.2969 0.087164
-0.065282 0.500617 0.171233 1 -3 2 192 192 192 255 0.2969 0.087164
-0.407748 0.698314 -0.171232 -1 -3 -2 192 192 192 255 0.323814 0.087333
-0.407748 0.698314 0.171233 -2 -3 1 192 192 192 255 0.323814 0.087333
-0.433863 0.698314 0.197348 -1 -3 2 192 192 192 255 0.323814 0.087333
-0.433863 0.698314 -0.197347 -2 -3 -1 192 192 192 255 0.323814 0.087333
-0.407748 0.728759 0.171233 -0.858757 4.53714 1.71752 192 192 192 255 0.428522 0.088258
-0.407748 0.728759 -0.171232 -1.71751 4.53715 -0.858759 192 192 192 255 0.428522 0.088258
-0.433863 0.728759 -0.197347 -1 3 -2 192 192 192 255 0.428522 0.088258
-0.433863 0.728759 0.197348 -2 3 1 192 192 192 255 0.428522 0.088258
-0.065282 0.698314 0.171233 1 -3 2 192 192 192 255 0.323814 0.087333
-0.039167 0.698314 0.197348 2 -3 1 192 192 192 255 0.323814 0.087333
-0.065282 0.728759 0.171233 1.71751 4.53715 0.858759 192 192 192 255 0.428522 0.088258
-0.039167 0.728759 0.197348 1 3 2 192 192 192 255 0.428522 0.088258
-0.065282 0.698314 -0.171232 2 -3 -1 192 192 192 255 0.323814 0.087333
-0.039167 0.698314 -0.197347 1 -3 -2 192 192 192 255 0.323814 0.087333
-0.065282 0.728759 -0.171232 0.858757 4.53714 -1.71752 192 192 192 255 0.428522 0.088258
-0.039167 0.728759 -0.197347 2 3 -1 192 192 192 255 0.428522 0.088258
-0.407748 0.500617 -0.171232 -1 -3 -2 192 192 192 255 0.323814 0.087333
-0.407748 0.500617 0.171233 -2 -3 1 192 192 192 255 0.323814 0.087333
-0.433863 0.500617 0.197348 -1 -3 2 192 192 192 255 0.323814 0.087333
-0.433863 0.500617 -0.197347 -2 -3 -1 192 192 192 255 0.323814 0.087333
-0.407748 0.542226 0.171233 -1 3 2 192 192 192 255 0.428522 0.088258
-0.407748 0.542226 -0.171232 -2 3 -1 192 192 192 255 0.428522 0.088258
-0.433863 0.542226 -0.197347 -1 3 -2 192 192 192 255 0.428522 0.088258
-0.433863 0.542226 0.197348 -2 3 1 192 192 192 255 0.428522 0.088258
-0.065282 0.500617 0.171233 1 -3 2 192 192 192 255 0.323814 0.087333
-0.039167 0.500617 0.197348 2 -3 1 192 192 192 255 0.323814 0.087333
-0.065282 0.542226 0.171233 2 3 1 192 192 192 255 0.428522 0.088258
-0.039167 0.542226 0.197348 1 3 2 192 192 192 255 0.428522 0.088258
-0.065282 0.500617 -0.171232 2 -3 -1 192 192 192 255 0.323814 0.087333
-0.039167 0.500617 -0.197347 1 -3 -2 192 192 192 255 0.323814 0.087333
-0.065282 0.542226 -0.171232 1 3 -2 192 192 192 255 0.428522 0.088258
-0.039167 0.542226 -0.197347 2 3 -1 192 192 192 255 0.428522 0.088258
-0.346673 -0.623936 -0.110157 -1.96571 -3.73755 -1.96571 192 192 192 255 0.323814 0.087333
-0.346673 -0.623936 0.110159 -0.982853 -3.55317 1.96571 192 192 192 255 0.323814 0.087333
-0.433863 -0.623936 0.197348 -1 -3 2 192 192 192 255 0.323814 0.087333
-0.433863 -0.623936 -0.197347 -2 -3 -1 192 192 192 255 0.323814 0.087333
-0.407748 -0.58168 0.171233 -1 3 2 192 192 192 255 0.428522 0.088258
-0.407748 -0.58168 -0.171232 -2 3 -1 192 192 192 255 0.428522 0.088258
-0.433863 -0.58168 -0.197347 -1 3 -2 192 192 192 255 0.428522 0.088258
-0.433863 -0.58168 0.197348 -2 3 1 192 192 192 255 0.428522 0.088258
-0.126357 -0.623936 0.110159 0.982854 -3.36878 0.982853 192 192 192 255 0.323814 0.087333
-0.039167 -0.623936 0.197348 2 -3 1 192 192 192 255 0.323814 0.087333
-0.065282 -0.58168 0.171233 2 3 1 192 192 192 255 0.428522 0.088258
-0.039167 -0.58168 0.197348 1 3 2 192 192 192 255 0.428522 0.088258
-0.126357 -0.623936 -0.110157 1.96571 -3.55316 -0.982854 192 192 192 255 0.323814 0.087333
-0.039167 -0.623936 -0.197347 1 -3 -2 192 192 192 255 0.323814 0.087333
-0.065282 -0.58168 -0.171232 1 3 -2 192 192 192 255 0.428522 0.088258
-0.039167 -0.58168 -0.197347 2 3 -1 192 192 192 255 0.428522 0.088258
0.106764 0.863927 0.090585 -1.71751 3.53715 0.85876 192 192 192 255 0.363804 0.087164
0.287932 0.863927 0.090585 0.858757 2.53714 1.71752 192 192 192 255 0.363804 0.087164
0.106764 0.863927 -0.090584 -0.858757 2.53714 -1.71752 192 192 192 255 0.328938 0.087164
0.287932 0.863927 -0.090584 1.71751 3.53715 -0.85876 192 192 192 255 0.328938 0.087164
0.368581 0.728759 0.171233 1.71751 4.53715 0.85876 192 192 192 255 0.2969 0.087164
0.368581 0.728759 -0.171232 0.858757 4.53714 -1.71752 192 192 192 255 0.2969 0.087164
0.287932 0.863927 -0.090584 1.71751 3.53715 -0.85876 192 192 192 255 0.2969 0.087164
0.287932 0.863927 0.090585 0.858757 2.53714 1.71752 192 192 192 255 0.2969 0.087164
0.026115 0.728759 -0.171232 -1.71751 4.53715 -0.85876 192 192 192 255 0.2969 0.087164
0.026115 0.728759 0.171233 -0.858757 4.53714 1.71752 192 192 192 255 0.2969 0.087164
0.106764 0.863927 0.090585 -1.71751 3.53715 0.85876 192 192 192 255 0.2969 0.087164
0.106764 0.863927 -0.090584 -0.858757 2.53714 -1.71752 192 192 192 255 0.2969 0.087164
0 0.698314 0.197348 -1 -3 2 192 192 192 255 0.391772 0.087164
0 0.728759 0.197348 -2 3 1 192 192 192 255 0.391772 0.087164
0.394696 0.698314 0.197348 2 -3 1 192 192 192 255 0.359734 0.087164
0.394696 0.728759 0.197348 1 3 2 192 192 192 255 0.359734 0.087164
0 0.728759 -0.197347 -1 3 -2 192 192 192 255 0.391772 0.087164
0.394696 0.728759 -0.197347 2 3 -1 192 192 192 255 0.391772 0.087164
0.394696 0.698314 -0.197347 1 -3 -2 192 192 192 255 0.391772 0.087164
0 0.698314 -0.197347 -2 -3 -1 192 192 192 255 0.391772 0.087164
0.026115 0.542226 0.171233 -1 3 2 192 192 192 255 0.328938 0.087164
0.026115 0.698314 0.171233 -2 -3 1 192 192 192 255 0.328938 0.087164
0.368581 0.542226 0.171233 2 3 1 192 192 192 255 0.2969 0.087164
0.368581 0.698314 0.171233 1 -3 2 192 192 192 255 0.2969 0.087164
0.026115 0.698314 -0.171232 -1 -3 -2 192 192 192 255 0.328938 0.087164
0.368581 0.698314 -0.171232 2 -3 -1 192 192 192 255 0.328938 0.087164
0.368581 0.542226 -0.171232 1 3 -2 192 192 192 255 0.328938 0.087164
0.026115 0.542226 -0.171232 -2 3 -1 192 192 192 255 0.328938 0.087164
0 0.500617 0.197348 -1 -3 2 192 192 192 255 0.391772 0.087164
0 0.542226 0.197348 -2 3 1 192 192 192 255 0.391772 0.087164
0.394696 0.500617 0.197348 2 -3 1 192 192 192 255 0.359734 0.087164
0.394696 0.542226 0.197348 1 3 2 192 192 192 255 0.359734 0.087164
0 0.542226 -0.197347 -1 3 -2 192 192 192 255 0.391772 0.087164
0.394696 0.542226 -0.197347 2 3 -1 192 192 192 255 0.391772 0.087164
0.394696 0.500617 -0.197347 1 -3 -2 192 192 192 255 0.391772 0.087164
0 0.500617 -0.197347 -2 -3 -1 192 192 192 255 0.391772 0.087164
0 -0.623936 0.197348 -1 -3 2 192 192 192 255 0.391772 0.087164
0 -0.58168 0.197348 -2 3 1 192 192 192 255 0.391772 0.087164
0.394696 -0.623936 0.197348 2 -3 1 192 192 192 255 0.359734 0.087164
0.394696 -0.58168 0.197348 1 3 2 192 192 192 255 0.359734 0.087164
0 -0.58168 -0.197347 -1 3 -2 192 192 192 255 0.391772 0.087164
0.394696 -0.58168 -0.197347 2 3 -1 192 192 192 255 0.391772 0.087164
0.394696 -0.623936 -0.197347 1 -3 -2 192 192 192 255 0.391772 0.087164
0 -0.623936 -0.197347 -2 -3 -1 192 192 192 255 0.391772 0.087164
0.132213 -0.863927 0.065135 -1.96571 -1.55316 0.982853 192 192 192 255 0.2969 0.087164
0.132213 -0.863927 -0.065134 -0.982854 -2.36877 -0.982854 192 192 192 255 0.2969 0.087164
0.262482 -0.863927 0.065135 1.96571 -2.73756 1.96571 192 192 192 255 0.328938 0.087164
0.08719 -0.623936 0.110159 -0.982854 -3.55317 1.96571 192 192 192 255 0.328938 0.087164
0.132213 -0.863927 0.065135 -1.96571 -1.55316 0.982853 192 192 192 255 0.328938 0.087164
0.307506 -0.623936 0.110159 0.982853 -3.36878 0.982853 192 192 192 255 0.2969 0.087164
0.262482 -0.863927 0.065135 1.96571 -2.73756 1.96571 192 192 192 255 0.2969 0.087164
0.262482 -0.863927 -0.065134 0.982853 -1.55316 -1.96571 192 192 192 255 0.2969 0.087164
0.08719 -0.623936 -0.110157 -1.96571 -3.73754 -1.96571 192 192 192 255 0.328938 0.087164
0.307506 -0.623936 -0.110157 1.96571 -3.55317 -0.982854 192 192 192 255 0.328938 0.087164
0.262482 -0.863927 -0.065134 0.982853 -1.55316 -1.96571 192 192 192 255 0.328938 0.087164
0.132213 -0.863927 -0.065134 -0.982854 -2.36877 -0.982854 192 192 192 255 0.328938 0.087164
0.026115 -0.58168 0.171233 -1 3 2 192 192 192 255 0.2969 0.087164
0.026115 0.500617 0.171233 -2 -3 1 192 192 192 255 0.2969 0.087164
0.026115 0.500617 -0.171232 -1 -3 -2 192 192 192 255 0.328938 0.087164
0.026115 -0.58168 -0.171232 -2 3 -1 192 192 192 255 0.328938 0.087164
0.368581 -0.58168 0.171233 2 3 1 192 192 192 255 0.2969 0.087164
0.368581 -0.58168 -0.171232 1 3 -2 192 192 192 255 0.2969 0.087164
0.368581 0.500617 -0.171232 2 -3 -1 192 192 192 255 0.2969 0.087164
0.368581 0.500617 0.171233 1 -3 2 192 192 192 255 0.2969 0.087164
0.026115 0.698314 -0.171232 -1 -3 -2 192 192 192 255 0.323814 0.087333
0.026115 0.698314 0.171233 -2 -3 1 192 192 192 255 0.323814 0.087333
0 0.698314 0.197348 -1 -3 2 192 192 192 255 0.323814 0.087333
0 0.698314 -0.197347 -2 -3 -1 192 192 192 255 0.323814 0.087333
0.026115 0.728759 0.171233 -0.858757 4.53714 1.71752 192 192 192 255 0.428522 0.088258
0.026115 0.728759 -0.171232 -1.71751 4.53715 -0.85876 192 192 192 255 0.428522 0.088258
0 0.728759 -0.197347 -1 3 -2 192 192 192 255 0.428522 0.088258
0 0.728759 0.197348 -2 3 1 192 192 192 255 0.428522 0.088258
0.368581 0.698314 0.171233 1 -3 2 192 192 192 255 0.323814 0.087333
0.394696 0.698314 0.197348 2 -3 1 192 192 192 255 0.323814 0.087333
0.368581 0.728759 0.171233 1.71751 4.53715 0.85876 192 192 192 255 0.428522 0.088258
0.394696 0.728759 0.197348 1 3 2 192 192 192 255 0.428522 0.088258
0.368581 0.698314 -0.171232 2 -3 -1 192 192 192 255 0.323814 0.087333
0.394696 0.698314 -0.197347 1 -3 -2 192 192 192 255 0.323814 0.087333
0.368581 0.728759 -0.171232 0.858757 4.53714 -1.71752 192 192 192 255 0.428522 0.088258
0.394696 0.728759 -0.197347 2 3 -1 192 192 192 255 0.428522 0.088258
0.026115 0.500617 -0.171232 -1 -3 -2 192 192 192 255 0.323814 0.087333
0.026115 0.500617 0.171233 -2 -3 1 192 192 192 255 0.323814 0.087333
0 0.500617 0.197348 -1 -3 2 192 192 192 255 0.323814 0.087333
0 0.500617 -0.197347 -2 -3 -1 192 192 192 255 0.323814 0.087333
0.026115 0.542226 0.171233 -1 3 2 192 192 192 255 0.428522 0.088258
0.026115 0.542226 -0.171232 -2 3 -1 192 192 192 255 0.428522 0.088258
0 0.542226 -0.197347 -1 3 -2 192 192 192 255 0.428522 0.088258
0 0.542226 0.197348 -2 3 1 192 192 192 255 0.428522 0.088258
0.368581 0.500617 0.171233 1 -3 2 192 192 192 255 0.323814 0.087333
0.394696 0.500617 0.197348 2 -3 1 192 192 192 255 0.323814 0.087333
0.368581 0.542226 0.171233 2 3 1 192 192 192 255 0.428522 0.088258
0.394696 0.542226 0.197348 1 3 2 192 192 192 255 0.428522 0.088258
0.368581 0.500617 -0.171232 2 -3 -1 192 192 192 255 0.323814 0.087333
0.394696 0.500617 -0.197347 1 -3 -2 192 192 192 255 0.323814 0.087333
0.368581 0.542226 -0.171232 1 3 -2 192 192 192 255 0.428522 0.088258
0.394696 0.542226 -0.197347 2 3 -1 192 192 192 255 0.428522 0.088258
0.08719 -0.623936 -0.110157 -1.96571 -3.73754 -1.96571 192 192 192 255 0.323814 0.087333
0.08719 -0.623936 0.110159 -0.982854 -3.55317 1.96571 192 192 192 255 0.323814 0.087333
0 -0.623936 0.197348 -1 -3 2 192 192 192 255 0.323814 0.087333
0 -0.623936 -0.197347 -2 -3 -1 192 192 192 255 0.323814 0.087333
0.026115 -0.58168 0.171233 -1 3 2 192 192 192 255 0.428522 0.088258
0.026115 -0.58168 -0.171232 -2 3 -1 192 192 192 255 0.428522 0.088258
0 -0.58168 -0.197347 -1 3 -2 192 192 192 255 0.428522 0.088258
0 -0.58168 0.197348 -2 3 1 192 192 192 255 0.428522 0.088258
0.307506 -0.623936 0.110159 0.982853 -3.36878 0.982853 192 192 192 255 0.323814 0.087333
0.394696 -0.623936 0.197348 2 -3 1 192 192 192 255 0.323814 0.087333
0.368581 -0.58168 0.171233 2 3 1 192 192 192 255 0.428522 0.088258
0.394696 -0.58168 0.197348 1 3 2 192 192 192 255 0.428522 0.088258
0.307506 -0.623936 -0.110157 1.96571 -3.55317 -0.982854 192 192 192 255 0.323814 0.087333
0.394696 -0.623936 -0.197347 1 -3 -2 192 192 192 255 0.323814 0.087333
0.368581 -0.58168 -0.171232 1 3 -2 192 192 192 255 0.428522 0.088258
0.394696 -0.58168 -0.197347 2 3 -1 192 192 192 255 0.428522 0.088258
3 9 10 3 
3 9 3 2 
3 112 113 5 
3 112 5 4 
3 114 115 11 
3 114 11 8 
3 6 7 1 
3 6 1 0 
3 116 117 118 
3 116 118 119 
3 120 121 122 
3 120 122 123 
3 32 33 34 
3 32 34 35 
3 124 36 37 
3 124 37 125 
3 126 38 39 
3 126 39 127 
3 128 129 130 
3 128 130 131 
3 16 17 13 
3 16 13 12 
3 132 18 14 
3 132 14 133 
3 134 19 15 
3 134 15 135 
3 136 137 138 
3 136 138 139 
3 40 41 42 
3 40 42 43 
3 140 44 45 
3 140 45 141 
3 142 46 47 
3 142 47 143 
3 144 145 146 
3 144 146 147 
3 48 49 50 
3 48 50 51 
3 148 52 53 
3 148 53 149 
3 150 54 55 
3 150 55 151 
3 152 153 154 
3 152 154 155 
3 156 25 24 
3 156 24 157 
3 158 26 159 
3 158 159 160 
3 27 161 162 
3 27 162 163 
3 164 165 166 
3 164 166 167 
3 29 28 22 
3 29 22 21 
3 30 168 169 
3 30 169 20 
3 170 23 31 
3 170 31 171 
3 172 173 174 
3 172 174 175 
3 176 177 178 
3 176 178 179 
3 180 181 182 
3 180 182 183 
3 177 184 185 
3 177 185 178 
3 186 180 183 
3 186 183 187 
3 184 188 189 
3 184 189 185 
3 190 186 187 
3 190 187 191 
3 181 190 191 
3 181 191 182 
3 188 176 179 
3 188 179 189 
3 192 193 194 
3 192 194 195 
3 196 197 198 
3 196 198 199 
3 193 200 201 
3 193 201 194 
3 202 196 199 
3 202 199 203 
3 200 204 205 
3 200 205 201 
3 206 202 203 
3 206 203 207 
3 197 206 207 
3 197 207 198 
3 204 192 195 
3 204 195 205 
3 208 209 210 
3 208 210 211 
3 212 213 214 
3 212 214 215 
3 209 216 217 
3 209 217 210 
3 218 212 215 
3 218 215 219 
3 216 220 221 
3 216 221 217 
3 222 218 219 
3 222 219 223 
3 213 222 223 
3 213 223 214 
3 220 208 211 
3 220 211 221 
3 65 66 59 
3 65 59 58 
3 224 225 61 
3 224 61 60 
3 226 227 67 
3 226 67 64 
3 62 63 57 
3 62 57 56 
3 228 229 230 
3 228 230 231 
3 232 233 234 
3 232 234 235 
3 88 89 90 
3 88 90 91 
3 236 92 93 
3 236 93 237 
3 238 94 95 
3 238 95 239 
3 240 241 242 
3 240 242 243 
3 72 73 69 
3 72 69 68 
3 244 74 70 
3 244 70 245 
3 246 75 71 
3 246 71 247 
3 248 249 250 
3 248 250 251 
3 96 97 98 
3 96 98 99 
3 252 100 101 
3 252 101 253 
3 254 102 103 
3 254 103 255 
3 256 257 258 
3 256 258 259 
3 104 105 106 
3 104 106 107 
3 260 108 109 
3 260 109 261 
3 262 110 111 
3 262 111 263 
3 264 265 266 
3 264 266 267 
3 268 81 80 
3 268 80 269 
3 270 82 271 
3 270 271 272 
3 83 273 274 
3 83 274 275 
3 276 277 278 
3 276 278 279 
3 85 84 78 
3 85 78 77 
3 86 280 281 
3 86 281 76 
3 282 79 87 
3 282 87 283 
3 284 285 286 
3 284 286 287 
3 288 289 290 
3 288 290 291 
3 292 293 294 
3 292 294 295 
3 289 296 297 
3 289 297 290 
3 298 292 295 
3 298 295 299 
3 296 300 301 
3 296 301 297 
3 302 298 299 
3 302 299 303 
3 293 302 303 
3 293 303 294 
3 300 288 291 
3 300 291 301 
3 304 305 306 
3 304 306 307 
3 308 309 310 
3 308 310 311 
3 305 312 313 
3 305 313 306 
3 314 308 311 
3 314 311 315 
3 312 316 317 
3 312 317 313 
3 318 314 315 
3 318 315 319 
3 309 318 319 
3 309 319 310 
3 316 304 307 
3 316 307 317 
3 320 321 322 
3 320 322 323 
3 324 325 326 
3 324 326 327 
3 321 328 329 
3 321 329 322 
3 330 324 327 
3 330 327 331 
3 328 332 333 
3 328 333 329 
3 334 330 331 
3 334 331 335 
3 325 334 335 
3 325 335 326 
3 332 320 323 
3 332 323 333 
