ply
format ascii 1.0
comment VCGLIB generated
comment TextureFile SpaceInteriors_Texture.png
element vertex 72
property float x
property float y
property float z
property float nx
property float ny
property float nz
property uchar red
property uchar green
property uchar blue
property uchar alpha
property float texture_u
property float texture_v
element face 60
property list uchar int vertex_indices
end_header
-0.751954 0.40585 0.751952 -1 -3 3 192 192 192 255 0.328365 0.479081
0.751952 0.40585 0.751952 2 -3 6.05956 192 192 192 255 0.328364 0.479081
-0.751954 3.42906 0.751952 -2 1 5 192 192 192 255 0.328365 0.479081
0.751952 3.42906 0.751952 1 2 5 192 192 192 255 0.328364 0.479081
-0.751954 3.42906 -0.751952 -1 2 -2 192 192 192 255 0.355224 0.478355
0.751952 3.42906 -0.751952 2 1 -1 192 192 192 255 0.355224 0.478355
-0.751954 0.40585 -0.751952 -2 -3 -1 192 192 192 255 0.355224 0.478355
0.751952 0.40585 -0.751952 1 -3 -2 192 192 192 255 0.355224 0.478355
-0.621543 0.40585 -0.621543 -1 -3 -2 192 192 192 255 0.355224 0.478355
0.621541 0.40585 -0.621543 2 -3 -1 192 192 192 255 0.355224 0.478355
0.621541 0.40585 0.621543 1 -3 2 192 192 192 255 0.355224 0.478355
-0.621543 0.40585 0.621543 -2 -3 1 192 192 192 255 0.355224 0.478355
-0.621543 0 -0.621543 -2 -2 -1 192 192 192 255 0.106332 0.481206
0.621541 0 -0.621543 1 -1 -2 192 192 192 255 0.106332 0.481206
0.621541 0 0.621543 2 -2 1 192 192 192 255 0.106332 0.481206
-0.621543 0 0.621543 -1 -1 2 192 192 192 255 0.106332 0.481206
-0.657035 0.562841 0.751952 0 0 5 192 192 192 255 0.502286 0.010729
0.657039 0.562841 0.751952 0 0 3.05956 192 192 192 255 0.685675 0.010729
0.657039 1.19035 0.751952 0 0 5.05956 192 192 192 255 0.685675 0.079146
-0.657035 1.19035 0.751952 0 0 5 192 192 192 255 0.502286 0.079146
-0.545678 3.24473 0.751952 0 0 4 192 192 192 255 0.333036 0.481933
0.545676 3.24473 0.751952 0 0 8 192 192 192 255 0.333036 0.481933
-0.545678 1.37469 0.751952 0 0 5 192 192 192 255 0.333036 0.481933
0.545676 1.37469 0.751952 0 0 6 192 192 192 255 0.333036 0.481933
0.686175 1.86152 0.751952 0 0 5 192 192 192 255 0.355224 0.478355
0.686175 1.5911 0.751952 0 0 6 192 192 192 255 0.355224 0.478355
0.59514 1.86152 0.751952 0 0 4 192 192 192 255 0.980461 0.392608
0.59514 1.5911 0.751952 0 0 4 192 192 192 255 0.355224 0.478355
0.59514 1.76482 0.751952 0 0 5 192 192 192 255 0.980461 0.392608
0.686175 1.76482 0.751952 0 0 5 192 192 192 255 0.355224 0.478355
0.59514 1.69146 0.751952 0 0 6 192 192 192 255 0.355224 0.478355
0.686175 1.69146 0.751952 0 0 4 192 192 192 255 0.355224 0.478355
0.751952 0.40585 -0.751952 1 -3 -2 192 192 192 255 0.328364 0.479081
0.751952 3.42906 -0.751952 2 1 -1 192 192 192 255 0.328364 0.479081
-0.751954 0.40585 -0.751952 -2 -3 -1 192 192 192 255 0.328364 0.479081
-0.751954 3.42906 -0.751952 -1 2 -2 192 192 192 255 0.328364 0.479081
0.751952 0.40585 0.751952 2 -3 6.05956 192 192 192 255 0.355224 0.478355
-0.751954 0.40585 0.751952 -1 -3 3 192 192 192 255 0.355224 0.478355
-0.621543 0.40585 -0.621543 -1 -3 -2 192 192 192 255 0.106332 0.481206
0.621541 0.40585 -0.621543 2 -3 -1 192 192 192 255 0.106332 0.481206
0.621541 0.40585 -0.621543 2 -3 -1 192 192 192 255 0.08165 0.477576
0.621541 0.40585 0.621543 1 -3 2 192 192 192 255 0.08165 0.477576
0.621541 0 0.621543 2 -2 1 192 192 192 255 0.08165 0.477576
0.621541 0 -0.621543 1 -1 -2 192 192 192 255 0.08165 0.477576
0.621541 0.40585 0.621543 1 -3 2 192 192 192 255 0.106332 0.481206
-0.621543 0.40585 0.621543 -2 -3 1 192 192 192 255 0.106332 0.481206
-0.621543 0.40585 0.621543 -2 -3 1 192 192 192 255 0.08165 0.477576
-0.621543 0.40585 -0.621543 -1 -3 -2 192 192 192 255 0.08165 0.477576
-0.621543 0 -0.621543 -2 -2 -1 192 192 192 255 0.08165 0.477576
-0.621543 0 0.621543 -1 -1 2 192 192 192 255 0.08165 0.477576
0.657039 0.562841 0.751952 0 0 3.05956 192 192 192 255 0.355224 0.478355
-0.657035 0.562841 0.751952 0 0 5 192 192 192 255 0.355224 0.478355
0.751952 3.42906 0.751952 1 2 5 192 192 192 255 0.355224 0.478355
0.657039 1.19035 0.751952 0 0 5.05956 192 192 192 255 0.355224 0.478355
-0.751954 3.42906 0.751952 -2 1 5 192 192 192 255 0.355224 0.478355
-0.657035 1.19035 0.751952 0 0 5 192 192 192 255 0.355224 0.478355
-0.545678 3.24473 0.751952 0 0 4 192 192 192 255 0.355224 0.478355
0.545676 3.24473 0.751952 0 0 8 192 192 192 255 0.355224 0.478355
-0.545678 1.37469 0.751952 0 0 5 192 192 192 255 0.355224 0.478355
0.545676 1.37469 0.751952 0 0 6 192 192 192 255 0.355224 0.478355
0.686175 1.76482 0.751952 0 0 5 192 192 192 255 0.980461 0.392608
0.686175 1.86152 0.751952 0 0 5 192 192 192 255 0.980461 0.392608
-0.751954 3.42906 -0.751952 -1 2 -2 192 192 192 255 0.389343 0.478355
-0.751954 3.42906 0.751952 -2 1 5 192 192 192 255 0.389343 0.478355
0.751952 3.42906 0.751952 1 2 5 192 192 192 255 0.389343 0.478355
0.751952 3.42906 -0.751952 2 1 -1 192 192 192 255 0.389343 0.478355
0.59514 1.86152 0.751952 0 0 4 192 192 192 255 0.355224 0.478355
0.59514 1.76482 0.751952 0 0 5 192 192 192 255 0.355224 0.478355
0.686175 1.5911 0.751952 0 0 6 192 192 192 255 0.954695 0.379725
0.686175 1.69146 0.751952 0 0 4 192 192 192 255 0.954695 0.379725
0.59514 1.69146 0.751952 0 0 6 192 192 192 255 0.954695 0.379725
0.59514 1.5911 0.751952 0 0 4 192 192 192 255 0.954695 0.379725
3 16 17 18 
3 16 18 19 
3 4 5 7 
3 4 7 6 
3 12 13 14 
3 12 14 15 
3 1 32 33 
3 1 33 3 
3 34 0 2 
3 34 2 35 
3 6 7 9 
3 6 9 8 
3 7 36 10 
3 7 10 9 
3 36 37 11 
3 36 11 10 
3 37 6 8 
3 37 8 11 
3 38 39 13 
3 38 13 12 
3 40 41 42 
3 40 42 43 
3 44 45 15 
3 44 15 14 
3 46 47 48 
3 46 48 49 
3 37 36 50 
3 37 50 51 
3 36 52 24 
3 36 24 29 
3 36 29 31 
3 36 31 25 
3 36 25 53 
3 21 20 22 
3 21 22 23 
3 54 37 51 
3 54 51 55 
3 52 54 56 
3 52 56 57 
3 54 55 58 
3 54 58 56 
3 55 53 59 
3 55 59 58 
3 28 60 61 
3 28 61 26 
3 62 63 64 
3 62 64 65 
3 52 57 66 
3 52 66 24 
3 57 59 27 
3 57 27 30 
3 57 30 67 
3 57 67 66 
3 59 53 25 
3 59 25 27 
3 53 50 36 
3 30 31 29 
3 30 29 67 
3 68 69 70 
3 68 70 71 
