ply
format ascii 1.0
comment VCGLIB generated
comment TextureFile SpaceInteriors_Texture.png
element vertex 271
property float x
property float y
property float z
property float nx
property float ny
property float nz
property uchar red
property uchar green
property uchar blue
property uchar alpha
property float texture_u
property float texture_v
element face 166
property list uchar int vertex_indices
end_header
-0.783373 1.84723 0.221406 -3 -1 2 192 192 192 255 0.267261 0.061667
-0.693041 1.84723 0.221406 3 -2 1 192 192 192 255 0.267261 0.061667
-0.783373 3.31868 0.221406 -3 2 1 192 192 192 255 0.267261 0.061667
-0.693041 3.31868 0.221406 3 1 2 192 192 192 255 0.267261 0.061667
-0.783373 3.23027 0.135185 -3 -1 -2 192 192 192 255 0.267261 0.061667
-0.693041 3.23027 0.135185 3 -2 -1 192 192 192 255 0.267261 0.061667
-0.783373 1.93564 0.135185 -3 2 -1 192 192 192 255 0.267261 0.061667
-0.693041 1.93564 0.135185 3 1 -2 192 192 192 255 0.267261 0.061667
-0.783373 3.31868 -0.002934 -2 1 3 192 192 192 255 0.300052 0.061667
-0.693041 3.31868 -0.002934 1 2 3 192 192 192 255 0.300052 0.061667
-0.693041 3.23027 -0.002934 2 -1 3 192 192 192 255 0.240032 0.061667
-0.783373 3.23027 -0.002934 -1 -2 3 192 192 192 255 0.198113 0.061667
-0.783373 1.93564 -0.002934 -2 1 3 192 192 192 255 0.29711 0.061667
-0.693041 1.93564 -0.002934 1 2 3 192 192 192 255 0.29711 0.061667
-0.693041 1.84723 -0.002934 2 -1 3 192 192 192 255 0.244197 0.061667
-0.783373 1.84723 -0.002934 -1 -2 3 192 192 192 255 0.200168 0.061667
-0.81255 3.34723 -0.002934 -1 2 3 192 192 192 255 0.26373 0.062198
-0.663868 3.34723 -0.002934 2 1 3 192 192 192 255 0.26373 0.062198
-0.663868 3.20172 -0.002934 1 -2 3 192 192 192 255 0.26373 0.062198
-0.81255 3.20172 -0.002934 -2 -1 3 192 192 192 255 0.26373 0.062198
-0.812548 1.96419 -0.002934 -1 2 3 192 192 192 255 0.26373 0.062198
-0.663864 1.96419 -0.002934 2 1 3 192 192 192 255 0.26373 0.062198
-0.663864 1.81867 -0.002934 1 -2 3 192 192 192 255 0.26373 0.062198
-0.812548 1.81867 -0.002934 -2 -1 3 192 192 192 255 0.26373 0.062198
-0.81255 3.34723 -0.061707 -2 1 0 192 192 192 255 0.297952 0.062198
-0.663868 3.34723 -0.061707 1 2 0 192 192 192 255 0.297952 0.062198
-0.663868 3.20172 -0.061707 2 -1 0 192 192 192 255 0.235124 0.062198
-0.81255 3.20172 -0.061707 -1 -2 0 192 192 192 255 0.209288 0.062198
-0.812548 1.96419 -0.061707 -2 1 0 192 192 192 255 0.297952 0.062198
-0.663864 1.96419 -0.061707 1 2 0 192 192 192 255 0.297952 0.062198
-0.663864 1.81867 -0.061707 2 -1 0 192 192 192 255 0.235124 0.062198
-0.812548 1.81867 -0.061707 -1 -2 0 192 192 192 255 0.209288 0.062198
0.693041 1.84723 0.221406 -3 -1 2 192 192 192 255 0.267261 0.061667
0.783375 1.84723 0.221406 3 -2 1 192 192 192 255 0.267261 0.061667
0.693041 3.31868 0.221406 -3 2 1 192 192 192 255 0.267261 0.061667
0.783375 3.31868 0.221406 3 1 2 192 192 192 255 0.267261 0.061667
0.693041 3.23027 0.135185 -3 -1 -2 192 192 192 255 0.267261 0.061667
0.783375 3.23027 0.135185 3 -2 -1 192 192 192 255 0.267261 0.061667
0.693041 1.93564 0.135185 -3 2 -1 192 192 192 255 0.267261 0.061667
0.783375 1.93564 0.135185 3 1 -2 192 192 192 255 0.267261 0.061667
0.693041 3.31868 -0.002934 -2 1 3 192 192 192 255 0.300052 0.061667
0.783375 3.31868 -0.002934 1 2 3 192 192 192 255 0.300052 0.061667
0.783375 3.23027 -0.002934 2 -1 3 192 192 192 255 0.240032 0.061667
0.693041 3.23027 -0.002934 -1 -2 3 192 192 192 255 0.198113 0.061667
0.693041 1.93564 -0.002934 -2 1 3 192 192 192 255 0.29711 0.061667
0.783375 1.93564 -0.002934 1 2 3 192 192 192 255 0.29711 0.061667
0.783375 1.84723 -0.002934 2 -1 3 192 192 192 255 0.244197 0.061667
0.693041 1.84723 -0.002934 -1 -2 3 192 192 192 255 0.200168 0.061667
0.663866 3.34723 -0.002934 -1 2 3 192 192 192 255 0.26373 0.062198
0.812546 3.34723 -0.002934 2 1 3 192 192 192 255 0.26373 0.062198
0.812546 3.20172 -0.002934 1 -2 3 192 192 192 255 0.26373 0.062198
0.663866 3.20172 -0.002934 -2 -1 3 192 192 192 255 0.26373 0.062198
0.663868 1.96419 -0.002934 -1 2 3 192 192 192 255 0.26373 0.062198
0.81255 1.96419 -0.002934 2 1 3 192 192 192 255 0.26373 0.062198
0.81255 1.81867 -0.002934 1 -2 3 192 192 192 255 0.26373 0.062198
0.663868 1.81867 -0.002934 -2 -1 3 192 192 192 255 0.26373 0.062198
0.663866 3.34723 -0.061707 -2 1 0 192 192 192 255 0.297952 0.062198
0.812546 3.34723 -0.061707 1 2 0 192 192 192 255 0.297952 0.062198
0.812546 3.20172 -0.061707 2 -1 0 192 192 192 255 0.235124 0.062198
0.663866 3.20172 -0.061707 -1 -2 0 192 192 192 255 0.209288 0.062198
0.663868 1.96419 -0.061707 -2 1 0 192 192 192 255 0.297952 0.062198
0.81255 1.96419 -0.061707 1 2 0 192 192 192 255 0.297952 0.062198
0.81255 1.81867 -0.061707 2 -1 0 192 192 192 255 0.235124 0.062198
0.663868 1.81867 -0.061707 -1 -2 0 192 192 192 255 0.209288 0.062198
-0.894236 0 -0.061707 -1 -1 3 192 192 192 255 0.294895 0.061667
0.894236 0 -0.061707 2 -2 3 192 192 192 255 0.294895 0.061667
-0.894236 3.4186 -0.061707 -2 3.52131 3.53383 192 192 192 255 0.39478 0.061667
0.894236 3.4186 -0.061707 1 3.30268 2.84589 192 192 192 255 0.39478 0.061667
-0.894236 3.4186 -0.221407 -1 0.913314 -1.59274 192 192 192 255 0.39478 0.061667
0.894236 3.4186 -0.221407 2 1.82663 -0.18549 192 192 192 255 0.39478 0.061667
-0.894236 0 -0.221407 -2 -2 -1 192 192 192 255 0.359915 0.061667
0.894236 0 -0.221407 1 -1 -2 192 192 192 255 0.359915 0.061667
-0.571285 0.220283 -0.061707 -1 -2 3 192 192 192 255 0.359915 0.061667
0.571283 0.220283 -0.061707 3 -1 3 192 192 192 255 0.359915 0.061667
0.571283 3.08644 -0.061707 1 2.69468 2.71932 192 192 192 255 0.359915 0.061667
-0.571285 3.08644 -0.061707 -3 2.38936 2.43864 192 192 192 255 0.359915 0.061667
-0.571285 0.220283 0.158291 -2 -1 3 192 192 192 255 0.135385 0.44194
0.571283 0.220283 0.158291 1 -2 4 192 192 192 255 0.135385 0.44194
0.571283 3.08644 0.158291 2 1 3 192 192 192 255 0.17187 0.44194
-0.571285 3.08644 0.158291 -1 2 3 192 192 192 255 0.232299 0.44194
-0.571285 2.51321 0.158291 -2 0 4 192 192 192 255 0.17187 0.44194
0.571283 2.51321 0.158291 2 0 4 192 192 192 255 0.17187 0.44194
0.057127 2.51321 0.158291 0 0 8 192 192 192 255 0.199234 0.44194
-0.057129 2.51321 0.158291 0 0 5 192 192 192 255 0.178397 0.061667
-0.498825 2.57905 0.158291 0 0 6 192 192 192 255 0.298205 0.44186
-0.049881 2.57905 0.158291 0 0 4 192 192 192 255 0.298205 0.44186
0.049877 2.57905 0.158291 0 0 3 192 192 192 255 0.298205 0.44186
0.498823 2.57905 0.158291 0 0 5 192 192 192 255 0.298205 0.44186
0.498823 3.0206 0.158291 0 0 5 192 192 192 255 0.298205 0.44186
-0.498825 3.0206 0.158291 0 0 4 192 192 192 255 0.298205 0.44186
-0.057129 0.634359 0.158291 0 0 5 192 192 192 255 0.178397 0.061667
0.057127 0.634359 0.158291 0 0 3 192 192 192 255 0.199234 0.44194
0 3.4186 -0.061707 0 1 0 192 192 192 255 0.39478 0.061667
-0.693041 1.84723 0.221406 3 -2 1 192 192 192 255 0.233148 0.061667
-0.693041 1.93564 0.135185 3 1 -2 192 192 192 255 0.233148 0.061667
-0.693041 3.23027 0.135185 3 -2 -1 192 192 192 255 0.233148 0.061667
-0.693041 3.31868 0.221406 3 1 2 192 192 192 255 0.233148 0.061667
-0.783373 1.93564 0.135185 -3 2 -1 192 192 192 255 0.233148 0.061667
-0.783373 1.84723 0.221406 -3 -1 2 192 192 192 255 0.233148 0.061667
-0.783373 3.31868 0.221406 -3 2 1 192 192 192 255 0.233148 0.061667
-0.783373 3.23027 0.135185 -3 -1 -2 192 192 192 255 0.233148 0.061667
-0.783373 3.31868 0.221406 -3 2 1 192 192 192 255 0.300052 0.061667
-0.693041 3.31868 0.221406 3 1 2 192 192 192 255 0.300052 0.061667
-0.693041 3.31868 0.221406 3 1 2 192 192 192 255 0.240032 0.061667
-0.693041 3.23027 0.135185 3 -2 -1 192 192 192 255 0.240032 0.061667
-0.693041 3.31868 -0.002934 1 2 3 192 192 192 255 0.240032 0.061667
-0.693041 3.23027 0.135185 3 -2 -1 192 192 192 255 0.198113 0.061667
-0.783373 3.23027 0.135185 -3 -1 -2 192 192 192 255 0.198113 0.061667
-0.693041 3.23027 -0.002934 2 -1 3 192 192 192 255 0.198113 0.061667
-0.783373 3.23027 0.135185 -3 -1 -2 192 192 192 255 0.240032 0.061667
-0.783373 3.31868 0.221406 -3 2 1 192 192 192 255 0.240032 0.061667
-0.783373 3.31868 -0.002934 -2 1 3 192 192 192 255 0.240032 0.061667
-0.783373 3.23027 -0.002934 -1 -2 3 192 192 192 255 0.240032 0.061667
-0.783373 1.93564 0.135185 -3 2 -1 192 192 192 255 0.29711 0.061667
-0.693041 1.93564 0.135185 3 1 -2 192 192 192 255 0.29711 0.061667
-0.693041 1.93564 0.135185 3 1 -2 192 192 192 255 0.244197 0.061667
-0.693041 1.84723 0.221406 3 -2 1 192 192 192 255 0.244197 0.061667
-0.693041 1.93564 -0.002934 1 2 3 192 192 192 255 0.244197 0.061667
-0.693041 1.84723 0.221406 3 -2 1 192 192 192 255 0.200168 0.061667
-0.783373 1.84723 0.221406 -3 -1 2 192 192 192 255 0.200168 0.061667
-0.693041 1.84723 -0.002934 2 -1 3 192 192 192 255 0.200168 0.061667
-0.783373 1.84723 0.221406 -3 -1 2 192 192 192 255 0.244197 0.061667
-0.783373 1.93564 0.135185 -3 2 -1 192 192 192 255 0.244197 0.061667
-0.783373 1.93564 -0.002934 -2 1 3 192 192 192 255 0.244197 0.061667
-0.783373 1.84723 -0.002934 -1 -2 3 192 192 192 255 0.244197 0.061667
-0.783373 3.31868 -0.002934 -2 1 3 192 192 192 255 0.26373 0.062198
-0.693041 3.31868 -0.002934 1 2 3 192 192 192 255 0.26373 0.062198
-0.693041 3.23027 -0.002934 2 -1 3 192 192 192 255 0.26373 0.062198
-0.783373 3.23027 -0.002934 -1 -2 3 192 192 192 255 0.26373 0.062198
-0.783373 1.93564 -0.002934 -2 1 3 192 192 192 255 0.26373 0.062198
-0.693041 1.93564 -0.002934 1 2 3 192 192 192 255 0.26373 0.062198
-0.693041 1.84723 -0.002934 2 -1 3 192 192 192 255 0.26373 0.062198
-0.783373 1.84723 -0.002934 -1 -2 3 192 192 192 255 0.26373 0.062198
-0.81255 3.34723 -0.002934 -1 2 3 192 192 192 255 0.297952 0.062198
-0.663868 3.34723 -0.002934 2 1 3 192 192 192 255 0.297952 0.062198
-0.663868 3.34723 -0.002934 2 1 3 192 192 192 255 0.235124 0.062198
-0.663868 3.20172 -0.002934 1 -2 3 192 192 192 255 0.235124 0.062198
-0.663868 3.34723 -0.061707 1 2 0 192 192 192 255 0.235124 0.062198
-0.663868 3.20172 -0.002934 1 -2 3 192 192 192 255 0.209288 0.062198
-0.81255 3.20172 -0.002934 -2 -1 3 192 192 192 255 0.209288 0.062198
-0.663868 3.20172 -0.061707 2 -1 0 192 192 192 255 0.209288 0.062198
-0.81255 3.20172 -0.002934 -2 -1 3 192 192 192 255 0.235124 0.062198
-0.81255 3.34723 -0.002934 -1 2 3 192 192 192 255 0.235124 0.062198
-0.81255 3.34723 -0.061707 -2 1 0 192 192 192 255 0.235124 0.062198
-0.81255 3.20172 -0.061707 -1 -2 0 192 192 192 255 0.235124 0.062198
-0.812548 1.96419 -0.002934 -1 2 3 192 192 192 255 0.297952 0.062198
-0.663864 1.96419 -0.002934 2 1 3 192 192 192 255 0.297952 0.062198
-0.663864 1.96419 -0.002934 2 1 3 192 192 192 255 0.235124 0.062198
-0.663864 1.81867 -0.002934 1 -2 3 192 192 192 255 0.235124 0.062198
-0.663864 1.96419 -0.061707 1 2 0 192 192 192 255 0.235124 0.062198
-0.663864 1.81867 -0.002934 1 -2 3 192 192 192 255 0.209288 0.062198
-0.812548 1.81867 -0.002934 -2 -1 3 192 192 192 255 0.209288 0.062198
-0.663864 1.81867 -0.061707 2 -1 0 192 192 192 255 0.209288 0.062198
-0.812548 1.81867 -0.002934 -2 -1 3 192 192 192 255 0.235124 0.062198
-0.812548 1.96419 -0.002934 -1 2 3 192 192 192 255 0.235124 0.062198
-0.812548 1.96419 -0.061707 -2 1 0 192 192 192 255 0.235124 0.062198
-0.812548 1.81867 -0.061707 -1 -2 0 192 192 192 255 0.235124 0.062198
0.783375 1.84723 0.221406 3 -2 1 192 192 192 255 0.233148 0.061667
0.783375 1.93564 0.135185 3 1 -2 192 192 192 255 0.233148 0.061667
0.783375 3.23027 0.135185 3 -2 -1 192 192 192 255 0.233148 0.061667
0.783375 3.31868 0.221406 3 1 2 192 192 192 255 0.233148 0.061667
0.693041 1.93564 0.135185 -3 2 -1 192 192 192 255 0.233148 0.061667
0.693041 1.84723 0.221406 -3 -1 2 192 192 192 255 0.233148 0.061667
0.693041 3.31868 0.221406 -3 2 1 192 192 192 255 0.233148 0.061667
0.693041 3.23027 0.135185 -3 -1 -2 192 192 192 255 0.233148 0.061667
0.693041 3.31868 0.221406 -3 2 1 192 192 192 255 0.300052 0.061667
0.783375 3.31868 0.221406 3 1 2 192 192 192 255 0.300052 0.061667
0.783375 3.31868 0.221406 3 1 2 192 192 192 255 0.240032 0.061667
0.783375 3.23027 0.135185 3 -2 -1 192 192 192 255 0.240032 0.061667
0.783375 3.31868 -0.002934 1 2 3 192 192 192 255 0.240032 0.061667
0.783375 3.23027 0.135185 3 -2 -1 192 192 192 255 0.198113 0.061667
0.693041 3.23027 0.135185 -3 -1 -2 192 192 192 255 0.198113 0.061667
0.783375 3.23027 -0.002934 2 -1 3 192 192 192 255 0.198113 0.061667
0.693041 3.23027 0.135185 -3 -1 -2 192 192 192 255 0.240032 0.061667
0.693041 3.31868 0.221406 -3 2 1 192 192 192 255 0.240032 0.061667
0.693041 3.31868 -0.002934 -2 1 3 192 192 192 255 0.240032 0.061667
0.693041 3.23027 -0.002934 -1 -2 3 192 192 192 255 0.240032 0.061667
0.693041 1.93564 0.135185 -3 2 -1 192 192 192 255 0.29711 0.061667
0.783375 1.93564 0.135185 3 1 -2 192 192 192 255 0.29711 0.061667
0.783375 1.93564 0.135185 3 1 -2 192 192 192 255 0.244197 0.061667
0.783375 1.84723 0.221406 3 -2 1 192 192 192 255 0.244197 0.061667
0.783375 1.93564 -0.002934 1 2 3 192 192 192 255 0.244197 0.061667
0.783375 1.84723 0.221406 3 -2 1 192 192 192 255 0.200168 0.061667
0.693041 1.84723 0.221406 -3 -1 2 192 192 192 255 0.200168 0.061667
0.783375 1.84723 -0.002934 2 -1 3 192 192 192 255 0.200168 0.061667
0.693041 1.84723 0.221406 -3 -1 2 192 192 192 255 0.244197 0.061667
0.693041 1.93564 0.135185 -3 2 -1 192 192 192 255 0.244197 0.061667
0.693041 1.93564 -0.002934 -2 1 3 192 192 192 255 0.244197 0.061667
0.693041 1.84723 -0.002934 -1 -2 3 192 192 192 255 0.244197 0.061667
0.693041 3.31868 -0.002934 -2 1 3 192 192 192 255 0.26373 0.062198
0.783375 3.31868 -0.002934 1 2 3 192 192 192 255 0.26373 0.062198
0.783375 3.23027 -0.002934 2 -1 3 192 192 192 255 0.26373 0.062198
0.693041 3.23027 -0.002934 -1 -2 3 192 192 192 255 0.26373 0.062198
0.693041 1.93564 -0.002934 -2 1 3 192 192 192 255 0.26373 0.062198
0.783375 1.93564 -0.002934 1 2 3 192 192 192 255 0.26373 0.062198
0.783375 1.84723 -0.002934 2 -1 3 192 192 192 255 0.26373 0.062198
0.693041 1.84723 -0.002934 -1 -2 3 192 192 192 255 0.26373 0.062198
0.663866 3.34723 -0.002934 -1 2 3 192 192 192 255 0.297952 0.062198
0.812546 3.34723 -0.002934 2 1 3 192 192 192 255 0.297952 0.062198
0.812546 3.34723 -0.002934 2 1 3 192 192 192 255 0.235124 0.062198
0.812546 3.20172 -0.002934 1 -2 3 192 192 192 255 0.235124 0.062198
0.812546 3.34723 -0.061707 1 2 0 192 192 192 255 0.235124 0.062198
0.812546 3.20172 -0.002934 1 -2 3 192 192 192 255 0.209288 0.062198
0.663866 3.20172 -0.002934 -2 -1 3 192 192 192 255 0.209288 0.062198
0.812546 3.20172 -0.061707 2 -1 0 192 192 192 255 0.209288 0.062198
0.663866 3.20172 -0.002934 -2 -1 3 192 192 192 255 0.235124 0.062198
0.663866 3.34723 -0.002934 -1 2 3 192 192 192 255 0.235124 0.062198
0.663866 3.34723 -0.061707 -2 1 0 192 192 192 255 0.235124 0.062198
0.663866 3.20172 -0.061707 -1 -2 0 192 192 192 255 0.235124 0.062198
0.663868 1.96419 -0.002934 -1 2 3 192 192 192 255 0.297952 0.062198
0.81255 1.96419 -0.002934 2 1 3 192 192 192 255 0.297952 0.062198
0.81255 1.96419 -0.002934 2 1 3 192 192 192 255 0.235124 0.062198
0.81255 1.81867 -0.002934 1 -2 3 192 192 192 255 0.235124 0.062198
0.81255 1.96419 -0.061707 1 2 0 192 192 192 255 0.235124 0.062198
0.81255 1.81867 -0.002934 1 -2 3 192 192 192 255 0.209288 0.062198
0.663868 1.81867 -0.002934 -2 -1 3 192 192 192 255 0.209288 0.062198
0.81255 1.81867 -0.061707 2 -1 0 192 192 192 255 0.209288 0.062198
0.663868 1.81867 -0.002934 -2 -1 3 192 192 192 255 0.235124 0.062198
0.663868 1.96419 -0.002934 -1 2 3 192 192 192 255 0.235124 0.062198
0.663868 1.96419 -0.061707 -2 1 0 192 192 192 255 0.235124 0.062198
0.663868 1.81867 -0.061707 -1 -2 0 192 192 192 255 0.235124 0.062198
-0.894236 3.4186 -0.221407 -1 0.913314 -1.59274 192 192 192 255 0.359915 0.061667
0.894236 3.4186 -0.221407 2 1.82663 -0.18549 192 192 192 255 0.359915 0.061667
-0.894236 0 -0.221407 -2 -2 -1 192 192 192 255 0.294895 0.061667
0.894236 0 -0.221407 1 -1 -2 192 192 192 255 0.294895 0.061667
0.894236 0 -0.061707 2 -2 3 192 192 192 255 0.327876 0.061667
0.894236 0 -0.221407 1 -1 -2 192 192 192 255 0.327876 0.061667
0.894236 3.4186 -0.221407 2 1.82663 -0.18549 192 192 192 255 0.327876 0.061667
0.894236 3.4186 -0.061707 1 3.30268 2.84589 192 192 192 255 0.327876 0.061667
-0.894236 0 -0.221407 -2 -2 -1 192 192 192 255 0.327876 0.061667
-0.894236 0 -0.061707 -1 -1 3 192 192 192 255 0.327876 0.061667
-0.894236 3.4186 -0.061707 -2 3.52131 3.53383 192 192 192 255 0.327876 0.061667
-0.894236 3.4186 -0.221407 -1 0.913314 -1.59274 192 192 192 255 0.327876 0.061667
-0.894236 0 -0.061707 -1 -1 3 192 192 192 255 0.359915 0.061667
0.894236 0 -0.061707 2 -2 3 192 192 192 255 0.359915 0.061667
0.894236 3.4186 -0.061707 1 3.30268 2.84589 192 192 192 255 0.359915 0.061667
0 3.4186 -0.061707 0 1 0 192 192 192 255 0.359915 0.061667
-0.894236 3.4186 -0.061707 -2 3.52131 3.53383 192 192 192 255 0.359915 0.061667
-0.571285 0.220283 -0.061707 -1 -2 3 192 192 192 255 0.135385 0.44194
0.571283 0.220283 -0.061707 3 -1 3 192 192 192 255 0.135385 0.44194
0.571283 0.220283 -0.061707 3 -1 3 192 192 192 255 0.17187 0.44194
0.571283 3.08644 -0.061707 1 2.69468 2.71932 192 192 192 255 0.17187 0.44194
0.571283 0.220283 0.158291 1 -2 4 192 192 192 255 0.17187 0.44194
0.571283 3.08644 -0.061707 1 2.69468 2.71932 192 192 192 255 0.232299 0.44194
-0.571285 3.08644 -0.061707 -3 2.38936 2.43864 192 192 192 255 0.232299 0.44194
0.571283 3.08644 0.158291 2 1 3 192 192 192 255 0.232299 0.44194
-0.571285 3.08644 -0.061707 -3 2.38936 2.43864 192 192 192 255 0.17187 0.44194
-0.571285 0.220283 -0.061707 -1 -2 3 192 192 192 255 0.17187 0.44194
-0.571285 0.220283 0.158291 -2 -1 3 192 192 192 255 0.17187 0.44194
-0.571285 3.08644 0.158291 -1 2 3 192 192 192 255 0.17187 0.44194
0.571283 0.220283 0.158291 1 -2 4 192 192 192 255 0.199234 0.44194
0.571283 2.51321 0.158291 2 0 4 192 192 192 255 0.199234 0.44194
0.057127 0.634359 0.158291 0 0 3 192 192 192 255 0.178397 0.061667
0.057127 2.51321 0.158291 0 0 8 192 192 192 255 0.178397 0.061667
-0.571285 0.220283 0.158291 -2 -1 3 192 192 192 255 0.199234 0.44194
-0.057129 0.634359 0.158291 0 0 5 192 192 192 255 0.199234 0.44194
-0.057129 2.51321 0.158291 0 0 5 192 192 192 255 0.199234 0.44194
-0.571285 2.51321 0.158291 -2 0 4 192 192 192 255 0.199234 0.44194
-0.571285 2.51321 0.158291 -2 0 4 192 192 192 255 0.178397 0.061667
-0.049881 2.57905 0.158291 0 0 4 192 192 192 255 0.178397 0.061667
-0.498825 2.57905 0.158291 0 0 6 192 192 192 255 0.178397 0.061667
0.049877 2.57905 0.158291 0 0 3 192 192 192 255 0.178397 0.061667
0.571283 2.51321 0.158291 2 0 4 192 192 192 255 0.178397 0.061667
0.498823 2.57905 0.158291 0 0 5 192 192 192 255 0.178397 0.061667
0.571283 3.08644 0.158291 2 1 3 192 192 192 255 0.178397 0.061667
0.498823 3.0206 0.158291 0 0 5 192 192 192 255 0.178397 0.061667
-0.571285 3.08644 0.158291 -1 2 3 192 192 192 255 0.178397 0.061667
-0.498825 3.0206 0.158291 0 0 4 192 192 192 255 0.178397 0.061667
0.057127 0.634359 0.158291 0 0 3 192 192 192 255 0.201603 0.446491
-0.057129 0.634359 0.158291 0 0 5 192 192 192 255 0.201603 0.446491
-0.571285 0.220283 0.158291 -2 -1 3 192 192 192 255 0.201603 0.446491
3 0 1 3 
3 0 3 2 
3 4 5 7 
3 4 7 6 
3 93 94 95 
3 93 95 96 
3 97 98 99 
3 97 99 100 
3 101 102 9 
3 101 9 8 
3 103 104 10 
3 103 10 105 
3 106 107 11 
3 106 11 108 
3 109 110 111 
3 109 111 112 
3 113 114 13 
3 113 13 12 
3 115 116 14 
3 115 14 117 
3 118 119 15 
3 118 15 120 
3 121 122 123 
3 121 123 124 
3 125 126 17 
3 125 17 16 
3 126 127 18 
3 126 18 17 
3 127 128 19 
3 127 19 18 
3 128 125 16 
3 128 16 19 
3 129 130 21 
3 129 21 20 
3 130 131 22 
3 130 22 21 
3 131 132 23 
3 131 23 22 
3 132 129 20 
3 132 20 23 
3 133 134 25 
3 133 25 24 
3 135 136 26 
3 135 26 137 
3 138 139 27 
3 138 27 140 
3 141 142 143 
3 141 143 144 
3 145 146 29 
3 145 29 28 
3 147 148 30 
3 147 30 149 
3 150 151 31 
3 150 31 152 
3 153 154 155 
3 153 155 156 
3 32 33 35 
3 32 35 34 
3 36 37 39 
3 36 39 38 
3 157 158 159 
3 157 159 160 
3 161 162 163 
3 161 163 164 
3 165 166 41 
3 165 41 40 
3 167 168 42 
3 167 42 169 
3 170 171 43 
3 170 43 172 
3 173 174 175 
3 173 175 176 
3 177 178 45 
3 177 45 44 
3 179 180 46 
3 179 46 181 
3 182 183 47 
3 182 47 184 
3 185 186 187 
3 185 187 188 
3 189 190 49 
3 189 49 48 
3 190 191 50 
3 190 50 49 
3 191 192 51 
3 191 51 50 
3 192 189 48 
3 192 48 51 
3 193 194 53 
3 193 53 52 
3 194 195 54 
3 194 54 53 
3 195 196 55 
3 195 55 54 
3 196 193 52 
3 196 52 55 
3 197 198 57 
3 197 57 56 
3 199 200 58 
3 199 58 201 
3 202 203 59 
3 202 59 204 
3 205 206 207 
3 205 207 208 
3 209 210 61 
3 209 61 60 
3 211 212 62 
3 211 62 213 
3 214 215 63 
3 214 63 216 
3 217 218 219 
3 217 219 220 
3 84 85 86 
3 84 86 87 
3 84 87 88 
3 84 88 89 
3 66 92 67 
3 66 67 69 
3 66 69 68 
3 221 222 71 
3 221 71 70 
3 223 224 65 
3 223 65 64 
3 225 226 227 
3 225 227 228 
3 229 230 231 
3 229 231 232 
3 233 234 73 
3 233 73 72 
3 234 235 74 
3 234 74 73 
3 235 236 237 
3 235 237 75 
3 235 75 74 
3 237 233 72 
3 237 72 75 
3 238 239 77 
3 238 77 76 
3 240 241 78 
3 240 78 81 
3 240 81 242 
3 243 244 79 
3 243 79 245 
3 246 247 248 
3 246 248 80 
3 246 80 249 
3 82 91 250 
3 82 250 251 
3 90 252 253 
3 90 253 83 
3 254 255 256 
3 254 256 257 
3 258 83 259 
3 258 259 260 
3 259 83 253 
3 259 253 261 
3 253 262 263 
3 253 263 261 
3 262 264 265 
3 262 265 263 
3 264 266 267 
3 264 267 265 
3 266 258 260 
3 266 260 267 
3 250 268 269 
3 250 269 270 
