ply
format ascii 1.0
comment VCGLIB generated
comment TextureFile SpaceInteriors_Texture.png
element vertex 148
property float x
property float y
property float z
property float nx
property float ny
property float nz
property uchar red
property uchar green
property uchar blue
property uchar alpha
property float texture_u
property float texture_v
element face 76
property list uchar int vertex_indices
end_header
2.61105 0 0.056828 1 -1 2 192 192 192 255 0.200168 0.061667
2.5 0 0.056828 -2 -2 1 192 192 192 255 0.200168 0.061667
2.61105 1.10643 0.056828 2 2 1 192 192 192 255 0.265187 0.061667
2.5 1.10643 0.056828 -1 1 2 192 192 192 255 0.265187 0.061667
2.61105 1.10643 -0.056831 1 1 -2 192 192 192 255 0.300052 0.061667
2.5 1.10643 -0.056831 -2 2 -1 192 192 192 255 0.300052 0.061667
2.61105 0 -0.056831 2 -2 -1 192 192 192 255 0.200168 0.061667
2.5 0 -0.056831 -1 -1 -2 192 192 192 255 0.200168 0.061667
2.61105 0.982952 0.056828 3 0 3 192 192 192 255 0.265187 0.061667
2.5 0.982952 0.056828 -3 0 3 192 192 192 255 0.265187 0.061667
2.5 0.982952 -0.056831 -3 0 -3 192 192 192 255 0.265187 0.061667
2.61105 0.982952 -0.056831 3 0 -3 192 192 192 255 0.265187 0.061667
2.61105 0.713224 0.056828 3 0 3 192 192 192 255 0.297688 0.21984
2.5 0.713224 0.056828 -3 0 3 192 192 192 255 0.297688 0.21984
2.5 0.713224 -0.056831 -3 0 -3 192 192 192 255 0.26565 0.21984
2.61105 0.713224 -0.056831 3 0 -3 192 192 192 255 0.297688 0.21984
0 0.747909 0.022636 0 -3 3 192 192 192 255 0.758268 0.541676
2.5 0.747909 0.022636 2 -2 1 192 192 192 255 0.978895 0.541676
0 0.96481 0.022636 0 3 3 192 192 192 255 0.758268 0.568434
2.5 0.96481 0.022636 1 1 2 192 192 192 255 0.978895 0.568434
0 0.96481 -0.02264 0 3 -3 192 192 192 255 0.453378 0.220239
2.5 0.96481 -0.02264 2 2 -1 192 192 192 255 0.453378 0.220239
0 0.747909 -0.02264 0 -3 -3 192 192 192 255 0.758268 0.541676
2.5 0.747909 -0.02264 1 -1 -2 192 192 192 255 0.978895 0.541676
-2.5 0.747909 0.022636 -1 -1 2 192 192 192 255 0.768389 0.541676
-2.5 0.96481 0.022636 -2 2 1 192 192 192 255 0.768389 0.568434
-2.5 0.96481 -0.02264 -1 1 -2 192 192 192 255 0.453378 0.220239
-2.5 0.747909 -0.02264 -2 -2 -1 192 192 192 255 0.768389 0.541676
-2.61105 0 0.056828 -1 -1 2 192 192 192 255 0.200168 0.061667
-2.5 0 0.056828 2 -2 1 192 192 192 255 0.200168 0.061667
-2.61105 1.10643 0.056828 -2 2 1 192 192 192 255 0.265187 0.061667
-2.5 1.10643 0.056828 1 1 2 192 192 192 255 0.265187 0.061667
-2.61105 1.10643 -0.056831 -1 1 -2 192 192 192 255 0.300052 0.061667
-2.5 1.10643 -0.056831 2 2 -1 192 192 192 255 0.300052 0.061667
-2.61105 0 -0.056831 -2 -2 -1 192 192 192 255 0.200168 0.061667
-2.5 0 -0.056831 1 -1 -2 192 192 192 255 0.200168 0.061667
-2.61105 0.982952 0.056828 -3 0 3 192 192 192 255 0.265187 0.061667
-2.5 0.982952 0.056828 3 0 3 192 192 192 255 0.265187 0.061667
-2.5 0.982952 -0.056831 3 0 -3 192 192 192 255 0.265187 0.061667
-2.61105 0.982952 -0.056831 -3 0 -3 192 192 192 255 0.265187 0.061667
-2.61105 0.713224 0.056828 -3 0 3 192 192 192 255 0.297688 0.21984
-2.5 0.713224 0.056828 3 0 3 192 192 192 255 0.297688 0.21984
-2.5 0.713224 -0.056831 3 0 -3 192 192 192 255 0.26565 0.21984
-2.61105 0.713224 -0.056831 -3 0 -3 192 192 192 255 0.297688 0.21984
2.61105 1.10643 0.056828 2 2 1 192 192 192 255 0.300052 0.061667
2.5 1.10643 0.056828 -1 1 2 192 192 192 255 0.300052 0.061667
2.61105 1.10643 -0.056831 1 1 -2 192 192 192 255 0.265187 0.061667
2.5 1.10643 -0.056831 -2 2 -1 192 192 192 255 0.265187 0.061667
2.5 0.982952 0.056828 -3 0 3 192 192 192 255 0.233148 0.061667
2.5 1.10643 0.056828 -1 1 2 192 192 192 255 0.233148 0.061667
2.5 1.10643 -0.056831 -2 2 -1 192 192 192 255 0.233148 0.061667
2.5 0.982952 -0.056831 -3 0 -3 192 192 192 255 0.233148 0.061667
2.61105 0.982952 -0.056831 3 0 -3 192 192 192 255 0.233148 0.061667
2.61105 1.10643 -0.056831 1 1 -2 192 192 192 255 0.233148 0.061667
2.61105 1.10643 0.056828 2 2 1 192 192 192 255 0.233148 0.061667
2.61105 0.982952 0.056828 3 0 3 192 192 192 255 0.233148 0.061667
2.61105 0.982952 0.056828 3 0 3 192 192 192 255 0.297688 0.21984
2.5 0.982952 0.056828 -3 0 3 192 192 192 255 0.297688 0.21984
2.5 0.713224 0.056828 -3 0 3 192 192 192 255 0.26565 0.21984
2.5 0.982952 0.056828 -3 0 3 192 192 192 255 0.26565 0.21984
2.5 0.982952 -0.056831 -3 0 -3 192 192 192 255 0.26565 0.21984
2.61105 0.982952 -0.056831 3 0 -3 192 192 192 255 0.297688 0.21984
2.5 0.713224 -0.056831 -3 0 -3 192 192 192 255 0.297688 0.21984
2.5 0.982952 -0.056831 -3 0 -3 192 192 192 255 0.297688 0.21984
2.61105 0.713224 -0.056831 3 0 -3 192 192 192 255 0.26565 0.21984
2.61105 0.982952 -0.056831 3 0 -3 192 192 192 255 0.26565 0.21984
2.61105 0.982952 0.056828 3 0 3 192 192 192 255 0.26565 0.21984
2.61105 0.713224 0.056828 3 0 3 192 192 192 255 0.26565 0.21984
2.61105 0 0.056828 1 -1 2 192 192 192 255 0.265187 0.061667
2.61105 0.713224 0.056828 3 0 3 192 192 192 255 0.265187 0.061667
2.5 0.713224 0.056828 -3 0 3 192 192 192 255 0.265187 0.061667
2.5 0 0.056828 -2 -2 1 192 192 192 255 0.265187 0.061667
2.5 0 0.056828 -2 -2 1 192 192 192 255 0.233148 0.061667
2.5 0.713224 0.056828 -3 0 3 192 192 192 255 0.233148 0.061667
2.5 0.713224 -0.056831 -3 0 -3 192 192 192 255 0.233148 0.061667
2.5 0 -0.056831 -1 -1 -2 192 192 192 255 0.233148 0.061667
2.61105 0.713224 -0.056831 3 0 -3 192 192 192 255 0.265187 0.061667
2.61105 0 -0.056831 2 -2 -1 192 192 192 255 0.265187 0.061667
2.5 0 -0.056831 -1 -1 -2 192 192 192 255 0.265187 0.061667
2.5 0.713224 -0.056831 -3 0 -3 192 192 192 255 0.265187 0.061667
2.61105 0 -0.056831 2 -2 -1 192 192 192 255 0.233148 0.061667
2.61105 0.713224 -0.056831 3 0 -3 192 192 192 255 0.233148 0.061667
2.61105 0.713224 0.056828 3 0 3 192 192 192 255 0.233148 0.061667
2.61105 0 0.056828 1 -1 2 192 192 192 255 0.233148 0.061667
0 0.96481 0.022636 0 3 3 192 192 192 255 0.453378 0.220239
2.5 0.96481 0.022636 1 1 2 192 192 192 255 0.453378 0.220239
0 0.96481 -0.02264 0 3 -3 192 192 192 255 0.758268 0.568434
2.5 0.96481 -0.02264 2 2 -1 192 192 192 255 0.978895 0.568434
0 0.747909 -0.02264 0 -3 -3 192 192 192 255 0.353493 0.220239
2.5 0.747909 -0.02264 1 -1 -2 192 192 192 255 0.353493 0.220239
2.5 0.747909 0.022636 2 -2 1 192 192 192 255 0.353493 0.220239
0 0.747909 0.022636 0 -3 3 192 192 192 255 0.353493 0.220239
2.5 0.747909 0.022636 2 -2 1 192 192 192 255 0.137811 0.061667
2.5 0.747909 -0.02264 1 -1 -2 192 192 192 255 0.137811 0.061667
2.5 0.96481 -0.02264 2 2 -1 192 192 192 255 0.137811 0.061667
2.5 0.96481 0.022636 1 1 2 192 192 192 255 0.137811 0.061667
0 0.747909 0.022636 0 -3 3 192 192 192 255 0.989017 0.541676
0 0.96481 0.022636 0 3 3 192 192 192 255 0.989017 0.568434
-2.5 0.96481 0.022636 -2 2 1 192 192 192 255 0.453378 0.220239
-2.5 0.96481 -0.02264 -1 1 -2 192 192 192 255 0.768389 0.568434
0 0.96481 -0.02264 0 3 -3 192 192 192 255 0.989017 0.568434
0 0.747909 -0.02264 0 -3 -3 192 192 192 255 0.989017 0.541676
-2.5 0.747909 -0.02264 -2 -2 -1 192 192 192 255 0.353493 0.220239
-2.5 0.747909 0.022636 -1 -1 2 192 192 192 255 0.353493 0.220239
-2.5 0.747909 -0.02264 -2 -2 -1 192 192 192 255 0.137811 0.061667
-2.5 0.747909 0.022636 -1 -1 2 192 192 192 255 0.137811 0.061667
-2.5 0.96481 0.022636 -2 2 1 192 192 192 255 0.137811 0.061667
-2.5 0.96481 -0.02264 -1 1 -2 192 192 192 255 0.137811 0.061667
-2.61105 1.10643 0.056828 -2 2 1 192 192 192 255 0.300052 0.061667
-2.5 1.10643 0.056828 1 1 2 192 192 192 255 0.300052 0.061667
-2.61105 1.10643 -0.056831 -1 1 -2 192 192 192 255 0.265187 0.061667
-2.5 1.10643 -0.056831 2 2 -1 192 192 192 255 0.265187 0.061667
-2.5 0.982952 0.056828 3 0 3 192 192 192 255 0.233148 0.061667
-2.5 0.982952 -0.056831 3 0 -3 192 192 192 255 0.233148 0.061667
-2.5 1.10643 -0.056831 2 2 -1 192 192 192 255 0.233148 0.061667
-2.5 1.10643 0.056828 1 1 2 192 192 192 255 0.233148 0.061667
-2.61105 0.982952 -0.056831 -3 0 -3 192 192 192 255 0.233148 0.061667
-2.61105 0.982952 0.056828 -3 0 3 192 192 192 255 0.233148 0.061667
-2.61105 1.10643 0.056828 -2 2 1 192 192 192 255 0.233148 0.061667
-2.61105 1.10643 -0.056831 -1 1 -2 192 192 192 255 0.233148 0.061667
-2.5 0.982952 0.056828 3 0 3 192 192 192 255 0.297688 0.21984
-2.61105 0.982952 0.056828 -3 0 3 192 192 192 255 0.297688 0.21984
-2.5 0.713224 0.056828 3 0 3 192 192 192 255 0.26565 0.21984
-2.5 0.982952 -0.056831 3 0 -3 192 192 192 255 0.26565 0.21984
-2.5 0.982952 0.056828 3 0 3 192 192 192 255 0.26565 0.21984
-2.61105 0.982952 -0.056831 -3 0 -3 192 192 192 255 0.297688 0.21984
-2.5 0.982952 -0.056831 3 0 -3 192 192 192 255 0.297688 0.21984
-2.5 0.713224 -0.056831 3 0 -3 192 192 192 255 0.297688 0.21984
-2.61105 0.713224 -0.056831 -3 0 -3 192 192 192 255 0.26565 0.21984
-2.61105 0.713224 0.056828 -3 0 3 192 192 192 255 0.26565 0.21984
-2.61105 0.982952 0.056828 -3 0 3 192 192 192 255 0.26565 0.21984
-2.61105 0.982952 -0.056831 -3 0 -3 192 192 192 255 0.26565 0.21984
-2.61105 0 0.056828 -1 -1 2 192 192 192 255 0.265187 0.061667
-2.5 0 0.056828 2 -2 1 192 192 192 255 0.265187 0.061667
-2.5 0.713224 0.056828 3 0 3 192 192 192 255 0.265187 0.061667
-2.61105 0.713224 0.056828 -3 0 3 192 192 192 255 0.265187 0.061667
-2.5 0 0.056828 2 -2 1 192 192 192 255 0.233148 0.061667
-2.5 0 -0.056831 1 -1 -2 192 192 192 255 0.233148 0.061667
-2.5 0.713224 -0.056831 3 0 -3 192 192 192 255 0.233148 0.061667
-2.5 0.713224 0.056828 3 0 3 192 192 192 255 0.233148 0.061667
-2.61105 0.713224 -0.056831 -3 0 -3 192 192 192 255 0.265187 0.061667
-2.5 0.713224 -0.056831 3 0 -3 192 192 192 255 0.265187 0.061667
-2.5 0 -0.056831 1 -1 -2 192 192 192 255 0.265187 0.061667
-2.61105 0 -0.056831 -2 -2 -1 192 192 192 255 0.265187 0.061667
-2.61105 0 -0.056831 -2 -2 -1 192 192 192 255 0.233148 0.061667
-2.61105 0 0.056828 -1 -1 2 192 192 192 255 0.233148 0.061667
-2.61105 0.713224 0.056828 -3 0 3 192 192 192 255 0.233148 0.061667
-2.61105 0.713224 -0.056831 -3 0 -3 192 192 192 255 0.233148 0.061667
3 8 2 3 
3 8 3 9 
3 44 4 5 
3 44 5 45 
3 46 11 10 
3 46 10 47 
3 6 0 1 
3 6 1 7 
3 48 49 50 
3 48 50 51 
3 52 53 54 
3 52 54 55 
3 12 56 57 
3 12 57 13 
3 58 59 60 
3 58 60 14 
3 61 15 62 
3 61 62 63 
3 64 65 66 
3 64 66 67 
3 68 69 70 
3 68 70 71 
3 72 73 74 
3 72 74 75 
3 76 77 78 
3 76 78 79 
3 80 81 82 
3 80 82 83 
3 16 17 19 
3 16 19 18 
3 84 85 21 
3 84 21 20 
3 86 87 23 
3 86 23 22 
3 88 89 90 
3 88 90 91 
3 92 93 94 
3 92 94 95 
3 24 96 97 
3 24 97 25 
3 98 84 20 
3 98 20 26 
3 99 100 101 
3 99 101 27 
3 102 88 91 
3 102 91 103 
3 104 105 106 
3 104 106 107 
3 36 37 31 
3 36 31 30 
3 108 109 33 
3 108 33 32 
3 110 111 38 
3 110 38 39 
3 34 35 29 
3 34 29 28 
3 112 113 114 
3 112 114 115 
3 116 117 118 
3 116 118 119 
3 40 41 120 
3 40 120 121 
3 122 42 123 
3 122 123 124 
3 125 126 127 
3 125 127 43 
3 128 129 130 
3 128 130 131 
3 132 133 134 
3 132 134 135 
3 136 137 138 
3 136 138 139 
3 140 141 142 
3 140 142 143 
3 144 145 146 
3 144 146 147 
