ply
format ascii 1.0
comment VCGLIB generated
comment TextureFile SpaceInteriors_Texture.png
element vertex 284
property float x
property float y
property float z
property float nx
property float ny
property float nz
property uchar red
property uchar green
property uchar blue
property uchar alpha
property float texture_u
property float texture_v
element face 170
property list uchar int vertex_indices
end_header
-0.615793 0.755785 0.452887 -0.873344 4.46131 1.74669 192 192 192 255 0.202035 0.44366
-0.500669 0.755785 0.452887 1.74675 4.46121 0.873344 192 192 192 255 0.232967 0.44366
-0.634531 1.07104 0.356061 -2 3.16107 0.0874761 192 192 192 255 0.230864 0.062866
-0.519099 1.07104 0.356061 1.00004 3.45093 1.04454 192 192 192 255 0.230864 0.062866
-0.634531 1.04835 0.281158 -1.00001 2.29147 -2.78376 192 192 192 255 0.199932 0.062866
-0.519099 1.04835 0.281158 2.00002 2.58132 -1.82671 192 192 192 255 0.230864 0.062866
-0.615793 0.755785 0.337763 -1.74669 4.46126 -0.873373 192 192 192 255 0.202035 0.44366
-0.500669 0.755785 0.337763 0.873373 4.46116 -1.74675 192 192 192 255 0.202035 0.44366
-0.613768 0.808742 0.339788 -2.42402 0.861181 -2.73348 192 192 192 255 0.240323 0.44366
-0.613768 0.808742 0.450862 -2.60243 0.939057 2.28298 192 192 192 255 0.240323 0.44366
-0.502693 0.808742 0.450862 2.42399 0.896271 2.43084 192 192 192 255 0.240323 0.44366
-0.502693 0.808742 0.339788 2.60242 0.868775 -2.48392 192 192 192 255 0.240323 0.44366
-0.528707 0.845862 0.414223 0.748525 -0.806553 2.22565 192 192 192 255 0.240323 0.44366
-0.587755 0.845862 0.414223 -1.49707 -0.849387 1.44656 192 192 192 255 0.240323 0.44366
-0.587755 0.828745 0.35771 -0.748538 -0.876925 -0.687333 192 192 192 255 0.240323 0.44366
-0.528707 0.828745 0.35771 1.49704 -0.884537 -0.00994223 192 192 192 255 0.240323 0.44366
-0.519099 1.02259 0.370734 2.88989 -0.503968 3.05714 192 192 192 255 0.199028 0.062866
-0.634531 1.02259 0.370734 -1.74389 -1.3757 3.4362 192 192 192 255 0.199028 0.062866
-0.634531 0.999904 0.295831 -2.37194 -2.56733 -2.12692 192 192 192 255 0.168096 0.062866
-0.519099 0.999904 0.295831 2.77977 -2.14745 -2.36913 192 192 192 255 0.199028 0.062866
-0.587755 0.984751 0.310459 -1.74389 -3.05108 -2.09545 192 192 192 255 0.168096 0.062866
-0.587755 1.00187 0.366972 -2.37194 -0.955765 3.19397 192 192 192 255 0.199028 0.062866
-0.528707 1.00187 0.366972 2.77977 -0.47206 3.16251 192 192 192 255 0.199028 0.062866
-0.528707 0.984751 0.310459 2.88989 -2.11554 -2.26375 192 192 192 255 0.199028 0.062866
-0.589528 1.06634 0.340549 -0.979989 4.59964 1.6485 192 192 192 255 0.2598 0.062866
-0.525526 1.06634 0.340549 1.95999 4.7901 1.59083 192 192 192 255 0.2598 0.062866
-0.525526 1.05082 0.289319 0.980037 2.65692 -2.88593 192 192 192 255 0.2598 0.062866
-0.589528 1.05082 0.289319 -1.95999 3.04978 -1.96434 192 192 192 255 0.2598 0.062866
-0.578876 1.11275 0.31284 -1.95997 3.83301 1.88069 192 192 192 255 0.2598 0.062866
-0.536178 1.11275 0.31284 0.979983 2.68546 2.22825 192 192 192 255 0.2598 0.062866
-0.536178 1.1024 0.278661 1.95999 2.09272 -1.67444 192 192 192 255 0.2598 0.062866
-0.578876 1.1024 0.278661 -0.979993 0.742788 -2.30618 192 192 192 255 0.2598 0.062866
-0.568171 1.07891 0.33304 2.06457e-005 2.56318 4.29303 192 192 192 255 0.265504 0.169691
-0.546883 1.07891 0.33304 -1.03229e-005 2.05058 3.43441 192 192 192 255 0.265504 0.169691
-0.546883 1.09743 0.321984 -2.06458e-005 2.56316 4.29304 192 192 192 255 0.265504 0.169691
-0.568171 1.09743 0.321984 1.03229e-005 2.05054 3.43443 192 192 192 255 0.265504 0.169691
-0.587755 0.844638 0.352896 -2 2.58133 -1.82667 192 192 192 255 0.199932 0.062866
-0.587755 0.861755 0.409409 -1 3.45094 1.04451 192 192 192 255 0.199932 0.062866
-0.528707 0.861755 0.409409 2 3.16108 0.0874635 192 192 192 255 0.230864 0.062866
-0.528707 0.844638 0.352896 1 2.29145 -2.78375 192 192 192 255 0.199932 0.062866
-0.599861 0.849371 0.425809 -1 -2.29141 2.78374 192 192 192 255 0.199932 0.062866
-0.599861 0.825236 0.346124 -2 -3.16109 -0.087458 192 192 192 255 0.199932 0.062866
-0.599861 0.865264 0.420995 -2 3.16109 0.0874576 192 192 192 255 0.199932 0.062866
-0.599861 0.841129 0.34131 -1 2.29141 -2.78374 192 192 192 255 0.199932 0.062866
-0.516601 0.849371 0.425809 2 -2.5813 1.82667 192 192 192 255 0.230864 0.062866
-0.516601 0.865264 0.420995 1 3.45098 1.0445 192 192 192 255 0.230864 0.062866
-0.516601 0.825236 0.346124 1 -3.45098 -1.0445 192 192 192 255 0.199932 0.062866
-0.516601 0.841129 0.34131 2 2.58131 -1.82666 192 192 192 255 0.199932 0.062866
-0.615105 0.782263 0.33845 -2.67707 -4.76837e-006 -2.67707 192 192 192 255 0.202035 0.44366
-0.615105 0.782263 0.4522 -2.67707 4.97103e-005 2.67698 192 192 192 255 0.202035 0.44366
-0.501356 0.782263 0.4522 2.67707 -5.91278e-005 2.67698 192 192 192 255 0.232967 0.44366
-0.501356 0.782263 0.33845 2.67707 -4.73857e-006 -2.67707 192 192 192 255 0.202035 0.44366
-0.508052 0.795502 0.445503 2.74625 0.228536 2.7116 192 192 192 255 0.232967 0.44366
-0.608409 0.795502 0.445503 -2.71166 0.228482 2.74622 192 192 192 255 0.202035 0.44366
-0.608409 0.795502 0.345146 -2.74625 0.228486 -2.71168 192 192 192 255 0.202035 0.44366
-0.508052 0.795502 0.345146 2.71166 0.228545 -2.7463 192 192 192 255 0.202035 0.44366
-0.608409 0.769024 0.345146 -2.65805 0.107206 -2.6391 192 192 192 255 0.141754 0.44366
-0.608409 0.769024 0.445503 -2.63904 0.1072 2.658 192 192 192 255 0.141754 0.44366
-0.508052 0.769024 0.445503 2.65808 0.107203 2.63902 192 192 192 255 0.172687 0.44366
-0.508052 0.769024 0.345146 2.6391 0.107155 -2.65808 192 192 192 255 0.141754 0.44366
-0.653639 0.755785 0.269035 -1 3 -2 192 192 192 255 0.265343 0.06
-0.462822 0.755785 0.269035 2 3 -1 192 192 192 255 0.265343 0.06
-0.462822 0.755785 0.521615 1 3 2 192 192 192 255 0.265343 0.06
-0.653639 0.755785 0.521615 -2 3 1 192 192 192 255 0.265343 0.06
-0.653639 0.602227 0.269035 -2 -2 -1 192 192 192 255 0.177277 0.06
-0.462822 0.602227 0.269035 1 -1 -2 192 192 192 255 0.177277 0.06
-0.462822 0.602227 0.521615 2 -2 1 192 192 192 255 0.177277 0.06
-0.653639 0.602227 0.521615 -1 -1 2 192 192 192 255 0.177277 0.06
-1 0 1 -2 0 3 192 192 192 255 0.237346 0.064882
0 0 1 2 0 3 192 192 192 255 0.237346 0.064882
-1 0.704394 1 -1 2 3 192 192 192 255 0.237346 0.064882
0 0.704394 1 1 1 3 192 192 192 255 0.992083 0.789385
-1 1 -1 -1 1 -2 192 192 192 255 0.268278 0.064882
0 1 -1 1 2 -1 192 192 192 255 0.268278 0.064882
-1 0 -1 -2 0 -1 192 192 192 255 0.268278 0.064882
0 0 -1 2 0 -2 192 192 192 255 0.268278 0.064882
-1 0 0 -3 0 0 192 192 192 255 0.237346 0.064882
-1 0.704394 0 -3 2.7942 0.883646 192 192 192 255 0.508027 0.880205
0 0.704394 0 4 2.8971 0.441823 192 192 192 255 0.751677 0.880205
0 0 0 2 0 0 192 192 192 255 0.237346 0.064882
0 1 -0.600215 3 2.7942 0.883646 192 192 192 255 0.751677 0.993889
-1 1 -0.600215 -4 2.8971 0.441823 192 192 192 255 0.508027 0.993889
-1 0 -0.600215 -2 0 0 192 192 192 255 0.237346 0.064882
0 0 -0.600215 3 0 0 192 192 192 255 0.237346 0.064882
-0.88929 0.222791 1 1 2 3 192 192 192 255 0.268278 0.064882
-0.11071 0.222791 1 -2 1 3 192 192 192 255 0.268278 0.064882
-0.11071 0.570678 1 -1 -2 3 192 192 192 255 0.268278 0.064882
-0.88929 0.570678 1 2 -1 3 192 192 192 255 0.268278 0.064882
-0.88929 0.222791 0.91279 2 1 2 192 192 192 255 0.509127 0.673526
-0.11071 0.222791 0.91279 -1 2 1 192 192 192 255 0.75032 0.673526
-0.11071 0.570678 0.91279 -2 -1 2 192 192 192 255 0.75032 0.746468
-0.88929 0.570678 0.91279 1 -2 1 192 192 192 255 0.509127 0.746468
-0.502693 0.808742 0.450862 2.42399 0.896271 2.43084 192 192 192 255 0.209391 0.44366
-0.502693 0.808742 0.339788 2.60242 0.868775 -2.48392 192 192 192 255 0.209391 0.44366
-0.528707 0.828745 0.35771 1.49704 -0.884537 -0.00994223 192 192 192 255 0.209391 0.44366
-0.528707 0.845862 0.414223 0.748525 -0.806553 2.22565 192 192 192 255 0.209391 0.44366
-0.613768 0.808742 0.339788 -2.42402 0.861181 -2.73348 192 192 192 255 0.209391 0.44366
-0.613768 0.808742 0.450862 -2.60243 0.939057 2.28298 192 192 192 255 0.209391 0.44366
-0.587755 0.845862 0.414223 -1.49707 -0.849387 1.44656 192 192 192 255 0.209391 0.44366
-0.587755 0.828745 0.35771 -0.748538 -0.876925 -0.687333 192 192 192 255 0.209391 0.44366
-0.615105 0.782263 0.4522 -2.67707 4.97103e-005 2.67698 192 192 192 255 0.232967 0.44366
-0.608409 0.795502 0.445503 -2.71166 0.228482 2.74622 192 192 192 255 0.232967 0.44366
-0.501356 0.782263 0.4522 2.67707 -5.91278e-005 2.67698 192 192 192 255 0.202035 0.44366
-0.508052 0.795502 0.445503 2.74625 0.228536 2.7116 192 192 192 255 0.202035 0.44366
-0.608409 0.795502 0.345146 -2.74625 0.228486 -2.71168 192 192 192 255 0.232967 0.44366
-0.508052 0.795502 0.345146 2.71166 0.228545 -2.7463 192 192 192 255 0.232967 0.44366
-0.501356 0.782263 0.33845 2.67707 -4.73857e-006 -2.67707 192 192 192 255 0.232967 0.44366
-0.615105 0.782263 0.33845 -2.67707 -4.76837e-006 -2.67707 192 192 192 255 0.232967 0.44366
-0.587755 1.00187 0.366972 -2.37194 -0.955765 3.19397 192 192 192 255 0.168096 0.062866
-0.634531 1.02259 0.370734 -1.74389 -1.3757 3.4362 192 192 192 255 0.168096 0.062866
-0.634531 0.999904 0.295831 -2.37194 -2.56733 -2.12692 192 192 192 255 0.199028 0.062866
-0.587755 0.984751 0.310459 -1.74389 -3.05108 -2.09545 192 192 192 255 0.199028 0.062866
-0.528707 1.00187 0.366972 2.77977 -0.47206 3.16251 192 192 192 255 0.168096 0.062866
-0.528707 0.984751 0.310459 2.88989 -2.11554 -2.26375 192 192 192 255 0.168096 0.062866
-0.519099 0.999904 0.295831 2.77977 -2.14745 -2.36913 192 192 192 255 0.168095 0.062866
-0.519099 1.02259 0.370734 2.88989 -0.503968 3.05714 192 192 192 255 0.168096 0.062866
-0.634531 1.02259 0.370734 -1.74389 -1.3757 3.4362 192 192 192 255 0.230864 0.062866
-0.519099 1.02259 0.370734 2.88989 -0.503968 3.05714 192 192 192 255 0.230864 0.062866
-0.634531 0.999904 0.295831 -2.37194 -2.56733 -2.12692 192 192 192 255 0.199932 0.062866
-0.634531 1.02259 0.370734 -1.74389 -1.3757 3.4362 192 192 192 255 0.199932 0.062866
-0.634531 1.07104 0.356061 -2 3.16107 0.0874761 192 192 192 255 0.199932 0.062866
-0.634531 1.04835 0.281158 -1.00001 2.29147 -2.78376 192 192 192 255 0.230864 0.062866
-0.519099 0.999904 0.295831 2.77977 -2.14745 -2.36913 192 192 192 255 0.230864 0.062866
-0.634531 0.999904 0.295831 -2.37194 -2.56733 -2.12692 192 192 192 255 0.230864 0.062866
-0.519099 1.02259 0.370734 2.88989 -0.503968 3.05714 192 192 192 255 0.199932 0.062866
-0.519099 0.999904 0.295831 2.77977 -2.14745 -2.36913 192 192 192 255 0.199932 0.062866
-0.519099 1.04835 0.281158 2.00002 2.58132 -1.82671 192 192 192 255 0.199932 0.062866
-0.519099 1.07104 0.356061 1.00004 3.45093 1.04454 192 192 192 255 0.199932 0.062866
-0.587755 1.00187 0.366972 -2.37194 -0.955765 3.19397 192 192 192 255 0.199932 0.062866
-0.587755 0.984751 0.310459 -1.74389 -3.05108 -2.09545 192 192 192 255 0.199932 0.062866
-0.587755 0.861755 0.409409 -1 3.45094 1.04451 192 192 192 255 0.230864 0.062866
-0.528707 1.00187 0.366972 2.77977 -0.47206 3.16251 192 192 192 255 0.230864 0.062866
-0.587755 1.00187 0.366972 -2.37194 -0.955765 3.19397 192 192 192 255 0.230864 0.062866
-0.528707 0.861755 0.409409 2 3.16108 0.0874635 192 192 192 255 0.199932 0.062866
-0.528707 0.984751 0.310459 2.88989 -2.11554 -2.26375 192 192 192 255 0.199932 0.062866
-0.528707 1.00187 0.366972 2.77977 -0.47206 3.16251 192 192 192 255 0.199932 0.062866
-0.587755 0.984751 0.310459 -1.74389 -3.05108 -2.09545 192 192 192 255 0.230864 0.062866
-0.528707 0.984751 0.310459 2.88989 -2.11554 -2.26375 192 192 192 255 0.230864 0.062866
-0.528707 0.844638 0.352896 1 2.29145 -2.78375 192 192 192 255 0.230864 0.062866
-0.587755 0.844638 0.352896 -2 2.58133 -1.82667 192 192 192 255 0.230864 0.062866
-0.634531 1.07104 0.356061 -2 3.16107 0.0874761 192 192 192 255 0.2598 0.062866
-0.519099 1.07104 0.356061 1.00004 3.45093 1.04454 192 192 192 255 0.2598 0.062866
-0.519099 1.04835 0.281158 2.00002 2.58132 -1.82671 192 192 192 255 0.2598 0.062866
-0.634531 1.04835 0.281158 -1.00001 2.29147 -2.78376 192 192 192 255 0.2598 0.062866
-0.525526 1.06634 0.340549 1.95999 4.7901 1.59083 192 192 192 255 0.198324 0.062866
-0.525526 1.05082 0.289319 0.980037 2.65692 -2.88593 192 192 192 255 0.198324 0.062866
-0.536178 1.1024 0.278661 1.95999 2.09272 -1.67444 192 192 192 255 0.198324 0.062866
-0.536178 1.11275 0.31284 0.979983 2.68546 2.22825 192 192 192 255 0.198324 0.062866
-0.525526 1.05082 0.289319 0.980037 2.65692 -2.88593 192 192 192 255 0.232356 0.062866
-0.589528 1.05082 0.289319 -1.95999 3.04978 -1.96434 192 192 192 255 0.232356 0.062866
-0.578876 1.1024 0.278661 -0.979993 0.742788 -2.30618 192 192 192 255 0.232356 0.062866
-0.536178 1.1024 0.278661 1.95999 2.09272 -1.67444 192 192 192 255 0.232356 0.062866
-0.589528 1.05082 0.289319 -1.95999 3.04978 -1.96434 192 192 192 255 0.198324 0.062866
-0.589528 1.06634 0.340549 -0.979989 4.59964 1.6485 192 192 192 255 0.198324 0.062866
-0.578876 1.11275 0.31284 -1.95997 3.83301 1.88069 192 192 192 255 0.198324 0.062866
-0.578876 1.1024 0.278661 -0.979993 0.742788 -2.30618 192 192 192 255 0.198324 0.062866
-0.589528 1.06634 0.340549 -0.979989 4.59964 1.6485 192 192 192 255 0.232356 0.062866
-0.525526 1.06634 0.340549 1.95999 4.7901 1.59083 192 192 192 255 0.232356 0.062866
-0.546883 1.07891 0.33304 -1.03229e-005 2.05058 3.43441 192 192 192 255 0.232356 0.062866
-0.568171 1.07891 0.33304 2.06457e-005 2.56318 4.29303 192 192 192 255 0.232356 0.062866
-0.536178 1.11275 0.31284 0.979983 2.68546 2.22825 192 192 192 255 0.232356 0.062866
-0.546883 1.09743 0.321984 -2.06458e-005 2.56316 4.29304 192 192 192 255 0.232356 0.062866
-0.578876 1.11275 0.31284 -1.95997 3.83301 1.88069 192 192 192 255 0.232356 0.062866
-0.568171 1.09743 0.321984 1.03229e-005 2.05054 3.43443 192 192 192 255 0.232356 0.062866
-0.599861 0.849371 0.425809 -1 -2.29141 2.78374 192 192 192 255 0.230864 0.062866
-0.599861 0.865264 0.420995 -2 3.16109 0.0874576 192 192 192 255 0.230864 0.062866
-0.516601 0.849371 0.425809 2 -2.5813 1.82667 192 192 192 255 0.199932 0.062866
-0.516601 0.865264 0.420995 1 3.45098 1.0445 192 192 192 255 0.199932 0.062866
-0.599861 0.841129 0.34131 -1 2.29141 -2.78374 192 192 192 255 0.230864 0.062866
-0.516601 0.841129 0.34131 2 2.58131 -1.82666 192 192 192 255 0.230864 0.062866
-0.516601 0.825236 0.346124 1 -3.45098 -1.0445 192 192 192 255 0.230864 0.062866
-0.599861 0.825236 0.346124 -2 -3.16109 -0.087458 192 192 192 255 0.230864 0.062866
-0.587755 0.828745 0.35771 -0.748538 -0.876925 -0.687333 192 192 192 255 0.173085 0.063085
-0.587755 0.845862 0.414223 -1.49707 -0.849387 1.44656 192 192 192 255 0.173085 0.063085
-0.599861 0.849371 0.425809 -1 -2.29141 2.78374 192 192 192 255 0.173085 0.063085
-0.599861 0.825236 0.346124 -2 -3.16109 -0.087458 192 192 192 255 0.173085 0.063085
-0.587755 0.861755 0.409409 -1 3.45094 1.04451 192 192 192 255 0.270356 0.063085
-0.587755 0.844638 0.352896 -2 2.58133 -1.82667 192 192 192 255 0.270356 0.063085
-0.599861 0.841129 0.34131 -1 2.29141 -2.78374 192 192 192 255 0.270356 0.063085
-0.599861 0.865264 0.420995 -2 3.16109 0.0874576 192 192 192 255 0.270356 0.063085
-0.528707 0.845862 0.414223 0.748525 -0.806553 2.22565 192 192 192 255 0.173085 0.063085
-0.516601 0.849371 0.425809 2 -2.5813 1.82667 192 192 192 255 0.173085 0.063085
-0.528707 0.861755 0.409409 2 3.16108 0.0874635 192 192 192 255 0.270356 0.063085
-0.516601 0.865264 0.420995 1 3.45098 1.0445 192 192 192 255 0.270356 0.063085
-0.528707 0.828745 0.35771 1.49704 -0.884537 -0.00994223 192 192 192 255 0.173085 0.063085
-0.516601 0.825236 0.346124 1 -3.45098 -1.0445 192 192 192 255 0.173085 0.063085
-0.528707 0.844638 0.352896 1 2.29145 -2.78375 192 192 192 255 0.270356 0.063085
-0.516601 0.841129 0.34131 2 2.58131 -1.82666 192 192 192 255 0.270356 0.063085
-0.615105 0.782263 0.4522 -2.67707 4.97103e-005 2.67698 192 192 192 255 0.141754 0.44366
-0.615105 0.782263 0.33845 -2.67707 -4.76837e-006 -2.67707 192 192 192 255 0.141754 0.44366
-0.608409 0.769024 0.445503 -2.63904 0.1072 2.658 192 192 192 255 0.172687 0.44366
-0.501356 0.782263 0.4522 2.67707 -5.91278e-005 2.67698 192 192 192 255 0.172687 0.44366
-0.615105 0.782263 0.4522 -2.67707 4.97103e-005 2.67698 192 192 192 255 0.172687 0.44366
-0.508052 0.769024 0.445503 2.65808 0.107203 2.63902 192 192 192 255 0.141754 0.44366
-0.501356 0.782263 0.33845 2.67707 -4.73857e-006 -2.67707 192 192 192 255 0.141754 0.44366
-0.501356 0.782263 0.4522 2.67707 -5.91278e-005 2.67698 192 192 192 255 0.141754 0.44366
-0.615105 0.782263 0.33845 -2.67707 -4.76837e-006 -2.67707 192 192 192 255 0.172687 0.44366
-0.501356 0.782263 0.33845 2.67707 -4.73857e-006 -2.67707 192 192 192 255 0.172687 0.44366
-0.508052 0.769024 0.345146 2.6391 0.107155 -2.65808 192 192 192 255 0.172687 0.44366
-0.608409 0.769024 0.345146 -2.65805 0.107206 -2.6391 192 192 192 255 0.172687 0.44366
-0.608409 0.795502 0.445503 -2.71166 0.228482 2.74622 192 192 192 255 0.172687 0.44366
-0.508052 0.795502 0.445503 2.74625 0.228536 2.7116 192 192 192 255 0.172687 0.44366
-0.502693 0.808742 0.450862 2.42399 0.896271 2.43084 192 192 192 255 0.172687 0.44366
-0.613768 0.808742 0.450862 -2.60243 0.939057 2.28298 192 192 192 255 0.172687 0.44366
-0.608409 0.795502 0.345146 -2.74625 0.228486 -2.71168 192 192 192 255 0.141754 0.44366
-0.608409 0.795502 0.445503 -2.71166 0.228482 2.74622 192 192 192 255 0.141754 0.44366
-0.613768 0.808742 0.450862 -2.60243 0.939057 2.28298 192 192 192 255 0.141754 0.44366
-0.613768 0.808742 0.339788 -2.42402 0.861181 -2.73348 192 192 192 255 0.141754 0.44366
-0.613768 0.808742 0.339788 -2.42402 0.861181 -2.73348 192 192 192 255 0.172687 0.44366
-0.502693 0.808742 0.339788 2.60242 0.868775 -2.48392 192 192 192 255 0.172687 0.44366
-0.508052 0.795502 0.345146 2.71166 0.228545 -2.7463 192 192 192 255 0.172687 0.44366
-0.608409 0.795502 0.345146 -2.74625 0.228486 -2.71168 192 192 192 255 0.172687 0.44366
-0.508052 0.795502 0.445503 2.74625 0.228536 2.7116 192 192 192 255 0.141754 0.44366
-0.508052 0.795502 0.345146 2.71166 0.228545 -2.7463 192 192 192 255 0.141754 0.44366
-0.502693 0.808742 0.339788 2.60242 0.868775 -2.48392 192 192 192 255 0.141754 0.44366
-0.502693 0.808742 0.450862 2.42399 0.896271 2.43084 192 192 192 255 0.141754 0.44366
-0.608409 0.769024 0.445503 -2.63904 0.1072 2.658 192 192 192 255 0.202035 0.44366
-0.608409 0.769024 0.345146 -2.65805 0.107206 -2.6391 192 192 192 255 0.202035 0.44366
-0.615793 0.755785 0.452887 -0.873344 4.46131 1.74669 192 192 192 255 0.232967 0.44366
-0.508052 0.769024 0.445503 2.65808 0.107203 2.63902 192 192 192 255 0.232967 0.44366
-0.608409 0.769024 0.445503 -2.63904 0.1072 2.658 192 192 192 255 0.232967 0.44366
-0.500669 0.755785 0.452887 1.74675 4.46121 0.873344 192 192 192 255 0.202035 0.44366
-0.508052 0.769024 0.345146 2.6391 0.107155 -2.65808 192 192 192 255 0.202035 0.44366
-0.508052 0.769024 0.445503 2.65808 0.107203 2.63902 192 192 192 255 0.202035 0.44366
-0.608409 0.769024 0.345146 -2.65805 0.107206 -2.6391 192 192 192 255 0.232967 0.44366
-0.508052 0.769024 0.345146 2.6391 0.107155 -2.65808 192 192 192 255 0.232967 0.44366
-0.500669 0.755785 0.337763 0.873373 4.46116 -1.74675 192 192 192 255 0.232967 0.44366
-0.615793 0.755785 0.337763 -1.74669 4.46126 -0.873373 192 192 192 255 0.232967 0.44366
-0.615793 0.755785 0.337763 -1.74669 4.46126 -0.873373 192 192 192 255 0.265343 0.06
-0.500669 0.755785 0.337763 0.873373 4.46116 -1.74675 192 192 192 255 0.265343 0.06
-0.500669 0.755785 0.452887 1.74675 4.46121 0.873344 192 192 192 255 0.265343 0.06
-0.615793 0.755785 0.452887 -0.873344 4.46131 1.74669 192 192 192 255 0.265343 0.06
-0.653639 0.755785 0.269035 -1 3 -2 192 192 192 255 0.236257 0.06
-0.462822 0.755785 0.269035 2 3 -1 192 192 192 255 0.236257 0.06
-0.462822 0.602227 0.269035 1 -1 -2 192 192 192 255 0.236257 0.06
-0.653639 0.602227 0.269035 -2 -2 -1 192 192 192 255 0.236257 0.06
-0.462822 0.755785 0.269035 2 3 -1 192 192 192 255 0.207979 0.06
-0.462822 0.755785 0.521615 1 3 2 192 192 192 255 0.207979 0.06
-0.462822 0.602227 0.521615 2 -2 1 192 192 192 255 0.207979 0.06
-0.462822 0.602227 0.269035 1 -1 -2 192 192 192 255 0.207979 0.06
-0.462822 0.755785 0.521615 1 3 2 192 192 192 255 0.236257 0.06
-0.653639 0.755785 0.521615 -2 3 1 192 192 192 255 0.236257 0.06
-0.653639 0.602227 0.521615 -1 -1 2 192 192 192 255 0.236257 0.06
-0.462822 0.602227 0.521615 2 -2 1 192 192 192 255 0.236257 0.06
-0.653639 0.755785 0.521615 -2 3 1 192 192 192 255 0.207979 0.06
-0.653639 0.755785 0.269035 -1 3 -2 192 192 192 255 0.207979 0.06
-0.653639 0.602227 0.269035 -2 -2 -1 192 192 192 255 0.207979 0.06
-0.653639 0.602227 0.521615 -1 -1 2 192 192 192 255 0.207979 0.06
0 0.704394 0 4 2.8971 0.441823 192 192 192 255 0.237346 0.064882
0 1 -0.600215 3 2.7942 0.883646 192 192 192 255 0.237346 0.064882
-1 1 -0.600215 -4 2.8971 0.441823 192 192 192 255 0.237346 0.064882
-1 0.704394 0 -3 2.7942 0.883646 192 192 192 255 0.237346 0.064882
-1 0.704394 1 -1 2 3 192 192 192 255 0.749867 0.789385
0 0.704394 0 4 2.8971 0.441823 192 192 192 255 0.992083 0.993949
-1 0.704394 0 -3 2.7942 0.883646 192 192 192 255 0.749867 0.993949
0 0.704394 1 1 1 3 192 192 192 255 0.237346 0.064882
-1 1 -0.600215 -4 2.8971 0.441823 192 192 192 255 0.750601 0.704327
0 1 -0.600215 3 2.7942 0.883646 192 192 192 255 0.990486 0.704327
0 1 -1 1 2 -1 192 192 192 255 0.990486 0.791017
-1 1 -1 -1 1 -2 192 192 192 255 0.750601 0.791017
-1 0 -1 -2 0 -1 192 192 192 255 0.237346 0.064882
-1 1 -1 -1 1 -2 192 192 192 255 0.237346 0.064882
0 0 -1 2 0 -2 192 192 192 255 0.237346 0.064882
0 1 -1 1 2 -1 192 192 192 255 0.237346 0.064882
-1 0 1 -2 0 3 192 192 192 255 0.268278 0.064882
0 0 1 2 0 3 192 192 192 255 0.268278 0.064882
0 0.704394 1 1 1 3 192 192 192 255 0.268278 0.064882
-1 0.704394 1 -1 2 3 192 192 192 255 0.268278 0.064882
-0.88929 0.222791 1 1 2 3 192 192 192 255 0.301813 0.064882
-0.11071 0.222791 1 -2 1 3 192 192 192 255 0.301813 0.064882
-0.11071 0.222791 0.91279 -1 2 1 192 192 192 255 0.301813 0.064882
-0.88929 0.222791 0.91279 2 1 2 192 192 192 255 0.301813 0.064882
-0.11071 0.222791 1 -2 1 3 192 192 192 255 0.234743 0.064882
-0.11071 0.570678 1 -1 -2 3 192 192 192 255 0.234743 0.064882
-0.11071 0.570678 0.91279 -2 -1 2 192 192 192 255 0.234743 0.064882
-0.11071 0.222791 0.91279 -1 2 1 192 192 192 255 0.234743 0.064882
-0.11071 0.570678 1 -1 -2 3 192 192 192 255 0.199155 0.064882
-0.88929 0.570678 1 2 -1 3 192 192 192 255 0.199155 0.064882
-0.88929 0.570678 0.91279 1 -2 1 192 192 192 255 0.199155 0.064882
-0.11071 0.570678 0.91279 -2 -1 2 192 192 192 255 0.199155 0.064882
-0.88929 0.570678 1 2 -1 3 192 192 192 255 0.234743 0.064882
-0.88929 0.222791 1 1 2 3 192 192 192 255 0.234743 0.064882
-0.88929 0.222791 0.91279 2 1 2 192 192 192 255 0.234743 0.064882
-0.88929 0.570678 0.91279 1 -2 1 192 192 192 255 0.234743 0.064882
3 9 10 12 
3 9 12 13 
3 28 29 30 
3 28 30 31 
3 14 15 11 
3 14 11 8 
3 64 65 66 
3 64 66 67 
3 92 93 94 
3 92 94 95 
3 96 97 98 
3 96 98 99 
3 48 49 53 
3 48 53 54 
3 100 50 52 
3 100 52 101 
3 102 51 55 
3 102 55 103 
3 104 105 106 
3 104 106 107 
3 21 22 16 
3 21 16 17 
3 20 108 109 
3 20 109 18 
3 110 19 23 
3 110 23 111 
3 112 113 114 
3 112 114 115 
3 116 117 3 
3 116 3 2 
3 118 119 120 
3 118 120 4 
3 121 5 122 
3 121 122 123 
3 124 125 126 
3 124 126 127 
3 36 37 128 
3 36 128 129 
3 130 38 131 
3 130 131 132 
3 133 39 134 
3 133 134 135 
3 136 137 138 
3 136 138 139 
3 140 141 25 
3 140 25 24 
3 141 142 26 
3 141 26 25 
3 142 143 27 
3 142 27 26 
3 143 140 24 
3 143 24 27 
3 32 33 34 
3 32 34 35 
3 144 145 146 
3 144 146 147 
3 148 149 150 
3 148 150 151 
3 152 153 154 
3 152 154 155 
3 156 157 158 
3 156 158 159 
3 157 160 161 
3 157 161 158 
3 160 162 163 
3 160 163 161 
3 162 156 159 
3 162 159 163 
3 41 40 42 
3 41 42 43 
3 164 44 45 
3 164 45 165 
3 166 46 47 
3 166 47 167 
3 168 169 170 
3 168 170 171 
3 172 173 174 
3 172 174 175 
3 176 177 178 
3 176 178 179 
3 173 180 181 
3 173 181 174 
3 182 176 179 
3 182 179 183 
3 180 184 185 
3 180 185 181 
3 186 182 183 
3 186 183 187 
3 177 186 187 
3 177 187 178 
3 184 172 175 
3 184 175 185 
3 56 57 188 
3 56 188 189 
3 190 58 191 
3 190 191 192 
3 193 59 194 
3 193 194 195 
3 196 197 198 
3 196 198 199 
3 200 201 202 
3 200 202 203 
3 204 205 206 
3 204 206 207 
3 208 209 210 
3 208 210 211 
3 212 213 214 
3 212 214 215 
3 6 0 216 
3 6 216 217 
3 218 1 219 
3 218 219 220 
3 221 7 222 
3 221 222 223 
3 224 225 226 
3 224 226 227 
3 228 229 61 
3 228 61 60 
3 229 230 62 
3 229 62 61 
3 230 231 63 
3 230 63 62 
3 231 228 60 
3 231 60 63 
3 232 233 234 
3 232 234 235 
3 236 237 238 
3 236 238 239 
3 240 241 242 
3 240 242 243 
3 244 245 246 
3 244 246 247 
3 88 89 90 
3 88 90 91 
3 77 78 80 
3 77 80 81 
3 72 73 75 
3 72 75 74 
3 248 79 83 
3 248 83 249 
3 250 82 76 
3 250 76 251 
3 251 76 68 
3 251 68 70 
3 252 71 253 
3 252 253 254 
3 69 79 248 
3 69 248 255 
3 256 257 258 
3 256 258 259 
3 260 82 250 
3 260 250 261 
3 249 83 262 
3 249 262 263 
3 264 265 85 
3 264 85 84 
3 265 266 86 
3 265 86 85 
3 266 267 87 
3 266 87 86 
3 267 264 84 
3 267 84 87 
3 268 269 270 
3 268 270 271 
3 272 273 274 
3 272 274 275 
3 276 277 278 
3 276 278 279 
3 280 281 282 
3 280 282 283 
