ply
format ascii 1.0
comment VCGLIB generated
comment TextureFile SpaceInteriors_Texture.png
element vertex 390
property float x
property float y
property float z
property float nx
property float ny
property float nz
property uchar red
property uchar green
property uchar blue
property uchar alpha
property float texture_u
property float texture_v
element face 216
property list uchar int vertex_indices
end_header
-0.564344 1.39505 -0.342151 -2 -1 -1 192 192 192 255 0.176699 0.200503
-0.564344 1.39505 0.198033 -1 -2 2 192 192 192 255 0.176699 0.200503
-0.564344 1.46004 -0.342151 -1 2 -2 192 192 192 255 0.176699 0.200503
-0.564344 1.46004 0.198033 -2 1 1 192 192 192 255 0.176699 0.200503
-0.419529 1.46004 -0.342151 2 1 -1 192 192 192 255 0.234972 0.200503
-0.419529 1.46004 0.198033 1 2 2 192 192 192 255 0.234972 0.200503
-0.419529 1.39505 -0.342151 1 -2 -2 192 192 192 255 0.176699 0.200503
-0.419529 1.39505 0.198033 2 -1 1 192 192 192 255 0.176699 0.200503
0.419529 1.39505 -0.342151 -2 -1 -1 192 192 192 255 0.176699 0.200503
0.419529 1.39505 0.198033 -1 -2 2 192 192 192 255 0.176699 0.200503
0.419529 1.46004 -0.342151 -1 2 -2 192 192 192 255 0.176699 0.200503
0.419529 1.46004 0.198033 -2 1 1 192 192 192 255 0.176699 0.200503
0.564344 1.46004 -0.342151 2 1 -1 192 192 192 255 0.234972 0.200503
0.564344 1.46004 0.198033 1 2 2 192 192 192 255 0.234972 0.200503
0.564344 1.39505 -0.342151 1 -2 -2 192 192 192 255 0.176699 0.200503
0.564344 1.39505 0.198033 2 -1 1 192 192 192 255 0.176699 0.200503
-0.078846 0.238665 -0.080302 -2 -1 -1 192 192 192 255 0.139883 0.062038
-0.078846 0.238665 0.077388 -1 -2 2 192 192 192 255 0.139883 0.062038
0.078846 0.238665 -0.080302 1 -2 -2 192 192 192 255 0.139883 0.062038
0.078846 0.238665 0.077388 2 -1 1 192 192 192 255 0.139883 0.062038
-0.078846 0.629048 -0.080302 -1 3 -2 192 192 192 255 0.177709 0.062038
-0.078846 0.629048 0.077388 -2 3 1 192 192 192 255 0.177709 0.062038
0.078846 0.629048 0.077388 1 3 2 192 192 192 255 0.202245 0.062038
0.078846 0.629048 -0.080302 2 3 -1 192 192 192 255 0.177709 0.062038
-0.052572 0.629048 -0.05403 -2 3 -1 192 192 192 255 0.177709 0.062038
-0.052572 0.629048 0.051116 -1 3 2 192 192 192 255 0.177709 0.062038
-0.052572 0.990586 0.051116 -2 1 1 192 192 192 255 0.177709 0.062038
-0.052572 0.990586 -0.05403 -1 2 -2 192 192 192 255 0.177709 0.062038
0.052572 0.990586 0.051116 1 2 2 192 192 192 255 0.235982 0.062038
0.052572 0.990586 -0.05403 2 1 -1 192 192 192 255 0.235982 0.062038
0.052572 0.629048 0.051116 2 3 1 192 192 192 255 0.177709 0.062038
0.052572 0.629048 -0.05403 1 3 -2 192 192 192 255 0.177709 0.062038
-0.433332 0.981786 -0.441855 -3.99772 -1.06684 -1.03635 192 192 192 255 0.14439 0.20057
-0.433332 0.981786 0.424809 -1 -2 2 192 192 192 255 0.14439 0.20057
-0.433332 1.148 0.424809 -2 2 1 192 192 192 255 0.14439 0.20057
0.433332 0.981786 -0.441855 2.99886 -2.25788 -2.00129 192 192 192 255 0.14439 0.20057
0.433332 1.148 0.424809 2 1 2 192 192 192 255 0.202663 0.20057
0.433332 0.981786 0.424809 1 -1 1 192 192 192 255 0.14439 0.20057
-0.308084 1.96832 -0.569092 -1.76013 1.92341 -1.13071 192 192 192 255 0.168926 0.20057
-0.308084 1.97931 -0.405839 -0.880067 2.51304 1.83331 192 192 192 255 0.168926 0.20057
-0.433332 1.148 -0.29693 -1.99886 1.35576 1.95133 192 192 192 255 0.14439 0.20057
0.308084 1.97931 -0.405839 1.76013 1.96719 0.868814 192 192 192 255 0.168926 0.20057
0.433332 1.148 -0.29693 2.99772 2.23998 0.939959 192 192 192 255 0.202663 0.20057
0.308084 1.96832 -0.569092 0.880067 2.42548 -2.16574 192 192 192 255 0.168926 0.20057
0.4 1.80882 -0.402106 1.87893 0.873322 3.91896 192 192 192 255 0.202663 0.20057
-0.4 1.80882 -0.402106 -3.75785 1.20943 1.87593 192 192 192 255 0.14439 0.20057
-0.4 1.79783 -0.565359 -1.87893 0.172116 -4.0327 192 192 192 255 0.14439 0.20057
0.4 1.79783 -0.565359 3.75785 0.858826 -2.0999 192 192 192 255 0.14439 0.20057
0.589891 0.099516 0.044641 1.67303 -1.48358 1 192 192 192 255 0.174817 0.060592
0.589891 0.099516 -0.052153 0.448285 -2.19068 -2 192 192 192 255 0.174817 0.060592
0.613855 0.188947 0.044641 1.48356 1.67302 2 192 192 192 255 0.174817 0.060592
0.613855 0.188947 -0.052153 2.19066 0.448267 -1 192 192 192 255 0.174817 0.060592
0.067984 0.335212 0.044641 -1.67304 1.48354 1 192 192 192 255 0.23309 0.060592
0.067984 0.335212 -0.052153 -0.448293 2.19066 -2 192 192 192 255 0.23309 0.060592
0.044022 0.245781 0.044641 -1.48357 -1.67304 2 192 192 192 255 0.174817 0.060592
0.044022 0.245781 -0.052153 -2.19068 -0.448307 -1 192 192 192 255 0.174817 0.060592
0.619415 0 0.061977 2 -1 1 192 192 192 255 0.170696 0.062799
0.619415 0 -0.061976 1 -2 -2 192 192 192 255 0.170696 0.062799
0.619415 0.142195 0.061977 1 2 2 192 192 192 255 0.170696 0.062799
0.619415 0.142195 -0.061976 2 1 -1 192 192 192 255 0.170696 0.062799
0.477221 0.142195 0.061977 -2 1 1 192 192 192 255 0.228969 0.062799
0.477221 0.142195 -0.061976 -1 2 -2 192 192 192 255 0.228969 0.062799
0.477221 0 0.061977 -1 -2 2 192 192 192 255 0.170696 0.062799
0.477221 0 -0.061976 -2 -1 -1 192 192 192 255 0.170696 0.062799
-0.589891 0.099516 -0.04464 -1.67303 -1.48358 -1 192 192 192 255 0.174817 0.060592
-0.589891 0.099516 0.052153 -0.448286 -2.19068 2 192 192 192 255 0.174817 0.060592
-0.613855 0.188947 -0.04464 -1.48356 1.67302 -2 192 192 192 255 0.174817 0.060592
-0.613855 0.188947 0.052153 -2.19066 0.448267 1 192 192 192 255 0.174817 0.060592
-0.067984 0.335212 -0.04464 1.67304 1.48354 -1 192 192 192 255 0.23309 0.060592
-0.067984 0.335212 0.052153 0.448293 2.19066 2 192 192 192 255 0.23309 0.060592
-0.044022 0.245781 -0.04464 1.48357 -1.67304 -2 192 192 192 255 0.174817 0.060592
-0.044022 0.245781 0.052153 2.19068 -0.448307 1 192 192 192 255 0.174817 0.060592
-0.619415 0 -0.061976 -2 -1 -1 192 192 192 255 0.170696 0.062799
-0.619415 0 0.061977 -1 -2 2 192 192 192 255 0.170696 0.062799
-0.619415 0.142195 -0.061976 -1 2 -2 192 192 192 255 0.170696 0.062799
-0.619415 0.142195 0.061977 -2 1 1 192 192 192 255 0.170696 0.062799
-0.477221 0.142195 -0.061976 2 1 -1 192 192 192 255 0.228969 0.062799
-0.477221 0.142195 0.061977 1 2 2 192 192 192 255 0.228969 0.062799
-0.477221 0 -0.061976 1 -2 -2 192 192 192 255 0.170696 0.062799
-0.477221 0 0.061977 2 -1 1 192 192 192 255 0.170696 0.062799
0.044641 0.099516 -0.589891 1 -1.48356 -1.67303 192 192 192 255 0.174817 0.060592
-0.052153 0.099516 -0.589891 -2 -2.19067 -0.448288 192 192 192 255 0.174817 0.060592
0.044641 0.188947 -0.613854 2 1.67303 -1.48356 192 192 192 255 0.174817 0.060592
-0.052153 0.188947 -0.613854 -1 0.448288 -2.19067 192 192 192 255 0.174817 0.060592
0.044641 0.335212 -0.067985 1 1.48356 1.67303 192 192 192 255 0.23309 0.060592
-0.052153 0.335212 -0.067985 -2 2.19067 0.448288 192 192 192 255 0.23309 0.060592
0.044641 0.245781 -0.044022 2 -1.67303 1.48356 192 192 192 255 0.174817 0.060592
-0.052153 0.245781 -0.044022 -1 -0.448287 2.19067 192 192 192 255 0.174817 0.060592
0.061975 0 -0.619415 1 -1 -2 192 192 192 255 0.170696 0.062799
-0.061975 0 -0.619415 -2 -2 -1 192 192 192 255 0.170696 0.062799
0.061975 0.142195 -0.619415 2 2 -1 192 192 192 255 0.170696 0.062799
-0.061975 0.142195 -0.619415 -1 1 -2 192 192 192 255 0.170696 0.062799
0.061975 0.142195 -0.477221 1 1 2 192 192 192 255 0.228969 0.062799
-0.061975 0.142195 -0.477221 -2 2 1 192 192 192 255 0.228969 0.062799
0.061975 0 -0.477221 2 -2 1 192 192 192 255 0.170696 0.062799
-0.061975 0 -0.477221 -1 -1 2 192 192 192 255 0.170696 0.062799
-0.044641 0.099516 0.589891 -1 -1.48356 1.67303 192 192 192 255 0.174817 0.060592
0.052153 0.099516 0.589891 2 -2.19067 0.448288 192 192 192 255 0.174817 0.060592
-0.044641 0.188947 0.613854 -2 1.67303 1.48356 192 192 192 255 0.174817 0.060592
0.052153 0.188947 0.613854 1 0.448288 2.19067 192 192 192 255 0.174817 0.060592
-0.044641 0.335212 0.067985 -1 1.48356 -1.67303 192 192 192 255 0.23309 0.060592
0.052153 0.335212 0.067985 2 2.19067 -0.448288 192 192 192 255 0.23309 0.060592
-0.044641 0.245781 0.044022 -2 -1.67303 -1.48356 192 192 192 255 0.174817 0.060592
0.052153 0.245781 0.044022 1 -0.448287 -2.19067 192 192 192 255 0.174817 0.060592
-0.061977 0 0.619415 -1 -1 2 192 192 192 255 0.170696 0.062799
0.061975 0 0.619415 2 -2 1 192 192 192 255 0.170696 0.062799
-0.061977 0.142195 0.619415 -2 2 1 192 192 192 255 0.170696 0.062799
0.061975 0.142195 0.619415 1 1 2 192 192 192 255 0.170696 0.062799
-0.061977 0.142195 0.47722 -1 1 -2 192 192 192 255 0.228969 0.062799
0.061975 0.142195 0.47722 2 2 -1 192 192 192 255 0.228969 0.062799
-0.061977 0 0.47722 -2 -2 -1 192 192 192 255 0.170696 0.062799
0.061975 0 0.47722 1 -1 -2 192 192 192 255 0.170696 0.062799
0.433439 1.06654 -0.350993 -1 -0.721242 -1.98048 192 192 192 255 0.198679 0.062606
0.499973 1.06654 -0.350993 2 -1.86062 -0.990239 192 192 192 255 0.198679 0.062606
0.499973 1.42164 0.156997 1 1.43243 0.823327 192 192 192 255 0.291601 0.062606
0.499973 1.42164 -0.301012 3 1.27876 -1.98048 192 192 192 255 0.291601 0.062606
0.433439 1.42164 0.156997 -2 -0.135134 1.64665 192 192 192 255 0.291601 0.062606
0.433439 1.42164 -0.301012 -3 2.13938 -0.990239 192 192 192 255 0.291601 0.062606
0.499973 1.06654 -0.254005 1 -1.01519 0.999885 192 192 192 255 0.232415 0.062606
0.499973 1.34727 -0.249741 3 -2.03038 1.99977 192 192 192 255 0.232415 0.062606
0.499973 1.34727 0.105726 2 -2.13513 1.64665 192 192 192 255 0.232415 0.062606
0.433439 1.34727 0.105726 -1 -2.56757 0.823327 192 192 192 255 0.136317 0.062606
0.433439 1.34727 -0.249741 -3 -1.01519 0.999885 192 192 192 255 0.136317 0.062606
0.433439 1.06654 -0.254005 -2 -2.03038 1.99977 192 192 192 255 0.136317 0.062606
-0.433439 1.06654 -0.350993 2 -1.86062 -0.990239 192 192 192 255 0.198679 0.062606
-0.499973 1.06654 -0.350993 -1 -0.721242 -1.98048 192 192 192 255 0.198679 0.062606
-0.499973 1.42164 -0.301012 -3 2.13938 -0.990239 192 192 192 255 0.291601 0.062606
-0.499973 1.42164 0.156997 -2 -0.135134 1.64665 192 192 192 255 0.291601 0.062606
-0.433439 1.42164 -0.301012 3 1.27876 -1.98048 192 192 192 255 0.291601 0.062606
-0.433439 1.42164 0.156997 1 1.43243 0.823327 192 192 192 255 0.291601 0.062606
-0.499973 1.06654 -0.254006 -2 -2.01519 0.999885 192 192 192 255 0.232415 0.062606
-0.499973 1.34727 0.105726 -1 -2.56757 0.823327 192 192 192 255 0.232415 0.062606
-0.499973 1.34727 -0.249741 -3 -1.03038 1.99977 192 192 192 255 0.232415 0.062606
-0.433439 1.34727 -0.249741 3 -2.01519 0.999885 192 192 192 255 0.136317 0.062606
-0.433439 1.34727 0.105726 2 -2.13513 1.64665 192 192 192 255 0.136317 0.062606
-0.433439 1.06654 -0.254006 1 -1.03038 1.99977 192 192 192 255 0.136317 0.062606
-0.564344 1.46004 -0.342151 -1 2 -2 192 192 192 255 0.234972 0.200503
-0.564344 1.46004 0.198033 -2 1 1 192 192 192 255 0.234972 0.200503
-0.419529 1.46004 -0.342151 2 1 -1 192 192 192 255 0.176699 0.200503
-0.419529 1.46004 0.198033 1 2 2 192 192 192 255 0.176699 0.200503
-0.419529 1.39505 -0.342151 1 -2 -2 192 192 192 255 0.138873 0.200503
-0.419529 1.39505 0.198033 2 -1 1 192 192 192 255 0.138873 0.200503
-0.564344 1.39505 0.198033 -1 -2 2 192 192 192 255 0.138873 0.200503
-0.564344 1.39505 -0.342151 -2 -1 -1 192 192 192 255 0.138873 0.200503
-0.564344 1.39505 0.198033 -1 -2 2 192 192 192 255 0.201235 0.200503
-0.419529 1.39505 0.198033 2 -1 1 192 192 192 255 0.201235 0.200503
-0.419529 1.46004 0.198033 1 2 2 192 192 192 255 0.201235 0.200503
-0.564344 1.46004 0.198033 -2 1 1 192 192 192 255 0.201235 0.200503
-0.419529 1.39505 -0.342151 1 -2 -2 192 192 192 255 0.201235 0.200503
-0.564344 1.39505 -0.342151 -2 -1 -1 192 192 192 255 0.201235 0.200503
-0.564344 1.46004 -0.342151 -1 2 -2 192 192 192 255 0.201235 0.200503
-0.419529 1.46004 -0.342151 2 1 -1 192 192 192 255 0.201235 0.200503
0.419529 1.46004 -0.342151 -1 2 -2 192 192 192 255 0.234972 0.200503
0.419529 1.46004 0.198033 -2 1 1 192 192 192 255 0.234972 0.200503
0.564344 1.46004 -0.342151 2 1 -1 192 192 192 255 0.176699 0.200503
0.564344 1.46004 0.198033 1 2 2 192 192 192 255 0.176699 0.200503
0.564344 1.39505 -0.342151 1 -2 -2 192 192 192 255 0.138873 0.200503
0.564344 1.39505 0.198033 2 -1 1 192 192 192 255 0.138873 0.200503
0.419529 1.39505 0.198033 -1 -2 2 192 192 192 255 0.138873 0.200503
0.419529 1.39505 -0.342151 -2 -1 -1 192 192 192 255 0.138873 0.200503
0.419529 1.39505 0.198033 -1 -2 2 192 192 192 255 0.201235 0.200503
0.564344 1.39505 0.198033 2 -1 1 192 192 192 255 0.201235 0.200503
0.564344 1.46004 0.198033 1 2 2 192 192 192 255 0.201235 0.200503
0.419529 1.46004 0.198033 -2 1 1 192 192 192 255 0.201235 0.200503
0.564344 1.39505 -0.342151 1 -2 -2 192 192 192 255 0.201235 0.200503
0.419529 1.39505 -0.342151 -2 -1 -1 192 192 192 255 0.201235 0.200503
0.419529 1.46004 -0.342151 -1 2 -2 192 192 192 255 0.201235 0.200503
0.564344 1.46004 -0.342151 2 1 -1 192 192 192 255 0.201235 0.200503
-0.052572 0.990586 -0.05403 -1 2 -2 192 192 192 255 0.235982 0.062038
-0.052572 0.990586 0.051116 -2 1 1 192 192 192 255 0.235982 0.062038
0.052572 0.990586 -0.05403 2 1 -1 192 192 192 255 0.177709 0.062038
0.052572 0.990586 0.051116 1 2 2 192 192 192 255 0.177709 0.062038
-0.052572 0.629048 0.051116 -1 3 2 192 192 192 255 0.202245 0.062038
0.052572 0.629048 0.051116 2 3 1 192 192 192 255 0.202245 0.062038
0.052572 0.990586 0.051116 1 2 2 192 192 192 255 0.202245 0.062038
-0.052572 0.990586 0.051116 -2 1 1 192 192 192 255 0.202245 0.062038
0.052572 0.629048 -0.05403 1 3 -2 192 192 192 255 0.202245 0.062038
-0.052572 0.629048 -0.05403 -2 3 -1 192 192 192 255 0.202245 0.062038
-0.052572 0.990586 -0.05403 -1 2 -2 192 192 192 255 0.202245 0.062038
0.052572 0.990586 -0.05403 2 1 -1 192 192 192 255 0.202245 0.062038
-0.078846 0.238665 -0.080302 -2 -1 -1 192 192 192 255 0.177709 0.062038
-0.078846 0.238665 0.077388 -1 -2 2 192 192 192 255 0.177709 0.062038
-0.078846 0.238665 0.077388 -1 -2 2 192 192 192 255 0.202245 0.062038
0.078846 0.238665 0.077388 2 -1 1 192 192 192 255 0.202245 0.062038
-0.078846 0.629048 0.077388 -2 3 1 192 192 192 255 0.202245 0.062038
0.078846 0.629048 0.077388 1 3 2 192 192 192 255 0.177709 0.062038
0.078846 0.238665 0.077388 2 -1 1 192 192 192 255 0.177709 0.062038
0.078846 0.238665 -0.080302 1 -2 -2 192 192 192 255 0.177709 0.062038
0.078846 0.238665 -0.080302 1 -2 -2 192 192 192 255 0.202245 0.062038
-0.078846 0.238665 -0.080302 -2 -1 -1 192 192 192 255 0.202245 0.062038
-0.078846 0.629048 -0.080302 -1 3 -2 192 192 192 255 0.202245 0.062038
0.078846 0.629048 -0.080302 2 3 -1 192 192 192 255 0.202245 0.062038
-0.433332 1.148 -0.29693 -1.99886 1.35576 1.95133 192 192 192 255 0.202663 0.20057
-0.433332 1.148 0.424809 -2 2 1 192 192 192 255 0.202663 0.20057
0.433332 1.148 -0.29693 2.99772 2.23998 0.939959 192 192 192 255 0.14439 0.20057
0.433332 1.148 0.424809 2 1 2 192 192 192 255 0.14439 0.20057
0.433332 0.981786 -0.441855 2.99886 -2.25788 -2.00129 192 192 192 255 0.106564 0.20057
0.433332 0.981786 0.424809 1 -1 1 192 192 192 255 0.106564 0.20057
-0.433332 0.981786 0.424809 -1 -2 2 192 192 192 255 0.106564 0.20057
-0.433332 0.981786 -0.441855 -3.99772 -1.06684 -1.03635 192 192 192 255 0.106564 0.20057
-0.433332 0.981786 0.424809 -1 -2 2 192 192 192 255 0.168926 0.20057
0.433332 0.981786 0.424809 1 -1 1 192 192 192 255 0.168926 0.20057
0.433332 1.148 0.424809 2 1 2 192 192 192 255 0.168926 0.20057
-0.433332 1.148 0.424809 -2 2 1 192 192 192 255 0.168926 0.20057
-0.4 1.80882 -0.402106 -3.75785 1.20943 1.87593 192 192 192 255 0.202663 0.20057
0.4 1.80882 -0.402106 1.87893 0.873322 3.91896 192 192 192 255 0.14439 0.20057
-0.4 1.79783 -0.565359 -1.87893 0.172116 -4.0327 192 192 192 255 0.106564 0.20057
0.4 1.79783 -0.565359 3.75785 0.858826 -2.0999 192 192 192 255 0.106564 0.20057
-0.308084 1.97931 -0.405839 -0.880067 2.51304 1.83331 192 192 192 255 0.202663 0.20057
0.308084 1.97931 -0.405839 1.76013 1.96719 0.868814 192 192 192 255 0.202663 0.20057
-0.308084 1.96832 -0.569092 -1.76013 1.92341 -1.13071 192 192 192 255 0.14439 0.20057
-0.308084 1.97931 -0.405839 -0.880067 2.51304 1.83331 192 192 192 255 0.14439 0.20057
0.308084 1.96832 -0.569092 0.880067 2.42548 -2.16574 192 192 192 255 0.106564 0.20057
-0.308084 1.96832 -0.569092 -1.76013 1.92341 -1.13071 192 192 192 255 0.106564 0.20057
0.308084 1.97931 -0.405839 1.76013 1.96719 0.868814 192 192 192 255 0.14439 0.20057
0.308084 1.96832 -0.569092 0.880067 2.42548 -2.16574 192 192 192 255 0.14439 0.20057
0.613855 0.188947 0.044641 1.48356 1.67302 2 192 192 192 255 0.23309 0.060592
0.613855 0.188947 -0.052153 2.19066 0.448267 -1 192 192 192 255 0.23309 0.060592
0.067984 0.335212 0.044641 -1.67304 1.48354 1 192 192 192 255 0.174817 0.060592
0.067984 0.335212 -0.052153 -0.448293 2.19066 -2 192 192 192 255 0.174817 0.060592
0.044022 0.245781 0.044641 -1.48357 -1.67304 2 192 192 192 255 0.136991 0.060592
0.044022 0.245781 -0.052153 -2.19068 -0.448307 -1 192 192 192 255 0.136991 0.060592
0.589891 0.099516 -0.052153 0.448285 -2.19068 -2 192 192 192 255 0.136991 0.060592
0.589891 0.099516 0.044641 1.67303 -1.48358 1 192 192 192 255 0.136991 0.060592
0.589891 0.099516 -0.052153 0.448285 -2.19068 -2 192 192 192 255 0.199353 0.060592
0.044022 0.245781 -0.052153 -2.19068 -0.448307 -1 192 192 192 255 0.199353 0.060592
0.067984 0.335212 -0.052153 -0.448293 2.19066 -2 192 192 192 255 0.199353 0.060592
0.613855 0.188947 -0.052153 2.19066 0.448267 -1 192 192 192 255 0.199353 0.060592
0.044022 0.245781 0.044641 -1.48357 -1.67304 2 192 192 192 255 0.199353 0.060592
0.589891 0.099516 0.044641 1.67303 -1.48358 1 192 192 192 255 0.199353 0.060592
0.613855 0.188947 0.044641 1.48356 1.67302 2 192 192 192 255 0.199353 0.060592
0.067984 0.335212 0.044641 -1.67304 1.48354 1 192 192 192 255 0.199353 0.060592
0.619415 0.142195 0.061977 1 2 2 192 192 192 255 0.228969 0.062799
0.619415 0.142195 -0.061976 2 1 -1 192 192 192 255 0.228969 0.062799
0.477221 0.142195 0.061977 -2 1 1 192 192 192 255 0.170696 0.062799
0.477221 0.142195 -0.061976 -1 2 -2 192 192 192 255 0.170696 0.062799
0.477221 0 0.061977 -1 -2 2 192 192 192 255 0.13287 0.062799
0.477221 0 -0.061976 -2 -1 -1 192 192 192 255 0.13287 0.062799
0.619415 0 -0.061976 1 -2 -2 192 192 192 255 0.13287 0.062799
0.619415 0 0.061977 2 -1 1 192 192 192 255 0.13287 0.062799
0.619415 0 -0.061976 1 -2 -2 192 192 192 255 0.195232 0.062799
0.477221 0 -0.061976 -2 -1 -1 192 192 192 255 0.195232 0.062799
0.477221 0.142195 -0.061976 -1 2 -2 192 192 192 255 0.195232 0.062799
0.619415 0.142195 -0.061976 2 1 -1 192 192 192 255 0.195232 0.062799
0.477221 0 0.061977 -1 -2 2 192 192 192 255 0.195232 0.062799
0.619415 0 0.061977 2 -1 1 192 192 192 255 0.195232 0.062799
0.619415 0.142195 0.061977 1 2 2 192 192 192 255 0.195232 0.062799
0.477221 0.142195 0.061977 -2 1 1 192 192 192 255 0.195232 0.062799
-0.613855 0.188947 -0.04464 -1.48356 1.67302 -2 192 192 192 255 0.23309 0.060592
-0.613855 0.188947 0.052153 -2.19066 0.448267 1 192 192 192 255 0.23309 0.060592
-0.067984 0.335212 -0.04464 1.67304 1.48354 -1 192 192 192 255 0.174817 0.060592
-0.067984 0.335212 0.052153 0.448293 2.19066 2 192 192 192 255 0.174817 0.060592
-0.044022 0.245781 -0.04464 1.48357 -1.67304 -2 192 192 192 255 0.136991 0.060592
-0.044022 0.245781 0.052153 2.19068 -0.448307 1 192 192 192 255 0.136991 0.060592
-0.589891 0.099516 0.052153 -0.448286 -2.19068 2 192 192 192 255 0.136991 0.060592
-0.589891 0.099516 -0.04464 -1.67303 -1.48358 -1 192 192 192 255 0.136991 0.060592
-0.589891 0.099516 0.052153 -0.448286 -2.19068 2 192 192 192 255 0.199353 0.060592
-0.044022 0.245781 0.052153 2.19068 -0.448307 1 192 192 192 255 0.199353 0.060592
-0.067984 0.335212 0.052153 0.448293 2.19066 2 192 192 192 255 0.199353 0.060592
-0.613855 0.188947 0.052153 -2.19066 0.448267 1 192 192 192 255 0.199353 0.060592
-0.044022 0.245781 -0.04464 1.48357 -1.67304 -2 192 192 192 255 0.199353 0.060592
-0.589891 0.099516 -0.04464 -1.67303 -1.48358 -1 192 192 192 255 0.199353 0.060592
-0.613855 0.188947 -0.04464 -1.48356 1.67302 -2 192 192 192 255 0.199353 0.060592
-0.067984 0.335212 -0.04464 1.67304 1.48354 -1 192 192 192 255 0.199353 0.060592
-0.619415 0.142195 -0.061976 -1 2 -2 192 192 192 255 0.228969 0.062799
-0.619415 0.142195 0.061977 -2 1 1 192 192 192 255 0.228969 0.062799
-0.477221 0.142195 -0.061976 2 1 -1 192 192 192 255 0.170696 0.062799
-0.477221 0.142195 0.061977 1 2 2 192 192 192 255 0.170696 0.062799
-0.477221 0 -0.061976 1 -2 -2 192 192 192 255 0.13287 0.062799
-0.477221 0 0.061977 2 -1 1 192 192 192 255 0.13287 0.062799
-0.619415 0 0.061977 -1 -2 2 192 192 192 255 0.13287 0.062799
-0.619415 0 -0.061976 -2 -1 -1 192 192 192 255 0.13287 0.062799
-0.619415 0 0.061977 -1 -2 2 192 192 192 255 0.195232 0.062799
-0.477221 0 0.061977 2 -1 1 192 192 192 255 0.195232 0.062799
-0.477221 0.142195 0.061977 1 2 2 192 192 192 255 0.195232 0.062799
-0.619415 0.142195 0.061977 -2 1 1 192 192 192 255 0.195232 0.062799
-0.477221 0 -0.061976 1 -2 -2 192 192 192 255 0.195232 0.062799
-0.619415 0 -0.061976 -2 -1 -1 192 192 192 255 0.195232 0.062799
-0.619415 0.142195 -0.061976 -1 2 -2 192 192 192 255 0.195232 0.062799
-0.477221 0.142195 -0.061976 2 1 -1 192 192 192 255 0.195232 0.062799
0.044641 0.188947 -0.613854 2 1.67303 -1.48356 192 192 192 255 0.23309 0.060592
-0.052153 0.188947 -0.613854 -1 0.448288 -2.19067 192 192 192 255 0.23309 0.060592
0.044641 0.335212 -0.067985 1 1.48356 1.67303 192 192 192 255 0.174817 0.060592
-0.052153 0.335212 -0.067985 -2 2.19067 0.448288 192 192 192 255 0.174817 0.060592
0.044641 0.245781 -0.044022 2 -1.67303 1.48356 192 192 192 255 0.136991 0.060592
-0.052153 0.245781 -0.044022 -1 -0.448287 2.19067 192 192 192 255 0.136991 0.060592
-0.052153 0.099516 -0.589891 -2 -2.19067 -0.448288 192 192 192 255 0.136991 0.060592
0.044641 0.099516 -0.589891 1 -1.48356 -1.67303 192 192 192 255 0.136991 0.060592
-0.052153 0.099516 -0.589891 -2 -2.19067 -0.448288 192 192 192 255 0.199353 0.060592
-0.052153 0.245781 -0.044022 -1 -0.448287 2.19067 192 192 192 255 0.199353 0.060592
-0.052153 0.335212 -0.067985 -2 2.19067 0.448288 192 192 192 255 0.199353 0.060592
-0.052153 0.188947 -0.613854 -1 0.448288 -2.19067 192 192 192 255 0.199353 0.060592
0.044641 0.245781 -0.044022 2 -1.67303 1.48356 192 192 192 255 0.199353 0.060592
0.044641 0.099516 -0.589891 1 -1.48356 -1.67303 192 192 192 255 0.199353 0.060592
0.044641 0.188947 -0.613854 2 1.67303 -1.48356 192 192 192 255 0.199353 0.060592
0.044641 0.335212 -0.067985 1 1.48356 1.67303 192 192 192 255 0.199353 0.060592
0.061975 0.142195 -0.619415 2 2 -1 192 192 192 255 0.228969 0.062799
-0.061975 0.142195 -0.619415 -1 1 -2 192 192 192 255 0.228969 0.062799
0.061975 0.142195 -0.477221 1 1 2 192 192 192 255 0.170696 0.062799
-0.061975 0.142195 -0.477221 -2 2 1 192 192 192 255 0.170696 0.062799
0.061975 0 -0.477221 2 -2 1 192 192 192 255 0.13287 0.062799
-0.061975 0 -0.477221 -1 -1 2 192 192 192 255 0.13287 0.062799
-0.061975 0 -0.619415 -2 -2 -1 192 192 192 255 0.13287 0.062799
0.061975 0 -0.619415 1 -1 -2 192 192 192 255 0.13287 0.062799
-0.061975 0 -0.619415 -2 -2 -1 192 192 192 255 0.195232 0.062799
-0.061975 0 -0.477221 -1 -1 2 192 192 192 255 0.195232 0.062799
-0.061975 0.142195 -0.477221 -2 2 1 192 192 192 255 0.195232 0.062799
-0.061975 0.142195 -0.619415 -1 1 -2 192 192 192 255 0.195232 0.062799
0.061975 0 -0.477221 2 -2 1 192 192 192 255 0.195232 0.062799
0.061975 0 -0.619415 1 -1 -2 192 192 192 255 0.195232 0.062799
0.061975 0.142195 -0.619415 2 2 -1 192 192 192 255 0.195232 0.062799
0.061975 0.142195 -0.477221 1 1 2 192 192 192 255 0.195232 0.062799
-0.044641 0.188947 0.613854 -2 1.67303 1.48356 192 192 192 255 0.23309 0.060592
0.052153 0.188947 0.613854 1 0.448288 2.19067 192 192 192 255 0.23309 0.060592
-0.044641 0.335212 0.067985 -1 1.48356 -1.67303 192 192 192 255 0.174817 0.060592
0.052153 0.335212 0.067985 2 2.19067 -0.448288 192 192 192 255 0.174817 0.060592
-0.044641 0.245781 0.044022 -2 -1.67303 -1.48356 192 192 192 255 0.136991 0.060592
0.052153 0.245781 0.044022 1 -0.448287 -2.19067 192 192 192 255 0.136991 0.060592
0.052153 0.099516 0.589891 2 -2.19067 0.448288 192 192 192 255 0.136991 0.060592
-0.044641 0.099516 0.589891 -1 -1.48356 1.67303 192 192 192 255 0.136991 0.060592
0.052153 0.099516 0.589891 2 -2.19067 0.448288 192 192 192 255 0.199353 0.060592
0.052153 0.245781 0.044022 1 -0.448287 -2.19067 192 192 192 255 0.199353 0.060592
0.052153 0.335212 0.067985 2 2.19067 -0.448288 192 192 192 255 0.199353 0.060592
0.052153 0.188947 0.613854 1 0.448288 2.19067 192 192 192 255 0.199353 0.060592
-0.044641 0.245781 0.044022 -2 -1.67303 -1.48356 192 192 192 255 0.199353 0.060592
-0.044641 0.099516 0.589891 -1 -1.48356 1.67303 192 192 192 255 0.199353 0.060592
-0.044641 0.188947 0.613854 -2 1.67303 1.48356 192 192 192 255 0.199353 0.060592
-0.044641 0.335212 0.067985 -1 1.48356 -1.67303 192 192 192 255 0.199353 0.060592
-0.061977 0.142195 0.619415 -2 2 1 192 192 192 255 0.228969 0.062799
0.061975 0.142195 0.619415 1 1 2 192 192 192 255 0.228969 0.062799
-0.061977 0.142195 0.47722 -1 1 -2 192 192 192 255 0.170696 0.062799
0.061975 0.142195 0.47722 2 2 -1 192 192 192 255 0.170696 0.062799
-0.061977 0 0.47722 -2 -2 -1 192 192 192 255 0.13287 0.062799
0.061975 0 0.47722 1 -1 -2 192 192 192 255 0.13287 0.062799
0.061975 0 0.619415 2 -2 1 192 192 192 255 0.13287 0.062799
-0.061977 0 0.619415 -1 -1 2 192 192 192 255 0.13287 0.062799
0.061975 0 0.619415 2 -2 1 192 192 192 255 0.195232 0.062799
0.061975 0 0.47722 1 -1 -2 192 192 192 255 0.195232 0.062799
0.061975 0.142195 0.47722 2 2 -1 192 192 192 255 0.195232 0.062799
0.061975 0.142195 0.619415 1 1 2 192 192 192 255 0.195232 0.062799
-0.061977 0 0.47722 -2 -2 -1 192 192 192 255 0.195232 0.062799
-0.061977 0 0.619415 -1 -1 2 192 192 192 255 0.195232 0.062799
-0.061977 0.142195 0.619415 -2 2 1 192 192 192 255 0.195232 0.062799
-0.061977 0.142195 0.47722 -1 1 -2 192 192 192 255 0.195232 0.062799
0.433439 1.42164 -0.301012 -3 2.13938 -0.990239 192 192 192 255 0.198679 0.062606
0.499973 1.42164 -0.301012 3 1.27876 -1.98048 192 192 192 255 0.198679 0.062606
0.499973 1.06654 -0.350993 2 -1.86062 -0.990239 192 192 192 255 0.232415 0.062606
0.499973 1.42164 -0.301012 3 1.27876 -1.98048 192 192 192 255 0.232415 0.062606
0.499973 1.42164 0.156997 1 1.43243 0.823327 192 192 192 255 0.232415 0.062606
0.433439 1.42164 0.156997 -2 -0.135134 1.64665 192 192 192 255 0.136317 0.062606
0.433439 1.42164 -0.301012 -3 2.13938 -0.990239 192 192 192 255 0.136317 0.062606
0.433439 1.06654 -0.350993 -1 -0.721242 -1.98048 192 192 192 255 0.136317 0.062606
0.499973 1.34727 -0.249741 3 -2.03038 1.99977 192 192 192 255 0.172615 0.060617
0.499973 1.34727 0.105726 2 -2.13513 1.64665 192 192 192 255 0.172614 0.060617
0.433439 1.34727 0.105726 -1 -2.56757 0.823327 192 192 192 255 0.172614 0.060617
0.433439 1.34727 -0.249741 -3 -1.01519 0.999885 192 192 192 255 0.172615 0.060617
0.433439 1.06654 -0.254005 -2 -2.03038 1.99977 192 192 192 255 0.172615 0.060617
0.499973 1.06654 -0.254005 1 -1.01519 0.999885 192 192 192 255 0.172615 0.060617
-0.433439 1.42164 -0.301012 3 1.27876 -1.98048 192 192 192 255 0.198679 0.062606
-0.499973 1.42164 -0.301012 -3 2.13938 -0.990239 192 192 192 255 0.198679 0.062606
-0.499973 1.42164 0.156997 -2 -0.135134 1.64665 192 192 192 255 0.232415 0.062606
-0.499973 1.42164 -0.301012 -3 2.13938 -0.990239 192 192 192 255 0.232415 0.062606
-0.499973 1.06654 -0.350993 -1 -0.721242 -1.98048 192 192 192 255 0.232415 0.062606
-0.433439 1.42164 -0.301012 3 1.27876 -1.98048 192 192 192 255 0.136317 0.062606
-0.433439 1.42164 0.156997 1 1.43243 0.823327 192 192 192 255 0.136317 0.062606
-0.433439 1.06654 -0.350993 2 -1.86062 -0.990239 192 192 192 255 0.136317 0.062606
-0.499973 1.34727 0.105726 -1 -2.56757 0.823327 192 192 192 255 0.172615 0.060617
-0.499973 1.34727 -0.249741 -3 -1.03038 1.99977 192 192 192 255 0.172614 0.060617
-0.433439 1.34727 -0.249741 3 -2.01519 0.999885 192 192 192 255 0.172614 0.060617
-0.433439 1.34727 0.105726 2 -2.13513 1.64665 192 192 192 255 0.172615 0.060617
-0.499973 1.34727 -0.249741 -3 -1.03038 1.99977 192 192 192 255 0.171428 0.05961
-0.499973 1.06654 -0.254006 -2 -2.01519 0.999885 192 192 192 255 0.171428 0.05961
-0.433439 1.06654 -0.254006 1 -1.03038 1.99977 192 192 192 255 0.171428 0.05961
-0.433439 1.34727 -0.249741 3 -2.01519 0.999885 192 192 192 255 0.171428 0.05961
0.433439 1.06654 -0.254005 -2 -2.03038 1.99977 192 192 192 255 0.200151 0.06002
0.433439 1.06654 -0.350993 -1 -0.721242 -1.98048 192 192 192 255 0.200151 0.06002
0.499973 1.06654 -0.350993 2 -1.86062 -0.990239 192 192 192 255 0.200151 0.06002
0.499973 1.06654 -0.254005 1 -1.01519 0.999885 192 192 192 255 0.200151 0.06002
-0.433439 1.06654 -0.350993 2 -1.86062 -0.990239 192 192 192 255 0.200151 0.06002
-0.433439 1.06654 -0.254006 1 -1.03038 1.99977 192 192 192 255 0.200151 0.06002
-0.499973 1.06654 -0.254006 -2 -2.01519 0.999885 192 192 192 255 0.200151 0.06002
-0.499973 1.06654 -0.350993 -1 -0.721242 -1.98048 192 192 192 255 0.200151 0.06002
-0.499973 1.42164 0.156997 -2 -0.135134 1.64665 192 192 192 255 0.200151 0.06002
-0.499973 1.34727 0.105726 -1 -2.56757 0.823327 192 192 192 255 0.200151 0.06002
-0.433439 1.34727 0.105726 2 -2.13513 1.64665 192 192 192 255 0.200151 0.06002
-0.433439 1.42164 0.156997 1 1.43243 0.823327 192 192 192 255 0.200151 0.06002
0.433439 1.42164 0.156997 -2 -0.135134 1.64665 192 192 192 255 0.200151 0.06002
0.433439 1.34727 0.105726 -1 -2.56757 0.823327 192 192 192 255 0.200151 0.06002
0.499973 1.34727 0.105726 2 -2.13513 1.64665 192 192 192 255 0.200151 0.06002
0.499973 1.42164 0.156997 1 1.43243 0.823327 192 192 192 255 0.200151 0.06002
3 0 1 3 
3 0 3 2 
3 136 137 5 
3 136 5 4 
3 138 139 7 
3 138 7 6 
3 140 141 142 
3 140 142 143 
3 144 145 146 
3 144 146 147 
3 148 149 150 
3 148 150 151 
3 8 9 11 
3 8 11 10 
3 152 153 13 
3 152 13 12 
3 154 155 15 
3 154 15 14 
3 156 157 158 
3 156 158 159 
3 160 161 162 
3 160 162 163 
3 164 165 166 
3 164 166 167 
3 24 25 26 
3 24 26 27 
3 168 169 28 
3 168 28 29 
3 170 171 30 
3 170 30 31 
3 18 19 17 
3 18 17 16 
3 172 173 174 
3 172 174 175 
3 176 177 178 
3 176 178 179 
3 180 181 21 
3 180 21 20 
3 182 183 22 
3 182 22 184 
3 23 185 186 
3 23 186 187 
3 188 189 190 
3 188 190 191 
3 20 21 25 
3 20 25 24 
3 185 23 31 
3 185 31 30 
3 184 22 173 
3 184 173 172 
3 191 190 177 
3 191 177 176 
3 32 33 34 
3 32 34 40 
3 42 192 193 
3 42 193 36 
3 35 194 195 
3 35 195 37 
3 196 197 198 
3 196 198 199 
3 200 201 202 
3 200 202 203 
3 45 46 32 
3 45 32 40 
3 44 204 192 
3 44 192 42 
3 47 205 194 
3 47 194 35 
3 206 207 196 
3 206 196 199 
3 43 38 39 
3 43 39 41 
3 208 204 44 
3 208 44 209 
3 210 46 45 
3 210 45 211 
3 212 207 206 
3 212 206 213 
3 214 205 47 
3 214 47 215 
3 48 49 51 
3 48 51 50 
3 216 217 53 
3 216 53 52 
3 218 219 55 
3 218 55 54 
3 220 221 222 
3 220 222 223 
3 224 225 226 
3 224 226 227 
3 228 229 230 
3 228 230 231 
3 56 57 59 
3 56 59 58 
3 232 233 61 
3 232 61 60 
3 234 235 63 
3 234 63 62 
3 236 237 238 
3 236 238 239 
3 240 241 242 
3 240 242 243 
3 244 245 246 
3 244 246 247 
3 64 65 67 
3 64 67 66 
3 248 249 69 
3 248 69 68 
3 250 251 71 
3 250 71 70 
3 252 253 254 
3 252 254 255 
3 256 257 258 
3 256 258 259 
3 260 261 262 
3 260 262 263 
3 72 73 75 
3 72 75 74 
3 264 265 77 
3 264 77 76 
3 266 267 79 
3 266 79 78 
3 268 269 270 
3 268 270 271 
3 272 273 274 
3 272 274 275 
3 276 277 278 
3 276 278 279 
3 80 81 83 
3 80 83 82 
3 280 281 85 
3 280 85 84 
3 282 283 87 
3 282 87 86 
3 284 285 286 
3 284 286 287 
3 288 289 290 
3 288 290 291 
3 292 293 294 
3 292 294 295 
3 88 89 91 
3 88 91 90 
3 296 297 93 
3 296 93 92 
3 298 299 95 
3 298 95 94 
3 300 301 302 
3 300 302 303 
3 304 305 306 
3 304 306 307 
3 308 309 310 
3 308 310 311 
3 96 97 99 
3 96 99 98 
3 312 313 101 
3 312 101 100 
3 314 315 103 
3 314 103 102 
3 316 317 318 
3 316 318 319 
3 320 321 322 
3 320 322 323 
3 324 325 326 
3 324 326 327 
3 104 105 107 
3 104 107 106 
3 328 329 109 
3 328 109 108 
3 330 331 111 
3 330 111 110 
3 332 333 334 
3 332 334 335 
3 336 337 338 
3 336 338 339 
3 340 341 342 
3 340 342 343 
3 114 115 117 
3 114 117 116 
3 112 344 345 
3 112 345 113 
3 346 347 119 
3 346 119 118 
3 347 348 120 
3 347 120 119 
3 349 350 122 
3 349 122 121 
3 350 351 123 
3 350 123 122 
3 352 353 354 
3 352 354 355 
3 352 355 356 
3 352 356 357 
3 126 127 129 
3 126 129 128 
3 358 124 125 
3 358 125 359 
3 360 361 132 
3 360 132 131 
3 361 362 130 
3 361 130 132 
3 363 364 134 
3 363 134 133 
3 365 363 133 
3 365 133 135 
3 366 367 368 
3 366 368 369 
3 370 371 372 
3 370 372 373 
3 374 375 376 
3 374 376 377 
3 378 379 380 
3 378 380 381 
3 382 383 384 
3 382 384 385 
3 386 387 388 
3 386 388 389 
