ply
format ascii 1.0
comment VCGLIB generated
comment TextureFile SpaceInteriors_Texture.png
element vertex 538
property float x
property float y
property float z
property float nx
property float ny
property float nz
property uchar red
property uchar green
property uchar blue
property uchar alpha
property float texture_u
property float texture_v
element face 348
property list uchar int vertex_indices
end_header
-0.391928 1.13274 0.497986 -1.48264 -1 -1.67385 192 192 192 255 0.270245 0.479895
-0.561653 1.13274 0.920158 -1.67386 -2 1.48264 192 192 192 255 0.270245 0.479895
-0.391928 1.19451 0.497986 -0.181798 2 -2.22866 192 192 192 255 0.270245 0.479895
-0.561653 1.19451 0.920158 -2.22867 1 0.1818 192 192 192 255 0.270245 0.479895
0.641695 1.19451 0.913534 2.22867 1 -0.181805 192 192 192 255 0.994518 0.494845
0.47197 1.19451 1.33571 0.181794 2 2.22866 192 192 192 255 0.994518 0.417171
0.641695 1.13274 0.913534 1.67386 -2 -1.48264 192 192 192 255 0.270245 0.479895
0.47197 1.13274 1.33571 1.48264 -1 1.67384 192 192 192 255 0.270245 0.479895
-2.78715 1.54634 0.943855 -2.21867 -1 0.278241 192 192 192 255 0.301625 0.063677
-2.717 1.54634 1.04899 0.833203 -2.00005 3.05057 192 192 192 255 0.301625 0.063677
-2.78715 2.54264 0.943855 -1.94187 2 -1.10863 192 192 192 255 0.301625 0.063677
-2.717 2.54264 1.04899 0.00133455 1.00002 3.60564 192 192 192 255 0.301625 0.063677
-1.8525 2.54264 0.320229 1.10865 1 -1.94188 192 192 192 255 0.390508 0.063072
-1.78235 2.54264 0.425369 2.4969 2.00005 1.94048 192 192 192 255 0.390508 0.063072
-1.8525 1.54634 0.320229 -0.278211 -2 -2.21869 192 192 192 255 0.301625 0.063677
-1.78235 1.54634 0.425369 3.32874 -1.00002 1.38547 192 192 192 255 0.301625 0.063677
-1.83933 1.61247 0.46339 2.22009 -4.90115e-005 3.32734 192 192 192 255 0.021149 0.51104
-2.66001 1.61247 1.01098 2.77504 -2.45058e-005 4.15923 192 192 192 255 0.021149 0.51104
-1.83933 2.47651 0.46339 2.77512 2.48795e-005 4.15917 192 192 192 255 0.021149 0.511041
-2.66001 2.47651 1.01098 2.22005 4.9759e-005 3.32737 192 192 192 255 0.021149 0.511041
-2.58812 1.22058 0.492928 -2.21869 3 0.278219 192 192 192 255 0.142788 0.066468
-2.44124 1.22058 0.713058 0.278215 3 2.2187 192 192 192 255 0.142788 0.066468
-2.58812 2.21302 0.492928 -1.94188 2 -1.10864 192 192 192 255 0.142788 0.066468
-2.44124 2.21302 0.713058 -1.10864 1 1.94189 192 192 192 255 0.142788 0.066468
-2.36442 2.21302 0.34367 1.10865 1 -1.94188 192 192 192 255 0.169393 0.063444
-2.21755 2.21302 0.563801 1.94188 2 1.10865 192 192 192 255 0.169393 0.063444
-2.36442 1.22058 0.34367 -0.278214 3 -2.21869 192 192 192 255 0.142788 0.066467
-2.21755 1.22058 0.563801 2.2187 3 -0.27821 192 192 192 255 0.142788 0.066467
-2.31417 1.22058 0.10202 1.10864 3 -1.94188 192 192 192 255 0.199625 0.06284
-1.97512 1.22058 0.610165 1.94189 3 1.10864 192 192 192 255 0.199625 0.06284
-2.4915 1.22058 0.954712 -1.10864 3 1.94188 192 192 192 255 0.199625 0.06284
-2.83055 1.22058 0.446564 -1.94188 3 -1.10865 192 192 192 255 0.199625 0.06284
-2.31417 1.12292 0.10202 -0.278215 -2 -2.21869 192 192 192 255 0.169393 0.063444
-1.97512 1.12292 0.610165 2.21869 -1 -0.278218 192 192 192 255 0.169393 0.063444
-2.4915 1.12292 0.954712 0.27822 -2 2.21869 192 192 192 255 0.169393 0.063444
-2.83055 1.12292 0.446564 -2.21869 -1 0.278212 192 192 192 255 0.169393 0.063444
-0.552544 1.40715 0.036945 -2 -1 -1 192 192 192 255 0.301625 0.063677
-0.552544 1.40715 0.163342 -1 -2 3 192 192 192 255 0.301625 0.063677
-0.552544 2.40346 0.036945 -1 2 -2 192 192 192 255 0.301625 0.063677
-0.552544 2.40346 0.163342 -2 1 3 192 192 192 255 0.301625 0.063677
0.571056 2.40346 0.036945 2 1 -1 192 192 192 255 0.390508 0.063072
0.571056 2.40346 0.163342 1 2 3 192 192 192 255 0.390508 0.063072
0.571056 1.40715 0.036945 1 -2 -2 192 192 192 255 0.301625 0.063677
0.571056 1.40715 0.163342 2 -1 3 192 192 192 255 0.301625 0.063677
0.502554 1.47328 0.163342 0 0 4 192 192 192 255 0.261226 0.333704
-0.484039 1.47328 0.163342 0 0 5 192 192 192 255 0.261226 0.333704
0.502554 2.33733 0.163342 0 0 5 192 192 192 255 0.261226 0.333704
-0.484039 2.33733 0.163342 0 0 4 192 192 192 255 0.261226 0.333704
-0.133949 1.22058 -0.227684 -2 3 -1 192 192 192 255 0.142788 0.066468
-0.133949 1.22058 0.036945 -1 3 2 192 192 192 255 0.142788 0.066468
-0.133949 2.07383 -0.227684 -1 2 -2 192 192 192 255 0.142788 0.066468
-0.133949 2.07383 0.036945 -2 1 1 192 192 192 255 0.142788 0.066468
0.134972 2.07383 -0.227684 2 1 -1 192 192 192 255 0.169393 0.063444
0.134972 2.07383 0.036945 1 2 2 192 192 192 255 0.169393 0.063444
0.134972 1.22058 -0.227684 1 3 -2 192 192 192 255 0.142788 0.066467
0.134972 1.22058 0.036945 2 3 1 192 192 192 255 0.142788 0.066467
0.310898 1.22058 -0.400806 2 3 -1 192 192 192 255 0.199625 0.06284
0.310898 1.22058 0.210068 1 3 2 192 192 192 255 0.199625 0.06284
-0.309875 1.22058 0.210068 -2 3 1 192 192 192 255 0.199625 0.06284
-0.309875 1.22058 -0.400806 -1 3 -2 192 192 192 255 0.199625 0.06284
0.310898 1.12292 -0.400806 1 -2 -2 192 192 192 255 0.169393 0.063444
0.310898 1.12292 0.210068 2 -1 1 192 192 192 255 0.169393 0.063444
-0.309875 1.12292 0.210068 -1 -2 2 192 192 192 255 0.169393 0.063444
-0.309875 1.12292 -0.400806 -2 -1 -1 192 192 192 255 0.169393 0.063444
0.679268 1.48788 0.039303 -1.71203 -1 -1.43836 192 192 192 255 0.301625 0.063677
0.649826 1.48788 0.16222 -1.67134 -1.99996 2.68453 192 192 192 255 0.301625 0.063677
0.679268 2.48418 0.039303 -0.506581 2 -2.17791 192 192 192 255 0.301625 0.063677
0.649826 2.48418 0.16222 -2.64382 0.999978 2.45159 192 192 192 255 0.301625 0.063677
1.77196 2.48418 0.301052 2.17793 1 -0.506595 192 192 192 255 0.390508 0.063072
1.74251 2.48418 0.423969 0.273597 1.99996 3.1504 192 192 192 255 0.390508 0.063072
1.77196 1.48788 0.301052 1.4384 -2 -1.71203 192 192 192 255 0.301625 0.063677
1.74251 1.48788 0.423969 1.24606 -0.999978 3.38334 192 192 192 255 0.301625 0.063677
1.6759 1.55401 0.408009 -0.931847 4.47677e-005 3.88994 192 192 192 255 0.021149 0.51104
0.716444 1.55401 0.178177 -1.16475 2.23839e-005 4.86244 192 192 192 255 0.021149 0.51104
1.6759 2.41805 0.408009 -1.16483 -2.23171e-005 4.86242 192 192 192 255 0.021149 0.511041
0.716444 2.41805 0.178177 -0.931805 -4.46342e-005 3.88995 192 192 192 255 0.021149 0.511041
1.16693 1.22058 -0.115997 -1.71202 3 -1.4384 192 192 192 255 0.142788 0.066468
1.10528 1.22058 0.141354 -1.43839 3 1.71202 192 192 192 255 0.142788 0.066468
1.16693 2.15455 -0.115997 -0.506586 2 -2.17793 192 192 192 255 0.142788 0.066468
1.10528 2.15455 0.141354 -2.17793 1 0.506581 192 192 192 255 0.142788 0.066468
1.42845 2.15455 -0.053352 2.17792 1 -0.506573 192 192 192 255 0.169393 0.063444
1.3668 2.15455 0.203999 0.506583 2 2.17793 192 192 192 255 0.169393 0.063444
1.42845 1.22058 -0.053352 1.43839 3 -1.71202 192 192 192 255 0.142788 0.066467
1.3668 1.22058 0.203999 1.71202 3 1.4384 192 192 192 255 0.142788 0.066467
1.63986 1.22058 -0.180729 2.17793 3 -0.506575 192 192 192 255 0.199625 0.06284
1.49756 1.22058 0.413338 0.506577 3 2.17793 192 192 192 255 0.199625 0.06284
0.893864 1.22058 0.268726 -2.17793 3 0.506574 192 192 192 255 0.199625 0.06284
1.03617 1.22058 -0.32534 -0.50658 3 -2.17793 192 192 192 255 0.199625 0.06284
1.63986 1.12292 -0.180729 1.43839 -2 -1.71202 192 192 192 255 0.169393 0.063444
1.49756 1.12292 0.413338 1.71202 -1 1.4384 192 192 192 255 0.169393 0.063444
0.893864 1.12292 0.268726 -1.4384 -2 1.71202 192 192 192 255 0.169393 0.063444
1.03617 1.12292 -0.32534 -1.71202 -1 -1.4384 192 192 192 255 0.169393 0.063444
1.87125 1.57835 0.31189 -1.21367 -1 -1.87803 192 192 192 255 0.301625 0.063677
1.80699 1.57835 0.420723 -2.38651 -1.99999 2.07474 192 192 192 255 0.301625 0.063677
1.87125 2.57466 0.31189 0.15589 2 -2.23063 192 192 192 255 0.301625 0.063677
1.80699 2.57466 0.420723 -3.24757 0.999997 1.56627 192 192 192 255 0.301625 0.063677
2.83876 2.57466 0.883221 2.23064 1 0.155876 192 192 192 255 0.390508 0.063072
2.77449 2.57466 0.992054 -0.664362 1.99999 3.0917 192 192 192 255 0.390508 0.063072
2.83876 1.57835 0.883221 1.87804 -2 -1.21367 192 192 192 255 0.301625 0.063677
2.77449 1.57835 0.992054 0.196722 -0.999997 3.60017 192 192 192 255 0.301625 0.063677
2.7155 1.64448 0.957222 -2.03392 6.35334e-006 3.44429 192 192 192 255 0.268817 0.335979
1.86597 1.64448 0.455555 -2.54239 3.17667e-006 4.30538 192 192 192 255 0.268817 0.335979
2.7155 2.50852 0.957222 -2.5424 -3.2301e-006 4.30537 192 192 192 255 0.268817 0.335979
1.86597 2.50852 0.455555 -2.03392 -6.4602e-006 3.4443 192 192 192 255 0.268817 0.335979
2.38202 1.22058 0.306179 -1.21366 3 -1.87803 192 192 192 255 0.142788 0.066468
2.24746 1.22058 0.534046 -1.87804 3 1.21366 192 192 192 255 0.142788 0.066468
2.38202 2.24503 0.306179 0.155895 2 -2.23062 192 192 192 255 0.142788 0.066468
2.24746 2.24503 0.534046 -2.23063 1 -0.155891 192 192 192 255 0.142788 0.066468
2.61358 2.24503 0.442921 2.23063 1 0.155891 192 192 192 255 0.169393 0.063444
2.47902 2.24503 0.670788 -0.155895 2 2.23062 192 192 192 255 0.169393 0.063444
2.61358 1.22058 0.442921 1.87804 3 -1.21366 192 192 192 255 0.142788 0.066467
2.47902 1.22058 0.670788 1.21366 3 1.87803 192 192 192 255 0.142788 0.066467
2.85309 1.22058 0.383305 2.23063 3 0.155886 192 192 192 255 0.199625 0.06284
2.54247 1.22058 0.909313 -0.155887 3 2.23063 192 192 192 255 0.199625 0.06284
2.00794 1.22058 0.593662 -2.23063 3 -0.155888 192 192 192 255 0.199625 0.06284
2.31856 1.22058 0.067654 0.155889 3 -2.23063 192 192 192 255 0.199625 0.06284
2.85309 1.12292 0.383305 1.87804 -2 -1.21367 192 192 192 255 0.169393 0.063444
2.54247 1.12292 0.909313 1.21367 -1 1.87803 192 192 192 255 0.169393 0.063444
2.00794 1.12292 0.593662 -1.87803 -2 1.21367 192 192 192 255 0.169393 0.063444
2.31856 1.12292 0.067654 -1.21367 -1 -1.87803 192 192 192 255 0.169393 0.063444
-1.21195 1.15874 0.848686 -4 -1 -1 192 192 192 255 0.266972 0.47744
-1.21195 1.15874 1.04047 -1 -2 2 192 192 192 255 0.266972 0.47744
-1.21195 1.22931 0.848686 -1 2 -2 192 192 192 255 0.266972 0.47744
-1.21195 1.22931 1.04047 -2 2 1 192 192 192 255 0.266972 0.47744
-1.07652 1.22931 0.848686 3 1 -1 192 192 192 255 0.325245 0.47744
-1.07652 1.22931 1.04047 2 1 2 192 192 192 255 0.266972 0.47744
-1.07652 1.15874 0.848686 1 -2 -4 192 192 192 255 0.266972 0.47744
-1.07652 1.15874 1.04047 2 -1 1 192 192 192 255 0.266972 0.47744
-1.21195 1.22931 0.9254 -2 3 0 192 192 192 255 0.266972 0.47744
-1.07652 1.22931 0.9254 1 3 0 192 192 192 255 0.266972 0.47744
-1.21195 1.22931 0.917728 -2 3 0 192 192 192 255 0.266972 0.47744
-1.07652 1.22931 0.917728 0 5 0 192 192 192 255 0.325245 0.47744
-1.14047 1.22931 0.848686 0 3 -2 192 192 192 255 0.325245 0.47744
-1.14047 1.22931 0.917728 0 3 0 192 192 192 255 0.325245 0.47744
-1.14821 1.22931 0.848686 0 3 -2 192 192 192 255 0.291508 0.47744
-1.14821 1.22931 0.917728 0 4 0 192 192 192 255 0.264874 0.47744
-1.39647 1.13274 0.636078 -2 -1 -1 192 192 192 255 0.20736 0.380042
-1.39647 1.13274 1.19369 -1 -2 2 192 192 192 255 0.20736 0.380042
-1.39647 1.15874 0.636078 -1 2 -2 192 192 192 255 0.20736 0.380042
-1.39647 1.15874 1.19369 -2 1 1 192 192 192 255 0.20736 0.380042
-0.838856 1.15874 0.636078 2 1 -1 192 192 192 255 0.265633 0.380042
-0.838856 1.15874 1.19369 1 2 2 192 192 192 255 0.265633 0.380042
-0.838856 1.13274 0.636078 1 -2 -2 192 192 192 255 0.20736 0.380042
-0.838856 1.13274 1.19369 2 -1 1 192 192 192 255 0.20736 0.380042
-3.66263 2.70187 -1.45491 -2 3.47382 -3 192 192 192 255 0.295097 0.329239
3.66263 2.70187 -1.45491 1 2.47382 -3 192 192 192 255 0.295097 0.329239
-2.79798 2.70187 0.249607 1 3.03481 3.91971 192 192 192 255 0.295097 0.329239
-3.66263 2.70187 0.249607 -1 1.75431 0.959855 192 192 192 255 0.295097 0.329239
2.79798 2.70187 0.249607 -2 4.03481 2.91971 192 192 192 255 0.234632 0.329239
3.66263 2.70187 0.249607 2 1.75431 0.959855 192 192 192 255 0.295097 0.329239
-2.79798 0 0.083023 1 -2 2 192 192 192 255 0.172958 0.334077
-3.66263 0 -1.45491 -2 -4 -3 192 192 192 255 0.172958 0.334077
3.66263 0 -1.45491 2 -2 -3 192 192 192 255 0.172958 0.334077
2.79798 0 0.083023 -2 -4 1 192 192 192 255 0.172958 0.334077
-2.79798 0 0.706562 2 -2 1 192 192 192 255 0.172958 0.334077
-3.66263 0 0.706562 -1 -1 2 192 192 192 255 0.172958 0.334077
3.66263 0 0.706562 1 -2 1 192 192 192 255 0.172958 0.334077
2.79798 0 0.706562 -1 -1 2 192 192 192 255 0.172958 0.334077
-2.79798 2.55029 0.249607 4.99978 -0.999997 1.00249 192 192 192 255 0.201981 0.329239
2.79798 2.54782 0.249607 -3.00044 -1.99999 2.00498 192 192 192 255 0.17719 0.331658
-2.79798 1.04368 -0.411057 2 0.999957 0.990741 192 192 192 255 0.176586 0.330449
-2.79798 2.54741 -0.411057 0.999558 -1.99999 2.00498 192 192 192 255 0.176586 0.330449
2.79798 1.04368 -0.411057 -1 1.99991 1.98148 192 192 192 255 0.176586 0.330449
2.79798 2.54741 -0.411057 -2.00022 -0.999997 1.00249 192 192 192 255 0.176586 0.330449
-3.35913 0.954621 -0.877643 -2 -1 -1 192 192 192 255 0.268621 0.443638
-3.35913 0.954621 1.45491 -1 -2 2 192 192 192 255 0.268621 0.443638
-3.35913 1.13274 -0.877643 -1 2 -2 192 192 192 255 0.268621 0.443638
-3.35913 1.13274 1.45491 -2 1 1 192 192 192 255 0.268621 0.443638
3.35913 1.13274 -0.877644 2 1 -1 192 192 192 255 0.352063 0.446661
3.35913 1.13274 1.45491 1 2 2 192 192 192 255 0.352062 0.446661
3.35913 0.954621 -0.877644 1 -2 -2 192 192 192 255 0.268621 0.443638
3.35913 0.954621 1.45491 2 -1 1 192 192 192 255 0.268621 0.443638
-3.30168 2.39352 -1.45491 0 0 -4 192 192 192 255 0.234632 0.329239
3.30168 2.39352 -1.45491 0 0 -5 192 192 192 255 0.234632 0.329239
3.30168 0.308351 -1.45491 0 0 -5 192 192 192 255 0.234632 0.329239
-3.30168 0.308351 -1.45491 0 0 -4 192 192 192 255 0.234632 0.329239
-3.66263 0.954781 -1.45491 -2 0 -3 192 192 192 255 0.326185 0.330317
-3.66263 1.14173 -1.45491 -3 0 -3 192 192 192 255 0.326185 0.330317
-3.66263 1.13817 0.706562 -3 0.560992 3.91971 192 192 192 255 0.293534 0.330317
-3.66263 0.954781 0.706562 -4 0 2 192 192 192 255 0.293534 0.330317
-2.79798 1.04739 -0.010445 3.23362 5.1181 1.07095 192 192 192 255 0.201981 0.329239
-2.79798 1.14116 0.093327 3.61681 0.559137 0.553998 192 192 192 255 0.201981 0.329239
-2.79798 0.954781 0.083023 5.23362 1.11827 3.108 192 192 192 255 0.176586 0.330449
-2.70451 1.04826 0.083023 0.616809 1.55909 2.54473 192 192 192 255 0.326185 0.330317
-2.79798 1.13817 0.706562 4 0.280496 1.95986 192 192 192 255 0.326185 0.330317
-2.79798 0.954781 0.706562 2 0 4 192 192 192 255 0.326185 0.330317
2.79798 1.04739 -0.010445 -4.23373 3.11813 1.08942 192 192 192 255 0.326185 0.330317
2.70451 1.04826 0.083023 -0.616863 2.55902 1.53544 192 192 192 255 0.326185 0.330317
2.79798 0.954781 0.083023 -3.23373 1.11821 5.10794 192 192 192 255 0.176586 0.330449
2.79798 1.14116 0.093346 -5.61686 0.559106 0.553968 192 192 192 255 0.201981 0.329239
2.79798 1.13817 0.706562 -2 0.280496 2.95986 192 192 192 255 0.293534 0.330317
2.79798 0.954781 0.706562 -4 0 2 192 192 192 255 0.293534 0.330317
3.66263 1.14173 -1.45491 3 0 -3 192 192 192 255 0.326185 0.330317
3.66263 0.954781 -1.45491 3 0 -3 192 192 192 255 0.326185 0.330317
3.66263 1.13817 0.706562 3 0.560992 2.91971 192 192 192 255 0.326185 0.330317
3.66263 0.954781 0.706562 3 0 4 192 192 192 255 0.326185 0.330317
-3.30168 1.14173 -1.45491 0 0 -6 192 192 192 255 0.326185 0.330317
-3.30168 0.954781 -1.45491 0 0 -7 192 192 192 255 0.326185 0.330316
3.30168 1.14173 -1.45491 0 0 -6 192 192 192 255 0.326185 0.330317
3.30168 0.954781 -1.45491 0 0 -5 192 192 192 255 0.326185 0.330317
-0.391928 1.19451 0.497986 -0.181798 2 -2.22866 192 192 192 255 0.789106 0.494845
-0.561653 1.19451 0.920158 -2.22867 1 0.1818 192 192 192 255 0.789106 0.417171
0.641695 1.19451 0.913534 2.22867 1 -0.181805 192 192 192 255 0.270245 0.479895
0.47197 1.19451 1.33571 0.181794 2 2.22866 192 192 192 255 0.270245 0.479895
0.641695 1.13274 0.913534 1.67386 -2 -1.48264 192 192 192 255 0.232419 0.479895
0.47197 1.13274 1.33571 1.48264 -1 1.67384 192 192 192 255 0.232419 0.479895
-0.561653 1.13274 0.920158 -1.67386 -2 1.48264 192 192 192 255 0.232419 0.479895
-0.391928 1.13274 0.497986 -1.48264 -1 -1.67385 192 192 192 255 0.232419 0.479895
-0.561653 1.13274 0.920158 -1.67386 -2 1.48264 192 192 192 255 0.294781 0.479895
0.47197 1.13274 1.33571 1.48264 -1 1.67384 192 192 192 255 0.294781 0.479895
0.47197 1.19451 1.33571 0.181794 2 2.22866 192 192 192 255 0.294781 0.479895
-0.561653 1.19451 0.920158 -2.22867 1 0.1818 192 192 192 255 0.294781 0.479895
0.641695 1.13274 0.913534 1.67386 -2 -1.48264 192 192 192 255 0.294781 0.479895
-0.391928 1.13274 0.497986 -1.48264 -1 -1.67385 192 192 192 255 0.294781 0.479895
-0.391928 1.19451 0.497986 -0.181798 2 -2.22866 192 192 192 255 0.294781 0.479895
0.641695 1.19451 0.913534 2.22867 1 -0.181805 192 192 192 255 0.294781 0.479895
-2.78715 2.54264 0.943855 -1.94187 2 -1.10863 192 192 192 255 0.390508 0.063072
-2.717 2.54264 1.04899 0.00133455 1.00002 3.60564 192 192 192 255 0.390508 0.063072
-1.8525 2.54264 0.320229 1.10865 1 -1.94188 192 192 192 255 0.301625 0.063677
-1.78235 2.54264 0.425369 2.4969 2.00005 1.94048 192 192 192 255 0.301625 0.063677
-1.8525 1.54634 0.320229 -0.278211 -2 -2.21869 192 192 192 255 0.234509 0.063677
-2.78715 1.54634 0.943855 -2.21867 -1 0.278241 192 192 192 255 0.234509 0.063677
-2.78715 2.54264 0.943855 -1.94187 2 -1.10863 192 192 192 255 0.234509 0.063677
-1.8525 2.54264 0.320229 1.10865 1 -1.94188 192 192 192 255 0.234509 0.063677
-2.717 1.54634 1.04899 0.833203 -2.00005 3.05057 192 192 192 255 0.357252 0.063072
-1.78235 1.54634 0.425369 3.32874 -1.00002 1.38547 192 192 192 255 0.357252 0.063072
-1.83933 1.61247 0.46339 2.22009 -4.90115e-005 3.32734 192 192 192 255 0.357252 0.063072
-2.66001 1.61247 1.01098 2.77504 -2.45058e-005 4.15923 192 192 192 255 0.357252 0.063072
-1.78235 2.54264 0.425369 2.4969 2.00005 1.94048 192 192 192 255 0.357252 0.063072
-1.83933 2.47651 0.46339 2.77512 2.48795e-005 4.15917 192 192 192 255 0.357252 0.063072
-2.717 2.54264 1.04899 0.00133455 1.00002 3.60564 192 192 192 255 0.357252 0.063072
-2.66001 2.47651 1.01098 2.22005 4.9759e-005 3.32737 192 192 192 255 0.357252 0.063072
-2.58812 2.21302 0.492928 -1.94188 2 -1.10864 192 192 192 255 0.169393 0.063444
-2.44124 2.21302 0.713058 -1.10864 1 1.94189 192 192 192 255 0.169393 0.063444
-2.36442 2.21302 0.34367 1.10865 1 -1.94188 192 192 192 255 0.142788 0.066468
-2.21755 2.21302 0.563801 1.94188 2 1.10865 192 192 192 255 0.142788 0.066468
-2.44124 1.22058 0.713058 0.278215 3 2.2187 192 192 192 255 0.169393 0.063444
-2.21755 1.22058 0.563801 2.2187 3 -0.27821 192 192 192 255 0.169393 0.063444
-2.36442 1.22058 0.34367 -0.278214 3 -2.21869 192 192 192 255 0.169393 0.063444
-2.58812 1.22058 0.492928 -2.21869 3 0.278219 192 192 192 255 0.169393 0.063444
-2.36442 1.22058 0.34367 -0.278214 3 -2.21869 192 192 192 255 0.199625 0.06284
-2.21755 1.22058 0.563801 2.2187 3 -0.27821 192 192 192 255 0.199625 0.06284
-2.44124 1.22058 0.713058 0.278215 3 2.2187 192 192 192 255 0.199625 0.06284
-2.58812 1.22058 0.492928 -2.21869 3 0.278219 192 192 192 255 0.199625 0.06284
-2.31417 1.22058 0.10202 1.10864 3 -1.94188 192 192 192 255 0.142788 0.066467
-1.97512 1.22058 0.610165 1.94189 3 1.10864 192 192 192 255 0.142788 0.066467
-1.97512 1.12292 0.610165 2.21869 -1 -0.278218 192 192 192 255 0.142788 0.066467
-2.31417 1.12292 0.10202 -0.278215 -2 -2.21869 192 192 192 255 0.142788 0.066467
-1.97512 1.22058 0.610165 1.94189 3 1.10864 192 192 192 255 0.169393 0.063444
-2.4915 1.22058 0.954712 -1.10864 3 1.94188 192 192 192 255 0.169393 0.063444
-2.4915 1.22058 0.954712 -1.10864 3 1.94188 192 192 192 255 0.142788 0.066467
-2.83055 1.22058 0.446564 -1.94188 3 -1.10865 192 192 192 255 0.142788 0.066467
-2.83055 1.12292 0.446564 -2.21869 -1 0.278212 192 192 192 255 0.142788 0.066467
-2.4915 1.12292 0.954712 0.27822 -2 2.21869 192 192 192 255 0.142788 0.066467
-2.83055 1.22058 0.446564 -1.94188 3 -1.10865 192 192 192 255 0.169393 0.063444
-2.31417 1.22058 0.10202 1.10864 3 -1.94188 192 192 192 255 0.169393 0.063444
-0.552544 2.40346 0.036945 -1 2 -2 192 192 192 255 0.390508 0.063072
-0.552544 2.40346 0.163342 -2 1 3 192 192 192 255 0.390508 0.063072
0.571056 2.40346 0.036945 2 1 -1 192 192 192 255 0.301625 0.063677
0.571056 2.40346 0.163342 1 2 3 192 192 192 255 0.301625 0.063677
0.571056 1.40715 0.036945 1 -2 -2 192 192 192 255 0.234509 0.063677
-0.552544 1.40715 0.036945 -2 -1 -1 192 192 192 255 0.234509 0.063677
-0.552544 2.40346 0.036945 -1 2 -2 192 192 192 255 0.234509 0.063677
0.571056 2.40346 0.036945 2 1 -1 192 192 192 255 0.234509 0.063677
-0.552544 1.40715 0.163342 -1 -2 3 192 192 192 255 0.357252 0.063072
0.571056 1.40715 0.163342 2 -1 3 192 192 192 255 0.357252 0.063072
0.502554 1.47328 0.163342 0 0 4 192 192 192 255 0.357252 0.063072
-0.484039 1.47328 0.163342 0 0 5 192 192 192 255 0.357252 0.063072
0.571056 2.40346 0.163342 1 2 3 192 192 192 255 0.357252 0.063072
0.502554 2.33733 0.163342 0 0 5 192 192 192 255 0.357252 0.063072
-0.552544 2.40346 0.163342 -2 1 3 192 192 192 255 0.357252 0.063072
-0.484039 2.33733 0.163342 0 0 4 192 192 192 255 0.357252 0.063072
-0.133949 2.07383 -0.227684 -1 2 -2 192 192 192 255 0.169393 0.063444
-0.133949 2.07383 0.036945 -2 1 1 192 192 192 255 0.169393 0.063444
0.134972 2.07383 -0.227684 2 1 -1 192 192 192 255 0.142788 0.066468
0.134972 2.07383 0.036945 1 2 2 192 192 192 255 0.142788 0.066468
-0.133949 1.22058 0.036945 -1 3 2 192 192 192 255 0.169393 0.063444
0.134972 1.22058 0.036945 2 3 1 192 192 192 255 0.169393 0.063444
0.134972 1.22058 -0.227684 1 3 -2 192 192 192 255 0.169393 0.063444
-0.133949 1.22058 -0.227684 -2 3 -1 192 192 192 255 0.169393 0.063444
0.134972 1.22058 -0.227684 1 3 -2 192 192 192 255 0.199625 0.06284
0.134972 1.22058 0.036945 2 3 1 192 192 192 255 0.199625 0.06284
-0.133949 1.22058 0.036945 -1 3 2 192 192 192 255 0.199625 0.06284
-0.133949 1.22058 -0.227684 -2 3 -1 192 192 192 255 0.199625 0.06284
0.310898 1.22058 -0.400806 2 3 -1 192 192 192 255 0.142788 0.066467
0.310898 1.22058 0.210068 1 3 2 192 192 192 255 0.142788 0.066467
0.310898 1.12292 0.210068 2 -1 1 192 192 192 255 0.142788 0.066467
0.310898 1.12292 -0.400806 1 -2 -2 192 192 192 255 0.142788 0.066467
0.310898 1.22058 0.210068 1 3 2 192 192 192 255 0.169393 0.063444
-0.309875 1.22058 0.210068 -2 3 1 192 192 192 255 0.169393 0.063444
-0.309875 1.22058 0.210068 -2 3 1 192 192 192 255 0.142788 0.066467
-0.309875 1.22058 -0.400806 -1 3 -2 192 192 192 255 0.142788 0.066467
-0.309875 1.12292 -0.400806 -2 -1 -1 192 192 192 255 0.142788 0.066467
-0.309875 1.12292 0.210068 -1 -2 2 192 192 192 255 0.142788 0.066467
-0.309875 1.22058 -0.400806 -1 3 -2 192 192 192 255 0.169393 0.063444
0.310898 1.22058 -0.400806 2 3 -1 192 192 192 255 0.169393 0.063444
0.679268 2.48418 0.039303 -0.506581 2 -2.17791 192 192 192 255 0.390508 0.063072
0.649826 2.48418 0.16222 -2.64382 0.999978 2.45159 192 192 192 255 0.390508 0.063072
1.77196 2.48418 0.301052 2.17793 1 -0.506595 192 192 192 255 0.301625 0.063677
1.74251 2.48418 0.423969 0.273597 1.99996 3.1504 192 192 192 255 0.301625 0.063677
1.77196 1.48788 0.301052 1.4384 -2 -1.71203 192 192 192 255 0.234509 0.063677
0.679268 1.48788 0.039303 -1.71203 -1 -1.43836 192 192 192 255 0.234509 0.063677
0.679268 2.48418 0.039303 -0.506581 2 -2.17791 192 192 192 255 0.234509 0.063677
1.77196 2.48418 0.301052 2.17793 1 -0.506595 192 192 192 255 0.234509 0.063677
0.649826 1.48788 0.16222 -1.67134 -1.99996 2.68453 192 192 192 255 0.357252 0.063072
1.74251 1.48788 0.423969 1.24606 -0.999978 3.38334 192 192 192 255 0.357252 0.063072
1.6759 1.55401 0.408009 -0.931847 4.47677e-005 3.88994 192 192 192 255 0.357252 0.063072
0.716444 1.55401 0.178177 -1.16475 2.23839e-005 4.86244 192 192 192 255 0.357252 0.063072
1.74251 2.48418 0.423969 0.273597 1.99996 3.1504 192 192 192 255 0.357252 0.063072
1.6759 2.41805 0.408009 -1.16483 -2.23171e-005 4.86242 192 192 192 255 0.357252 0.063072
0.649826 2.48418 0.16222 -2.64382 0.999978 2.45159 192 192 192 255 0.357252 0.063072
0.716444 2.41805 0.178177 -0.931805 -4.46342e-005 3.88995 192 192 192 255 0.357252 0.063072
1.16693 2.15455 -0.115997 -0.506586 2 -2.17793 192 192 192 255 0.169393 0.063444
1.10528 2.15455 0.141354 -2.17793 1 0.506581 192 192 192 255 0.169393 0.063444
1.42845 2.15455 -0.053352 2.17792 1 -0.506573 192 192 192 255 0.142788 0.066468
1.3668 2.15455 0.203999 0.506583 2 2.17793 192 192 192 255 0.142788 0.066468
1.10528 1.22058 0.141354 -1.43839 3 1.71202 192 192 192 255 0.169393 0.063444
1.3668 1.22058 0.203999 1.71202 3 1.4384 192 192 192 255 0.169393 0.063444
1.42845 1.22058 -0.053352 1.43839 3 -1.71202 192 192 192 255 0.169393 0.063444
1.16693 1.22058 -0.115997 -1.71202 3 -1.4384 192 192 192 255 0.169393 0.063444
1.42845 1.22058 -0.053352 1.43839 3 -1.71202 192 192 192 255 0.199625 0.06284
1.3668 1.22058 0.203999 1.71202 3 1.4384 192 192 192 255 0.199625 0.06284
1.10528 1.22058 0.141354 -1.43839 3 1.71202 192 192 192 255 0.199625 0.06284
1.16693 1.22058 -0.115997 -1.71202 3 -1.4384 192 192 192 255 0.199625 0.06284
1.63986 1.22058 -0.180729 2.17793 3 -0.506575 192 192 192 255 0.142788 0.066467
1.49756 1.22058 0.413338 0.506577 3 2.17793 192 192 192 255 0.142788 0.066467
1.49756 1.12292 0.413338 1.71202 -1 1.4384 192 192 192 255 0.142788 0.066467
1.63986 1.12292 -0.180729 1.43839 -2 -1.71202 192 192 192 255 0.142788 0.066467
1.49756 1.22058 0.413338 0.506577 3 2.17793 192 192 192 255 0.169393 0.063444
0.893864 1.22058 0.268726 -2.17793 3 0.506574 192 192 192 255 0.169393 0.063444
0.893864 1.22058 0.268726 -2.17793 3 0.506574 192 192 192 255 0.142788 0.066467
1.03617 1.22058 -0.32534 -0.50658 3 -2.17793 192 192 192 255 0.142788 0.066467
1.03617 1.12292 -0.32534 -1.71202 -1 -1.4384 192 192 192 255 0.142788 0.066467
0.893864 1.12292 0.268726 -1.4384 -2 1.71202 192 192 192 255 0.142788 0.066467
1.03617 1.22058 -0.32534 -0.50658 3 -2.17793 192 192 192 255 0.169393 0.063444
1.63986 1.22058 -0.180729 2.17793 3 -0.506575 192 192 192 255 0.169393 0.063444
1.87125 2.57466 0.31189 0.15589 2 -2.23063 192 192 192 255 0.390508 0.063072
1.80699 2.57466 0.420723 -3.24757 0.999997 1.56627 192 192 192 255 0.390508 0.063072
2.83876 2.57466 0.883221 2.23064 1 0.155876 192 192 192 255 0.301625 0.063677
2.77449 2.57466 0.992054 -0.664362 1.99999 3.0917 192 192 192 255 0.301625 0.063677
2.83876 1.57835 0.883221 1.87804 -2 -1.21367 192 192 192 255 0.234509 0.063677
1.87125 1.57835 0.31189 -1.21367 -1 -1.87803 192 192 192 255 0.234509 0.063677
1.87125 2.57466 0.31189 0.15589 2 -2.23063 192 192 192 255 0.234509 0.063677
2.83876 2.57466 0.883221 2.23064 1 0.155876 192 192 192 255 0.234509 0.063677
1.80699 1.57835 0.420723 -2.38651 -1.99999 2.07474 192 192 192 255 0.357252 0.063072
2.77449 1.57835 0.992054 0.196722 -0.999997 3.60017 192 192 192 255 0.357252 0.063072
2.7155 1.64448 0.957222 -2.03392 6.35334e-006 3.44429 192 192 192 255 0.357252 0.063072
1.86597 1.64448 0.455555 -2.54239 3.17667e-006 4.30538 192 192 192 255 0.357252 0.063072
2.77449 2.57466 0.992054 -0.664362 1.99999 3.0917 192 192 192 255 0.357252 0.063072
2.7155 2.50852 0.957222 -2.5424 -3.2301e-006 4.30537 192 192 192 255 0.357252 0.063072
1.80699 2.57466 0.420723 -3.24757 0.999997 1.56627 192 192 192 255 0.357252 0.063072
1.86597 2.50852 0.455555 -2.03392 -6.4602e-006 3.4443 192 192 192 255 0.357252 0.063072
2.38202 2.24503 0.306179 0.155895 2 -2.23062 192 192 192 255 0.169393 0.063444
2.24746 2.24503 0.534046 -2.23063 1 -0.155891 192 192 192 255 0.169393 0.063444
2.61358 2.24503 0.442921 2.23063 1 0.155891 192 192 192 255 0.142788 0.066468
2.47902 2.24503 0.670788 -0.155895 2 2.23062 192 192 192 255 0.142788 0.066468
2.24746 1.22058 0.534046 -1.87804 3 1.21366 192 192 192 255 0.169393 0.063444
2.47902 1.22058 0.670788 1.21366 3 1.87803 192 192 192 255 0.169393 0.063444
2.61358 1.22058 0.442921 1.87804 3 -1.21366 192 192 192 255 0.169393 0.063444
2.38202 1.22058 0.306179 -1.21366 3 -1.87803 192 192 192 255 0.169393 0.063444
2.61358 1.22058 0.442921 1.87804 3 -1.21366 192 192 192 255 0.199625 0.06284
2.47902 1.22058 0.670788 1.21366 3 1.87803 192 192 192 255 0.199625 0.06284
2.24746 1.22058 0.534046 -1.87804 3 1.21366 192 192 192 255 0.199625 0.06284
2.38202 1.22058 0.306179 -1.21366 3 -1.87803 192 192 192 255 0.199625 0.06284
2.85309 1.22058 0.383305 2.23063 3 0.155886 192 192 192 255 0.142788 0.066467
2.54247 1.22058 0.909313 -0.155887 3 2.23063 192 192 192 255 0.142788 0.066467
2.54247 1.12292 0.909313 1.21367 -1 1.87803 192 192 192 255 0.142788 0.066467
2.85309 1.12292 0.383305 1.87804 -2 -1.21367 192 192 192 255 0.142788 0.066467
2.54247 1.22058 0.909313 -0.155887 3 2.23063 192 192 192 255 0.169393 0.063444
2.00794 1.22058 0.593662 -2.23063 3 -0.155888 192 192 192 255 0.169393 0.063444
2.00794 1.22058 0.593662 -2.23063 3 -0.155888 192 192 192 255 0.142788 0.066467
2.31856 1.22058 0.067654 0.155889 3 -2.23063 192 192 192 255 0.142788 0.066467
2.31856 1.12292 0.067654 -1.21367 -1 -1.87803 192 192 192 255 0.142788 0.066467
2.00794 1.12292 0.593662 -1.87803 -2 1.21367 192 192 192 255 0.142788 0.066467
2.31856 1.22058 0.067654 0.155889 3 -2.23063 192 192 192 255 0.169393 0.063444
2.85309 1.22058 0.383305 2.23063 3 0.155886 192 192 192 255 0.169393 0.063444
-1.07652 1.22931 0.848686 3 1 -1 192 192 192 255 0.266972 0.47744
-1.07652 1.22931 0.917728 0 5 0 192 192 192 255 0.266972 0.47744
-1.07652 1.15874 0.848686 1 -2 -4 192 192 192 255 0.229146 0.47744
-1.07652 1.15874 1.04047 2 -1 1 192 192 192 255 0.229146 0.47744
-1.21195 1.15874 1.04047 -1 -2 2 192 192 192 255 0.229146 0.47744
-1.21195 1.15874 0.848686 -4 -1 -1 192 192 192 255 0.229146 0.47744
-1.21195 1.15874 1.04047 -1 -2 2 192 192 192 255 0.291508 0.47744
-1.07652 1.15874 1.04047 2 -1 1 192 192 192 255 0.291508 0.47744
-1.07652 1.22931 1.04047 2 1 2 192 192 192 255 0.291508 0.47744
-1.21195 1.22931 1.04047 -2 2 1 192 192 192 255 0.291508 0.47744
-1.07652 1.15874 0.848686 1 -2 -4 192 192 192 255 0.291508 0.47744
-1.21195 1.15874 0.848686 -4 -1 -1 192 192 192 255 0.291508 0.47744
-1.21195 1.22931 0.848686 -1 2 -2 192 192 192 255 0.291508 0.47744
-1.14047 1.22931 0.848686 0 3 -2 192 192 192 255 0.291508 0.47744
-1.07652 1.22931 0.848686 3 1 -1 192 192 192 255 0.291508 0.47744
-1.07652 1.22931 0.9254 1 3 0 192 192 192 255 0.325245 0.47744
-1.21195 1.22931 0.9254 -2 3 0 192 192 192 255 0.325245 0.47744
-1.21195 1.22931 1.04047 -2 2 1 192 192 192 255 0.325245 0.47744
-1.07652 1.22931 1.04047 2 1 2 192 192 192 255 0.325245 0.47744
-1.07652 1.22931 0.917728 0 5 0 192 192 192 255 0.264874 0.47744
-1.14047 1.22931 0.917728 0 3 0 192 192 192 255 0.264874 0.47744
-1.21195 1.22931 0.917728 -2 3 0 192 192 192 255 0.264874 0.47744
-1.21195 1.22931 0.9254 -2 3 0 192 192 192 255 0.264874 0.47744
-1.07652 1.22931 0.9254 1 3 0 192 192 192 255 0.264874 0.47744
-1.14821 1.22931 0.848686 0 3 -2 192 192 192 255 0.264874 0.47744
-1.14047 1.22931 0.848686 0 3 -2 192 192 192 255 0.264874 0.47744
-1.21195 1.22931 0.848686 -1 2 -2 192 192 192 255 0.325245 0.47744
-1.21195 1.22931 0.917728 -2 3 0 192 192 192 255 0.325245 0.47744
-1.14821 1.22931 0.917728 0 4 0 192 192 192 255 0.325245 0.47744
-1.14821 1.22931 0.848686 0 3 -2 192 192 192 255 0.325245 0.47744
-1.39647 1.15874 0.636078 -1 2 -2 192 192 192 255 0.265633 0.380042
-1.39647 1.15874 1.19369 -2 1 1 192 192 192 255 0.265633 0.380042
-0.838856 1.15874 0.636078 2 1 -1 192 192 192 255 0.20736 0.380042
-0.838856 1.15874 1.19369 1 2 2 192 192 192 255 0.20736 0.380042
-0.838856 1.13274 0.636078 1 -2 -2 192 192 192 255 0.169534 0.380042
-0.838856 1.13274 1.19369 2 -1 1 192 192 192 255 0.169534 0.380042
-1.39647 1.13274 1.19369 -1 -2 2 192 192 192 255 0.169534 0.380042
-1.39647 1.13274 0.636078 -2 -1 -1 192 192 192 255 0.169534 0.380042
-1.39647 1.13274 1.19369 -1 -2 2 192 192 192 255 0.231896 0.380042
-0.838856 1.13274 1.19369 2 -1 1 192 192 192 255 0.231896 0.380042
-0.838856 1.15874 1.19369 1 2 2 192 192 192 255 0.231896 0.380042
-1.39647 1.15874 1.19369 -2 1 1 192 192 192 255 0.231896 0.380042
-0.838856 1.13274 0.636078 1 -2 -2 192 192 192 255 0.231896 0.380042
-1.39647 1.13274 0.636078 -2 -1 -1 192 192 192 255 0.231896 0.380042
-1.39647 1.15874 0.636078 -1 2 -2 192 192 192 255 0.231896 0.380042
-0.838856 1.15874 0.636078 2 1 -1 192 192 192 255 0.231896 0.380042
-2.79798 1.04368 -0.411057 2 0.999957 0.990741 192 192 192 255 0.201981 0.329239
-2.79798 2.54741 -0.411057 0.999558 -1.99999 2.00498 192 192 192 255 0.201981 0.329239
-2.79798 2.55029 0.249607 4.99978 -0.999997 1.00249 192 192 192 255 0.17719 0.331658
-2.79798 2.54741 -0.411057 0.999558 -1.99999 2.00498 192 192 192 255 0.17719 0.331658
2.79798 2.54741 -0.411057 -2.00022 -0.999997 1.00249 192 192 192 255 0.17719 0.331658
2.79798 2.54782 0.249607 -3.00044 -1.99999 2.00498 192 192 192 255 0.234632 0.329239
-2.79798 2.70187 0.249607 1 3.03481 3.91971 192 192 192 255 0.234632 0.329239
-2.79798 2.55029 0.249607 4.99978 -0.999997 1.00249 192 192 192 255 0.234632 0.329239
2.79798 2.70187 0.249607 -2 4.03481 2.91971 192 192 192 255 0.295097 0.329239
-3.35913 1.13274 -0.877643 -1 2 -2 192 192 192 255 0.352063 0.446661
-3.35913 1.13274 1.45491 -2 1 1 192 192 192 255 0.352062 0.446661
3.35913 1.13274 -0.877644 2 1 -1 192 192 192 255 0.268621 0.443638
3.35913 1.13274 1.45491 1 2 2 192 192 192 255 0.268621 0.443638
3.35913 0.954621 -0.877644 1 -2 -2 192 192 192 255 0.234761 0.444242
3.35913 0.954621 1.45491 2 -1 1 192 192 192 255 0.234761 0.444242
-3.35913 0.954621 1.45491 -1 -2 2 192 192 192 255 0.234761 0.444242
-3.35913 0.954621 -0.877643 -2 -1 -1 192 192 192 255 0.234761 0.444242
-3.66263 2.70187 -1.45491 -2 3.47382 -3 192 192 192 255 0.234632 0.329239
3.66263 2.70187 -1.45491 1 2.47382 -3 192 192 192 255 0.234632 0.329239
3.66263 0 -1.45491 2 -2 -3 192 192 192 255 0.234632 0.329239
-3.66263 0 -1.45491 -2 -4 -3 192 192 192 255 0.234632 0.329239
-2.79798 1.04739 -0.010445 3.23362 5.1181 1.07095 192 192 192 255 0.326185 0.330317
2.79798 1.04368 -0.411057 -1 1.99991 1.98148 192 192 192 255 0.326185 0.330317
-2.79798 1.04368 -0.411057 2 0.999957 0.990741 192 192 192 255 0.326185 0.330317
2.79798 1.04739 -0.010445 -4.23373 3.11813 1.08942 192 192 192 255 0.201981 0.329239
2.79798 2.54782 0.249607 -3.00044 -1.99999 2.00498 192 192 192 255 0.201981 0.329239
2.79798 2.54741 -0.411057 -2.00022 -0.999997 1.00249 192 192 192 255 0.201981 0.329239
2.79798 1.04368 -0.411057 -1 1.99991 1.98148 192 192 192 255 0.201981 0.329239
2.70451 1.04826 0.083023 -0.616863 2.55902 1.53544 192 192 192 255 0.176586 0.330449
-2.70451 1.04826 0.083023 0.616809 1.55909 2.54473 192 192 192 255 0.176586 0.330449
-2.79798 0 0.083023 1 -2 2 192 192 192 255 0.176586 0.330449
2.79798 0 0.083023 -2 -4 1 192 192 192 255 0.176586 0.330449
-3.66263 1.14173 -1.45491 -3 0 -3 192 192 192 255 0.293534 0.330317
-3.66263 0.954781 -1.45491 -2 0 -3 192 192 192 255 0.293534 0.330316
-3.66263 1.13817 0.706562 -3 0.560992 3.91971 192 192 192 255 0.326185 0.330317
-3.66263 0.954781 0.706562 -4 0 2 192 192 192 255 0.326185 0.330317
-2.79798 0.954781 0.083023 5.23362 1.11827 3.108 192 192 192 255 0.293534 0.330317
-2.79798 1.14116 0.093327 3.61681 0.559137 0.553998 192 192 192 255 0.293534 0.330317
-2.79798 1.13817 0.706562 4 0.280496 1.95986 192 192 192 255 0.293534 0.330317
-2.79798 0.954781 0.706562 2 0 4 192 192 192 255 0.293534 0.330317
2.79798 1.14116 0.093346 -5.61686 0.559106 0.553968 192 192 192 255 0.293534 0.330317
2.79798 0.954781 0.083023 -3.23373 1.11821 5.10794 192 192 192 255 0.293534 0.330317
2.79798 1.13817 0.706562 -2 0.280496 2.95986 192 192 192 255 0.326185 0.330317
2.79798 0.954781 0.706562 -4 0 2 192 192 192 255 0.326185 0.330317
3.66263 0.954781 -1.45491 3 0 -3 192 192 192 255 0.293534 0.330317
3.66263 1.14173 -1.45491 3 0 -3 192 192 192 255 0.293534 0.330317
3.66263 1.13817 0.706562 3 0.560992 2.91971 192 192 192 255 0.293534 0.330317
3.66263 0.954781 0.706562 3 0 4 192 192 192 255 0.293534 0.330317
-3.30168 0.954781 -1.45491 0 0 -7 192 192 192 255 0.288092 0.330921
-3.30168 1.14173 -1.45491 0 0 -6 192 192 192 255 0.288092 0.330921
3.30168 1.14173 -1.45491 0 0 -6 192 192 192 255 0.288092 0.330921
3.30168 0.954781 -1.45491 0 0 -5 192 192 192 255 0.288092 0.330921
-3.66263 2.70187 -1.45491 -2 3.47382 -3 192 192 192 255 0.201981 0.329239
-3.66263 1.14173 -1.45491 -3 0 -3 192 192 192 255 0.201981 0.329239
-3.66263 1.13817 0.706562 -3 0.560992 3.91971 192 192 192 255 0.201981 0.329239
-3.66263 2.70187 0.249607 -1 1.75431 0.959855 192 192 192 255 0.201981 0.329239
3.66263 1.14173 -1.45491 3 0 -3 192 192 192 255 0.201981 0.329239
3.66263 2.70187 -1.45491 1 2.47382 -3 192 192 192 255 0.201981 0.329239
3.66263 2.70187 0.249607 2 1.75431 0.959855 192 192 192 255 0.201981 0.329239
3.66263 1.13817 0.706562 3 0.560992 2.91971 192 192 192 255 0.201981 0.329239
-3.66263 1.13817 0.706562 -3 0.560992 3.91971 192 192 192 255 0.234632 0.329239
-2.79798 1.13817 0.706562 4 0.280496 1.95986 192 192 192 255 0.234632 0.329239
-3.66263 2.70187 0.249607 -1 1.75431 0.959855 192 192 192 255 0.234632 0.329239
-3.30168 1.14173 -1.45491 0 0 -6 192 192 192 255 0.196539 0.329844
-3.30168 2.39352 -1.45491 0 0 -4 192 192 192 255 0.196539 0.329844
3.30168 2.39352 -1.45491 0 0 -5 192 192 192 255 0.196539 0.329844
3.30168 1.14173 -1.45491 0 0 -6 192 192 192 255 0.196539 0.329844
2.79798 1.13817 0.706562 -2 0.280496 2.95986 192 192 192 255 0.234632 0.329239
3.66263 1.13817 0.706562 3 0.560992 2.91971 192 192 192 255 0.234632 0.329239
3.66263 2.70187 0.249607 2 1.75431 0.959855 192 192 192 255 0.234632 0.329239
2.79798 2.70187 0.249607 -2 4.03481 2.91971 192 192 192 255 0.201981 0.329239
2.79798 1.13817 0.706562 -2 0.280496 2.95986 192 192 192 255 0.201981 0.329239
3.30168 0.308351 -1.45491 0 0 -5 192 192 192 255 0.196539 0.329844
-3.30168 0.308351 -1.45491 0 0 -4 192 192 192 255 0.196539 0.329844
-3.30168 0.954781 -1.45491 0 0 -7 192 192 192 255 0.196539 0.329844
3.30168 0.954781 -1.45491 0 0 -5 192 192 192 255 0.196539 0.329844
3.66263 0 -1.45491 2 -2 -3 192 192 192 255 0.201981 0.329239
3.66263 0.954781 -1.45491 3 0 -3 192 192 192 255 0.201981 0.329239
3.66263 0.954781 0.706562 3 0 4 192 192 192 255 0.201981 0.329239
3.66263 0 0.706562 1 -2 1 192 192 192 255 0.201981 0.329239
-2.79798 0.954781 0.083023 5.23362 1.11827 3.108 192 192 192 255 0.201981 0.329239
-2.79798 0.954781 0.706562 2 0 4 192 192 192 255 0.201981 0.329239
-2.79798 0 0.706562 2 -2 1 192 192 192 255 0.201981 0.329239
-2.79798 0 0.083023 1 -2 2 192 192 192 255 0.201981 0.329239
-2.79798 0.954781 0.706562 2 0 4 192 192 192 255 0.234632 0.329239
-3.66263 0.954781 0.706562 -4 0 2 192 192 192 255 0.234632 0.329239
-3.66263 0 0.706562 -1 -1 2 192 192 192 255 0.234632 0.329239
-2.79798 0 0.706562 2 -2 1 192 192 192 255 0.234632 0.329239
-3.66263 0 -1.45491 -2 -4 -3 192 192 192 255 0.201981 0.329239
-3.66263 0 0.706562 -1 -1 2 192 192 192 255 0.201981 0.329239
-3.66263 0.954781 0.706562 -4 0 2 192 192 192 255 0.201981 0.329239
-3.66263 0.954781 -1.45491 -2 0 -3 192 192 192 255 0.201981 0.329239
3.66263 0.954781 0.706562 3 0 4 192 192 192 255 0.234632 0.329239
2.79798 0.954781 0.706562 -4 0 2 192 192 192 255 0.234632 0.329239
2.79798 0 0.706562 -1 -1 2 192 192 192 255 0.234632 0.329239
3.66263 0 0.706562 1 -2 1 192 192 192 255 0.234632 0.329239
2.79798 0.954781 0.706562 -4 0 2 192 192 192 255 0.201981 0.329239
2.79798 0.954781 0.083023 -3.23373 1.11821 5.10794 192 192 192 255 0.201981 0.329239
2.79798 0 0.083023 -2 -4 1 192 192 192 255 0.201981 0.329239
2.79798 0 0.706562 -1 -1 2 192 192 192 255 0.201981 0.329239
-2.79798 1.13817 0.706562 4 0.280496 1.95986 192 192 192 255 0.201981 0.329239
-2.79798 2.70187 0.249607 1 3.03481 3.91971 192 192 192 255 0.201981 0.329239
-3.66263 1.14173 -1.45491 -3 0 -3 192 192 192 255 0.234632 0.329239
-3.30168 1.14173 -1.45491 0 0 -6 192 192 192 255 0.234632 0.329239
3.66263 1.14173 -1.45491 3 0 -3 192 192 192 255 0.234632 0.329239
3.30168 1.14173 -1.45491 0 0 -6 192 192 192 255 0.234632 0.329239
-3.66263 0.954781 -1.45491 -2 0 -3 192 192 192 255 0.234632 0.329239
-3.30168 0.954781 -1.45491 0 0 -7 192 192 192 255 0.234632 0.329239
3.66263 0.954781 -1.45491 3 0 -3 192 192 192 255 0.234632 0.329239
3.30168 0.954781 -1.45491 0 0 -5 192 192 192 255 0.234632 0.329239
-2.79798 1.04739 -0.010445 3.23362 5.1181 1.07095 192 192 192 255 0.268139 0.331526
-2.79798 1.14116 0.093327 3.61681 0.559137 0.553998 192 192 192 255 0.268139 0.331526
-2.79798 0.954781 0.083023 5.23362 1.11827 3.108 192 192 192 255 0.268139 0.331526
-2.70451 1.04826 0.083023 0.616809 1.55909 2.54473 192 192 192 255 0.268139 0.331526
2.79798 1.04739 -0.010445 -4.23373 3.11813 1.08942 192 192 192 255 0.293534 0.330317
2.70451 1.04826 0.083023 -0.616863 2.55902 1.53544 192 192 192 255 0.293534 0.330317
3 0 1 3 
3 0 3 2 
3 200 201 5 
3 200 5 4 
3 202 203 7 
3 202 7 6 
3 204 205 206 
3 204 206 207 
3 208 209 210 
3 208 210 211 
3 212 213 214 
3 212 214 215 
3 8 9 11 
3 8 11 10 
3 216 217 13 
3 216 13 12 
3 218 219 15 
3 218 15 14 
3 14 15 9 
3 14 9 8 
3 17 16 18 
3 17 18 19 
3 220 221 222 
3 220 222 223 
3 224 225 226 
3 224 226 227 
3 225 228 229 
3 225 229 226 
3 228 230 231 
3 228 231 229 
3 230 224 227 
3 230 227 231 
3 20 21 23 
3 20 23 22 
3 232 233 25 
3 232 25 24 
3 234 235 27 
3 234 27 26 
3 32 33 34 
3 32 34 35 
3 236 237 25 
3 236 25 233 
3 238 239 232 
3 238 232 24 
3 240 241 29 
3 240 29 28 
3 241 242 30 
3 241 30 29 
3 242 243 31 
3 242 31 30 
3 243 240 28 
3 243 28 31 
3 244 245 246 
3 244 246 247 
3 248 249 34 
3 248 34 33 
3 250 251 252 
3 250 252 253 
3 254 255 32 
3 254 32 35 
3 36 37 39 
3 36 39 38 
3 256 257 41 
3 256 41 40 
3 258 259 43 
3 258 43 42 
3 42 43 37 
3 42 37 36 
3 45 44 46 
3 45 46 47 
3 260 261 262 
3 260 262 263 
3 264 265 266 
3 264 266 267 
3 265 268 269 
3 265 269 266 
3 268 270 271 
3 268 271 269 
3 270 264 267 
3 270 267 271 
3 48 49 51 
3 48 51 50 
3 272 273 53 
3 272 53 52 
3 274 275 55 
3 274 55 54 
3 60 61 62 
3 60 62 63 
3 276 277 53 
3 276 53 273 
3 278 279 272 
3 278 272 52 
3 280 281 57 
3 280 57 56 
3 281 282 58 
3 281 58 57 
3 282 283 59 
3 282 59 58 
3 283 280 56 
3 283 56 59 
3 284 285 286 
3 284 286 287 
3 288 289 62 
3 288 62 61 
3 290 291 292 
3 290 292 293 
3 294 295 60 
3 294 60 63 
3 64 65 67 
3 64 67 66 
3 296 297 69 
3 296 69 68 
3 298 299 71 
3 298 71 70 
3 70 71 65 
3 70 65 64 
3 73 72 74 
3 73 74 75 
3 300 301 302 
3 300 302 303 
3 304 305 306 
3 304 306 307 
3 305 308 309 
3 305 309 306 
3 308 310 311 
3 308 311 309 
3 310 304 307 
3 310 307 311 
3 76 77 79 
3 76 79 78 
3 312 313 81 
3 312 81 80 
3 314 315 83 
3 314 83 82 
3 88 89 90 
3 88 90 91 
3 316 317 81 
3 316 81 313 
3 318 319 312 
3 318 312 80 
3 320 321 85 
3 320 85 84 
3 321 322 86 
3 321 86 85 
3 322 323 87 
3 322 87 86 
3 323 320 84 
3 323 84 87 
3 324 325 326 
3 324 326 327 
3 328 329 90 
3 328 90 89 
3 330 331 332 
3 330 332 333 
3 334 335 88 
3 334 88 91 
3 92 93 95 
3 92 95 94 
3 336 337 97 
3 336 97 96 
3 338 339 99 
3 338 99 98 
3 98 99 93 
3 98 93 92 
3 101 100 102 
3 101 102 103 
3 340 341 342 
3 340 342 343 
3 344 345 346 
3 344 346 347 
3 345 348 349 
3 345 349 346 
3 348 350 351 
3 348 351 349 
3 350 344 347 
3 350 347 351 
3 104 105 107 
3 104 107 106 
3 352 353 109 
3 352 109 108 
3 354 355 111 
3 354 111 110 
3 116 117 118 
3 116 118 119 
3 356 357 109 
3 356 109 353 
3 358 359 352 
3 358 352 108 
3 360 361 113 
3 360 113 112 
3 361 362 114 
3 361 114 113 
3 362 363 115 
3 362 115 114 
3 363 360 112 
3 363 112 115 
3 364 365 366 
3 364 366 367 
3 368 369 118 
3 368 118 117 
3 370 371 372 
3 370 372 373 
3 374 375 116 
3 374 116 119 
3 120 121 123 
3 120 123 128 
3 120 128 130 
3 120 130 122 
3 132 133 131 
3 132 131 124 
3 376 377 129 
3 376 129 125 
3 376 125 127 
3 376 127 126 
3 378 379 380 
3 378 380 381 
3 382 383 384 
3 382 384 385 
3 386 387 388 
3 386 388 134 
3 386 134 389 
3 386 389 390 
3 391 392 393 
3 391 393 394 
3 395 396 135 
3 395 135 397 
3 395 397 398 
3 395 398 399 
3 400 135 396 
3 400 396 401 
3 402 403 404 
3 402 404 405 
3 136 137 139 
3 136 139 138 
3 406 407 141 
3 406 141 140 
3 408 409 143 
3 408 143 142 
3 410 411 412 
3 410 412 413 
3 414 415 416 
3 414 416 417 
3 418 419 420 
3 418 420 421 
3 144 147 146 
3 153 152 156 
3 153 156 157 
3 161 160 162 
3 161 162 163 
3 158 181 180 
3 158 180 422 
3 158 422 423 
3 159 424 425 
3 159 425 426 
3 427 148 428 
3 427 428 429 
3 144 146 430 
3 144 430 145 
3 145 430 149 
3 164 165 167 
3 164 167 166 
3 431 432 169 
3 431 169 168 
3 433 434 171 
3 433 171 170 
3 435 436 437 
3 435 437 438 
3 165 171 434 
3 165 434 167 
3 170 164 166 
3 170 166 433 
3 151 150 154 
3 151 154 155 
3 153 150 151 
3 153 151 152 
3 439 440 173 
3 439 173 172 
3 441 442 175 
3 441 175 174 
3 443 183 187 
3 443 187 186 
3 443 186 444 
3 443 444 445 
3 446 189 447 
3 446 447 448 
3 446 448 449 
3 188 450 451 
3 188 451 182 
3 188 182 452 
3 188 452 453 
3 176 177 196 
3 176 196 197 
3 454 455 179 
3 454 179 178 
3 456 457 185 
3 456 185 184 
3 458 459 460 
3 458 460 461 
3 462 463 191 
3 462 191 190 
3 464 465 195 
3 464 195 194 
3 192 193 199 
3 192 199 198 
3 466 467 468 
3 466 468 469 
3 470 471 472 
3 470 472 473 
3 474 475 476 
3 474 476 477 
3 478 479 480 
3 478 480 481 
3 482 483 428 
3 482 428 484 
3 485 486 487 
3 485 487 488 
3 148 489 490 
3 148 490 491 
3 492 447 189 
3 492 189 493 
3 494 495 496 
3 494 496 497 
3 498 499 500 
3 498 500 501 
3 502 503 504 
3 502 504 505 
3 506 507 508 
3 506 508 509 
3 510 511 512 
3 510 512 513 
3 514 515 516 
3 514 516 517 
3 518 519 520 
3 518 520 521 
3 522 181 158 
3 522 158 523 
3 524 439 172 
3 524 172 525 
3 440 526 527 
3 440 527 173 
3 442 528 529 
3 442 529 175 
3 530 441 174 
3 530 174 531 
3 532 533 534 
3 532 534 535 
3 536 537 463 
3 536 463 462 
