ply
format ascii 1.0
comment VCGLIB generated
comment TextureFile SpaceInteriors_Texture.png
element vertex 290
property float x
property float y
property float z
property float nx
property float ny
property float nz
property uchar red
property uchar green
property uchar blue
property uchar alpha
property float texture_u
property float texture_v
element face 268
property list uchar int vertex_indices
end_header
2.21429 1.19474 0.962345 3 0 3 192 192 192 255 0.299827 0.44056
2.21429 1.47246 0.962345 2 0 3 192 192 192 255 0.299827 0.44056
2.21429 1.47246 -0.962303 1 0 -2 192 192 192 255 0.331483 0.44056
2.21429 1.19474 -0.962303 3 0 -3 192 192 192 255 0.331483 0.44056
0.903502 1.19474 0.962345 -1 -2 6 192 192 192 255 0.273798 0.44056
0.903502 1.47246 0.962345 0 0 7 192 192 192 255 0.331483 0.44056
0.903502 1.47246 -0.962303 0 0 -3 192 192 192 255 0.331483 0.44056
0.903502 1.19474 -0.962303 -2 -1 -5 192 192 192 255 0.331483 0.44056
2.21429 0 -0.962303 2 -2 -1 192 192 192 255 0.273798 0.44056
0.903502 0 -0.962303 -1 -2 -1 192 192 192 255 0.273798 0.44056
0.903502 0 0.962345 -2 -1 3 192 192 192 255 0.273798 0.44056
2.21429 0 0.962345 1 -1 3 192 192 192 255 0.273798 0.44056
1.56813 1.47246 0.962345 0 0 6 192 192 192 255 0.331483 0.44056
1.56813 1.47246 -0.962303 0 0 -2 192 192 192 255 0.331483 0.44056
1.56813 1.19474 -0.962303 0 0 -6 192 192 192 255 0.331483 0.44056
1.56813 0 -0.962303 0 -2 -4 192 192 192 255 0.273798 0.44056
1.56813 0 0.962345 0 -4 6 192 192 192 255 0.273798 0.44056
1.56813 1.19474 0.962345 0 0 6 192 192 192 255 0.331483 0.44056
0.903502 0.943517 0.962345 -3 0 6 192 192 192 255 0.299827 0.44056
0.903502 0.943517 -0.962303 -3 0 -3 192 192 192 255 0.299827 0.44056
1.56813 0.943517 -0.962303 0 0 -6 192 192 192 255 0.331483 0.44056
2.21429 0.943517 -0.962303 3 0 -3 192 192 192 255 0.331483 0.44056
2.21429 0.943517 0.962345 3 0 6 192 192 192 255 0.299827 0.44056
1.56813 0.943517 0.962345 0 0 12 192 192 192 255 0.331483 0.44056
0.764051 1.23147 0.962345 0 0 6 192 192 192 255 0.331483 0.44056
0.764051 1.43572 0.962345 0 0 5 192 192 192 255 0.331483 0.44056
0 1.47246 0.962345 4.78967e-006 9.09159e-006 2 192 192 192 255 0.331483 0.44056
0 1.47246 -0.962303 0 0 -4 192 192 192 255 0.331483 0.44056
0 1.19474 -0.962303 0 -4 -2 192 192 192 255 0.331483 0.44056
0 1.19474 0.962345 4.78967e-006 -2.00001 2 192 192 192 255 0.273798 0.44056
0 1.23147 0.962345 1.83797e-005 -5.43861e-005 6 192 192 192 255 0.331483 0.44056
0 1.43572 0.962345 2.71801e-005 0.000144553 8 192 192 192 255 0.331483 0.44056
2.17269 1.17416 0.962345 0 0 7 192 192 192 255 0.386353 0.437043
1.60973 1.17416 0.962345 0 0 8 192 192 192 255 0.386353 0.437043
1.60973 1.41612 0.962345 0 0 6 192 192 192 255 0.331483 0.44056
2.17269 1.41612 0.962345 0 0 6 192 192 192 255 0.331483 0.44056
2.17269 0.999856 0.962345 0 0 5 192 192 192 255 0.386353 0.437043
1.60973 0.999856 0.962345 0 0 4 192 192 192 255 0.386353 0.437043
1.52795 1.17541 0.962345 0 0 7 192 192 192 255 0.386353 0.437043
0.943682 1.17541 0.962345 0 0 8 192 192 192 255 0.386353 0.437043
1.52795 0.996421 0.962345 0 0 5 192 192 192 255 0.386353 0.437043
0.943682 0.996421 0.962345 0 0 4 192 192 192 255 0.386353 0.437043
1.52795 1.41955 0.962345 0 0 6 192 192 192 255 0.331483 0.44056
0.943682 1.41955 0.962345 0 0 6 192 192 192 255 0.331483 0.44056
2.16583 0.898715 0.962345 0 0 6 192 192 192 255 0.331483 0.44056
1.61659 0.898715 0.962345 0 0 6 192 192 192 255 0.331483 0.44056
2.16583 0.044802 0.962345 0 0 6 192 192 192 255 0.331483 0.44056
1.61659 0.044802 0.962345 0 0 6 192 192 192 255 0.331483 0.44056
1.51828 0.898715 0.962345 0 0 6 192 192 192 255 0.331483 0.44056
0.953348 0.898715 0.962345 0 0 6 192 192 192 255 0.331483 0.44056
1.51828 0.044802 0.962345 0 0 6 192 192 192 255 0.331483 0.44056
0.953348 0.044802 0.962345 0 0 6 192 192 192 255 0.331483 0.44056
2.01657 1.25481 0.962345 0 0 5 192 192 192 255 0.14225 0.478357
1.76585 1.25481 0.962345 0 0 4 192 192 192 255 0.14225 0.478357
1.76585 1.33546 0.962345 0 0 5 192 192 192 255 0.14225 0.478357
2.01657 1.33546 0.962345 0 0 4 192 192 192 255 0.14225 0.478357
1.36591 1.25679 0.962345 0 0 4 192 192 192 255 0.14225 0.478357
1.36591 1.33817 0.962345 0 0 5 192 192 192 255 0.14225 0.478357
1.10572 1.25679 0.962345 0 0 5 192 192 192 255 0.14225 0.478357
1.10572 1.33817 0.962345 0 0 4 192 192 192 255 0.14225 0.478357
2.01351 0.815048 0.962345 0 0 4 192 192 192 255 0.14225 0.478357
1.76891 0.815048 0.962345 0 0 5 192 192 192 255 0.14225 0.478357
2.01351 0.735276 0.962345 0 0 5 192 192 192 255 0.14225 0.478357
1.76891 0.735276 0.962345 0 0 4 192 192 192 255 0.14225 0.478357
1.36161 0.815048 0.962345 0 0 4 192 192 192 255 0.14225 0.478357
1.11002 0.815048 0.962345 0 0 5 192 192 192 255 0.14225 0.478357
1.36161 0.735276 0.962345 0 0 5 192 192 192 255 0.14225 0.478357
1.11002 0.735276 0.962345 0 0 4 192 192 192 255 0.14225 0.478357
0.143527 1.30689 0.962345 0 0 5 192 192 192 255 0.145767 0.481171
0 1.30689 0.962345 4.54249e-005 -7.24047e-005 6 192 192 192 255 0.145767 0.481171
0 1.39251 0.962345 6.44486e-005 6.31852e-005 6 192 192 192 255 0.145767 0.481171
0.143527 1.39251 0.962345 0 0 4 192 192 192 255 0.145767 0.481171
-2.21429 1.19474 0.962349 -3 0 3 192 192 192 255 0.299827 0.44056
-2.21429 1.47246 0.962349 -2 0 3 192 192 192 255 0.299827 0.44056
-2.21429 1.47246 -0.962303 -1 0 -2 192 192 192 255 0.331483 0.44056
-2.21429 1.19474 -0.962303 -3 0 -3 192 192 192 255 0.331483 0.44056
-0.903502 1.19474 0.962349 1.00001 -2.00002 6 192 192 192 255 0.273798 0.44056
-0.903502 1.47246 0.962349 9.57933e-006 1.81832e-005 7 192 192 192 255 0.331483 0.44056
-0.903502 1.47246 -0.962303 0 0 -3 192 192 192 255 0.331483 0.44056
-0.903502 1.19474 -0.962303 2 -1 -5 192 192 192 255 0.331483 0.44056
-2.21429 0 -0.962303 -2 -2 -1 192 192 192 255 0.273798 0.44056
-0.903502 0 -0.962303 1 -2 -1 192 192 192 255 0.273798 0.44056
-0.903502 0 0.962349 2 -1 3 192 192 192 255 0.273798 0.44056
-2.21429 0 0.962349 -1 -1 3 192 192 192 255 0.273798 0.44056
-1.56813 1.47246 0.962349 0 0 6 192 192 192 255 0.331483 0.44056
-1.56813 1.47246 -0.962303 0 0 -2 192 192 192 255 0.331483 0.44056
-1.56813 1.19474 -0.962303 0 0 -6 192 192 192 255 0.331483 0.44056
-1.56813 0 -0.962303 0 -2 -4 192 192 192 255 0.273798 0.44056
-1.56813 0 0.962349 0 -4 6 192 192 192 255 0.273798 0.44056
-1.56813 1.19474 0.962349 0 0 6 192 192 192 255 0.331483 0.44056
-0.903502 0.943517 0.962349 3 0 6 192 192 192 255 0.299827 0.44056
-0.903502 0.943517 -0.962303 3 0 -3 192 192 192 255 0.299827 0.44056
-1.56813 0.943517 -0.962303 0 0 -6 192 192 192 255 0.331483 0.44056
-2.21429 0.943517 -0.962303 -3 0 -3 192 192 192 255 0.331483 0.44056
-2.21429 0.943517 0.962349 -3 0 6 192 192 192 255 0.299827 0.44056
-1.56813 0.943517 0.962349 0 0 12 192 192 192 255 0.331483 0.44056
-0.764051 1.23147 0.962349 2.23904e-005 -8.14966e-005 6 192 192 192 255 0.331483 0.44056
-0.764051 1.43572 0.962349 1.359e-005 7.22767e-005 5 192 192 192 255 0.331483 0.44056
-2.17269 1.17416 0.962349 0 0 7 192 192 192 255 0.386353 0.437043
-1.60973 1.17416 0.962349 0 0 8 192 192 192 255 0.386353 0.437043
-1.60973 1.41612 0.962349 0 0 6 192 192 192 255 0.331483 0.44056
-2.17269 1.41612 0.962349 0 0 6 192 192 192 255 0.331483 0.44056
-2.17269 0.999856 0.962349 0 0 5 192 192 192 255 0.386353 0.437043
-1.60973 0.999856 0.962349 0 0 4 192 192 192 255 0.386353 0.437043
-1.52795 1.17541 0.962349 0 0 7 192 192 192 255 0.386353 0.437043
-0.943682 1.17541 0.962349 0 0 8 192 192 192 255 0.386353 0.437043
-1.52795 0.996421 0.962349 0 0 5 192 192 192 255 0.386353 0.437043
-0.943682 0.996421 0.962349 0 0 4 192 192 192 255 0.386353 0.437043
-1.52795 1.41955 0.962349 0 0 6 192 192 192 255 0.331483 0.44056
-0.943682 1.41955 0.962349 0 0 6 192 192 192 255 0.331483 0.44056
-2.16583 0.898715 0.962349 0 0 6 192 192 192 255 0.331483 0.44056
-1.61659 0.898715 0.962349 0 0 6 192 192 192 255 0.331483 0.44056
-2.16583 0.044802 0.962349 0 0 6 192 192 192 255 0.331483 0.44056
-1.61659 0.044802 0.962349 0 0 6 192 192 192 255 0.331483 0.44056
-1.51828 0.898715 0.962349 0 0 6 192 192 192 255 0.331483 0.44056
-0.953348 0.898715 0.962349 0 0 6 192 192 192 255 0.331483 0.44056
-1.51828 0.044802 0.962349 0 0 6 192 192 192 255 0.331483 0.44056
-0.953348 0.044802 0.962349 0 0 6 192 192 192 255 0.331483 0.44056
-2.01657 1.25481 0.962349 0 0 5 192 192 192 255 0.14225 0.478357
-1.76585 1.25481 0.962349 0 0 4 192 192 192 255 0.14225 0.478357
-1.76585 1.33546 0.962349 0 0 5 192 192 192 255 0.14225 0.478357
-2.01657 1.33546 0.962349 0 0 4 192 192 192 255 0.14225 0.478357
-1.36591 1.25679 0.962349 0 0 4 192 192 192 255 0.14225 0.478357
-1.36591 1.33817 0.962349 0 0 5 192 192 192 255 0.14225 0.478357
-1.10572 1.25679 0.962349 0 0 5 192 192 192 255 0.14225 0.478357
-1.10572 1.33817 0.962349 0 0 4 192 192 192 255 0.14225 0.478357
-2.01351 0.815048 0.962349 0 0 4 192 192 192 255 0.14225 0.478357
-1.76891 0.815048 0.962349 0 0 5 192 192 192 255 0.14225 0.478357
-2.01351 0.735276 0.962349 0 0 5 192 192 192 255 0.14225 0.478357
-1.76891 0.735276 0.962349 0 0 4 192 192 192 255 0.14225 0.478357
-1.36161 0.815048 0.962349 0 0 4 192 192 192 255 0.14225 0.478357
-1.11002 0.815048 0.962349 0 0 5 192 192 192 255 0.14225 0.478357
-1.36161 0.735276 0.962349 0 0 5 192 192 192 255 0.14225 0.478357
-1.11002 0.735276 0.962349 0 0 4 192 192 192 255 0.14225 0.478357
-0.143527 1.30689 0.962349 6.44486e-005 -3.62023e-005 5 192 192 192 255 0.145767 0.481171
-0.143527 1.39251 0.962349 4.54249e-005 0.00012637 4 192 192 192 255 0.145767 0.481171
-2.28357 1.47246 1.04733 -1 -1 2 192 192 192 255 0.324962 0.085185
2.28357 1.47246 1.04733 2 -2 1 192 192 192 255 0.324962 0.085185
-2.28357 1.55162 1.04733 -2 2 1 192 192 192 255 0.324962 0.085185
2.28357 1.55162 1.04733 1 1 2 192 192 192 255 0.324962 0.085185
-2.28357 1.55162 -1.04733 -1 1 -2 192 192 192 255 0.356618 0.085185
2.28357 1.55162 -1.04733 2 2 -1 192 192 192 255 0.356618 0.085185
-2.28357 1.47246 -1.04733 -2 -2 -1 192 192 192 255 0.324962 0.085185
2.28357 1.47246 -1.04733 1 -1 -2 192 192 192 255 0.324962 0.085185
2.21429 1.19474 -0.962303 3 0 -3 192 192 192 255 0.299827 0.44056
2.21429 1.47246 -0.962303 1 0 -2 192 192 192 255 0.299827 0.44056
0 1.19474 -0.962303 0 -4 -2 192 192 192 255 0.273798 0.44056
0.903502 1.19474 -0.962303 -2 -1 -5 192 192 192 255 0.273798 0.44056
0.903502 1.19474 -0.962303 -2 -1 -5 192 192 192 255 0.299827 0.44056
0.903502 1.19474 0.962345 -1 -2 6 192 192 192 255 0.299827 0.44056
2.21429 0.943517 -0.962303 3 0 -3 192 192 192 255 0.299827 0.44056
0.903502 0.943517 -0.962303 -3 0 -3 192 192 192 255 0.331483 0.44056
0.903502 0 -0.962303 -1 -2 -1 192 192 192 255 0.299827 0.44056
0.903502 0 0.962345 -2 -1 3 192 192 192 255 0.299827 0.44056
1.56813 0 -0.962303 0 -2 -4 192 192 192 255 0.331483 0.44056
0.903502 0 -0.962303 -1 -2 -1 192 192 192 255 0.331483 0.44056
2.21429 0 -0.962303 2 -2 -1 192 192 192 255 0.331483 0.44056
2.21429 0 0.962345 1 -1 3 192 192 192 255 0.299827 0.44056
2.21429 0 -0.962303 2 -2 -1 192 192 192 255 0.299827 0.44056
0.903502 1.19474 0.962345 -1 -2 6 192 192 192 255 0.331483 0.44056
0 1.19474 0.962345 4.78967e-006 -2.00001 2 192 192 192 255 0.331483 0.44056
1.60973 1.17416 0.962345 0 0 8 192 192 192 255 0.331483 0.44056
2.21429 1.47246 0.962345 2 0 3 192 192 192 255 0.331483 0.44056
2.17269 1.17416 0.962345 0 0 7 192 192 192 255 0.331483 0.44056
2.21429 1.19474 0.962345 3 0 3 192 192 192 255 0.331483 0.44056
2.17269 0.999856 0.962345 0 0 5 192 192 192 255 0.331483 0.44056
2.21429 0.943517 0.962345 3 0 6 192 192 192 255 0.331483 0.44056
1.60973 0.999856 0.962345 0 0 4 192 192 192 255 0.331483 0.44056
1.52795 1.17541 0.962345 0 0 7 192 192 192 255 0.331483 0.44056
1.52795 0.996421 0.962345 0 0 5 192 192 192 255 0.331483 0.44056
0.943682 0.996421 0.962345 0 0 4 192 192 192 255 0.331483 0.44056
0.903502 0.943517 0.962345 -3 0 6 192 192 192 255 0.331483 0.44056
0.943682 1.17541 0.962345 0 0 8 192 192 192 255 0.331483 0.44056
2.21429 0 0.962345 1 -1 3 192 192 192 255 0.331483 0.44056
1.56813 0 0.962345 0 -4 6 192 192 192 255 0.331483 0.44056
0.903502 0 0.962345 -2 -1 3 192 192 192 255 0.331483 0.44056
2.01657 1.25481 0.962345 0 0 5 192 192 192 255 0.386353 0.437043
1.76585 1.25481 0.962345 0 0 4 192 192 192 255 0.386353 0.437043
1.76585 1.33546 0.962345 0 0 5 192 192 192 255 0.386353 0.437043
1.60973 1.41612 0.962345 0 0 6 192 192 192 255 0.386353 0.437043
2.01657 1.33546 0.962345 0 0 4 192 192 192 255 0.386353 0.437043
2.17269 1.41612 0.962345 0 0 6 192 192 192 255 0.386353 0.437043
1.52795 1.41955 0.962345 0 0 6 192 192 192 255 0.386353 0.437043
1.36591 1.33817 0.962345 0 0 5 192 192 192 255 0.386353 0.437043
1.36591 1.25679 0.962345 0 0 4 192 192 192 255 0.386353 0.437043
1.10572 1.25679 0.962345 0 0 5 192 192 192 255 0.386353 0.437043
1.10572 1.33817 0.962345 0 0 4 192 192 192 255 0.386353 0.437043
0.943682 1.41955 0.962345 0 0 6 192 192 192 255 0.386353 0.437043
1.61659 0.898715 0.962345 0 0 6 192 192 192 255 0.386353 0.437043
1.76891 0.815048 0.962345 0 0 5 192 192 192 255 0.386353 0.437043
2.01351 0.815048 0.962345 0 0 4 192 192 192 255 0.386353 0.437043
2.16583 0.898715 0.962345 0 0 6 192 192 192 255 0.386353 0.437043
2.01351 0.735276 0.962345 0 0 5 192 192 192 255 0.386353 0.437043
2.16583 0.044802 0.962345 0 0 6 192 192 192 255 0.386353 0.437043
1.76891 0.735276 0.962345 0 0 4 192 192 192 255 0.386353 0.437043
1.61659 0.044802 0.962345 0 0 6 192 192 192 255 0.386353 0.437043
0.953348 0.898715 0.962345 0 0 6 192 192 192 255 0.386353 0.437043
1.11002 0.815048 0.962345 0 0 5 192 192 192 255 0.386353 0.437043
1.36161 0.815048 0.962345 0 0 4 192 192 192 255 0.386353 0.437043
1.51828 0.898715 0.962345 0 0 6 192 192 192 255 0.386353 0.437043
1.36161 0.735276 0.962345 0 0 5 192 192 192 255 0.386353 0.437043
1.51828 0.044802 0.962345 0 0 6 192 192 192 255 0.386353 0.437043
1.11002 0.735276 0.962345 0 0 4 192 192 192 255 0.386353 0.437043
0.953348 0.044802 0.962345 0 0 6 192 192 192 255 0.386353 0.437043
0.764051 1.23147 0.962345 0 0 6 192 192 192 255 0.38987 0.439857
0.143527 1.30689 0.962345 0 0 5 192 192 192 255 0.38987 0.439857
0 1.30689 0.962345 4.54249e-005 -7.24047e-005 6 192 192 192 255 0.38987 0.439857
0 1.23147 0.962345 1.83797e-005 -5.43861e-005 6 192 192 192 255 0.38987 0.439857
0 1.43572 0.962345 2.71801e-005 0.000144553 8 192 192 192 255 0.38987 0.439857
0 1.39251 0.962345 6.44486e-005 6.31852e-005 6 192 192 192 255 0.38987 0.439857
0.143527 1.39251 0.962345 0 0 4 192 192 192 255 0.38987 0.439857
0.764051 1.43572 0.962345 0 0 5 192 192 192 255 0.38987 0.439857
-2.21429 1.19474 -0.962303 -3 0 -3 192 192 192 255 0.299827 0.44056
-2.21429 1.47246 -0.962303 -1 0 -2 192 192 192 255 0.299827 0.44056
-0.903502 1.19474 -0.962303 2 -1 -5 192 192 192 255 0.273798 0.44056
-0.903502 1.19474 -0.962303 2 -1 -5 192 192 192 255 0.299827 0.44056
-0.903502 1.19474 0.962349 1.00001 -2.00002 6 192 192 192 255 0.299827 0.44056
-2.21429 0.943517 -0.962303 -3 0 -3 192 192 192 255 0.299827 0.44056
-0.903502 0.943517 -0.962303 3 0 -3 192 192 192 255 0.331483 0.44056
-0.903502 0 0.962349 2 -1 3 192 192 192 255 0.299827 0.44056
-0.903502 0 -0.962303 1 -2 -1 192 192 192 255 0.299827 0.44056
-1.56813 0 -0.962303 0 -2 -4 192 192 192 255 0.331483 0.44056
-0.903502 0 -0.962303 1 -2 -1 192 192 192 255 0.331483 0.44056
-2.21429 0 -0.962303 -2 -2 -1 192 192 192 255 0.331483 0.44056
-2.21429 0 -0.962303 -2 -2 -1 192 192 192 255 0.299827 0.44056
-2.21429 0 0.962349 -1 -1 3 192 192 192 255 0.299827 0.44056
-0.903502 1.19474 0.962349 1.00001 -2.00002 6 192 192 192 255 0.331483 0.44056
-1.60973 1.17416 0.962349 0 0 8 192 192 192 255 0.331483 0.44056
-2.21429 1.47246 0.962349 -2 0 3 192 192 192 255 0.331483 0.44056
-2.21429 1.19474 0.962349 -3 0 3 192 192 192 255 0.331483 0.44056
-2.17269 1.17416 0.962349 0 0 7 192 192 192 255 0.331483 0.44056
-2.21429 0.943517 0.962349 -3 0 6 192 192 192 255 0.331483 0.44056
-2.17269 0.999856 0.962349 0 0 5 192 192 192 255 0.331483 0.44056
-1.60973 0.999856 0.962349 0 0 4 192 192 192 255 0.331483 0.44056
-1.52795 0.996421 0.962349 0 0 5 192 192 192 255 0.331483 0.44056
-1.52795 1.17541 0.962349 0 0 7 192 192 192 255 0.331483 0.44056
-0.903502 0.943517 0.962349 3 0 6 192 192 192 255 0.331483 0.44056
-0.943682 0.996421 0.962349 0 0 4 192 192 192 255 0.331483 0.44056
-0.943682 1.17541 0.962349 0 0 8 192 192 192 255 0.331483 0.44056
-2.21429 0 0.962349 -1 -1 3 192 192 192 255 0.331483 0.44056
-1.56813 0 0.962349 0 -4 6 192 192 192 255 0.331483 0.44056
-0.903502 0 0.962349 2 -1 3 192 192 192 255 0.331483 0.44056
-1.76585 1.25481 0.962349 0 0 4 192 192 192 255 0.386353 0.437043
-2.01657 1.25481 0.962349 0 0 5 192 192 192 255 0.386353 0.437043
-1.60973 1.41612 0.962349 0 0 6 192 192 192 255 0.386353 0.437043
-1.76585 1.33546 0.962349 0 0 5 192 192 192 255 0.386353 0.437043
-2.17269 1.41612 0.962349 0 0 6 192 192 192 255 0.386353 0.437043
-2.01657 1.33546 0.962349 0 0 4 192 192 192 255 0.386353 0.437043
-1.52795 1.41955 0.962349 0 0 6 192 192 192 255 0.386353 0.437043
-1.36591 1.25679 0.962349 0 0 4 192 192 192 255 0.386353 0.437043
-1.36591 1.33817 0.962349 0 0 5 192 192 192 255 0.386353 0.437043
-1.10572 1.25679 0.962349 0 0 5 192 192 192 255 0.386353 0.437043
-0.943682 1.41955 0.962349 0 0 6 192 192 192 255 0.386353 0.437043
-1.10572 1.33817 0.962349 0 0 4 192 192 192 255 0.386353 0.437043
-1.61659 0.898715 0.962349 0 0 6 192 192 192 255 0.386353 0.437043
-2.16583 0.898715 0.962349 0 0 6 192 192 192 255 0.386353 0.437043
-2.01351 0.815048 0.962349 0 0 4 192 192 192 255 0.386353 0.437043
-1.76891 0.815048 0.962349 0 0 5 192 192 192 255 0.386353 0.437043
-2.16583 0.044802 0.962349 0 0 6 192 192 192 255 0.386353 0.437043
-2.01351 0.735276 0.962349 0 0 5 192 192 192 255 0.386353 0.437043
-1.61659 0.044802 0.962349 0 0 6 192 192 192 255 0.386353 0.437043
-1.76891 0.735276 0.962349 0 0 4 192 192 192 255 0.386353 0.437043
-0.953348 0.898715 0.962349 0 0 6 192 192 192 255 0.386353 0.437043
-1.51828 0.898715 0.962349 0 0 6 192 192 192 255 0.386353 0.437043
-1.36161 0.815048 0.962349 0 0 4 192 192 192 255 0.386353 0.437043
-1.11002 0.815048 0.962349 0 0 5 192 192 192 255 0.386353 0.437043
-1.51828 0.044802 0.962349 0 0 6 192 192 192 255 0.386353 0.437043
-1.36161 0.735276 0.962349 0 0 5 192 192 192 255 0.386353 0.437043
-0.953348 0.044802 0.962349 0 0 6 192 192 192 255 0.386353 0.437043
-1.11002 0.735276 0.962349 0 0 4 192 192 192 255 0.386353 0.437043
-0.764051 1.23147 0.962349 2.23904e-005 -8.14966e-005 6 192 192 192 255 0.38987 0.439857
-0.143527 1.30689 0.962349 6.44486e-005 -3.62023e-005 5 192 192 192 255 0.38987 0.439857
-0.764051 1.43572 0.962349 1.359e-005 7.22767e-005 5 192 192 192 255 0.38987 0.439857
-0.143527 1.39251 0.962349 4.54249e-005 0.00012637 4 192 192 192 255 0.38987 0.439857
-2.28357 1.55162 1.04733 -2 2 1 192 192 192 255 0.356618 0.085185
2.28357 1.55162 1.04733 1 1 2 192 192 192 255 0.356618 0.085185
-2.28357 1.55162 -1.04733 -1 1 -2 192 192 192 255 0.324962 0.085185
2.28357 1.55162 -1.04733 2 2 -1 192 192 192 255 0.324962 0.085185
-2.28357 1.47246 -1.04733 -2 -2 -1 192 192 192 255 0.267277 0.085185
2.28357 1.47246 -1.04733 1 -1 -2 192 192 192 255 0.267277 0.085185
2.28357 1.47246 1.04733 2 -2 1 192 192 192 255 0.267277 0.085185
-2.28357 1.47246 1.04733 -1 -1 2 192 192 192 255 0.267277 0.085185
2.28357 1.47246 1.04733 2 -2 1 192 192 192 255 0.293306 0.085185
2.28357 1.47246 -1.04733 1 -1 -2 192 192 192 255 0.293306 0.085185
2.28357 1.55162 -1.04733 2 2 -1 192 192 192 255 0.293306 0.085185
2.28357 1.55162 1.04733 1 1 2 192 192 192 255 0.293306 0.085185
-2.28357 1.47246 -1.04733 -2 -2 -1 192 192 192 255 0.293306 0.085185
-2.28357 1.47246 1.04733 -1 -1 2 192 192 192 255 0.293306 0.085185
-2.28357 1.55162 1.04733 -2 2 1 192 192 192 255 0.293306 0.085185
-2.28357 1.55162 -1.04733 -1 1 -2 192 192 192 255 0.293306 0.085185
3 52 55 54 
3 52 54 53 
3 2 3 14 
3 2 14 13 
3 8 11 16 
3 8 16 15 
3 144 145 1 
3 144 1 0 
3 68 71 70 
3 68 70 69 
3 7 28 27 
3 7 27 6 
3 4 29 146 
3 4 146 147 
3 3 21 20 
3 3 20 14 
3 148 19 18 
3 148 18 149 
3 33 37 36 
3 33 36 32 
3 0 22 150 
3 0 150 144 
3 14 7 6 
3 14 6 13 
3 20 151 7 
3 20 7 14 
3 16 10 9 
3 16 9 15 
3 39 41 40 
3 39 40 38 
3 57 59 58 
3 57 58 56 
3 19 152 153 
3 19 153 18 
3 154 155 151 
3 154 151 20 
3 21 156 154 
3 21 154 20 
3 22 157 158 
3 22 158 150 
3 61 63 62 
3 61 62 60 
3 65 67 66 
3 65 66 64 
3 159 24 30 
3 159 30 160 
3 31 25 5 
3 31 5 26 
3 5 25 24 
3 5 24 159 
3 17 161 34 
3 17 34 12 
3 12 34 35 
3 12 35 162 
3 162 35 163 
3 162 163 164 
3 164 163 165 
3 164 165 166 
3 166 165 167 
3 166 167 23 
3 23 167 161 
3 23 161 17 
3 17 168 169 
3 17 169 23 
3 23 169 170 
3 23 170 171 
3 171 170 172 
3 171 172 159 
3 12 42 168 
3 12 168 17 
3 159 172 43 
3 159 43 5 
3 5 43 42 
3 5 42 12 
3 23 45 44 
3 23 44 166 
3 166 44 46 
3 166 46 173 
3 173 46 47 
3 173 47 174 
3 174 47 45 
3 174 45 23 
3 171 49 48 
3 171 48 23 
3 23 48 50 
3 23 50 174 
3 174 50 51 
3 174 51 175 
3 175 51 49 
3 175 49 171 
3 32 176 177 
3 32 177 33 
3 33 177 178 
3 33 178 179 
3 179 178 180 
3 179 180 181 
3 181 180 176 
3 181 176 32 
3 182 183 184 
3 182 184 38 
3 38 184 185 
3 38 185 39 
3 39 185 186 
3 39 186 187 
3 187 186 183 
3 187 183 182 
3 188 189 190 
3 188 190 191 
3 191 190 192 
3 191 192 193 
3 193 192 194 
3 193 194 195 
3 195 194 189 
3 195 189 188 
3 196 197 198 
3 196 198 199 
3 199 198 200 
3 199 200 201 
3 201 200 202 
3 201 202 203 
3 203 202 197 
3 203 197 196 
3 204 205 206 
3 204 206 207 
3 208 209 210 
3 208 210 211 
3 211 210 205 
3 211 205 204 
3 118 119 120 
3 118 120 121 
3 74 85 86 
3 74 86 75 
3 80 87 88 
3 80 88 83 
3 212 72 73 
3 212 73 213 
3 134 69 70 
3 134 70 135 
3 79 78 27 
3 79 27 28 
3 76 214 146 
3 76 146 29 
3 75 86 92 
3 75 92 93 
3 215 216 90 
3 215 90 91 
3 99 98 102 
3 99 102 103 
3 72 212 217 
3 72 217 94 
3 86 85 78 
3 86 78 79 
3 92 86 79 
3 92 79 218 
3 88 87 81 
3 88 81 82 
3 105 104 106 
3 105 106 107 
3 123 122 124 
3 123 124 125 
3 91 90 219 
3 91 219 220 
3 221 92 218 
3 221 218 222 
3 93 92 221 
3 93 221 223 
3 94 217 224 
3 94 224 225 
3 127 126 128 
3 127 128 129 
3 131 130 132 
3 131 132 133 
3 226 160 30 
3 226 30 96 
3 31 26 77 
3 31 77 97 
3 77 226 96 
3 77 96 97 
3 89 84 100 
3 89 100 227 
3 84 228 101 
3 84 101 100 
3 228 229 230 
3 228 230 101 
3 229 231 232 
3 229 232 230 
3 231 95 233 
3 231 233 232 
3 95 89 227 
3 95 227 233 
3 89 95 234 
3 89 234 235 
3 95 236 237 
3 95 237 234 
3 236 226 238 
3 236 238 237 
3 84 89 235 
3 84 235 108 
3 226 77 109 
3 226 109 238 
3 77 84 108 
3 77 108 109 
3 95 231 110 
3 95 110 111 
3 231 239 112 
3 231 112 110 
3 239 240 113 
3 239 113 112 
3 240 95 111 
3 240 111 113 
3 236 95 114 
3 236 114 115 
3 95 240 116 
3 95 116 114 
3 240 241 117 
3 240 117 116 
3 241 236 115 
3 241 115 117 
3 98 99 242 
3 98 242 243 
3 99 244 245 
3 99 245 242 
3 244 246 247 
3 244 247 245 
3 246 98 243 
3 246 243 247 
3 248 104 249 
3 248 249 250 
3 104 105 251 
3 104 251 249 
3 105 252 253 
3 105 253 251 
3 252 248 250 
3 252 250 253 
3 254 255 256 
3 254 256 257 
3 255 258 259 
3 255 259 256 
3 258 260 261 
3 258 261 259 
3 260 254 257 
3 260 257 261 
3 262 263 264 
3 262 264 265 
3 263 266 267 
3 263 267 264 
3 266 268 269 
3 266 269 267 
3 268 262 265 
3 268 265 269 
3 270 207 206 
3 270 206 271 
3 208 272 273 
3 208 273 209 
3 272 270 271 
3 272 271 273 
3 136 137 139 
3 136 139 138 
3 274 275 141 
3 274 141 140 
3 276 277 143 
3 276 143 142 
3 278 279 280 
3 278 280 281 
3 282 283 284 
3 282 284 285 
3 286 287 288 
3 286 288 289 
