ply
format ascii 1.0
comment VCGLIB generated
comment TextureFile SpaceInteriors_Texture.png
element vertex 144
property float x
property float y
property float z
property float nx
property float ny
property float nz
property uchar red
property uchar green
property uchar blue
property uchar alpha
property float texture_u
property float texture_v
element face 72
property list uchar int vertex_indices
end_header
1.22431 -0.690854 1e-006 1 -1 -2 192 192 192 255 0.265187 0.061667
1.05993 -0.690854 1e-006 -2 -2 -1 192 192 192 255 0.265187 0.061667
1.22431 5.5208 1e-006 2 2 -1 192 192 192 255 0.265187 0.061667
1.05993 5.5208 1e-006 -1 1 -2 192 192 192 255 0.265187 0.061667
1.22431 5.5208 0.164375 1 1 2 192 192 192 255 0.300052 0.061667
1.05993 5.5208 0.164375 -2 2 1 192 192 192 255 0.300052 0.061667
1.22431 -0.690854 0.164375 2 -2 1 192 192 192 255 0.265187 0.061667
1.05993 -0.690854 0.164375 -1 -1 2 192 192 192 255 0.265187 0.061667
1.05993 -0.170055 0 0 -1 -2 192 192 192 255 0.265187 0.061667
0.164371 -0.170055 0 0 -2 -1 192 192 192 255 0.265187 0.061667
1.05993 0 0 0 2 -1 192 192 192 255 0.265187 0.061667
0.164371 0 0 0 1 -2 192 192 192 255 0.265187 0.061667
1.05993 0 0.164375 0 1 2 192 192 192 255 0.300052 0.061667
0.164371 0 0.164375 0 2 1 192 192 192 255 0.300052 0.061667
1.05993 -0.170055 0.164375 0 -2 1 192 192 192 255 0.265187 0.061667
0.164371 -0.170055 0.164375 0 -1 2 192 192 192 255 0.265187 0.061667
1.05993 0.829945 0 0 -1 -2 192 192 192 255 0.265187 0.061667
0.164371 0.829945 0 0 -2 -1 192 192 192 255 0.265187 0.061667
1.05993 1 0 0 2 -1 192 192 192 255 0.265187 0.061667
0.164371 1 0 0 1 -2 192 192 192 255 0.265187 0.061667
1.05993 1 0.164375 0 1 2 192 192 192 255 0.300052 0.061667
0.164371 1 0.164375 0 2 1 192 192 192 255 0.300052 0.061667
1.05993 0.829945 0.164375 0 -2 1 192 192 192 255 0.265187 0.061667
0.164371 0.829945 0.164375 0 -1 2 192 192 192 255 0.265187 0.061667
1.05993 1.82994 0 0 -1 -2 192 192 192 255 0.265187 0.061667
0.164371 1.82994 0 0 -2 -1 192 192 192 255 0.265187 0.061667
1.05993 2 0 0 2 -1 192 192 192 255 0.265187 0.061667
0.164371 2 0 0 1 -2 192 192 192 255 0.265187 0.061667
1.05993 2 0.164375 0 1 2 192 192 192 255 0.300052 0.061667
0.164371 2 0.164375 0 2 1 192 192 192 255 0.300052 0.061667
1.05993 1.82994 0.164375 0 -2 1 192 192 192 255 0.265187 0.061667
0.164371 1.82994 0.164375 0 -1 2 192 192 192 255 0.265187 0.061667
1.05993 2.82995 0 0 -1 -2 192 192 192 255 0.265187 0.061667
0.164371 2.82995 0 0 -2 -1 192 192 192 255 0.265187 0.061667
1.05993 3 0 0 2 -1 192 192 192 255 0.265187 0.061667
0.164371 3 0 0 1 -2 192 192 192 255 0.265187 0.061667
1.05993 3 0.164375 0 1 2 192 192 192 255 0.300052 0.061667
0.164371 3 0.164375 0 2 1 192 192 192 255 0.300052 0.061667
1.05993 2.82995 0.164375 0 -2 1 192 192 192 255 0.265187 0.061667
0.164371 2.82995 0.164375 0 -1 2 192 192 192 255 0.265187 0.061667
1.05993 3.82995 0 0 -1 -2 192 192 192 255 0.265187 0.061667
0.164371 3.82995 0 0 -2 -1 192 192 192 255 0.265187 0.061667
1.05993 4 0 0 2 -1 192 192 192 255 0.265187 0.061667
0.164371 4 0 0 1 -2 192 192 192 255 0.265187 0.061667
1.05993 4 0.164375 0 1 2 192 192 192 255 0.300052 0.061667
0.164371 4 0.164375 0 2 1 192 192 192 255 0.300052 0.061667
1.05993 3.82995 0.164375 0 -2 1 192 192 192 255 0.265187 0.061667
0.164371 3.82995 0.164375 0 -1 2 192 192 192 255 0.265187 0.061667
1.05993 4.82995 0 0 -1 -2 192 192 192 255 0.265187 0.061667
0.164371 4.82995 0 0 -2 -1 192 192 192 255 0.265187 0.061667
1.05993 5 0 0 2 -1 192 192 192 255 0.265187 0.061667
0.164371 5 0 0 1 -2 192 192 192 255 0.265187 0.061667
1.05993 5 0.164375 0 1 2 192 192 192 255 0.300052 0.061667
0.164371 5 0.164375 0 2 1 192 192 192 255 0.300052 0.061667
1.05993 4.82995 0.164375 0 -2 1 192 192 192 255 0.265187 0.061667
0.164371 4.82995 0.164375 0 -1 2 192 192 192 255 0.265187 0.061667
0.164371 -0.690854 1e-006 1 -1 -2 192 192 192 255 0.265187 0.061667
-2e-006 -0.690854 1e-006 -2 -2 -1 192 192 192 255 0.265187 0.061667
0.164371 5.5208 1e-006 2 2 -1 192 192 192 255 0.265187 0.061667
-2e-006 5.5208 1e-006 -1 1 -2 192 192 192 255 0.265187 0.061667
0.164371 5.5208 0.164375 1 1 2 192 192 192 255 0.300052 0.061667
-2e-006 5.5208 0.164375 -2 2 1 192 192 192 255 0.300052 0.061667
0.164371 -0.690854 0.164375 2 -2 1 192 192 192 255 0.265187 0.061667
-2e-006 -0.690854 0.164375 -1 -1 2 192 192 192 255 0.265187 0.061667
1.22431 5.5208 1e-006 2 2 -1 192 192 192 255 0.300052 0.061667
1.05993 5.5208 1e-006 -1 1 -2 192 192 192 255 0.300052 0.061667
1.22431 5.5208 0.164375 1 1 2 192 192 192 255 0.265187 0.061667
1.05993 5.5208 0.164375 -2 2 1 192 192 192 255 0.265187 0.061667
1.22431 -0.690854 0.164375 2 -2 1 192 192 192 255 0.200168 0.061667
1.05993 -0.690854 0.164375 -1 -1 2 192 192 192 255 0.200168 0.061667
1.05993 -0.690854 1e-006 -2 -2 -1 192 192 192 255 0.200168 0.061667
1.22431 -0.690854 1e-006 1 -1 -2 192 192 192 255 0.200168 0.061667
1.05993 -0.690854 1e-006 -2 -2 -1 192 192 192 255 0.233148 0.061667
1.05993 -0.690854 0.164375 -1 -1 2 192 192 192 255 0.233148 0.061667
1.05993 5.5208 0.164375 -2 2 1 192 192 192 255 0.233148 0.061667
1.05993 5.5208 1e-006 -1 1 -2 192 192 192 255 0.233148 0.061667
1.22431 -0.690854 0.164375 2 -2 1 192 192 192 255 0.233148 0.061667
1.22431 -0.690854 1e-006 1 -1 -2 192 192 192 255 0.233148 0.061667
1.22431 5.5208 1e-006 2 2 -1 192 192 192 255 0.233148 0.061667
1.22431 5.5208 0.164375 1 1 2 192 192 192 255 0.233148 0.061667
1.05993 0 0 0 2 -1 192 192 192 255 0.300052 0.061667
0.164371 0 0 0 1 -2 192 192 192 255 0.300052 0.061667
1.05993 0 0.164375 0 1 2 192 192 192 255 0.265187 0.061667
0.164371 0 0.164375 0 2 1 192 192 192 255 0.265187 0.061667
1.05993 -0.170055 0.164375 0 -2 1 192 192 192 255 0.200168 0.061667
0.164371 -0.170055 0.164375 0 -1 2 192 192 192 255 0.200168 0.061667
0.164371 -0.170055 0 0 -2 -1 192 192 192 255 0.200168 0.061667
1.05993 -0.170055 0 0 -1 -2 192 192 192 255 0.200168 0.061667
1.05993 1 0 0 2 -1 192 192 192 255 0.300052 0.061667
0.164371 1 0 0 1 -2 192 192 192 255 0.300052 0.061667
1.05993 1 0.164375 0 1 2 192 192 192 255 0.265187 0.061667
0.164371 1 0.164375 0 2 1 192 192 192 255 0.265187 0.061667
1.05993 0.829945 0.164375 0 -2 1 192 192 192 255 0.200168 0.061667
0.164371 0.829945 0.164375 0 -1 2 192 192 192 255 0.200168 0.061667
0.164371 0.829945 0 0 -2 -1 192 192 192 255 0.200168 0.061667
1.05993 0.829945 0 0 -1 -2 192 192 192 255 0.200168 0.061667
1.05993 2 0 0 2 -1 192 192 192 255 0.300052 0.061667
0.164371 2 0 0 1 -2 192 192 192 255 0.300052 0.061667
1.05993 2 0.164375 0 1 2 192 192 192 255 0.265187 0.061667
0.164371 2 0.164375 0 2 1 192 192 192 255 0.265187 0.061667
1.05993 1.82994 0.164375 0 -2 1 192 192 192 255 0.200168 0.061667
0.164371 1.82994 0.164375 0 -1 2 192 192 192 255 0.200168 0.061667
0.164371 1.82994 0 0 -2 -1 192 192 192 255 0.200168 0.061667
1.05993 1.82994 0 0 -1 -2 192 192 192 255 0.200168 0.061667
1.05993 3 0 0 2 -1 192 192 192 255 0.300052 0.061667
0.164371 3 0 0 1 -2 192 192 192 255 0.300052 0.061667
1.05993 3 0.164375 0 1 2 192 192 192 255 0.265187 0.061667
0.164371 3 0.164375 0 2 1 192 192 192 255 0.265187 0.061667
1.05993 2.82995 0.164375 0 -2 1 192 192 192 255 0.200168 0.061667
0.164371 2.82995 0.164375 0 -1 2 192 192 192 255 0.200168 0.061667
0.164371 2.82995 0 0 -2 -1 192 192 192 255 0.200168 0.061667
1.05993 2.82995 0 0 -1 -2 192 192 192 255 0.200168 0.061667
1.05993 4 0 0 2 -1 192 192 192 255 0.300052 0.061667
0.164371 4 0 0 1 -2 192 192 192 255 0.300052 0.061667
1.05993 4 0.164375 0 1 2 192 192 192 255 0.265187 0.061667
0.164371 4 0.164375 0 2 1 192 192 192 255 0.265187 0.061667
1.05993 3.82995 0.164375 0 -2 1 192 192 192 255 0.200168 0.061667
0.164371 3.82995 0.164375 0 -1 2 192 192 192 255 0.200168 0.061667
0.164371 3.82995 0 0 -2 -1 192 192 192 255 0.200168 0.061667
1.05993 3.82995 0 0 -1 -2 192 192 192 255 0.200168 0.061667
1.05993 5 0 0 2 -1 192 192 192 255 0.300052 0.061667
0.164371 5 0 0 1 -2 192 192 192 255 0.300052 0.061667
1.05993 5 0.164375 0 1 2 192 192 192 255 0.265187 0.061667
0.164371 5 0.164375 0 2 1 192 192 192 255 0.265187 0.061667
1.05993 4.82995 0.164375 0 -2 1 192 192 192 255 0.200168 0.061667
0.164371 4.82995 0.164375 0 -1 2 192 192 192 255 0.200168 0.061667
0.164371 4.82995 0 0 -2 -1 192 192 192 255 0.200168 0.061667
1.05993 4.82995 0 0 -1 -2 192 192 192 255 0.200168 0.061667
0.164371 5.5208 1e-006 2 2 -1 192 192 192 255 0.300052 0.061667
-2e-006 5.5208 1e-006 -1 1 -2 192 192 192 255 0.300052 0.061667
0.164371 5.5208 0.164375 1 1 2 192 192 192 255 0.265187 0.061667
-2e-006 5.5208 0.164375 -2 2 1 192 192 192 255 0.265187 0.061667
0.164371 -0.690854 0.164375 2 -2 1 192 192 192 255 0.200168 0.061667
-2e-006 -0.690854 0.164375 -1 -1 2 192 192 192 255 0.200168 0.061667
-2e-006 -0.690854 1e-006 -2 -2 -1 192 192 192 255 0.200168 0.061667
0.164371 -0.690854 1e-006 1 -1 -2 192 192 192 255 0.200168 0.061667
-2e-006 -0.690854 1e-006 -2 -2 -1 192 192 192 255 0.233148 0.061667
-2e-006 -0.690854 0.164375 -1 -1 2 192 192 192 255 0.233148 0.061667
-2e-006 5.5208 0.164375 -2 2 1 192 192 192 255 0.233148 0.061667
-2e-006 5.5208 1e-006 -1 1 -2 192 192 192 255 0.233148 0.061667
0.164371 -0.690854 0.164375 2 -2 1 192 192 192 255 0.233148 0.061667
0.164371 -0.690854 1e-006 1 -1 -2 192 192 192 255 0.233148 0.061667
0.164371 5.5208 1e-006 2 2 -1 192 192 192 255 0.233148 0.061667
0.164371 5.5208 0.164375 1 1 2 192 192 192 255 0.233148 0.061667
3 0 1 3 
3 0 3 2 
3 64 65 5 
3 64 5 4 
3 66 67 7 
3 66 7 6 
3 68 69 70 
3 68 70 71 
3 72 73 74 
3 72 74 75 
3 76 77 78 
3 76 78 79 
3 8 9 11 
3 8 11 10 
3 80 81 13 
3 80 13 12 
3 82 83 15 
3 82 15 14 
3 84 85 86 
3 84 86 87 
3 16 17 19 
3 16 19 18 
3 88 89 21 
3 88 21 20 
3 90 91 23 
3 90 23 22 
3 92 93 94 
3 92 94 95 
3 24 25 27 
3 24 27 26 
3 96 97 29 
3 96 29 28 
3 98 99 31 
3 98 31 30 
3 100 101 102 
3 100 102 103 
3 32 33 35 
3 32 35 34 
3 104 105 37 
3 104 37 36 
3 106 107 39 
3 106 39 38 
3 108 109 110 
3 108 110 111 
3 40 41 43 
3 40 43 42 
3 112 113 45 
3 112 45 44 
3 114 115 47 
3 114 47 46 
3 116 117 118 
3 116 118 119 
3 48 49 51 
3 48 51 50 
3 120 121 53 
3 120 53 52 
3 122 123 55 
3 122 55 54 
3 124 125 126 
3 124 126 127 
3 56 57 59 
3 56 59 58 
3 128 129 61 
3 128 61 60 
3 130 131 63 
3 130 63 62 
3 132 133 134 
3 132 134 135 
3 136 137 138 
3 136 138 139 
3 140 141 142 
3 140 142 143 
