ply
format ascii 1.0
comment VCGLIB generated
comment TextureFile SpaceInteriors_Texture.png
element vertex 54
property float x
property float y
property float z
property float nx
property float ny
property float nz
property uchar red
property uchar green
property uchar blue
property uchar alpha
property float texture_u
property float texture_v
element face 32
property list uchar int vertex_indices
end_header
0.999999 0 0 1 -1 3 192 192 192 255 0.200168 0.061667
0.999999 1 -0.620782 1.99741 2.79261 0.609722 192 192 192 255 0.233148 0.061667
0.999999 1 -1 1 1 -2 192 192 192 255 0.233148 0.061667
0.999999 0 -1 3 -2 -1 192 192 192 255 0.200168 0.061667
0.999999 0.519194 0 1.99483 1.58522 4.21944 192 192 192 255 0.233148 0.061667
0 0.519194 0 -1.00259 0.792611 3.60972 192 192 192 255 0.50801 0.746039
0 1 -0.629269 -3.00517 2.58522 1.21944 192 192 192 255 0.50801 0.994287
0 1 -1 -1 2 -1 192 192 192 255 0.300052 0.061667
0 0 -1 -2 -1 -2 192 192 192 255 0.200168 0.061667
0 0 0 -2 -2 3 192 192 192 255 0.200168 0.061667
0.611933 0.429729 0 2 -1 3 192 192 192 255 0.265187 0.061667
0.611933 0.089466 0 1 2 3 192 192 192 255 0.265187 0.061667
0.908481 0.089466 0 -2 1 3 192 192 192 255 0.265187 0.061667
0.908481 0.429729 0 -1 -2 3 192 192 192 255 0.265187 0.061667
0.611933 0.429729 -0.070874 1 -2 2 192 192 192 255 0.231588 0.061667
0.611933 0.089466 -0.070874 2 1 1 192 192 192 255 0.231588 0.061667
0.908481 0.089466 -0.070874 -1 2 2 192 192 192 255 0.231588 0.061667
0.908481 0.429729 -0.070874 -2 -1 1 192 192 192 255 0.231588 0.061667
0.999999 0 -1 3 -2 -1 192 192 192 255 0.233148 0.061667
0.999999 0 0 1 -1 3 192 192 192 255 0.233148 0.061667
0.999999 0.519194 0 1.99483 1.58522 4.21944 192 192 192 255 0.749457 0.746039
0.999999 1 -0.620782 1.99741 2.79261 0.609722 192 192 192 255 0.749457 0.994287
0 1 -0.629269 -3.00517 2.58522 1.21944 192 192 192 255 0.300052 0.061667
0.999999 1 -0.620782 1.99741 2.79261 0.609722 192 192 192 255 0.300052 0.061667
0.999999 1 -1 1 1 -2 192 192 192 255 0.300052 0.061667
0 0 -1 -2 -1 -2 192 192 192 255 0.265187 0.061667
0 1 -1 -1 2 -1 192 192 192 255 0.265187 0.061667
0.999999 1 -1 1 1 -2 192 192 192 255 0.265187 0.061667
0.999999 0 -1 3 -2 -1 192 192 192 255 0.265187 0.061667
0 1 -0.629269 -3.00517 2.58522 1.21944 192 192 192 255 0.236477 0.060738
0 1 -1 -1 2 -1 192 192 192 255 0.236477 0.060738
0 0 -1 -2 -1 -2 192 192 192 255 0.236477 0.060739
0 0 0 -2 -2 3 192 192 192 255 0.236477 0.060739
0 0.519194 0 -1.00259 0.792611 3.60972 192 192 192 255 0.236477 0.060738
0 0.519194 0 -1.00259 0.792611 3.60972 192 192 192 255 0.265187 0.061667
0 0 0 -2 -2 3 192 192 192 255 0.265187 0.061667
0.999999 0 0 1 -1 3 192 192 192 255 0.265187 0.061667
0.999999 0.519194 0 1.99483 1.58522 4.21944 192 192 192 255 0.265187 0.061667
0.611933 0.429729 0 2 -1 3 192 192 192 255 0.201348 0.061667
0.611933 0.089466 0 1 2 3 192 192 192 255 0.201348 0.061667
0.611933 0.089466 -0.070874 2 1 1 192 192 192 255 0.201348 0.061667
0.611933 0.429729 -0.070874 1 -2 2 192 192 192 255 0.201348 0.061667
0.611933 0.089466 0 1 2 3 192 192 192 255 0.295426 0.061667
0.908481 0.089466 0 -2 1 3 192 192 192 255 0.295426 0.061667
0.908481 0.089466 -0.070874 -1 2 2 192 192 192 255 0.295426 0.061667
0.611933 0.089466 -0.070874 2 1 1 192 192 192 255 0.295426 0.061667
0.908481 0.089466 0 -2 1 3 192 192 192 255 0.201348 0.061667
0.908481 0.429729 0 -1 -2 3 192 192 192 255 0.201348 0.061667
0.908481 0.429729 -0.070874 -2 -1 1 192 192 192 255 0.201348 0.061667
0.908481 0.089466 -0.070874 -1 2 2 192 192 192 255 0.201348 0.061667
0.908481 0.429729 0 -1 -2 3 192 192 192 255 0.173349 0.061667
0.611933 0.429729 0 2 -1 3 192 192 192 255 0.173349 0.061667
0.611933 0.429729 -0.070874 1 -2 2 192 192 192 255 0.173349 0.061667
0.908481 0.429729 -0.070874 -2 -1 1 192 192 192 255 0.173349 0.061667
3 9 8 3 
3 9 3 0 
3 18 2 1 
3 18 1 4 
3 18 4 19 
3 14 15 16 
3 14 16 17 
3 6 5 20 
3 6 20 21 
3 7 22 23 
3 7 23 24 
3 25 26 27 
3 25 27 28 
3 29 30 31 
3 29 31 32 
3 29 32 33 
3 34 35 11 
3 34 11 10 
3 35 36 12 
3 35 12 11 
3 36 37 13 
3 36 13 12 
3 37 34 10 
3 37 10 13 
3 38 39 40 
3 38 40 41 
3 42 43 44 
3 42 44 45 
3 46 47 48 
3 46 48 49 
3 50 51 52 
3 50 52 53 
