ply
format ascii 1.0
comment VCGLIB generated
comment TextureFile SpaceInteriors_Texture.png
element vertex 176
property float x
property float y
property float z
property float nx
property float ny
property float nz
property uchar red
property uchar green
property uchar blue
property uchar alpha
property float texture_u
property float texture_v
element face 108
property list uchar int vertex_indices
end_header
0.846605 0.385485 0.083121 -0.965005 -1.26223 2 192 192 192 255 0.389757 0.061579
1.00006 0.385485 0.083121 1.92185 -1.44637 1 192 192 192 255 0.389757 0.061579
0.510181 1.62351 0.083121 -1.93001 1.47554 1 192 192 192 255 0.389757 0.061579
0.64342 1.62351 0.083121 0.960923 1.27682 2 192 192 192 255 0.389757 0.061579
0.510181 1.62351 -0.083122 -0.965005 0.737768 -2 192 192 192 255 0.424623 0.061579
0.64342 1.62351 -0.083122 1.92185 2.55363 -1 192 192 192 255 0.424623 0.061579
0.846605 0.385485 -0.083122 -1.93001 -2.52446 -1 192 192 192 255 0.389757 0.061579
1.00006 0.385485 -0.083122 0.960923 -0.723185 -2 192 192 192 255 0.389757 0.061579
-1.00006 0.385485 0.083121 -0.960923 -0.723186 2 192 192 192 255 0.389757 0.061579
-0.846605 0.385485 0.083121 1.93001 -2.52446 1 192 192 192 255 0.389757 0.061579
-0.643421 1.62351 0.083121 -1.92185 2.55363 1 192 192 192 255 0.389757 0.061579
-0.510182 1.62351 0.083121 0.965005 0.737768 2 192 192 192 255 0.389757 0.061579
-0.643421 1.62351 -0.083122 -0.960923 1.27681 -2 192 192 192 255 0.424623 0.061579
-0.510182 1.62351 -0.083122 1.93001 1.47554 -1 192 192 192 255 0.424623 0.061579
-1.00006 0.385485 -0.083122 -1.92185 -1.44637 -1 192 192 192 255 0.389757 0.061579
-0.846605 0.385485 -0.083122 0.965005 -1.26223 -2 192 192 192 255 0.389757 0.061579
-0.643421 1.62351 0.5 -1 -3 2 192 192 192 255 0.389757 0.061579
0.64342 1.62351 0.5 2 -3 1 192 192 192 255 0.389757 0.061579
-0.643421 1.77351 0.5 -2 3 1 192 192 192 255 0.389757 0.061579
0.64342 1.77351 0.5 1 3 2 192 192 192 255 0.389757 0.061579
-0.643421 1.77351 -0.5 -1 3 -2 192 192 192 255 0.389757 0.061579
0.64342 1.77351 -0.5 2 3 -1 192 192 192 255 0.389757 0.061579
-0.643421 1.62351 -0.5 -2 -3 -1 192 192 192 255 0.389757 0.061579
0.64342 1.62351 -0.5 1 -3 -2 192 192 192 255 0.389757 0.061579
-0.510182 1.77351 0.366761 1 3 -1 192 192 192 255 0.424623 0.061579
0.510181 1.77351 0.366761 -1 3 -2 192 192 192 255 0.424623 0.061579
0.510181 1.77351 -0.366762 -2 3 2 192 192 192 255 0.424623 0.061579
-0.510182 1.77351 -0.366762 2 3 1 192 192 192 255 0.424623 0.061579
-0.510182 1.62351 -0.366762 1 -3 2 192 192 192 255 0.324738 0.061579
0.510181 1.62351 -0.366762 -1 -3 1 192 192 192 255 0.324738 0.061579
0.510181 1.62351 0.366761 -2 -3 -1 192 192 192 255 0.324738 0.061579
-0.510182 1.62351 0.366761 2 -3 -2 192 192 192 255 0.324738 0.061579
-1.15417 0 1.69412 -1.00001 -1 3 192 192 192 255 0.233148 0.061667
1.15417 0 1.69412 2 -1 2 192 192 192 255 0.233148 0.061667
-1.15417 0.385485 1.69412 -2 4 1 192 192 192 255 0.233148 0.061667
1.15417 0.385485 1.69412 1 2 2 192 192 192 255 0.233148 0.061667
-1.15417 0.385485 -1.69413 -1 2 -2 192 192 192 255 0.233148 0.061667
1.15417 0.385485 -1.69413 2 1 -2 192 192 192 255 0.233148 0.061667
-1.15417 0 -1.69413 -3 -2 -1 192 192 192 255 0.233148 0.061667
1.15417 0 -1.69413 1 -2 -1 192 192 192 255 0.233148 0.061667
-0.6925 0.385485 -1.69413 3 2 -1 192 192 192 255 0.300052 0.061667
-0.6925 0.385485 1.69413 3 2 2 192 192 192 255 0.300052 0.061667
-0.6925 0 1.69413 3 -2 1 192 192 192 255 0.265187 0.061667
-0.6925 0 -1.69413 3 -1 -2 192 192 192 255 0.200168 0.061667
0.692499 0 1.69412 -3 -2 1 192 192 192 255 0.265187 0.061667
0.692499 0.385485 1.69412 -3 1 3 192 192 192 255 0.265187 0.061667
0.692499 0.385485 -1.69413 -3 3 -1 192 192 192 255 0.300052 0.061667
0.692499 0 -1.69413 -3 -1 -2 192 192 192 255 0.265187 0.061667
0.692499 0.061909 1.63222 -3 -1 3 192 192 192 255 0.660236 0.504465
0.692499 0.323575 1.63222 -3 3 1 192 192 192 255 0.609761 0.504465
-0.6925 0.323575 1.63222 3 2 2 192 192 192 255 0.609761 0.503674
-0.6925 0.061909 1.63222 3 -2 1 192 192 192 255 0.660236 0.503674
0.692499 0.323575 -1.63222 -3 1 -2 192 192 192 255 0.501126 0.505149
-0.6925 0.323575 -1.63222 3 2 -1 192 192 192 255 0.501126 0.502892
0.692499 0.061909 -1.63222 -3 -2 -1 192 192 192 255 0.660236 0.504465
-0.6925 0.061909 -1.63222 3 -1 -2 192 192 192 255 0.660236 0.503674
-0.923333 0.385485 1.69413 -3.60497e-006 0.999998 2 192 192 192 255 0.300052 0.061667
0.923333 0.385485 1.69412 0 2 1 192 192 192 255 0.265187 0.061667
-0 0.323575 1.63222 0 1 2 192 192 192 255 0.609761 0.504069
-1.15417 0.385485 -0 -2 1 0 192 192 192 255 0.233148 0.061667
0.510181 1.62351 0.083121 -1.93001 1.47554 1 192 192 192 255 0.424623 0.061579
0.64342 1.62351 0.083121 0.960923 1.27682 2 192 192 192 255 0.424623 0.061579
0.510181 1.62351 -0.083122 -0.965005 0.737768 -2 192 192 192 255 0.389757 0.061579
0.64342 1.62351 -0.083122 1.92185 2.55363 -1 192 192 192 255 0.389757 0.061579
0.846605 0.385485 -0.083122 -1.93001 -2.52446 -1 192 192 192 255 0.324738 0.061579
1.00006 0.385485 -0.083122 0.960923 -0.723185 -2 192 192 192 255 0.324738 0.061579
1.00006 0.385485 0.083121 1.92185 -1.44637 1 192 192 192 255 0.324738 0.061579
0.846605 0.385485 0.083121 -0.965005 -1.26223 2 192 192 192 255 0.324738 0.061579
1.00006 0.385485 0.083121 1.92185 -1.44637 1 192 192 192 255 0.418116 0.061579
1.00006 0.385485 -0.083122 0.960923 -0.723185 -2 192 192 192 255 0.418116 0.061579
0.64342 1.62351 -0.083122 1.92185 2.55363 -1 192 192 192 255 0.418116 0.061579
0.64342 1.62351 0.083121 0.960923 1.27682 2 192 192 192 255 0.418116 0.061579
0.846605 0.385485 -0.083122 -1.93001 -2.52446 -1 192 192 192 255 0.357719 0.061579
0.846605 0.385485 0.083121 -0.965005 -1.26223 2 192 192 192 255 0.357719 0.061579
0.510181 1.62351 0.083121 -1.93001 1.47554 1 192 192 192 255 0.357719 0.061579
0.510181 1.62351 -0.083122 -0.965005 0.737768 -2 192 192 192 255 0.357719 0.061579
-0.643421 1.62351 0.083121 -1.92185 2.55363 1 192 192 192 255 0.424623 0.061579
-0.510182 1.62351 0.083121 0.965005 0.737768 2 192 192 192 255 0.424623 0.061579
-0.643421 1.62351 -0.083122 -0.960923 1.27681 -2 192 192 192 255 0.389757 0.061579
-0.510182 1.62351 -0.083122 1.93001 1.47554 -1 192 192 192 255 0.389757 0.061579
-1.00006 0.385485 -0.083122 -1.92185 -1.44637 -1 192 192 192 255 0.324738 0.061579
-0.846605 0.385485 -0.083122 0.965005 -1.26223 -2 192 192 192 255 0.324738 0.061579
-0.846605 0.385485 0.083121 1.93001 -2.52446 1 192 192 192 255 0.324738 0.061579
-1.00006 0.385485 0.083121 -0.960923 -0.723186 2 192 192 192 255 0.324738 0.061579
-0.846605 0.385485 0.083121 1.93001 -2.52446 1 192 192 192 255 0.357719 0.061579
-0.846605 0.385485 -0.083122 0.965005 -1.26223 -2 192 192 192 255 0.357719 0.061579
-0.510182 1.62351 -0.083122 1.93001 1.47554 -1 192 192 192 255 0.357719 0.061579
-0.510182 1.62351 0.083121 0.965005 0.737768 2 192 192 192 255 0.357719 0.061579
-1.00006 0.385485 -0.083122 -1.92185 -1.44637 -1 192 192 192 255 0.418116 0.061579
-1.00006 0.385485 0.083121 -0.960923 -0.723186 2 192 192 192 255 0.418116 0.061579
-0.643421 1.62351 0.083121 -1.92185 2.55363 1 192 192 192 255 0.418116 0.061579
-0.643421 1.62351 -0.083122 -0.960923 1.27681 -2 192 192 192 255 0.418116 0.061579
0.64342 1.62351 0.5 2 -3 1 192 192 192 255 0.357719 0.061579
0.64342 1.62351 -0.5 1 -3 -2 192 192 192 255 0.357719 0.061579
0.64342 1.77351 -0.5 2 3 -1 192 192 192 255 0.357719 0.061579
0.64342 1.77351 0.5 1 3 2 192 192 192 255 0.357719 0.061579
-0.643421 1.62351 -0.5 -2 -3 -1 192 192 192 255 0.357719 0.061579
-0.643421 1.62351 0.5 -1 -3 2 192 192 192 255 0.357719 0.061579
-0.643421 1.77351 0.5 -2 3 1 192 192 192 255 0.357719 0.061579
-0.643421 1.77351 -0.5 -1 3 -2 192 192 192 255 0.357719 0.061579
-0.643421 1.77351 0.5 -2 3 1 192 192 192 255 0.424623 0.061579
0.64342 1.77351 0.5 1 3 2 192 192 192 255 0.424623 0.061579
0.64342 1.77351 -0.5 2 3 -1 192 192 192 255 0.424623 0.061579
-0.643421 1.77351 -0.5 -1 3 -2 192 192 192 255 0.424623 0.061579
-0.643421 1.62351 -0.5 -2 -3 -1 192 192 192 255 0.324738 0.061579
0.64342 1.62351 -0.5 1 -3 -2 192 192 192 255 0.324738 0.061579
0.64342 1.62351 0.5 2 -3 1 192 192 192 255 0.324738 0.061579
-0.643421 1.62351 0.5 -1 -3 2 192 192 192 255 0.324738 0.061579
0.510181 1.77351 -0.366762 -2 3 2 192 192 192 255 0.35856 0.061452
-0.510182 1.77351 -0.366762 2 3 1 192 192 192 255 0.35856 0.061452
-0.510182 1.62351 -0.366762 1 -3 2 192 192 192 255 0.35856 0.061452
0.510181 1.62351 -0.366762 -1 -3 1 192 192 192 255 0.35856 0.061452
-0.510182 1.77351 -0.366762 2 3 1 192 192 192 255 0.329619 0.061452
-0.510182 1.77351 0.366761 1 3 -1 192 192 192 255 0.329619 0.061452
-0.510182 1.62351 0.366761 2 -3 -2 192 192 192 255 0.329619 0.061452
-0.510182 1.62351 -0.366762 1 -3 2 192 192 192 255 0.329619 0.061452
0.510181 1.77351 -0.366762 -2 3 2 192 192 192 255 0.329619 0.061452
0.510181 1.62351 -0.366762 -1 -3 1 192 192 192 255 0.329619 0.061452
0.510181 1.62351 0.366761 -2 -3 -1 192 192 192 255 0.329619 0.061452
0.510181 1.77351 0.366761 -1 3 -2 192 192 192 255 0.329619 0.061452
0.510181 1.77351 0.366761 -1 3 -2 192 192 192 255 0.35856 0.061452
0.510181 1.62351 0.366761 -2 -3 -1 192 192 192 255 0.35856 0.061452
-0.510182 1.62351 0.366761 2 -3 -2 192 192 192 255 0.35856 0.061452
-0.510182 1.77351 0.366761 1 3 -1 192 192 192 255 0.35856 0.061452
0.692499 0.323575 1.63222 -3 3 1 192 192 192 255 0.752457 0.505149
-0.6925 0.323575 1.63222 3 2 2 192 192 192 255 0.752457 0.502892
-0 0.323575 1.63222 0 1 2 192 192 192 255 0.752457 0.50402
0.692499 0.323575 -1.63222 -3 1 -2 192 192 192 255 0.609761 0.504465
-0.6925 0.323575 -1.63222 3 2 -1 192 192 192 255 0.609761 0.503674
0.692499 0.061909 -1.63222 -3 -2 -1 192 192 192 255 0.200168 0.061667
0.692499 0.061909 1.63222 -3 -1 3 192 192 192 255 0.200168 0.061667
-0.6925 0.061909 1.63222 3 -2 1 192 192 192 255 0.200168 0.061667
-0.6925 0.061909 -1.63222 3 -1 -2 192 192 192 255 0.200168 0.061667
-1.15417 0.385485 1.69412 -2 4 1 192 192 192 255 0.300052 0.061667
-1.15417 0.385485 -1.69413 -1 2 -2 192 192 192 255 0.300052 0.061667
-1.15417 0.385485 -0 -2 1 0 192 192 192 255 0.300052 0.061667
-1.15417 0 1.69412 -1.00001 -1 3 192 192 192 255 0.265187 0.061667
-0.6925 0.385485 1.69413 3 2 2 192 192 192 255 0.265187 0.061667
-0.923333 0.385485 1.69413 -3.60497e-006 0.999998 2 192 192 192 255 0.265187 0.061667
-1.15417 0.385485 1.69412 -2 4 1 192 192 192 255 0.265187 0.061667
-1.15417 0 -1.69413 -3 -2 -1 192 192 192 255 0.200168 0.061667
-0.6925 0 1.69413 3 -2 1 192 192 192 255 0.200168 0.061667
-1.15417 0 1.69412 -1.00001 -1 3 192 192 192 255 0.200168 0.061667
-1.15417 0.385485 -1.69413 -1 2 -2 192 192 192 255 0.265187 0.061667
-0.6925 0.385485 -1.69413 3 2 -1 192 192 192 255 0.265187 0.061667
-0.6925 0 -1.69413 3 -1 -2 192 192 192 255 0.265187 0.061667
-1.15417 0 -1.69413 -3 -2 -1 192 192 192 255 0.265187 0.061667
1.15417 0 1.69412 2 -1 2 192 192 192 255 0.265187 0.061667
1.15417 0.385485 1.69412 1 2 2 192 192 192 255 0.265187 0.061667
0.692499 0.385485 1.69412 -3 1 3 192 192 192 255 0.300052 0.061667
0.923333 0.385485 1.69412 0 2 1 192 192 192 255 0.300052 0.061667
1.15417 0.385485 1.69412 1 2 2 192 192 192 255 0.300052 0.061667
1.15417 0.385485 -1.69413 2 1 -2 192 192 192 255 0.300052 0.061667
0.692499 0.385485 -1.69413 -3 3 -1 192 192 192 255 0.265187 0.061667
1.15417 0.385485 -1.69413 2 1 -2 192 192 192 255 0.265187 0.061667
1.15417 0 -1.69413 1 -2 -1 192 192 192 255 0.265187 0.061667
0.692499 0 1.69412 -3 -2 1 192 192 192 255 0.200168 0.061667
0.692499 0 -1.69413 -3 -1 -2 192 192 192 255 0.200168 0.061667
1.15417 0 -1.69413 1 -2 -1 192 192 192 255 0.200168 0.061667
1.15417 0 1.69412 2 -1 2 192 192 192 255 0.200168 0.061667
0.692499 0 1.69412 -3 -2 1 192 192 192 255 0.231604 0.063421
0.692499 0.385485 1.69412 -3 1 3 192 192 192 255 0.231604 0.063421
0.692499 0.323575 1.63222 -3 3 1 192 192 192 255 0.231604 0.063421
0.692499 0.061909 1.63222 -3 -1 3 192 192 192 255 0.231604 0.063421
-0.6925 0.385485 1.69413 3 2 2 192 192 192 255 0.231603 0.063421
-0.6925 0 1.69413 3 -2 1 192 192 192 255 0.231603 0.063421
-0.6925 0.061909 1.63222 3 -2 1 192 192 192 255 0.231603 0.063421
-0.6925 0.323575 1.63222 3 2 2 192 192 192 255 0.231603 0.063421
0.692499 0.385485 -1.69413 -3 3 -1 192 192 192 255 0.231604 0.063421
0.692499 0.323575 -1.63222 -3 1 -2 192 192 192 255 0.231604 0.063421
-0.6925 0.385485 -1.69413 3 2 -1 192 192 192 255 0.231603 0.063421
-0.6925 0.323575 -1.63222 3 2 -1 192 192 192 255 0.231603 0.063421
0.692499 0 -1.69413 -3 -1 -2 192 192 192 255 0.231604 0.063421
0.692499 0.061909 -1.63222 -3 -2 -1 192 192 192 255 0.231604 0.063421
-0.6925 0 -1.69413 3 -1 -2 192 192 192 255 0.231603 0.063421
-0.6925 0.061909 -1.63222 3 -1 -2 192 192 192 255 0.231603 0.063421
3 0 1 3 
3 0 3 2 
3 60 61 5 
3 60 5 4 
3 62 63 7 
3 62 7 6 
3 64 65 66 
3 64 66 67 
3 68 69 70 
3 68 70 71 
3 72 73 74 
3 72 74 75 
3 8 9 11 
3 8 11 10 
3 76 77 13 
3 76 13 12 
3 78 79 15 
3 78 15 14 
3 80 81 82 
3 80 82 83 
3 84 85 86 
3 84 86 87 
3 88 89 90 
3 88 90 91 
3 16 17 19 
3 16 19 18 
3 20 21 23 
3 20 23 22 
3 92 93 94 
3 92 94 95 
3 96 97 98 
3 96 98 99 
3 100 101 25 
3 100 25 24 
3 101 102 26 
3 101 26 25 
3 102 103 27 
3 102 27 26 
3 103 100 24 
3 103 24 27 
3 104 105 29 
3 104 29 28 
3 105 106 30 
3 105 30 29 
3 106 107 31 
3 106 31 30 
3 107 104 28 
3 107 28 31 
3 108 109 110 
3 108 110 111 
3 112 113 114 
3 112 114 115 
3 116 117 118 
3 116 118 119 
3 120 121 122 
3 120 122 123 
3 48 49 58 
3 48 58 50 
3 48 50 51 
3 124 52 53 
3 124 53 125 
3 124 125 126 
3 127 54 55 
3 127 55 128 
3 129 130 131 
3 129 131 132 
3 33 39 37 
3 33 37 35 
3 38 32 34 
3 38 34 59 
3 38 59 36 
3 133 56 41 
3 133 41 40 
3 133 40 134 
3 133 134 135 
3 136 42 137 
3 136 137 138 
3 136 138 139 
3 140 43 141 
3 140 141 142 
3 143 144 145 
3 143 145 146 
3 45 44 147 
3 45 147 148 
3 45 148 57 
3 46 149 150 
3 46 150 151 
3 46 151 152 
3 47 153 154 
3 47 154 155 
3 156 157 158 
3 156 158 159 
3 160 161 162 
3 160 162 163 
3 164 165 166 
3 164 166 167 
3 161 168 169 
3 161 169 162 
3 170 164 167 
3 170 167 171 
3 168 172 173 
3 168 173 169 
3 174 170 171 
3 174 171 175 
3 172 160 163 
3 172 163 173 
3 165 174 175 
3 165 175 166 
