ply
format ascii 1.0
comment VCGLIB generated
comment TextureFile SpaceInteriors_Texture.png
element vertex 434
property float x
property float y
property float z
property float nx
property float ny
property float nz
property uchar red
property uchar green
property uchar blue
property uchar alpha
property float texture_u
property float texture_v
element face 282
property list uchar int vertex_indices
end_header
-0.839497 0.168525 0.340893 -1 3 2 192 192 192 255 0.36044 0.061667
-0.780445 0.168525 0.340893 2 3 1 192 192 192 255 0.36044 0.061667
-0.839497 1.4204 0.340893 -3 1 1 192 192 192 255 0.36044 0.061667
-0.780445 1.4204 0.340893 2 2 2 192 192 192 255 0.36044 0.061667
-0.839497 1.35969 0.272808 -3 -1 -2 192 192 192 255 0.36044 0.061667
-0.780445 1.35969 0.272808 4 -2 -1 192 192 192 255 0.36044 0.061667
-0.839497 0.168525 0.272808 -2 3 -1 192 192 192 255 0.36044 0.061667
-0.780445 0.168525 0.272808 1 3 -2 192 192 192 255 0.36044 0.061667
-0.839497 0.168525 -0.578262 -1 3 2 192 192 192 255 0.36044 0.061667
-0.780445 0.168525 -0.578262 2 3 1 192 192 192 255 0.36044 0.061667
-0.839497 1.35969 -0.578262 -3 -2 1 192 192 192 255 0.36044 0.061667
-0.780445 1.35969 -0.578262 2 -1 2 192 192 192 255 0.36044 0.061667
-0.839497 1.4204 -0.646347 -3 2 -2 192 192 192 255 0.36044 0.061667
-0.780445 1.4204 -0.646347 4 1 -1 192 192 192 255 0.36044 0.061667
-0.839497 0.168525 -0.646347 -2 3 -1 192 192 192 255 0.36044 0.061667
-0.780445 0.168525 -0.646347 1 3 -2 192 192 192 255 0.36044 0.061667
0.780457 0.168525 0.340893 -1 3 2 192 192 192 255 0.36044 0.061667
0.839508 0.168525 0.340893 2 3 1 192 192 192 255 0.36044 0.061667
0.780457 1.4204 0.340893 -3 1 1 192 192 192 255 0.36044 0.061667
0.839508 1.4204 0.340893 2 2 2 192 192 192 255 0.36044 0.061667
0.780457 1.35969 0.272808 -3 -1 -2 192 192 192 255 0.36044 0.061667
0.839508 1.35969 0.272808 4 -2 -1 192 192 192 255 0.36044 0.061667
0.780457 0.168525 0.272808 -2 3 -1 192 192 192 255 0.36044 0.061667
0.839508 0.168525 0.272808 1 3 -2 192 192 192 255 0.36044 0.061667
0.780457 0.168525 -0.578262 -1 3 2 192 192 192 255 0.36044 0.061667
0.839508 0.168525 -0.578262 2 3 1 192 192 192 255 0.36044 0.061667
0.780457 1.35969 -0.578262 -3 -2 1 192 192 192 255 0.36044 0.061667
0.839508 1.35969 -0.578262 2 -1 2 192 192 192 255 0.36044 0.061667
0.780457 1.4204 -0.646347 -3 2 -2 192 192 192 255 0.36044 0.061667
0.839508 1.4204 -0.646347 4 1 -1 192 192 192 255 0.36044 0.061667
0.780457 0.168525 -0.646347 -2 3 -1 192 192 192 255 0.36044 0.061667
0.839508 0.168525 -0.646347 1 3 -2 192 192 192 255 0.36044 0.061667
-0.846355 0.168525 0.23148 -3 3 -2 192 192 192 255 0.235225 0.061667
-0.773586 0.168525 0.23148 2 3 -1 192 192 192 255 0.235225 0.061667
-0.773586 0.168525 0.382214 1 3 2 192 192 192 255 0.235225 0.061667
-0.846355 0.168525 0.382214 -3 3 1 192 192 192 255 0.235225 0.061667
-0.846355 0.168525 -0.687668 -3 3 -2 192 192 192 255 0.235225 0.061667
-0.773586 0.168525 -0.687668 2 3 -1 192 192 192 255 0.235225 0.061667
-0.773586 0.168525 -0.536934 1 3 2 192 192 192 255 0.235225 0.061667
-0.846355 0.168525 -0.536934 -3 3 1 192 192 192 255 0.235225 0.061667
0.77359 0.168525 0.23148 -1 3 -2 192 192 192 255 0.235225 0.061667
0.846363 0.168525 0.23148 3 3 -1 192 192 192 255 0.235225 0.061667
0.846363 0.168525 0.382214 3 3 2 192 192 192 255 0.235225 0.061667
0.77359 0.168525 0.382214 -2 3 1 192 192 192 255 0.235225 0.061667
0.77359 0.168525 -0.687668 -1 3 -2 192 192 192 255 0.235225 0.061667
0.846363 0.168525 -0.687668 3 3 -1 192 192 192 255 0.235225 0.061667
0.846363 0.168525 -0.536934 3 3 2 192 192 192 255 0.235225 0.061667
0.77359 0.168525 -0.536934 -2 3 1 192 192 192 255 0.235225 0.061667
-0.846355 0 0.23148 -3 -2 -1 192 192 192 255 0.13802 0.061667
-0.773586 0 0.23148 1 -1 -2 192 192 192 255 0.13802 0.061667
-0.773586 0 0.382214 2 -2 1 192 192 192 255 0.13802 0.061667
-0.846355 0 0.382214 -3 -1 2 192 192 192 255 0.13802 0.061667
-0.846355 0 -0.687668 -3 -2 -1 192 192 192 255 0.13802 0.061667
-0.773586 0 -0.687668 1 -1 -2 192 192 192 255 0.13802 0.061667
-0.773586 0 -0.536934 2 -2 1 192 192 192 255 0.13802 0.061667
-0.846355 0 -0.536934 -3 -1 2 192 192 192 255 0.13802 0.061667
0.77359 0 0.23148 -2 -2 -1 192 192 192 255 0.13802 0.061667
0.846363 0 0.23148 3 -1 -2 192 192 192 255 0.13802 0.061667
0.846363 0 0.382214 3 -2 1 192 192 192 255 0.13802 0.061667
0.77359 0 0.382214 -1 -1 2 192 192 192 255 0.13802 0.061667
0.77359 0 -0.687668 -2 -2 -1 192 192 192 255 0.13802 0.061667
0.846363 0 -0.687668 3 -1 -2 192 192 192 255 0.13802 0.061667
0.846363 0 -0.536934 3 -2 1 192 192 192 255 0.13802 0.061667
0.77359 0 -0.536934 -1 -1 2 192 192 192 255 0.13802 0.061667
-0.846355 0.13177 0.264355 -4 0 0 192 192 192 255 0.374833 0.061667
-0.846355 0.13177 0.349342 -5 0 0 192 192 192 255 0.374833 0.061667
-0.846355 0.036755 0.264355 -5 0 0 192 192 192 255 0.374833 0.061667
-0.846355 0.036755 0.349342 -4 0 0 192 192 192 255 0.374833 0.061667
-0.846355 0.13177 -0.654793 -4 0 0 192 192 192 255 0.374833 0.061667
-0.846355 0.13177 -0.569809 -5 0 0 192 192 192 255 0.374833 0.061667
-0.846355 0.036755 -0.654793 -5 0 0 192 192 192 255 0.374833 0.061667
-0.846355 0.036755 -0.569809 -4 0 0 192 192 192 255 0.374833 0.061667
0.846363 0.13177 0.264355 5 0 0 192 192 192 255 0.374833 0.061667
0.846363 0.13177 0.349342 4 0 0 192 192 192 255 0.374833 0.061667
0.846363 0.036755 0.349342 5 0 0 192 192 192 255 0.374833 0.061667
0.846363 0.036755 0.264355 4 0 0 192 192 192 255 0.374833 0.061667
0.846363 0.13177 -0.654793 5 0 0 192 192 192 255 0.374833 0.061667
0.846363 0.13177 -0.569809 4 0 0 192 192 192 255 0.374833 0.061667
0.846363 0.036755 -0.569809 5 0 0 192 192 192 255 0.374833 0.061667
0.846363 0.036755 -0.654793 4 0 0 192 192 192 255 0.374833 0.061667
-0.852238 0.284219 0.347286 -1 -1 1 192 192 192 255 0.168952 0.183298
0.852238 0.284219 0.347286 2 -2 2 192 192 192 255 0.168952 0.183298
-0.852238 0.415194 0.347286 -2 3 2 192 192 192 255 0.201933 0.183298
0.852238 0.415194 0.347286 1 3 1 192 192 192 255 0.201933 0.183298
-0.852238 0.415194 -0.652714 -1 3 -2 192 192 192 255 0.233971 0.183298
0.852238 0.415194 -0.652714 2 3 -1 192 192 192 255 0.233971 0.183298
-0.852238 0.284219 -0.652714 -2 -2 -1 192 192 192 255 0.233971 0.183298
0.852238 0.284219 -0.652714 1 -1 -2 192 192 192 255 0.233971 0.183298
-0.811356 0.415194 0.305141 1 3 -2 192 192 192 255 0.268837 0.183298
0.811337 0.415194 0.305141 -2 3 -1 192 192 192 255 0.268837 0.183298
0.811337 0.415194 -0.610561 -1 3 2 192 192 192 255 0.268837 0.183298
-0.811356 0.415194 -0.610561 2 3 1 192 192 192 255 0.268837 0.183298
-0.811356 0.350618 0.305141 2 2 -1 192 192 192 255 0.268837 0.183298
0.811337 0.350618 0.305141 -1 1 -2 192 192 192 255 0.268837 0.183298
0.811337 0.350618 -0.610561 -2 2 1 192 192 192 255 0.268837 0.183298
-0.811356 0.350618 -0.610561 1 1 2 192 192 192 255 0.268837 0.183298
-0.852238 0.939262 0.347286 -1 -1 3 192 192 192 255 0.168952 0.183298
0.852238 0.939262 0.347286 2 -2 3 192 192 192 255 0.168952 0.183298
-0.852238 1.23962 0.347286 -2 3 3 192 192 192 255 0.201933 0.183298
0.852238 1.23962 0.347286 1 3 3 192 192 192 255 0.201933 0.183298
-0.852238 1.23962 -0.652714 -1 3 -2 192 192 192 255 0.233971 0.183298
0.852238 1.23962 -0.652714 2 3 -1 192 192 192 255 0.233971 0.183298
-0.852238 0.939262 -0.652714 -2 -2 -1 192 192 192 255 0.233971 0.183298
0.852238 0.939262 -0.652714 1 -1 -2 192 192 192 255 0.233971 0.183298
-0.811356 1.23962 0.305141 1 3 -2 192 192 192 255 0.268837 0.183298
0.811337 1.23962 0.305141 -2 3 -1 192 192 192 255 0.268837 0.183298
0.811337 1.23962 -0.610561 -1 3 2 192 192 192 255 0.268837 0.183298
-0.811356 1.23962 -0.610561 2 3 1 192 192 192 255 0.268837 0.183298
-0.811356 1.17505 0.305141 2 2 -1 192 192 192 255 0.268837 0.183298
0.811337 1.17505 0.305141 -1 1 -2 192 192 192 255 0.268837 0.183298
0.811337 1.17505 -0.610561 -2 2 1 192 192 192 255 0.268837 0.183298
-0.811356 1.17505 -0.610561 1 1 2 192 192 192 255 0.268837 0.183298
-0.691685 0.976574 0.347286 -1 -2 3 192 192 192 255 0.233971 0.183298
0.691685 0.976574 0.347286 2 -1 3 192 192 192 255 0.233971 0.183298
0.691685 1.17093 0.347286 1 -1 3 192 192 192 255 0.233971 0.183298
-0.691685 1.17093 0.347286 -2 1 3 192 192 192 255 0.233971 0.183298
-0.691685 0.976574 0.651646 -2 -1 -3 192 192 192 255 0.174214 0.183298
0.691685 0.976574 0.651646 1 -2 -3 192 192 192 255 0.174214 0.183298
0.691685 1.17093 0.651646 2 3 -3 192 192 192 255 0.204491 0.183298
-0.691685 1.17093 0.651646 -1 3 -3 192 192 192 255 0.204491 0.183298
-0.713425 0.958755 0.651646 -1 -3 -3 192 192 192 255 0.233971 0.183298
0.713406 0.958755 0.651646 2 -1 -3 192 192 192 255 0.233971 0.183298
0.713406 1.18875 0.651646 1 2 -3 192 192 192 255 0.233971 0.183298
-0.713425 1.18875 0.651646 -2 1 -3 192 192 192 255 0.233971 0.183298
-0.713425 0.958755 0.687664 -2 -1 3 192 192 192 255 0.174214 0.183298
0.713406 0.958755 0.687664 1.00001 -2.00006 4 192 192 192 255 0.174214 0.183298
0.713406 1.18875 0.687664 2.00001 1.00022 5 192 192 192 255 0.204491 0.183298
-0.713425 1.18875 0.687664 -1 2.00005 4 192 192 192 255 0.262655 0.183298
-0.65942 1.17093 0.216377 2 -1 1 192 192 192 255 0.262655 0.183298
0.659409 1.17093 0.216377 -1 1 2 192 192 192 255 0.262655 0.183298
-0.65942 1.17093 0.627075 1 3 -2 192 192 192 255 0.262655 0.183298
0.659409 1.17093 0.627075 -2 3 -1 192 192 192 255 0.262655 0.183298
-0.65942 1.00383 0.216377 1 1 2 192 192 192 255 0.265045 0.183298
0.659409 1.00383 0.216377 -2 2 1 192 192 192 255 0.265045 0.183298
-0.65942 1.00383 0.627075 2 2 -1 192 192 192 255 0.265045 0.183298
0.659409 1.00383 0.627075 -1 1 -2 192 192 192 255 0.265045 0.183298
-0.639091 1.03957 0.687664 0 0 5 192 192 192 255 0.233971 0.183298
0.639072 1.03957 0.687664 2.68681e-005 -3.00989e-005 4 192 192 192 255 0.233971 0.183298
0.639072 1.10793 0.687664 1.45188e-005 3.44105e-005 4 192 192 192 255 0.233971 0.183298
-0.639091 1.10793 0.687664 -9.05835e-006 -4.77311e-005 4 192 192 192 255 0.233971 0.183298
-0.287598 1.03957 0.687664 -1.57688e-005 -1.16562e-006 4.04193 192 192 192 255 0.172865 0.0624
-0.287598 1.10793 0.687664 -3.54117e-005 -2.38656e-005 5 192 192 192 255 0.233971 0.183298
0.287575 1.03957 0.687668 -1.2359e-005 -6.00961e-005 5.04193 192 192 192 255 0.172865 0.0624
0.287575 1.10793 0.687668 1.35964e-005 6.88211e-005 5 192 192 192 255 0.172865 0.0624
0.025089 1.11161 0.687664 0.000146034 0 3.0496 192 192 192 255 0.362294 0.086737
0.025089 1.16124 0.687664 5.55871e-005 0.000108098 5 192 192 192 255 0.362294 0.086737
-0.025112 1.11161 0.687668 5.01472e-005 -1.26736e-006 3.0496 192 192 192 255 0.362294 0.086737
-0.025112 1.16124 0.687668 0.000142464 9.96441e-005 7 192 192 192 255 0.362294 0.086737
-1.1e-005 0.958755 0.687664 3.47851e-006 -2.00003 2.09154 192 192 192 255 0.174214 0.183298
-0.780445 0.168525 0.340893 2 3 1 192 192 192 255 0.328401 0.061667
-0.780445 0.168525 0.272808 1 3 -2 192 192 192 255 0.328401 0.061667
-0.780445 1.35969 0.272808 4 -2 -1 192 192 192 255 0.328401 0.061667
-0.780445 1.4204 0.340893 2 2 2 192 192 192 255 0.328401 0.061667
-0.839497 0.168525 0.272808 -2 3 -1 192 192 192 255 0.328401 0.061667
-0.839497 0.168525 0.340893 -1 3 2 192 192 192 255 0.328401 0.061667
-0.839497 1.4204 0.340893 -3 1 1 192 192 192 255 0.328401 0.061667
-0.839497 1.35969 0.272808 -3 -1 -2 192 192 192 255 0.328401 0.061667
-0.780445 0.168525 -0.578262 2 3 1 192 192 192 255 0.328401 0.061667
-0.780445 0.168525 -0.646347 1 3 -2 192 192 192 255 0.328401 0.061667
-0.780445 1.4204 -0.646347 4 1 -1 192 192 192 255 0.328401 0.061667
-0.780445 1.35969 -0.578262 2 -1 2 192 192 192 255 0.328401 0.061667
-0.839497 0.168525 -0.646347 -2 3 -1 192 192 192 255 0.328401 0.061667
-0.839497 0.168525 -0.578262 -1 3 2 192 192 192 255 0.328401 0.061667
-0.839497 1.35969 -0.578262 -3 -2 1 192 192 192 255 0.328401 0.061667
-0.839497 1.4204 -0.646347 -3 2 -2 192 192 192 255 0.328401 0.061667
-0.780445 1.35969 0.272808 4 -2 -1 192 192 192 255 0.302084 0.061667
-0.839497 1.35969 0.272808 -3 -1 -2 192 192 192 255 0.302084 0.061667
-0.839497 1.35969 -0.578262 -3 -2 1 192 192 192 255 0.302084 0.061667
-0.780445 1.35969 -0.578262 2 -1 2 192 192 192 255 0.302084 0.061667
-0.839497 1.35969 0.272808 -3 -1 -2 192 192 192 255 0.324237 0.061667
-0.839497 1.4204 0.340893 -3 1 1 192 192 192 255 0.324237 0.061667
-0.839497 1.4204 -0.646347 -3 2 -2 192 192 192 255 0.324237 0.061667
-0.839497 1.35969 -0.578262 -3 -2 1 192 192 192 255 0.324237 0.061667
-0.780445 1.35969 0.272808 4 -2 -1 192 192 192 255 0.324237 0.061667
-0.780445 1.35969 -0.578262 2 -1 2 192 192 192 255 0.324237 0.061667
-0.780445 1.4204 -0.646347 4 1 -1 192 192 192 255 0.324237 0.061667
-0.780445 1.4204 0.340893 2 2 2 192 192 192 255 0.324237 0.061667
-0.780445 1.4204 0.340893 2 2 2 192 192 192 255 0.395305 0.061667
-0.780445 1.4204 -0.646347 4 1 -1 192 192 192 255 0.395305 0.061667
-0.839497 1.4204 -0.646347 -3 2 -2 192 192 192 255 0.395305 0.061667
-0.839497 1.4204 0.340893 -3 1 1 192 192 192 255 0.395305 0.061667
0.839508 0.168525 0.340893 2 3 1 192 192 192 255 0.328401 0.061667
0.839508 0.168525 0.272808 1 3 -2 192 192 192 255 0.328401 0.061667
0.839508 1.35969 0.272808 4 -2 -1 192 192 192 255 0.328401 0.061667
0.839508 1.4204 0.340893 2 2 2 192 192 192 255 0.328401 0.061667
0.780457 0.168525 0.272808 -2 3 -1 192 192 192 255 0.328401 0.061667
0.780457 0.168525 0.340893 -1 3 2 192 192 192 255 0.328401 0.061667
0.780457 1.4204 0.340893 -3 1 1 192 192 192 255 0.328401 0.061667
0.780457 1.35969 0.272808 -3 -1 -2 192 192 192 255 0.328401 0.061667
0.839508 0.168525 -0.578262 2 3 1 192 192 192 255 0.328401 0.061667
0.839508 0.168525 -0.646347 1 3 -2 192 192 192 255 0.328401 0.061667
0.839508 1.4204 -0.646347 4 1 -1 192 192 192 255 0.328401 0.061667
0.839508 1.35969 -0.578262 2 -1 2 192 192 192 255 0.328401 0.061667
0.780457 0.168525 -0.646347 -2 3 -1 192 192 192 255 0.328401 0.061667
0.780457 0.168525 -0.578262 -1 3 2 192 192 192 255 0.328401 0.061667
0.780457 1.35969 -0.578262 -3 -2 1 192 192 192 255 0.328401 0.061667
0.780457 1.4204 -0.646347 -3 2 -2 192 192 192 255 0.328401 0.061667
0.839508 1.35969 0.272808 4 -2 -1 192 192 192 255 0.302084 0.061667
0.780457 1.35969 0.272808 -3 -1 -2 192 192 192 255 0.302084 0.061667
0.780457 1.35969 -0.578262 -3 -2 1 192 192 192 255 0.302084 0.061667
0.839508 1.35969 -0.578262 2 -1 2 192 192 192 255 0.302084 0.061667
0.780457 1.35969 0.272808 -3 -1 -2 192 192 192 255 0.324237 0.061667
0.780457 1.4204 0.340893 -3 1 1 192 192 192 255 0.324237 0.061667
0.780457 1.4204 -0.646347 -3 2 -2 192 192 192 255 0.324237 0.061667
0.780457 1.35969 -0.578262 -3 -2 1 192 192 192 255 0.324237 0.061667
0.839508 1.35969 0.272808 4 -2 -1 192 192 192 255 0.324237 0.061667
0.839508 1.35969 -0.578262 2 -1 2 192 192 192 255 0.324237 0.061667
0.839508 1.4204 -0.646347 4 1 -1 192 192 192 255 0.324237 0.061667
0.839508 1.4204 0.340893 2 2 2 192 192 192 255 0.324237 0.061667
0.839508 1.4204 0.340893 2 2 2 192 192 192 255 0.395305 0.061667
0.839508 1.4204 -0.646347 4 1 -1 192 192 192 255 0.395305 0.061667
0.780457 1.4204 -0.646347 -3 2 -2 192 192 192 255 0.395305 0.061667
0.780457 1.4204 0.340893 -3 1 1 192 192 192 255 0.395305 0.061667
-0.839497 0.168525 0.272808 -2 3 -1 192 192 192 255 0.235225 0.061667
-0.780445 0.168525 0.272808 1 3 -2 192 192 192 255 0.235225 0.061667
-0.780445 0.168525 0.340893 2 3 1 192 192 192 255 0.235225 0.061667
-0.839497 0.168525 0.340893 -1 3 2 192 192 192 255 0.235225 0.061667
-0.839497 0.168525 -0.646347 -2 3 -1 192 192 192 255 0.235225 0.061667
-0.780445 0.168525 -0.646347 1 3 -2 192 192 192 255 0.235225 0.061667
-0.780445 0.168525 -0.578262 2 3 1 192 192 192 255 0.235225 0.061667
-0.839497 0.168525 -0.578262 -1 3 2 192 192 192 255 0.235225 0.061667
0.780457 0.168525 0.272808 -2 3 -1 192 192 192 255 0.235225 0.061667
0.839508 0.168525 0.272808 1 3 -2 192 192 192 255 0.235225 0.061667
0.839508 0.168525 0.340893 2 3 1 192 192 192 255 0.235225 0.061667
0.780457 0.168525 0.340893 -1 3 2 192 192 192 255 0.235225 0.061667
0.780457 0.168525 -0.646347 -2 3 -1 192 192 192 255 0.235225 0.061667
0.839508 0.168525 -0.646347 1 3 -2 192 192 192 255 0.235225 0.061667
0.839508 0.168525 -0.578262 2 3 1 192 192 192 255 0.235225 0.061667
0.780457 0.168525 -0.578262 -1 3 2 192 192 192 255 0.235225 0.061667
-0.846355 0.168525 0.23148 -3 3 -2 192 192 192 255 0.200168 0.061667
-0.773586 0.168525 0.23148 2 3 -1 192 192 192 255 0.200168 0.061667
-0.773586 0 0.23148 1 -1 -2 192 192 192 255 0.200168 0.061667
-0.846355 0 0.23148 -3 -2 -1 192 192 192 255 0.200168 0.061667
-0.773586 0.168525 0.23148 2 3 -1 192 192 192 255 0.1675 0.061667
-0.773586 0.168525 0.382214 1 3 2 192 192 192 255 0.1675 0.061667
-0.773586 0 0.382214 2 -2 1 192 192 192 255 0.1675 0.061667
-0.773586 0 0.23148 1 -1 -2 192 192 192 255 0.1675 0.061667
-0.773586 0.168525 0.382214 1 3 2 192 192 192 255 0.200168 0.061667
-0.846355 0.168525 0.382214 -3 3 1 192 192 192 255 0.200168 0.061667
-0.846355 0 0.382214 -3 -1 2 192 192 192 255 0.200168 0.061667
-0.773586 0 0.382214 2 -2 1 192 192 192 255 0.200168 0.061667
-0.846355 0.168525 -0.687668 -3 3 -2 192 192 192 255 0.200168 0.061667
-0.773586 0.168525 -0.687668 2 3 -1 192 192 192 255 0.200168 0.061667
-0.773586 0 -0.687668 1 -1 -2 192 192 192 255 0.200168 0.061667
-0.846355 0 -0.687668 -3 -2 -1 192 192 192 255 0.200168 0.061667
-0.773586 0.168525 -0.687668 2 3 -1 192 192 192 255 0.1675 0.061667
-0.773586 0.168525 -0.536934 1 3 2 192 192 192 255 0.1675 0.061667
-0.773586 0 -0.536934 2 -2 1 192 192 192 255 0.1675 0.061667
-0.773586 0 -0.687668 1 -1 -2 192 192 192 255 0.1675 0.061667
-0.773586 0.168525 -0.536934 1 3 2 192 192 192 255 0.200168 0.061667
-0.846355 0.168525 -0.536934 -3 3 1 192 192 192 255 0.200168 0.061667
-0.846355 0 -0.536934 -3 -1 2 192 192 192 255 0.200168 0.061667
-0.773586 0 -0.536934 2 -2 1 192 192 192 255 0.200168 0.061667
0.77359 0.168525 0.23148 -1 3 -2 192 192 192 255 0.200168 0.061667
0.846363 0.168525 0.23148 3 3 -1 192 192 192 255 0.200168 0.061667
0.846363 0 0.23148 3 -1 -2 192 192 192 255 0.200168 0.061667
0.77359 0 0.23148 -2 -2 -1 192 192 192 255 0.200168 0.061667
0.846363 0.168525 0.382214 3 3 2 192 192 192 255 0.200168 0.061667
0.77359 0.168525 0.382214 -2 3 1 192 192 192 255 0.200168 0.061667
0.77359 0 0.382214 -1 -1 2 192 192 192 255 0.200168 0.061667
0.846363 0 0.382214 3 -2 1 192 192 192 255 0.200168 0.061667
0.77359 0.168525 0.382214 -2 3 1 192 192 192 255 0.1675 0.061667
0.77359 0.168525 0.23148 -1 3 -2 192 192 192 255 0.1675 0.061667
0.77359 0 0.23148 -2 -2 -1 192 192 192 255 0.1675 0.061667
0.77359 0 0.382214 -1 -1 2 192 192 192 255 0.1675 0.061667
0.77359 0.168525 -0.687668 -1 3 -2 192 192 192 255 0.200168 0.061667
0.846363 0.168525 -0.687668 3 3 -1 192 192 192 255 0.200168 0.061667
0.846363 0 -0.687668 3 -1 -2 192 192 192 255 0.200168 0.061667
0.77359 0 -0.687668 -2 -2 -1 192 192 192 255 0.200168 0.061667
0.846363 0.168525 -0.536934 3 3 2 192 192 192 255 0.200168 0.061667
0.77359 0.168525 -0.536934 -2 3 1 192 192 192 255 0.200168 0.061667
0.77359 0 -0.536934 -1 -1 2 192 192 192 255 0.200168 0.061667
0.846363 0 -0.536934 3 -2 1 192 192 192 255 0.200168 0.061667
0.77359 0.168525 -0.536934 -2 3 1 192 192 192 255 0.1675 0.061667
0.77359 0.168525 -0.687668 -1 3 -2 192 192 192 255 0.1675 0.061667
0.77359 0 -0.687668 -2 -2 -1 192 192 192 255 0.1675 0.061667
0.77359 0 -0.536934 -1 -1 2 192 192 192 255 0.1675 0.061667
-0.846355 0.168525 0.382214 -3 3 1 192 192 192 255 0.1675 0.061667
-0.846355 0.168525 0.23148 -3 3 -2 192 192 192 255 0.1675 0.061667
-0.846355 0.13177 0.264355 -4 0 0 192 192 192 255 0.1675 0.061667
-0.846355 0.13177 0.349342 -5 0 0 192 192 192 255 0.1675 0.061667
-0.846355 0 0.23148 -3 -2 -1 192 192 192 255 0.1675 0.061667
-0.846355 0.036755 0.264355 -5 0 0 192 192 192 255 0.1675 0.061667
-0.846355 0 0.382214 -3 -1 2 192 192 192 255 0.1675 0.061667
-0.846355 0.036755 0.349342 -4 0 0 192 192 192 255 0.1675 0.061667
-0.846355 0.168525 -0.536934 -3 3 1 192 192 192 255 0.1675 0.061667
-0.846355 0.168525 -0.687668 -3 3 -2 192 192 192 255 0.1675 0.061667
-0.846355 0.13177 -0.654793 -4 0 0 192 192 192 255 0.1675 0.061667
-0.846355 0.13177 -0.569809 -5 0 0 192 192 192 255 0.1675 0.061667
-0.846355 0 -0.687668 -3 -2 -1 192 192 192 255 0.1675 0.061667
-0.846355 0.036755 -0.654793 -5 0 0 192 192 192 255 0.1675 0.061667
-0.846355 0 -0.536934 -3 -1 2 192 192 192 255 0.1675 0.061667
-0.846355 0.036755 -0.569809 -4 0 0 192 192 192 255 0.1675 0.061667
0.846363 0.168525 0.23148 3 3 -1 192 192 192 255 0.1675 0.061667
0.846363 0.168525 0.382214 3 3 2 192 192 192 255 0.1675 0.061667
0.846363 0.13177 0.349342 4 0 0 192 192 192 255 0.1675 0.061667
0.846363 0.13177 0.264355 5 0 0 192 192 192 255 0.1675 0.061667
0.846363 0 0.382214 3 -2 1 192 192 192 255 0.1675 0.061667
0.846363 0.036755 0.349342 5 0 0 192 192 192 255 0.1675 0.061667
0.846363 0 0.23148 3 -1 -2 192 192 192 255 0.1675 0.061667
0.846363 0.036755 0.264355 4 0 0 192 192 192 255 0.1675 0.061667
0.846363 0.168525 -0.687668 3 3 -1 192 192 192 255 0.1675 0.061667
0.846363 0.168525 -0.536934 3 3 2 192 192 192 255 0.1675 0.061667
0.846363 0.13177 -0.569809 4 0 0 192 192 192 255 0.1675 0.061667
0.846363 0.13177 -0.654793 5 0 0 192 192 192 255 0.1675 0.061667
0.846363 0 -0.536934 3 -2 1 192 192 192 255 0.1675 0.061667
0.846363 0.036755 -0.569809 5 0 0 192 192 192 255 0.1675 0.061667
0.846363 0 -0.687668 3 -1 -2 192 192 192 255 0.1675 0.061667
0.846363 0.036755 -0.654793 4 0 0 192 192 192 255 0.1675 0.061667
-0.852238 0.284219 -0.652714 -2 -2 -1 192 192 192 255 0.168952 0.183298
0.852238 0.284219 -0.652714 1 -1 -2 192 192 192 255 0.168952 0.183298
0.852238 0.284219 0.347286 2 -2 2 192 192 192 255 0.201933 0.183298
0.852238 0.284219 -0.652714 1 -1 -2 192 192 192 255 0.201933 0.183298
0.852238 0.415194 -0.652714 2 3 -1 192 192 192 255 0.201933 0.183298
-0.852238 0.284219 -0.652714 -2 -2 -1 192 192 192 255 0.201933 0.183298
-0.852238 0.284219 0.347286 -1 -1 1 192 192 192 255 0.201933 0.183298
-0.852238 0.415194 -0.652714 -1 3 -2 192 192 192 255 0.201933 0.183298
-0.852238 0.415194 0.347286 -2 3 2 192 192 192 255 0.268837 0.183298
0.852238 0.415194 0.347286 1 3 1 192 192 192 255 0.268837 0.183298
0.852238 0.415194 -0.652714 2 3 -1 192 192 192 255 0.268837 0.183298
-0.852238 0.415194 -0.652714 -1 3 -2 192 192 192 255 0.268837 0.183298
-0.811356 0.415194 0.305141 1 3 -2 192 192 192 255 0.233986 0.183298
0.811337 0.415194 0.305141 -2 3 -1 192 192 192 255 0.233986 0.183298
0.811337 0.350618 0.305141 -1 1 -2 192 192 192 255 0.233986 0.183298
-0.811356 0.350618 0.305141 2 2 -1 192 192 192 255 0.233986 0.183298
0.811337 0.415194 0.305141 -2 3 -1 192 192 192 255 0.203236 0.183298
0.811337 0.415194 -0.610561 -1 3 2 192 192 192 255 0.203236 0.183298
0.811337 0.350618 -0.610561 -2 2 1 192 192 192 255 0.203236 0.183298
0.811337 0.350618 0.305141 -1 1 -2 192 192 192 255 0.203236 0.183298
0.811337 0.415194 -0.610561 -1 3 2 192 192 192 255 0.233986 0.183298
-0.811356 0.415194 -0.610561 2 3 1 192 192 192 255 0.233986 0.183298
-0.811356 0.350618 -0.610561 1 1 2 192 192 192 255 0.233986 0.183298
0.811337 0.350618 -0.610561 -2 2 1 192 192 192 255 0.233986 0.183298
-0.811356 0.415194 -0.610561 2 3 1 192 192 192 255 0.203236 0.183298
-0.811356 0.415194 0.305141 1 3 -2 192 192 192 255 0.203236 0.183298
-0.811356 0.350618 0.305141 2 2 -1 192 192 192 255 0.203236 0.183298
-0.811356 0.350618 -0.610561 1 1 2 192 192 192 255 0.203236 0.183298
-0.852238 0.415194 0.347286 -2 3 2 192 192 192 255 0.233971 0.183298
-0.852238 0.284219 0.347286 -1 -1 1 192 192 192 255 0.233971 0.183298
0.852238 0.284219 0.347286 2 -2 2 192 192 192 255 0.233971 0.183298
0.852238 0.415194 0.347286 1 3 1 192 192 192 255 0.233971 0.183298
-0.852238 0.939262 -0.652714 -2 -2 -1 192 192 192 255 0.168952 0.183298
0.852238 0.939262 -0.652714 1 -1 -2 192 192 192 255 0.168952 0.183298
0.852238 0.939262 0.347286 2 -2 3 192 192 192 255 0.201933 0.183298
0.852238 0.939262 -0.652714 1 -1 -2 192 192 192 255 0.201933 0.183298
0.852238 1.23962 -0.652714 2 3 -1 192 192 192 255 0.201933 0.183298
-0.852238 0.939262 -0.652714 -2 -2 -1 192 192 192 255 0.201933 0.183298
-0.852238 0.939262 0.347286 -1 -1 3 192 192 192 255 0.201933 0.183298
-0.852238 1.23962 -0.652714 -1 3 -2 192 192 192 255 0.201933 0.183298
-0.852238 1.23962 0.347286 -2 3 3 192 192 192 255 0.268837 0.183298
0.852238 1.23962 0.347286 1 3 3 192 192 192 255 0.268837 0.183298
0.852238 1.23962 -0.652714 2 3 -1 192 192 192 255 0.268837 0.183298
-0.852238 1.23962 -0.652714 -1 3 -2 192 192 192 255 0.268837 0.183298
-0.811356 1.23962 0.305141 1 3 -2 192 192 192 255 0.233986 0.183298
0.811337 1.23962 0.305141 -2 3 -1 192 192 192 255 0.233986 0.183298
0.811337 1.17505 0.305141 -1 1 -2 192 192 192 255 0.233986 0.183298
-0.811356 1.17505 0.305141 2 2 -1 192 192 192 255 0.233986 0.183298
0.811337 1.23962 0.305141 -2 3 -1 192 192 192 255 0.203236 0.183298
0.811337 1.23962 -0.610561 -1 3 2 192 192 192 255 0.203236 0.183298
0.811337 1.17505 -0.610561 -2 2 1 192 192 192 255 0.203236 0.183298
0.811337 1.17505 0.305141 -1 1 -2 192 192 192 255 0.203236 0.183298
0.811337 1.23962 -0.610561 -1 3 2 192 192 192 255 0.233986 0.183298
-0.811356 1.23962 -0.610561 2 3 1 192 192 192 255 0.233986 0.183298
-0.811356 1.17505 -0.610561 1 1 2 192 192 192 255 0.233986 0.183298
0.811337 1.17505 -0.610561 -2 2 1 192 192 192 255 0.233986 0.183298
-0.811356 1.23962 -0.610561 2 3 1 192 192 192 255 0.203236 0.183298
-0.811356 1.23962 0.305141 1 3 -2 192 192 192 255 0.203236 0.183298
-0.811356 1.17505 0.305141 2 2 -1 192 192 192 255 0.203236 0.183298
-0.811356 1.17505 -0.610561 1 1 2 192 192 192 255 0.203236 0.183298
-0.852238 0.939262 0.347286 -1 -1 3 192 192 192 255 0.233971 0.183298
0.852238 0.939262 0.347286 2 -2 3 192 192 192 255 0.233971 0.183298
0.852238 1.23962 0.347286 1 3 3 192 192 192 255 0.233971 0.183298
-0.852238 1.23962 0.347286 -2 3 3 192 192 192 255 0.233971 0.183298
-0.691685 0.976574 0.347286 -1 -2 3 192 192 192 255 0.174214 0.183298
0.691685 0.976574 0.347286 2 -1 3 192 192 192 255 0.174214 0.183298
0.691685 0.976574 0.347286 2 -1 3 192 192 192 255 0.204491 0.183298
0.691685 1.17093 0.347286 1 -1 3 192 192 192 255 0.204491 0.183298
0.691685 0.976574 0.651646 1 -2 -3 192 192 192 255 0.204491 0.183298
-0.691685 1.17093 0.347286 -2 1 3 192 192 192 255 0.204491 0.183298
-0.691685 0.976574 0.347286 -1 -2 3 192 192 192 255 0.204491 0.183298
-0.691685 0.976574 0.651646 -2 -1 -3 192 192 192 255 0.204491 0.183298
-0.691685 0.976574 0.651646 -2 -1 -3 192 192 192 255 0.233971 0.183298
0.691685 0.976574 0.651646 1 -2 -3 192 192 192 255 0.233971 0.183298
0.691685 1.17093 0.651646 2 3 -3 192 192 192 255 0.233971 0.183298
-0.691685 1.17093 0.651646 -1 3 -3 192 192 192 255 0.233971 0.183298
-0.713425 0.958755 0.651646 -1 -3 -3 192 192 192 255 0.174214 0.183298
0.713406 0.958755 0.651646 2 -1 -3 192 192 192 255 0.174214 0.183298
0.713406 0.958755 0.651646 2 -1 -3 192 192 192 255 0.204491 0.183298
0.713406 1.18875 0.651646 1 2 -3 192 192 192 255 0.204491 0.183298
0.713406 0.958755 0.687664 1.00001 -2.00006 4 192 192 192 255 0.204491 0.183298
0.713406 1.18875 0.651646 1 2 -3 192 192 192 255 0.262655 0.183298
-0.713425 1.18875 0.651646 -2 1 -3 192 192 192 255 0.262655 0.183298
0.713406 1.18875 0.687664 2.00001 1.00022 5 192 192 192 255 0.262655 0.183298
-0.713425 1.18875 0.651646 -2 1 -3 192 192 192 255 0.204491 0.183298
-0.713425 0.958755 0.651646 -1 -3 -3 192 192 192 255 0.204491 0.183298
-0.713425 0.958755 0.687664 -2 -1 3 192 192 192 255 0.204491 0.183298
-0.713425 1.18875 0.687664 -1 2.00005 4 192 192 192 255 0.204491 0.183298
0.691685 1.17093 0.347286 1 -1 3 192 192 192 255 0.262655 0.183298
-0.691685 1.17093 0.347286 -2 1 3 192 192 192 255 0.262655 0.183298
-0.691685 1.17093 0.651646 -1 3 -3 192 192 192 255 0.262655 0.183298
0.691685 1.17093 0.651646 2 3 -3 192 192 192 255 0.262655 0.183298
0.659409 1.17093 0.216377 -1 1 2 192 192 192 255 0.233971 0.183298
-0.65942 1.17093 0.216377 2 -1 1 192 192 192 255 0.233971 0.183298
-0.65942 1.00383 0.216377 1 1 2 192 192 192 255 0.233971 0.183298
0.659409 1.00383 0.216377 -2 2 1 192 192 192 255 0.233971 0.183298
-0.65942 1.17093 0.216377 2 -1 1 192 192 192 255 0.201304 0.183298
-0.65942 1.17093 0.627075 1 3 -2 192 192 192 255 0.201304 0.183298
-0.65942 1.00383 0.627075 2 2 -1 192 192 192 255 0.201304 0.183298
-0.65942 1.00383 0.216377 1 1 2 192 192 192 255 0.201304 0.183298
-0.65942 1.17093 0.627075 1 3 -2 192 192 192 255 0.233971 0.183298
0.659409 1.17093 0.627075 -2 3 -1 192 192 192 255 0.233971 0.183298
0.659409 1.00383 0.627075 -1 1 -2 192 192 192 255 0.233971 0.183298
-0.65942 1.00383 0.627075 2 2 -1 192 192 192 255 0.233971 0.183298
0.659409 1.17093 0.627075 -2 3 -1 192 192 192 255 0.201304 0.183298
0.659409 1.17093 0.216377 -1 1 2 192 192 192 255 0.201304 0.183298
0.659409 1.00383 0.216377 -2 2 1 192 192 192 255 0.201304 0.183298
0.659409 1.00383 0.627075 -1 1 -2 192 192 192 255 0.201304 0.183298
-0.025112 1.11161 0.687668 5.01472e-005 -1.26736e-006 3.0496 192 192 192 255 0.233971 0.183298
-1.1e-005 0.958755 0.687664 3.47851e-006 -2.00003 2.09154 192 192 192 255 0.233971 0.183298
0.025089 1.11161 0.687664 0.000146034 0 3.0496 192 192 192 255 0.233971 0.183298
0.713406 0.958755 0.687664 1.00001 -2.00006 4 192 192 192 255 0.233971 0.183298
0.713406 1.18875 0.687664 2.00001 1.00022 5 192 192 192 255 0.233971 0.183298
-0.025112 1.16124 0.687668 0.000142464 9.96441e-005 7 192 192 192 255 0.233971 0.183298
-0.713425 1.18875 0.687664 -1 2.00005 4 192 192 192 255 0.233971 0.183298
-0.713425 0.958755 0.687664 -2 -1 3 192 192 192 255 0.233971 0.183298
-0.639091 1.03957 0.687664 0 0 5 192 192 192 255 0.172865 0.0624
-0.287598 1.10793 0.687664 -3.54117e-005 -2.38656e-005 5 192 192 192 255 0.172865 0.0624
-0.639091 1.10793 0.687664 -9.05835e-006 -4.77311e-005 4 192 192 192 255 0.172865 0.0624
0.639072 1.03957 0.687664 2.68681e-005 -3.00989e-005 4 192 192 192 255 0.172865 0.0624
0.639072 1.10793 0.687664 1.45188e-005 3.44105e-005 4 192 192 192 255 0.172865 0.0624
-0.287598 1.03957 0.687664 -1.57688e-005 -1.16562e-006 4.04193 192 192 192 255 0.233971 0.183298
0.287575 1.03957 0.687668 -1.2359e-005 -6.00961e-005 5.04193 192 192 192 255 0.233971 0.183298
0.287575 1.10793 0.687668 1.35964e-005 6.88211e-005 5 192 192 192 255 0.233971 0.183298
0.025089 1.16124 0.687664 5.55871e-005 0.000108098 5 192 192 192 255 0.233971 0.183298
3 0 1 3 
3 0 3 2 
3 4 5 7 
3 4 7 6 
3 48 49 50 
3 48 50 51 
3 149 150 151 
3 149 151 152 
3 153 154 155 
3 153 155 156 
3 8 9 11 
3 8 11 10 
3 12 13 15 
3 12 15 14 
3 52 53 54 
3 52 54 55 
3 157 158 159 
3 157 159 160 
3 161 162 163 
3 161 163 164 
3 165 166 167 
3 165 167 168 
3 169 170 171 
3 169 171 172 
3 173 174 175 
3 173 175 176 
3 177 178 179 
3 177 179 180 
3 16 17 19 
3 16 19 18 
3 20 21 23 
3 20 23 22 
3 56 57 58 
3 56 58 59 
3 181 182 183 
3 181 183 184 
3 185 186 187 
3 185 187 188 
3 24 25 27 
3 24 27 26 
3 28 29 31 
3 28 31 30 
3 60 61 62 
3 60 62 63 
3 189 190 191 
3 189 191 192 
3 193 194 195 
3 193 195 196 
3 197 198 199 
3 197 199 200 
3 201 202 203 
3 201 203 204 
3 205 206 207 
3 205 207 208 
3 209 210 211 
3 209 211 212 
3 213 214 33 
3 213 33 32 
3 214 215 34 
3 214 34 33 
3 215 216 35 
3 215 35 34 
3 216 213 32 
3 216 32 35 
3 217 218 37 
3 217 37 36 
3 218 219 38 
3 218 38 37 
3 219 220 39 
3 219 39 38 
3 220 217 36 
3 220 36 39 
3 221 222 41 
3 221 41 40 
3 222 223 42 
3 222 42 41 
3 223 224 43 
3 223 43 42 
3 224 221 40 
3 224 40 43 
3 225 226 45 
3 225 45 44 
3 226 227 46 
3 226 46 45 
3 227 228 47 
3 227 47 46 
3 228 225 44 
3 228 44 47 
3 229 230 231 
3 229 231 232 
3 233 234 235 
3 233 235 236 
3 237 238 239 
3 237 239 240 
3 65 64 66 
3 65 66 67 
3 241 242 243 
3 241 243 244 
3 245 246 247 
3 245 247 248 
3 249 250 251 
3 249 251 252 
3 69 68 70 
3 69 70 71 
3 253 254 255 
3 253 255 256 
3 72 73 74 
3 72 74 75 
3 257 258 259 
3 257 259 260 
3 261 262 263 
3 261 263 264 
3 265 266 267 
3 265 267 268 
3 76 77 78 
3 76 78 79 
3 269 270 271 
3 269 271 272 
3 273 274 275 
3 273 275 276 
3 277 278 279 
3 277 279 280 
3 278 281 282 
3 278 282 279 
3 281 283 284 
3 281 284 282 
3 283 277 280 
3 283 280 284 
3 285 286 287 
3 285 287 288 
3 286 289 290 
3 286 290 287 
3 289 291 292 
3 289 292 290 
3 291 285 288 
3 291 288 292 
3 293 294 295 
3 293 295 296 
3 294 297 298 
3 294 298 295 
3 297 299 300 
3 297 300 298 
3 299 293 296 
3 299 296 300 
3 301 302 303 
3 301 303 304 
3 302 305 306 
3 302 306 303 
3 305 307 308 
3 305 308 306 
3 307 301 304 
3 307 304 308 
3 92 93 94 
3 92 94 95 
3 84 85 87 
3 84 87 86 
3 309 310 81 
3 309 81 80 
3 311 312 313 
3 311 313 83 
3 314 315 82 
3 314 82 316 
3 317 318 89 
3 317 89 88 
3 318 319 90 
3 318 90 89 
3 319 320 91 
3 319 91 90 
3 320 317 88 
3 320 88 91 
3 321 322 323 
3 321 323 324 
3 325 326 327 
3 325 327 328 
3 329 330 331 
3 329 331 332 
3 333 334 335 
3 333 335 336 
3 337 338 339 
3 337 339 340 
3 144 145 147 
3 144 147 146 
3 108 109 110 
3 108 110 111 
3 100 101 103 
3 100 103 102 
3 341 342 97 
3 341 97 96 
3 343 344 345 
3 343 345 99 
3 346 347 98 
3 346 98 348 
3 349 350 105 
3 349 105 104 
3 350 351 106 
3 350 106 105 
3 351 352 107 
3 351 107 106 
3 352 349 104 
3 352 104 107 
3 353 354 355 
3 353 355 356 
3 357 358 359 
3 357 359 360 
3 361 362 363 
3 361 363 364 
3 365 366 367 
3 365 367 368 
3 369 370 113 
3 369 113 112 
3 370 371 114 
3 370 114 113 
3 371 372 115 
3 371 115 114 
3 372 369 112 
3 372 112 115 
3 373 374 117 
3 373 117 116 
3 375 376 118 
3 375 118 377 
3 133 132 134 
3 133 134 135 
3 378 379 380 
3 378 380 119 
3 381 382 121 
3 381 121 120 
3 382 383 122 
3 382 122 121 
3 383 384 123 
3 383 123 122 
3 384 381 120 
3 384 120 123 
3 385 386 125 
3 385 125 148 
3 385 148 124 
3 387 388 126 
3 387 126 389 
3 390 391 127 
3 390 127 392 
3 393 394 395 
3 393 395 396 
3 397 398 128 
3 397 128 129 
3 398 399 130 
3 398 130 128 
3 399 400 131 
3 399 131 130 
3 400 397 129 
3 400 129 131 
3 401 402 403 
3 401 403 404 
3 405 406 407 
3 405 407 408 
3 409 410 411 
3 409 411 412 
3 413 414 415 
3 413 415 416 
3 417 418 419 
3 420 421 138 
3 420 138 137 
3 422 423 139 
3 422 139 141 
3 423 424 136 
3 423 136 139 
3 425 140 426 
3 425 426 427 
3 143 142 428 
3 143 428 429 
3 417 422 141 
3 417 141 430 
3 431 432 433 
3 431 433 419 
3 430 418 417 
3 419 418 431 
3 424 418 430 
3 424 430 136 
3 431 418 420 
3 431 420 137 
3 421 423 422 
3 421 422 433 
3 421 433 432 
3 421 432 138 
