ply
format ascii 1.0
comment VCGLIB generated
comment TextureFile SpaceInteriors_Texture.png
element vertex 98
property float x
property float y
property float z
property float nx
property float ny
property float nz
property uchar red
property uchar green
property uchar blue
property uchar alpha
property float texture_u
property float texture_v
element face 68
property list uchar int vertex_indices
end_header
-0.590382 0.201855 0.470573 -3 0 4 192 192 192 255 0.298696 0.062414
0.339043 0.201855 0.470573 3.5356 4.71855e-005 8.53547 192 192 192 255 0.331311 0.062414
-0.590382 1.41026 0.470573 -1 3 3 192 192 192 255 0.359672 0.061705
0.339043 1.41026 0.470573 2.12114 1.00005 5.1215 192 192 192 255 0.359672 0.061705
-0.590382 1.41026 -0.470573 -2 1 -2 192 192 192 255 0.359672 0.061705
0.590382 1.41026 -0.470573 1 2 -1 192 192 192 255 0.359672 0.061705
-0.590382 0.201855 -0.470573 -3 0 -3 192 192 192 255 0.331311 0.062414
0.590382 0.201855 -0.470573 4 0 -3 192 192 192 255 0.331311 0.062414
-0.470917 0.489671 0.470573 0 0 6 192 192 192 255 0.331311 0.062414
0.224464 0.489671 0.470573 0 0 6 192 192 192 255 0.331311 0.062414
0.224464 1.32245 0.470573 0 0 6 192 192 192 255 0.331311 0.062414
-0.470917 1.32245 0.470573 0 0 6 192 192 192 255 0.331311 0.062414
-0.590382 0.148647 -0.470573 -3 0 -3 192 192 192 255 0.263352 0.064251
0.590382 0.148647 -0.470573 3 0 -3 192 192 192 255 0.263352 0.064251
0.339043 0.148647 0.470573 2.1213 0 5.12134 192 192 192 255 0.263352 0.064251
-0.590382 0.148647 0.470573 -3 0 3 192 192 192 255 0.263352 0.064251
-0.590382 0 -0.470573 -1 -2 -1 192 192 192 255 0.263954 0.059578
0.590382 0 -0.470573 1 -1 -2 192 192 192 255 0.263954 0.059578
0.339043 0 0.470573 1.4142 -1 2.41422 192 192 192 255 0.263954 0.059578
-0.590382 0 0.470573 -2 -2 2 192 192 192 255 0.263954 0.059578
0.590382 1.41026 0.219238 4.12142 2.00011 2.12123 192 192 192 255 0.359672 0.061705
0.590382 0 0.219238 2.7071 -3 0.707112 192 192 192 255 0.263954 0.059578
0.590382 0.148647 0.219238 5.1213 0 2.12134 192 192 192 255 0.263352 0.064251
0.590382 0.201855 0.219238 6.94971 1.40338e-005 4.94979 192 192 192 255 0.263352 0.064251
0.355457 0.864728 0.454163 4.9499 -0.000111473 4.94959 192 192 192 255 0.516989 0.741526
0.573961 0.864728 0.235664 3.53549 -0.000197848 3.53557 192 192 192 255 0.516989 0.682494
0.573961 1.35169 0.235664 3.53573 5.46018e-005 3.53534 192 192 192 255 0.667219 0.682494
0.355457 1.35169 0.454163 2.82832 0.000109204 2.82854 192 192 192 255 0.667219 0.741526
0.367889 0.355129 0.441719 3.53585 1.16415e-005 3.53521 192 192 192 255 0.68005 0.678374
0.561531 0.355129 0.248085 2.82828 4.83817e-005 2.82858 192 192 192 255 0.742389 0.678374
0.561531 0.786857 0.248085 3.53526 -0.000109081 3.53581 192 192 192 255 0.742389 0.740713
0.367889 0.786857 0.441719 2.82857 -0.000199044 2.82829 192 192 192 255 0.68005 0.740713
-0.439156 0.527706 0.470573 0 0 5 192 192 192 255 0.023672 0.526021
0.192703 0.527706 0.470573 0 0 4 192 192 192 255 0.023672 0.526021
0.192703 1.28442 0.470573 0 0 5 192 192 192 255 0.023672 0.526021
-0.439156 1.28442 0.470573 0 0 4 192 192 192 255 0.023672 0.526021
-0.590382 1.41026 -0.470573 -2 1 -2 192 192 192 255 0.331311 0.062414
0.590382 1.41026 -0.470573 1 2 -1 192 192 192 255 0.331311 0.062414
-0.590382 1.41026 0.470573 -1 3 3 192 192 192 255 0.298696 0.062414
-0.590382 1.41026 -0.470573 -2 1 -2 192 192 192 255 0.298696 0.062414
-0.590382 0.201855 -0.470573 -3 0 -3 192 192 192 255 0.298696 0.062414
-0.590382 0.201855 0.470573 -3 0 4 192 192 192 255 0.331311 0.062414
0.339043 1.41026 0.470573 2.12114 1.00005 5.1215 192 192 192 255 0.331311 0.062414
-0.590382 1.41026 0.470573 -1 3 3 192 192 192 255 0.331311 0.062414
-0.590382 0.201855 -0.470573 -3 0 -3 192 192 192 255 0.263352 0.064251
0.590382 0.201855 -0.470573 4 0 -3 192 192 192 255 0.263352 0.064251
0.339043 0.201855 0.470573 3.5356 4.71855e-005 8.53547 192 192 192 255 0.263352 0.064251
-0.590382 0.201855 0.470573 -3 0 4 192 192 192 255 0.263352 0.064251
-0.590382 0.148647 0.470573 -3 0 3 192 192 192 255 0.230737 0.064251
-0.590382 0.201855 0.470573 -3 0 4 192 192 192 255 0.230737 0.064251
-0.590382 0.201855 -0.470573 -3 0 -3 192 192 192 255 0.230737 0.064251
-0.590382 0.148647 -0.470573 -3 0 -3 192 192 192 255 0.230737 0.064251
-0.590382 0.148647 -0.470573 -3 0 -3 192 192 192 255 0.331311 0.062414
0.590382 0.148647 -0.470573 3 0 -3 192 192 192 255 0.331311 0.062414
0.590382 0 -0.470573 1 -1 -2 192 192 192 255 0.331311 0.062414
-0.590382 0 -0.470573 -1 -2 -1 192 192 192 255 0.331311 0.062414
0.590382 0.148647 0.219238 5.1213 0 2.12134 192 192 192 255 0.331311 0.062414
0.339043 0.148647 0.470573 2.1213 0 5.12134 192 192 192 255 0.331311 0.062414
0.339043 0 0.470573 1.4142 -1 2.41422 192 192 192 255 0.331311 0.062414
0.590382 0 0.219238 2.7071 -3 0.707112 192 192 192 255 0.331311 0.062414
-0.590382 0.148647 0.470573 -3 0 3 192 192 192 255 0.331311 0.062414
-0.590382 0 0.470573 -2 -2 2 192 192 192 255 0.331311 0.062414
-0.590382 0 0.470573 -2 -2 2 192 192 192 255 0.298696 0.062414
-0.590382 0.148647 0.470573 -3 0 3 192 192 192 255 0.298696 0.062414
-0.590382 0.148647 -0.470573 -3 0 -3 192 192 192 255 0.298696 0.062414
-0.590382 0 -0.470573 -1 -2 -1 192 192 192 255 0.298696 0.062414
0.590382 0.148647 -0.470573 3 0 -3 192 192 192 255 0.298696 0.062414
0.590382 0.148647 0.219238 5.1213 0 2.12134 192 192 192 255 0.298696 0.062414
0.590382 0 0.219238 2.7071 -3 0.707112 192 192 192 255 0.298696 0.062414
0.590382 0 -0.470573 1 -1 -2 192 192 192 255 0.298696 0.062414
0.590382 0.201855 -0.470573 4 0 -3 192 192 192 255 0.230737 0.064251
0.590382 0.201855 0.219238 6.94971 1.40338e-005 4.94979 192 192 192 255 0.230737 0.064251
0.590382 0.148647 0.219238 5.1213 0 2.12134 192 192 192 255 0.230737 0.064251
0.590382 0.148647 -0.470573 3 0 -3 192 192 192 255 0.230737 0.064251
0.590382 1.41026 0.219238 4.12142 2.00011 2.12123 192 192 192 255 0.298696 0.062414
0.590382 0.201855 0.219238 6.94971 1.40338e-005 4.94979 192 192 192 255 0.298696 0.062414
0.590382 0.201855 -0.470573 4 0 -3 192 192 192 255 0.298696 0.062414
0.590382 1.41026 -0.470573 1 2 -1 192 192 192 255 0.298696 0.062414
0.590382 0.201855 0.219238 6.94971 1.40338e-005 4.94979 192 192 192 255 0.329027 0.06446
0.590382 1.41026 0.219238 4.12142 2.00011 2.12123 192 192 192 255 0.329027 0.06446
0.573961 1.35169 0.235664 3.53573 5.46018e-005 3.53534 192 192 192 255 0.329027 0.06446
0.573961 0.864728 0.235664 3.53549 -0.000197848 3.53557 192 192 192 255 0.329027 0.06446
0.339043 1.41026 0.470573 2.12114 1.00005 5.1215 192 192 192 255 0.329027 0.06446
0.355457 1.35169 0.454163 2.82832 0.000109204 2.82854 192 192 192 255 0.329027 0.06446
0.339043 0.201855 0.470573 3.5356 4.71855e-005 8.53547 192 192 192 255 0.329027 0.06446
0.355457 0.864728 0.454163 4.9499 -0.000111473 4.94959 192 192 192 255 0.329027 0.06446
0.561531 0.355129 0.248085 2.82828 4.83817e-005 2.82858 192 192 192 255 0.329027 0.06446
0.367889 0.355129 0.441719 3.53585 1.16415e-005 3.53521 192 192 192 255 0.329027 0.06446
0.561531 0.786857 0.248085 3.53526 -0.000109081 3.53581 192 192 192 255 0.329027 0.06446
0.367889 0.786857 0.441719 2.82857 -0.000199044 2.82829 192 192 192 255 0.329027 0.06446
-0.470917 0.489671 0.470573 0 0 6 192 192 192 255 0.416731 0.060411
0.224464 0.489671 0.470573 0 0 6 192 192 192 255 0.416731 0.060411
0.192703 0.527706 0.470573 0 0 4 192 192 192 255 0.416731 0.060411
-0.439156 0.527706 0.470573 0 0 5 192 192 192 255 0.416731 0.060411
0.224464 1.32245 0.470573 0 0 6 192 192 192 255 0.416731 0.060411
0.192703 1.28442 0.470573 0 0 5 192 192 192 255 0.416731 0.060411
-0.470917 1.32245 0.470573 0 0 6 192 192 192 255 0.416731 0.060411
-0.439156 1.28442 0.470573 0 0 4 192 192 192 255 0.416731 0.060411
3 32 33 34 
3 32 34 35 
3 2 3 20 
3 2 20 5 
3 2 5 4 
3 36 37 7 
3 36 7 6 
3 21 18 19 
3 21 19 16 
3 21 16 17 
3 0 38 39 
3 0 39 40 
3 41 1 9 
3 41 9 8 
3 1 42 10 
3 1 10 9 
3 42 43 11 
3 42 11 10 
3 43 41 8 
3 43 8 11 
3 44 45 13 
3 44 13 12 
3 23 46 14 
3 23 14 22 
3 46 47 15 
3 46 15 14 
3 48 49 50 
3 48 50 51 
3 52 53 54 
3 52 54 55 
3 56 57 58 
3 56 58 59 
3 57 60 61 
3 57 61 58 
3 62 63 64 
3 62 64 65 
3 66 67 68 
3 66 68 69 
3 70 71 72 
3 70 72 73 
3 74 75 76 
3 74 76 77 
3 24 25 26 
3 24 26 27 
3 28 29 30 
3 28 30 31 
3 78 79 80 
3 78 80 81 
3 79 82 83 
3 79 83 80 
3 82 84 85 
3 82 85 83 
3 84 78 86 
3 84 86 87 
3 78 81 88 
3 78 88 86 
3 81 85 89 
3 81 89 88 
3 85 84 87 
3 85 87 89 
3 90 91 92 
3 90 92 93 
3 91 94 95 
3 91 95 92 
3 94 96 97 
3 94 97 95 
3 96 90 93 
3 96 93 97 
