ply
format ascii 1.0
comment VCGLIB generated
comment TextureFile SpaceInteriors_Texture.png
element vertex 96
property float x
property float y
property float z
property float nx
property float ny
property float nz
property uchar red
property uchar green
property uchar blue
property uchar alpha
property float texture_u
property float texture_v
element face 56
property list uchar int vertex_indices
end_header
-0.04311 -0.893187 0.283113 -3 -1 2 192 192 192 255 0.267261 0.061667
0.043111 -0.893187 0.283113 3 -2 1 192 192 192 255 0.267261 0.061667
-0.04311 0.893187 0.283113 -3 2 1 192 192 192 255 0.267261 0.061667
0.043111 0.893187 0.283113 3 1 2 192 192 192 255 0.267261 0.061667
-0.04311 0.804778 0.196892 -3 -1 -2 192 192 192 255 0.267261 0.061667
0.043111 0.804778 0.196892 3 -2 -1 192 192 192 255 0.267261 0.061667
-0.04311 -0.804778 0.196892 -3 2 -1 192 192 192 255 0.267261 0.061667
0.043111 -0.804778 0.196892 3 1 -2 192 192 192 255 0.267261 0.061667
-0.04311 0.893187 0.058773 -2 1 3 192 192 192 255 0.300052 0.061667
0.043111 0.893187 0.058773 1 2 3 192 192 192 255 0.300052 0.061667
0.043111 0.804778 0.058773 2 -1 3 192 192 192 255 0.240032 0.061667
-0.04311 0.804778 0.058773 -1 -2 3 192 192 192 255 0.198113 0.061667
-0.04311 -0.804778 0.058773 -2 1 3 192 192 192 255 0.29711 0.061667
0.043111 -0.804778 0.058773 1 2 3 192 192 192 255 0.29711 0.061667
0.043111 -0.893187 0.058773 2 -1 3 192 192 192 255 0.244197 0.061667
-0.04311 -0.893187 0.058773 -1 -2 3 192 192 192 255 0.200168 0.061667
-0.070957 0.92174 0.058773 -1 2 3 192 192 192 255 0.26373 0.062198
0.070955 0.92174 0.058773 2 1 3 192 192 192 255 0.26373 0.062198
0.070955 0.776225 0.058773 1 -2 3 192 192 192 255 0.26373 0.062198
-0.070957 0.776225 0.058773 -2 -1 3 192 192 192 255 0.26373 0.062198
-0.070956 -0.776225 0.058773 -1 2 3 192 192 192 255 0.26373 0.062198
0.070958 -0.776225 0.058773 2 1 3 192 192 192 255 0.26373 0.062198
0.070958 -0.92174 0.058773 1 -2 3 192 192 192 255 0.26373 0.062198
-0.070956 -0.92174 0.058773 -2 -1 3 192 192 192 255 0.26373 0.062198
-0.070957 0.92174 0 -2 1 0 192 192 192 255 0.297952 0.062198
0.070955 0.92174 0 1 2 0 192 192 192 255 0.297952 0.062198
0.070955 0.776225 0 2 -1 0 192 192 192 255 0.235124 0.062198
-0.070957 0.776225 0 -1 -2 0 192 192 192 255 0.209288 0.062198
-0.070956 -0.776225 0 -2 1 0 192 192 192 255 0.297952 0.062198
0.070958 -0.776225 0 1 2 0 192 192 192 255 0.297952 0.062198
0.070958 -0.92174 0 2 -1 0 192 192 192 255 0.235124 0.062198
-0.070956 -0.92174 0 -1 -2 0 192 192 192 255 0.209288 0.062198
0.043111 -0.893187 0.283113 3 -2 1 192 192 192 255 0.233148 0.061667
0.043111 -0.804778 0.196892 3 1 -2 192 192 192 255 0.233148 0.061667
0.043111 0.804778 0.196892 3 -2 -1 192 192 192 255 0.233148 0.061667
0.043111 0.893187 0.283113 3 1 2 192 192 192 255 0.233148 0.061667
-0.04311 -0.804778 0.196892 -3 2 -1 192 192 192 255 0.233148 0.061667
-0.04311 -0.893187 0.283113 -3 -1 2 192 192 192 255 0.233148 0.061667
-0.04311 0.893187 0.283113 -3 2 1 192 192 192 255 0.233148 0.061667
-0.04311 0.804778 0.196892 -3 -1 -2 192 192 192 255 0.233148 0.061667
-0.04311 0.893187 0.283113 -3 2 1 192 192 192 255 0.300052 0.061667
0.043111 0.893187 0.283113 3 1 2 192 192 192 255 0.300052 0.061667
0.043111 0.893187 0.283113 3 1 2 192 192 192 255 0.240032 0.061667
0.043111 0.804778 0.196892 3 -2 -1 192 192 192 255 0.240032 0.061667
0.043111 0.893187 0.058773 1 2 3 192 192 192 255 0.240032 0.061667
0.043111 0.804778 0.196892 3 -2 -1 192 192 192 255 0.198113 0.061667
-0.04311 0.804778 0.196892 -3 -1 -2 192 192 192 255 0.198113 0.061667
0.043111 0.804778 0.058773 2 -1 3 192 192 192 255 0.198113 0.061667
-0.04311 0.804778 0.196892 -3 -1 -2 192 192 192 255 0.240032 0.061667
-0.04311 0.893187 0.283113 -3 2 1 192 192 192 255 0.240032 0.061667
-0.04311 0.893187 0.058773 -2 1 3 192 192 192 255 0.240032 0.061667
-0.04311 0.804778 0.058773 -1 -2 3 192 192 192 255 0.240032 0.061667
-0.04311 -0.804778 0.196892 -3 2 -1 192 192 192 255 0.29711 0.061667
0.043111 -0.804778 0.196892 3 1 -2 192 192 192 255 0.29711 0.061667
0.043111 -0.804778 0.196892 3 1 -2 192 192 192 255 0.244197 0.061667
0.043111 -0.893187 0.283113 3 -2 1 192 192 192 255 0.244197 0.061667
0.043111 -0.804778 0.058773 1 2 3 192 192 192 255 0.244197 0.061667
0.043111 -0.893187 0.283113 3 -2 1 192 192 192 255 0.200168 0.061667
-0.04311 -0.893187 0.283113 -3 -1 2 192 192 192 255 0.200168 0.061667
0.043111 -0.893187 0.058773 2 -1 3 192 192 192 255 0.200168 0.061667
-0.04311 -0.893187 0.283113 -3 -1 2 192 192 192 255 0.244197 0.061667
-0.04311 -0.804778 0.196892 -3 2 -1 192 192 192 255 0.244197 0.061667
-0.04311 -0.804778 0.058773 -2 1 3 192 192 192 255 0.244197 0.061667
-0.04311 -0.893187 0.058773 -1 -2 3 192 192 192 255 0.244197 0.061667
-0.04311 0.893187 0.058773 -2 1 3 192 192 192 255 0.26373 0.062198
0.043111 0.893187 0.058773 1 2 3 192 192 192 255 0.26373 0.062198
0.043111 0.804778 0.058773 2 -1 3 192 192 192 255 0.26373 0.062198
-0.04311 0.804778 0.058773 -1 -2 3 192 192 192 255 0.26373 0.062198
-0.04311 -0.804778 0.058773 -2 1 3 192 192 192 255 0.26373 0.062198
0.043111 -0.804778 0.058773 1 2 3 192 192 192 255 0.26373 0.062198
0.043111 -0.893187 0.058773 2 -1 3 192 192 192 255 0.26373 0.062198
-0.04311 -0.893187 0.058773 -1 -2 3 192 192 192 255 0.26373 0.062198
-0.070957 0.92174 0.058773 -1 2 3 192 192 192 255 0.297952 0.062198
0.070955 0.92174 0.058773 2 1 3 192 192 192 255 0.297952 0.062198
0.070955 0.92174 0.058773 2 1 3 192 192 192 255 0.235124 0.062198
0.070955 0.776225 0.058773 1 -2 3 192 192 192 255 0.235124 0.062198
0.070955 0.92174 0 1 2 0 192 192 192 255 0.235124 0.062198
0.070955 0.776225 0.058773 1 -2 3 192 192 192 255 0.209288 0.062198
-0.070957 0.776225 0.058773 -2 -1 3 192 192 192 255 0.209288 0.062198
0.070955 0.776225 0 2 -1 0 192 192 192 255 0.209288 0.062198
-0.070957 0.776225 0.058773 -2 -1 3 192 192 192 255 0.235124 0.062198
-0.070957 0.92174 0.058773 -1 2 3 192 192 192 255 0.235124 0.062198
-0.070957 0.92174 0 -2 1 0 192 192 192 255 0.235124 0.062198
-0.070957 0.776225 0 -1 -2 0 192 192 192 255 0.235124 0.062198
-0.070956 -0.776225 0.058773 -1 2 3 192 192 192 255 0.297952 0.062198
0.070958 -0.776225 0.058773 2 1 3 192 192 192 255 0.297952 0.062198
0.070958 -0.776225 0.058773 2 1 3 192 192 192 255 0.235124 0.062198
0.070958 -0.92174 0.058773 1 -2 3 192 192 192 255 0.235124 0.062198
0.070958 -0.776225 0 1 2 0 192 192 192 255 0.235124 0.062198
0.070958 -0.92174 0.058773 1 -2 3 192 192 192 255 0.209288 0.062198
-0.070956 -0.92174 0.058773 -2 -1 3 192 192 192 255 0.209288 0.062198
0.070958 -0.92174 0 2 -1 0 192 192 192 255 0.209288 0.062198
-0.070956 -0.92174 0.058773 -2 -1 3 192 192 192 255 0.235124 0.062198
-0.070956 -0.776225 0.058773 -1 2 3 192 192 192 255 0.235124 0.062198
-0.070956 -0.776225 0 -2 1 0 192 192 192 255 0.235124 0.062198
-0.070956 -0.92174 0 -1 -2 0 192 192 192 255 0.235124 0.062198
3 0 1 3 
3 0 3 2 
3 4 5 7 
3 4 7 6 
3 32 33 34 
3 32 34 35 
3 36 37 38 
3 36 38 39 
3 40 41 9 
3 40 9 8 
3 42 43 10 
3 42 10 44 
3 45 46 11 
3 45 11 47 
3 48 49 50 
3 48 50 51 
3 52 53 13 
3 52 13 12 
3 54 55 14 
3 54 14 56 
3 57 58 15 
3 57 15 59 
3 60 61 62 
3 60 62 63 
3 64 65 17 
3 64 17 16 
3 65 66 18 
3 65 18 17 
3 66 67 19 
3 66 19 18 
3 67 64 16 
3 67 16 19 
3 68 69 21 
3 68 21 20 
3 69 70 22 
3 69 22 21 
3 70 71 23 
3 70 23 22 
3 71 68 20 
3 71 20 23 
3 72 73 25 
3 72 25 24 
3 74 75 26 
3 74 26 76 
3 77 78 27 
3 77 27 79 
3 80 81 82 
3 80 82 83 
3 84 85 29 
3 84 29 28 
3 86 87 30 
3 86 30 88 
3 89 90 31 
3 89 31 91 
3 92 93 94 
3 92 94 95 
