ply
format ascii 1.0
comment VCGLIB generated
comment TextureFile SpaceInteriors_Texture.png
element vertex 194
property float x
property float y
property float z
property float nx
property float ny
property float nz
property uchar red
property uchar green
property uchar blue
property uchar alpha
property float texture_u
property float texture_v
element face 102
property list uchar int vertex_indices
end_header
1.27452 0 0.176919 -1 0 2 192 192 192 255 0.233148 0.061667
1.4375 0 0.176919 2 0 1 192 192 192 255 0.265187 0.061667
1.2334 1.28685 0.5 -2 0 1 192 192 192 255 0.233148 0.061667
1.47862 1.28685 0.5 1 0 2 192 192 192 255 0.233148 0.061667
1.2334 1.28685 -0.5 -1 0 -2 192 192 192 255 0.233148 0.061667
1.47862 1.28685 -0.5 2 0 -1 192 192 192 255 0.265187 0.061667
1.27452 0 -0.176919 -2 0 -1 192 192 192 255 0.265187 0.061667
1.4375 0 -0.176919 1 0 -2 192 192 192 255 0.265187 0.061667
1.2334 1.17409 0.5 -2.16207 -2.62178 2.1092 192 192 192 255 0.174411 0.061667
1.2334 1.17409 -0.5 -2.58104 -2.80192 -1.21841 192 192 192 255 0.174411 0.061667
1.47862 1.17409 -0.5 2.16208 -2.62177 -2.1092 192 192 192 255 0.174411 0.061667
1.47862 1.17409 0.5 2.58104 -2.80191 1.21841 192 192 192 255 0.174411 0.061667
1.41393 1.1279 -0.079574 2.58104 -2.80191 -1.21841 192 192 192 255 0.174411 0.061667
1.2981 1.1279 -0.079574 -2.16207 -2.62178 -2.1092 192 192 192 255 0.174411 0.061667
1.2981 1.1279 0.079574 -2.58104 -2.80192 1.21841 192 192 192 255 0.174411 0.061667
1.41393 1.1279 0.079574 2.16208 -2.62177 2.1092 192 192 192 255 0.174411 0.061667
1.4375 0.101425 -0.176919 2.77018 2.5574 -1.56145 192 192 192 255 0.296905 0.061667
1.27452 0.101425 -0.176919 -2.54037 2.23543 -2.28072 192 192 192 255 0.296905 0.061667
1.27452 0.101425 0.176919 -2.77018 2.5574 1.56145 192 192 192 255 0.264866 0.061667
1.4375 0.101425 0.176919 2.54036 2.23544 2.28072 192 192 192 255 0.296905 0.061667
1.2981 0.129897 0.079574 -2.54037 2.23543 2.28072 192 192 192 255 0.264866 0.061667
1.2981 0.129897 -0.079574 -2.77018 2.5574 -1.56145 192 192 192 255 0.296905 0.061667
1.41393 0.129897 -0.079574 2.54036 2.23544 -2.28072 192 192 192 255 0.296905 0.061667
1.41393 0.129897 0.079574 2.77018 2.5574 1.56145 192 192 192 255 0.296905 0.061667
-1.4375 0 0.176919 -1 0 2 192 192 192 255 0.233148 0.061667
-1.27452 0 0.176919 2 0 1 192 192 192 255 0.265187 0.061667
-1.47862 1.28685 0.5 -2 0 1 192 192 192 255 0.233148 0.061667
-1.2334 1.28685 0.5 1 0 2 192 192 192 255 0.233148 0.061667
-1.47862 1.28685 -0.5 -1 0 -2 192 192 192 255 0.233148 0.061667
-1.2334 1.28685 -0.5 2 0 -1 192 192 192 255 0.265187 0.061667
-1.4375 0 -0.176919 -2 0 -1 192 192 192 255 0.265187 0.061667
-1.27452 0 -0.176919 1 0 -2 192 192 192 255 0.265187 0.061667
-1.47862 1.17409 0.5 -2.16208 -2.62177 2.1092 192 192 192 255 0.174411 0.061667
-1.47862 1.17409 -0.5 -2.58104 -2.80191 -1.21841 192 192 192 255 0.174411 0.061667
-1.2334 1.17409 -0.5 2.16207 -2.62178 -2.1092 192 192 192 255 0.174411 0.061667
-1.2334 1.17409 0.5 2.58104 -2.80192 1.21841 192 192 192 255 0.174411 0.061667
-1.2981 1.1279 -0.079574 2.58104 -2.80192 -1.21841 192 192 192 255 0.174411 0.061667
-1.41393 1.1279 -0.079574 -2.16208 -2.62177 -2.1092 192 192 192 255 0.174411 0.061667
-1.41393 1.1279 0.079574 -2.58104 -2.80191 1.21841 192 192 192 255 0.174411 0.061667
-1.2981 1.1279 0.079574 2.16207 -2.62178 2.1092 192 192 192 255 0.174411 0.061667
-1.27452 0.101425 -0.176919 2.77017 2.55742 -1.56145 192 192 192 255 0.296905 0.061667
-1.4375 0.101425 -0.176919 -2.54036 2.23544 -2.28072 192 192 192 255 0.296905 0.061667
-1.4375 0.101425 0.176919 -2.77018 2.5574 1.56145 192 192 192 255 0.264866 0.061667
-1.27452 0.101425 0.176919 2.54034 2.23547 2.28072 192 192 192 255 0.296905 0.061667
-1.41393 0.129897 0.079574 -2.54036 2.23544 2.28072 192 192 192 255 0.264866 0.061667
-1.41393 0.129897 -0.079574 -2.77018 2.5574 -1.56145 192 192 192 255 0.296905 0.061667
-1.2981 0.129897 -0.079574 2.54034 2.23547 -2.28072 192 192 192 255 0.296905 0.061667
-1.2981 0.129897 0.079574 2.77017 2.55742 1.56145 192 192 192 255 0.296905 0.061667
-1.46987 1.42871 0.696874 0 6 0 192 192 192 255 0.300052 0.061667
1.46987 1.42871 0.696874 0 4 0 192 192 192 255 0.300052 0.061667
-1.46987 1.42871 -0.696874 0 4 0 192 192 192 255 0.300052 0.061667
1.46987 1.42871 -0.696874 0 5 0 192 192 192 255 0.300052 0.061667
-1.624 1.28685 0.817663 -1 -2 2 192 192 192 255 0.28932 0.084142
1.624 1.28685 0.817663 2 -1 1 192 192 192 255 0.28932 0.084142
1.624 1.42871 0.817663 1 3 2 192 192 192 255 0.28932 0.084142
-1.624 1.42871 0.817663 -2 3 1 192 192 192 255 0.28932 0.084142
-1.624 1.42871 -0.817663 -1 3 -2 192 192 192 255 0.28932 0.084142
1.624 1.42871 -0.817663 2 3 -1 192 192 192 255 0.28932 0.084142
1.624 1.28685 -0.817663 1 -2 -2 192 192 192 255 0.28932 0.084142
-1.624 1.28685 -0.817663 -3 -1 -1 192 192 192 255 0.28932 0.084142
-1.624 1.42871 0 -2 2 0 192 192 192 255 0.257282 0.084142
1.41393 1.1279 0.079574 2.16208 -2.62177 2.1092 192 192 192 255 0.170851 0.061667
1.41393 1.1279 -0.079574 2.58104 -2.80191 -1.21841 192 192 192 255 0.170851 0.061667
1.47862 1.17409 -0.5 2.16208 -2.62177 -2.1092 192 192 192 255 0.170851 0.061667
1.47862 1.17409 0.5 2.58104 -2.80191 1.21841 192 192 192 255 0.170851 0.061667
1.2981 1.1279 -0.079574 -2.16207 -2.62178 -2.1092 192 192 192 255 0.170851 0.061667
1.2981 1.1279 0.079574 -2.58104 -2.80192 1.21841 192 192 192 255 0.170851 0.061667
1.2334 1.17409 0.5 -2.16207 -2.62178 2.1092 192 192 192 255 0.170851 0.061667
1.2334 1.17409 -0.5 -2.58104 -2.80192 -1.21841 192 192 192 255 0.170851 0.061667
1.2334 1.17409 -0.5 -2.58104 -2.80192 -1.21841 192 192 192 255 0.233148 0.061667
1.2334 1.17409 0.5 -2.16207 -2.62178 2.1092 192 192 192 255 0.233148 0.061667
1.2334 1.28685 -0.5 -1 0 -2 192 192 192 255 0.265187 0.061667
1.47862 1.17409 -0.5 2.16208 -2.62177 -2.1092 192 192 192 255 0.265187 0.061667
1.2334 1.17409 -0.5 -2.58104 -2.80192 -1.21841 192 192 192 255 0.265187 0.061667
1.47862 1.17409 0.5 2.58104 -2.80191 1.21841 192 192 192 255 0.233148 0.061667
1.47862 1.17409 -0.5 2.16208 -2.62177 -2.1092 192 192 192 255 0.233148 0.061667
1.47862 1.28685 -0.5 2 0 -1 192 192 192 255 0.233148 0.061667
1.2334 1.17409 0.5 -2.16207 -2.62178 2.1092 192 192 192 255 0.265187 0.061667
1.47862 1.17409 0.5 2.58104 -2.80191 1.21841 192 192 192 255 0.265187 0.061667
1.47862 1.28685 0.5 1 0 2 192 192 192 255 0.265187 0.061667
1.2334 1.28685 0.5 -2 0 1 192 192 192 255 0.265187 0.061667
1.27452 0.101425 -0.176919 -2.54037 2.23543 -2.28072 192 192 192 255 0.264866 0.061667
1.2981 0.129897 -0.079574 -2.77018 2.5574 -1.56145 192 192 192 255 0.264866 0.061667
1.27452 0.101425 0.176919 -2.77018 2.5574 1.56145 192 192 192 255 0.296905 0.061667
1.2981 0.129897 0.079574 -2.54037 2.23543 2.28072 192 192 192 255 0.296905 0.061667
1.4375 0.101425 0.176919 2.54036 2.23544 2.28072 192 192 192 255 0.264866 0.061667
1.4375 0.101425 -0.176919 2.77018 2.5574 -1.56145 192 192 192 255 0.264866 0.061667
1.41393 0.129897 -0.079574 2.54036 2.23544 -2.28072 192 192 192 255 0.264866 0.061667
1.41393 0.129897 0.079574 2.77018 2.5574 1.56145 192 192 192 255 0.264866 0.061667
1.27452 0.101425 -0.176919 -2.54037 2.23543 -2.28072 192 192 192 255 0.265187 0.061667
1.4375 0.101425 -0.176919 2.77018 2.5574 -1.56145 192 192 192 255 0.265187 0.061667
1.27452 0 -0.176919 -2 0 -1 192 192 192 255 0.233148 0.061667
1.27452 0.101425 0.176919 -2.77018 2.5574 1.56145 192 192 192 255 0.233148 0.061667
1.27452 0.101425 -0.176919 -2.54037 2.23543 -2.28072 192 192 192 255 0.233148 0.061667
1.27452 0 0.176919 -1 0 2 192 192 192 255 0.265187 0.061667
1.4375 0.101425 0.176919 2.54036 2.23544 2.28072 192 192 192 255 0.265187 0.061667
1.27452 0.101425 0.176919 -2.77018 2.5574 1.56145 192 192 192 255 0.265187 0.061667
1.4375 0 0.176919 2 0 1 192 192 192 255 0.233148 0.061667
1.4375 0 -0.176919 1 0 -2 192 192 192 255 0.233148 0.061667
1.4375 0.101425 -0.176919 2.77018 2.5574 -1.56145 192 192 192 255 0.233148 0.061667
1.4375 0.101425 0.176919 2.54036 2.23544 2.28072 192 192 192 255 0.233148 0.061667
1.2981 0.129897 -0.079574 -2.77018 2.5574 -1.56145 192 192 192 255 0.233148 0.0858
1.2981 0.129897 0.079574 -2.54037 2.23543 2.28072 192 192 192 255 0.233148 0.0858
1.2981 1.1279 0.079574 -2.58104 -2.80192 1.21841 192 192 192 255 0.233148 0.0858
1.2981 1.1279 -0.079574 -2.16207 -2.62178 -2.1092 192 192 192 255 0.233148 0.0858
1.2981 1.1279 -0.079574 -2.16207 -2.62178 -2.1092 192 192 192 255 0.265187 0.0858
1.41393 1.1279 -0.079574 2.58104 -2.80191 -1.21841 192 192 192 255 0.265187 0.0858
1.41393 0.129897 -0.079574 2.54036 2.23544 -2.28072 192 192 192 255 0.265187 0.0858
1.2981 0.129897 -0.079574 -2.77018 2.5574 -1.56145 192 192 192 255 0.265187 0.0858
1.41393 0.129897 0.079574 2.77018 2.5574 1.56145 192 192 192 255 0.233148 0.0858
1.41393 0.129897 -0.079574 2.54036 2.23544 -2.28072 192 192 192 255 0.233148 0.0858
1.41393 1.1279 -0.079574 2.58104 -2.80191 -1.21841 192 192 192 255 0.233148 0.0858
1.41393 1.1279 0.079574 2.16208 -2.62177 2.1092 192 192 192 255 0.233148 0.0858
1.2981 0.129897 0.079574 -2.54037 2.23543 2.28072 192 192 192 255 0.265187 0.0858
1.41393 0.129897 0.079574 2.77018 2.5574 1.56145 192 192 192 255 0.265187 0.0858
1.41393 1.1279 0.079574 2.16208 -2.62177 2.1092 192 192 192 255 0.265187 0.0858
1.2981 1.1279 0.079574 -2.58104 -2.80192 1.21841 192 192 192 255 0.265187 0.0858
-1.2981 1.1279 0.079574 2.16207 -2.62178 2.1092 192 192 192 255 0.170851 0.061667
-1.2981 1.1279 -0.079574 2.58104 -2.80192 -1.21841 192 192 192 255 0.170851 0.061667
-1.2334 1.17409 -0.5 2.16207 -2.62178 -2.1092 192 192 192 255 0.170851 0.061667
-1.2334 1.17409 0.5 2.58104 -2.80192 1.21841 192 192 192 255 0.170851 0.061667
-1.41393 1.1279 -0.079574 -2.16208 -2.62177 -2.1092 192 192 192 255 0.170851 0.061667
-1.41393 1.1279 0.079574 -2.58104 -2.80191 1.21841 192 192 192 255 0.170851 0.061667
-1.47862 1.17409 0.5 -2.16208 -2.62177 2.1092 192 192 192 255 0.170851 0.061667
-1.47862 1.17409 -0.5 -2.58104 -2.80191 -1.21841 192 192 192 255 0.170851 0.061667
-1.47862 1.17409 -0.5 -2.58104 -2.80191 -1.21841 192 192 192 255 0.233148 0.061667
-1.47862 1.17409 0.5 -2.16208 -2.62177 2.1092 192 192 192 255 0.233148 0.061667
-1.47862 1.28685 -0.5 -1 0 -2 192 192 192 255 0.265187 0.061667
-1.2334 1.17409 -0.5 2.16207 -2.62178 -2.1092 192 192 192 255 0.265187 0.061667
-1.47862 1.17409 -0.5 -2.58104 -2.80191 -1.21841 192 192 192 255 0.265187 0.061667
-1.2334 1.17409 0.5 2.58104 -2.80192 1.21841 192 192 192 255 0.233148 0.061667
-1.2334 1.17409 -0.5 2.16207 -2.62178 -2.1092 192 192 192 255 0.233148 0.061667
-1.2334 1.28685 -0.5 2 0 -1 192 192 192 255 0.233148 0.061667
-1.47862 1.17409 0.5 -2.16208 -2.62177 2.1092 192 192 192 255 0.265187 0.061667
-1.2334 1.17409 0.5 2.58104 -2.80192 1.21841 192 192 192 255 0.265187 0.061667
-1.2334 1.28685 0.5 1 0 2 192 192 192 255 0.265187 0.061667
-1.47862 1.28685 0.5 -2 0 1 192 192 192 255 0.265187 0.061667
-1.4375 0.101425 -0.176919 -2.54036 2.23544 -2.28072 192 192 192 255 0.264866 0.061667
-1.41393 0.129897 -0.079574 -2.77018 2.5574 -1.56145 192 192 192 255 0.264866 0.061667
-1.4375 0.101425 0.176919 -2.77018 2.5574 1.56145 192 192 192 255 0.296905 0.061667
-1.41393 0.129897 0.079574 -2.54036 2.23544 2.28072 192 192 192 255 0.296905 0.061667
-1.27452 0.101425 0.176919 2.54034 2.23547 2.28072 192 192 192 255 0.264866 0.061667
-1.27452 0.101425 -0.176919 2.77017 2.55742 -1.56145 192 192 192 255 0.264866 0.061667
-1.2981 0.129897 -0.079574 2.54034 2.23547 -2.28072 192 192 192 255 0.264866 0.061667
-1.2981 0.129897 0.079574 2.77017 2.55742 1.56145 192 192 192 255 0.264866 0.061667
-1.4375 0.101425 -0.176919 -2.54036 2.23544 -2.28072 192 192 192 255 0.265187 0.061667
-1.27452 0.101425 -0.176919 2.77017 2.55742 -1.56145 192 192 192 255 0.265187 0.061667
-1.4375 0 -0.176919 -2 0 -1 192 192 192 255 0.233148 0.061667
-1.4375 0.101425 0.176919 -2.77018 2.5574 1.56145 192 192 192 255 0.233148 0.061667
-1.4375 0.101425 -0.176919 -2.54036 2.23544 -2.28072 192 192 192 255 0.233148 0.061667
-1.4375 0 0.176919 -1 0 2 192 192 192 255 0.265187 0.061667
-1.27452 0.101425 0.176919 2.54034 2.23547 2.28072 192 192 192 255 0.265187 0.061667
-1.4375 0.101425 0.176919 -2.77018 2.5574 1.56145 192 192 192 255 0.265187 0.061667
-1.27452 0 0.176919 2 0 1 192 192 192 255 0.233148 0.061667
-1.27452 0 -0.176919 1 0 -2 192 192 192 255 0.233148 0.061667
-1.27452 0.101425 -0.176919 2.77017 2.55742 -1.56145 192 192 192 255 0.233148 0.061667
-1.27452 0.101425 0.176919 2.54034 2.23547 2.28072 192 192 192 255 0.233148 0.061667
-1.41393 0.129897 -0.079574 -2.77018 2.5574 -1.56145 192 192 192 255 0.233148 0.0858
-1.41393 0.129897 0.079574 -2.54036 2.23544 2.28072 192 192 192 255 0.233148 0.0858
-1.41393 1.1279 0.079574 -2.58104 -2.80191 1.21841 192 192 192 255 0.233148 0.0858
-1.41393 1.1279 -0.079574 -2.16208 -2.62177 -2.1092 192 192 192 255 0.233148 0.0858
-1.41393 1.1279 -0.079574 -2.16208 -2.62177 -2.1092 192 192 192 255 0.265187 0.0858
-1.2981 1.1279 -0.079574 2.58104 -2.80192 -1.21841 192 192 192 255 0.265187 0.0858
-1.2981 0.129897 -0.079574 2.54034 2.23547 -2.28072 192 192 192 255 0.265187 0.0858
-1.41393 0.129897 -0.079574 -2.77018 2.5574 -1.56145 192 192 192 255 0.265187 0.0858
-1.2981 0.129897 0.079574 2.77017 2.55742 1.56145 192 192 192 255 0.233148 0.0858
-1.2981 0.129897 -0.079574 2.54034 2.23547 -2.28072 192 192 192 255 0.233148 0.0858
-1.2981 1.1279 -0.079574 2.58104 -2.80192 -1.21841 192 192 192 255 0.233148 0.0858
-1.2981 1.1279 0.079574 2.16207 -2.62178 2.1092 192 192 192 255 0.233148 0.0858
-1.41393 0.129897 0.079574 -2.54036 2.23544 2.28072 192 192 192 255 0.265187 0.0858
-1.2981 0.129897 0.079574 2.77017 2.55742 1.56145 192 192 192 255 0.265187 0.0858
-1.2981 1.1279 0.079574 2.16207 -2.62178 2.1092 192 192 192 255 0.265187 0.0858
-1.41393 1.1279 0.079574 -2.58104 -2.80191 1.21841 192 192 192 255 0.265187 0.0858
1.624 1.28685 0.817663 2 -1 1 192 192 192 255 0.257282 0.084142
1.624 1.28685 -0.817663 1 -2 -2 192 192 192 255 0.257282 0.084142
1.624 1.42871 -0.817663 2 3 -1 192 192 192 255 0.257282 0.084142
1.624 1.42871 0.817663 1 3 2 192 192 192 255 0.257282 0.084142
-1.624 1.28685 -0.817663 -3 -1 -1 192 192 192 255 0.257282 0.084142
-1.624 1.28685 0.817663 -1 -2 2 192 192 192 255 0.257282 0.084142
-1.624 1.42871 0.817663 -2 3 1 192 192 192 255 0.257282 0.084142
-1.624 1.42871 -0.817663 -1 3 -2 192 192 192 255 0.257282 0.084142
1.46987 1.42871 0.696874 0 4 0 192 192 192 255 0.3205 0.084551
-1.46987 1.42871 0.696874 0 6 0 192 192 192 255 0.3205 0.084551
-1.624 1.42871 0.817663 -2 3 1 192 192 192 255 0.3205 0.084551
1.624 1.42871 0.817663 1 3 2 192 192 192 255 0.3205 0.084551
-1.46987 1.42871 -0.696874 0 4 0 192 192 192 255 0.3205 0.084551
1.46987 1.42871 -0.696874 0 5 0 192 192 192 255 0.3205 0.084551
1.624 1.42871 -0.817663 2 3 -1 192 192 192 255 0.3205 0.084551
-1.624 1.42871 -0.817663 -1 3 -2 192 192 192 255 0.3205 0.084551
1.624 1.28685 -0.817663 1 -2 -2 192 192 192 255 0.225805 0.083847
1.624 1.28685 0.817663 2 -1 1 192 192 192 255 0.225805 0.083847
-1.624 1.28685 0.817663 -1 -2 2 192 192 192 255 0.225805 0.083847
-1.624 1.28685 -0.817663 -3 -1 -1 192 192 192 255 0.225805 0.083847
-1.624 1.42871 0 -2 2 0 192 192 192 255 0.3205 0.084551
3 14 15 11 
3 14 11 8 
3 9 10 12 
3 9 12 13 
3 61 62 63 
3 61 63 64 
3 65 66 67 
3 65 67 68 
3 69 70 2 
3 69 2 4 
3 71 5 72 
3 71 72 73 
3 74 75 76 
3 74 76 3 
3 77 78 79 
3 77 79 80 
3 21 22 16 
3 21 16 17 
3 81 18 20 
3 81 20 82 
3 83 19 23 
3 83 23 84 
3 85 86 87 
3 85 87 88 
3 89 90 7 
3 89 7 6 
3 91 0 92 
3 91 92 93 
3 94 1 95 
3 94 95 96 
3 97 98 99 
3 97 99 100 
3 101 102 103 
3 101 103 104 
3 105 106 107 
3 105 107 108 
3 109 110 111 
3 109 111 112 
3 113 114 115 
3 113 115 116 
3 38 39 35 
3 38 35 32 
3 33 34 36 
3 33 36 37 
3 117 118 119 
3 117 119 120 
3 121 122 123 
3 121 123 124 
3 125 126 26 
3 125 26 28 
3 127 29 128 
3 127 128 129 
3 130 131 132 
3 130 132 27 
3 133 134 135 
3 133 135 136 
3 45 46 40 
3 45 40 41 
3 137 42 44 
3 137 44 138 
3 139 43 47 
3 139 47 140 
3 141 142 143 
3 141 143 144 
3 145 146 31 
3 145 31 30 
3 147 24 148 
3 147 148 149 
3 150 25 151 
3 150 151 152 
3 153 154 155 
3 153 155 156 
3 157 158 159 
3 157 159 160 
3 161 162 163 
3 161 163 164 
3 165 166 167 
3 165 167 168 
3 169 170 171 
3 169 171 172 
3 52 53 54 
3 52 54 55 
3 48 49 51 
3 48 51 50 
3 56 57 58 
3 56 58 59 
3 173 174 175 
3 173 175 176 
3 177 178 179 
3 177 179 60 
3 177 60 180 
3 181 182 183 
3 181 183 184 
3 185 186 187 
3 185 187 188 
3 186 181 184 
3 186 184 187 
3 189 190 191 
3 189 191 192 
3 182 185 188 
3 182 188 193 
3 182 193 183 
