ply
format ascii 1.0
comment VCGLIB generated
comment TextureFile SpaceInteriors_Texture.png
element vertex 188
property float x
property float y
property float z
property float nx
property float ny
property float nz
property uchar red
property uchar green
property uchar blue
property uchar alpha
property float texture_u
property float texture_v
element face 116
property list uchar int vertex_indices
end_header
-0.300102 0.387338 0.300072 -1 -3 2 192 192 192 255 0.265363 0.084154
0.300056 0.387338 0.300072 2 -3 1 192 192 192 255 0.265363 0.084154
-0.300102 0.476315 0.300072 -2 3 1 192 192 192 255 0.265363 0.084154
0.300056 0.476315 0.300072 1 3 2 192 192 192 255 0.265363 0.084154
-0.300102 0.476315 -0.300064 -1 3 -2 192 192 192 255 0.265363 0.084154
0.300056 0.476315 -0.300064 2 3 -1 192 192 192 255 0.265363 0.084154
-0.300102 0.387338 -0.300064 -2 -3 -1 192 192 192 255 0.265363 0.084154
0.300056 0.387338 -0.300064 1 -3 -2 192 192 192 255 0.265363 0.084154
-0.229439 0.476315 0.229416 1 3 -1 192 192 192 255 0.300228 0.084154
0.229393 0.476315 0.229416 -1 3 -2 192 192 192 255 0.300228 0.084154
0.229393 0.476315 -0.229404 -2 3 2 192 192 192 255 0.300228 0.084154
-0.229439 0.476315 -0.229404 2 3 1 192 192 192 255 0.300228 0.084154
-0.229439 0.387338 -0.229404 1 -3 2 192 192 192 255 0.200343 0.084154
0.229393 0.387338 -0.229404 -1 -3 1 192 192 192 255 0.200343 0.084154
0.229393 0.387338 0.229416 -2 -3 -1 192 192 192 255 0.200343 0.084154
-0.229439 0.387338 0.229416 2 -3 -2 192 192 192 255 0.200343 0.084154
-0.879608 0 0.879604 -1 -0.999966 2 192 192 192 255 0.172088 0.087639
0.879608 0 0.879604 2 -1.99998 1 192 192 192 255 0.172088 0.087639
-0.701225 0.300019 0.701233 -2 3 1 192 192 192 255 0.296476 0.061667
0.701233 0.300019 0.701233 1 3 2 192 192 192 255 0.296476 0.061667
-0.701225 0.300019 -0.701229 -1 3 -2 192 192 192 255 0.264437 0.061667
0.701233 0.300019 -0.701229 2 3 -1 192 192 192 255 0.296476 0.061667
-0.879608 0 -0.879604 -2 -2 -1 192 192 192 255 0.172088 0.087639
0.879608 0 -0.879604 1 -1 -2 192 192 192 255 0.172088 0.087639
-0.879608 0.176528 -0.879604 -1 3 -2 192 192 192 255 0.269275 0.089361
-0.879608 0.176528 0.879601 -2 3.00002 1 192 192 192 255 0.269275 0.089361
0.879608 0.176528 0.879601 1 3.00003 2 192 192 192 255 0.269275 0.089361
0.879608 0.176528 -0.879604 2 3 -1 192 192 192 255 0.269275 0.089361
0.701233 0.176528 0.701233 2 3 1 192 192 192 255 0.269275 0.089361
-0.701225 0.176528 0.701233 -1 3 2 192 192 192 255 0.269275 0.089361
-0.701225 0.176528 -0.701229 -2 3 -1 192 192 192 255 0.269275 0.089361
0.701233 0.176528 -0.701229 1 3 -2 192 192 192 255 0.269275 0.089361
-0.088158 0.300019 0.088139 -1.89389 3.9642 0.946944 192 192 192 255 0.358469 0.061667
0.088127 0.300019 0.088139 0.946924 3.96426 1.89389 192 192 192 255 0.358469 0.061667
0.088127 0.300019 -0.088135 1.89385 3.96434 -0.946935 192 192 192 255 0.358469 0.061667
-0.088158 0.300019 -0.088135 -0.946944 3.96425 -1.89387 192 192 192 255 0.358469 0.061667
-0.034203 0.491944 0.034187 -1.65452 3.68539 0.827304 192 192 192 255 0.293294 0.084139
0.034164 0.491944 0.034187 0.827248 2.68534 1.65461 192 192 192 255 0.293294 0.084139
0.034164 0.491944 -0.03418 1.6545 3.68543 -0.827304 192 192 192 255 0.293294 0.084139
-0.034203 0.491944 -0.03418 -0.827262 2.68532 -1.65461 192 192 192 255 0.293294 0.084139
0.052879 0.40385 0.052898 3.89385 -2.03569 1.94694 192 192 192 255 0.230297 0.084139
-0.052917 0.40385 0.052898 -1.94694 -2.0358 3.89389 192 192 192 255 0.230297 0.084139
-0.052917 0.40385 -0.052891 -3.89389 -2.03578 -1.94694 192 192 192 255 0.230297 0.084139
0.052879 0.40385 -0.052891 1.94692 -2.03569 -3.89387 192 192 192 255 0.193207 0.084139
0.052879 0.464388 0.052898 2.6545 4.68543 2.8273 192 192 192 255 0.230297 0.084139
-0.052917 0.464388 0.052898 -2.82726 4.68532 2.65461 192 192 192 255 0.230297 0.084139
-0.052917 0.464388 -0.052891 -2.65452 4.68539 -2.8273 192 192 192 255 0.193207 0.084139
0.052879 0.464388 -0.052891 2.82725 4.68535 -2.65461 192 192 192 255 0.230297 0.084139
-0.229431 0.40385 0.052898 0 -2 1 192 192 192 255 0.193207 0.084139
-0.229431 0.40385 -0.052891 0 -1 -2 192 192 192 255 0.193207 0.084139
-0.229431 0.464388 0.052898 0 1 2 192 192 192 255 0.231366 0.084139
-0.229431 0.464388 -0.052891 0 2 -1 192 192 192 255 0.294796 0.084126
0.229393 0.40385 -0.052891 0 -2 -1 192 192 192 255 0.193207 0.084139
0.229393 0.40385 0.052898 0 -1 2 192 192 192 255 0.193207 0.084139
0.229393 0.464388 -0.052891 0 1 -2 192 192 192 255 0.231366 0.084139
0.229393 0.464388 0.052898 0 2 1 192 192 192 255 0.294796 0.084126
0.052879 0.40385 0.229416 1 -2 0 192 192 192 255 0.230297 0.084139
-0.052917 0.40385 0.229416 -2 -1 0 192 192 192 255 0.230297 0.084139
0.052879 0.464388 0.229416 2 1 0 192 192 192 255 0.198871 0.084139
-0.052917 0.464388 0.229416 -1 2 0 192 192 192 255 0.294796 0.084126
-0.052917 0.40385 -0.229404 -1 -2 0 192 192 192 255 0.230297 0.084139
0.052879 0.40385 -0.229404 2 -1 0 192 192 192 255 0.230297 0.084139
-0.052917 0.464388 -0.229404 -2 1 0 192 192 192 255 0.198871 0.084139
0.052879 0.464388 -0.229404 1 2 0 192 192 192 255 0.294796 0.084126
0.300056 0.387338 0.300072 2 -3 1 192 192 192 255 0.233324 0.084154
0.300056 0.387338 -0.300064 1 -3 -2 192 192 192 255 0.233324 0.084154
0.300056 0.476315 -0.300064 2 3 -1 192 192 192 255 0.233324 0.084154
0.300056 0.476315 0.300072 1 3 2 192 192 192 255 0.233324 0.084154
-0.300102 0.387338 -0.300064 -2 -3 -1 192 192 192 255 0.233324 0.084154
-0.300102 0.387338 0.300072 -1 -3 2 192 192 192 255 0.233324 0.084154
-0.300102 0.476315 0.300072 -2 3 1 192 192 192 255 0.233324 0.084154
-0.300102 0.476315 -0.300064 -1 3 -2 192 192 192 255 0.233324 0.084154
-0.300102 0.476315 0.300072 -2 3 1 192 192 192 255 0.300228 0.084154
0.300056 0.476315 0.300072 1 3 2 192 192 192 255 0.300228 0.084154
0.300056 0.476315 -0.300064 2 3 -1 192 192 192 255 0.300228 0.084154
-0.300102 0.476315 -0.300064 -1 3 -2 192 192 192 255 0.300228 0.084154
-0.300102 0.387338 -0.300064 -2 -3 -1 192 192 192 255 0.200343 0.084154
0.300056 0.387338 -0.300064 1 -3 -2 192 192 192 255 0.200343 0.084154
0.300056 0.387338 0.300072 2 -3 1 192 192 192 255 0.200343 0.084154
-0.300102 0.387338 0.300072 -1 -3 2 192 192 192 255 0.200343 0.084154
0.229393 0.476315 -0.229404 -2 3 2 192 192 192 255 0.270981 0.084158
-0.229439 0.476315 -0.229404 2 3 1 192 192 192 255 0.270981 0.084158
-0.229439 0.387338 -0.229404 1 -3 2 192 192 192 255 0.270981 0.084158
0.229393 0.387338 -0.229404 -1 -3 1 192 192 192 255 0.270981 0.084158
-0.229439 0.476315 -0.229404 2 3 1 192 192 192 255 0.229481 0.084158
-0.229439 0.476315 0.229416 1 3 -1 192 192 192 255 0.229481 0.084158
-0.229439 0.387338 0.229416 2 -3 -2 192 192 192 255 0.229481 0.084158
-0.229439 0.387338 -0.229404 1 -3 2 192 192 192 255 0.229481 0.084158
0.229393 0.476315 -0.229404 -2 3 2 192 192 192 255 0.229481 0.084158
0.229393 0.387338 -0.229404 -1 -3 1 192 192 192 255 0.229481 0.084158
0.229393 0.387338 0.229416 -2 -3 -1 192 192 192 255 0.229481 0.084158
0.229393 0.476315 0.229416 -1 3 -2 192 192 192 255 0.229481 0.084158
0.229393 0.476315 0.229416 -1 3 -2 192 192 192 255 0.270981 0.084158
0.229393 0.387338 0.229416 -2 -3 -1 192 192 192 255 0.270981 0.084158
-0.229439 0.387338 0.229416 2 -3 -2 192 192 192 255 0.270981 0.084158
-0.229439 0.476315 0.229416 1 3 -1 192 192 192 255 0.270981 0.084158
-0.879608 0 -0.879604 -2 -2 -1 192 192 192 255 0.205069 0.087639
-0.879608 0 0.879604 -1 -0.999966 2 192 192 192 255 0.205069 0.087639
-0.879608 0.176528 0.879601 -2 3.00002 1 192 192 192 255 0.205069 0.087639
-0.879608 0.176528 -0.879604 -1 3 -2 192 192 192 255 0.205069 0.087639
-0.879608 0 0.879604 -1 -0.999966 2 192 192 192 255 0.237107 0.087639
0.879608 0 0.879604 2 -1.99998 1 192 192 192 255 0.237107 0.087639
0.879608 0.176528 0.879601 1 3.00003 2 192 192 192 255 0.237107 0.087639
-0.879608 0.176528 0.879601 -2 3.00002 1 192 192 192 255 0.237107 0.087639
0.879608 0 0.879604 2 -1.99998 1 192 192 192 255 0.205069 0.087639
0.879608 0 -0.879604 1 -1 -2 192 192 192 255 0.205069 0.087639
0.879608 0.176528 -0.879604 2 3 -1 192 192 192 255 0.205069 0.087639
0.879608 0.176528 0.879601 1 3.00003 2 192 192 192 255 0.205069 0.087639
-0.879608 0.176528 -0.879604 -1 3 -2 192 192 192 255 0.237107 0.087639
0.879608 0.176528 -0.879604 2 3 -1 192 192 192 255 0.237107 0.087639
0.879608 0 -0.879604 1 -1 -2 192 192 192 255 0.237107 0.087639
-0.879608 0 -0.879604 -2 -2 -1 192 192 192 255 0.237107 0.087639
-0.701225 0.176528 0.701233 -1 3 2 192 192 192 255 0.296476 0.061667
0.701233 0.176528 0.701233 2 3 1 192 192 192 255 0.296476 0.061667
-0.701225 0.176528 -0.701229 -2 3 -1 192 192 192 255 0.264437 0.061667
-0.701225 0.176528 0.701233 -1 3 2 192 192 192 255 0.264437 0.061667
-0.701225 0.300019 0.701233 -2 3 1 192 192 192 255 0.264437 0.061667
-0.701225 0.300019 -0.701229 -1 3 -2 192 192 192 255 0.296476 0.061667
0.701233 0.176528 -0.701229 1 3 -2 192 192 192 255 0.296476 0.061667
-0.701225 0.176528 -0.701229 -2 3 -1 192 192 192 255 0.296476 0.061667
0.701233 0.176528 0.701233 2 3 1 192 192 192 255 0.264437 0.061667
0.701233 0.176528 -0.701229 1 3 -2 192 192 192 255 0.264437 0.061667
0.701233 0.300019 -0.701229 2 3 -1 192 192 192 255 0.264437 0.061667
0.701233 0.300019 0.701233 1 3 2 192 192 192 255 0.264437 0.061667
-0.701225 0.300019 0.701233 -2 3 1 192 192 192 255 0.358469 0.061667
0.701233 0.300019 0.701233 1 3 2 192 192 192 255 0.358469 0.061667
0.701233 0.300019 -0.701229 2 3 -1 192 192 192 255 0.358469 0.061667
-0.701225 0.300019 -0.701229 -1 3 -2 192 192 192 255 0.358469 0.061667
0.088127 0.300019 0.088139 0.946924 3.96426 1.89389 192 192 192 255 0.230297 0.084139
-0.088158 0.300019 0.088139 -1.89389 3.9642 0.946944 192 192 192 255 0.230297 0.084139
0.088127 0.300019 -0.088135 1.89385 3.96434 -0.946935 192 192 192 255 0.193207 0.084139
0.052879 0.40385 0.052898 3.89385 -2.03569 1.94694 192 192 192 255 0.193207 0.084139
0.088127 0.300019 0.088139 0.946924 3.96426 1.89389 192 192 192 255 0.193207 0.084139
-0.088158 0.300019 -0.088135 -0.946944 3.96425 -1.89387 192 192 192 255 0.230297 0.084139
0.052879 0.40385 -0.052891 1.94692 -2.03569 -3.89387 192 192 192 255 0.230297 0.084139
0.088127 0.300019 -0.088135 1.89385 3.96434 -0.946935 192 192 192 255 0.230297 0.084139
-0.088158 0.300019 0.088139 -1.89389 3.9642 0.946944 192 192 192 255 0.193207 0.084139
-0.052917 0.40385 0.052898 -1.94694 -2.0358 3.89389 192 192 192 255 0.193207 0.084139
-0.052917 0.40385 -0.052891 -3.89389 -2.03578 -1.94694 192 192 192 255 0.193207 0.084139
-0.088158 0.300019 -0.088135 -0.946944 3.96425 -1.89387 192 192 192 255 0.193207 0.084139
0.034164 0.491944 0.034187 0.827248 2.68534 1.65461 192 192 192 255 0.230297 0.084139
-0.034203 0.491944 0.034187 -1.65452 3.68539 0.827304 192 192 192 255 0.230297 0.084139
-0.052917 0.464388 0.052898 -2.82726 4.68532 2.65461 192 192 192 255 0.193207 0.084139
-0.034203 0.491944 0.034187 -1.65452 3.68539 0.827304 192 192 192 255 0.193207 0.084139
-0.034203 0.491944 -0.03418 -0.827262 2.68532 -1.65461 192 192 192 255 0.193207 0.084139
-0.052917 0.464388 -0.052891 -2.65452 4.68539 -2.8273 192 192 192 255 0.230297 0.084139
-0.034203 0.491944 -0.03418 -0.827262 2.68532 -1.65461 192 192 192 255 0.230297 0.084139
0.034164 0.491944 -0.03418 1.6545 3.68543 -0.827304 192 192 192 255 0.230297 0.084139
0.052879 0.464388 0.052898 2.6545 4.68543 2.8273 192 192 192 255 0.193207 0.084139
0.052879 0.464388 -0.052891 2.82725 4.68535 -2.65461 192 192 192 255 0.193207 0.084139
0.034164 0.491944 -0.03418 1.6545 3.68543 -0.827304 192 192 192 255 0.193207 0.084139
0.034164 0.491944 0.034187 0.827248 2.68534 1.65461 192 192 192 255 0.193207 0.084139
-0.052917 0.40385 0.052898 -1.94694 -2.0358 3.89389 192 192 192 255 0.231366 0.084139
-0.052917 0.464388 0.052898 -2.82726 4.68532 2.65461 192 192 192 255 0.231366 0.084139
-0.229431 0.40385 0.052898 0 -2 1 192 192 192 255 0.231366 0.084139
-0.052917 0.464388 0.052898 -2.82726 4.68532 2.65461 192 192 192 255 0.294796 0.084126
-0.052917 0.464388 -0.052891 -2.65452 4.68539 -2.8273 192 192 192 255 0.294796 0.084126
-0.229431 0.464388 0.052898 0 1 2 192 192 192 255 0.294796 0.084126
-0.052917 0.464388 -0.052891 -2.65452 4.68539 -2.8273 192 192 192 255 0.231366 0.084139
-0.052917 0.40385 -0.052891 -3.89389 -2.03578 -1.94694 192 192 192 255 0.231366 0.084139
-0.229431 0.40385 -0.052891 0 -1 -2 192 192 192 255 0.231366 0.084139
-0.229431 0.464388 -0.052891 0 2 -1 192 192 192 255 0.231366 0.084139
0.052879 0.40385 -0.052891 1.94692 -2.03569 -3.89387 192 192 192 255 0.231366 0.084139
0.052879 0.464388 -0.052891 2.82725 4.68535 -2.65461 192 192 192 255 0.231366 0.084139
0.229393 0.40385 -0.052891 0 -2 -1 192 192 192 255 0.231366 0.084139
0.052879 0.464388 -0.052891 2.82725 4.68535 -2.65461 192 192 192 255 0.294796 0.084126
0.052879 0.464388 0.052898 2.6545 4.68543 2.8273 192 192 192 255 0.294796 0.084126
0.229393 0.464388 -0.052891 0 1 -2 192 192 192 255 0.294796 0.084126
0.052879 0.464388 0.052898 2.6545 4.68543 2.8273 192 192 192 255 0.231366 0.084139
0.052879 0.40385 0.052898 3.89385 -2.03569 1.94694 192 192 192 255 0.231366 0.084139
0.229393 0.40385 0.052898 0 -1 2 192 192 192 255 0.231366 0.084139
0.229393 0.464388 0.052898 0 2 1 192 192 192 255 0.231366 0.084139
0.052879 0.40385 0.052898 3.89385 -2.03569 1.94694 192 192 192 255 0.198871 0.084139
0.052879 0.464388 0.052898 2.6545 4.68543 2.8273 192 192 192 255 0.198871 0.084139
0.052879 0.40385 0.229416 1 -2 0 192 192 192 255 0.198871 0.084139
0.052879 0.464388 0.229416 2 1 0 192 192 192 255 0.294796 0.084126
-0.052917 0.464388 0.052898 -2.82726 4.68532 2.65461 192 192 192 255 0.198871 0.084139
-0.052917 0.40385 0.052898 -1.94694 -2.0358 3.89389 192 192 192 255 0.198871 0.084139
-0.052917 0.40385 0.229416 -2 -1 0 192 192 192 255 0.198871 0.084139
-0.052917 0.464388 0.229416 -1 2 0 192 192 192 255 0.198871 0.084139
-0.052917 0.40385 -0.052891 -3.89389 -2.03578 -1.94694 192 192 192 255 0.198871 0.084139
-0.052917 0.464388 -0.052891 -2.65452 4.68539 -2.8273 192 192 192 255 0.198871 0.084139
-0.052917 0.40385 -0.229404 -1 -2 0 192 192 192 255 0.198871 0.084139
-0.052917 0.464388 -0.229404 -2 1 0 192 192 192 255 0.294796 0.084126
0.052879 0.464388 -0.052891 2.82725 4.68535 -2.65461 192 192 192 255 0.198871 0.084139
0.052879 0.40385 -0.052891 1.94692 -2.03569 -3.89387 192 192 192 255 0.198871 0.084139
0.052879 0.40385 -0.229404 2 -1 0 192 192 192 255 0.198871 0.084139
0.052879 0.464388 -0.229404 1 2 0 192 192 192 255 0.198871 0.084139
3 0 1 3 
3 0 3 2 
3 4 5 7 
3 4 7 6 
3 64 65 66 
3 64 66 67 
3 68 69 70 
3 68 70 71 
3 72 73 9 
3 72 9 8 
3 73 74 10 
3 73 10 9 
3 74 75 11 
3 74 11 10 
3 75 72 8 
3 75 8 11 
3 76 77 13 
3 76 13 12 
3 77 78 14 
3 77 14 13 
3 78 79 15 
3 78 15 14 
3 79 76 12 
3 79 12 15 
3 80 81 82 
3 80 82 83 
3 84 85 86 
3 84 86 87 
3 88 89 90 
3 88 90 91 
3 92 93 94 
3 92 94 95 
3 25 26 28 
3 25 28 29 
3 36 37 38 
3 36 38 39 
3 30 31 27 
3 30 27 24 
3 22 23 17 
3 22 17 16 
3 26 27 31 
3 26 31 28 
3 24 25 29 
3 24 29 30 
3 96 97 98 
3 96 98 99 
3 100 101 102 
3 100 102 103 
3 104 105 106 
3 104 106 107 
3 108 109 110 
3 108 110 111 
3 112 113 19 
3 112 19 18 
3 114 115 116 
3 114 116 20 
3 117 21 118 
3 117 118 119 
3 120 121 122 
3 120 122 123 
3 124 125 33 
3 124 33 32 
3 125 126 34 
3 125 34 33 
3 126 127 35 
3 126 35 34 
3 127 124 32 
3 127 32 35 
3 128 40 41 
3 128 41 129 
3 130 43 131 
3 130 131 132 
3 133 42 134 
3 133 134 135 
3 136 137 138 
3 136 138 139 
3 45 44 140 
3 45 140 141 
3 46 142 143 
3 46 143 144 
3 47 145 146 
3 47 146 147 
3 148 149 150 
3 148 150 151 
3 138 137 48 
3 138 48 49 
3 152 153 50 
3 152 50 154 
3 155 156 51 
3 155 51 157 
3 158 159 160 
3 158 160 161 
3 131 43 52 
3 131 52 53 
3 162 163 54 
3 162 54 164 
3 165 166 55 
3 165 55 167 
3 168 169 170 
3 168 170 171 
3 41 40 56 
3 41 56 57 
3 172 173 58 
3 172 58 174 
3 166 155 59 
3 166 59 175 
3 176 177 178 
3 176 178 179 
3 134 42 60 
3 134 60 61 
3 180 181 62 
3 180 62 182 
3 156 165 63 
3 156 63 183 
3 184 185 186 
3 184 186 187 
