ply
format ascii 1.0
comment VCGLIB generated
comment TextureFile SpaceInteriors_Texture.png
element vertex 54
property float x
property float y
property float z
property float nx
property float ny
property float nz
property uchar red
property uchar green
property uchar blue
property uchar alpha
property float texture_u
property float texture_v
element face 32
property list uchar int vertex_indices
end_header
0 0 0 1 -1 3 192 192 192 255 0.200168 0.061667
0 1 -0.629269 2 2.7946 0.607132 192 192 192 255 0.233148 0.061667
0 1 -1 1 1 -2 192 192 192 255 0.233148 0.061667
0 0 -1 3 -2 -1 192 192 192 255 0.200168 0.061667
0 0.519194 0 2 1.5892 4.21426 192 192 192 255 0.233148 0.061667
-1 0.519194 0 -1 0.794601 3.60713 192 192 192 255 0.749827 0.703525
-1 1 -0.629269 -3 2.5892 1.21426 192 192 192 255 0.749827 0.873793
-1 1 -1 -1 2 -1 192 192 192 255 0.300052 0.061667
-1 0 -1 -2 -1 -2 192 192 192 255 0.200168 0.061667
-1 0 0 -2 -2 3 192 192 192 255 0.200168 0.061667
-0.832341 0.438533 0 2 -1 3 192 192 192 255 0.265187 0.061667
-0.832341 0.231758 0 1 2 3 192 192 192 255 0.265187 0.061667
-0.167659 0.231758 0 -2 1 3 192 192 192 255 0.265187 0.061667
-0.167659 0.438533 0 -1 -2 3 192 192 192 255 0.265187 0.061667
-0.832341 0.438533 -0.081945 1 -2 2 192 192 192 255 0.508968 0.74671
-0.832341 0.231758 -0.081945 2 1 1 192 192 192 255 0.508968 0.67353
-0.167659 0.231758 -0.081945 -1 2 2 192 192 192 255 0.751775 0.67353
-0.167659 0.438533 -0.081945 -2 -1 1 192 192 192 255 0.751775 0.74671
0 0 -1 3 -2 -1 192 192 192 255 0.233148 0.061667
0 0 0 1 -1 3 192 192 192 255 0.233148 0.061667
0 0.519194 0 2 1.5892 4.21426 192 192 192 255 0.991292 0.703525
0 1 -0.629269 2 2.7946 0.607132 192 192 192 255 0.991292 0.873793
-1 1 -0.629269 -3 2.5892 1.21426 192 192 192 255 0.300052 0.061667
0 1 -0.629269 2 2.7946 0.607132 192 192 192 255 0.300052 0.061667
0 1 -1 1 1 -2 192 192 192 255 0.300052 0.061667
-1 0 -1 -2 -1 -2 192 192 192 255 0.265187 0.061667
-1 1 -1 -1 2 -1 192 192 192 255 0.265187 0.061667
0 1 -1 1 1 -2 192 192 192 255 0.265187 0.061667
0 0 -1 3 -2 -1 192 192 192 255 0.265187 0.061667
-1 1 -0.629269 -3 2.5892 1.21426 192 192 192 255 0.236477 0.060738
-1 1 -1 -1 2 -1 192 192 192 255 0.236477 0.060738
-1 0 -1 -2 -1 -2 192 192 192 255 0.236477 0.060739
-1 0 0 -2 -2 3 192 192 192 255 0.236477 0.060739
-1 0.519194 0 -1 0.794601 3.60713 192 192 192 255 0.236477 0.060738
-1 0.519194 0 -1 0.794601 3.60713 192 192 192 255 0.265187 0.061667
-1 0 0 -2 -2 3 192 192 192 255 0.265187 0.061667
0 0 0 1 -1 3 192 192 192 255 0.265187 0.061667
0 0.519194 0 2 1.5892 4.21426 192 192 192 255 0.265187 0.061667
-0.832341 0.438533 0 2 -1 3 192 192 192 255 0.204499 0.05913
-0.832341 0.231758 0 1 2 3 192 192 192 255 0.204499 0.05913
-0.832341 0.231758 -0.081945 2 1 1 192 192 192 255 0.204499 0.05913
-0.832341 0.438533 -0.081945 1 -2 2 192 192 192 255 0.204499 0.05913
-0.832341 0.231758 0 1 2 3 192 192 192 255 0.296337 0.05913
-0.167659 0.231758 0 -2 1 3 192 192 192 255 0.296337 0.05913
-0.167659 0.231758 -0.081945 -1 2 2 192 192 192 255 0.296337 0.05913
-0.832341 0.231758 -0.081945 2 1 1 192 192 192 255 0.296337 0.05913
-0.167659 0.231758 0 -2 1 3 192 192 192 255 0.204499 0.05913
-0.167659 0.438533 0 -1 -2 3 192 192 192 255 0.204499 0.05913
-0.167659 0.438533 -0.081945 -2 -1 1 192 192 192 255 0.204499 0.05913
-0.167659 0.231758 -0.081945 -1 2 2 192 192 192 255 0.204499 0.05913
-0.167659 0.438533 0 -1 -2 3 192 192 192 255 0.16866 0.05913
-0.832341 0.438533 0 2 -1 3 192 192 192 255 0.16866 0.05913
-0.832341 0.438533 -0.081945 1 -2 2 192 192 192 255 0.16866 0.05913
-0.167659 0.438533 -0.081945 -2 -1 1 192 192 192 255 0.16866 0.05913
3 9 8 3 
3 9 3 0 
3 18 2 1 
3 18 1 4 
3 18 4 19 
3 14 15 16 
3 14 16 17 
3 6 5 20 
3 6 20 21 
3 7 22 23 
3 7 23 24 
3 25 26 27 
3 25 27 28 
3 29 30 31 
3 29 31 32 
3 29 32 33 
3 34 35 11 
3 34 11 10 
3 35 36 12 
3 35 12 11 
3 36 37 13 
3 36 13 12 
3 37 34 10 
3 37 10 13 
3 38 39 40 
3 38 40 41 
3 42 43 44 
3 42 44 45 
3 46 47 48 
3 46 48 49 
3 50 51 52 
3 50 52 53 
