ply
format ascii 1.0
comment VCGLIB generated
comment TextureFile SpaceInteriors_Texture.png
element vertex 192
property float x
property float y
property float z
property float nx
property float ny
property float nz
property uchar red
property uchar green
property uchar blue
property uchar alpha
property float texture_u
property float texture_v
element face 148
property list uchar int vertex_indices
end_header
-2.00873 0 0.548523 -1 -1 3 192 192 192 255 0.135601 0.240749
2.00873 0 0.548523 2 -1 3 192 192 192 255 0.17091 0.243271
-2.00873 1.76443 0.548523 -2 2 3 192 192 192 255 0.262334 0.24138
2.00873 1.76443 0.548523 1 1 3 192 192 192 255 0.17091 0.243271
-2.00873 1.76443 -0.605835 -1 1 -2 192 192 192 255 0.262334 0.24138
2.00873 1.76443 -0.605835 2 2 -2 192 192 192 255 0.17091 0.243271
-2.00873 0 -0.605835 -2 -2 -1 192 192 192 255 0.204958 0.242641
2.00873 0 -0.605835 1 -2 -1 192 192 192 255 0.17091 0.243271
1.00437 1.76443 0.548523 0 3 6 192 192 192 255 0.262334 0.24138
1.00437 1.76443 -0.605835 0 3 -3 192 192 192 255 0.262334 0.24138
1.00437 0 -0.605835 0 -3 -3 192 192 192 255 0.204957 0.242641
1.00437 0 0.548523 0 -3 6 192 192 192 255 0.135601 0.240749
2e-006 1.76443 0.548523 0 3 6 192 192 192 255 0.262334 0.24138
2e-006 1.76443 -0.605835 0 3 -3 192 192 192 255 0.262334 0.24138
2e-006 0 -0.605835 0 -3 -3 192 192 192 255 0.204958 0.242641
2e-006 0 0.548523 0 -3 6 192 192 192 255 0.135601 0.240749
-1.00436 1.76443 0.548523 0 3 6 192 192 192 255 0.262334 0.24138
-1.00436 1.76443 -0.605835 0 3 -2 192 192 192 255 0.262334 0.24138
-1.00436 0 -0.605835 0 -2 -4 192 192 192 255 0.204958 0.242641
-1.00436 0 0.548523 0 -4 6 192 192 192 255 0.135601 0.240749
-1.91428 0.119831 0.548523 0 0 6 192 192 192 255 0.204958 0.242641
-1.09881 0.119831 0.548523 0 0 6 192 192 192 255 0.204958 0.242641
-1.09881 1.6446 0.548523 0 0 6 192 192 192 255 0.204958 0.242641
-1.91428 1.6446 0.548523 0 0 6 192 192 192 255 0.204958 0.242641
1.09881 0.119831 0.548523 0 0 6 192 192 192 255 0.204957 0.242641
1.09881 1.6446 0.548523 0 0 6 192 192 192 255 0.204957 0.242641
1.91428 0.119831 0.548523 0 0 6 192 192 192 255 0.204957 0.242641
1.91428 1.6446 0.548523 0 0 6 192 192 192 255 0.204957 0.242641
0.09445 0.119831 0.548523 0 0 6 192 192 192 255 0.204958 0.242641
0.09445 1.6446 0.548523 0 0 6 192 192 192 255 0.204958 0.242641
0.909918 0.119831 0.548523 0 0 6 192 192 192 255 0.204957 0.242641
0.909918 1.6446 0.548523 0 0 6 192 192 192 255 0.204957 0.242641
-0.909916 0.119831 0.548523 0 0 6 192 192 192 255 0.204958 0.242641
-0.909916 1.6446 0.548523 0 0 6 192 192 192 255 0.204958 0.242641
-0.094442 0.119831 0.548523 0 0 6 192 192 192 255 0.204958 0.242641
-0.094442 1.6446 0.548523 0 0 6 192 192 192 255 0.204958 0.242641
-1.87287 0.156264 0.548523 0 0 5 192 192 192 255 0.358288 0.448142
-1.14021 0.156264 0.548523 0 0 4 192 192 192 255 0.358288 0.448142
-1.14021 1.60816 0.548523 0 0 5 192 192 192 255 0.358288 0.448142
-1.87287 1.60816 0.548523 0 0 4 192 192 192 255 0.358288 0.448142
1.14022 0.156264 0.548523 0 0 4 192 192 192 255 0.358288 0.448142
1.14022 1.60816 0.548523 0 0 5 192 192 192 255 0.358288 0.448142
1.87288 0.156264 0.548523 0 0 5 192 192 192 255 0.358288 0.448142
1.87288 1.60816 0.548523 0 0 4 192 192 192 255 0.358288 0.448142
0.135853 0.156264 0.548523 0 0 4 192 192 192 255 0.358288 0.448142
0.135853 1.60816 0.548523 0 0 5 192 192 192 255 0.358288 0.448142
0.868515 0.156264 0.548523 0 0 5 192 192 192 255 0.358288 0.448142
0.868515 1.60816 0.548523 0 0 4 192 192 192 255 0.358288 0.448142
-0.868511 0.156264 0.548523 0 0 4 192 192 192 255 0.358288 0.448142
-0.868511 1.60816 0.548523 0 0 5 192 192 192 255 0.358288 0.448142
-0.135847 0.156264 0.548523 0 0 5 192 192 192 255 0.358288 0.448142
-0.135847 1.60816 0.548523 0 0 4 192 192 192 255 0.358288 0.448142
-1.81793 0.761812 0.605835 -1 -1 2 192 192 192 255 0.365638 0.265206
-1.75178 0.761812 0.605835 2 -2 1 192 192 192 255 0.365638 0.265206
-1.81793 1.02015 0.605835 -2 2 1 192 192 192 255 0.365638 0.265206
-1.75178 1.02015 0.605835 1 1 2 192 192 192 255 0.365638 0.265206
-1.81793 1.02015 0.548523 -1 1 -2 192 192 192 255 0.391046 0.268836
-1.75178 1.02015 0.548523 2 2 -1 192 192 192 255 0.391046 0.268836
-1.81793 0.761812 0.548523 -2 -2 -1 192 192 192 255 0.365638 0.265206
-1.75178 0.761812 0.548523 1 -1 -2 192 192 192 255 0.365638 0.265206
-0.809082 0.761812 0.605835 -1 -1 2 192 192 192 255 0.365638 0.265206
-0.742929 0.761812 0.605835 2 -2 1 192 192 192 255 0.365638 0.265206
-0.809082 1.02015 0.605835 -2 2 1 192 192 192 255 0.365638 0.265206
-0.742929 1.02015 0.605835 1 1 2 192 192 192 255 0.365638 0.265206
-0.809082 1.02015 0.548523 -1 1 -2 192 192 192 255 0.391046 0.268836
-0.742929 1.02015 0.548523 2 2 -1 192 192 192 255 0.391046 0.268836
-0.809082 0.761812 0.548523 -2 -2 -1 192 192 192 255 0.365638 0.265206
-0.742929 0.761812 0.548523 1 -1 -2 192 192 192 255 0.365638 0.265206
0.195955 0.761812 0.605835 -1 -1 2 192 192 192 255 0.365638 0.265206
0.262106 0.761812 0.605835 2 -2 1 192 192 192 255 0.365638 0.265206
0.195955 1.02015 0.605835 -2 2 1 192 192 192 255 0.365638 0.265206
0.262106 1.02015 0.605835 1 1 2 192 192 192 255 0.365638 0.265206
0.195955 1.02015 0.548523 -1 1 -2 192 192 192 255 0.391046 0.268836
0.262106 1.02015 0.548523 2 2 -1 192 192 192 255 0.391046 0.268836
0.195955 0.761812 0.548523 -2 -2 -1 192 192 192 255 0.365638 0.265206
0.262106 0.761812 0.548523 1 -1 -2 192 192 192 255 0.365638 0.265206
1.20179 0.761812 0.605835 -1 -1 2 192 192 192 255 0.365638 0.265206
1.26794 0.761812 0.605835 2 -2 1 192 192 192 255 0.365638 0.265206
1.20179 1.02015 0.605835 -2 2 1 192 192 192 255 0.365638 0.265206
1.26794 1.02015 0.605835 1 1 2 192 192 192 255 0.365638 0.265206
1.20179 1.02015 0.548523 -1 1 -2 192 192 192 255 0.391046 0.268836
1.26794 1.02015 0.548523 2 2 -1 192 192 192 255 0.391046 0.268836
1.20179 0.761812 0.548523 -2 -2 -1 192 192 192 255 0.365638 0.265206
1.26794 0.761812 0.548523 1 -1 -2 192 192 192 255 0.365638 0.265206
-2.00873 1.76443 -0.605835 -1 1 -2 192 192 192 255 0.204958 0.242641
-1.00436 1.76443 -0.605835 0 3 -2 192 192 192 255 0.204958 0.242641
-2.00873 0 -0.605835 -2 -2 -1 192 192 192 255 0.135601 0.240749
-1.00436 0 -0.605835 0 -2 -4 192 192 192 255 0.135601 0.240749
-2.00873 0 -0.605835 -2 -2 -1 192 192 192 255 0.17091 0.243271
-2.00873 0 0.548523 -1 -1 3 192 192 192 255 0.17091 0.243271
-2.00873 1.76443 0.548523 -2 2 3 192 192 192 255 0.17091 0.243271
-2.00873 1.76443 -0.605835 -1 1 -2 192 192 192 255 0.17091 0.243271
2.00873 1.76443 0.548523 1 1 3 192 192 192 255 0.262334 0.24138
2.00873 1.76443 -0.605835 2 2 -2 192 192 192 255 0.262334 0.24138
1.00437 1.76443 -0.605835 0 3 -3 192 192 192 255 0.204957 0.242641
2.00873 1.76443 -0.605835 2 2 -2 192 192 192 255 0.204957 0.242641
2.00873 0 -0.605835 1 -2 -1 192 192 192 255 0.204957 0.242641
1.00437 0 -0.605835 0 -3 -3 192 192 192 255 0.135601 0.240749
2.00873 0 -0.605835 1 -2 -1 192 192 192 255 0.135601 0.240749
2.00873 0 0.548523 2 -1 3 192 192 192 255 0.135601 0.240749
2e-006 1.76443 -0.605835 0 3 -3 192 192 192 255 0.204958 0.242641
2e-006 0 -0.605835 0 -3 -3 192 192 192 255 0.135601 0.240749
-2.00873 0 0.548523 -1 -1 3 192 192 192 255 0.204958 0.242641
-1.00436 0 0.548523 0 -4 6 192 192 192 255 0.204958 0.242641
-1.00436 1.76443 0.548523 0 3 6 192 192 192 255 0.204958 0.242641
-2.00873 1.76443 0.548523 -2 2 3 192 192 192 255 0.204958 0.242641
1.00437 1.76443 0.548523 0 3 6 192 192 192 255 0.204957 0.242641
1.00437 0 0.548523 0 -3 6 192 192 192 255 0.204957 0.242641
2.00873 0 0.548523 2 -1 3 192 192 192 255 0.204957 0.242641
2.00873 1.76443 0.548523 1 1 3 192 192 192 255 0.204957 0.242641
2e-006 1.76443 0.548523 0 3 6 192 192 192 255 0.204958 0.242641
2e-006 0 0.548523 0 -3 6 192 192 192 255 0.204958 0.242641
-1.91428 0.119831 0.548523 0 0 6 192 192 192 255 0.107567 0.476726
-1.09881 0.119831 0.548523 0 0 6 192 192 192 255 0.107567 0.476726
-1.14021 0.156264 0.548523 0 0 4 192 192 192 255 0.107567 0.476726
-1.87287 0.156264 0.548523 0 0 5 192 192 192 255 0.107567 0.476726
-1.09881 1.6446 0.548523 0 0 6 192 192 192 255 0.107567 0.476726
-1.14021 1.60816 0.548523 0 0 5 192 192 192 255 0.107567 0.476726
-1.91428 1.6446 0.548523 0 0 6 192 192 192 255 0.107567 0.476726
-1.87287 1.60816 0.548523 0 0 4 192 192 192 255 0.107567 0.476726
1.09881 1.6446 0.548523 0 0 6 192 192 192 255 0.107567 0.476726
1.09881 0.119831 0.548523 0 0 6 192 192 192 255 0.107567 0.476726
1.14022 0.156264 0.548523 0 0 4 192 192 192 255 0.107567 0.476726
1.14022 1.60816 0.548523 0 0 5 192 192 192 255 0.107567 0.476726
1.91428 0.119831 0.548523 0 0 6 192 192 192 255 0.107567 0.476726
1.87288 0.156264 0.548523 0 0 5 192 192 192 255 0.107567 0.476726
1.91428 1.6446 0.548523 0 0 6 192 192 192 255 0.107567 0.476726
1.87288 1.60816 0.548523 0 0 4 192 192 192 255 0.107567 0.476726
0.09445 1.6446 0.548523 0 0 6 192 192 192 255 0.107567 0.476726
0.09445 0.119831 0.548523 0 0 6 192 192 192 255 0.107567 0.476726
0.135853 0.156264 0.548523 0 0 4 192 192 192 255 0.107567 0.476726
0.135853 1.60816 0.548523 0 0 5 192 192 192 255 0.107567 0.476726
0.909918 0.119831 0.548523 0 0 6 192 192 192 255 0.107567 0.476726
0.868515 0.156264 0.548523 0 0 5 192 192 192 255 0.107567 0.476726
0.909918 1.6446 0.548523 0 0 6 192 192 192 255 0.107567 0.476726
0.868515 1.60816 0.548523 0 0 4 192 192 192 255 0.107567 0.476726
-0.909916 1.6446 0.548523 0 0 6 192 192 192 255 0.107567 0.476726
-0.909916 0.119831 0.548523 0 0 6 192 192 192 255 0.107567 0.476726
-0.868511 0.156264 0.548523 0 0 4 192 192 192 255 0.107567 0.476726
-0.868511 1.60816 0.548523 0 0 5 192 192 192 255 0.107567 0.476726
-0.094442 0.119831 0.548523 0 0 6 192 192 192 255 0.107567 0.476726
-0.135847 0.156264 0.548523 0 0 5 192 192 192 255 0.107567 0.476726
-0.094442 1.6446 0.548523 0 0 6 192 192 192 255 0.107567 0.476726
-0.135847 1.60816 0.548523 0 0 4 192 192 192 255 0.107567 0.476726
-1.81793 1.02015 0.605835 -2 2 1 192 192 192 255 0.391046 0.268836
-1.75178 1.02015 0.605835 1 1 2 192 192 192 255 0.391046 0.268836
-1.81793 1.02015 0.548523 -1 1 -2 192 192 192 255 0.365638 0.265206
-1.75178 1.02015 0.548523 2 2 -1 192 192 192 255 0.365638 0.265206
-1.75178 0.761812 0.605835 2 -2 1 192 192 192 255 0.327889 0.26811
-1.75178 0.761812 0.548523 1 -1 -2 192 192 192 255 0.327889 0.26811
-1.75178 1.02015 0.548523 2 2 -1 192 192 192 255 0.327889 0.26811
-1.75178 1.02015 0.605835 1 1 2 192 192 192 255 0.327889 0.26811
-1.81793 0.761812 0.548523 -2 -2 -1 192 192 192 255 0.327889 0.26811
-1.81793 0.761812 0.605835 -1 -1 2 192 192 192 255 0.327889 0.26811
-1.81793 1.02015 0.605835 -2 2 1 192 192 192 255 0.327889 0.26811
-1.81793 1.02015 0.548523 -1 1 -2 192 192 192 255 0.327889 0.26811
-0.809082 1.02015 0.605835 -2 2 1 192 192 192 255 0.391046 0.268836
-0.742929 1.02015 0.605835 1 1 2 192 192 192 255 0.391046 0.268836
-0.809082 1.02015 0.548523 -1 1 -2 192 192 192 255 0.365638 0.265206
-0.742929 1.02015 0.548523 2 2 -1 192 192 192 255 0.365638 0.265206
-0.742929 0.761812 0.605835 2 -2 1 192 192 192 255 0.327889 0.26811
-0.742929 0.761812 0.548523 1 -1 -2 192 192 192 255 0.327889 0.26811
-0.742929 1.02015 0.548523 2 2 -1 192 192 192 255 0.327889 0.26811
-0.742929 1.02015 0.605835 1 1 2 192 192 192 255 0.327889 0.26811
-0.809082 0.761812 0.548523 -2 -2 -1 192 192 192 255 0.327889 0.26811
-0.809082 0.761812 0.605835 -1 -1 2 192 192 192 255 0.327889 0.26811
-0.809082 1.02015 0.605835 -2 2 1 192 192 192 255 0.327889 0.26811
-0.809082 1.02015 0.548523 -1 1 -2 192 192 192 255 0.327889 0.26811
0.195955 1.02015 0.605835 -2 2 1 192 192 192 255 0.391046 0.268836
0.262106 1.02015 0.605835 1 1 2 192 192 192 255 0.391046 0.268836
0.195955 1.02015 0.548523 -1 1 -2 192 192 192 255 0.365638 0.265206
0.262106 1.02015 0.548523 2 2 -1 192 192 192 255 0.365638 0.265206
0.262106 0.761812 0.605835 2 -2 1 192 192 192 255 0.327889 0.26811
0.262106 0.761812 0.548523 1 -1 -2 192 192 192 255 0.327889 0.26811
0.262106 1.02015 0.548523 2 2 -1 192 192 192 255 0.327889 0.26811
0.262106 1.02015 0.605835 1 1 2 192 192 192 255 0.327889 0.26811
0.195955 0.761812 0.548523 -2 -2 -1 192 192 192 255 0.327889 0.26811
0.195955 0.761812 0.605835 -1 -1 2 192 192 192 255 0.327889 0.26811
0.195955 1.02015 0.605835 -2 2 1 192 192 192 255 0.327889 0.26811
0.195955 1.02015 0.548523 -1 1 -2 192 192 192 255 0.327889 0.26811
1.20179 1.02015 0.605835 -2 2 1 192 192 192 255 0.391046 0.268836
1.26794 1.02015 0.605835 1 1 2 192 192 192 255 0.391046 0.268836
1.20179 1.02015 0.548523 -1 1 -2 192 192 192 255 0.365638 0.265206
1.26794 1.02015 0.548523 2 2 -1 192 192 192 255 0.365638 0.265206
1.26794 0.761812 0.605835 2 -2 1 192 192 192 255 0.327889 0.26811
1.26794 0.761812 0.548523 1 -1 -2 192 192 192 255 0.327889 0.26811
1.26794 1.02015 0.548523 2 2 -1 192 192 192 255 0.327889 0.26811
1.26794 1.02015 0.605835 1 1 2 192 192 192 255 0.327889 0.26811
1.20179 0.761812 0.548523 -2 -2 -1 192 192 192 255 0.327889 0.26811
1.20179 0.761812 0.605835 -1 -1 2 192 192 192 255 0.327889 0.26811
1.20179 1.02015 0.605835 -2 2 1 192 192 192 255 0.327889 0.26811
1.20179 1.02015 0.548523 -1 1 -2 192 192 192 255 0.327889 0.26811
3 36 37 38 
3 36 38 39 
3 2 16 17 
3 2 17 4 
3 84 85 18 
3 84 18 6 
3 86 87 19 
3 86 19 0 
3 1 7 5 
3 1 5 3 
3 88 89 90 
3 88 90 91 
3 8 92 93 
3 8 93 9 
3 10 94 95 
3 10 95 96 
3 11 97 98 
3 11 98 99 
3 41 40 42 
3 41 42 43 
3 12 8 9 
3 12 9 13 
3 14 100 94 
3 14 94 10 
3 15 101 97 
3 15 97 11 
3 45 44 46 
3 45 46 47 
3 16 12 13 
3 16 13 17 
3 18 85 100 
3 18 100 14 
3 19 87 101 
3 19 101 15 
3 49 48 50 
3 49 50 51 
3 102 103 21 
3 102 21 20 
3 103 104 22 
3 103 22 21 
3 104 105 23 
3 104 23 22 
3 105 102 20 
3 105 20 23 
3 106 107 24 
3 106 24 25 
3 107 108 26 
3 107 26 24 
3 108 109 27 
3 108 27 26 
3 109 106 25 
3 109 25 27 
3 110 111 28 
3 110 28 29 
3 111 107 30 
3 111 30 28 
3 107 106 31 
3 107 31 30 
3 106 110 29 
3 106 29 31 
3 104 103 32 
3 104 32 33 
3 103 111 34 
3 103 34 32 
3 111 110 35 
3 111 35 34 
3 110 104 33 
3 110 33 35 
3 112 113 114 
3 112 114 115 
3 113 116 117 
3 113 117 114 
3 116 118 119 
3 116 119 117 
3 118 112 115 
3 118 115 119 
3 120 121 122 
3 120 122 123 
3 121 124 125 
3 121 125 122 
3 124 126 127 
3 124 127 125 
3 126 120 123 
3 126 123 127 
3 128 129 130 
3 128 130 131 
3 129 132 133 
3 129 133 130 
3 132 134 135 
3 132 135 133 
3 134 128 131 
3 134 131 135 
3 136 137 138 
3 136 138 139 
3 137 140 141 
3 137 141 138 
3 140 142 143 
3 140 143 141 
3 142 136 139 
3 142 139 143 
3 52 53 55 
3 52 55 54 
3 144 145 57 
3 144 57 56 
3 146 147 59 
3 146 59 58 
3 58 59 53 
3 58 53 52 
3 148 149 150 
3 148 150 151 
3 152 153 154 
3 152 154 155 
3 60 61 63 
3 60 63 62 
3 156 157 65 
3 156 65 64 
3 158 159 67 
3 158 67 66 
3 66 67 61 
3 66 61 60 
3 160 161 162 
3 160 162 163 
3 164 165 166 
3 164 166 167 
3 68 69 71 
3 68 71 70 
3 168 169 73 
3 168 73 72 
3 170 171 75 
3 170 75 74 
3 74 75 69 
3 74 69 68 
3 172 173 174 
3 172 174 175 
3 176 177 178 
3 176 178 179 
3 76 77 79 
3 76 79 78 
3 180 181 81 
3 180 81 80 
3 182 183 83 
3 182 83 82 
3 82 83 77 
3 82 77 76 
3 184 185 186 
3 184 186 187 
3 188 189 190 
3 188 190 191 
