ply
format ascii 1.0
comment VCGLIB generated
comment TextureFile SpaceInteriors_Texture.png
element vertex 288
property float x
property float y
property float z
property float nx
property float ny
property float nz
property uchar red
property uchar green
property uchar blue
property uchar alpha
property float texture_u
property float texture_v
element face 280
property list uchar int vertex_indices
end_header
-0.674776 0.385846 0.672073 2 1 3 192 192 192 255 0.383642 0.064738
0.674772 0.385846 0.672073 -1 2 3 192 192 192 255 0.383642 0.064738
-0.674776 3.80109 0.672073 1 -2 5 192 192 192 255 0.383642 0.064738
0.674772 3.80109 0.672073 -2 -1 4 192 192 192 255 0.383642 0.064738
-0.674776 3.80109 -0.806953 0 0 -5 192 192 192 255 0.357535 0.064158
0.674772 3.80109 -0.806953 0 0 -4 192 192 192 255 0.357535 0.064158
-0.674776 0.385846 -0.806953 0 0 -4 192 192 192 255 0.357535 0.064158
0.674772 0.385846 -0.806953 0 0 -5 192 192 192 255 0.357535 0.064158
-0.610676 1.31684 0.672073 1 2 3 192 192 192 255 0.383642 0.064738
0.610672 1.31684 0.672073 -2 1 3 192 192 192 255 0.383642 0.064738
0.610672 2.59589 0.672073 -1 -2 5 192 192 192 255 0.383642 0.064738
-0.610676 2.59589 0.672073 2 -1 4 192 192 192 255 0.383642 0.064738
-0.074177 3.75153 0.672073 0.656187 -0.818721 4.32879 192 192 192 255 0.383642 0.064738
0.56081 3.75153 0.672073 -0.656177 -1.63744 4.90299 192 192 192 255 0.383642 0.064738
-0.074177 3.26089 0.672073 1.31237 0.818721 5.08339 192 192 192 255 0.383642 0.064738
0.56081 3.26089 0.672073 -1.31235 1.63744 5.6576 192 192 192 255 0.383642 0.064738
0.009409 3.70055 0.599388 1.31237 -1.63744 3.65758 192 192 192 255 0.021166 0.506883
0.477222 3.70055 0.599388 -1.31235 -0.818721 4.08341 192 192 192 255 0.021166 0.506883
0.009409 3.31187 0.599388 0.656187 1.63744 3.90298 192 192 192 255 0.021166 0.506883
0.477222 3.31187 0.599388 -0.656177 0.818721 2.3288 192 192 192 255 0.021166 0.506883
-0.610676 1.31684 0.591858 2 1 2 192 192 192 255 0.508894 0.746881
0.610672 1.31684 0.591858 -1 2 1 192 192 192 255 0.750463 0.746881
0.610672 2.59589 0.591858 -2 -1 2 192 192 192 255 0.750463 0.992538
-0.610676 2.59589 0.591858 1 -2 1 192 192 192 255 0.508894 0.992538
-0.769627 3.89594 0.672073 -4 3 0 192 192 192 255 0.45489 0.062216
0.769627 3.89594 0.672073 2 3 0 192 192 192 255 0.45489 0.062216
0.769627 3.89594 -0.806953 2 2 -3 192 192 192 255 0.45489 0.062216
-0.769627 3.89594 -0.806953 -1 1 -3 192 192 192 255 0.45489 0.062216
-0.769627 0.290996 -0.806953 -2 -2 -3 192 192 192 255 0.321852 0.065368
0.769627 0.290996 -0.806953 1 -1 -3 192 192 192 255 0.321852 0.065368
0.769627 0.290996 0.672073 4 -3 0 192 192 192 255 0.321852 0.065368
-0.769627 0.290996 0.672073 -2 -3 0 192 192 192 255 0.321852 0.065368
-0.674776 3.80109 0.794769 2 -1 3 192 192 192 255 0.383642 0.064738
0.674772 3.80109 0.794769 -1 -2 3 192 192 192 255 0.383642 0.064738
0.769627 3.89594 0.794769 2 1 3 192 192 192 255 0.383642 0.064738
-0.769627 3.89594 0.794769 -1 2 3 192 192 192 255 0.383642 0.064738
-0.674776 0.385846 0.794769 1 2 3 192 192 192 255 0.383642 0.064738
0.674772 0.385846 0.794769 -2 1 3 192 192 192 255 0.383642 0.064738
-0.769627 0.290996 0.794769 -2 -1 3 192 192 192 255 0.383642 0.064738
0.769627 0.290996 0.794769 1 -2 3 192 192 192 255 0.383642 0.064738
0.272833 2.71834 0.70369 -1 -1 3 192 192 192 255 0.13845 0.473119
0.515829 2.71834 0.70369 2 -2 3 192 192 192 255 0.13845 0.473119
0.272833 2.82006 0.70369 -2 2 3 192 192 192 255 0.13845 0.473119
0.515829 2.82006 0.70369 1 1 3 192 192 192 255 0.13845 0.473119
0.272833 2.82006 0.672073 -1 1 0 192 192 192 255 0.13845 0.473119
0.515829 2.82006 0.672073 2 2 0 192 192 192 255 0.13845 0.473119
0.272833 2.71834 0.672073 -2 -2 0 192 192 192 255 0.13845 0.473119
0.515829 2.71834 0.672073 1 -1 0 192 192 192 255 0.13845 0.473119
0.304962 2.74059 0.70369 0 0 5 192 192 192 255 0.948778 0.380713
0.483702 2.74059 0.70369 0 0 4 192 192 192 255 0.948778 0.380713
0.483702 2.79781 0.70369 0 0 5 192 192 192 255 0.948778 0.380713
0.304962 2.79781 0.70369 0 0 4 192 192 192 255 0.948778 0.380713
0.272833 2.90172 0.70369 -1 -1 3 192 192 192 255 0.13845 0.473119
0.515829 2.90172 0.70369 2 -2 3 192 192 192 255 0.13845 0.473119
0.272833 3.00345 0.70369 -2 2 3 192 192 192 255 0.13845 0.473119
0.515829 3.00345 0.70369 1 1 3 192 192 192 255 0.13845 0.473119
0.272833 3.00345 0.672073 -1 1 0 192 192 192 255 0.13845 0.473119
0.515829 3.00345 0.672073 2 2 0 192 192 192 255 0.13845 0.473119
0.272833 2.90172 0.672073 -2 -2 0 192 192 192 255 0.13845 0.473119
0.515829 2.90172 0.672073 1 -1 0 192 192 192 255 0.13845 0.473119
0.304962 2.92397 0.70369 0 0 5 192 192 192 255 0.948778 0.380713
0.483702 2.92397 0.70369 0 0 4 192 192 192 255 0.948778 0.380713
0.483702 2.9812 0.70369 0 0 5 192 192 192 255 0.948778 0.380713
0.304962 2.9812 0.70369 0 0 4 192 192 192 255 0.948778 0.380713
0.272833 3.07327 0.70369 -1 -1 3 192 192 192 255 0.13845 0.473119
0.515829 3.07327 0.70369 2 -2 3 192 192 192 255 0.13845 0.473119
0.272833 3.17499 0.70369 -2 2 3 192 192 192 255 0.13845 0.473119
0.515829 3.17499 0.70369 1 1 3 192 192 192 255 0.13845 0.473119
0.272833 3.17499 0.672073 -1 1 0 192 192 192 255 0.13845 0.473119
0.515829 3.17499 0.672073 2 2 0 192 192 192 255 0.13845 0.473119
0.272833 3.07327 0.672073 -2 -2 0 192 192 192 255 0.13845 0.473119
0.515829 3.07327 0.672073 1 -1 0 192 192 192 255 0.13845 0.473119
0.304962 3.09552 0.70369 0 0 5 192 192 192 255 0.948778 0.380713
0.483702 3.09552 0.70369 0 0 4 192 192 192 255 0.948778 0.380713
0.483702 3.15274 0.70369 0 0 5 192 192 192 255 0.948778 0.380713
0.304962 3.15274 0.70369 0 0 4 192 192 192 255 0.948778 0.380713
-0.082603 3.07327 0.70369 -1 -1 3 192 192 192 255 0.13845 0.473119
0.160393 3.07327 0.70369 2 -2 3 192 192 192 255 0.13845 0.473119
-0.082603 3.17499 0.70369 -2 2 3 192 192 192 255 0.13845 0.473119
0.160393 3.17499 0.70369 1 1 3 192 192 192 255 0.13845 0.473119
-0.082603 3.17499 0.672073 -1 1 0 192 192 192 255 0.13845 0.473119
0.160393 3.17499 0.672073 2 2 0 192 192 192 255 0.13845 0.473119
-0.082603 3.07327 0.672073 -2 -2 0 192 192 192 255 0.13845 0.473119
0.160393 3.07327 0.672073 1 -1 0 192 192 192 255 0.13845 0.473119
-0.050474 3.09552 0.70369 0 0 5 192 192 192 255 0.948778 0.380713
0.128265 3.09552 0.70369 0 0 4 192 192 192 255 0.948778 0.380713
0.128265 3.15274 0.70369 0 0 5 192 192 192 255 0.948778 0.380713
-0.050474 3.15274 0.70369 0 0 4 192 192 192 255 0.948778 0.380713
-0.082603 2.90172 0.70369 -1 -1 3 192 192 192 255 0.13845 0.473119
0.160393 2.90172 0.70369 2 -2 3 192 192 192 255 0.13845 0.473119
-0.082603 3.00345 0.70369 -2 2 3 192 192 192 255 0.13845 0.473119
0.160393 3.00345 0.70369 1 1 3 192 192 192 255 0.13845 0.473119
-0.082603 3.00345 0.672073 -1 1 0 192 192 192 255 0.13845 0.473119
0.160393 3.00345 0.672073 2 2 0 192 192 192 255 0.13845 0.473119
-0.082603 2.90172 0.672073 -2 -2 0 192 192 192 255 0.13845 0.473119
0.160393 2.90172 0.672073 1 -1 0 192 192 192 255 0.13845 0.473119
-0.050474 2.92397 0.70369 0 0 5 192 192 192 255 0.948778 0.380713
0.128265 2.92397 0.70369 0 0 4 192 192 192 255 0.948778 0.380713
0.128265 2.9812 0.70369 0 0 5 192 192 192 255 0.948778 0.380713
-0.050474 2.9812 0.70369 0 0 4 192 192 192 255 0.948778 0.380713
-0.082603 2.71834 0.70369 -1 -1 3 192 192 192 255 0.13845 0.473119
0.160393 2.71834 0.70369 2 -2 3 192 192 192 255 0.13845 0.473119
-0.082603 2.82006 0.70369 -2 2 3 192 192 192 255 0.13845 0.473119
0.160393 2.82006 0.70369 1 1 3 192 192 192 255 0.13845 0.473119
-0.082603 2.82006 0.672073 -1 1 0 192 192 192 255 0.13845 0.473119
0.160393 2.82006 0.672073 2 2 0 192 192 192 255 0.13845 0.473119
-0.082603 2.71834 0.672073 -2 -2 0 192 192 192 255 0.13845 0.473119
0.160393 2.71834 0.672073 1 -1 0 192 192 192 255 0.13845 0.473119
-0.050474 2.74059 0.70369 0 0 5 192 192 192 255 0.948778 0.380713
0.128265 2.74059 0.70369 0 0 4 192 192 192 255 0.948778 0.380713
0.128265 2.79781 0.70369 0 0 5 192 192 192 255 0.948778 0.380713
-0.050474 2.79781 0.70369 0 0 4 192 192 192 255 0.948778 0.380713
-0.6411 0.108345 -0.715813 -2.17522 -1 0.517964 192 192 192 255 0.198639 0.482969
-0.569132 0.108345 -0.629921 0.518258 -2 2.17502 192 192 192 255 0.198639 0.482969
-0.6411 0.297477 -0.715813 -2.05093 2 -0.890802 192 192 192 255 0.198639 0.482969
-0.569132 0.297477 -0.629921 -0.890622 1 2.05087 192 192 192 255 0.198639 0.482969
-0.555239 0.297477 -0.78775 0.890557 1 -2.05128 192 192 192 255 0.198639 0.482969
-0.483271 0.297477 -0.701889 2.05115 2 0.890394 192 192 192 255 0.198639 0.482969
-0.555239 0.108345 -0.78775 -0.518047 -2 -2.17543 192 192 192 255 0.198639 0.482969
-0.483271 0.108345 -0.701889 2.17515 -1 -0.518372 192 192 192 255 0.198639 0.482969
-0.686619 0 -0.64888 -2.17504 -1 0.518301 192 192 192 255 0.106508 0.475292
-0.642986 0 -0.596825 0.518165 -2 2.17534 192 192 192 255 0.106508 0.475292
-0.686619 0.167022 -0.64888 -2.05093 2 -0.890559 192 192 192 255 0.106508 0.475292
-0.642986 0.167022 -0.596825 -0.890488 1 2.05125 192 192 192 255 0.106508 0.475292
-0.562567 0.167022 -0.752831 0.890496 1 -2.05123 192 192 192 255 0.106508 0.475292
-0.518934 0.167022 -0.700775 2.05093 2 0.890572 192 192 192 255 0.106508 0.475292
-0.562567 0 -0.752831 -0.518166 -2 -2.17533 192 192 192 255 0.106508 0.475292
-0.518934 0 -0.700775 2.17505 -1 -0.518284 192 192 192 255 0.106508 0.475292
0.543795 0.108345 -0.652481 -0.432951 -1 2.19378 192 192 192 255 0.198639 0.482969
0.651815 0.108345 -0.682236 2.19375 -2 0.432957 192 192 192 255 0.198639 0.482969
0.543795 0.297477 -0.652481 -1.6626 2 1.49528 192 192 192 255 0.198639 0.482969
0.651815 0.297477 -0.682236 1.49523 1 1.66262 192 192 192 255 0.198639 0.482969
0.514042 0.297477 -0.760483 -1.49533 1 -1.66256 192 192 192 255 0.198639 0.482969
0.622063 0.297477 -0.790245 1.66256 2 -1.49521 192 192 192 255 0.198639 0.482969
0.514042 0.108345 -0.760483 -2.19379 -2 -0.432894 192 192 192 255 0.198639 0.482969
0.622063 0.108345 -0.790245 0.432847 -1 -2.19372 192 192 192 255 0.198639 0.482969
0.585745 0 -0.583275 -0.43301 -1 2.19382 192 192 192 255 0.106508 0.475292
0.65123 0 -0.601311 2.19369 -2 0.43287 192 192 192 255 0.106508 0.475292
0.585745 0.167022 -0.583275 -1.66262 2 1.49533 192 192 192 255 0.106508 0.475292
0.65123 0.167022 -0.601311 1.49515 1 1.66259 192 192 192 255 0.106508 0.475292
0.542753 0.167022 -0.739319 -1.49515 1 -1.66259 192 192 192 255 0.106508 0.475292
0.608238 0.167022 -0.757355 1.66262 2 -1.49533 192 192 192 255 0.106508 0.475292
0.542753 0 -0.739319 -2.19369 -2 -0.432871 192 192 192 255 0.106508 0.475292
0.608238 0 -0.757355 0.433011 -1 -2.19382 192 192 192 255 0.106508 0.475292
-0.649998 0.108345 0.698143 -1.75795 -1 1.38191 192 192 192 255 0.198639 0.482969
-0.54867 0.108345 0.745964 1.38191 -2 1.75791 192 192 192 255 0.198639 0.482969
-0.649998 0.297477 0.698143 -2.23551 2 0.0507804 192 192 192 255 0.198639 0.482969
-0.54867 0.297477 0.745964 0.0507553 1 2.23548 192 192 192 255 0.198639 0.482969
-0.602184 0.297477 0.596825 -0.0507553 1 -2.23548 192 192 192 255 0.198639 0.482969
-0.500856 0.297477 0.644646 2.23551 2 -0.0507804 192 192 192 255 0.198639 0.482969
-0.602184 0.108345 0.596825 -1.38191 -2 -1.75791 192 192 192 255 0.198639 0.482969
-0.500856 0.108345 0.644646 1.75795 -1 -1.38191 192 192 192 255 0.198639 0.482969
-0.66328 0 0.777977 -1.7576 -1 1.38208 192 192 192 255 0.106508 0.475292
-0.601851 0 0.806953 1.38207 -2 1.75803 192 192 192 255 0.106508 0.475292
-0.66328 0.167022 0.777977 -2.23533 2 0.0508741 192 192 192 255 0.106508 0.475292
-0.601851 0.167022 0.806953 0.0511081 1 2.23566 192 192 192 255 0.106508 0.475292
-0.594213 0.167022 0.631622 -0.0509248 1 -2.23555 192 192 192 255 0.106508 0.475292
-0.532784 0.167022 0.660606 2.23541 2 -0.0507905 192 192 192 255 0.106508 0.475292
-0.594213 0 0.631622 -1.382 -2 -1.75794 192 192 192 255 0.106508 0.475292
-0.532784 0 0.660606 1.75778 -1 -1.38197 192 192 192 255 0.106508 0.475292
0.552034 0.108345 0.748199 0.0676982 -1 2.23513 192 192 192 255 0.198639 0.482969
0.650684 0.108345 0.695084 2.23499 -2 -0.067749 192 192 192 255 0.198639 0.482969
0.552034 0.297477 0.748199 -1.28682 2 1.82879 192 192 192 255 0.198639 0.482969
0.650684 0.297477 0.695084 1.8286 1 1.28686 192 192 192 255 0.198639 0.482969
0.498917 0.297477 0.649567 -1.82871 1 -1.28676 192 192 192 255 0.198639 0.482969
0.597567 0.297477 0.596443 1.28679 2 -1.82869 192 192 192 255 0.198639 0.482969
0.498917 0.108345 0.649567 -2.23502 -2 0.0678499 192 192 192 255 0.198639 0.482969
0.597567 0.108345 0.596443 -0.0678043 -1 -2.23502 192 192 192 255 0.198639 0.482969
0.608381 0 0.806305 0.0675968 -1 2.23517 192 192 192 255 0.106508 0.475292
0.668186 0 0.774109 2.235 -2 -0.0676246 192 192 192 255 0.106508 0.475292
0.608381 0.167022 0.806305 -1.28688 2 1.82879 192 192 192 255 0.106508 0.475292
0.668186 0.167022 0.774109 1.82853 1 1.28696 192 192 192 255 0.106508 0.475292
0.531645 0.167022 0.663811 -1.82831 1 -1.28698 192 192 192 255 0.106508 0.475292
0.591465 0.167022 0.631615 1.28704 2 -1.8287 192 192 192 255 0.106508 0.475292
0.531645 0 0.663811 -2.23483 -2 0.0677191 192 192 192 255 0.106508 0.475292
0.591465 0 0.631615 -0.0673757 -1 -2.23519 192 192 192 255 0.106508 0.475292
0.769627 0.290996 0.672073 4 -3 0 192 192 192 255 0.354008 0.064107
0.769627 0.290996 -0.806953 1 -1 -3 192 192 192 255 0.354008 0.064107
0.769627 3.89594 -0.806953 2 2 -3 192 192 192 255 0.354008 0.064107
0.769627 3.89594 0.672073 2 3 0 192 192 192 255 0.354008 0.064107
-0.769627 0.290996 -0.806953 -2 -2 -3 192 192 192 255 0.354008 0.064107
-0.769627 0.290996 0.672073 -2 -3 0 192 192 192 255 0.354008 0.064107
-0.769627 3.89594 0.672073 -4 3 0 192 192 192 255 0.354008 0.064107
-0.769627 3.89594 -0.806953 -1 1 -3 192 192 192 255 0.354008 0.064107
0.56081 3.75153 0.672073 -0.656177 -1.63744 4.90299 192 192 192 255 0.264581 0.064738
-0.074177 3.75153 0.672073 0.656187 -0.818721 4.32879 192 192 192 255 0.264581 0.064738
0.009409 3.70055 0.599388 1.31237 -1.63744 3.65758 192 192 192 255 0.264581 0.064738
0.477222 3.70055 0.599388 -1.31235 -0.818721 4.08341 192 192 192 255 0.264581 0.064738
0.56081 3.26089 0.672073 -1.31235 1.63744 5.6576 192 192 192 255 0.23488 0.063323
0.56081 3.75153 0.672073 -0.656177 -1.63744 4.90299 192 192 192 255 0.23488 0.063323
0.477222 3.70055 0.599388 -1.31235 -0.818721 4.08341 192 192 192 255 0.23488 0.063323
0.477222 3.31187 0.599388 -0.656177 0.818721 2.3288 192 192 192 255 0.23488 0.063323
-0.074177 3.26089 0.672073 1.31237 0.818721 5.08339 192 192 192 255 0.23488 0.063323
0.009409 3.31187 0.599388 0.656187 1.63744 3.90298 192 192 192 255 0.23488 0.063323
0.009409 3.70055 0.599388 1.31237 -1.63744 3.65758 192 192 192 255 0.23488 0.063323
-0.074177 3.75153 0.672073 0.656187 -0.818721 4.32879 192 192 192 255 0.23488 0.063323
0.56081 3.26089 0.672073 -1.31235 1.63744 5.6576 192 192 192 255 0.264581 0.064738
0.477222 3.31187 0.599388 -0.656177 0.818721 2.3288 192 192 192 255 0.264581 0.064738
0.009409 3.31187 0.599388 0.656187 1.63744 3.90298 192 192 192 255 0.264581 0.064738
-0.074177 3.26089 0.672073 1.31237 0.818721 5.08339 192 192 192 255 0.264581 0.064738
-0.610676 1.31684 0.672073 1 2 3 192 192 192 255 0.586231 0.592805
0.610672 1.31684 0.672073 -2 1 3 192 192 192 255 0.586231 0.592805
0.610672 1.31684 0.591858 -1 2 1 192 192 192 255 0.586231 0.592805
-0.610676 1.31684 0.591858 2 1 2 192 192 192 255 0.586231 0.592805
0.610672 2.59589 0.672073 -1 -2 5 192 192 192 255 0.586231 0.592805
0.610672 2.59589 0.591858 -2 -1 2 192 192 192 255 0.586231 0.592805
-0.610676 2.59589 0.672073 2 -1 4 192 192 192 255 0.586231 0.592805
-0.610676 2.59589 0.591858 1 -2 1 192 192 192 255 0.586231 0.592805
0.674772 3.80109 -0.806953 0 0 -4 192 192 192 255 0.383642 0.064738
-0.674776 3.80109 -0.806953 0 0 -5 192 192 192 255 0.383642 0.064738
-0.769627 3.89594 -0.806953 -1 1 -3 192 192 192 255 0.383642 0.064738
0.769627 3.89594 -0.806953 2 2 -3 192 192 192 255 0.383642 0.064738
-0.674776 0.385846 -0.806953 0 0 -4 192 192 192 255 0.383642 0.064738
0.674772 0.385846 -0.806953 0 0 -5 192 192 192 255 0.383642 0.064738
0.769627 0.290996 -0.806953 1 -1 -3 192 192 192 255 0.383642 0.064738
-0.769627 0.290996 -0.806953 -2 -2 -3 192 192 192 255 0.383642 0.064738
-0.674776 3.80109 0.672073 1 -2 5 192 192 192 255 0.354008 0.064107
0.674772 3.80109 0.672073 -2 -1 4 192 192 192 255 0.354008 0.064107
0.674772 3.80109 0.794769 -1 -2 3 192 192 192 255 0.354008 0.064107
-0.674776 3.80109 0.794769 2 -1 3 192 192 192 255 0.354008 0.064107
-0.769627 3.89594 0.794769 -1 2 3 192 192 192 255 0.45489 0.062216
0.769627 3.89594 0.794769 2 1 3 192 192 192 255 0.45489 0.062216
0.674772 0.385846 0.672073 -1 2 3 192 192 192 255 0.354008 0.064107
-0.674776 0.385846 0.672073 2 1 3 192 192 192 255 0.354008 0.064107
-0.674776 0.385846 0.794769 1 2 3 192 192 192 255 0.354008 0.064107
0.674772 0.385846 0.794769 -2 1 3 192 192 192 255 0.354008 0.064107
0.769627 0.290996 0.794769 1 -2 3 192 192 192 255 0.321852 0.065368
-0.769627 0.290996 0.794769 -2 -1 3 192 192 192 255 0.321852 0.065368
0.769627 3.89594 0.794769 2 1 3 192 192 192 255 0.354008 0.064107
0.769627 0.290996 0.794769 1 -2 3 192 192 192 255 0.354008 0.064107
-0.769627 0.290996 0.794769 -2 -1 3 192 192 192 255 0.354008 0.064107
-0.769627 3.89594 0.794769 -1 2 3 192 192 192 255 0.354008 0.064107
0.483702 2.74059 0.70369 0 0 4 192 192 192 255 0.13845 0.473119
0.304962 2.74059 0.70369 0 0 5 192 192 192 255 0.13845 0.473119
0.483702 2.79781 0.70369 0 0 5 192 192 192 255 0.13845 0.473119
0.304962 2.79781 0.70369 0 0 4 192 192 192 255 0.13845 0.473119
0.483702 2.92397 0.70369 0 0 4 192 192 192 255 0.13845 0.473119
0.304962 2.92397 0.70369 0 0 5 192 192 192 255 0.13845 0.473119
0.483702 2.9812 0.70369 0 0 5 192 192 192 255 0.13845 0.473119
0.304962 2.9812 0.70369 0 0 4 192 192 192 255 0.13845 0.473119
0.483702 3.09552 0.70369 0 0 4 192 192 192 255 0.13845 0.473119
0.304962 3.09552 0.70369 0 0 5 192 192 192 255 0.13845 0.473119
0.483702 3.15274 0.70369 0 0 5 192 192 192 255 0.13845 0.473119
0.304962 3.15274 0.70369 0 0 4 192 192 192 255 0.13845 0.473119
0.128265 3.09552 0.70369 0 0 4 192 192 192 255 0.13845 0.473119
-0.050474 3.09552 0.70369 0 0 5 192 192 192 255 0.13845 0.473119
0.128265 3.15274 0.70369 0 0 5 192 192 192 255 0.13845 0.473119
-0.050474 3.15274 0.70369 0 0 4 192 192 192 255 0.13845 0.473119
0.128265 2.92397 0.70369 0 0 4 192 192 192 255 0.13845 0.473119
-0.050474 2.92397 0.70369 0 0 5 192 192 192 255 0.13845 0.473119
0.128265 2.9812 0.70369 0 0 5 192 192 192 255 0.13845 0.473119
-0.050474 2.9812 0.70369 0 0 4 192 192 192 255 0.13845 0.473119
0.128265 2.74059 0.70369 0 0 4 192 192 192 255 0.13845 0.473119
-0.050474 2.74059 0.70369 0 0 5 192 192 192 255 0.13845 0.473119
0.128265 2.79781 0.70369 0 0 5 192 192 192 255 0.13845 0.473119
-0.050474 2.79781 0.70369 0 0 4 192 192 192 255 0.13845 0.473119
-0.569132 0.108345 -0.629921 0.518258 -2 2.17502 192 192 192 255 0.170023 0.478084
-0.483271 0.108345 -0.701889 2.17515 -1 -0.518372 192 192 192 255 0.170023 0.478084
-0.483271 0.297477 -0.701889 2.05115 2 0.890394 192 192 192 255 0.170023 0.478084
-0.569132 0.297477 -0.629921 -0.890622 1 2.05087 192 192 192 255 0.170023 0.478084
-0.555239 0.108345 -0.78775 -0.518047 -2 -2.17543 192 192 192 255 0.170023 0.478084
-0.6411 0.108345 -0.715813 -2.17522 -1 0.517964 192 192 192 255 0.170023 0.478084
-0.6411 0.297477 -0.715813 -2.05093 2 -0.890802 192 192 192 255 0.170023 0.478084
-0.555239 0.297477 -0.78775 0.890557 1 -2.05128 192 192 192 255 0.170023 0.478084
0.651815 0.108345 -0.682236 2.19375 -2 0.432957 192 192 192 255 0.170023 0.478084
0.622063 0.108345 -0.790245 0.432847 -1 -2.19372 192 192 192 255 0.170023 0.478084
0.622063 0.297477 -0.790245 1.66256 2 -1.49521 192 192 192 255 0.170023 0.478084
0.651815 0.297477 -0.682236 1.49523 1 1.66262 192 192 192 255 0.170023 0.478084
0.514042 0.108345 -0.760483 -2.19379 -2 -0.432894 192 192 192 255 0.170023 0.478084
0.543795 0.108345 -0.652481 -0.432951 -1 2.19378 192 192 192 255 0.170023 0.478084
0.543795 0.297477 -0.652481 -1.6626 2 1.49528 192 192 192 255 0.170023 0.478084
0.514042 0.297477 -0.760483 -1.49533 1 -1.66256 192 192 192 255 0.170023 0.478084
-0.54867 0.108345 0.745964 1.38191 -2 1.75791 192 192 192 255 0.170023 0.478084
-0.500856 0.108345 0.644646 1.75795 -1 -1.38191 192 192 192 255 0.170023 0.478084
-0.500856 0.297477 0.644646 2.23551 2 -0.0507804 192 192 192 255 0.170023 0.478084
-0.54867 0.297477 0.745964 0.0507553 1 2.23548 192 192 192 255 0.170023 0.478084
-0.602184 0.108345 0.596825 -1.38191 -2 -1.75791 192 192 192 255 0.170023 0.478084
-0.649998 0.108345 0.698143 -1.75795 -1 1.38191 192 192 192 255 0.170023 0.478084
-0.649998 0.297477 0.698143 -2.23551 2 0.0507804 192 192 192 255 0.170023 0.478084
-0.602184 0.297477 0.596825 -0.0507553 1 -2.23548 192 192 192 255 0.170023 0.478084
0.650684 0.108345 0.695084 2.23499 -2 -0.067749 192 192 192 255 0.170023 0.478084
0.597567 0.108345 0.596443 -0.0678043 -1 -2.23502 192 192 192 255 0.170023 0.478084
0.597567 0.297477 0.596443 1.28679 2 -1.82869 192 192 192 255 0.170023 0.478084
0.650684 0.297477 0.695084 1.8286 1 1.28686 192 192 192 255 0.170023 0.478084
0.498917 0.108345 0.649567 -2.23502 -2 0.0678499 192 192 192 255 0.170023 0.478084
0.552034 0.108345 0.748199 0.0676982 -1 2.23513 192 192 192 255 0.170023 0.478084
0.552034 0.297477 0.748199 -1.28682 2 1.82879 192 192 192 255 0.170023 0.478084
0.498917 0.297477 0.649567 -1.82871 1 -1.28676 192 192 192 255 0.170023 0.478084
3 20 21 22 
3 20 22 23 
3 24 25 26 
3 24 26 27 
3 4 5 7 
3 4 7 6 
3 28 29 30 
3 28 30 31 
3 176 177 178 
3 176 178 179 
3 180 181 182 
3 180 182 183 
3 0 1 9 
3 0 9 8 
3 1 3 10 
3 1 10 9 
3 17 16 18 
3 17 18 19 
3 2 0 8 
3 2 8 11 
3 3 2 12 
3 3 12 13 
3 2 11 14 
3 2 14 12 
3 11 10 15 
3 11 15 14 
3 10 3 13 
3 10 13 15 
3 184 185 186 
3 184 186 187 
3 188 189 190 
3 188 190 191 
3 192 193 194 
3 192 194 195 
3 196 197 198 
3 196 198 199 
3 200 201 202 
3 200 202 203 
3 201 204 205 
3 201 205 202 
3 204 206 207 
3 204 207 205 
3 206 200 203 
3 206 203 207 
3 32 33 34 
3 32 34 35 
3 208 209 210 
3 208 210 211 
3 212 213 214 
3 212 214 215 
3 37 36 38 
3 37 38 39 
3 213 208 211 
3 213 211 214 
3 33 37 39 
3 33 39 34 
3 36 32 35 
3 36 35 38 
3 209 212 215 
3 209 215 210 
3 216 217 218 
3 216 218 219 
3 25 24 220 
3 25 220 221 
3 222 223 224 
3 222 224 225 
3 31 30 226 
3 31 226 227 
3 217 222 225 
3 217 225 218 
3 176 179 228 
3 176 228 229 
3 223 216 219 
3 223 219 224 
3 182 181 230 
3 182 230 231 
3 48 49 50 
3 48 50 51 
3 42 43 45 
3 42 45 44 
3 46 47 41 
3 46 41 40 
3 41 47 45 
3 41 45 43 
3 46 40 42 
3 46 42 44 
3 40 41 232 
3 40 232 233 
3 41 43 234 
3 41 234 232 
3 43 42 235 
3 43 235 234 
3 42 40 233 
3 42 233 235 
3 60 61 62 
3 60 62 63 
3 54 55 57 
3 54 57 56 
3 58 59 53 
3 58 53 52 
3 53 59 57 
3 53 57 55 
3 58 52 54 
3 58 54 56 
3 52 53 236 
3 52 236 237 
3 53 55 238 
3 53 238 236 
3 55 54 239 
3 55 239 238 
3 54 52 237 
3 54 237 239 
3 72 73 74 
3 72 74 75 
3 66 67 69 
3 66 69 68 
3 70 71 65 
3 70 65 64 
3 65 71 69 
3 65 69 67 
3 70 64 66 
3 70 66 68 
3 64 65 240 
3 64 240 241 
3 65 67 242 
3 65 242 240 
3 67 66 243 
3 67 243 242 
3 66 64 241 
3 66 241 243 
3 84 85 86 
3 84 86 87 
3 78 79 81 
3 78 81 80 
3 82 83 77 
3 82 77 76 
3 77 83 81 
3 77 81 79 
3 82 76 78 
3 82 78 80 
3 76 77 244 
3 76 244 245 
3 77 79 246 
3 77 246 244 
3 79 78 247 
3 79 247 246 
3 78 76 245 
3 78 245 247 
3 96 97 98 
3 96 98 99 
3 90 91 93 
3 90 93 92 
3 94 95 89 
3 94 89 88 
3 89 95 93 
3 89 93 91 
3 94 88 90 
3 94 90 92 
3 88 89 248 
3 88 248 249 
3 89 91 250 
3 89 250 248 
3 91 90 251 
3 91 251 250 
3 90 88 249 
3 90 249 251 
3 108 109 110 
3 108 110 111 
3 102 103 105 
3 102 105 104 
3 106 107 101 
3 106 101 100 
3 101 107 105 
3 101 105 103 
3 106 100 102 
3 106 102 104 
3 100 101 252 
3 100 252 253 
3 101 103 254 
3 101 254 252 
3 103 102 255 
3 103 255 254 
3 102 100 253 
3 102 253 255 
3 112 113 115 
3 112 115 114 
3 114 115 117 
3 114 117 116 
3 116 117 119 
3 116 119 118 
3 118 119 113 
3 118 113 112 
3 256 257 258 
3 256 258 259 
3 260 261 262 
3 260 262 263 
3 120 121 123 
3 120 123 122 
3 122 123 125 
3 122 125 124 
3 124 125 127 
3 124 127 126 
3 126 127 121 
3 126 121 120 
3 121 127 125 
3 121 125 123 
3 126 120 122 
3 126 122 124 
3 128 129 131 
3 128 131 130 
3 130 131 133 
3 130 133 132 
3 132 133 135 
3 132 135 134 
3 134 135 129 
3 134 129 128 
3 264 265 266 
3 264 266 267 
3 268 269 270 
3 268 270 271 
3 136 137 139 
3 136 139 138 
3 138 139 141 
3 138 141 140 
3 140 141 143 
3 140 143 142 
3 142 143 137 
3 142 137 136 
3 137 143 141 
3 137 141 139 
3 142 136 138 
3 142 138 140 
3 144 145 147 
3 144 147 146 
3 146 147 149 
3 146 149 148 
3 148 149 151 
3 148 151 150 
3 150 151 145 
3 150 145 144 
3 272 273 274 
3 272 274 275 
3 276 277 278 
3 276 278 279 
3 152 153 155 
3 152 155 154 
3 154 155 157 
3 154 157 156 
3 156 157 159 
3 156 159 158 
3 158 159 153 
3 158 153 152 
3 153 159 157 
3 153 157 155 
3 158 152 154 
3 158 154 156 
3 160 161 163 
3 160 163 162 
3 162 163 165 
3 162 165 164 
3 164 165 167 
3 164 167 166 
3 166 167 161 
3 166 161 160 
3 280 281 282 
3 280 282 283 
3 284 285 286 
3 284 286 287 
3 168 169 171 
3 168 171 170 
3 170 171 173 
3 170 173 172 
3 172 173 175 
3 172 175 174 
3 174 175 169 
3 174 169 168 
3 169 175 173 
3 169 173 171 
3 174 168 170 
3 174 170 172 
