ply
format ascii 1.0
comment VCGLIB generated
comment TextureFile SpaceInteriors_Texture.png
element vertex 40
property float x
property float y
property float z
property float nx
property float ny
property float nz
property uchar red
property uchar green
property uchar blue
property uchar alpha
property float texture_u
property float texture_v
element face 28
property list uchar int vertex_indices
end_header
-0.538444 0 0.495437 -1 -1 4 192 192 192 255 0.079873 0.266516
0.538444 0 0.495437 2 -2 5 192 192 192 255 0.079873 0.266516
-0.538444 1.07689 0.495437 -2 2 3 192 192 192 255 0.197968 0.268637
0.538444 1.07689 0.495437 1 1 3 192 192 192 255 0.197968 0.268637
-0.538444 1.07689 -0.495437 -1 1 -2 192 192 192 255 0.197968 0.268637
0.538444 1.07689 -0.495437 2 2 -1 192 192 192 255 0.197968 0.268637
-0.538444 0 -0.495437 -2 -2 -1 192 192 192 255 0.14281 0.265809
0.538444 0 -0.495437 1 -1 -2 192 192 192 255 0.14281 0.265809
-0.425505 0.251908 0.495437 0 0 7 192 192 192 255 0.020451 0.514143
0.425505 0.251908 0.495437 0 0 5 192 192 192 255 0.020451 0.514143
0.425505 0.974647 0.495437 0 0 5 192 192 192 255 0.020451 0.514143
-0.425505 0.974647 0.495437 0 0 4 192 192 192 255 0.020451 0.514143
0.288703 0.075208 0.495437 0 0 5 192 192 192 255 0.95038 0.379541
0.402747 0.075208 0.495437 0 0 4 192 192 192 255 0.95038 0.379541
0.402667 0.1767 0.495437 0 0 5 192 192 192 255 0.95038 0.379541
0.288675 0.1767 0.495437 0 0 4 192 192 192 255 0.95038 0.379541
-0.538444 1.07689 -0.495437 -1 1 -2 192 192 192 255 0.14281 0.265809
0.538444 1.07689 -0.495437 2 2 -1 192 192 192 255 0.14281 0.265809
-0.538444 0 -0.495437 -2 -2 -1 192 192 192 255 0.079873 0.266516
0.538444 0 -0.495437 1 -1 -2 192 192 192 255 0.079873 0.266516
0.538444 0 0.495437 2 -2 5 192 192 192 255 0.108159 0.265102
0.538444 0 -0.495437 1 -1 -2 192 192 192 255 0.108159 0.265102
0.538444 1.07689 -0.495437 2 2 -1 192 192 192 255 0.108159 0.265102
0.538444 1.07689 0.495437 1 1 3 192 192 192 255 0.108159 0.265102
-0.538444 0 -0.495437 -2 -2 -1 192 192 192 255 0.108159 0.265102
-0.538444 0 0.495437 -1 -1 4 192 192 192 255 0.108159 0.265102
-0.538444 1.07689 0.495437 -2 2 3 192 192 192 255 0.108159 0.265102
-0.538444 1.07689 -0.495437 -1 1 -2 192 192 192 255 0.108159 0.265102
0.538444 0 0.495437 2 -2 5 192 192 192 255 0.14281 0.265809
0.538444 1.07689 0.495437 1 1 3 192 192 192 255 0.14281 0.265809
0.425505 0.974647 0.495437 0 0 5 192 192 192 255 0.14281 0.265809
0.425505 0.251908 0.495437 0 0 5 192 192 192 255 0.14281 0.265809
-0.538444 1.07689 0.495437 -2 2 3 192 192 192 255 0.14281 0.265809
-0.425505 0.974647 0.495437 0 0 4 192 192 192 255 0.14281 0.265809
-0.538444 0 0.495437 -1 -1 4 192 192 192 255 0.14281 0.265809
-0.425505 0.251908 0.495437 0 0 7 192 192 192 255 0.14281 0.265809
0.402747 0.075208 0.495437 0 0 4 192 192 192 255 0.14281 0.265809
0.288703 0.075208 0.495437 0 0 5 192 192 192 255 0.14281 0.265809
0.402667 0.1767 0.495437 0 0 5 192 192 192 255 0.14281 0.265809
0.288675 0.1767 0.495437 0 0 4 192 192 192 255 0.14281 0.265809
3 8 9 10 
3 8 10 11 
3 2 3 5 
3 2 5 4 
3 16 17 7 
3 16 7 6 
3 18 19 1 
3 18 1 0 
3 20 21 22 
3 20 22 23 
3 24 25 26 
3 24 26 27 
3 12 13 14 
3 12 14 15 
3 28 29 30 
3 28 30 31 
3 29 32 33 
3 29 33 30 
3 32 34 35 
3 32 35 33 
3 34 28 36 
3 34 36 37 
3 28 31 38 
3 28 38 36 
3 31 35 39 
3 31 39 38 
3 35 34 37 
3 35 37 39 
