ply
format ascii 1.0
comment VCGLIB generated
comment TextureFile SpaceInteriors_Texture.png
element vertex 512
property float x
property float y
property float z
property float nx
property float ny
property float nz
property uchar red
property uchar green
property uchar blue
property uchar alpha
property float texture_u
property float texture_v
element face 344
property list uchar int vertex_indices
end_header
-2.78715 1.54634 0.943855 -2.21867 -1 0.278241 192 192 192 255 0.301625 0.063677
-2.717 1.54634 1.04899 0.833203 -2.00005 3.05057 192 192 192 255 0.301625 0.063677
-2.78715 2.54264 0.943855 -1.94187 2 -1.10863 192 192 192 255 0.301625 0.063677
-2.717 2.54264 1.04899 0.00133455 1.00002 3.60564 192 192 192 255 0.301625 0.063677
-1.8525 2.54264 0.320229 1.10865 1 -1.94188 192 192 192 255 0.390508 0.063072
-1.78235 2.54264 0.425369 2.4969 2.00005 1.94048 192 192 192 255 0.390508 0.063072
-1.8525 1.54634 0.320229 -0.278211 -2 -2.21869 192 192 192 255 0.301625 0.063677
-1.78235 1.54634 0.425369 3.32874 -1.00002 1.38547 192 192 192 255 0.301625 0.063677
-1.83933 1.61247 0.46339 2.22009 -4.90115e-005 3.32734 192 192 192 255 0.021149 0.51104
-2.66001 1.61247 1.01098 2.77504 -2.45058e-005 4.15923 192 192 192 255 0.021149 0.51104
-1.83933 2.47651 0.46339 2.77512 2.48795e-005 4.15917 192 192 192 255 0.021149 0.511041
-2.66001 2.47651 1.01098 2.22005 4.9759e-005 3.32737 192 192 192 255 0.021149 0.511041
-2.58812 1.22058 0.492928 -2.21869 3 0.278219 192 192 192 255 0.142788 0.066468
-2.44124 1.22058 0.713058 0.278215 3 2.2187 192 192 192 255 0.142788 0.066468
-2.58812 2.21302 0.492928 -1.94188 2 -1.10864 192 192 192 255 0.142788 0.066468
-2.44124 2.21302 0.713058 -1.10864 1 1.94189 192 192 192 255 0.142788 0.066468
-2.36442 2.21302 0.34367 1.10865 1 -1.94188 192 192 192 255 0.169393 0.063444
-2.21755 2.21302 0.563801 1.94188 2 1.10865 192 192 192 255 0.169393 0.063444
-2.36442 1.22058 0.34367 -0.278214 3 -2.21869 192 192 192 255 0.142788 0.066467
-2.21755 1.22058 0.563801 2.2187 3 -0.27821 192 192 192 255 0.142788 0.066467
-2.31417 1.22058 0.10202 1.10864 3 -1.94188 192 192 192 255 0.199625 0.06284
-1.97512 1.22058 0.610165 1.94189 3 1.10864 192 192 192 255 0.199625 0.06284
-2.4915 1.22058 0.954712 -1.10864 3 1.94188 192 192 192 255 0.199625 0.06284
-2.83055 1.22058 0.446564 -1.94188 3 -1.10865 192 192 192 255 0.199625 0.06284
-2.31417 1.12292 0.10202 -0.278215 -2 -2.21869 192 192 192 255 0.169393 0.063444
-1.97512 1.12292 0.610165 2.21869 -1 -0.278218 192 192 192 255 0.169393 0.063444
-2.4915 1.12292 0.954712 0.27822 -2 2.21869 192 192 192 255 0.169393 0.063444
-2.83055 1.12292 0.446564 -2.21869 -1 0.278212 192 192 192 255 0.169393 0.063444
-0.552544 1.40715 0.036945 -2 -1 -1 192 192 192 255 0.301625 0.063677
-0.552544 1.40715 0.163342 -1 -2 3 192 192 192 255 0.301625 0.063677
-0.552544 2.40346 0.036945 -1 2 -2 192 192 192 255 0.301625 0.063677
-0.552544 2.40346 0.163342 -2 1 3 192 192 192 255 0.301625 0.063677
0.571056 2.40346 0.036945 2 1 -1 192 192 192 255 0.390508 0.063072
0.571056 2.40346 0.163342 1 2 3 192 192 192 255 0.390508 0.063072
0.571056 1.40715 0.036945 1 -2 -2 192 192 192 255 0.301625 0.063677
0.571056 1.40715 0.163342 2 -1 3 192 192 192 255 0.301625 0.063677
0.502554 1.47328 0.163342 0 0 4 192 192 192 255 0.021149 0.511041
-0.484039 1.47328 0.163342 0 0 5 192 192 192 255 0.021149 0.511041
0.502554 2.33733 0.163342 0 0 5 192 192 192 255 0.021149 0.511041
-0.484039 2.33733 0.163342 0 0 4 192 192 192 255 0.021149 0.511041
-0.133949 1.22058 -0.227684 -2 3 -1 192 192 192 255 0.142788 0.066468
-0.133949 1.22058 0.036945 -1 3 2 192 192 192 255 0.142788 0.066468
-0.133949 2.07383 -0.227684 -1 2 -2 192 192 192 255 0.142788 0.066468
-0.133949 2.07383 0.036945 -2 1 1 192 192 192 255 0.142788 0.066468
0.134972 2.07383 -0.227684 2 1 -1 192 192 192 255 0.169393 0.063444
0.134972 2.07383 0.036945 1 2 2 192 192 192 255 0.169393 0.063444
0.134972 1.22058 -0.227684 1 3 -2 192 192 192 255 0.142788 0.066467
0.134972 1.22058 0.036945 2 3 1 192 192 192 255 0.142788 0.066467
0.310898 1.22058 -0.400806 2 3 -1 192 192 192 255 0.199625 0.06284
0.310898 1.22058 0.210068 1 3 2 192 192 192 255 0.199625 0.06284
-0.309875 1.22058 0.210068 -2 3 1 192 192 192 255 0.199625 0.06284
-0.309875 1.22058 -0.400806 -1 3 -2 192 192 192 255 0.199625 0.06284
0.310898 1.12292 -0.400806 1 -2 -2 192 192 192 255 0.169393 0.063444
0.310898 1.12292 0.210068 2 -1 1 192 192 192 255 0.169393 0.063444
-0.309875 1.12292 0.210068 -1 -2 2 192 192 192 255 0.169393 0.063444
-0.309875 1.12292 -0.400806 -2 -1 -1 192 192 192 255 0.169393 0.063444
0.679268 1.48788 0.039303 -1.71203 -1 -1.43836 192 192 192 255 0.301625 0.063677
0.649826 1.48788 0.16222 -1.67134 -1.99996 2.68453 192 192 192 255 0.301625 0.063677
0.679268 2.48418 0.039303 -0.506581 2 -2.17791 192 192 192 255 0.301625 0.063677
0.649826 2.48418 0.16222 -2.64382 0.999978 2.45159 192 192 192 255 0.301625 0.063677
1.77196 2.48418 0.301052 2.17793 1 -0.506595 192 192 192 255 0.390508 0.063072
1.74251 2.48418 0.423969 0.273597 1.99996 3.1504 192 192 192 255 0.390508 0.063072
1.77196 1.48788 0.301052 1.4384 -2 -1.71203 192 192 192 255 0.301625 0.063677
1.74251 1.48788 0.423969 1.24606 -0.999978 3.38334 192 192 192 255 0.301625 0.063677
1.6759 1.55401 0.408009 -0.931847 4.47677e-005 3.88994 192 192 192 255 0.021149 0.51104
0.716444 1.55401 0.178177 -1.16475 2.23839e-005 4.86244 192 192 192 255 0.021149 0.51104
1.6759 2.41805 0.408009 -1.16483 -2.23171e-005 4.86242 192 192 192 255 0.021149 0.511041
0.716444 2.41805 0.178177 -0.931805 -4.46342e-005 3.88995 192 192 192 255 0.021149 0.511041
1.16693 1.22058 -0.115997 -1.71202 3 -1.4384 192 192 192 255 0.142788 0.066468
1.10528 1.22058 0.141354 -1.43839 3 1.71202 192 192 192 255 0.142788 0.066468
1.16693 2.15455 -0.115997 -0.506586 2 -2.17793 192 192 192 255 0.142788 0.066468
1.10528 2.15455 0.141354 -2.17793 1 0.506581 192 192 192 255 0.142788 0.066468
1.42845 2.15455 -0.053352 2.17792 1 -0.506573 192 192 192 255 0.169393 0.063444
1.3668 2.15455 0.203999 0.506583 2 2.17793 192 192 192 255 0.169393 0.063444
1.42845 1.22058 -0.053352 1.43839 3 -1.71202 192 192 192 255 0.142788 0.066467
1.3668 1.22058 0.203999 1.71202 3 1.4384 192 192 192 255 0.142788 0.066467
1.63986 1.22058 -0.180729 2.17793 3 -0.506575 192 192 192 255 0.199625 0.06284
1.49756 1.22058 0.413338 0.506577 3 2.17793 192 192 192 255 0.199625 0.06284
0.893864 1.22058 0.268726 -2.17793 3 0.506574 192 192 192 255 0.199625 0.06284
1.03617 1.22058 -0.32534 -0.50658 3 -2.17793 192 192 192 255 0.199625 0.06284
1.63986 1.12292 -0.180729 1.43839 -2 -1.71202 192 192 192 255 0.169393 0.063444
1.49756 1.12292 0.413338 1.71202 -1 1.4384 192 192 192 255 0.169393 0.063444
0.893864 1.12292 0.268726 -1.4384 -2 1.71202 192 192 192 255 0.169393 0.063444
1.03617 1.12292 -0.32534 -1.71202 -1 -1.4384 192 192 192 255 0.169393 0.063444
1.87125 1.57835 0.31189 -1.21367 -1 -1.87803 192 192 192 255 0.301625 0.063677
1.80699 1.57835 0.420723 -2.38651 -1.99999 2.07474 192 192 192 255 0.301625 0.063677
1.87125 2.57466 0.31189 0.15589 2 -2.23063 192 192 192 255 0.301625 0.063677
1.80699 2.57466 0.420723 -3.24757 0.999996 1.56627 192 192 192 255 0.301625 0.063677
2.83876 2.57466 0.883221 2.23062 1 0.155901 192 192 192 255 0.390508 0.063072
2.77449 2.57466 0.992054 -0.664372 1.99999 3.09171 192 192 192 255 0.390508 0.063072
2.83876 1.57835 0.883221 1.87803 -2 -1.21366 192 192 192 255 0.301625 0.063677
2.77449 1.57835 0.992054 0.196703 -0.999996 3.6002 192 192 192 255 0.301625 0.063677
2.7155 1.64448 0.957222 -2.03393 8.1686e-006 3.44429 192 192 192 255 0.004037 0.517872
1.86597 1.64448 0.455555 -2.54239 4.0843e-006 4.30538 192 192 192 255 0.004037 0.517872
2.7155 2.50852 0.957222 -2.5424 -4.03096e-006 4.30537 192 192 192 255 0.004037 0.517872
1.86597 2.50852 0.455555 -2.03392 -8.06192e-006 3.4443 192 192 192 255 0.004037 0.517872
2.38202 1.22058 0.306179 -1.21366 3 -1.87803 192 192 192 255 0.142788 0.066468
2.24746 1.22058 0.534046 -1.87804 3 1.21366 192 192 192 255 0.142788 0.066468
2.38202 2.24503 0.306179 0.155895 2 -2.23062 192 192 192 255 0.142788 0.066468
2.24746 2.24503 0.534046 -2.23063 1 -0.155891 192 192 192 255 0.142788 0.066468
2.61358 2.24503 0.442921 2.23063 1 0.155891 192 192 192 255 0.169393 0.063444
2.47902 2.24503 0.670788 -0.155895 2 2.23062 192 192 192 255 0.169393 0.063444
2.61358 1.22058 0.442921 1.87804 3 -1.21366 192 192 192 255 0.142788 0.066467
2.47902 1.22058 0.670788 1.21366 3 1.87803 192 192 192 255 0.142788 0.066467
2.85309 1.22058 0.383305 2.23063 3 0.155886 192 192 192 255 0.199625 0.06284
2.54247 1.22058 0.909313 -0.155887 3 2.23063 192 192 192 255 0.199625 0.06284
2.00794 1.22058 0.593662 -2.23063 3 -0.155888 192 192 192 255 0.199625 0.06284
2.31856 1.22058 0.067654 0.155889 3 -2.23063 192 192 192 255 0.199625 0.06284
2.85309 1.12292 0.383305 1.87804 -2 -1.21367 192 192 192 255 0.169393 0.063444
2.54247 1.12292 0.909313 1.21367 -1 1.87803 192 192 192 255 0.169393 0.063444
2.00794 1.12292 0.593662 -1.87803 -2 1.21367 192 192 192 255 0.169393 0.063444
2.31856 1.12292 0.067654 -1.21367 -1 -1.87803 192 192 192 255 0.169393 0.063444
-1.744 1.47635 0.348053 -2.17829 -1 -0.505077 192 192 192 255 0.301625 0.063677
-1.71447 1.47635 0.470951 -0.271452 -2.00005 3.1506 192 192 192 255 0.301625 0.063677
-1.744 2.47266 0.348053 -1.43959 2 -1.71103 192 192 192 255 0.301625 0.063677
-1.71447 2.47266 0.470951 -1.24381 1.00003 3.38424 192 192 192 255 0.301625 0.063677
-0.651499 2.47266 0.085545 1.71102 1 -1.4396 192 192 192 255 0.390508 0.063072
-0.621969 2.47266 0.208439 1.67325 2.00005 2.68333 192 192 192 255 0.390508 0.063072
-0.651499 1.47635 0.085545 0.505061 -2 -2.17829 192 192 192 255 0.301625 0.063677
-0.621969 1.47635 0.208439 2.64559 -1.00003 2.44969 192 192 192 255 0.301625 0.063677
-0.688576 1.54249 0.224445 0.934558 -5.0987e-005 3.88929 192 192 192 255 0.004036 0.517872
-1.64787 1.54249 0.454948 1.16812 -2.54935e-005 4.86164 192 192 192 255 0.004036 0.517872
-0.688576 2.40653 0.224445 1.16821 2.56938e-005 4.86161 192 192 192 255 0.004036 0.517872
-1.64787 2.40653 0.454948 0.93451 5.13875e-005 3.8893 192 192 192 255 0.004036 0.517872
-1.37017 1.22058 -0.013939 -2.17828 3 -0.505058 192 192 192 255 0.142788 0.066468
-1.30834 1.22058 0.24337 -0.505064 3 2.17828 192 192 192 255 0.142788 0.066468
-1.37017 2.01677 -0.013939 -1.43959 2 -1.71102 192 192 192 255 0.142788 0.066468
-1.30834 2.01677 0.24337 -1.71102 1 1.43959 192 192 192 255 0.142788 0.066468
-1.10869 2.01677 -0.076767 1.71102 1 -1.4396 192 192 192 255 0.169393 0.063444
-1.04686 2.01677 0.180542 1.43959 2 1.71101 192 192 192 255 0.169393 0.063444
-1.10869 1.22058 -0.076767 0.505061 3 -2.17829 192 192 192 255 0.142788 0.066467
-1.04686 1.22058 0.180542 2.17828 3 0.505052 192 192 192 255 0.142788 0.066467
-0.978081 1.22058 -0.286198 1.71101 3 -1.43959 192 192 192 255 0.199625 0.06284
-0.83536 1.22058 0.30777 1.4396 3 1.71101 192 192 192 255 0.199625 0.06284
-1.43895 1.22058 0.452805 -1.71101 3 1.4396 192 192 192 255 0.199625 0.06284
-1.58167 1.22058 -0.141163 -1.4396 3 -1.71101 192 192 192 255 0.199625 0.06284
-0.978081 1.12292 -0.286198 0.505052 -2 -2.17828 192 192 192 255 0.169393 0.063444
-0.83536 1.12292 0.30777 2.17829 -1 0.505056 192 192 192 255 0.169393 0.063444
-1.43895 1.12292 0.452805 -0.505051 -2 2.17828 192 192 192 255 0.169393 0.063444
-1.58167 1.12292 -0.141163 -2.17828 -1 -0.505053 192 192 192 255 0.169393 0.063444
-3.66263 2.70187 -1.45491 -2 3.47382 -3 192 192 192 255 0.295097 0.329239
3.66263 2.70187 -1.45491 1 2.47382 -3 192 192 192 255 0.295097 0.329239
-2.79798 2.70187 0.249607 1 3.03481 3.91971 192 192 192 255 0.295097 0.329239
-3.66263 2.70187 0.249607 -1 1.75431 0.959855 192 192 192 255 0.295097 0.329239
2.79798 2.70187 0.249607 -2 4.03481 2.91971 192 192 192 255 0.234632 0.329239
3.66263 2.70187 0.249607 2 1.75431 0.959855 192 192 192 255 0.295097 0.329239
-2.79798 0 0.083023 1 -2 2 192 192 192 255 0.172958 0.334077
-3.66263 0 -1.45491 -2 -4 -3 192 192 192 255 0.172958 0.334077
3.66263 0 -1.45491 2 -2 -3 192 192 192 255 0.172958 0.334077
2.79798 0 0.083023 -2 -4 1 192 192 192 255 0.172958 0.334077
-2.79798 0 0.706562 2 -2 1 192 192 192 255 0.172958 0.334077
-3.66263 0 0.706562 -1 -1 2 192 192 192 255 0.172958 0.334077
3.66263 0 0.706562 1 -2 1 192 192 192 255 0.172958 0.334077
2.79798 0 0.706562 -1 -1 2 192 192 192 255 0.172958 0.334077
-2.79798 2.55029 0.249607 4.99978 -0.999997 1.00249 192 192 192 255 0.201981 0.329239
2.79798 2.54782 0.249607 -3.00044 -1.99999 2.00498 192 192 192 255 0.17719 0.331658
-2.79798 1.04368 -0.411057 2 0.999957 0.990741 192 192 192 255 0.176586 0.330449
-2.79798 2.54741 -0.411057 0.999558 -1.99999 2.00498 192 192 192 255 0.176586 0.330449
2.79798 1.04368 -0.411057 -1 1.99991 1.98148 192 192 192 255 0.176586 0.330449
2.79798 2.54741 -0.411057 -2.00022 -0.999997 1.00249 192 192 192 255 0.176586 0.330449
-3.35913 0.954621 -0.877644 -2 -1 -1 192 192 192 255 0.268621 0.443638
-3.35913 0.954621 1.45491 -1 -2 2 192 192 192 255 0.268621 0.443638
-3.35913 1.13274 -0.877644 -1 2 -2 192 192 192 255 0.268621 0.443638
-3.35913 1.13274 1.45491 -2 1 1 192 192 192 255 0.268621 0.443638
3.35913 1.13274 -0.877644 2 1 -1 192 192 192 255 0.352063 0.446661
3.35913 1.13274 1.45491 1 2 2 192 192 192 255 0.352062 0.446661
3.35913 0.954621 -0.877644 1 -2 -2 192 192 192 255 0.268621 0.443638
3.35913 0.954621 1.45491 2 -1 1 192 192 192 255 0.268621 0.443638
-3.30168 2.39352 -1.45491 0 0 -4 192 192 192 255 0.234632 0.329239
3.30168 2.39352 -1.45491 0 0 -5 192 192 192 255 0.234632 0.329239
3.30168 0.308351 -1.45491 0 0 -5 192 192 192 255 0.234632 0.329239
-3.30168 0.308351 -1.45491 0 0 -4 192 192 192 255 0.234632 0.329239
-3.66263 0.954781 -1.45491 -2 0 -3 192 192 192 255 0.326185 0.330317
-3.66263 1.14173 -1.45491 -3 0 -3 192 192 192 255 0.326185 0.330317
-3.66263 1.13817 0.706562 -3 0.560992 3.91971 192 192 192 255 0.293534 0.330317
-3.66263 0.954781 0.706562 -4 0 2 192 192 192 255 0.293534 0.330317
-2.79798 1.04739 -0.010445 3.2336 5.11811 1.07096 192 192 192 255 0.201981 0.329239
-2.79798 1.14116 0.093327 3.6168 0.559141 0.554003 192 192 192 255 0.201981 0.329239
-2.79798 0.954781 0.083023 5.2336 1.11828 3.10801 192 192 192 255 0.176586 0.330449
-2.70451 1.04826 0.083023 0.6168 1.5591 2.54474 192 192 192 255 0.326185 0.330317
-2.79798 1.13817 0.706562 4 0.280496 1.95986 192 192 192 255 0.326185 0.330317
-2.79798 0.954781 0.706562 2 0 4 192 192 192 255 0.326185 0.330317
2.79798 1.04739 -0.010445 -4.23374 3.11812 1.08941 192 192 192 255 0.326185 0.330317
2.70451 1.04826 0.083023 -0.616871 2.55902 1.53544 192 192 192 255 0.326185 0.330317
2.79798 0.954781 0.083023 -3.23374 1.1182 5.10793 192 192 192 255 0.176586 0.330449
2.79798 1.14116 0.093346 -5.61687 0.559102 0.553963 192 192 192 255 0.201981 0.329239
2.79798 1.13817 0.706562 -2 0.280496 2.95986 192 192 192 255 0.293534 0.330317
2.79798 0.954781 0.706562 -4 0 2 192 192 192 255 0.293534 0.330317
3.66263 1.14173 -1.45491 3 0 -3 192 192 192 255 0.326185 0.330317
3.66263 0.954781 -1.45491 3 0 -3 192 192 192 255 0.326185 0.330317
3.66263 1.13817 0.706562 3 0.560992 2.91971 192 192 192 255 0.326185 0.330317
3.66263 0.954781 0.706562 3 0 4 192 192 192 255 0.326185 0.330317
-3.30168 1.14173 -1.45491 0 0 -6 192 192 192 255 0.326185 0.330317
-3.30168 0.954781 -1.45491 0 0 -7 192 192 192 255 0.326185 0.330316
3.30168 1.14173 -1.45491 0 0 -6 192 192 192 255 0.326185 0.330317
3.30168 0.954781 -1.45491 0 0 -5 192 192 192 255 0.326185 0.330317
-2.78715 2.54264 0.943855 -1.94187 2 -1.10863 192 192 192 255 0.390508 0.063072
-2.717 2.54264 1.04899 0.00133455 1.00002 3.60564 192 192 192 255 0.390508 0.063072
-1.8525 2.54264 0.320229 1.10865 1 -1.94188 192 192 192 255 0.301625 0.063677
-1.78235 2.54264 0.425369 2.4969 2.00005 1.94048 192 192 192 255 0.301625 0.063677
-1.8525 1.54634 0.320229 -0.278211 -2 -2.21869 192 192 192 255 0.234509 0.063677
-2.78715 1.54634 0.943855 -2.21867 -1 0.278241 192 192 192 255 0.234509 0.063677
-2.78715 2.54264 0.943855 -1.94187 2 -1.10863 192 192 192 255 0.234509 0.063677
-1.8525 2.54264 0.320229 1.10865 1 -1.94188 192 192 192 255 0.234509 0.063677
-2.717 1.54634 1.04899 0.833203 -2.00005 3.05057 192 192 192 255 0.357252 0.063072
-1.78235 1.54634 0.425369 3.32874 -1.00002 1.38547 192 192 192 255 0.357252 0.063072
-1.83933 1.61247 0.46339 2.22009 -4.90115e-005 3.32734 192 192 192 255 0.357252 0.063072
-2.66001 1.61247 1.01098 2.77504 -2.45058e-005 4.15923 192 192 192 255 0.357252 0.063072
-1.78235 2.54264 0.425369 2.4969 2.00005 1.94048 192 192 192 255 0.357252 0.063072
-1.83933 2.47651 0.46339 2.77512 2.48795e-005 4.15917 192 192 192 255 0.357252 0.063072
-2.717 2.54264 1.04899 0.00133455 1.00002 3.60564 192 192 192 255 0.357252 0.063072
-2.66001 2.47651 1.01098 2.22005 4.9759e-005 3.32737 192 192 192 255 0.357252 0.063072
-2.58812 2.21302 0.492928 -1.94188 2 -1.10864 192 192 192 255 0.169393 0.063444
-2.44124 2.21302 0.713058 -1.10864 1 1.94189 192 192 192 255 0.169393 0.063444
-2.36442 2.21302 0.34367 1.10865 1 -1.94188 192 192 192 255 0.142788 0.066468
-2.21755 2.21302 0.563801 1.94188 2 1.10865 192 192 192 255 0.142788 0.066468
-2.44124 1.22058 0.713058 0.278215 3 2.2187 192 192 192 255 0.169393 0.063444
-2.21755 1.22058 0.563801 2.2187 3 -0.27821 192 192 192 255 0.169393 0.063444
-2.36442 1.22058 0.34367 -0.278214 3 -2.21869 192 192 192 255 0.169393 0.063444
-2.58812 1.22058 0.492928 -2.21869 3 0.278219 192 192 192 255 0.169393 0.063444
-2.36442 1.22058 0.34367 -0.278214 3 -2.21869 192 192 192 255 0.199625 0.06284
-2.21755 1.22058 0.563801 2.2187 3 -0.27821 192 192 192 255 0.199625 0.06284
-2.44124 1.22058 0.713058 0.278215 3 2.2187 192 192 192 255 0.199625 0.06284
-2.58812 1.22058 0.492928 -2.21869 3 0.278219 192 192 192 255 0.199625 0.06284
-2.31417 1.22058 0.10202 1.10864 3 -1.94188 192 192 192 255 0.142788 0.066467
-1.97512 1.22058 0.610165 1.94189 3 1.10864 192 192 192 255 0.142788 0.066467
-1.97512 1.12292 0.610165 2.21869 -1 -0.278218 192 192 192 255 0.142788 0.066467
-2.31417 1.12292 0.10202 -0.278215 -2 -2.21869 192 192 192 255 0.142788 0.066467
-1.97512 1.22058 0.610165 1.94189 3 1.10864 192 192 192 255 0.169393 0.063444
-2.4915 1.22058 0.954712 -1.10864 3 1.94188 192 192 192 255 0.169393 0.063444
-2.4915 1.22058 0.954712 -1.10864 3 1.94188 192 192 192 255 0.142788 0.066467
-2.83055 1.22058 0.446564 -1.94188 3 -1.10865 192 192 192 255 0.142788 0.066467
-2.83055 1.12292 0.446564 -2.21869 -1 0.278212 192 192 192 255 0.142788 0.066467
-2.4915 1.12292 0.954712 0.27822 -2 2.21869 192 192 192 255 0.142788 0.066467
-2.83055 1.22058 0.446564 -1.94188 3 -1.10865 192 192 192 255 0.169393 0.063444
-2.31417 1.22058 0.10202 1.10864 3 -1.94188 192 192 192 255 0.169393 0.063444
-0.552544 2.40346 0.036945 -1 2 -2 192 192 192 255 0.390508 0.063072
-0.552544 2.40346 0.163342 -2 1 3 192 192 192 255 0.390508 0.063072
0.571056 2.40346 0.036945 2 1 -1 192 192 192 255 0.301625 0.063677
0.571056 2.40346 0.163342 1 2 3 192 192 192 255 0.301625 0.063677
0.571056 1.40715 0.036945 1 -2 -2 192 192 192 255 0.234509 0.063677
-0.552544 1.40715 0.036945 -2 -1 -1 192 192 192 255 0.234509 0.063677
-0.552544 2.40346 0.036945 -1 2 -2 192 192 192 255 0.234509 0.063677
0.571056 2.40346 0.036945 2 1 -1 192 192 192 255 0.234509 0.063677
-0.552544 1.40715 0.163342 -1 -2 3 192 192 192 255 0.357252 0.063072
0.571056 1.40715 0.163342 2 -1 3 192 192 192 255 0.357252 0.063072
0.502554 1.47328 0.163342 0 0 4 192 192 192 255 0.357252 0.063072
-0.484039 1.47328 0.163342 0 0 5 192 192 192 255 0.357252 0.063072
0.571056 2.40346 0.163342 1 2 3 192 192 192 255 0.357252 0.063072
0.502554 2.33733 0.163342 0 0 5 192 192 192 255 0.357252 0.063072
-0.552544 2.40346 0.163342 -2 1 3 192 192 192 255 0.357252 0.063072
-0.484039 2.33733 0.163342 0 0 4 192 192 192 255 0.357252 0.063072
-0.133949 2.07383 -0.227684 -1 2 -2 192 192 192 255 0.169393 0.063444
-0.133949 2.07383 0.036945 -2 1 1 192 192 192 255 0.169393 0.063444
0.134972 2.07383 -0.227684 2 1 -1 192 192 192 255 0.142788 0.066468
0.134972 2.07383 0.036945 1 2 2 192 192 192 255 0.142788 0.066468
-0.133949 1.22058 0.036945 -1 3 2 192 192 192 255 0.169393 0.063444
0.134972 1.22058 0.036945 2 3 1 192 192 192 255 0.169393 0.063444
0.134972 1.22058 -0.227684 1 3 -2 192 192 192 255 0.169393 0.063444
-0.133949 1.22058 -0.227684 -2 3 -1 192 192 192 255 0.169393 0.063444
0.134972 1.22058 -0.227684 1 3 -2 192 192 192 255 0.199625 0.06284
0.134972 1.22058 0.036945 2 3 1 192 192 192 255 0.199625 0.06284
-0.133949 1.22058 0.036945 -1 3 2 192 192 192 255 0.199625 0.06284
-0.133949 1.22058 -0.227684 -2 3 -1 192 192 192 255 0.199625 0.06284
0.310898 1.22058 -0.400806 2 3 -1 192 192 192 255 0.142788 0.066467
0.310898 1.22058 0.210068 1 3 2 192 192 192 255 0.142788 0.066467
0.310898 1.12292 0.210068 2 -1 1 192 192 192 255 0.142788 0.066467
0.310898 1.12292 -0.400806 1 -2 -2 192 192 192 255 0.142788 0.066467
0.310898 1.22058 0.210068 1 3 2 192 192 192 255 0.169393 0.063444
-0.309875 1.22058 0.210068 -2 3 1 192 192 192 255 0.169393 0.063444
-0.309875 1.22058 0.210068 -2 3 1 192 192 192 255 0.142788 0.066467
-0.309875 1.22058 -0.400806 -1 3 -2 192 192 192 255 0.142788 0.066467
-0.309875 1.12292 -0.400806 -2 -1 -1 192 192 192 255 0.142788 0.066467
-0.309875 1.12292 0.210068 -1 -2 2 192 192 192 255 0.142788 0.066467
-0.309875 1.22058 -0.400806 -1 3 -2 192 192 192 255 0.169393 0.063444
0.310898 1.22058 -0.400806 2 3 -1 192 192 192 255 0.169393 0.063444
0.679268 2.48418 0.039303 -0.506581 2 -2.17791 192 192 192 255 0.390508 0.063072
0.649826 2.48418 0.16222 -2.64382 0.999978 2.45159 192 192 192 255 0.390508 0.063072
1.77196 2.48418 0.301052 2.17793 1 -0.506595 192 192 192 255 0.301625 0.063677
1.74251 2.48418 0.423969 0.273597 1.99996 3.1504 192 192 192 255 0.301625 0.063677
1.77196 1.48788 0.301052 1.4384 -2 -1.71203 192 192 192 255 0.234509 0.063677
0.679268 1.48788 0.039303 -1.71203 -1 -1.43836 192 192 192 255 0.234509 0.063677
0.679268 2.48418 0.039303 -0.506581 2 -2.17791 192 192 192 255 0.234509 0.063677
1.77196 2.48418 0.301052 2.17793 1 -0.506595 192 192 192 255 0.234509 0.063677
0.649826 1.48788 0.16222 -1.67134 -1.99996 2.68453 192 192 192 255 0.357252 0.063072
1.74251 1.48788 0.423969 1.24606 -0.999978 3.38334 192 192 192 255 0.357252 0.063072
1.6759 1.55401 0.408009 -0.931847 4.47677e-005 3.88994 192 192 192 255 0.357252 0.063072
0.716444 1.55401 0.178177 -1.16475 2.23839e-005 4.86244 192 192 192 255 0.357252 0.063072
1.74251 2.48418 0.423969 0.273597 1.99996 3.1504 192 192 192 255 0.357252 0.063072
1.6759 2.41805 0.408009 -1.16483 -2.23171e-005 4.86242 192 192 192 255 0.357252 0.063072
0.649826 2.48418 0.16222 -2.64382 0.999978 2.45159 192 192 192 255 0.357252 0.063072
0.716444 2.41805 0.178177 -0.931805 -4.46342e-005 3.88995 192 192 192 255 0.357252 0.063072
1.16693 2.15455 -0.115997 -0.506586 2 -2.17793 192 192 192 255 0.169393 0.063444
1.10528 2.15455 0.141354 -2.17793 1 0.506581 192 192 192 255 0.169393 0.063444
1.42845 2.15455 -0.053352 2.17792 1 -0.506573 192 192 192 255 0.142788 0.066468
1.3668 2.15455 0.203999 0.506583 2 2.17793 192 192 192 255 0.142788 0.066468
1.10528 1.22058 0.141354 -1.43839 3 1.71202 192 192 192 255 0.169393 0.063444
1.3668 1.22058 0.203999 1.71202 3 1.4384 192 192 192 255 0.169393 0.063444
1.42845 1.22058 -0.053352 1.43839 3 -1.71202 192 192 192 255 0.169393 0.063444
1.16693 1.22058 -0.115997 -1.71202 3 -1.4384 192 192 192 255 0.169393 0.063444
1.42845 1.22058 -0.053352 1.43839 3 -1.71202 192 192 192 255 0.199625 0.06284
1.3668 1.22058 0.203999 1.71202 3 1.4384 192 192 192 255 0.199625 0.06284
1.10528 1.22058 0.141354 -1.43839 3 1.71202 192 192 192 255 0.199625 0.06284
1.16693 1.22058 -0.115997 -1.71202 3 -1.4384 192 192 192 255 0.199625 0.06284
1.63986 1.22058 -0.180729 2.17793 3 -0.506575 192 192 192 255 0.142788 0.066467
1.49756 1.22058 0.413338 0.506577 3 2.17793 192 192 192 255 0.142788 0.066467
1.49756 1.12292 0.413338 1.71202 -1 1.4384 192 192 192 255 0.142788 0.066467
1.63986 1.12292 -0.180729 1.43839 -2 -1.71202 192 192 192 255 0.142788 0.066467
1.49756 1.22058 0.413338 0.506577 3 2.17793 192 192 192 255 0.169393 0.063444
0.893864 1.22058 0.268726 -2.17793 3 0.506574 192 192 192 255 0.169393 0.063444
0.893864 1.22058 0.268726 -2.17793 3 0.506574 192 192 192 255 0.142788 0.066467
1.03617 1.22058 -0.32534 -0.50658 3 -2.17793 192 192 192 255 0.142788 0.066467
1.03617 1.12292 -0.32534 -1.71202 -1 -1.4384 192 192 192 255 0.142788 0.066467
0.893864 1.12292 0.268726 -1.4384 -2 1.71202 192 192 192 255 0.142788 0.066467
1.03617 1.22058 -0.32534 -0.50658 3 -2.17793 192 192 192 255 0.169393 0.063444
1.63986 1.22058 -0.180729 2.17793 3 -0.506575 192 192 192 255 0.169393 0.063444
1.87125 2.57466 0.31189 0.15589 2 -2.23063 192 192 192 255 0.390508 0.063072
1.80699 2.57466 0.420723 -3.24757 0.999996 1.56627 192 192 192 255 0.390508 0.063072
2.83876 2.57466 0.883221 2.23062 1 0.155901 192 192 192 255 0.301625 0.063677
2.77449 2.57466 0.992054 -0.664372 1.99999 3.09171 192 192 192 255 0.301625 0.063677
2.83876 1.57835 0.883221 1.87803 -2 -1.21366 192 192 192 255 0.234509 0.063677
1.87125 1.57835 0.31189 -1.21367 -1 -1.87803 192 192 192 255 0.234509 0.063677
1.87125 2.57466 0.31189 0.15589 2 -2.23063 192 192 192 255 0.234509 0.063677
2.83876 2.57466 0.883221 2.23062 1 0.155901 192 192 192 255 0.234509 0.063677
1.80699 1.57835 0.420723 -2.38651 -1.99999 2.07474 192 192 192 255 0.357252 0.063072
2.77449 1.57835 0.992054 0.196703 -0.999996 3.6002 192 192 192 255 0.357252 0.063072
2.7155 1.64448 0.957222 -2.03393 8.1686e-006 3.44429 192 192 192 255 0.357252 0.063072
1.86597 1.64448 0.455555 -2.54239 4.0843e-006 4.30538 192 192 192 255 0.357252 0.063072
2.77449 2.57466 0.992054 -0.664372 1.99999 3.09171 192 192 192 255 0.357252 0.063072
2.7155 2.50852 0.957222 -2.5424 -4.03096e-006 4.30537 192 192 192 255 0.357252 0.063072
1.80699 2.57466 0.420723 -3.24757 0.999996 1.56627 192 192 192 255 0.357252 0.063072
1.86597 2.50852 0.455555 -2.03392 -8.06192e-006 3.4443 192 192 192 255 0.357252 0.063072
2.38202 2.24503 0.306179 0.155895 2 -2.23062 192 192 192 255 0.169393 0.063444
2.24746 2.24503 0.534046 -2.23063 1 -0.155891 192 192 192 255 0.169393 0.063444
2.61358 2.24503 0.442921 2.23063 1 0.155891 192 192 192 255 0.142788 0.066468
2.47902 2.24503 0.670788 -0.155895 2 2.23062 192 192 192 255 0.142788 0.066468
2.24746 1.22058 0.534046 -1.87804 3 1.21366 192 192 192 255 0.169393 0.063444
2.47902 1.22058 0.670788 1.21366 3 1.87803 192 192 192 255 0.169393 0.063444
2.61358 1.22058 0.442921 1.87804 3 -1.21366 192 192 192 255 0.169393 0.063444
2.38202 1.22058 0.306179 -1.21366 3 -1.87803 192 192 192 255 0.169393 0.063444
2.61358 1.22058 0.442921 1.87804 3 -1.21366 192 192 192 255 0.199625 0.06284
2.47902 1.22058 0.670788 1.21366 3 1.87803 192 192 192 255 0.199625 0.06284
2.24746 1.22058 0.534046 -1.87804 3 1.21366 192 192 192 255 0.199625 0.06284
2.38202 1.22058 0.306179 -1.21366 3 -1.87803 192 192 192 255 0.199625 0.06284
2.85309 1.22058 0.383305 2.23063 3 0.155886 192 192 192 255 0.142788 0.066467
2.54247 1.22058 0.909313 -0.155887 3 2.23063 192 192 192 255 0.142788 0.066467
2.54247 1.12292 0.909313 1.21367 -1 1.87803 192 192 192 255 0.142788 0.066467
2.85309 1.12292 0.383305 1.87804 -2 -1.21367 192 192 192 255 0.142788 0.066467
2.54247 1.22058 0.909313 -0.155887 3 2.23063 192 192 192 255 0.169393 0.063444
2.00794 1.22058 0.593662 -2.23063 3 -0.155888 192 192 192 255 0.169393 0.063444
2.00794 1.22058 0.593662 -2.23063 3 -0.155888 192 192 192 255 0.142788 0.066467
2.31856 1.22058 0.067654 0.155889 3 -2.23063 192 192 192 255 0.142788 0.066467
2.31856 1.12292 0.067654 -1.21367 -1 -1.87803 192 192 192 255 0.142788 0.066467
2.00794 1.12292 0.593662 -1.87803 -2 1.21367 192 192 192 255 0.142788 0.066467
2.31856 1.22058 0.067654 0.155889 3 -2.23063 192 192 192 255 0.169393 0.063444
2.85309 1.22058 0.383305 2.23063 3 0.155886 192 192 192 255 0.169393 0.063444
-1.744 2.47266 0.348053 -1.43959 2 -1.71103 192 192 192 255 0.390508 0.063072
-1.71447 2.47266 0.470951 -1.24381 1.00003 3.38424 192 192 192 255 0.390508 0.063072
-0.651499 2.47266 0.085545 1.71102 1 -1.4396 192 192 192 255 0.301625 0.063677
-0.621969 2.47266 0.208439 1.67325 2.00005 2.68333 192 192 192 255 0.301625 0.063677
-0.651499 1.47635 0.085545 0.505061 -2 -2.17829 192 192 192 255 0.234509 0.063677
-1.744 1.47635 0.348053 -2.17829 -1 -0.505077 192 192 192 255 0.234509 0.063677
-1.744 2.47266 0.348053 -1.43959 2 -1.71103 192 192 192 255 0.234509 0.063677
-0.651499 2.47266 0.085545 1.71102 1 -1.4396 192 192 192 255 0.234509 0.063677
-1.71447 1.47635 0.470951 -0.271452 -2.00005 3.1506 192 192 192 255 0.357252 0.063072
-0.621969 1.47635 0.208439 2.64559 -1.00003 2.44969 192 192 192 255 0.357252 0.063072
-0.688576 1.54249 0.224445 0.934558 -5.0987e-005 3.88929 192 192 192 255 0.357252 0.063072
-1.64787 1.54249 0.454948 1.16812 -2.54935e-005 4.86164 192 192 192 255 0.357252 0.063072
-0.621969 2.47266 0.208439 1.67325 2.00005 2.68333 192 192 192 255 0.357252 0.063072
-0.688576 2.40653 0.224445 1.16821 2.56938e-005 4.86161 192 192 192 255 0.357252 0.063072
-1.71447 2.47266 0.470951 -1.24381 1.00003 3.38424 192 192 192 255 0.357252 0.063072
-1.64787 2.40653 0.454948 0.93451 5.13875e-005 3.8893 192 192 192 255 0.357252 0.063072
-1.37017 2.01677 -0.013939 -1.43959 2 -1.71102 192 192 192 255 0.169393 0.063444
-1.30834 2.01677 0.24337 -1.71102 1 1.43959 192 192 192 255 0.169393 0.063444
-1.10869 2.01677 -0.076767 1.71102 1 -1.4396 192 192 192 255 0.142788 0.066468
-1.04686 2.01677 0.180542 1.43959 2 1.71101 192 192 192 255 0.142788 0.066468
-1.30834 1.22058 0.24337 -0.505064 3 2.17828 192 192 192 255 0.169393 0.063444
-1.04686 1.22058 0.180542 2.17828 3 0.505052 192 192 192 255 0.169393 0.063444
-1.10869 1.22058 -0.076767 0.505061 3 -2.17829 192 192 192 255 0.169393 0.063444
-1.37017 1.22058 -0.013939 -2.17828 3 -0.505058 192 192 192 255 0.169393 0.063444
-1.10869 1.22058 -0.076767 0.505061 3 -2.17829 192 192 192 255 0.199625 0.06284
-1.04686 1.22058 0.180542 2.17828 3 0.505052 192 192 192 255 0.199625 0.06284
-1.30834 1.22058 0.24337 -0.505064 3 2.17828 192 192 192 255 0.199625 0.06284
-1.37017 1.22058 -0.013939 -2.17828 3 -0.505058 192 192 192 255 0.199625 0.06284
-0.978081 1.22058 -0.286198 1.71101 3 -1.43959 192 192 192 255 0.142788 0.066467
-0.83536 1.22058 0.30777 1.4396 3 1.71101 192 192 192 255 0.142788 0.066467
-0.83536 1.12292 0.30777 2.17829 -1 0.505056 192 192 192 255 0.142788 0.066467
-0.978081 1.12292 -0.286198 0.505052 -2 -2.17828 192 192 192 255 0.142788 0.066467
-0.83536 1.22058 0.30777 1.4396 3 1.71101 192 192 192 255 0.169393 0.063444
-1.43895 1.22058 0.452805 -1.71101 3 1.4396 192 192 192 255 0.169393 0.063444
-1.43895 1.22058 0.452805 -1.71101 3 1.4396 192 192 192 255 0.142788 0.066467
-1.58167 1.22058 -0.141163 -1.4396 3 -1.71101 192 192 192 255 0.142788 0.066467
-1.58167 1.12292 -0.141163 -2.17828 -1 -0.505053 192 192 192 255 0.142788 0.066467
-1.43895 1.12292 0.452805 -0.505051 -2 2.17828 192 192 192 255 0.142788 0.066467
-1.58167 1.22058 -0.141163 -1.4396 3 -1.71101 192 192 192 255 0.169393 0.063444
-0.978081 1.22058 -0.286198 1.71101 3 -1.43959 192 192 192 255 0.169393 0.063444
-2.79798 1.04368 -0.411057 2 0.999957 0.990741 192 192 192 255 0.201981 0.329239
-2.79798 2.54741 -0.411057 0.999558 -1.99999 2.00498 192 192 192 255 0.201981 0.329239
-2.79798 2.55029 0.249607 4.99978 -0.999997 1.00249 192 192 192 255 0.17719 0.331658
-2.79798 2.54741 -0.411057 0.999558 -1.99999 2.00498 192 192 192 255 0.17719 0.331658
2.79798 2.54741 -0.411057 -2.00022 -0.999997 1.00249 192 192 192 255 0.17719 0.331658
2.79798 2.54782 0.249607 -3.00044 -1.99999 2.00498 192 192 192 255 0.234632 0.329239
-2.79798 2.70187 0.249607 1 3.03481 3.91971 192 192 192 255 0.234632 0.329239
-2.79798 2.55029 0.249607 4.99978 -0.999997 1.00249 192 192 192 255 0.234632 0.329239
2.79798 2.70187 0.249607 -2 4.03481 2.91971 192 192 192 255 0.295097 0.329239
-3.35913 1.13274 -0.877644 -1 2 -2 192 192 192 255 0.352063 0.446661
-3.35913 1.13274 1.45491 -2 1 1 192 192 192 255 0.352062 0.446661
3.35913 1.13274 -0.877644 2 1 -1 192 192 192 255 0.268621 0.443638
3.35913 1.13274 1.45491 1 2 2 192 192 192 255 0.268621 0.443638
3.35913 0.954621 -0.877644 1 -2 -2 192 192 192 255 0.234761 0.444242
3.35913 0.954621 1.45491 2 -1 1 192 192 192 255 0.234761 0.444242
-3.35913 0.954621 1.45491 -1 -2 2 192 192 192 255 0.234761 0.444242
-3.35913 0.954621 -0.877644 -2 -1 -1 192 192 192 255 0.234761 0.444242
-3.66263 2.70187 -1.45491 -2 3.47382 -3 192 192 192 255 0.234632 0.329239
3.66263 2.70187 -1.45491 1 2.47382 -3 192 192 192 255 0.234632 0.329239
3.66263 0 -1.45491 2 -2 -3 192 192 192 255 0.234632 0.329239
-3.66263 0 -1.45491 -2 -4 -3 192 192 192 255 0.234632 0.329239
-2.79798 1.04739 -0.010445 3.2336 5.11811 1.07096 192 192 192 255 0.326185 0.330317
2.79798 1.04368 -0.411057 -1 1.99991 1.98148 192 192 192 255 0.326185 0.330317
-2.79798 1.04368 -0.411057 2 0.999957 0.990741 192 192 192 255 0.326185 0.330317
2.79798 1.04739 -0.010445 -4.23374 3.11812 1.08941 192 192 192 255 0.201981 0.329239
2.79798 2.54782 0.249607 -3.00044 -1.99999 2.00498 192 192 192 255 0.201981 0.329239
2.79798 2.54741 -0.411057 -2.00022 -0.999997 1.00249 192 192 192 255 0.201981 0.329239
2.79798 1.04368 -0.411057 -1 1.99991 1.98148 192 192 192 255 0.201981 0.329239
2.70451 1.04826 0.083023 -0.616871 2.55902 1.53544 192 192 192 255 0.176586 0.330449
-2.70451 1.04826 0.083023 0.6168 1.5591 2.54474 192 192 192 255 0.176586 0.330449
-2.79798 0 0.083023 1 -2 2 192 192 192 255 0.176586 0.330449
2.79798 0 0.083023 -2 -4 1 192 192 192 255 0.176586 0.330449
-3.66263 1.14173 -1.45491 -3 0 -3 192 192 192 255 0.293534 0.330317
-3.66263 0.954781 -1.45491 -2 0 -3 192 192 192 255 0.293534 0.330316
-3.66263 1.13817 0.706562 -3 0.560992 3.91971 192 192 192 255 0.326185 0.330317
-3.66263 0.954781 0.706562 -4 0 2 192 192 192 255 0.326185 0.330317
-2.79798 0.954781 0.083023 5.2336 1.11828 3.10801 192 192 192 255 0.293534 0.330317
-2.79798 1.14116 0.093327 3.6168 0.559141 0.554003 192 192 192 255 0.293534 0.330317
-2.79798 1.13817 0.706562 4 0.280496 1.95986 192 192 192 255 0.293534 0.330317
-2.79798 0.954781 0.706562 2 0 4 192 192 192 255 0.293534 0.330317
2.79798 1.14116 0.093346 -5.61687 0.559102 0.553963 192 192 192 255 0.293534 0.330317
2.79798 0.954781 0.083023 -3.23374 1.1182 5.10793 192 192 192 255 0.293534 0.330317
2.79798 1.13817 0.706562 -2 0.280496 2.95986 192 192 192 255 0.326185 0.330317
2.79798 0.954781 0.706562 -4 0 2 192 192 192 255 0.326185 0.330317
3.66263 0.954781 -1.45491 3 0 -3 192 192 192 255 0.293534 0.330317
3.66263 1.14173 -1.45491 3 0 -3 192 192 192 255 0.293534 0.330317
3.66263 1.13817 0.706562 3 0.560992 2.91971 192 192 192 255 0.293534 0.330317
3.66263 0.954781 0.706562 3 0 4 192 192 192 255 0.293534 0.330317
-3.30168 0.954781 -1.45491 0 0 -7 192 192 192 255 0.288092 0.330921
-3.30168 1.14173 -1.45491 0 0 -6 192 192 192 255 0.288092 0.330921
3.30168 1.14173 -1.45491 0 0 -6 192 192 192 255 0.288092 0.330921
3.30168 0.954781 -1.45491 0 0 -5 192 192 192 255 0.288092 0.330921
-3.66263 2.70187 -1.45491 -2 3.47382 -3 192 192 192 255 0.201981 0.329239
-3.66263 1.14173 -1.45491 -3 0 -3 192 192 192 255 0.201981 0.329239
-3.66263 1.13817 0.706562 -3 0.560992 3.91971 192 192 192 255 0.201981 0.329239
-3.66263 2.70187 0.249607 -1 1.75431 0.959855 192 192 192 255 0.201981 0.329239
3.66263 1.14173 -1.45491 3 0 -3 192 192 192 255 0.201981 0.329239
3.66263 2.70187 -1.45491 1 2.47382 -3 192 192 192 255 0.201981 0.329239
3.66263 2.70187 0.249607 2 1.75431 0.959855 192 192 192 255 0.201981 0.329239
3.66263 1.13817 0.706562 3 0.560992 2.91971 192 192 192 255 0.201981 0.329239
-3.66263 1.13817 0.706562 -3 0.560992 3.91971 192 192 192 255 0.234632 0.329239
-2.79798 1.13817 0.706562 4 0.280496 1.95986 192 192 192 255 0.234632 0.329239
-3.66263 2.70187 0.249607 -1 1.75431 0.959855 192 192 192 255 0.234632 0.329239
-3.30168 1.14173 -1.45491 0 0 -6 192 192 192 255 0.196539 0.329844
-3.30168 2.39352 -1.45491 0 0 -4 192 192 192 255 0.196539 0.329844
3.30168 2.39352 -1.45491 0 0 -5 192 192 192 255 0.196539 0.329844
3.30168 1.14173 -1.45491 0 0 -6 192 192 192 255 0.196539 0.329844
2.79798 1.13817 0.706562 -2 0.280496 2.95986 192 192 192 255 0.234632 0.329239
3.66263 1.13817 0.706562 3 0.560992 2.91971 192 192 192 255 0.234632 0.329239
3.66263 2.70187 0.249607 2 1.75431 0.959855 192 192 192 255 0.234632 0.329239
2.79798 2.70187 0.249607 -2 4.03481 2.91971 192 192 192 255 0.201981 0.329239
2.79798 1.13817 0.706562 -2 0.280496 2.95986 192 192 192 255 0.201981 0.329239
3.30168 0.308351 -1.45491 0 0 -5 192 192 192 255 0.196539 0.329844
-3.30168 0.308351 -1.45491 0 0 -4 192 192 192 255 0.196539 0.329844
-3.30168 0.954781 -1.45491 0 0 -7 192 192 192 255 0.196539 0.329844
3.30168 0.954781 -1.45491 0 0 -5 192 192 192 255 0.196539 0.329844
3.66263 0 -1.45491 2 -2 -3 192 192 192 255 0.201981 0.329239
3.66263 0.954781 -1.45491 3 0 -3 192 192 192 255 0.201981 0.329239
3.66263 0.954781 0.706562 3 0 4 192 192 192 255 0.201981 0.329239
3.66263 0 0.706562 1 -2 1 192 192 192 255 0.201981 0.329239
-2.79798 0.954781 0.083023 5.2336 1.11828 3.10801 192 192 192 255 0.201981 0.329239
-2.79798 0.954781 0.706562 2 0 4 192 192 192 255 0.201981 0.329239
-2.79798 0 0.706562 2 -2 1 192 192 192 255 0.201981 0.329239
-2.79798 0 0.083023 1 -2 2 192 192 192 255 0.201981 0.329239
-2.79798 0.954781 0.706562 2 0 4 192 192 192 255 0.234632 0.329239
-3.66263 0.954781 0.706562 -4 0 2 192 192 192 255 0.234632 0.329239
-3.66263 0 0.706562 -1 -1 2 192 192 192 255 0.234632 0.329239
-2.79798 0 0.706562 2 -2 1 192 192 192 255 0.234632 0.329239
-3.66263 0 -1.45491 -2 -4 -3 192 192 192 255 0.201981 0.329239
-3.66263 0 0.706562 -1 -1 2 192 192 192 255 0.201981 0.329239
-3.66263 0.954781 0.706562 -4 0 2 192 192 192 255 0.201981 0.329239
-3.66263 0.954781 -1.45491 -2 0 -3 192 192 192 255 0.201981 0.329239
3.66263 0.954781 0.706562 3 0 4 192 192 192 255 0.234632 0.329239
2.79798 0.954781 0.706562 -4 0 2 192 192 192 255 0.234632 0.329239
2.79798 0 0.706562 -1 -1 2 192 192 192 255 0.234632 0.329239
3.66263 0 0.706562 1 -2 1 192 192 192 255 0.234632 0.329239
2.79798 0.954781 0.706562 -4 0 2 192 192 192 255 0.201981 0.329239
2.79798 0.954781 0.083023 -3.23374 1.1182 5.10793 192 192 192 255 0.201981 0.329239
2.79798 0 0.083023 -2 -4 1 192 192 192 255 0.201981 0.329239
2.79798 0 0.706562 -1 -1 2 192 192 192 255 0.201981 0.329239
-2.79798 1.13817 0.706562 4 0.280496 1.95986 192 192 192 255 0.201981 0.329239
-2.79798 2.70187 0.249607 1 3.03481 3.91971 192 192 192 255 0.201981 0.329239
-3.66263 1.14173 -1.45491 -3 0 -3 192 192 192 255 0.234632 0.329239
-3.30168 1.14173 -1.45491 0 0 -6 192 192 192 255 0.234632 0.329239
3.66263 1.14173 -1.45491 3 0 -3 192 192 192 255 0.234632 0.329239
3.30168 1.14173 -1.45491 0 0 -6 192 192 192 255 0.234632 0.329239
-3.66263 0.954781 -1.45491 -2 0 -3 192 192 192 255 0.234632 0.329239
-3.30168 0.954781 -1.45491 0 0 -7 192 192 192 255 0.234632 0.329239
3.66263 0.954781 -1.45491 3 0 -3 192 192 192 255 0.234632 0.329239
3.30168 0.954781 -1.45491 0 0 -5 192 192 192 255 0.234632 0.329239
-2.79798 1.04739 -0.010445 3.2336 5.11811 1.07096 192 192 192 255 0.268139 0.331526
-2.79798 1.14116 0.093327 3.6168 0.559141 0.554003 192 192 192 255 0.268139 0.331526
-2.79798 0.954781 0.083023 5.2336 1.11828 3.10801 192 192 192 255 0.268139 0.331526
-2.70451 1.04826 0.083023 0.6168 1.5591 2.54474 192 192 192 255 0.268139 0.331526
2.79798 1.04739 -0.010445 -4.23374 3.11812 1.08941 192 192 192 255 0.293534 0.330317
2.70451 1.04826 0.083023 -0.616871 2.55902 1.53544 192 192 192 255 0.293534 0.330317
3 0 1 3 
3 0 3 2 
3 196 197 5 
3 196 5 4 
3 198 199 7 
3 198 7 6 
3 6 7 1 
3 6 1 0 
3 9 8 10 
3 9 10 11 
3 200 201 202 
3 200 202 203 
3 204 205 206 
3 204 206 207 
3 205 208 209 
3 205 209 206 
3 208 210 211 
3 208 211 209 
3 210 204 207 
3 210 207 211 
3 12 13 15 
3 12 15 14 
3 212 213 17 
3 212 17 16 
3 214 215 19 
3 214 19 18 
3 24 25 26 
3 24 26 27 
3 216 217 17 
3 216 17 213 
3 218 219 212 
3 218 212 16 
3 220 221 21 
3 220 21 20 
3 221 222 22 
3 221 22 21 
3 222 223 23 
3 222 23 22 
3 223 220 20 
3 223 20 23 
3 224 225 226 
3 224 226 227 
3 228 229 26 
3 228 26 25 
3 230 231 232 
3 230 232 233 
3 234 235 24 
3 234 24 27 
3 28 29 31 
3 28 31 30 
3 236 237 33 
3 236 33 32 
3 238 239 35 
3 238 35 34 
3 34 35 29 
3 34 29 28 
3 37 36 38 
3 37 38 39 
3 240 241 242 
3 240 242 243 
3 244 245 246 
3 244 246 247 
3 245 248 249 
3 245 249 246 
3 248 250 251 
3 248 251 249 
3 250 244 247 
3 250 247 251 
3 40 41 43 
3 40 43 42 
3 252 253 45 
3 252 45 44 
3 254 255 47 
3 254 47 46 
3 52 53 54 
3 52 54 55 
3 256 257 45 
3 256 45 253 
3 258 259 252 
3 258 252 44 
3 260 261 49 
3 260 49 48 
3 261 262 50 
3 261 50 49 
3 262 263 51 
3 262 51 50 
3 263 260 48 
3 263 48 51 
3 264 265 266 
3 264 266 267 
3 268 269 54 
3 268 54 53 
3 270 271 272 
3 270 272 273 
3 274 275 52 
3 274 52 55 
3 56 57 59 
3 56 59 58 
3 276 277 61 
3 276 61 60 
3 278 279 63 
3 278 63 62 
3 62 63 57 
3 62 57 56 
3 65 64 66 
3 65 66 67 
3 280 281 282 
3 280 282 283 
3 284 285 286 
3 284 286 287 
3 285 288 289 
3 285 289 286 
3 288 290 291 
3 288 291 289 
3 290 284 287 
3 290 287 291 
3 68 69 71 
3 68 71 70 
3 292 293 73 
3 292 73 72 
3 294 295 75 
3 294 75 74 
3 80 81 82 
3 80 82 83 
3 296 297 73 
3 296 73 293 
3 298 299 292 
3 298 292 72 
3 300 301 77 
3 300 77 76 
3 301 302 78 
3 301 78 77 
3 302 303 79 
3 302 79 78 
3 303 300 76 
3 303 76 79 
3 304 305 306 
3 304 306 307 
3 308 309 82 
3 308 82 81 
3 310 311 312 
3 310 312 313 
3 314 315 80 
3 314 80 83 
3 84 85 87 
3 84 87 86 
3 316 317 89 
3 316 89 88 
3 318 319 91 
3 318 91 90 
3 90 91 85 
3 90 85 84 
3 93 92 94 
3 93 94 95 
3 320 321 322 
3 320 322 323 
3 324 325 326 
3 324 326 327 
3 325 328 329 
3 325 329 326 
3 328 330 331 
3 328 331 329 
3 330 324 327 
3 330 327 331 
3 96 97 99 
3 96 99 98 
3 332 333 101 
3 332 101 100 
3 334 335 103 
3 334 103 102 
3 108 109 110 
3 108 110 111 
3 336 337 101 
3 336 101 333 
3 338 339 332 
3 338 332 100 
3 340 341 105 
3 340 105 104 
3 341 342 106 
3 341 106 105 
3 342 343 107 
3 342 107 106 
3 343 340 104 
3 343 104 107 
3 344 345 346 
3 344 346 347 
3 348 349 110 
3 348 110 109 
3 350 351 352 
3 350 352 353 
3 354 355 108 
3 354 108 111 
3 112 113 115 
3 112 115 114 
3 356 357 117 
3 356 117 116 
3 358 359 119 
3 358 119 118 
3 118 119 113 
3 118 113 112 
3 121 120 122 
3 121 122 123 
3 360 361 362 
3 360 362 363 
3 364 365 366 
3 364 366 367 
3 365 368 369 
3 365 369 366 
3 368 370 371 
3 368 371 369 
3 370 364 367 
3 370 367 371 
3 124 125 127 
3 124 127 126 
3 372 373 129 
3 372 129 128 
3 374 375 131 
3 374 131 130 
3 136 137 138 
3 136 138 139 
3 376 377 129 
3 376 129 373 
3 378 379 372 
3 378 372 128 
3 380 381 133 
3 380 133 132 
3 381 382 134 
3 381 134 133 
3 382 383 135 
3 382 135 134 
3 383 380 132 
3 383 132 135 
3 384 385 386 
3 384 386 387 
3 388 389 138 
3 388 138 137 
3 390 391 392 
3 390 392 393 
3 394 395 136 
3 394 136 139 
3 140 143 142 
3 149 148 152 
3 149 152 153 
3 157 156 158 
3 157 158 159 
3 154 177 176 
3 154 176 396 
3 154 396 397 
3 155 398 399 
3 155 399 400 
3 401 144 402 
3 401 402 403 
3 140 142 404 
3 140 404 141 
3 141 404 145 
3 160 161 163 
3 160 163 162 
3 405 406 165 
3 405 165 164 
3 407 408 167 
3 407 167 166 
3 409 410 411 
3 409 411 412 
3 161 167 408 
3 161 408 163 
3 166 160 162 
3 166 162 407 
3 147 146 150 
3 147 150 151 
3 149 146 147 
3 149 147 148 
3 413 414 169 
3 413 169 168 
3 415 416 171 
3 415 171 170 
3 417 179 183 
3 417 183 182 
3 417 182 418 
3 417 418 419 
3 420 185 421 
3 420 421 422 
3 420 422 423 
3 184 424 425 
3 184 425 178 
3 184 178 426 
3 184 426 427 
3 172 173 192 
3 172 192 193 
3 428 429 175 
3 428 175 174 
3 430 431 181 
3 430 181 180 
3 432 433 434 
3 432 434 435 
3 436 437 187 
3 436 187 186 
3 438 439 191 
3 438 191 190 
3 188 189 195 
3 188 195 194 
3 440 441 442 
3 440 442 443 
3 444 445 446 
3 444 446 447 
3 448 449 450 
3 448 450 451 
3 452 453 454 
3 452 454 455 
3 456 457 402 
3 456 402 458 
3 459 460 461 
3 459 461 462 
3 144 463 464 
3 144 464 465 
3 466 421 185 
3 466 185 467 
3 468 469 470 
3 468 470 471 
3 472 473 474 
3 472 474 475 
3 476 477 478 
3 476 478 479 
3 480 481 482 
3 480 482 483 
3 484 485 486 
3 484 486 487 
3 488 489 490 
3 488 490 491 
3 492 493 494 
3 492 494 495 
3 496 177 154 
3 496 154 497 
3 498 413 168 
3 498 168 499 
3 414 500 501 
3 414 501 169 
3 416 502 503 
3 416 503 171 
3 504 415 170 
3 504 170 505 
3 506 507 508 
3 506 508 509 
3 510 511 437 
3 510 437 436 
