ply
format ascii 1.0
comment VCGLIB generated
comment TextureFile SpaceInteriors_Texture.png
element vertex 216
property float x
property float y
property float z
property float nx
property float ny
property float nz
property uchar red
property uchar green
property uchar blue
property uchar alpha
property float texture_u
property float texture_v
element face 160
property list uchar int vertex_indices
end_header
-0.5 0 0.614897 -2 -1 2 192 192 192 255 0.200664 0.062866
0.5 0 0.614897 2 -2 1 192 192 192 255 0.200664 0.062866
-0.5 0.879517 0.614897 -2 2.99994 1.0105 192 192 192 255 0.169732 0.062866
0.5 0.879517 0.614897 1 2.99989 2.02101 192 192 192 255 0.169732 0.062866
-0.5 0.862327 -0.464874 -2.99997 -0.354215 -6.95506 192 192 192 255 0.169732 0.062866
0.5 0.862327 -0.464874 2.99999 -0.234401 -3.97424 192 192 192 255 0.169732 0.062866
-0.5 0 -0.559769 -2 -1.89062 -0.994 192 192 192 255 0.200664 0.062866
0.5 0 -0.559769 2 -0.781234 -1.988 192 192 192 255 0.200664 0.062866
-0.5 0.887234 -0.248961 -3 3.34368 3.00124 192 192 192 255 0.169732 0.062866
0.5 0.887234 -0.248961 3.99998 3.57292 4.97756 192 192 192 255 0.169732 0.062866
-0.5 2.35334 -0.418085 -1.99999 2.5598 4.73786 192 192 192 255 0.169732 0.062866
0.5 2.35334 -0.418085 0.999998 2.21601 1.75763 192 192 192 255 0.169732 0.062866
-0.5 2.32843 -0.633999 -0.999992 0.649624 -3.09484 192 192 192 255 0.169732 0.062866
0.5 2.32843 -0.633999 1.99997 0.305837 -6.07507 192 192 192 255 0.169732 0.062866
-0.40147 0.985947 -0.260348 1.00001 1.3372 2.86564 192 192 192 255 0.200664 0.062866
0.401469 0.985947 -0.260348 -1.00001 2.33061 2.75104 192 192 192 255 0.200664 0.062866
0.401469 2.25462 -0.406698 -2.00001 -0.535033 4.08824 192 192 192 255 0.200664 0.062866
-0.40147 2.25462 -0.406698 2 -0.649629 3.09483 192 192 192 255 0.200664 0.062866
-0.40147 2.22972 -0.622612 1.00002 -2.33061 -2.75105 192 192 192 255 0.200664 0.062866
0.401469 2.22972 -0.622612 -1.00001 -2.21602 -1.75763 192 192 192 255 0.200664 0.062866
0.401469 0.96104 -0.476261 -2.00001 0.649624 -3.09483 192 192 192 255 0.200664 0.062866
-0.40147 0.96104 -0.476261 2.00001 1.64304 -3.20943 192 192 192 255 0.200664 0.062866
-0.40147 1.30312 -0.296936 2.00001 -0.535026 4.08825 192 192 192 255 0.200664 0.062866
0.401469 1.30312 -0.296936 -2.00001 -1.64304 3.20943 192 192 192 255 0.200664 0.062866
-0.40147 1.93745 -0.370111 1.00001 1.3372 2.86564 192 192 192 255 0.200664 0.062866
0.401469 1.93745 -0.370111 -1.00001 2.44521 3.74445 192 192 192 255 0.200664 0.062866
0.401469 1.91255 -0.586023 -2.00001 0.535026 -4.08825 192 192 192 255 0.200664 0.062866
-0.40147 1.91255 -0.586023 2.00002 1.64303 -3.20943 192 192 192 255 0.200664 0.062866
0.401469 1.27821 -0.512848 -1.00001 -1.3372 -2.86564 192 192 192 255 0.200664 0.062866
-0.40147 1.27821 -0.512848 1.00002 -2.44521 -3.74445 192 192 192 255 0.200664 0.062866
-0.5 0.258698 -0.531301 -2 0.328156 -2.982 192 192 192 255 0.200664 0.062866
-0.5 0.263855 0.614897 -3 0 3 192 192 192 255 0.200664 0.062866
0.5 0.263855 0.614897 3 0 3 192 192 192 255 0.200664 0.062866
0.5 0.258698 -0.531301 2 0.328164 -2.982 192 192 192 255 0.200664 0.062866
0.5 0.263082 0.197034 4 -1.65129 -0.747145 192 192 192 255 0.135807 0.062866
0.5 0 0.422873 1 -2.30271 -1.51754 192 192 192 255 0.169732 0.062866
-0.5 0 0.422873 -1 -2.65136 -0.758772 192 192 192 255 0.135807 0.062866
-0.5 0.263082 0.197034 -4 -3.30258 -1.49429 192 192 192 255 0.135807 0.062866
-0.5 0.259472 -0.113437 -4 -1.6999 0.725803 192 192 192 255 0.135807 0.062866
-0.5 0 -0.367746 -1 -2.39993 1.42835 192 192 192 255 0.169732 0.062866
0.5 0 -0.367746 1 -2.69997 0.714176 192 192 192 255 0.135807 0.062866
0.5 0.259472 -0.113437 4 -3.3998 1.45161 192 192 192 255 0.135807 0.062866
-0.366727 0.879517 0.485707 1.53371e-007 4.99973 0.0464951 192 192 192 255 0.207137 0.062866
0.366726 0.879517 0.485707 -8.02514e-008 3.99986 0.0232476 192 192 192 255 0.207137 0.062866
0.366726 0.887234 -0.119773 -1.60503e-007 4.99973 0.0464951 192 192 192 255 0.207137 0.062866
-0.366727 0.887234 -0.119773 7.66853e-008 3.99986 0.0232476 192 192 192 255 0.207137 0.062866
-0.5 0.448554 0.614897 -1.00002 -2.99997 1.00743 192 192 192 255 0.200664 0.062866
0.5 0.448554 0.614897 1.00004 -2.99994 2.01487 192 192 192 255 0.200664 0.062866
-0.5 0.439787 -0.511372 -4.00004 -2.78116 -1.97313 192 192 192 255 0.200664 0.062866
0.5 0.439787 -0.511372 4.00002 -2.89058 -0.986566 192 192 192 255 0.200664 0.062866
0.5 0.571118 0.614897 3.00004 2.99999 0.996078 192 192 192 255 0.169732 0.062866
-0.5 0.571118 0.614897 -1.00009 2.99998 1.99216 192 192 192 255 0.169732 0.062866
0.5 0.566549 -0.497423 1.00009 3.21875 -1.99584 192 192 192 255 0.169732 0.062866
-0.5 0.566549 -0.497423 -3.00004 3.10938 -0.997922 192 192 192 255 0.169732 0.062866
-0.543124 0.448554 0.667895 -1.00004 -2.99994 2.01487 192 192 192 255 0.236468 0.061595
0.543124 0.448554 0.667895 2.00002 -2.99997 1.00743 192 192 192 255 0.236468 0.061595
0.543124 0.571118 0.667895 1.00009 2.99998 1.99216 192 192 192 255 0.236468 0.061595
-0.543124 0.571118 0.667895 -2.00004 2.99999 0.996078 192 192 192 255 0.236468 0.061595
0.543124 0.566549 -0.549456 2.00004 3.11869 -0.996852 192 192 192 255 0.236468 0.061595
-0.543124 0.566549 -0.549456 -1.00009 3.23739 -1.9937 192 192 192 255 0.236468 0.061595
0.543124 0.439787 -0.56461 1.00004 -2.76254 -1.97099 192 192 192 255 0.236468 0.061595
-0.543124 0.439787 -0.56461 -2.00002 -2.88127 -0.985497 192 192 192 255 0.236468 0.061595
-0.202831 2.35334 -0.418085 -3 1.2226 1.87222 192 192 192 255 0.200664 0.062866
-0.202831 2.25462 -0.406698 -3 -1.87223 1.2226 192 192 192 255 0.200664 0.062866
-0.202831 2.22972 -0.622612 -3 -1.2226 -1.87223 192 192 192 255 0.138085 0.062866
-0.202831 2.32843 -0.633999 -3 1.87223 -1.22261 192 192 192 255 0.200664 0.062866
0.202831 2.32843 -0.633999 3 1.87223 -1.22261 192 192 192 255 0.200664 0.062866
0.202831 2.22972 -0.622612 3 -1.2226 -1.87223 192 192 192 255 0.200664 0.062866
0.202831 2.25462 -0.406698 3 -1.87223 1.2226 192 192 192 255 0.138085 0.062866
0.202831 2.35334 -0.418085 3 1.2226 1.87223 192 192 192 255 0.200664 0.062866
-0.202831 2.35531 -0.667894 -3 0.764226 -2.10142 192 192 192 255 0.229601 0.062866
0.202831 2.35531 -0.667894 3 1.87223 -1.2226 192 192 192 255 0.229601 0.062866
-0.202831 2.38723 -0.391201 -3 2.10142 0.764221 192 192 192 255 0.229601 0.062866
0.202831 2.38723 -0.391201 3 1.2226 1.87223 192 192 192 255 0.229601 0.062866
-0.202831 2.22774 -0.372803 -3 -0.764226 2.10142 192 192 192 255 0.200664 0.062866
0.202831 2.22774 -0.372803 3 -1.87223 1.2226 192 192 192 255 0.200664 0.062866
-0.202831 2.19582 -0.649496 -3 -2.10142 -0.764221 192 192 192 255 0.200664 0.062866
0.202831 2.19582 -0.649496 3 -1.2226 -1.87223 192 192 192 255 0.200664 0.062866
-0.5 0.887234 -0.248961 -3 3.34368 3.00124 192 192 192 255 0.200664 0.062866
0.5 0.887234 -0.248961 3.99998 3.57292 4.97756 192 192 192 255 0.200664 0.062866
0.5 2.35334 -0.418085 0.999998 2.21601 1.75763 192 192 192 255 0.200664 0.062866
0.202831 2.38723 -0.391201 3 1.2226 1.87223 192 192 192 255 0.200664 0.062866
-0.202831 2.38723 -0.391201 -3 2.10142 0.764221 192 192 192 255 0.200664 0.062866
-0.5 2.35334 -0.418085 -1.99999 2.5598 4.73786 192 192 192 255 0.200664 0.062866
-0.202831 2.35531 -0.667894 -3 0.764226 -2.10142 192 192 192 255 0.200664 0.062866
0.202831 2.35531 -0.667894 3 1.87223 -1.2226 192 192 192 255 0.200664 0.062866
0.5 2.32843 -0.633999 1.99997 0.305837 -6.07507 192 192 192 255 0.200664 0.062866
0.5 0.862327 -0.464874 2.99999 -0.234401 -3.97424 192 192 192 255 0.200664 0.062866
-0.5 0.862327 -0.464874 -2.99997 -0.354215 -6.95506 192 192 192 255 0.200664 0.062866
-0.5 2.32843 -0.633999 -0.999992 0.649624 -3.09484 192 192 192 255 0.200664 0.062866
0.202831 2.22774 -0.372803 3 -1.87223 1.2226 192 192 192 255 0.138085 0.062866
-0.202831 2.22774 -0.372803 -3 -0.764226 2.10142 192 192 192 255 0.138085 0.062866
-0.202831 2.19582 -0.649496 -3 -2.10142 -0.764221 192 192 192 255 0.138085 0.062866
0.202831 2.19582 -0.649496 3 -1.2226 -1.87223 192 192 192 255 0.138085 0.062866
-0.40147 2.25462 -0.406698 2 -0.649629 3.09483 192 192 192 255 0.168385 0.062866
-0.40147 1.93745 -0.370111 1.00001 1.3372 2.86564 192 192 192 255 0.168385 0.062866
-0.40147 1.91255 -0.586023 2.00002 1.64303 -3.20943 192 192 192 255 0.168385 0.062866
-0.40147 2.22972 -0.622612 1.00002 -2.33061 -2.75105 192 192 192 255 0.168385 0.062866
0.401469 2.25462 -0.406698 -2.00001 -0.535033 4.08824 192 192 192 255 0.168385 0.062866
0.401469 2.22972 -0.622612 -1.00001 -2.21602 -1.75763 192 192 192 255 0.168385 0.062866
0.401469 1.91255 -0.586023 -2.00001 0.535026 -4.08825 192 192 192 255 0.168385 0.062866
0.401469 1.93745 -0.370111 -1.00001 2.44521 3.74445 192 192 192 255 0.168385 0.062866
0.401469 1.93745 -0.370111 -1.00001 2.44521 3.74445 192 192 192 255 0.232072 0.062866
0.401469 1.91255 -0.586023 -2.00001 0.535026 -4.08825 192 192 192 255 0.232072 0.062866
-0.40147 1.91255 -0.586023 2.00002 1.64303 -3.20943 192 192 192 255 0.232072 0.062866
-0.40147 1.93745 -0.370111 1.00001 1.3372 2.86564 192 192 192 255 0.232072 0.062866
0.401469 1.30312 -0.296936 -2.00001 -1.64304 3.20943 192 192 192 255 0.13969 0.062866
-0.40147 1.30312 -0.296936 2.00001 -0.535026 4.08825 192 192 192 255 0.13969 0.062866
-0.40147 1.27821 -0.512848 1.00002 -2.44521 -3.74445 192 192 192 255 0.13969 0.062866
0.401469 1.27821 -0.512848 -1.00001 -1.3372 -2.86564 192 192 192 255 0.13969 0.062866
-0.40147 1.30312 -0.296936 2.00001 -0.535026 4.08825 192 192 192 255 0.168385 0.062866
-0.40147 0.985947 -0.260348 1.00001 1.3372 2.86564 192 192 192 255 0.168385 0.062866
-0.40147 0.96104 -0.476261 2.00001 1.64304 -3.20943 192 192 192 255 0.168385 0.062866
-0.40147 1.27821 -0.512848 1.00002 -2.44521 -3.74445 192 192 192 255 0.168385 0.062866
0.401469 1.30312 -0.296936 -2.00001 -1.64304 3.20943 192 192 192 255 0.168385 0.062866
0.401469 1.27821 -0.512848 -1.00001 -1.3372 -2.86564 192 192 192 255 0.168385 0.062866
0.401469 0.96104 -0.476261 -2.00001 0.649624 -3.09483 192 192 192 255 0.168385 0.062866
0.401469 0.985947 -0.260348 -1.00001 2.33061 2.75104 192 192 192 255 0.168385 0.062866
0.401469 0.985947 -0.260348 -1.00001 2.33061 2.75104 192 192 192 255 0.232072 0.062866
0.401469 0.96104 -0.476261 -2.00001 0.649624 -3.09483 192 192 192 255 0.232072 0.062866
-0.40147 0.96104 -0.476261 2.00001 1.64304 -3.20943 192 192 192 255 0.232072 0.062866
-0.40147 0.985947 -0.260348 1.00001 1.3372 2.86564 192 192 192 255 0.232072 0.062866
0.5 0 0.614897 2 -2 1 192 192 192 255 0.169732 0.062866
0.5 0.263082 0.197034 4 -1.65129 -0.747145 192 192 192 255 0.169732 0.062866
0.5 0.263855 0.614897 3 0 3 192 192 192 255 0.169732 0.062866
0.5 0 0.422873 1 -2.30271 -1.51754 192 192 192 255 0.135807 0.062866
0.5 0 0.614897 2 -2 1 192 192 192 255 0.135807 0.062866
-0.5 0 0.614897 -2 -1 2 192 192 192 255 0.135807 0.062866
-0.5 0.263082 0.197034 -4 -3.30258 -1.49429 192 192 192 255 0.169732 0.062866
-0.5 0 0.422873 -1 -2.65136 -0.758772 192 192 192 255 0.169732 0.062866
-0.5 0 0.614897 -2 -1 2 192 192 192 255 0.169732 0.062866
-0.5 0.263855 0.614897 -3 0 3 192 192 192 255 0.169732 0.062866
-0.5 0 -0.559769 -2 -1.89062 -0.994 192 192 192 255 0.169732 0.062866
-0.5 0.259472 -0.113437 -4 -1.6999 0.725803 192 192 192 255 0.169732 0.062866
-0.5 0.258698 -0.531301 -2 0.328156 -2.982 192 192 192 255 0.169732 0.062866
-0.5 0 -0.559769 -2 -1.89062 -0.994 192 192 192 255 0.135807 0.062866
0.5 0 -0.559769 2 -0.781234 -1.988 192 192 192 255 0.135807 0.062866
-0.5 0 -0.367746 -1 -2.39993 1.42835 192 192 192 255 0.135807 0.062866
0.5 0.259472 -0.113437 4 -3.3998 1.45161 192 192 192 255 0.169732 0.062866
0.5 0 -0.367746 1 -2.69997 0.714176 192 192 192 255 0.169732 0.062866
0.5 0 -0.559769 2 -0.781234 -1.988 192 192 192 255 0.169732 0.062866
0.5 0.258698 -0.531301 2 0.328164 -2.982 192 192 192 255 0.169732 0.062866
-0.5 0.879517 0.614897 -2 2.99994 1.0105 192 192 192 255 0.229601 0.062866
0.5 0.879517 0.614897 1 2.99989 2.02101 192 192 192 255 0.229601 0.062866
0.366726 0.879517 0.485707 -8.02514e-008 3.99986 0.0232476 192 192 192 255 0.229601 0.062866
-0.366727 0.879517 0.485707 1.53371e-007 4.99973 0.0464951 192 192 192 255 0.229601 0.062866
0.5 0.887234 -0.248961 3.99998 3.57292 4.97756 192 192 192 255 0.229601 0.062866
0.366726 0.887234 -0.119773 -1.60503e-007 4.99973 0.0464951 192 192 192 255 0.229601 0.062866
-0.5 0.887234 -0.248961 -3 3.34368 3.00124 192 192 192 255 0.229601 0.062866
-0.366727 0.887234 -0.119773 7.66853e-008 3.99986 0.0232476 192 192 192 255 0.229601 0.062866
0.5 0.566549 -0.497423 1.00009 3.21875 -1.99584 192 192 192 255 0.200664 0.062866
-0.5 0.566549 -0.497423 -3.00004 3.10938 -0.997922 192 192 192 255 0.200664 0.062866
-0.5 0.439787 -0.511372 -4.00004 -2.78116 -1.97313 192 192 192 255 0.169732 0.062866
-0.5 0.448554 0.614897 -1.00002 -2.99997 1.00743 192 192 192 255 0.169732 0.062866
0.5 0.439787 -0.511372 4.00002 -2.89058 -0.986566 192 192 192 255 0.169732 0.062866
0.5 0.448554 0.614897 1.00004 -2.99994 2.01487 192 192 192 255 0.169732 0.062866
-0.5 0.571118 0.614897 -1.00009 2.99998 1.99216 192 192 192 255 0.200664 0.062866
0.5 0.571118 0.614897 3.00004 2.99999 0.996078 192 192 192 255 0.200664 0.062866
0.5 0.879517 0.614897 1 2.99989 2.02101 192 192 192 255 0.200664 0.062866
-0.5 0.879517 0.614897 -2 2.99994 1.0105 192 192 192 255 0.200664 0.062866
0.543124 0.448554 0.667895 2.00002 -2.99997 1.00743 192 192 192 255 0.205536 0.061595
0.543124 0.439787 -0.56461 1.00004 -2.76254 -1.97099 192 192 192 255 0.205536 0.061595
0.543124 0.566549 -0.549456 2.00004 3.11869 -0.996852 192 192 192 255 0.205536 0.061595
0.543124 0.571118 0.667895 1.00009 2.99998 1.99216 192 192 192 255 0.205536 0.061595
-0.543124 0.439787 -0.56461 -2.00002 -2.88127 -0.985497 192 192 192 255 0.205536 0.061595
-0.543124 0.448554 0.667895 -1.00004 -2.99994 2.01487 192 192 192 255 0.205536 0.061595
-0.543124 0.571118 0.667895 -2.00004 2.99999 0.996078 192 192 192 255 0.205536 0.061595
-0.543124 0.566549 -0.549456 -1.00009 3.23739 -1.9937 192 192 192 255 0.205536 0.061595
-0.5 0.448554 0.614897 -1.00002 -2.99997 1.00743 192 192 192 255 0.168005 0.061477
0.5 0.448554 0.614897 1.00004 -2.99994 2.01487 192 192 192 255 0.168005 0.061477
0.543124 0.448554 0.667895 2.00002 -2.99997 1.00743 192 192 192 255 0.168005 0.061477
-0.543124 0.448554 0.667895 -1.00004 -2.99994 2.01487 192 192 192 255 0.168005 0.061477
0.5 0.571118 0.614897 3.00004 2.99999 0.996078 192 192 192 255 0.270925 0.060901
-0.5 0.571118 0.614897 -1.00009 2.99998 1.99216 192 192 192 255 0.270925 0.060901
-0.543124 0.571118 0.667895 -2.00004 2.99999 0.996078 192 192 192 255 0.270925 0.060901
0.543124 0.571118 0.667895 1.00009 2.99998 1.99216 192 192 192 255 0.270925 0.060901
-0.5 0.566549 -0.497423 -3.00004 3.10938 -0.997922 192 192 192 255 0.270925 0.060901
0.5 0.566549 -0.497423 1.00009 3.21875 -1.99584 192 192 192 255 0.270925 0.060901
0.543124 0.566549 -0.549456 2.00004 3.11869 -0.996852 192 192 192 255 0.270925 0.060901
-0.543124 0.566549 -0.549456 -1.00009 3.23739 -1.9937 192 192 192 255 0.270925 0.060901
0.5 0.439787 -0.511372 4.00002 -2.89058 -0.986566 192 192 192 255 0.168005 0.061477
-0.5 0.439787 -0.511372 -4.00004 -2.78116 -1.97313 192 192 192 255 0.168005 0.061477
-0.543124 0.439787 -0.56461 -2.00002 -2.88127 -0.985497 192 192 192 255 0.168005 0.061477
0.543124 0.439787 -0.56461 1.00004 -2.76254 -1.97099 192 192 192 255 0.168005 0.061477
-0.40147 2.22972 -0.622612 1.00002 -2.33061 -2.75105 192 192 192 255 0.138085 0.062866
-0.202831 2.25462 -0.406698 -3 -1.87223 1.2226 192 192 192 255 0.138085 0.062866
-0.40147 2.25462 -0.406698 2 -0.649629 3.09483 192 192 192 255 0.138085 0.062866
-0.202831 2.22972 -0.622612 -3 -1.2226 -1.87223 192 192 192 255 0.200664 0.062866
-0.5 2.35334 -0.418085 -1.99999 2.5598 4.73786 192 192 192 255 0.229601 0.062866
-0.202831 2.35334 -0.418085 -3 1.2226 1.87222 192 192 192 255 0.229601 0.062866
-0.202831 2.32843 -0.633999 -3 1.87223 -1.22261 192 192 192 255 0.229601 0.062866
-0.5 2.32843 -0.633999 -0.999992 0.649624 -3.09484 192 192 192 255 0.229601 0.062866
0.202831 2.22972 -0.622612 3 -1.2226 -1.87223 192 192 192 255 0.138085 0.062866
0.401469 2.22972 -0.622612 -1.00001 -2.21602 -1.75763 192 192 192 255 0.138085 0.062866
0.401469 2.25462 -0.406698 -2.00001 -0.535033 4.08824 192 192 192 255 0.138085 0.062866
0.202831 2.25462 -0.406698 3 -1.87223 1.2226 192 192 192 255 0.200664 0.062866
0.202831 2.32843 -0.633999 3 1.87223 -1.22261 192 192 192 255 0.229601 0.062866
0.202831 2.35334 -0.418085 3 1.2226 1.87223 192 192 192 255 0.229601 0.062866
0.5 2.35334 -0.418085 0.999998 2.21601 1.75763 192 192 192 255 0.229601 0.062866
0.5 2.32843 -0.633999 1.99997 0.305837 -6.07507 192 192 192 255 0.229601 0.062866
-0.202831 2.32843 -0.633999 -3 1.87223 -1.22261 192 192 192 255 0.168092 0.065136
-0.202831 2.35334 -0.418085 -3 1.2226 1.87222 192 192 192 255 0.168092 0.065136
-0.202831 2.38723 -0.391201 -3 2.10142 0.764221 192 192 192 255 0.168092 0.065136
-0.202831 2.35531 -0.667894 -3 0.764226 -2.10142 192 192 192 255 0.168092 0.065136
0.202831 2.35334 -0.418085 3 1.2226 1.87223 192 192 192 255 0.168092 0.065136
0.202831 2.32843 -0.633999 3 1.87223 -1.22261 192 192 192 255 0.168092 0.065136
0.202831 2.35531 -0.667894 3 1.87223 -1.2226 192 192 192 255 0.168092 0.065136
0.202831 2.38723 -0.391201 3 1.2226 1.87223 192 192 192 255 0.168092 0.065136
-0.202831 2.25462 -0.406698 -3 -1.87223 1.2226 192 192 192 255 0.168092 0.065136
-0.202831 2.22774 -0.372803 -3 -0.764226 2.10142 192 192 192 255 0.168092 0.065136
0.202831 2.25462 -0.406698 3 -1.87223 1.2226 192 192 192 255 0.168092 0.065136
0.202831 2.22774 -0.372803 3 -1.87223 1.2226 192 192 192 255 0.168092 0.065136
-0.202831 2.22972 -0.622612 -3 -1.2226 -1.87223 192 192 192 255 0.168092 0.065136
-0.202831 2.19582 -0.649496 -3 -2.10142 -0.764221 192 192 192 255 0.168092 0.065136
0.202831 2.22972 -0.622612 3 -1.2226 -1.87223 192 192 192 255 0.168092 0.065136
0.202831 2.19582 -0.649496 3 -1.2226 -1.87223 192 192 192 255 0.168092 0.065136
3 54 55 56 
3 54 56 57 
3 48 49 33 
3 48 33 30 
3 37 38 41 
3 37 41 34 
3 50 52 5 
3 50 5 9 
3 50 9 3 
3 53 51 2 
3 53 2 8 
3 53 8 4 
3 42 43 44 
3 42 44 45 
3 71 70 72 
3 71 72 73 
3 9 5 13 
3 9 13 11 
3 4 8 10 
3 4 10 12 
3 78 79 15 
3 78 15 14 
3 79 80 16 
3 79 16 25 
3 79 25 23 
3 79 23 15 
3 81 82 74 
3 81 74 75 
3 83 78 14 
3 83 14 22 
3 83 22 24 
3 83 24 17 
3 77 76 84 
3 77 84 85 
3 86 87 20 
3 86 20 28 
3 86 28 26 
3 86 26 19 
3 87 88 21 
3 87 21 20 
3 88 89 18 
3 88 18 27 
3 88 27 29 
3 88 29 21 
3 25 24 22 
3 25 22 23 
3 29 27 26 
3 29 26 28 
3 90 91 92 
3 90 92 93 
3 94 95 96 
3 94 96 97 
3 98 99 100 
3 98 100 101 
3 102 103 104 
3 102 104 105 
3 106 107 108 
3 106 108 109 
3 110 111 112 
3 110 112 113 
3 114 115 116 
3 114 116 117 
3 118 119 120 
3 118 120 121 
3 0 1 32 
3 0 32 31 
3 30 33 7 
3 30 7 6 
3 122 35 123 
3 122 123 124 
3 36 125 126 
3 36 126 127 
3 128 129 130 
3 128 130 131 
3 132 39 133 
3 132 133 134 
3 135 136 40 
3 135 40 137 
3 138 139 140 
3 138 140 141 
3 137 40 41 
3 137 41 38 
3 125 36 37 
3 125 37 34 
3 142 143 144 
3 142 144 145 
3 143 146 147 
3 143 147 144 
3 146 148 149 
3 146 149 147 
3 148 142 145 
3 148 145 149 
3 31 32 47 
3 31 47 46 
3 88 87 150 
3 88 150 151 
3 152 134 133 
3 152 133 128 
3 152 128 131 
3 152 131 153 
3 154 155 124 
3 154 124 123 
3 154 123 138 
3 154 138 141 
3 156 157 158 
3 156 158 159 
3 59 58 60 
3 59 60 61 
3 160 161 162 
3 160 162 163 
3 164 165 166 
3 164 166 167 
3 168 169 170 
3 168 170 171 
3 172 173 174 
3 172 174 175 
3 176 177 178 
3 176 178 179 
3 180 181 182 
3 180 182 183 
3 169 180 183 
3 169 183 170 
3 177 172 175 
3 177 175 178 
3 181 168 171 
3 181 171 182 
3 173 176 179 
3 173 179 174 
3 17 63 62 
3 17 62 83 
3 184 64 185 
3 184 185 186 
3 89 65 187 
3 89 187 18 
3 188 189 190 
3 188 190 191 
3 67 66 86 
3 67 86 19 
3 68 192 193 
3 68 193 194 
3 69 195 16 
3 69 16 80 
3 196 197 198 
3 196 198 199 
3 200 201 202 
3 200 202 203 
3 204 205 206 
3 204 206 207 
3 201 208 209 
3 201 209 202 
3 210 204 207 
3 210 207 211 
3 212 200 203 
3 212 203 213 
3 205 214 215 
3 205 215 206 
3 208 212 213 
3 208 213 209 
3 214 210 211 
3 214 211 215 
