ply
format ascii 1.0
comment VCGLIB generated
comment TextureFile SpaceInteriors_Texture.png
element vertex 104
property float x
property float y
property float z
property float nx
property float ny
property float nz
property uchar red
property uchar green
property uchar blue
property uchar alpha
property float texture_u
property float texture_v
element face 64
property list uchar int vertex_indices
end_header
-1 0 0 -1 -1 2 192 192 192 255 0.233113 0.062866
-0 0 0 2 -2 2 192 192 192 255 0.233113 0.062866
-1 1 0 -2 3 1 192 192 192 255 0.233113 0.062866
-0 1 0 1 3 1 192 192 192 255 0.233113 0.062866
-1 1 -1 -1 3 -1 192 192 192 255 0.233113 0.062866
-0 1 -1 2 3 -2 192 192 192 255 0.233113 0.062866
-1 0 -1 -2 -3 -2 192 192 192 255 0.233113 0.062866
-0 0 -1 1 -3 -1 192 192 192 255 0.233113 0.062866
-0.74867 1 0 1.92815 3 2.53126 192 192 192 255 0.235244 0.062866
-0.74867 0 0 0.964075 -2 1.26563 192 192 192 255 0.235244 0.062866
-0.249557 0 0 -1.92815 -1 1.53125 192 192 192 255 0.235244 0.062866
-0.249557 1 0 -0.964077 3 2.26562 192 192 192 255 0.235244 0.062866
-0.698758 0 -0.181151 1.92815 -3 1.53126 192 192 192 255 0.235244 0.062866
-0.698758 1 -0.181151 0.964075 2 2.26563 192 192 192 255 0.235244 0.062866
-0.299468 1 -0.181151 -1.92815 4 1.53125 192 192 192 255 0.235244 0.062866
-0.299468 0 -0.181151 -0.964077 -3 2.26562 192 192 192 255 0.235244 0.062866
-0.275157 1 -0.326961 -1.90935 2 2.59529 192 192 192 255 0.292982 0.062866
-0.20071 1 -0.088178 -0.954676 3 2.29765 192 192 192 255 0.292982 0.062866
-0.797518 1 -0.088178 1.90935 3 1.59529 192 192 192 255 0.292982 0.062866
-0.723071 1 -0.326961 0.954676 4 1.29765 192 192 192 255 0.292982 0.062866
-0.942475 1 -0.088178 -1 3 2 192 192 192 255 0.292982 0.062866
-0.942475 1 -0.92238 -3 3 -1 192 192 192 255 0.292982 0.062866
-0.055752 1 -0.088178 3 3 1 192 192 192 255 0.292982 0.062866
-0.055752 1 -0.92238 1 3 -2 192 192 192 255 0.292982 0.062866
-0.275157 1.08932 -0.326961 -0.954676 2.12812 1.29765 192 192 192 255 0.932625 0.702144
-0.055752 1.08932 -0.92238 2 2.12812 -1 192 192 192 255 0.992775 0.874225
-0.797518 1.08932 -0.088178 0.954676 2 2.29765 192 192 192 255 0.808095 0.788499
-0.723071 1.08932 -0.326961 1.90935 3.12812 2.59529 192 192 192 255 0.80983 0.702144
-0.942475 1.08932 -0.92238 -1 1.12812 -2 192 192 192 255 0.74968 0.874225
-0.942475 1.08932 -0.088178 -2 1 1 192 192 192 255 0.808095 0.788499
-0.20071 1.08932 -0.088178 -1.90935 2 1.59529 192 192 192 255 0.233436 0.062338
-0.055752 1.08932 -0.088178 1 1 2 192 192 192 255 0.265609 0.058294
-0.942475 1.08932 -0.338438 -2 2.12812 0 192 192 192 255 0.808095 0.788499
-0.055752 1.08932 -0.338438 2 2.12812 0 192 192 192 255 0.992775 0.705461
-0.723071 1.08932 -0.326961 1.90935 3.12812 2.59529 192 192 192 255 0.808095 0.788499
-1 0 0 -1 -1 2 192 192 192 255 0.264046 0.062866
-0.74867 0 0 0.964075 -2 1.26563 192 192 192 255 0.264046 0.062866
-0.74867 1 0 1.92815 3 2.53126 192 192 192 255 0.264046 0.062866
-1 1 0 -2 3 1 192 192 192 255 0.264046 0.062866
-0.249557 1 0 -0.964077 3 2.26562 192 192 192 255 0.264046 0.062866
-0.249557 0 0 -1.92815 -1 1.53125 192 192 192 255 0.264046 0.062866
-0 0 0 2 -2 2 192 192 192 255 0.264046 0.062866
-0 1 0 1 3 1 192 192 192 255 0.264046 0.062866
-0.299468 0 -0.181151 -0.964077 -3 2.26562 192 192 192 255 0.264046 0.062866
-0.299468 1 -0.181151 -1.92815 4 1.53125 192 192 192 255 0.264046 0.062866
-0.698758 1 -0.181151 0.964075 2 2.26563 192 192 192 255 0.264046 0.062866
-0.698758 0 -0.181151 1.92815 -3 1.53126 192 192 192 255 0.264046 0.062866
-1 0 -1 -2 -3 -2 192 192 192 255 0.264046 0.062866
-1 1 -1 -1 3 -1 192 192 192 255 0.264046 0.062866
-0 1 -1 2 3 -2 192 192 192 255 0.264046 0.062866
-0 0 -1 1 -3 -1 192 192 192 255 0.264046 0.062866
-0.299468 1 -0.181151 -1.92815 4 1.53125 192 192 192 255 0.292982 0.062866
-0.249557 1 0 -0.964077 3 2.26562 192 192 192 255 0.292982 0.062866
-0.74867 1 0 1.92815 3 2.53126 192 192 192 255 0.292982 0.062866
-0.698758 1 -0.181151 0.964075 2 2.26563 192 192 192 255 0.292982 0.062866
-1 1 0 -2 3 1 192 192 192 255 0.292982 0.062866
-1 1 -1 -1 3 -1 192 192 192 255 0.292982 0.062866
-0 1 0 1 3 1 192 192 192 255 0.292982 0.062866
-0 1 -1 2 3 -2 192 192 192 255 0.292982 0.062866
-0.942475 1.08932 -0.92238 -1 1.12812 -2 192 192 192 255 0.265609 0.058294
-0.055752 1.08932 -0.92238 2 2.12812 -1 192 192 192 255 0.265609 0.058294
-0.055752 1 -0.92238 1 3 -2 192 192 192 255 0.265609 0.058294
-0.942475 1 -0.92238 -3 3 -1 192 192 192 255 0.265609 0.058294
-0.797518 1 -0.088178 1.90935 3 1.59529 192 192 192 255 0.233436 0.062338
-0.723071 1 -0.326961 0.954676 4 1.29765 192 192 192 255 0.233436 0.062338
-0.723071 1.08932 -0.326961 1.90935 3.12812 2.59529 192 192 192 255 0.233436 0.062338
-0.797518 1.08932 -0.088178 0.954676 2 2.29765 192 192 192 255 0.233436 0.062338
-0.942475 1 -0.92238 -3 3 -1 192 192 192 255 0.233436 0.062338
-0.942475 1 -0.088178 -1 3 2 192 192 192 255 0.233436 0.062338
-0.942475 1.08932 -0.088178 -2 1 1 192 192 192 255 0.233436 0.062338
-0.942475 1.08932 -0.338438 -2 2.12812 0 192 192 192 255 0.233436 0.062338
-0.942475 1.08932 -0.92238 -1 1.12812 -2 192 192 192 255 0.233436 0.062338
-0.942475 1 -0.088178 -1 3 2 192 192 192 255 0.265609 0.058294
-0.797518 1 -0.088178 1.90935 3 1.59529 192 192 192 255 0.265609 0.058294
-0.797518 1.08932 -0.088178 0.954676 2 2.29765 192 192 192 255 0.265609 0.058294
-0.942475 1.08932 -0.088178 -2 1 1 192 192 192 255 0.265609 0.058294
-0.723071 1.08932 -0.326961 1.90935 3.12812 2.59529 192 192 192 255 0.265609 0.058294
-0.723071 1 -0.326961 0.954676 4 1.29765 192 192 192 255 0.265609 0.058294
-0.275157 1 -0.326961 -1.90935 2 2.59529 192 192 192 255 0.265609 0.058294
-0.275157 1.08932 -0.326961 -0.954676 2.12812 1.29765 192 192 192 255 0.265609 0.058294
-0.275157 1 -0.326961 -1.90935 2 2.59529 192 192 192 255 0.233436 0.062338
-0.20071 1 -0.088178 -0.954676 3 2.29765 192 192 192 255 0.233436 0.062338
-0.275157 1.08932 -0.326961 -0.954676 2.12812 1.29765 192 192 192 255 0.233436 0.062338
-0.20071 1 -0.088178 -0.954676 3 2.29765 192 192 192 255 0.265609 0.058294
-0.055752 1 -0.088178 3 3 1 192 192 192 255 0.265609 0.058294
-0.20071 1.08932 -0.088178 -1.90935 2 1.59529 192 192 192 255 0.265609 0.058294
-0.055752 1 -0.088178 3 3 1 192 192 192 255 0.233436 0.062338
-0.055752 1 -0.92238 1 3 -2 192 192 192 255 0.233436 0.062338
-0.055752 1.08932 -0.92238 2 2.12812 -1 192 192 192 255 0.233436 0.062338
-0.055752 1.08932 -0.338438 2 2.12812 0 192 192 192 255 0.233436 0.062338
-0.055752 1.08932 -0.088178 1 1 2 192 192 192 255 0.233436 0.062338
-0.942475 1.08932 -0.338438 -2 2.12812 0 192 192 192 255 0.74968 0.705461
-0.055752 1.08932 -0.338438 2 2.12812 0 192 192 192 255 0.808095 0.788499
-0.275157 1.08932 -0.326961 -0.954676 2.12812 1.29765 192 192 192 255 0.808095 0.788499
-0.20071 1.08932 -0.088178 -1.90935 2 1.59529 192 192 192 255 0.808095 0.788499
-0.055752 1.08932 -0.088178 1 1 2 192 192 192 255 0.808095 0.788499
-0.74867 0 0 0.964075 -2 1.26563 192 192 192 255 0.199463 0.058945
-1 0 0 -1 -1 2 192 192 192 255 0.199463 0.058945
-1 0 -1 -2 -3 -2 192 192 192 255 0.199463 0.058945
-0.698758 0 -0.181151 1.92815 -3 1.53126 192 192 192 255 0.199463 0.058945
-0.299468 0 -0.181151 -0.964077 -3 2.26562 192 192 192 255 0.199463 0.058945
-0 0 -1 1 -3 -1 192 192 192 255 0.199463 0.058945
-0 0 0 2 -2 2 192 192 192 255 0.199463 0.058945
-0.249557 0 0 -1.92815 -1 1.53125 192 192 192 255 0.199463 0.058945
3 14 15 10 
3 14 10 11 
3 27 24 25 
3 27 25 28 
3 1 7 5 
3 1 5 3 
3 6 0 2 
3 6 2 4 
3 26 34 32 
3 26 32 29 
3 8 9 12 
3 8 12 13 
3 35 36 37 
3 35 37 38 
3 39 40 41 
3 39 41 42 
3 43 44 45 
3 43 45 46 
3 47 48 49 
3 47 49 50 
3 51 52 17 
3 51 17 16 
3 53 54 19 
3 53 19 18 
3 55 53 18 
3 55 18 20 
3 56 55 20 
3 56 20 21 
3 52 57 22 
3 52 22 17 
3 57 58 23 
3 57 23 22 
3 21 23 58 
3 21 58 56 
3 19 54 51 
3 19 51 16 
3 25 24 33 
3 59 60 61 
3 59 61 62 
3 63 64 65 
3 63 65 66 
3 67 68 69 
3 67 69 70 
3 67 70 71 
3 72 73 74 
3 72 74 75 
3 76 77 78 
3 76 78 79 
3 80 81 30 
3 80 30 82 
3 83 84 31 
3 83 31 85 
3 86 87 88 
3 86 88 89 
3 86 89 90 
3 91 27 28 
3 92 93 94 
3 92 94 95 
3 96 97 98 
3 96 98 99 
3 100 101 102 
3 100 102 103 
3 99 98 101 
3 99 101 100 
