ply
format ascii 1.0
comment VCGLIB generated
comment TextureFile SpaceInteriors_Texture.png
element vertex 224
property float x
property float y
property float z
property float nx
property float ny
property float nz
property uchar red
property uchar green
property uchar blue
property uchar alpha
property float texture_u
property float texture_v
element face 132
property list uchar int vertex_indices
end_header
-0.057562 0.153558 0.068189 -0.873372 4.46116 1.74674 192 192 192 255 0.202035 0.44366
0.057562 0.153558 0.068189 1.74674 4.46116 0.873372 192 192 192 255 0.232967 0.44366
-0.0763 0.46881 -0.028637 -2 3.16108 0.087443 192 192 192 255 0.230864 0.062866
0.039132 0.46881 -0.028637 1.00002 3.45097 1.04451 192 192 192 255 0.230864 0.062866
-0.0763 0.446124 -0.10354 -1 2.29143 -2.78375 192 192 192 255 0.199932 0.062866
0.039132 0.446124 -0.10354 2.00001 2.5813 -1.82672 192 192 192 255 0.230864 0.062866
-0.057562 0.153558 -0.046935 -1.74674 4.46121 -0.873344 192 192 192 255 0.202035 0.44366
0.057562 0.153558 -0.046935 0.873372 4.46126 -1.74669 192 192 192 255 0.202035 0.44366
-0.055537 0.206515 -0.04491 -2.42403 0.861074 -2.7334 192 192 192 255 0.240323 0.44366
-0.055537 0.206515 0.066165 -2.60246 0.939105 2.28297 192 192 192 255 0.240323 0.44366
0.055537 0.206515 0.066165 2.42403 0.89623 2.43083 192 192 192 255 0.240323 0.44366
0.055537 0.206515 -0.04491 2.60246 0.868791 -2.48385 192 192 192 255 0.240323 0.44366
0.029524 0.243635 0.029526 0.748556 -0.806569 2.22564 192 192 192 255 0.240323 0.44366
-0.029524 0.243635 0.029526 -1.49708 -0.849387 1.44655 192 192 192 255 0.240323 0.44366
-0.029524 0.226518 -0.026987 -0.748556 -0.87689 -0.687321 192 192 192 255 0.240323 0.44366
0.029524 0.226518 -0.026987 1.49708 -0.884558 -0.00996512 192 192 192 255 0.240323 0.44366
0.039132 0.420364 -0.013963 2.88989 -0.503916 3.05713 192 192 192 255 0.199028 0.062866
-0.0763 0.420364 -0.013963 -1.7439 -1.37563 3.43619 192 192 192 255 0.199028 0.062866
-0.0763 0.397677 -0.088866 -2.37195 -2.56735 -2.12691 192 192 192 255 0.168096 0.062866
0.039132 0.397677 -0.088866 2.77979 -2.14747 -2.36912 192 192 192 255 0.199028 0.062866
-0.029524 0.382524 -0.074238 -1.7439 -3.05108 -2.09544 192 192 192 255 0.168096 0.062866
-0.029524 0.39964 -0.017725 -2.37195 -0.955742 3.19398 192 192 192 255 0.199028 0.062866
0.029524 0.39964 -0.017725 2.77979 -0.472029 3.16251 192 192 192 255 0.199028 0.062866
0.029524 0.382524 -0.074238 2.88989 -2.11553 -2.26375 192 192 192 255 0.199028 0.062866
-0.031297 0.464112 -0.044148 -0.979988 4.59964 1.64849 192 192 192 255 0.2598 0.062866
0.032705 0.464112 -0.044148 1.95997 4.79013 1.59079 192 192 192 255 0.2598 0.062866
0.032705 0.448596 -0.095379 0.980011 2.65696 -2.88594 192 192 192 255 0.2598 0.062866
-0.031297 0.448596 -0.095379 -1.96 3.04976 -1.96434 192 192 192 255 0.2598 0.062866
-0.020646 0.510521 -0.071858 -1.95997 3.83303 1.88072 192 192 192 255 0.2598 0.062866
0.022053 0.510521 -0.071858 0.979982 2.68549 2.22826 192 192 192 255 0.2598 0.062866
0.022053 0.50017 -0.106036 1.95999 2.09275 -1.6744 192 192 192 255 0.2598 0.062866
-0.020646 0.50017 -0.106036 -0.979997 0.742819 -2.30616 192 192 192 255 0.2598 0.062866
-0.00994 0.476688 -0.051657 2.26809e-005 2.56329 4.29297 192 192 192 255 0.265504 0.169691
0.011348 0.476688 -0.051657 -1.13763e-005 2.05063 3.43437 192 192 192 255 0.265504 0.169691
0.011348 0.495206 -0.062714 -2.27526e-005 2.56327 4.29298 192 192 192 255 0.265504 0.169691
-0.00994 0.495206 -0.062714 1.13405e-005 2.05059 3.4344 192 192 192 255 0.265504 0.169691
-0.029524 0.242412 -0.031801 -2.00004 2.58128 -1.82681 192 192 192 255 0.199932 0.062866
-0.029524 0.259528 0.024712 -1.00008 3.45095 1.04452 192 192 192 255 0.199932 0.062866
0.029524 0.259528 0.024712 2.00004 3.16108 0.0874694 192 192 192 255 0.230864 0.062866
0.029524 0.242412 -0.031801 1.00008 2.29143 -2.78381 192 192 192 255 0.199932 0.062866
-0.04163 0.247144 0.041112 -1.00002 -2.29141 2.78373 192 192 192 255 0.199932 0.062866
-0.04163 0.223009 -0.038574 -2.00001 -3.16105 -0.0875195 192 192 192 255 0.199932 0.062866
-0.04163 0.263037 0.036298 -2.00004 3.1611 0.0874637 192 192 192 255 0.199932 0.062866
-0.04163 0.238902 -0.043387 -1.00008 2.2915 -2.78383 192 192 192 255 0.199932 0.062866
0.04163 0.247144 0.041112 2.00001 -2.58131 1.82666 192 192 192 255 0.230864 0.062866
0.04163 0.263037 0.036298 1.00008 3.45099 1.04451 192 192 192 255 0.230864 0.062866
0.04163 0.223009 -0.038574 1.00002 -3.45088 -1.04456 192 192 192 255 0.199932 0.062866
0.04163 0.238902 -0.043387 2.00004 2.58132 -1.82682 192 192 192 255 0.199932 0.062866
-0.056875 0.180036 -0.046248 -2.67709 -0.000136018 -2.677 192 192 192 255 0.202035 0.44366
-0.056875 0.180036 0.067502 -2.67708 -8.2463e-005 2.67709 192 192 192 255 0.202035 0.44366
0.056875 0.180036 0.067502 2.67709 -8.25226e-005 2.67708 192 192 192 255 0.232967 0.44366
0.056875 0.180036 -0.046248 2.67708 -2.89381e-005 -2.67701 192 192 192 255 0.202035 0.44366
0.050179 0.193276 0.060806 2.74629 0.228397 2.71168 192 192 192 255 0.232967 0.44366
-0.050179 0.193276 0.060806 -2.7117 0.228337 2.74625 192 192 192 255 0.202035 0.44366
-0.050179 0.193276 -0.039551 -2.74629 0.228504 -2.71162 192 192 192 255 0.202035 0.44366
0.050179 0.193276 -0.039551 2.7117 0.228391 -2.74622 192 192 192 255 0.202035 0.44366
-0.050179 0.166797 -0.039551 -2.65808 0.107206 -2.63902 192 192 192 255 0.141754 0.44366
-0.050179 0.166797 0.060806 -2.6391 0.10716 2.65808 192 192 192 255 0.141754 0.44366
0.050179 0.166797 0.060806 2.65808 0.10716 2.6391 192 192 192 255 0.172687 0.44366
0.050179 0.166797 -0.039551 2.6391 0.107103 -2.658 192 192 192 255 0.141754 0.44366
-0.095408 0.153558 -0.115663 -1 3 -2 192 192 192 255 0.265343 0.06
0.095408 0.153558 -0.115663 2 3 -1 192 192 192 255 0.265343 0.06
0.095408 0.153558 0.136918 1 3 2 192 192 192 255 0.265343 0.06
-0.095408 0.153558 0.136918 -2 3 1 192 192 192 255 0.265343 0.06
-0.095408 0 -0.115663 -2 -2 -1 192 192 192 255 0.177277 0.06
0.095408 0 -0.115663 1 -1 -2 192 192 192 255 0.177277 0.06
0.095408 0 0.136918 2 -2 1 192 192 192 255 0.177277 0.06
-0.095408 0 0.136918 -1 -1 2 192 192 192 255 0.177277 0.06
0.055537 0.206515 0.066165 2.42403 0.89623 2.43083 192 192 192 255 0.209391 0.44366
0.055537 0.206515 -0.04491 2.60246 0.868791 -2.48385 192 192 192 255 0.209391 0.44366
0.029524 0.226518 -0.026987 1.49708 -0.884558 -0.00996512 192 192 192 255 0.209391 0.44366
0.029524 0.243635 0.029526 0.748556 -0.806569 2.22564 192 192 192 255 0.209391 0.44366
-0.055537 0.206515 -0.04491 -2.42403 0.861074 -2.7334 192 192 192 255 0.209391 0.44366
-0.055537 0.206515 0.066165 -2.60246 0.939105 2.28297 192 192 192 255 0.209391 0.44366
-0.029524 0.243635 0.029526 -1.49708 -0.849387 1.44655 192 192 192 255 0.209391 0.44366
-0.029524 0.226518 -0.026987 -0.748556 -0.87689 -0.687321 192 192 192 255 0.209391 0.44366
-0.056875 0.180036 0.067502 -2.67708 -8.2463e-005 2.67709 192 192 192 255 0.232967 0.44366
-0.050179 0.193276 0.060806 -2.7117 0.228337 2.74625 192 192 192 255 0.232967 0.44366
0.056875 0.180036 0.067502 2.67709 -8.25226e-005 2.67708 192 192 192 255 0.202035 0.44366
0.050179 0.193276 0.060806 2.74629 0.228397 2.71168 192 192 192 255 0.202035 0.44366
-0.050179 0.193276 -0.039551 -2.74629 0.228504 -2.71162 192 192 192 255 0.232967 0.44366
0.050179 0.193276 -0.039551 2.7117 0.228391 -2.74622 192 192 192 255 0.232967 0.44366
0.056875 0.180036 -0.046248 2.67708 -2.89381e-005 -2.67701 192 192 192 255 0.232967 0.44366
-0.056875 0.180036 -0.046248 -2.67709 -0.000136018 -2.677 192 192 192 255 0.232967 0.44366
-0.029524 0.39964 -0.017725 -2.37195 -0.955742 3.19398 192 192 192 255 0.168096 0.062866
-0.0763 0.420364 -0.013963 -1.7439 -1.37563 3.43619 192 192 192 255 0.168096 0.062866
-0.0763 0.397677 -0.088866 -2.37195 -2.56735 -2.12691 192 192 192 255 0.199028 0.062866
-0.029524 0.382524 -0.074238 -1.7439 -3.05108 -2.09544 192 192 192 255 0.199028 0.062866
0.029524 0.39964 -0.017725 2.77979 -0.472029 3.16251 192 192 192 255 0.168096 0.062866
0.029524 0.382524 -0.074238 2.88989 -2.11553 -2.26375 192 192 192 255 0.168096 0.062866
0.039132 0.397677 -0.088866 2.77979 -2.14747 -2.36912 192 192 192 255 0.168095 0.062866
0.039132 0.420364 -0.013963 2.88989 -0.503916 3.05713 192 192 192 255 0.168096 0.062866
-0.0763 0.420364 -0.013963 -1.7439 -1.37563 3.43619 192 192 192 255 0.230864 0.062866
0.039132 0.420364 -0.013963 2.88989 -0.503916 3.05713 192 192 192 255 0.230864 0.062866
-0.0763 0.397677 -0.088866 -2.37195 -2.56735 -2.12691 192 192 192 255 0.199932 0.062866
-0.0763 0.420364 -0.013963 -1.7439 -1.37563 3.43619 192 192 192 255 0.199932 0.062866
-0.0763 0.46881 -0.028637 -2 3.16108 0.087443 192 192 192 255 0.199932 0.062866
-0.0763 0.446124 -0.10354 -1 2.29143 -2.78375 192 192 192 255 0.230864 0.062866
0.039132 0.397677 -0.088866 2.77979 -2.14747 -2.36912 192 192 192 255 0.230864 0.062866
-0.0763 0.397677 -0.088866 -2.37195 -2.56735 -2.12691 192 192 192 255 0.230864 0.062866
0.039132 0.420364 -0.013963 2.88989 -0.503916 3.05713 192 192 192 255 0.199932 0.062866
0.039132 0.397677 -0.088866 2.77979 -2.14747 -2.36912 192 192 192 255 0.199932 0.062866
0.039132 0.446124 -0.10354 2.00001 2.5813 -1.82672 192 192 192 255 0.199932 0.062866
0.039132 0.46881 -0.028637 1.00002 3.45097 1.04451 192 192 192 255 0.199932 0.062866
-0.029524 0.39964 -0.017725 -2.37195 -0.955742 3.19398 192 192 192 255 0.199932 0.062866
-0.029524 0.382524 -0.074238 -1.7439 -3.05108 -2.09544 192 192 192 255 0.199932 0.062866
-0.029524 0.259528 0.024712 -1.00008 3.45095 1.04452 192 192 192 255 0.230864 0.062866
0.029524 0.39964 -0.017725 2.77979 -0.472029 3.16251 192 192 192 255 0.230864 0.062866
-0.029524 0.39964 -0.017725 -2.37195 -0.955742 3.19398 192 192 192 255 0.230864 0.062866
0.029524 0.259528 0.024712 2.00004 3.16108 0.0874694 192 192 192 255 0.199932 0.062866
0.029524 0.382524 -0.074238 2.88989 -2.11553 -2.26375 192 192 192 255 0.199932 0.062866
0.029524 0.39964 -0.017725 2.77979 -0.472029 3.16251 192 192 192 255 0.199932 0.062866
-0.029524 0.382524 -0.074238 -1.7439 -3.05108 -2.09544 192 192 192 255 0.230864 0.062866
0.029524 0.382524 -0.074238 2.88989 -2.11553 -2.26375 192 192 192 255 0.230864 0.062866
0.029524 0.242412 -0.031801 1.00008 2.29143 -2.78381 192 192 192 255 0.230864 0.062866
-0.029524 0.242412 -0.031801 -2.00004 2.58128 -1.82681 192 192 192 255 0.230864 0.062866
-0.0763 0.46881 -0.028637 -2 3.16108 0.087443 192 192 192 255 0.2598 0.062866
0.039132 0.46881 -0.028637 1.00002 3.45097 1.04451 192 192 192 255 0.2598 0.062866
0.039132 0.446124 -0.10354 2.00001 2.5813 -1.82672 192 192 192 255 0.2598 0.062866
-0.0763 0.446124 -0.10354 -1 2.29143 -2.78375 192 192 192 255 0.2598 0.062866
0.032705 0.464112 -0.044148 1.95997 4.79013 1.59079 192 192 192 255 0.198324 0.062866
0.032705 0.448596 -0.095379 0.980011 2.65696 -2.88594 192 192 192 255 0.198324 0.062866
0.022053 0.50017 -0.106036 1.95999 2.09275 -1.6744 192 192 192 255 0.198324 0.062866
0.022053 0.510521 -0.071858 0.979982 2.68549 2.22826 192 192 192 255 0.198324 0.062866
0.032705 0.448596 -0.095379 0.980011 2.65696 -2.88594 192 192 192 255 0.232356 0.062866
-0.031297 0.448596 -0.095379 -1.96 3.04976 -1.96434 192 192 192 255 0.232356 0.062866
-0.020646 0.50017 -0.106036 -0.979997 0.742819 -2.30616 192 192 192 255 0.232356 0.062866
0.022053 0.50017 -0.106036 1.95999 2.09275 -1.6744 192 192 192 255 0.232356 0.062866
-0.031297 0.448596 -0.095379 -1.96 3.04976 -1.96434 192 192 192 255 0.198324 0.062866
-0.031297 0.464112 -0.044148 -0.979988 4.59964 1.64849 192 192 192 255 0.198324 0.062866
-0.020646 0.510521 -0.071858 -1.95997 3.83303 1.88072 192 192 192 255 0.198324 0.062866
-0.020646 0.50017 -0.106036 -0.979997 0.742819 -2.30616 192 192 192 255 0.198324 0.062866
-0.031297 0.464112 -0.044148 -0.979988 4.59964 1.64849 192 192 192 255 0.232356 0.062866
0.032705 0.464112 -0.044148 1.95997 4.79013 1.59079 192 192 192 255 0.232356 0.062866
0.011348 0.476688 -0.051657 -1.13763e-005 2.05063 3.43437 192 192 192 255 0.232356 0.062866
-0.00994 0.476688 -0.051657 2.26809e-005 2.56329 4.29297 192 192 192 255 0.232356 0.062866
0.022053 0.510521 -0.071858 0.979982 2.68549 2.22826 192 192 192 255 0.232356 0.062866
0.011348 0.495206 -0.062714 -2.27526e-005 2.56327 4.29298 192 192 192 255 0.232356 0.062866
-0.020646 0.510521 -0.071858 -1.95997 3.83303 1.88072 192 192 192 255 0.232356 0.062866
-0.00994 0.495206 -0.062714 1.13405e-005 2.05059 3.4344 192 192 192 255 0.232356 0.062866
-0.04163 0.247144 0.041112 -1.00002 -2.29141 2.78373 192 192 192 255 0.230864 0.062866
-0.04163 0.263037 0.036298 -2.00004 3.1611 0.0874637 192 192 192 255 0.230864 0.062866
0.04163 0.247144 0.041112 2.00001 -2.58131 1.82666 192 192 192 255 0.199932 0.062866
0.04163 0.263037 0.036298 1.00008 3.45099 1.04451 192 192 192 255 0.199932 0.062866
-0.04163 0.238902 -0.043387 -1.00008 2.2915 -2.78383 192 192 192 255 0.230864 0.062866
0.04163 0.238902 -0.043387 2.00004 2.58132 -1.82682 192 192 192 255 0.230864 0.062866
0.04163 0.223009 -0.038574 1.00002 -3.45088 -1.04456 192 192 192 255 0.230864 0.062866
-0.04163 0.223009 -0.038574 -2.00001 -3.16105 -0.0875195 192 192 192 255 0.230864 0.062866
-0.029524 0.226518 -0.026987 -0.748556 -0.87689 -0.687321 192 192 192 255 0.173085 0.063085
-0.029524 0.243635 0.029526 -1.49708 -0.849387 1.44655 192 192 192 255 0.173085 0.063085
-0.04163 0.247144 0.041112 -1.00002 -2.29141 2.78373 192 192 192 255 0.173085 0.063085
-0.04163 0.223009 -0.038574 -2.00001 -3.16105 -0.0875195 192 192 192 255 0.173085 0.063085
-0.029524 0.259528 0.024712 -1.00008 3.45095 1.04452 192 192 192 255 0.270356 0.063085
-0.029524 0.242412 -0.031801 -2.00004 2.58128 -1.82681 192 192 192 255 0.270356 0.063085
-0.04163 0.238902 -0.043387 -1.00008 2.2915 -2.78383 192 192 192 255 0.270356 0.063085
-0.04163 0.263037 0.036298 -2.00004 3.1611 0.0874637 192 192 192 255 0.270356 0.063085
0.029524 0.243635 0.029526 0.748556 -0.806569 2.22564 192 192 192 255 0.173085 0.063085
0.04163 0.247144 0.041112 2.00001 -2.58131 1.82666 192 192 192 255 0.173085 0.063085
0.029524 0.259528 0.024712 2.00004 3.16108 0.0874694 192 192 192 255 0.270356 0.063085
0.04163 0.263037 0.036298 1.00008 3.45099 1.04451 192 192 192 255 0.270356 0.063085
0.029524 0.226518 -0.026987 1.49708 -0.884558 -0.00996512 192 192 192 255 0.173085 0.063085
0.04163 0.223009 -0.038574 1.00002 -3.45088 -1.04456 192 192 192 255 0.173085 0.063085
0.029524 0.242412 -0.031801 1.00008 2.29143 -2.78381 192 192 192 255 0.270356 0.063085
0.04163 0.238902 -0.043387 2.00004 2.58132 -1.82682 192 192 192 255 0.270356 0.063085
-0.056875 0.180036 0.067502 -2.67708 -8.2463e-005 2.67709 192 192 192 255 0.141754 0.44366
-0.056875 0.180036 -0.046248 -2.67709 -0.000136018 -2.677 192 192 192 255 0.141754 0.44366
-0.050179 0.166797 0.060806 -2.6391 0.10716 2.65808 192 192 192 255 0.172687 0.44366
0.056875 0.180036 0.067502 2.67709 -8.25226e-005 2.67708 192 192 192 255 0.172687 0.44366
-0.056875 0.180036 0.067502 -2.67708 -8.2463e-005 2.67709 192 192 192 255 0.172687 0.44366
0.050179 0.166797 0.060806 2.65808 0.10716 2.6391 192 192 192 255 0.141754 0.44366
0.056875 0.180036 -0.046248 2.67708 -2.89381e-005 -2.67701 192 192 192 255 0.141754 0.44366
0.056875 0.180036 0.067502 2.67709 -8.25226e-005 2.67708 192 192 192 255 0.141754 0.44366
-0.056875 0.180036 -0.046248 -2.67709 -0.000136018 -2.677 192 192 192 255 0.172687 0.44366
0.056875 0.180036 -0.046248 2.67708 -2.89381e-005 -2.67701 192 192 192 255 0.172687 0.44366
0.050179 0.166797 -0.039551 2.6391 0.107103 -2.658 192 192 192 255 0.172687 0.44366
-0.050179 0.166797 -0.039551 -2.65808 0.107206 -2.63902 192 192 192 255 0.172687 0.44366
-0.050179 0.193276 0.060806 -2.7117 0.228337 2.74625 192 192 192 255 0.172687 0.44366
0.050179 0.193276 0.060806 2.74629 0.228397 2.71168 192 192 192 255 0.172687 0.44366
0.055537 0.206515 0.066165 2.42403 0.89623 2.43083 192 192 192 255 0.172687 0.44366
-0.055537 0.206515 0.066165 -2.60246 0.939105 2.28297 192 192 192 255 0.172687 0.44366
-0.050179 0.193276 -0.039551 -2.74629 0.228504 -2.71162 192 192 192 255 0.141754 0.44366
-0.050179 0.193276 0.060806 -2.7117 0.228337 2.74625 192 192 192 255 0.141754 0.44366
-0.055537 0.206515 0.066165 -2.60246 0.939105 2.28297 192 192 192 255 0.141754 0.44366
-0.055537 0.206515 -0.04491 -2.42403 0.861074 -2.7334 192 192 192 255 0.141754 0.44366
-0.055537 0.206515 -0.04491 -2.42403 0.861074 -2.7334 192 192 192 255 0.172687 0.44366
0.055537 0.206515 -0.04491 2.60246 0.868791 -2.48385 192 192 192 255 0.172687 0.44366
0.050179 0.193276 -0.039551 2.7117 0.228391 -2.74622 192 192 192 255 0.172687 0.44366
-0.050179 0.193276 -0.039551 -2.74629 0.228504 -2.71162 192 192 192 255 0.172687 0.44366
0.050179 0.193276 0.060806 2.74629 0.228397 2.71168 192 192 192 255 0.141754 0.44366
0.050179 0.193276 -0.039551 2.7117 0.228391 -2.74622 192 192 192 255 0.141754 0.44366
0.055537 0.206515 -0.04491 2.60246 0.868791 -2.48385 192 192 192 255 0.141754 0.44366
0.055537 0.206515 0.066165 2.42403 0.89623 2.43083 192 192 192 255 0.141754 0.44366
-0.050179 0.166797 0.060806 -2.6391 0.10716 2.65808 192 192 192 255 0.202035 0.44366
-0.050179 0.166797 -0.039551 -2.65808 0.107206 -2.63902 192 192 192 255 0.202035 0.44366
-0.057562 0.153558 0.068189 -0.873372 4.46116 1.74674 192 192 192 255 0.232967 0.44366
0.050179 0.166797 0.060806 2.65808 0.10716 2.6391 192 192 192 255 0.232967 0.44366
-0.050179 0.166797 0.060806 -2.6391 0.10716 2.65808 192 192 192 255 0.232967 0.44366
0.057562 0.153558 0.068189 1.74674 4.46116 0.873372 192 192 192 255 0.202035 0.44366
0.050179 0.166797 -0.039551 2.6391 0.107103 -2.658 192 192 192 255 0.202035 0.44366
0.050179 0.166797 0.060806 2.65808 0.10716 2.6391 192 192 192 255 0.202035 0.44366
-0.050179 0.166797 -0.039551 -2.65808 0.107206 -2.63902 192 192 192 255 0.232967 0.44366
0.050179 0.166797 -0.039551 2.6391 0.107103 -2.658 192 192 192 255 0.232967 0.44366
0.057562 0.153558 -0.046935 0.873372 4.46126 -1.74669 192 192 192 255 0.232967 0.44366
-0.057562 0.153558 -0.046935 -1.74674 4.46121 -0.873344 192 192 192 255 0.232967 0.44366
-0.057562 0.153558 -0.046935 -1.74674 4.46121 -0.873344 192 192 192 255 0.265343 0.06
0.057562 0.153558 -0.046935 0.873372 4.46126 -1.74669 192 192 192 255 0.265343 0.06
0.057562 0.153558 0.068189 1.74674 4.46116 0.873372 192 192 192 255 0.265343 0.06
-0.057562 0.153558 0.068189 -0.873372 4.46116 1.74674 192 192 192 255 0.265343 0.06
-0.095408 0.153558 -0.115663 -1 3 -2 192 192 192 255 0.236257 0.06
0.095408 0.153558 -0.115663 2 3 -1 192 192 192 255 0.236257 0.06
0.095408 0 -0.115663 1 -1 -2 192 192 192 255 0.236257 0.06
-0.095408 0 -0.115663 -2 -2 -1 192 192 192 255 0.236257 0.06
0.095408 0.153558 -0.115663 2 3 -1 192 192 192 255 0.207979 0.06
0.095408 0.153558 0.136918 1 3 2 192 192 192 255 0.207979 0.06
0.095408 0 0.136918 2 -2 1 192 192 192 255 0.207979 0.06
0.095408 0 -0.115663 1 -1 -2 192 192 192 255 0.207979 0.06
0.095408 0.153558 0.136918 1 3 2 192 192 192 255 0.236257 0.06
-0.095408 0.153558 0.136918 -2 3 1 192 192 192 255 0.236257 0.06
-0.095408 0 0.136918 -1 -1 2 192 192 192 255 0.236257 0.06
0.095408 0 0.136918 2 -2 1 192 192 192 255 0.236257 0.06
-0.095408 0.153558 0.136918 -2 3 1 192 192 192 255 0.207979 0.06
-0.095408 0.153558 -0.115663 -1 3 -2 192 192 192 255 0.207979 0.06
-0.095408 0 -0.115663 -2 -2 -1 192 192 192 255 0.207979 0.06
-0.095408 0 0.136918 -1 -1 2 192 192 192 255 0.207979 0.06
3 9 10 12 
3 9 12 13 
3 28 29 30 
3 28 30 31 
3 14 15 11 
3 14 11 8 
3 64 65 66 
3 64 66 67 
3 68 69 70 
3 68 70 71 
3 72 73 74 
3 72 74 75 
3 48 49 53 
3 48 53 54 
3 76 50 52 
3 76 52 77 
3 78 51 55 
3 78 55 79 
3 80 81 82 
3 80 82 83 
3 21 22 16 
3 21 16 17 
3 20 84 85 
3 20 85 18 
3 86 19 23 
3 86 23 87 
3 88 89 90 
3 88 90 91 
3 92 93 3 
3 92 3 2 
3 94 95 96 
3 94 96 4 
3 97 5 98 
3 97 98 99 
3 100 101 102 
3 100 102 103 
3 36 37 104 
3 36 104 105 
3 106 38 107 
3 106 107 108 
3 109 39 110 
3 109 110 111 
3 112 113 114 
3 112 114 115 
3 116 117 25 
3 116 25 24 
3 117 118 26 
3 117 26 25 
3 118 119 27 
3 118 27 26 
3 119 116 24 
3 119 24 27 
3 32 33 34 
3 32 34 35 
3 120 121 122 
3 120 122 123 
3 124 125 126 
3 124 126 127 
3 128 129 130 
3 128 130 131 
3 132 133 134 
3 132 134 135 
3 133 136 137 
3 133 137 134 
3 136 138 139 
3 136 139 137 
3 138 132 135 
3 138 135 139 
3 41 40 42 
3 41 42 43 
3 140 44 45 
3 140 45 141 
3 142 46 47 
3 142 47 143 
3 144 145 146 
3 144 146 147 
3 148 149 150 
3 148 150 151 
3 152 153 154 
3 152 154 155 
3 149 156 157 
3 149 157 150 
3 158 152 155 
3 158 155 159 
3 156 160 161 
3 156 161 157 
3 162 158 159 
3 162 159 163 
3 153 162 163 
3 153 163 154 
3 160 148 151 
3 160 151 161 
3 56 57 164 
3 56 164 165 
3 166 58 167 
3 166 167 168 
3 169 59 170 
3 169 170 171 
3 172 173 174 
3 172 174 175 
3 176 177 178 
3 176 178 179 
3 180 181 182 
3 180 182 183 
3 184 185 186 
3 184 186 187 
3 188 189 190 
3 188 190 191 
3 6 0 192 
3 6 192 193 
3 194 1 195 
3 194 195 196 
3 197 7 198 
3 197 198 199 
3 200 201 202 
3 200 202 203 
3 204 205 61 
3 204 61 60 
3 205 206 62 
3 205 62 61 
3 206 207 63 
3 206 63 62 
3 207 204 60 
3 207 60 63 
3 208 209 210 
3 208 210 211 
3 212 213 214 
3 212 214 215 
3 216 217 218 
3 216 218 219 
3 220 221 222 
3 220 222 223 
