ply
format ascii 1.0
comment VCGLIB generated
comment TextureFile SpaceInteriors_Texture.png
element vertex 88
property float x
property float y
property float z
property float nx
property float ny
property float nz
property uchar red
property uchar green
property uchar blue
property uchar alpha
property float texture_u
property float texture_v
element face 58
property list uchar int vertex_indices
end_header
1.00001 0 0.099625 2 -3 1 192 192 192 255 0.296575 0.061667
1.00001 0 0 1 -1 0 192 192 192 255 0.296575 0.061667
-1.31491 5 0.099625 1 2 1 192 192 192 255 0.39646 0.061667
-1.31491 5 0 2 2 0 192 192 192 255 0.39646 0.061667
-2.31491 5 0.099625 -2 3 1 192 192 192 255 0.39646 0.061667
-2.31491 5 0 -1 1 0 192 192 192 255 0.39646 0.061667
8e-006 0 0.099625 -1 -2 2 192 192 192 255 0.296575 0.061667
8e-006 0 0 -2 -2 0 192 192 192 255 0.296575 0.061667
-1.3894 5 0.099625 -2 1 2 192 192 192 255 0.39646 0.061667
-1.56491 5 0 0 0 0 192 192 192 255 2.8026e-045 9.7086e+022
0.750008 0 0 0 0 0 192 192 192 255 0 1.875
0.925514 0 0.099625 -2 -1 2 192 192 192 255 0.296575 0.061667
0.250008 0 0 0 0 0 192 192 192 255 0 1.875
-2.06491 5 0 0 0 0 192 192 192 255 0 0
-2.24042 5 0.099625 2 1 2 192 192 192 255 0.39646 0.061667
0.074501 0 0.099625 2 -1 1 192 192 192 255 0.296575 0.061667
-2.24042 5 0 0 4 0 192 192 192 255 0.29916 0.086662
-2.24042 5 0.076889 1 3 2 192 192 192 255 0.29916 0.086662
0.074501 0 0.076889 1 -5 2 192 192 192 255 0.199275 0.086662
0.074501 0 0 0 -2 0 192 192 192 255 0.199275 0.086662
-1.3894 5 0.076889 -1 5 1 192 192 192 255 0.29916 0.086662
-1.3894 5 0 0 2 0 192 192 192 255 0.29916 0.086662
0.925514 0 0 0 -4 0 192 192 192 255 0.199275 0.086662
0.925514 0 0.076889 -1 -3 1 192 192 192 255 0.199275 0.086662
-1.31491 4.1131 0 2.53814 1.27833 0 192 192 192 255 0.361595 0.061667
-1.31491 4.1131 0.099625 2.76907 0.639167 4 192 192 192 255 0.361595 0.061667
-1.3894 4.1131 0.099625 -2.53814 -1.27833 2 192 192 192 255 0.329556 0.061667
-1.3894 4.1131 0.076889 -2.76907 -0.639167 4 192 192 192 255 0.64553 0.504446
-2.24042 3.7643 0.076889 3.53814 1.27833 2 192 192 192 255 0.57737 0.504245
-2.24042 3.7643 0.099625 1.76907 0.639166 3 192 192 192 255 0.329556 0.061667
-2.31491 3.7643 0.099625 -2.53814 -1.27833 3 192 192 192 255 0.361595 0.061667
-2.31491 3.7643 0 -2.76907 -0.639167 0 192 192 192 255 0.361595 0.061667
8e-006 0.978907 0 -2.53814 -1.27833 0 192 192 192 255 0.361595 0.061667
8e-006 0.978907 0.099625 -2.76907 -0.639167 3 192 192 192 255 0.361595 0.061667
0.074501 0.978907 0.099625 2.53814 1.27833 3 192 192 192 255 0.329556 0.061667
0.074501 0.978907 0.076889 2.76907 0.639166 3 192 192 192 255 0.577312 0.502637
0.925514 1.32771 0.076889 -3.53814 -1.27833 3 192 192 192 255 0.645541 0.502838
0.925514 1.32771 0.099625 -1.76907 -0.639167 3 192 192 192 255 0.329556 0.061667
1.00001 1.32771 0.099625 2.53814 1.27833 3 192 192 192 255 0.361595 0.061667
1.00001 1.32771 0 2.76907 0.639167 0 192 192 192 255 0.361595 0.061667
-1.31491 4.1131 0.099625 2.76907 0.639167 4 192 192 192 255 0.329556 0.061667
1.00001 1.32771 0.099625 2.53814 1.27833 3 192 192 192 255 0.329556 0.061667
8e-006 0.978907 0.099625 -2.76907 -0.639167 3 192 192 192 255 0.329556 0.061667
-2.31491 3.7643 0.099625 -2.53814 -1.27833 3 192 192 192 255 0.329556 0.061667
-2.24042 5 0.076889 1 3 2 192 192 192 255 0.39646 0.061667
-2.24042 5 0 0 4 0 192 192 192 255 0.39646 0.061667
0.074501 0 0.076889 1 -5 2 192 192 192 255 0.296575 0.061667
0.074501 0 0 0 -2 0 192 192 192 255 0.296575 0.061667
-2.24042 3.7643 0.076889 3.53814 1.27833 2 192 192 192 255 0.269081 0.061667
-2.24042 3.7643 0.099625 1.76907 0.639166 3 192 192 192 255 0.269081 0.061667
0.074501 0.978907 0.099625 2.53814 1.27833 3 192 192 192 255 0.269081 0.061667
0.074501 0.978907 0.076889 2.76907 0.639166 3 192 192 192 255 0.269081 0.061667
-1.3894 5 0.076889 -1 5 1 192 192 192 255 0.39646 0.061667
-1.3894 5 0 0 2 0 192 192 192 255 0.39646 0.061667
0.925514 0 0.076889 -1 -3 1 192 192 192 255 0.296575 0.061667
0.925514 0 0 0 -4 0 192 192 192 255 0.296575 0.061667
0.925514 1.32771 0.076889 -3.53814 -1.27833 3 192 192 192 255 0.269081 0.061667
0.925514 1.32771 0.099625 -1.76907 -0.639167 3 192 192 192 255 0.269081 0.061667
-1.3894 4.1131 0.099625 -2.53814 -1.27833 2 192 192 192 255 0.269081 0.061667
-1.3894 4.1131 0.076889 -2.76907 -0.639167 4 192 192 192 255 0.269081 0.061667
-1.31491 5 0 2 2 0 192 192 192 255 0.361595 0.061667
-1.31491 5 0.099625 1 2 1 192 192 192 255 0.361595 0.061667
-1.3894 5 0.099625 -2 1 2 192 192 192 255 0.329556 0.061667
-1.31491 5 0.099625 1 2 1 192 192 192 255 0.329556 0.061667
-1.3894 5 0.099625 -2 1 2 192 192 192 255 0.269081 0.061667
-1.3894 5 0.076889 -1 5 1 192 192 192 255 0.269081 0.061667
-2.24042 5 0.076889 1 3 2 192 192 192 255 0.57737 0.504958
-1.3894 5 0.076889 -1 5 1 192 192 192 255 0.64553 0.504958
-2.24042 5 0.099625 2 1 2 192 192 192 255 0.269081 0.061667
-2.24042 5 0.076889 1 3 2 192 192 192 255 0.269081 0.061667
-2.24042 5 0.099625 2 1 2 192 192 192 255 0.329556 0.061667
-2.31491 5 0.099625 -2 3 1 192 192 192 255 0.329556 0.061667
-2.31491 5 0.099625 -2 3 1 192 192 192 255 0.361595 0.061667
-2.31491 5 0 -1 1 0 192 192 192 255 0.361595 0.061667
8e-006 0 0 -2 -2 0 192 192 192 255 0.361595 0.061667
8e-006 0 0.099625 -1 -2 2 192 192 192 255 0.361595 0.061667
8e-006 0 0.099625 -1 -2 2 192 192 192 255 0.329556 0.061667
0.074501 0 0.099625 2 -1 1 192 192 192 255 0.329556 0.061667
0.074501 0 0.099625 2 -1 1 192 192 192 255 0.269081 0.061667
0.074501 0 0.076889 1 -5 2 192 192 192 255 0.269081 0.061667
0.074501 0 0.076889 1 -5 2 192 192 192 255 0.577312 0.502072
0.925514 0 0.076889 -1 -3 1 192 192 192 255 0.645541 0.502072
0.925514 0 0.099625 -2 -1 2 192 192 192 255 0.269081 0.061667
0.925514 0 0.076889 -1 -3 1 192 192 192 255 0.269081 0.061667
0.925514 0 0.099625 -2 -1 2 192 192 192 255 0.329556 0.061667
1.00001 0 0.099625 2 -3 1 192 192 192 255 0.329556 0.061667
1.00001 0 0.099625 2 -3 1 192 192 192 255 0.361595 0.061667
1.00001 0 0 1 -1 0 192 192 192 255 0.361595 0.061667
3 38 39 24 
3 38 24 25 
3 16 17 20 
3 16 20 21 
3 30 31 32 
3 30 32 33 
3 18 19 22 
3 18 22 23 
3 27 28 35 
3 27 35 36 
3 40 26 37 
3 40 37 41 
3 42 34 29 
3 42 29 43 
3 4 14 44 
3 4 44 45 
3 4 45 5 
3 46 15 6 
3 46 6 7 
3 46 7 47 
3 48 49 50 
3 48 50 51 
3 52 8 2 
3 52 2 3 
3 52 3 53 
3 0 11 54 
3 0 54 55 
3 0 55 1 
3 56 57 58 
3 56 58 59 
3 25 24 60 
3 25 60 61 
3 62 26 40 
3 62 40 63 
3 59 58 64 
3 59 64 65 
3 66 28 27 
3 66 27 67 
3 68 49 48 
3 68 48 69 
3 43 29 70 
3 43 70 71 
3 72 73 31 
3 72 31 30 
3 33 32 74 
3 33 74 75 
3 76 77 34 
3 76 34 42 
3 51 50 78 
3 51 78 79 
3 36 35 80 
3 36 80 81 
3 82 57 56 
3 82 56 83 
3 41 37 84 
3 41 84 85 
3 86 87 39 
3 86 39 38 
