ply
format ascii 1.0
comment VCGLIB generated
comment TextureFile SpaceInteriors_Texture.png
element vertex 88
property float x
property float y
property float z
property float nx
property float ny
property float nz
property uchar red
property uchar green
property uchar blue
property uchar alpha
property float texture_u
property float texture_v
element face 58
property list uchar int vertex_indices
end_header
1 0 0.099625 2 -3 1 192 192 192 255 0.296575 0.061667
1 0 0 1 -1 0 192 192 192 255 0.296575 0.061667
0.241096 5 0.099625 1 2 1 192 192 192 255 0.39646 0.061667
0.241096 5 0 2 2 0 192 192 192 255 0.39646 0.061667
-0.758904 5 0.099625 -2 3 1 192 192 192 255 0.39646 0.061667
-0.758904 5 0 -1 1 0 192 192 192 255 0.39646 0.061667
0 0 0.099625 -1 -2 2 192 192 192 255 0.296575 0.061667
0 0 0 -2 -2 0 192 192 192 255 0.296575 0.061667
0.166603 5 0.099625 -2 1 2 192 192 192 255 0.39646 0.061667
-0.008904 5 0 0 0 0 192 192 192 255 0 0
0.75 0 0 0 0 0 192 192 192 255 0 0
0.925507 0 0.099625 -2 -1 2 192 192 192 255 0.296575 0.061667
0.25 0 0 0 0 0 192 192 192 255 0 0
-0.508904 5 0 0 0 0 192 192 192 255 0 0
-0.68441 5 0.099625 2 1 2 192 192 192 255 0.39646 0.061667
0.074493 0 0.099625 2 -1 1 192 192 192 255 0.296575 0.061667
-0.68441 5 0 0 4 0 192 192 192 255 0.29916 0.086662
-0.68441 5 0.076889 1 3 2 192 192 192 255 0.29916 0.086662
0.074493 0 0.076889 1 -5 2 192 192 192 255 0.199275 0.086662
0.074493 0 0 0 -2 0 192 192 192 255 0.199275 0.086662
0.166603 5 0.076889 -1 5 1 192 192 192 255 0.29916 0.086662
0.166603 5 0 0 2 0 192 192 192 255 0.29916 0.086662
0.925507 0 0 0 -4 0 192 192 192 255 0.199275 0.086662
0.925507 0 0.076889 -1 -3 1 192 192 192 255 0.199275 0.086662
0.241096 3.68934 0 2.51195 1.3092 0 192 192 192 255 0.361595 0.061667
0.241096 3.68934 0.099625 2.75598 0.654598 4 192 192 192 255 0.361595 0.061667
0.166603 3.68934 0.099625 -2.51195 -1.3092 2 192 192 192 255 0.329556 0.061667
0.166603 3.68934 0.076889 -2.75598 -0.654598 4 192 192 192 255 0.645545 0.504201
-0.68441 3.35069 0.076889 3.51196 1.30919 2 192 192 192 255 0.577296 0.504006
-0.68441 3.35069 0.099625 1.75598 0.654597 3 192 192 192 255 0.329556 0.061667
-0.758904 3.35069 0.099625 -2.51196 -1.3092 3 192 192 192 255 0.361595 0.061667
-0.758904 3.35069 0 -2.75598 -0.654598 0 192 192 192 255 0.361595 0.061667
0 2.47425 0 -2.51196 -1.3092 0 192 192 192 255 0.361595 0.061667
0 2.47425 0.099625 -2.75598 -0.654598 3 192 192 192 255 0.361595 0.061667
0.074493 2.47425 0.099625 2.51196 1.30919 3 192 192 192 255 0.329556 0.061667
0.074493 2.47425 0.076889 2.75598 0.654597 3 192 192 192 255 0.577358 0.5035
0.925507 2.8129 0.076889 -3.51195 -1.3092 3 192 192 192 255 0.645541 0.503695
0.925507 2.8129 0.099625 -1.75598 -0.654598 3 192 192 192 255 0.329556 0.061667
1 2.8129 0.099625 2.51195 1.3092 3 192 192 192 255 0.361595 0.061667
1 2.8129 0 2.75598 0.654598 0 192 192 192 255 0.361595 0.061667
0.241096 3.68934 0.099625 2.75598 0.654598 4 192 192 192 255 0.329556 0.061667
1 2.8129 0.099625 2.51195 1.3092 3 192 192 192 255 0.329556 0.061667
0 2.47425 0.099625 -2.75598 -0.654598 3 192 192 192 255 0.329556 0.061667
-0.758904 3.35069 0.099625 -2.51196 -1.3092 3 192 192 192 255 0.329556 0.061667
-0.68441 5 0.076889 1 3 2 192 192 192 255 0.39646 0.061667
-0.68441 5 0 0 4 0 192 192 192 255 0.39646 0.061667
0.074493 0 0.076889 1 -5 2 192 192 192 255 0.296575 0.061667
0.074493 0 0 0 -2 0 192 192 192 255 0.296575 0.061667
-0.68441 3.35069 0.076889 3.51196 1.30919 2 192 192 192 255 0.269081 0.061667
-0.68441 3.35069 0.099625 1.75598 0.654597 3 192 192 192 255 0.269081 0.061667
0.074493 2.47425 0.099625 2.51196 1.30919 3 192 192 192 255 0.269081 0.061667
0.074493 2.47425 0.076889 2.75598 0.654597 3 192 192 192 255 0.269081 0.061667
0.166603 5 0.076889 -1 5 1 192 192 192 255 0.39646 0.061667
0.166603 5 0 0 2 0 192 192 192 255 0.39646 0.061667
0.925507 0 0.076889 -1 -3 1 192 192 192 255 0.296575 0.061667
0.925507 0 0 0 -4 0 192 192 192 255 0.296575 0.061667
0.925507 2.8129 0.076889 -3.51195 -1.3092 3 192 192 192 255 0.269081 0.061667
0.925507 2.8129 0.099625 -1.75598 -0.654598 3 192 192 192 255 0.269081 0.061667
0.166603 3.68934 0.099625 -2.51195 -1.3092 2 192 192 192 255 0.269081 0.061667
0.166603 3.68934 0.076889 -2.75598 -0.654598 4 192 192 192 255 0.269081 0.061667
0.241096 5 0 2 2 0 192 192 192 255 0.361595 0.061667
0.241096 5 0.099625 1 2 1 192 192 192 255 0.361595 0.061667
0.166603 5 0.099625 -2 1 2 192 192 192 255 0.329556 0.061667
0.241096 5 0.099625 1 2 1 192 192 192 255 0.329556 0.061667
0.166603 5 0.099625 -2 1 2 192 192 192 255 0.269081 0.061667
0.166603 5 0.076889 -1 5 1 192 192 192 255 0.269081 0.061667
-0.68441 5 0.076889 1 3 2 192 192 192 255 0.577296 0.504958
0.166603 5 0.076889 -1 5 1 192 192 192 255 0.645545 0.504958
-0.68441 5 0.099625 2 1 2 192 192 192 255 0.269081 0.061667
-0.68441 5 0.076889 1 3 2 192 192 192 255 0.269081 0.061667
-0.68441 5 0.099625 2 1 2 192 192 192 255 0.329556 0.061667
-0.758904 5 0.099625 -2 3 1 192 192 192 255 0.329556 0.061667
-0.758904 5 0.099625 -2 3 1 192 192 192 255 0.361595 0.061667
-0.758904 5 0 -1 1 0 192 192 192 255 0.361595 0.061667
0 0 0 -2 -2 0 192 192 192 255 0.361595 0.061667
0 0 0.099625 -1 -2 2 192 192 192 255 0.361595 0.061667
0 0 0.099625 -1 -2 2 192 192 192 255 0.329556 0.061667
0.074493 0 0.099625 2 -1 1 192 192 192 255 0.329556 0.061667
0.074493 0 0.099625 2 -1 1 192 192 192 255 0.269081 0.061667
0.074493 0 0.076889 1 -5 2 192 192 192 255 0.269081 0.061667
0.074493 0 0.076889 1 -5 2 192 192 192 255 0.577358 0.502072
0.925507 0 0.076889 -1 -3 1 192 192 192 255 0.645541 0.502072
0.925507 0 0.099625 -2 -1 2 192 192 192 255 0.269081 0.061667
0.925507 0 0.076889 -1 -3 1 192 192 192 255 0.269081 0.061667
0.925507 0 0.099625 -2 -1 2 192 192 192 255 0.329556 0.061667
1 0 0.099625 2 -3 1 192 192 192 255 0.329556 0.061667
1 0 0.099625 2 -3 1 192 192 192 255 0.361595 0.061667
1 0 0 1 -1 0 192 192 192 255 0.361595 0.061667
3 38 39 24 
3 38 24 25 
3 16 17 20 
3 16 20 21 
3 30 31 32 
3 30 32 33 
3 18 19 22 
3 18 22 23 
3 27 28 35 
3 27 35 36 
3 40 26 37 
3 40 37 41 
3 42 34 29 
3 42 29 43 
3 4 14 44 
3 4 44 45 
3 4 45 5 
3 46 15 6 
3 46 6 7 
3 46 7 47 
3 48 49 50 
3 48 50 51 
3 52 8 2 
3 52 2 3 
3 52 3 53 
3 0 11 54 
3 0 54 55 
3 0 55 1 
3 56 57 58 
3 56 58 59 
3 25 24 60 
3 25 60 61 
3 62 26 40 
3 62 40 63 
3 59 58 64 
3 59 64 65 
3 66 28 27 
3 66 27 67 
3 68 49 48 
3 68 48 69 
3 43 29 70 
3 43 70 71 
3 72 73 31 
3 72 31 30 
3 33 32 74 
3 33 74 75 
3 76 77 34 
3 76 34 42 
3 51 50 78 
3 51 78 79 
3 36 35 80 
3 36 80 81 
3 82 57 56 
3 82 56 83 
3 41 37 84 
3 41 84 85 
3 86 87 39 
3 86 39 38 
