ply
format ascii 1.0
comment VCGLIB generated
comment TextureFile SpaceInteriors_Texture.png
element vertex 84
property float x
property float y
property float z
property float nx
property float ny
property float nz
property uchar red
property uchar green
property uchar blue
property uchar alpha
property float texture_u
property float texture_v
element face 52
property list uchar int vertex_indices
end_header
-1.1803 -5.01531 1.1803 -2.56057 2.48434 2.12112 192 192 192 255 0.361735 0.085466
1.1803 -5.01531 1.1803 2.12114 2.48433 2.56056 192 192 192 255 0.393774 0.085466
-0.172365 -0 0.17234 -2 2 1 192 192 192 255 0.265187 0.061667
0.172372 -0 0.17234 1 1 2 192 192 192 255 0.265187 0.061667
-0.172365 -0 -0.172356 -1 1 -2 192 192 192 255 0.300052 0.061667
0.172372 -0 -0.172356 2 2 -1 192 192 192 255 0.300052 0.061667
-1.1803 -5.01531 -1.1803 -2.12114 2.48433 -2.56057 192 192 192 255 0.361735 0.085466
1.1803 -5.01531 -1.1803 2.56057 2.48433 -2.12113 192 192 192 255 0.361735 0.085466
-0.172365 -4.33302 -0.172356 -2.56057 2.48433 -2.12113 192 192 192 255 0.265187 0.061667
-0.172365 -4.33302 0.17234 -2.12114 2.48433 2.56056 192 192 192 255 0.265187 0.061667
0.172372 -4.33302 0.17234 2.56057 2.48434 2.12112 192 192 192 255 0.265187 0.061667
0.172372 -4.33302 -0.172356 2.12114 2.48432 -2.56057 192 192 192 255 0.265187 0.061667
-1.1803 -5.20897 -1.1803 -2 -3 -1 192 192 192 255 0.360615 0.085466
1.1803 -5.20897 -1.1803 1 -3 -2 192 192 192 255 0.360615 0.085466
1.1803 -5.20897 1.1803 2 -3 1 192 192 192 255 0.328755 0.085466
-1.1803 -5.20897 1.1803 -1 -3 2 192 192 192 255 0.360615 0.085466
-0.956622 -5.20897 -0.956619 0.541713 -5.52169 1.08343 192 192 192 255 0.302033 0.085466
0.956628 -5.20897 -0.956619 -1.08342 -5.52169 0.541715 192 192 192 255 0.302033 0.085466
0.956628 -5.20897 0.956619 -0.541712 -5.52168 -1.08344 192 192 192 255 0.302033 0.085466
-0.956622 -5.20897 0.956619 1.08343 -5.52169 -0.541719 192 192 192 255 0.302033 0.085466
-0.116819 -4.66775 -0.116821 0.0834262 -2.52169 -1.45828 192 192 192 255 0.423308 0.085466
0.116823 -4.66775 -0.116821 1.45829 -2.52169 0.0834306 192 192 192 255 0.423308 0.085466
0.116823 -4.66775 0.116829 -0.0834243 -2.52169 1.45828 192 192 192 255 0.396586 0.085466
-0.116819 -4.66775 0.116829 -1.45829 -2.52168 -0.083438 192 192 192 255 0.423308 0.085466
-0.116819 -5.0733 -0.116821 -2 -2 -1 192 192 192 255 0.481388 0.085466
0.116823 -5.0733 -0.116821 1 -1 -2 192 192 192 255 0.481388 0.085466
0.116823 -5.0733 0.116829 2 -2 1 192 192 192 255 0.481388 0.085466
-0.116819 -5.0733 0.116829 -1 -1 2 192 192 192 255 0.481388 0.085466
-0.172365 -0 0.17234 -2 2 1 192 192 192 255 0.300052 0.061667
0.172372 -0 0.17234 1 1 2 192 192 192 255 0.300052 0.061667
-0.172365 -0 -0.172356 -1 1 -2 192 192 192 255 0.265187 0.061667
0.172372 -0 -0.172356 2 2 -1 192 192 192 255 0.265187 0.061667
0.172372 -4.33302 0.17234 2.56057 2.48434 2.12112 192 192 192 255 0.233148 0.061667
0.172372 -4.33302 -0.172356 2.12114 2.48432 -2.56057 192 192 192 255 0.233148 0.061667
0.172372 -0 -0.172356 2 2 -1 192 192 192 255 0.233148 0.061667
0.172372 -0 0.17234 1 1 2 192 192 192 255 0.233148 0.061667
-0.172365 -4.33302 -0.172356 -2.56057 2.48433 -2.12113 192 192 192 255 0.233148 0.061667
-0.172365 -4.33302 0.17234 -2.12114 2.48433 2.56056 192 192 192 255 0.233148 0.061667
-0.172365 -0 0.17234 -2 2 1 192 192 192 255 0.233148 0.061667
-0.172365 -0 -0.172356 -1 1 -2 192 192 192 255 0.233148 0.061667
-0.172365 -4.33302 0.17234 -2.12114 2.48433 2.56056 192 192 192 255 0.361735 0.085466
-0.172365 -4.33302 -0.172356 -2.56057 2.48433 -2.12113 192 192 192 255 0.361735 0.085466
-1.1803 -5.01531 1.1803 -2.56057 2.48434 2.12112 192 192 192 255 0.393774 0.085466
0.172372 -4.33302 0.17234 2.56057 2.48434 2.12112 192 192 192 255 0.393774 0.085466
-0.172365 -4.33302 0.17234 -2.12114 2.48433 2.56056 192 192 192 255 0.393774 0.085466
1.1803 -5.01531 1.1803 2.12114 2.48433 2.56056 192 192 192 255 0.361735 0.085466
0.172372 -4.33302 -0.172356 2.12114 2.48432 -2.56057 192 192 192 255 0.361735 0.085466
0.172372 -4.33302 0.17234 2.56057 2.48434 2.12112 192 192 192 255 0.361735 0.085466
-0.172365 -4.33302 -0.172356 -2.56057 2.48433 -2.12113 192 192 192 255 0.393774 0.085466
0.172372 -4.33302 -0.172356 2.12114 2.48432 -2.56057 192 192 192 255 0.393774 0.085466
1.1803 -5.01531 -1.1803 2.56057 2.48433 -2.12113 192 192 192 255 0.393774 0.085466
-1.1803 -5.01531 -1.1803 -2.12114 2.48433 -2.56057 192 192 192 255 0.393774 0.085466
-1.1803 -5.01531 -1.1803 -2.12114 2.48433 -2.56057 192 192 192 255 0.360615 0.085466
1.1803 -5.01531 -1.1803 2.56057 2.48433 -2.12113 192 192 192 255 0.360615 0.085466
1.1803 -5.01531 -1.1803 2.56057 2.48433 -2.12113 192 192 192 255 0.328755 0.085466
1.1803 -5.01531 1.1803 2.12114 2.48433 2.56056 192 192 192 255 0.328755 0.085466
1.1803 -5.20897 -1.1803 1 -3 -2 192 192 192 255 0.328755 0.085466
1.1803 -5.01531 1.1803 2.12114 2.48433 2.56056 192 192 192 255 0.360615 0.085466
-1.1803 -5.01531 1.1803 -2.56057 2.48434 2.12112 192 192 192 255 0.360615 0.085466
1.1803 -5.20897 1.1803 2 -3 1 192 192 192 255 0.360615 0.085466
-1.1803 -5.01531 1.1803 -2.56057 2.48434 2.12112 192 192 192 255 0.328755 0.085466
-1.1803 -5.01531 -1.1803 -2.12114 2.48433 -2.56057 192 192 192 255 0.328755 0.085466
-1.1803 -5.20897 -1.1803 -2 -3 -1 192 192 192 255 0.328755 0.085466
-1.1803 -5.20897 1.1803 -1 -3 2 192 192 192 255 0.328755 0.085466
-1.1803 -5.20897 -1.1803 -2 -3 -1 192 192 192 255 0.302033 0.085466
1.1803 -5.20897 -1.1803 1 -3 -2 192 192 192 255 0.302033 0.085466
1.1803 -5.20897 1.1803 2 -3 1 192 192 192 255 0.302033 0.085466
-1.1803 -5.20897 1.1803 -1 -3 2 192 192 192 255 0.302033 0.085466
-0.956622 -5.20897 -0.956619 0.541713 -5.52169 1.08343 192 192 192 255 0.423308 0.085466
0.956628 -5.20897 -0.956619 -1.08342 -5.52169 0.541715 192 192 192 255 0.423308 0.085466
0.956628 -5.20897 -0.956619 -1.08342 -5.52169 0.541715 192 192 192 255 0.396586 0.085466
0.956628 -5.20897 0.956619 -0.541712 -5.52168 -1.08344 192 192 192 255 0.396586 0.085466
0.116823 -4.66775 -0.116821 1.45829 -2.52169 0.0834306 192 192 192 255 0.396586 0.085466
0.956628 -5.20897 0.956619 -0.541712 -5.52168 -1.08344 192 192 192 255 0.423308 0.085466
-0.956622 -5.20897 0.956619 1.08343 -5.52169 -0.541719 192 192 192 255 0.423308 0.085466
0.116823 -4.66775 0.116829 -0.0834243 -2.52169 1.45828 192 192 192 255 0.423308 0.085466
-0.956622 -5.20897 0.956619 1.08343 -5.52169 -0.541719 192 192 192 255 0.396586 0.085466
-0.956622 -5.20897 -0.956619 0.541713 -5.52169 1.08343 192 192 192 255 0.396586 0.085466
-0.116819 -4.66775 -0.116821 0.0834262 -2.52169 -1.45828 192 192 192 255 0.396586 0.085466
-0.116819 -4.66775 0.116829 -1.45829 -2.52168 -0.083438 192 192 192 255 0.396586 0.085466
-0.116819 -4.66775 -0.116821 0.0834262 -2.52169 -1.45828 192 192 192 255 0.481388 0.085466
0.116823 -4.66775 -0.116821 1.45829 -2.52169 0.0834306 192 192 192 255 0.481388 0.085466
0.116823 -4.66775 0.116829 -0.0834243 -2.52169 1.45828 192 192 192 255 0.481388 0.085466
-0.116819 -4.66775 0.116829 -1.45829 -2.52168 -0.083438 192 192 192 255 0.481388 0.085466
3 9 10 3 
3 9 3 2 
3 28 29 5 
3 28 5 4 
3 30 31 11 
3 30 11 8 
3 24 25 26 
3 24 26 27 
3 32 33 34 
3 32 34 35 
3 36 37 38 
3 36 38 39 
3 6 0 40 
3 6 40 41 
3 42 1 43 
3 42 43 44 
3 45 7 46 
3 45 46 47 
3 48 49 50 
3 48 50 51 
3 52 53 13 
3 52 13 12 
3 54 55 14 
3 54 14 56 
3 57 58 15 
3 57 15 59 
3 60 61 62 
3 60 62 63 
3 64 65 17 
3 64 17 16 
3 65 66 18 
3 65 18 17 
3 66 67 19 
3 66 19 18 
3 67 64 16 
3 67 16 19 
3 68 69 21 
3 68 21 20 
3 70 71 22 
3 70 22 72 
3 73 74 23 
3 73 23 75 
3 76 77 78 
3 76 78 79 
3 80 81 25 
3 80 25 24 
3 81 82 26 
3 81 26 25 
3 82 83 27 
3 82 27 26 
3 83 80 24 
3 83 24 27 
