ply
format ascii 1.0
comment VCGLIB generated
comment TextureFile SpaceInteriors_Texture.png
element vertex 132
property float x
property float y
property float z
property float nx
property float ny
property float nz
property uchar red
property uchar green
property uchar blue
property uchar alpha
property float texture_u
property float texture_v
element face 106
property list uchar int vertex_indices
end_header
-4.89905 1.25498 -3.3985 3 -1.00003 1.00001 192 192 192 255 0.167607 0.061667
-4.89905 1.25498 -4.01791 3 -2.00001 -2.00003 192 192 192 255 0.167607 0.061667
-4.89905 1.8744 -3.3985 3 2.00001 2.00003 192 192 192 255 0.267492 0.061667
-4.89905 1.8744 -4.01791 3 1.00003 -1.00001 192 192 192 255 0.267492 0.061667
-5 1.8744 -3.3985 0 1 1 192 192 192 255 0.267492 0.061667
-5 1.8744 -4.01791 0 2 -2 192 192 192 255 0.267492 0.061667
-5 1.25498 -3.3985 0 -2 2 192 192 192 255 0.167607 0.061667
-5 1.25498 -4.01791 0 -1 -1 192 192 192 255 0.167607 0.061667
-4.89904 1.38825 -3.53176 2.3871 -1.8568 1.05125 192 192 192 255 0.232626 0.061667
-4.89904 1.38825 -3.88464 2.67094 -1.06716 -1.9654 192 192 192 255 0.232626 0.061667
-4.89904 1.74113 -3.88464 4.05204 1.6425 -1.06921 192 192 192 255 0.232626 0.061667
-4.89904 1.74113 -3.53176 3.76401 0.858964 1.94872 192 192 192 255 0.232626 0.061667
-0.444763 0 0 -1 -1 2 192 192 192 255 0.232626 0.061667
0 0 0 2 -2 1 192 192 192 255 0.232626 0.061667
-0.444763 0.182176 0 -2 3 1 192 192 192 255 0.232626 0.061667
0 0.182176 0 1 3 2 192 192 192 255 0.232626 0.061667
-0.444763 0.182176 -0.444765 -1 3 -2 192 192 192 255 0.232626 0.061667
0 0.182176 -0.444765 2 3 -1 192 192 192 255 0.232626 0.061667
-0.444763 0 -0.444765 -2 -2 -1 192 192 192 255 0.232626 0.061667
0 0 -0.444765 1 -1 -2 192 192 192 255 0.232626 0.061667
-0.353823 0.182176 -0.090942 -0.988996 2.90022 1.92631 192 192 192 255 0.267492 0.061667
-0.09094 0.182176 -0.090942 1.72154 4.10294 1.05536 192 192 192 255 0.267492 0.061667
-0.09094 0.182176 -0.353822 1.01552 3.04783 -1.91615 192 192 192 255 0.267492 0.061667
-0.353823 0.182176 -0.353822 -1.68022 1.818 -1.04082 192 192 192 255 0.267492 0.061667
-0.46199 0.361437 -0.148888 -2.65679 -1.55968 2.78723 192 192 192 255 0.202829 0.22105
-0.293041 0.562353 -0.162948 0.645449 2.93412 2.83909 192 192 192 255 0.202829 0.22105
-0.239006 0.499457 -0.412408 2.78802 1.47447 -2.7503 192 192 192 255 0.265046 0.22105
-0.407949 0.298541 -0.398346 -0.432337 -3.00058 -2.78086 192 192 192 255 0.202829 0.22105
-0.757935 0.317492 -0.340636 -0.485953 -2.89165 3.04446 192 192 192 255 0.202829 0.22105
-0.779175 0.578454 -0.31705 -1.78934 2.93375 2.60733 192 192 192 255 0.202829 0.22105
-0.705713 0.607099 -0.567827 0.684563 2.88449 -2.99188 192 192 192 255 0.265046 0.22105
-0.684471 0.346141 -0.591411 1.90632 -2.92484 -2.57518 192 192 192 255 0.202829 0.22105
-1.33861 0.015508 -0.48269 -0.654599 -2.86961 2.64754 192 192 192 255 0.202829 0.22105
-1.38418 0.274341 -0.488805 -1.50954 2.74774 2.58133 192 192 192 255 0.202829 0.22105
-1.29983 0.283311 -0.737622 0.698421 2.88394 -2.62281 192 192 192 255 0.265046 0.22105
-1.25426 0.02448 -0.731508 1.52976 -2.74075 -2.56946 192 192 192 255 0.202829 0.22105
-2.52153 0.041548 -1.49971 -2.6694 -2.77775 1.49091 192 192 192 255 0.202829 0.22105
-2.47077 0.298332 -1.47536 -2.0638 3.06933 1.7336 192 192 192 255 0.202829 0.22105
-2.26869 0.274163 -1.64175 2.68405 2.77331 -1.46297 192 192 192 255 0.265046 0.22105
-2.31946 0.017381 -1.66611 2.08286 -3.07207 -1.71005 192 192 192 255 0.202829 0.22105
-2.99858 0.030303 -2.86486 -2.45755 -2.78116 1.99415 192 192 192 255 0.202829 0.22105
-2.96087 0.287086 -2.82306 -2.16939 3.2608 1.38649 192 192 192 255 0.202829 0.22105
-2.71074 0.262917 -2.90024 2.51715 2.7646 -1.93731 192 192 192 255 0.265046 0.22105
-2.74845 0.006135 -2.94205 2.20683 -3.27238 -1.33885 192 192 192 255 0.202829 0.22105
-3.78072 0.118493 -3.4582 -1.71607 -2.55371 2.73189 192 192 192 255 0.202829 0.22105
-3.72458 0.375277 -3.45401 -0.139063 2.83203 2.63849 192 192 192 255 0.202829 0.22105
-3.59697 0.351108 -3.68256 1.78002 2.5285 -2.69689 192 192 192 255 0.265046 0.22105
-3.65312 0.094326 -3.68676 0.236893 -2.87208 -2.57967 192 192 192 255 0.202829 0.22105
-4.36714 0.562156 -3.57863 -1.92642 -1.86168 2.98282 192 192 192 255 0.202829 0.22105
-4.23201 0.785909 -3.60659 2.30828 1.571 2.7862 192 192 192 255 0.202829 0.22105
-4.25505 0.767176 -3.86779 2.05339 1.68218 -2.97522 192 192 192 255 0.265046 0.22105
-4.39018 0.543425 -3.83982 -2.18374 -1.81596 -2.7773 192 192 192 255 0.202829 0.22105
-4.64334 1.29707 -3.56298 -1.84661 -1.60884 3.2246 192 192 192 255 0.202829 0.22105
-4.40475 1.45516 -3.5936 2.38315 2.00979 2.79416 192 192 192 255 0.202829 0.22105
-4.43633 1.44743 -3.87961 2.37312 1.17338 -3.24033 192 192 192 255 0.265046 0.22105
-4.67492 1.28933 -3.84898 -1.85758 -2.37808 -2.81508 192 192 192 255 0.202829 0.22105
-4.89905 1.25498 -4.01791 3 -2.00001 -2.00003 192 192 192 255 0.200588 0.061667
-5 1.25498 -4.01791 0 -1 -1 192 192 192 255 0.200588 0.061667
-5 1.8744 -4.01791 0 2 -2 192 192 192 255 0.200588 0.061667
-4.89905 1.8744 -4.01791 3 1.00003 -1.00001 192 192 192 255 0.200588 0.061667
-5 1.25498 -3.3985 0 -2 2 192 192 192 255 0.200588 0.061667
-4.89905 1.25498 -3.3985 3 -1.00003 1.00001 192 192 192 255 0.200588 0.061667
-4.89905 1.8744 -3.3985 3 2.00001 2.00003 192 192 192 255 0.200588 0.061667
-5 1.8744 -3.3985 0 1 1 192 192 192 255 0.200588 0.061667
-4.89905 1.25498 -3.3985 3 -1.00003 1.00001 192 192 192 255 0.232626 0.061667
-4.89905 1.25498 -4.01791 3 -2.00001 -2.00003 192 192 192 255 0.232626 0.061667
-4.89905 1.8744 -4.01791 3 1.00003 -1.00001 192 192 192 255 0.232626 0.061667
-4.89905 1.8744 -3.3985 3 2.00001 2.00003 192 192 192 255 0.232626 0.061667
-0.444763 0 -0.444765 -2 -2 -1 192 192 192 255 0.167607 0.061667
0 0 -0.444765 1 -1 -2 192 192 192 255 0.167607 0.061667
0 0 0 2 -2 1 192 192 192 255 0.167607 0.061667
-0.444763 0 0 -1 -1 2 192 192 192 255 0.167607 0.061667
0 0 0 2 -2 1 192 192 192 255 0.200588 0.061667
0 0 -0.444765 1 -1 -2 192 192 192 255 0.200588 0.061667
0 0.182176 -0.444765 2 3 -1 192 192 192 255 0.200588 0.061667
0 0.182176 0 1 3 2 192 192 192 255 0.200588 0.061667
-0.444763 0 -0.444765 -2 -2 -1 192 192 192 255 0.200588 0.061667
-0.444763 0 0 -1 -1 2 192 192 192 255 0.200588 0.061667
-0.444763 0.182176 0 -2 3 1 192 192 192 255 0.200588 0.061667
-0.444763 0.182176 -0.444765 -1 3 -2 192 192 192 255 0.200588 0.061667
-0.444763 0.182176 0 -2 3 1 192 192 192 255 0.267492 0.061667
0 0.182176 0 1 3 2 192 192 192 255 0.267492 0.061667
0 0.182176 -0.444765 2 3 -1 192 192 192 255 0.267492 0.061667
-0.444763 0.182176 -0.444765 -1 3 -2 192 192 192 255 0.267492 0.061667
-0.353823 0.182176 -0.090942 -0.988996 2.90022 1.92631 192 192 192 255 0.202829 0.22105
-0.09094 0.182176 -0.090942 1.72154 4.10294 1.05536 192 192 192 255 0.202829 0.22105
-0.09094 0.182176 -0.090942 1.72154 4.10294 1.05536 192 192 192 255 0.265046 0.22105
-0.09094 0.182176 -0.353822 1.01552 3.04783 -1.91615 192 192 192 255 0.265046 0.22105
-0.293041 0.562353 -0.162948 0.645449 2.93412 2.83909 192 192 192 255 0.265046 0.22105
-0.09094 0.182176 -0.353822 1.01552 3.04783 -1.91615 192 192 192 255 0.202829 0.22105
-0.353823 0.182176 -0.353822 -1.68022 1.818 -1.04082 192 192 192 255 0.202829 0.22105
-0.239006 0.499457 -0.412408 2.78802 1.47447 -2.7503 192 192 192 255 0.202829 0.22105
-0.353823 0.182176 -0.353822 -1.68022 1.818 -1.04082 192 192 192 255 0.175737 0.22105
-0.353823 0.182176 -0.090942 -0.988996 2.90022 1.92631 192 192 192 255 0.175737 0.22105
-0.46199 0.361437 -0.148888 -2.65679 -1.55968 2.78723 192 192 192 255 0.175737 0.22105
-0.407949 0.298541 -0.398346 -0.432337 -3.00058 -2.78086 192 192 192 255 0.175737 0.22105
-0.779175 0.578454 -0.31705 -1.78934 2.93375 2.60733 192 192 192 255 0.265046 0.22105
-0.705713 0.607099 -0.567827 0.684563 2.88449 -2.99188 192 192 192 255 0.202829 0.22105
-0.757935 0.317492 -0.340636 -0.485953 -2.89165 3.04446 192 192 192 255 0.175737 0.22105
-0.684471 0.346141 -0.591411 1.90632 -2.92484 -2.57518 192 192 192 255 0.175737 0.22105
-1.38418 0.274341 -0.488805 -1.50954 2.74774 2.58133 192 192 192 255 0.265046 0.22105
-1.29983 0.283311 -0.737622 0.698421 2.88394 -2.62281 192 192 192 255 0.202829 0.22105
-1.33861 0.015508 -0.48269 -0.654599 -2.86961 2.64754 192 192 192 255 0.175737 0.22105
-1.25426 0.02448 -0.731508 1.52976 -2.74075 -2.56946 192 192 192 255 0.175737 0.22105
-2.47077 0.298332 -1.47536 -2.0638 3.06933 1.7336 192 192 192 255 0.265046 0.22105
-2.26869 0.274163 -1.64175 2.68405 2.77331 -1.46297 192 192 192 255 0.202829 0.22105
-2.52153 0.041548 -1.49971 -2.6694 -2.77775 1.49091 192 192 192 255 0.175737 0.22105
-2.31946 0.017381 -1.66611 2.08286 -3.07207 -1.71005 192 192 192 255 0.175737 0.22105
-2.96087 0.287086 -2.82306 -2.16939 3.2608 1.38649 192 192 192 255 0.265046 0.22105
-2.71074 0.262917 -2.90024 2.51715 2.7646 -1.93731 192 192 192 255 0.202829 0.22105
-2.99858 0.030303 -2.86486 -2.45755 -2.78116 1.99415 192 192 192 255 0.175737 0.22105
-2.74845 0.006135 -2.94205 2.20683 -3.27238 -1.33885 192 192 192 255 0.175737 0.22105
-3.72458 0.375277 -3.45401 -0.139063 2.83203 2.63849 192 192 192 255 0.265046 0.22105
-3.59697 0.351108 -3.68256 1.78002 2.5285 -2.69689 192 192 192 255 0.202829 0.22105
-3.78072 0.118493 -3.4582 -1.71607 -2.55371 2.73189 192 192 192 255 0.175737 0.22105
-3.65312 0.094326 -3.68676 0.236893 -2.87208 -2.57967 192 192 192 255 0.175737 0.22105
-4.23201 0.785909 -3.60659 2.30828 1.571 2.7862 192 192 192 255 0.265046 0.22105
-4.25505 0.767176 -3.86779 2.05339 1.68218 -2.97522 192 192 192 255 0.202829 0.22105
-4.36714 0.562156 -3.57863 -1.92642 -1.86168 2.98282 192 192 192 255 0.175737 0.22105
-4.39018 0.543425 -3.83982 -2.18374 -1.81596 -2.7773 192 192 192 255 0.175737 0.22105
-4.40475 1.45516 -3.5936 2.38315 2.00979 2.79416 192 192 192 255 0.265046 0.22105
-4.43633 1.44743 -3.87961 2.37312 1.17338 -3.24033 192 192 192 255 0.202829 0.22105
-4.64334 1.29707 -3.56298 -1.84661 -1.60884 3.2246 192 192 192 255 0.175737 0.22105
-4.67492 1.28933 -3.84898 -1.85758 -2.37808 -2.81508 192 192 192 255 0.175737 0.22105
-4.89904 1.74113 -3.53176 3.76401 0.858964 1.94872 192 192 192 255 0.202829 0.22105
-4.89904 1.38825 -3.53176 2.3871 -1.8568 1.05125 192 192 192 255 0.202829 0.22105
-4.89904 1.74113 -3.88464 4.05204 1.6425 -1.06921 192 192 192 255 0.265046 0.22105
-4.89904 1.74113 -3.53176 3.76401 0.858964 1.94872 192 192 192 255 0.265046 0.22105
-4.89904 1.38825 -3.88464 2.67094 -1.06716 -1.9654 192 192 192 255 0.202829 0.22105
-4.89904 1.74113 -3.88464 4.05204 1.6425 -1.06921 192 192 192 255 0.202829 0.22105
-4.89904 1.38825 -3.53176 2.3871 -1.8568 1.05125 192 192 192 255 0.175737 0.22105
-4.89904 1.38825 -3.88464 2.67094 -1.06716 -1.9654 192 192 192 255 0.175737 0.22105
3 2 3 5 
3 2 5 4 
3 6 7 1 
3 6 1 0 
3 56 57 58 
3 56 58 59 
3 60 61 62 
3 60 62 63 
3 64 65 9 
3 64 9 8 
3 65 66 10 
3 65 10 9 
3 66 67 11 
3 66 11 10 
3 67 64 8 
3 67 8 11 
3 12 13 15 
3 12 15 14 
3 16 17 19 
3 16 19 18 
3 68 69 70 
3 68 70 71 
3 72 73 74 
3 72 74 75 
3 76 77 78 
3 76 78 79 
3 80 81 21 
3 80 21 20 
3 81 82 22 
3 81 22 21 
3 82 83 23 
3 82 23 22 
3 83 80 20 
3 83 20 23 
3 84 85 25 
3 84 25 24 
3 86 87 26 
3 86 26 88 
3 89 90 27 
3 89 27 91 
3 92 93 94 
3 92 94 95 
3 24 25 29 
3 24 29 28 
3 88 26 30 
3 88 30 96 
3 91 27 31 
3 91 31 97 
3 95 94 98 
3 95 98 99 
3 28 29 33 
3 28 33 32 
3 96 30 34 
3 96 34 100 
3 97 31 35 
3 97 35 101 
3 99 98 102 
3 99 102 103 
3 32 33 37 
3 32 37 36 
3 100 34 38 
3 100 38 104 
3 101 35 39 
3 101 39 105 
3 103 102 106 
3 103 106 107 
3 36 37 41 
3 36 41 40 
3 104 38 42 
3 104 42 108 
3 105 39 43 
3 105 43 109 
3 107 106 110 
3 107 110 111 
3 40 41 45 
3 40 45 44 
3 108 42 46 
3 108 46 112 
3 109 43 47 
3 109 47 113 
3 111 110 114 
3 111 114 115 
3 44 45 49 
3 44 49 48 
3 112 46 50 
3 112 50 116 
3 113 47 51 
3 113 51 117 
3 115 114 118 
3 115 118 119 
3 48 49 53 
3 48 53 52 
3 116 50 54 
3 116 54 120 
3 117 51 55 
3 117 55 121 
3 119 118 122 
3 119 122 123 
3 52 53 124 
3 52 124 125 
3 120 54 126 
3 120 126 127 
3 121 55 128 
3 121 128 129 
3 123 122 130 
3 123 130 131 
