ply
format ascii 1.0
comment VCGLIB generated
comment TextureFile SpaceInteriors_Texture.png
element vertex 30
property float x
property float y
property float z
property float nx
property float ny
property float nz
property uchar red
property uchar green
property uchar blue
property uchar alpha
property float texture_u
property float texture_v
element face 16
property list uchar int vertex_indices
end_header
-0.99647 0.003581 0.99488 1.42306 -0.953629 2.41911 192 192 192 255 0.233148 0.061667
-1.63282 0.999063 1.00236 1.05595 3.33467 3.04411 192 192 192 255 0.759359 0.701777
-2.00353 0.996419 1.00512 -1.41226 0.994187 -0.415877 192 192 192 255 0.300052 0.061667
-1.99642 -0.003551 1.00233 -0.678208 -2.00973 2.30062 192 192 192 255 0.265187 0.061667
-1.01714 0.522638 0.996457 1.24565 0.689156 3.23276 192 192 192 255 0.788052 0.635503
0 0.519194 -0.016974 3.46142 1.38928 2.46564 192 192 192 255 0.881786 0.635024
0 1 -0.629269 2.52051 1.67008 0.522084 192 192 192 255 0.91005 0.701908
0 1 -0.999999 1.28384 1.99844 -0.712356 192 192 192 255 0.300052 0.061667
0 0 -0.999999 -0.411956 -1.00305 -1.40931 192 192 192 255 0.265187 0.061667
0 0 -0 3.71316 -1.97542 0.714945 192 192 192 255 0.265187 0.061667
-1.63282 0.999063 1.00236 1.05595 3.33467 3.04411 192 192 192 255 0.300052 0.061667
0 1 -0.629269 2.52051 1.67008 0.522084 192 192 192 255 0.300052 0.061667
-2.00353 0.996419 1.00512 -1.41226 0.994187 -0.415877 192 192 192 255 0.265187 0.061667
0 1 -0.999999 1.28384 1.99844 -0.712356 192 192 192 255 0.265187 0.061667
-1.99642 -0.003551 1.00233 -0.678208 -2.00973 2.30062 192 192 192 255 0.233148 0.061667
-1.01714 0.522638 0.996457 1.24565 0.689156 3.23276 192 192 192 255 0.233148 0.061667
-1.63282 0.999063 1.00236 1.05595 3.33467 3.04411 192 192 192 255 0.233148 0.061667
-2.00353 0.996419 1.00512 -1.41226 0.994187 -0.415877 192 192 192 255 0.233148 0.061667
-0.99647 0.003581 0.99488 1.42306 -0.953629 2.41911 192 192 192 255 0.265187 0.061667
0 0.519194 -0.016974 3.46142 1.38928 2.46564 192 192 192 255 0.265187 0.061667
-1.01714 0.522638 0.996457 1.24565 0.689156 3.23276 192 192 192 255 0.265187 0.061667
-1.99642 -0.003551 1.00233 -0.678208 -2.00973 2.30062 192 192 192 255 0.200168 0.061667
0 0 -0.999999 -0.411956 -1.00305 -1.40931 192 192 192 255 0.200168 0.061667
0 0 -0 3.71316 -1.97542 0.714945 192 192 192 255 0.200168 0.061667
-0.99647 0.003581 0.99488 1.42306 -0.953629 2.41911 192 192 192 255 0.200168 0.061667
0 0 -0 3.71316 -1.97542 0.714945 192 192 192 255 0.234998 0.059727
0 0 -0.999999 -0.411956 -1.00305 -1.40931 192 192 192 255 0.234998 0.059727
0 1 -0.999999 1.28384 1.99844 -0.712356 192 192 192 255 0.234998 0.059727
0 1 -0.629269 2.52051 1.67008 0.522084 192 192 192 255 0.234998 0.059727
0 0.519194 -0.016974 3.46142 1.38928 2.46564 192 192 192 255 0.234998 0.059727
3 1 4 5 
3 1 5 6 
3 10 11 7 
3 10 7 2 
3 12 13 8 
3 12 8 3 
3 14 0 15 
3 14 15 16 
3 14 16 17 
3 18 9 19 
3 18 19 20 
3 21 22 23 
3 21 23 24 
3 25 26 27 
3 25 27 28 
3 25 28 29 
