ply
format ascii 1.0
comment VCGLIB generated
comment TextureFile SpaceInteriors_Texture.png
element vertex 444
property float x
property float y
property float z
property float nx
property float ny
property float nz
property uchar red
property uchar green
property uchar blue
property uchar alpha
property float texture_u
property float texture_v
element face 264
property list uchar int vertex_indices
end_header
-0.564344 1.21246 -0.342151 -2 -1 -1 192 192 192 255 0.208839 0.063122
-0.564344 1.21246 0.198033 -1 -2 2 192 192 192 255 0.208839 0.063122
-0.564344 1.27745 -0.342151 -1 2 -2 192 192 192 255 0.208839 0.063122
-0.564344 1.27745 0.198033 -2 1 1 192 192 192 255 0.208839 0.063122
-0.419529 1.27745 -0.342151 2 1 -1 192 192 192 255 0.267112 0.063122
-0.419529 1.27745 0.198033 1 2 2 192 192 192 255 0.267112 0.063122
-0.419529 1.21246 -0.342151 1 -2 -2 192 192 192 255 0.208839 0.063122
-0.419529 1.21246 0.198033 2 -1 1 192 192 192 255 0.208839 0.063122
0.419529 1.21246 -0.342151 -2 -1 -1 192 192 192 255 0.208839 0.063122
0.419529 1.21246 0.198033 -1 -2 2 192 192 192 255 0.208839 0.063122
0.419529 1.27745 -0.342151 -1 2 -2 192 192 192 255 0.208839 0.063122
0.419529 1.27745 0.198033 -2 1 1 192 192 192 255 0.208839 0.063122
0.564344 1.27745 -0.342151 2 1 -1 192 192 192 255 0.267112 0.063122
0.564344 1.27745 0.198033 1 2 2 192 192 192 255 0.267112 0.063122
0.564344 1.21246 -0.342151 1 -2 -2 192 192 192 255 0.208839 0.063122
0.564344 1.21246 0.198033 2 -1 1 192 192 192 255 0.208839 0.063122
-0.078846 0.238665 -0.080302 -2 -1 -1 192 192 192 255 0.139883 0.062038
-0.078846 0.238665 0.077388 -1 -2 2 192 192 192 255 0.139883 0.062038
0.078846 0.238665 -0.080302 1 -2 -2 192 192 192 255 0.139883 0.062038
0.078846 0.238665 0.077388 2 -1 1 192 192 192 255 0.139883 0.062038
-0.078846 0.629048 -0.080302 -1 3 -2 192 192 192 255 0.177709 0.062038
-0.078846 0.629048 0.077388 -2 3 1 192 192 192 255 0.177709 0.062038
0.078846 0.629048 0.077388 1 3 2 192 192 192 255 0.202245 0.062038
0.078846 0.629048 -0.080302 2 3 -1 192 192 192 255 0.177709 0.062038
-0.052572 0.629048 -0.05403 -2 3 -1 192 192 192 255 0.177709 0.062038
-0.052572 0.629048 0.051116 -1 3 2 192 192 192 255 0.177709 0.062038
-0.052572 0.808 0.051116 -2 1 1 192 192 192 255 0.177709 0.062038
-0.052572 0.808 -0.05403 -1 2 -2 192 192 192 255 0.177709 0.062038
0.052572 0.808 0.051116 1 2 2 192 192 192 255 0.235982 0.062038
0.052572 0.808 -0.05403 2 1 -1 192 192 192 255 0.235982 0.062038
0.052572 0.629048 0.051116 2 3 1 192 192 192 255 0.177709 0.062038
0.052572 0.629048 -0.05403 1 3 -2 192 192 192 255 0.177709 0.062038
-0.433332 0.7992 -0.441855 -2.02753 -1.16662 -0.999966 192 192 192 255 0.17653 0.06311
-0.433332 0.7992 0.424809 -1 -2 2 192 192 192 255 0.17653 0.06311
-0.433332 0.959346 0.424809 -2 1.06296 1 192 192 192 255 0.17653 0.06311
0.433332 0.7992 -0.441855 2.02754 -2.3326 -1.98609 192 192 192 255 0.17653 0.06311
0.433332 0.959346 0.424809 2 2.06013 2 192 192 192 255 0.17653 0.06311
0.433332 0.7992 0.424809 1 -1 1 192 192 192 255 0.17653 0.06311
-0.344822 1.77227 -0.571381 -1.96802 1.29417 -1.10254 192 192 192 255 0.201066 0.06311
-0.344822 1.78326 -0.428801 -0.984011 2.28773 1.82924 192 192 192 255 0.201066 0.06311
-0.433332 0.959346 -0.29693 -2.02665 0.329392 0.946094 192 192 192 255 0.17653 0.06311
0.344822 1.78326 -0.428801 1.96802 1.41024 0.894087 192 192 192 255 0.201066 0.06311
0.433332 0.959346 -0.29693 3.02614 0.59231 1.89475 192 192 192 255 0.17653 0.06311
0.344822 1.77227 -0.571381 0.984011 2.0556 -2.16402 192 192 192 255 0.201066 0.06311
0.4 1.47888 -0.411107 1.98359 0.993276 4.8833 192 192 192 255 0.356853 0.267674
-0.4 1.47888 -0.411107 -3.96712 1.16064 3.84203 192 192 192 255 0.356853 0.267674
-0.4 1.46789 -0.553686 -2.01825 -0.550546 -5.98396 192 192 192 255 0.356853 0.267674
0.4 1.46789 -0.553686 4.00963 -0.0996274 -4.04079 192 192 192 255 0.356853 0.267674
0.589891 0.099516 0.044641 1.67303 -1.48358 1 192 192 192 255 0.174817 0.060592
0.589891 0.099516 -0.052153 0.448285 -2.19068 -2 192 192 192 255 0.174817 0.060592
0.613855 0.188947 0.044641 1.48356 1.67302 2 192 192 192 255 0.174817 0.060592
0.613855 0.188947 -0.052153 2.19066 0.448267 -1 192 192 192 255 0.174817 0.060592
0.067984 0.335212 0.044641 -1.67304 1.48354 1 192 192 192 255 0.23309 0.060592
0.067984 0.335212 -0.052153 -0.448293 2.19066 -2 192 192 192 255 0.23309 0.060592
0.044022 0.245781 0.044641 -1.48357 -1.67304 2 192 192 192 255 0.174817 0.060592
0.044022 0.245781 -0.052153 -2.19068 -0.448307 -1 192 192 192 255 0.174817 0.060592
0.619415 0 0.061977 2 -1 1 192 192 192 255 0.170696 0.062799
0.619415 0 -0.061976 1 -2 -2 192 192 192 255 0.170696 0.062799
0.619415 0.142195 0.061977 1 2 2 192 192 192 255 0.170696 0.062799
0.619415 0.142195 -0.061976 2 1 -1 192 192 192 255 0.170696 0.062799
0.477221 0.142195 0.061977 -2 1 1 192 192 192 255 0.228969 0.062799
0.477221 0.142195 -0.061976 -1 2 -2 192 192 192 255 0.228969 0.062799
0.477221 0 0.061977 -1 -2 2 192 192 192 255 0.170696 0.062799
0.477221 0 -0.061976 -2 -1 -1 192 192 192 255 0.170696 0.062799
-0.589891 0.099516 -0.04464 -1.67303 -1.48358 -1 192 192 192 255 0.174817 0.060592
-0.589891 0.099516 0.052153 -0.448286 -2.19068 2 192 192 192 255 0.174817 0.060592
-0.613855 0.188947 -0.04464 -1.48356 1.67302 -2 192 192 192 255 0.174817 0.060592
-0.613855 0.188947 0.052153 -2.19066 0.448267 1 192 192 192 255 0.174817 0.060592
-0.067984 0.335212 -0.04464 1.67304 1.48354 -1 192 192 192 255 0.23309 0.060592
-0.067984 0.335212 0.052153 0.448293 2.19066 2 192 192 192 255 0.23309 0.060592
-0.044022 0.245781 -0.04464 1.48357 -1.67304 -2 192 192 192 255 0.174817 0.060592
-0.044022 0.245781 0.052153 2.19068 -0.448307 1 192 192 192 255 0.174817 0.060592
-0.619415 0 -0.061976 -2 -1 -1 192 192 192 255 0.170696 0.062799
-0.619415 0 0.061977 -1 -2 2 192 192 192 255 0.170696 0.062799
-0.619415 0.142195 -0.061976 -1 2 -2 192 192 192 255 0.170696 0.062799
-0.619415 0.142195 0.061977 -2 1 1 192 192 192 255 0.170696 0.062799
-0.477221 0.142195 -0.061976 2 1 -1 192 192 192 255 0.228969 0.062799
-0.477221 0.142195 0.061977 1 2 2 192 192 192 255 0.228969 0.062799
-0.477221 0 -0.061976 1 -2 -2 192 192 192 255 0.170696 0.062799
-0.477221 0 0.061977 2 -1 1 192 192 192 255 0.170696 0.062799
0.044641 0.099516 -0.589891 1 -1.48356 -1.67303 192 192 192 255 0.174817 0.060592
-0.052153 0.099516 -0.589891 -2 -2.19067 -0.448288 192 192 192 255 0.174817 0.060592
0.044641 0.188947 -0.613854 2 1.67303 -1.48356 192 192 192 255 0.174817 0.060592
-0.052153 0.188947 -0.613854 -1 0.448288 -2.19067 192 192 192 255 0.174817 0.060592
0.044641 0.335212 -0.067985 1 1.48356 1.67303 192 192 192 255 0.23309 0.060592
-0.052153 0.335212 -0.067985 -2 2.19067 0.448288 192 192 192 255 0.23309 0.060592
0.044641 0.245781 -0.044022 2 -1.67303 1.48356 192 192 192 255 0.174817 0.060592
-0.052153 0.245781 -0.044022 -1 -0.448287 2.19067 192 192 192 255 0.174817 0.060592
0.061975 0 -0.619415 1 -1 -2 192 192 192 255 0.170696 0.062799
-0.061975 0 -0.619415 -2 -2 -1 192 192 192 255 0.170696 0.062799
0.061975 0.142195 -0.619415 2 2 -1 192 192 192 255 0.170696 0.062799
-0.061975 0.142195 -0.619415 -1 1 -2 192 192 192 255 0.170696 0.062799
0.061975 0.142195 -0.477221 1 1 2 192 192 192 255 0.228969 0.062799
-0.061975 0.142195 -0.477221 -2 2 1 192 192 192 255 0.228969 0.062799
0.061975 0 -0.477221 2 -2 1 192 192 192 255 0.170696 0.062799
-0.061975 0 -0.477221 -1 -1 2 192 192 192 255 0.170696 0.062799
-0.044641 0.099516 0.589891 -1 -1.48356 1.67303 192 192 192 255 0.174817 0.060592
0.052153 0.099516 0.589891 2 -2.19067 0.448288 192 192 192 255 0.174817 0.060592
-0.044641 0.188947 0.613854 -2 1.67303 1.48356 192 192 192 255 0.174817 0.060592
0.052153 0.188947 0.613854 1 0.448288 2.19067 192 192 192 255 0.174817 0.060592
-0.044641 0.335212 0.067985 -1 1.48356 -1.67303 192 192 192 255 0.23309 0.060592
0.052153 0.335212 0.067985 2 2.19067 -0.448288 192 192 192 255 0.23309 0.060592
-0.044641 0.245781 0.044022 -2 -1.67303 -1.48356 192 192 192 255 0.174817 0.060592
0.052153 0.245781 0.044022 1 -0.448287 -2.19067 192 192 192 255 0.174817 0.060592
-0.061977 0 0.619415 -1 -1 2 192 192 192 255 0.170696 0.062799
0.061975 0 0.619415 2 -2 1 192 192 192 255 0.170696 0.062799
-0.061977 0.142195 0.619415 -2 2 1 192 192 192 255 0.170696 0.062799
0.061975 0.142195 0.619415 1 1 2 192 192 192 255 0.170696 0.062799
-0.061977 0.142195 0.477221 -1 1 -2 192 192 192 255 0.228969 0.062799
0.061975 0.142195 0.477221 2 2 -1 192 192 192 255 0.228969 0.062799
-0.061977 0 0.477221 -2 -2 -1 192 192 192 255 0.170696 0.062799
0.061975 0 0.477221 1 -1 -2 192 192 192 255 0.170696 0.062799
0.433439 0.84677 0.052193 -3 -2.25811 0.966116 192 192 192 255 0.174143 0.062606
0.433439 0.84677 -0.350993 -3 -0.747224 -1.98396 192 192 192 255 0.174143 0.062606
0.499973 0.84677 0.052193 3 -1.51622 1.93223 192 192 192 255 0.174143 0.062606
0.499973 0.84677 -0.350993 3 -1.87361 -0.991981 192 192 192 255 0.174143 0.062606
0.499973 1.23906 0.156997 3 1.74189 0.966116 192 192 192 255 0.291601 0.062606
0.499973 1.23906 -0.301012 3 1.25278 -1.98396 192 192 192 255 0.291601 0.062606
0.433439 1.23906 0.156997 -3 0.483781 1.93223 192 192 192 255 0.291601 0.062606
0.433439 1.23906 -0.301012 -3 2.12639 -0.991981 192 192 192 255 0.291601 0.062606
0.499973 0.921145 -0.011768 3 1.27804 -0.96057 192 192 192 255 0.232415 0.062606
0.499973 0.921145 -0.254005 3 1.8696 0.991461 192 192 192 255 0.232415 0.062606
0.499973 1.16468 -0.221974 3 -2.2608 1.98292 192 192 192 255 0.232415 0.062606
0.499973 1.16468 0.058724 3 -0.44392 -1.92114 192 192 192 255 0.232415 0.062606
0.433439 1.16468 0.058724 -3 -1.72196 -0.96057 192 192 192 255 0.136317 0.062606
0.433439 1.16468 -0.221974 -3 -1.1304 0.991461 192 192 192 255 0.136317 0.062606
0.433439 0.921145 -0.254005 -3 0.739195 1.98292 192 192 192 255 0.136317 0.062606
0.433439 0.921145 -0.011768 -3 2.55608 -1.92114 192 192 192 255 0.136317 0.062606
-0.433439 0.84677 -0.350993 3 -1.87361 -0.991981 192 192 192 255 0.174143 0.062606
-0.433439 0.84677 0.052192 3 -1.51622 1.93223 192 192 192 255 0.174143 0.062606
-0.499973 0.84677 -0.350993 -3 -0.747224 -1.98396 192 192 192 255 0.174143 0.062606
-0.499973 0.84677 0.052192 -3 -2.25811 0.966115 192 192 192 255 0.174143 0.062606
-0.499973 1.23906 -0.301012 -3 2.12639 -0.991981 192 192 192 255 0.291601 0.062606
-0.499973 1.23906 0.156997 -3 0.483776 1.93223 192 192 192 255 0.291601 0.062606
-0.433439 1.23906 -0.301012 3 1.25278 -1.98396 192 192 192 255 0.291601 0.062606
-0.433439 1.23906 0.156997 3 1.74189 0.966115 192 192 192 255 0.291601 0.062606
-0.499973 0.921145 -0.254006 -3 0.869594 0.991461 192 192 192 255 0.232415 0.062606
-0.499973 0.921145 -0.011769 -3 2.27804 -0.960568 192 192 192 255 0.232415 0.062606
-0.499973 1.16468 0.058724 -3 -1.44391 -1.92114 192 192 192 255 0.232415 0.062606
-0.499973 1.16468 -0.221974 -3 -1.26081 1.98292 192 192 192 255 0.232415 0.062606
-0.433439 1.16468 -0.221974 3 -2.13041 0.991461 192 192 192 255 0.136317 0.062606
-0.433439 1.16468 0.058724 3 -0.721956 -0.960568 192 192 192 255 0.136317 0.062606
-0.433439 0.921145 -0.011769 3 1.55609 -1.92114 192 192 192 255 0.136317 0.062606
-0.433439 0.921145 -0.254006 3 1.73919 1.98292 192 192 192 255 0.136317 0.062606
0.320242 1.39997 -0.39356 -0.995281 -1.36108 3.41668 192 192 192 255 0.356853 0.267674
-0.320242 1.39997 -0.39356 1.99498 -0.445591 3.17232 192 192 192 255 0.356853 0.267674
-0.346092 0.959346 -0.296931 0.995601 4.43085 1.95802 192 192 192 255 0.234803 0.06311
0.350018 0.959346 -0.296931 -1.99442 2.14805 1.01044 192 192 192 255 0.356853 0.267674
-0.320242 1.36537 -0.536542 0.980144 -2.33642 -1.49778 192 192 192 255 0.356853 0.267674
0.320242 1.36537 -0.536542 -1.97319 -1.59531 -2.68968 192 192 192 255 0.356853 0.267674
0.34693 0.959391 -0.468821 -0.952281 1.43516 -2.95282 192 192 192 255 0.356853 0.267674
-0.34693 0.959391 -0.468821 1.95985 0.210996 -3.94813 192 192 192 255 0.138704 0.06311
0.424955 0.959406 -0.465429 1.04834 -0.116503 -1.02824 192 192 192 255 0.356853 0.267674
-0.424753 0.959386 -0.466107 -2.04208 -0.0657088 -1.05823 192 192 192 255 0.356853 0.267674
-0.564344 1.27745 -0.342151 -1 2 -2 192 192 192 255 0.267112 0.063122
-0.564344 1.27745 0.198033 -2 1 1 192 192 192 255 0.267112 0.063122
-0.419529 1.27745 -0.342151 2 1 -1 192 192 192 255 0.208839 0.063122
-0.419529 1.27745 0.198033 1 2 2 192 192 192 255 0.208839 0.063122
-0.419529 1.21246 -0.342151 1 -2 -2 192 192 192 255 0.171013 0.063122
-0.419529 1.21246 0.198033 2 -1 1 192 192 192 255 0.171013 0.063122
-0.564344 1.21246 0.198033 -1 -2 2 192 192 192 255 0.171013 0.063122
-0.564344 1.21246 -0.342151 -2 -1 -1 192 192 192 255 0.171013 0.063122
-0.564344 1.21246 0.198033 -1 -2 2 192 192 192 255 0.233375 0.063122
-0.419529 1.21246 0.198033 2 -1 1 192 192 192 255 0.233375 0.063122
-0.419529 1.27745 0.198033 1 2 2 192 192 192 255 0.233375 0.063122
-0.564344 1.27745 0.198033 -2 1 1 192 192 192 255 0.233375 0.063122
-0.419529 1.21246 -0.342151 1 -2 -2 192 192 192 255 0.233375 0.063122
-0.564344 1.21246 -0.342151 -2 -1 -1 192 192 192 255 0.233375 0.063122
-0.564344 1.27745 -0.342151 -1 2 -2 192 192 192 255 0.233375 0.063122
-0.419529 1.27745 -0.342151 2 1 -1 192 192 192 255 0.233375 0.063122
0.419529 1.27745 -0.342151 -1 2 -2 192 192 192 255 0.267112 0.063122
0.419529 1.27745 0.198033 -2 1 1 192 192 192 255 0.267112 0.063122
0.564344 1.27745 -0.342151 2 1 -1 192 192 192 255 0.208839 0.063122
0.564344 1.27745 0.198033 1 2 2 192 192 192 255 0.208839 0.063122
0.564344 1.21246 -0.342151 1 -2 -2 192 192 192 255 0.171013 0.063122
0.564344 1.21246 0.198033 2 -1 1 192 192 192 255 0.171013 0.063122
0.419529 1.21246 0.198033 -1 -2 2 192 192 192 255 0.171013 0.063122
0.419529 1.21246 -0.342151 -2 -1 -1 192 192 192 255 0.171013 0.063122
0.419529 1.21246 0.198033 -1 -2 2 192 192 192 255 0.233375 0.063122
0.564344 1.21246 0.198033 2 -1 1 192 192 192 255 0.233375 0.063122
0.564344 1.27745 0.198033 1 2 2 192 192 192 255 0.233375 0.063122
0.419529 1.27745 0.198033 -2 1 1 192 192 192 255 0.233375 0.063122
0.564344 1.21246 -0.342151 1 -2 -2 192 192 192 255 0.233375 0.063122
0.419529 1.21246 -0.342151 -2 -1 -1 192 192 192 255 0.233375 0.063122
0.419529 1.27745 -0.342151 -1 2 -2 192 192 192 255 0.233375 0.063122
0.564344 1.27745 -0.342151 2 1 -1 192 192 192 255 0.233375 0.063122
-0.052572 0.808 -0.05403 -1 2 -2 192 192 192 255 0.235982 0.062038
-0.052572 0.808 0.051116 -2 1 1 192 192 192 255 0.235982 0.062038
0.052572 0.808 -0.05403 2 1 -1 192 192 192 255 0.177709 0.062038
0.052572 0.808 0.051116 1 2 2 192 192 192 255 0.177709 0.062038
-0.052572 0.629048 0.051116 -1 3 2 192 192 192 255 0.202245 0.062038
0.052572 0.629048 0.051116 2 3 1 192 192 192 255 0.202245 0.062038
0.052572 0.808 0.051116 1 2 2 192 192 192 255 0.202245 0.062038
-0.052572 0.808 0.051116 -2 1 1 192 192 192 255 0.202245 0.062038
0.052572 0.629048 -0.05403 1 3 -2 192 192 192 255 0.202245 0.062038
-0.052572 0.629048 -0.05403 -2 3 -1 192 192 192 255 0.202245 0.062038
-0.052572 0.808 -0.05403 -1 2 -2 192 192 192 255 0.202245 0.062038
0.052572 0.808 -0.05403 2 1 -1 192 192 192 255 0.202245 0.062038
-0.078846 0.238665 -0.080302 -2 -1 -1 192 192 192 255 0.177709 0.062038
-0.078846 0.238665 0.077388 -1 -2 2 192 192 192 255 0.177709 0.062038
-0.078846 0.238665 0.077388 -1 -2 2 192 192 192 255 0.202245 0.062038
0.078846 0.238665 0.077388 2 -1 1 192 192 192 255 0.202245 0.062038
-0.078846 0.629048 0.077388 -2 3 1 192 192 192 255 0.202245 0.062038
0.078846 0.629048 0.077388 1 3 2 192 192 192 255 0.177709 0.062038
0.078846 0.238665 0.077388 2 -1 1 192 192 192 255 0.177709 0.062038
0.078846 0.238665 -0.080302 1 -2 -2 192 192 192 255 0.177709 0.062038
0.078846 0.238665 -0.080302 1 -2 -2 192 192 192 255 0.202245 0.062038
-0.078846 0.238665 -0.080302 -2 -1 -1 192 192 192 255 0.202245 0.062038
-0.078846 0.629048 -0.080302 -1 3 -2 192 192 192 255 0.202245 0.062038
0.078846 0.629048 -0.080302 2 3 -1 192 192 192 255 0.202245 0.062038
-0.433332 0.959346 0.424809 -2 1.06296 1 192 192 192 255 0.234803 0.06311
-0.433332 0.959346 -0.29693 -2.02665 0.329392 0.946094 192 192 192 255 0.234803 0.06311
0.433332 0.7992 -0.441855 2.02754 -2.3326 -1.98609 192 192 192 255 0.138704 0.06311
0.433332 0.7992 0.424809 1 -1 1 192 192 192 255 0.138704 0.06311
-0.433332 0.7992 0.424809 -1 -2 2 192 192 192 255 0.138704 0.06311
-0.433332 0.7992 -0.441855 -2.02753 -1.16662 -0.999966 192 192 192 255 0.138704 0.06311
-0.433332 0.7992 0.424809 -1 -2 2 192 192 192 255 0.201066 0.06311
0.433332 0.7992 0.424809 1 -1 1 192 192 192 255 0.201066 0.06311
0.433332 0.959346 0.424809 2 2.06013 2 192 192 192 255 0.201066 0.06311
-0.433332 0.959346 0.424809 -2 1.06296 1 192 192 192 255 0.201066 0.06311
-0.433332 0.959346 -0.29693 -2.02665 0.329392 0.946094 192 192 192 255 0.356853 0.267674
0.433332 0.959346 -0.29693 3.02614 0.59231 1.89475 192 192 192 255 0.356853 0.267674
-0.344822 1.78326 -0.428801 -0.984011 2.28773 1.82924 192 192 192 255 0.234803 0.06311
-0.4 1.47888 -0.411107 -3.96712 1.16064 3.84203 192 192 192 255 0.234803 0.06311
0.4 1.47888 -0.411107 1.98359 0.993276 4.8833 192 192 192 255 0.234803 0.06311
0.344822 1.78326 -0.428801 1.96802 1.41024 0.894087 192 192 192 255 0.234803 0.06311
-0.344822 1.77227 -0.571381 -1.96802 1.29417 -1.10254 192 192 192 255 0.17653 0.06311
-0.4 1.46789 -0.553686 -2.01825 -0.550546 -5.98396 192 192 192 255 0.17653 0.06311
-0.4 1.47888 -0.411107 -3.96712 1.16064 3.84203 192 192 192 255 0.17653 0.06311
-0.344822 1.78326 -0.428801 -0.984011 2.28773 1.82924 192 192 192 255 0.17653 0.06311
0.344822 1.77227 -0.571381 0.984011 2.0556 -2.16402 192 192 192 255 0.138704 0.06311
0.4 1.46789 -0.553686 4.00963 -0.0996274 -4.04079 192 192 192 255 0.138704 0.06311
-0.4 1.46789 -0.553686 -2.01825 -0.550546 -5.98396 192 192 192 255 0.138704 0.06311
-0.344822 1.77227 -0.571381 -1.96802 1.29417 -1.10254 192 192 192 255 0.138704 0.06311
0.344822 1.78326 -0.428801 1.96802 1.41024 0.894087 192 192 192 255 0.17653 0.06311
0.4 1.47888 -0.411107 1.98359 0.993276 4.8833 192 192 192 255 0.17653 0.06311
0.4 1.46789 -0.553686 4.00963 -0.0996274 -4.04079 192 192 192 255 0.17653 0.06311
0.344822 1.77227 -0.571381 0.984011 2.0556 -2.16402 192 192 192 255 0.17653 0.06311
0.613855 0.188947 0.044641 1.48356 1.67302 2 192 192 192 255 0.23309 0.060592
0.613855 0.188947 -0.052153 2.19066 0.448267 -1 192 192 192 255 0.23309 0.060592
0.067984 0.335212 0.044641 -1.67304 1.48354 1 192 192 192 255 0.174817 0.060592
0.067984 0.335212 -0.052153 -0.448293 2.19066 -2 192 192 192 255 0.174817 0.060592
0.044022 0.245781 0.044641 -1.48357 -1.67304 2 192 192 192 255 0.136991 0.060592
0.044022 0.245781 -0.052153 -2.19068 -0.448307 -1 192 192 192 255 0.136991 0.060592
0.589891 0.099516 -0.052153 0.448285 -2.19068 -2 192 192 192 255 0.136991 0.060592
0.589891 0.099516 0.044641 1.67303 -1.48358 1 192 192 192 255 0.136991 0.060592
0.589891 0.099516 -0.052153 0.448285 -2.19068 -2 192 192 192 255 0.199353 0.060592
0.044022 0.245781 -0.052153 -2.19068 -0.448307 -1 192 192 192 255 0.199353 0.060592
0.067984 0.335212 -0.052153 -0.448293 2.19066 -2 192 192 192 255 0.199353 0.060592
0.613855 0.188947 -0.052153 2.19066 0.448267 -1 192 192 192 255 0.199353 0.060592
0.044022 0.245781 0.044641 -1.48357 -1.67304 2 192 192 192 255 0.199353 0.060592
0.589891 0.099516 0.044641 1.67303 -1.48358 1 192 192 192 255 0.199353 0.060592
0.613855 0.188947 0.044641 1.48356 1.67302 2 192 192 192 255 0.199353 0.060592
0.067984 0.335212 0.044641 -1.67304 1.48354 1 192 192 192 255 0.199353 0.060592
0.619415 0.142195 0.061977 1 2 2 192 192 192 255 0.228969 0.062799
0.619415 0.142195 -0.061976 2 1 -1 192 192 192 255 0.228969 0.062799
0.477221 0.142195 0.061977 -2 1 1 192 192 192 255 0.170696 0.062799
0.477221 0.142195 -0.061976 -1 2 -2 192 192 192 255 0.170696 0.062799
0.477221 0 0.061977 -1 -2 2 192 192 192 255 0.13287 0.062799
0.477221 0 -0.061976 -2 -1 -1 192 192 192 255 0.13287 0.062799
0.619415 0 -0.061976 1 -2 -2 192 192 192 255 0.13287 0.062799
0.619415 0 0.061977 2 -1 1 192 192 192 255 0.13287 0.062799
0.619415 0 -0.061976 1 -2 -2 192 192 192 255 0.195232 0.062799
0.477221 0 -0.061976 -2 -1 -1 192 192 192 255 0.195232 0.062799
0.477221 0.142195 -0.061976 -1 2 -2 192 192 192 255 0.195232 0.062799
0.619415 0.142195 -0.061976 2 1 -1 192 192 192 255 0.195232 0.062799
0.477221 0 0.061977 -1 -2 2 192 192 192 255 0.195232 0.062799
0.619415 0 0.061977 2 -1 1 192 192 192 255 0.195232 0.062799
0.619415 0.142195 0.061977 1 2 2 192 192 192 255 0.195232 0.062799
0.477221 0.142195 0.061977 -2 1 1 192 192 192 255 0.195232 0.062799
-0.613855 0.188947 -0.04464 -1.48356 1.67302 -2 192 192 192 255 0.23309 0.060592
-0.613855 0.188947 0.052153 -2.19066 0.448267 1 192 192 192 255 0.23309 0.060592
-0.067984 0.335212 -0.04464 1.67304 1.48354 -1 192 192 192 255 0.174817 0.060592
-0.067984 0.335212 0.052153 0.448293 2.19066 2 192 192 192 255 0.174817 0.060592
-0.044022 0.245781 -0.04464 1.48357 -1.67304 -2 192 192 192 255 0.136991 0.060592
-0.044022 0.245781 0.052153 2.19068 -0.448307 1 192 192 192 255 0.136991 0.060592
-0.589891 0.099516 0.052153 -0.448286 -2.19068 2 192 192 192 255 0.136991 0.060592
-0.589891 0.099516 -0.04464 -1.67303 -1.48358 -1 192 192 192 255 0.136991 0.060592
-0.589891 0.099516 0.052153 -0.448286 -2.19068 2 192 192 192 255 0.199353 0.060592
-0.044022 0.245781 0.052153 2.19068 -0.448307 1 192 192 192 255 0.199353 0.060592
-0.067984 0.335212 0.052153 0.448293 2.19066 2 192 192 192 255 0.199353 0.060592
-0.613855 0.188947 0.052153 -2.19066 0.448267 1 192 192 192 255 0.199353 0.060592
-0.044022 0.245781 -0.04464 1.48357 -1.67304 -2 192 192 192 255 0.199353 0.060592
-0.589891 0.099516 -0.04464 -1.67303 -1.48358 -1 192 192 192 255 0.199353 0.060592
-0.613855 0.188947 -0.04464 -1.48356 1.67302 -2 192 192 192 255 0.199353 0.060592
-0.067984 0.335212 -0.04464 1.67304 1.48354 -1 192 192 192 255 0.199353 0.060592
-0.619415 0.142195 -0.061976 -1 2 -2 192 192 192 255 0.228969 0.062799
-0.619415 0.142195 0.061977 -2 1 1 192 192 192 255 0.228969 0.062799
-0.477221 0.142195 -0.061976 2 1 -1 192 192 192 255 0.170696 0.062799
-0.477221 0.142195 0.061977 1 2 2 192 192 192 255 0.170696 0.062799
-0.477221 0 -0.061976 1 -2 -2 192 192 192 255 0.13287 0.062799
-0.477221 0 0.061977 2 -1 1 192 192 192 255 0.13287 0.062799
-0.619415 0 0.061977 -1 -2 2 192 192 192 255 0.13287 0.062799
-0.619415 0 -0.061976 -2 -1 -1 192 192 192 255 0.13287 0.062799
-0.619415 0 0.061977 -1 -2 2 192 192 192 255 0.195232 0.062799
-0.477221 0 0.061977 2 -1 1 192 192 192 255 0.195232 0.062799
-0.477221 0.142195 0.061977 1 2 2 192 192 192 255 0.195232 0.062799
-0.619415 0.142195 0.061977 -2 1 1 192 192 192 255 0.195232 0.062799
-0.477221 0 -0.061976 1 -2 -2 192 192 192 255 0.195232 0.062799
-0.619415 0 -0.061976 -2 -1 -1 192 192 192 255 0.195232 0.062799
-0.619415 0.142195 -0.061976 -1 2 -2 192 192 192 255 0.195232 0.062799
-0.477221 0.142195 -0.061976 2 1 -1 192 192 192 255 0.195232 0.062799
0.044641 0.188947 -0.613854 2 1.67303 -1.48356 192 192 192 255 0.23309 0.060592
-0.052153 0.188947 -0.613854 -1 0.448288 -2.19067 192 192 192 255 0.23309 0.060592
0.044641 0.335212 -0.067985 1 1.48356 1.67303 192 192 192 255 0.174817 0.060592
-0.052153 0.335212 -0.067985 -2 2.19067 0.448288 192 192 192 255 0.174817 0.060592
0.044641 0.245781 -0.044022 2 -1.67303 1.48356 192 192 192 255 0.136991 0.060592
-0.052153 0.245781 -0.044022 -1 -0.448287 2.19067 192 192 192 255 0.136991 0.060592
-0.052153 0.099516 -0.589891 -2 -2.19067 -0.448288 192 192 192 255 0.136991 0.060592
0.044641 0.099516 -0.589891 1 -1.48356 -1.67303 192 192 192 255 0.136991 0.060592
-0.052153 0.099516 -0.589891 -2 -2.19067 -0.448288 192 192 192 255 0.199353 0.060592
-0.052153 0.245781 -0.044022 -1 -0.448287 2.19067 192 192 192 255 0.199353 0.060592
-0.052153 0.335212 -0.067985 -2 2.19067 0.448288 192 192 192 255 0.199353 0.060592
-0.052153 0.188947 -0.613854 -1 0.448288 -2.19067 192 192 192 255 0.199353 0.060592
0.044641 0.245781 -0.044022 2 -1.67303 1.48356 192 192 192 255 0.199353 0.060592
0.044641 0.099516 -0.589891 1 -1.48356 -1.67303 192 192 192 255 0.199353 0.060592
0.044641 0.188947 -0.613854 2 1.67303 -1.48356 192 192 192 255 0.199353 0.060592
0.044641 0.335212 -0.067985 1 1.48356 1.67303 192 192 192 255 0.199353 0.060592
0.061975 0.142195 -0.619415 2 2 -1 192 192 192 255 0.228969 0.062799
-0.061975 0.142195 -0.619415 -1 1 -2 192 192 192 255 0.228969 0.062799
0.061975 0.142195 -0.477221 1 1 2 192 192 192 255 0.170696 0.062799
-0.061975 0.142195 -0.477221 -2 2 1 192 192 192 255 0.170696 0.062799
0.061975 0 -0.477221 2 -2 1 192 192 192 255 0.13287 0.062799
-0.061975 0 -0.477221 -1 -1 2 192 192 192 255 0.13287 0.062799
-0.061975 0 -0.619415 -2 -2 -1 192 192 192 255 0.13287 0.062799
0.061975 0 -0.619415 1 -1 -2 192 192 192 255 0.13287 0.062799
-0.061975 0 -0.619415 -2 -2 -1 192 192 192 255 0.195232 0.062799
-0.061975 0 -0.477221 -1 -1 2 192 192 192 255 0.195232 0.062799
-0.061975 0.142195 -0.477221 -2 2 1 192 192 192 255 0.195232 0.062799
-0.061975 0.142195 -0.619415 -1 1 -2 192 192 192 255 0.195232 0.062799
0.061975 0 -0.477221 2 -2 1 192 192 192 255 0.195232 0.062799
0.061975 0 -0.619415 1 -1 -2 192 192 192 255 0.195232 0.062799
0.061975 0.142195 -0.619415 2 2 -1 192 192 192 255 0.195232 0.062799
0.061975 0.142195 -0.477221 1 1 2 192 192 192 255 0.195232 0.062799
-0.044641 0.188947 0.613854 -2 1.67303 1.48356 192 192 192 255 0.23309 0.060592
0.052153 0.188947 0.613854 1 0.448288 2.19067 192 192 192 255 0.23309 0.060592
-0.044641 0.335212 0.067985 -1 1.48356 -1.67303 192 192 192 255 0.174817 0.060592
0.052153 0.335212 0.067985 2 2.19067 -0.448288 192 192 192 255 0.174817 0.060592
-0.044641 0.245781 0.044022 -2 -1.67303 -1.48356 192 192 192 255 0.136991 0.060592
0.052153 0.245781 0.044022 1 -0.448287 -2.19067 192 192 192 255 0.136991 0.060592
0.052153 0.099516 0.589891 2 -2.19067 0.448288 192 192 192 255 0.136991 0.060592
-0.044641 0.099516 0.589891 -1 -1.48356 1.67303 192 192 192 255 0.136991 0.060592
0.052153 0.099516 0.589891 2 -2.19067 0.448288 192 192 192 255 0.199353 0.060592
0.052153 0.245781 0.044022 1 -0.448287 -2.19067 192 192 192 255 0.199353 0.060592
0.052153 0.335212 0.067985 2 2.19067 -0.448288 192 192 192 255 0.199353 0.060592
0.052153 0.188947 0.613854 1 0.448288 2.19067 192 192 192 255 0.199353 0.060592
-0.044641 0.245781 0.044022 -2 -1.67303 -1.48356 192 192 192 255 0.199353 0.060592
-0.044641 0.099516 0.589891 -1 -1.48356 1.67303 192 192 192 255 0.199353 0.060592
-0.044641 0.188947 0.613854 -2 1.67303 1.48356 192 192 192 255 0.199353 0.060592
-0.044641 0.335212 0.067985 -1 1.48356 -1.67303 192 192 192 255 0.199353 0.060592
-0.061977 0.142195 0.619415 -2 2 1 192 192 192 255 0.228969 0.062799
0.061975 0.142195 0.619415 1 1 2 192 192 192 255 0.228969 0.062799
-0.061977 0.142195 0.477221 -1 1 -2 192 192 192 255 0.170696 0.062799
0.061975 0.142195 0.477221 2 2 -1 192 192 192 255 0.170696 0.062799
-0.061977 0 0.477221 -2 -2 -1 192 192 192 255 0.13287 0.062799
0.061975 0 0.477221 1 -1 -2 192 192 192 255 0.13287 0.062799
0.061975 0 0.619415 2 -2 1 192 192 192 255 0.13287 0.062799
-0.061977 0 0.619415 -1 -1 2 192 192 192 255 0.13287 0.062799
0.061975 0 0.619415 2 -2 1 192 192 192 255 0.195232 0.062799
0.061975 0 0.477221 1 -1 -2 192 192 192 255 0.195232 0.062799
0.061975 0.142195 0.477221 2 2 -1 192 192 192 255 0.195232 0.062799
0.061975 0.142195 0.619415 1 1 2 192 192 192 255 0.195232 0.062799
-0.061977 0 0.477221 -2 -2 -1 192 192 192 255 0.195232 0.062799
-0.061977 0 0.619415 -1 -1 2 192 192 192 255 0.195232 0.062799
-0.061977 0.142195 0.619415 -2 2 1 192 192 192 255 0.195232 0.062799
-0.061977 0.142195 0.477221 -1 1 -2 192 192 192 255 0.195232 0.062799
0.433439 0.84677 -0.350993 -3 -0.747224 -1.98396 192 192 192 255 0.198679 0.062606
0.433439 1.23906 -0.301012 -3 2.12639 -0.991981 192 192 192 255 0.198679 0.062606
0.499973 1.23906 -0.301012 3 1.25278 -1.98396 192 192 192 255 0.198679 0.062606
0.499973 0.84677 -0.350993 3 -1.87361 -0.991981 192 192 192 255 0.198679 0.062606
0.433439 1.23906 0.156997 -3 0.483781 1.93223 192 192 192 255 0.198679 0.062606
0.433439 0.84677 0.052193 -3 -2.25811 0.966116 192 192 192 255 0.198679 0.062606
0.499973 0.84677 0.052193 3 -1.51622 1.93223 192 192 192 255 0.198679 0.062606
0.499973 1.23906 0.156997 3 1.74189 0.966116 192 192 192 255 0.198679 0.062606
0.499973 0.84677 0.052193 3 -1.51622 1.93223 192 192 192 255 0.232415 0.062606
0.499973 0.84677 -0.350993 3 -1.87361 -0.991981 192 192 192 255 0.232415 0.062606
0.499973 1.23906 -0.301012 3 1.25278 -1.98396 192 192 192 255 0.232415 0.062606
0.499973 1.23906 0.156997 3 1.74189 0.966116 192 192 192 255 0.232415 0.062606
0.433439 1.23906 0.156997 -3 0.483781 1.93223 192 192 192 255 0.136317 0.062606
0.433439 1.23906 -0.301012 -3 2.12639 -0.991981 192 192 192 255 0.136317 0.062606
0.433439 0.84677 -0.350993 -3 -0.747224 -1.98396 192 192 192 255 0.136317 0.062606
0.433439 0.84677 0.052193 -3 -2.25811 0.966116 192 192 192 255 0.136317 0.062606
0.499973 1.16468 -0.221974 3 -2.2608 1.98292 192 192 192 255 0.172615 0.060617
0.499973 1.16468 0.058724 3 -0.44392 -1.92114 192 192 192 255 0.172614 0.060617
0.433439 1.16468 0.058724 -3 -1.72196 -0.96057 192 192 192 255 0.172614 0.060617
0.433439 1.16468 -0.221974 -3 -1.1304 0.991461 192 192 192 255 0.172615 0.060617
0.499973 1.16468 0.058724 3 -0.44392 -1.92114 192 192 192 255 0.171428 0.05961
0.499973 0.921145 -0.011768 3 1.27804 -0.96057 192 192 192 255 0.171428 0.05961
0.433439 0.921145 -0.011768 -3 2.55608 -1.92114 192 192 192 255 0.171428 0.05961
0.433439 1.16468 0.058724 -3 -1.72196 -0.96057 192 192 192 255 0.171428 0.05961
0.433439 0.921145 -0.254005 -3 0.739195 1.98292 192 192 192 255 0.172615 0.060617
0.499973 0.921145 -0.254005 3 1.8696 0.991461 192 192 192 255 0.172615 0.060617
0.499973 0.921145 -0.254005 3 1.8696 0.991461 192 192 192 255 0.171428 0.05961
0.433439 0.921145 -0.254005 -3 0.739195 1.98292 192 192 192 255 0.171428 0.05961
-0.433439 0.84677 0.052192 3 -1.51622 1.93223 192 192 192 255 0.198679 0.062606
-0.433439 1.23906 0.156997 3 1.74189 0.966115 192 192 192 255 0.198679 0.062606
-0.499973 1.23906 0.156997 -3 0.483776 1.93223 192 192 192 255 0.198679 0.062606
-0.499973 0.84677 0.052192 -3 -2.25811 0.966115 192 192 192 255 0.198679 0.062606
-0.433439 1.23906 -0.301012 3 1.25278 -1.98396 192 192 192 255 0.198679 0.062606
-0.433439 0.84677 -0.350993 3 -1.87361 -0.991981 192 192 192 255 0.198679 0.062606
-0.499973 0.84677 -0.350993 -3 -0.747224 -1.98396 192 192 192 255 0.198679 0.062606
-0.499973 1.23906 -0.301012 -3 2.12639 -0.991981 192 192 192 255 0.198679 0.062606
-0.499973 0.84677 -0.350993 -3 -0.747224 -1.98396 192 192 192 255 0.232415 0.062606
-0.499973 0.84677 0.052192 -3 -2.25811 0.966115 192 192 192 255 0.232415 0.062606
-0.499973 1.23906 0.156997 -3 0.483776 1.93223 192 192 192 255 0.232415 0.062606
-0.499973 1.23906 -0.301012 -3 2.12639 -0.991981 192 192 192 255 0.232415 0.062606
-0.433439 1.23906 -0.301012 3 1.25278 -1.98396 192 192 192 255 0.136317 0.062606
-0.433439 1.23906 0.156997 3 1.74189 0.966115 192 192 192 255 0.136317 0.062606
-0.433439 0.84677 0.052192 3 -1.51622 1.93223 192 192 192 255 0.136317 0.062606
-0.433439 0.84677 -0.350993 3 -1.87361 -0.991981 192 192 192 255 0.136317 0.062606
-0.499973 1.16468 0.058724 -3 -1.44391 -1.92114 192 192 192 255 0.172615 0.060617
-0.499973 1.16468 -0.221974 -3 -1.26081 1.98292 192 192 192 255 0.172614 0.060617
-0.433439 1.16468 -0.221974 3 -2.13041 0.991461 192 192 192 255 0.172614 0.060617
-0.433439 1.16468 0.058724 3 -0.721956 -0.960568 192 192 192 255 0.172615 0.060617
-0.499973 1.16468 -0.221974 -3 -1.26081 1.98292 192 192 192 255 0.171428 0.05961
-0.499973 0.921145 -0.254006 -3 0.869594 0.991461 192 192 192 255 0.171428 0.05961
-0.433439 0.921145 -0.254006 3 1.73919 1.98292 192 192 192 255 0.171428 0.05961
-0.433439 1.16468 -0.221974 3 -2.13041 0.991461 192 192 192 255 0.171428 0.05961
-0.433439 0.921145 -0.011769 3 1.55609 -1.92114 192 192 192 255 0.172615 0.060617
-0.499973 0.921145 -0.011769 -3 2.27804 -0.960568 192 192 192 255 0.172615 0.060617
-0.499973 0.921145 -0.011769 -3 2.27804 -0.960568 192 192 192 255 0.171428 0.05961
-0.433439 0.921145 -0.011769 3 1.55609 -1.92114 192 192 192 255 0.171428 0.05961
-0.346092 0.959346 -0.296931 0.995601 4.43085 1.95802 192 192 192 255 0.356853 0.267674
0.34693 0.959391 -0.468821 -0.952281 1.43516 -2.95282 192 192 192 255 0.138704 0.06311
-0.34693 0.959391 -0.468821 1.95985 0.210996 -3.94813 192 192 192 255 0.356853 0.267674
0.34693 0.959391 -0.468821 -0.952281 1.43516 -2.95282 192 192 192 255 0.234733 0.063114
-0.34693 0.959391 -0.468821 1.95985 0.210996 -3.94813 192 192 192 255 0.234733 0.063114
-0.346092 0.959346 -0.296931 0.995601 4.43085 1.95802 192 192 192 255 0.234733 0.063114
0.350018 0.959346 -0.296931 -1.99442 2.14805 1.01044 192 192 192 255 0.234733 0.063114
0.433332 0.959346 -0.29693 3.02614 0.59231 1.89475 192 192 192 255 0.234803 0.06311
0.350018 0.959346 -0.296931 -1.99442 2.14805 1.01044 192 192 192 255 0.234803 0.06311
0.433332 0.959346 0.424809 2 2.06013 2 192 192 192 255 0.234803 0.06311
0.424955 0.959406 -0.465429 1.04834 -0.116503 -1.02824 192 192 192 255 0.171653 0.063138
0.433332 0.959346 -0.29693 3.02614 0.59231 1.89475 192 192 192 255 0.171653 0.063138
0.433332 0.7992 -0.441855 2.02754 -2.3326 -1.98609 192 192 192 255 0.171653 0.063138
0.34693 0.959391 -0.468821 -0.952281 1.43516 -2.95282 192 192 192 255 0.145867 0.063038
0.424955 0.959406 -0.465429 1.04834 -0.116503 -1.02824 192 192 192 255 0.145867 0.063038
0.433332 0.7992 -0.441855 2.02754 -2.3326 -1.98609 192 192 192 255 0.145867 0.063038
-0.433332 0.7992 -0.441855 -2.02753 -1.16662 -0.999966 192 192 192 255 0.145867 0.063038
-0.424753 0.959386 -0.466107 -2.04208 -0.0657088 -1.05823 192 192 192 255 0.145867 0.063038
-0.34693 0.959391 -0.468821 1.95985 0.210996 -3.94813 192 192 192 255 0.145867 0.063038
-0.433332 0.959346 -0.29693 -2.02665 0.329392 0.946094 192 192 192 255 0.171653 0.063138
-0.424753 0.959386 -0.466107 -2.04208 -0.0657088 -1.05823 192 192 192 255 0.171653 0.063138
-0.433332 0.7992 -0.441855 -2.02753 -1.16662 -0.999966 192 192 192 255 0.171653 0.063138
3 0 1 3 
3 0 3 2 
3 154 155 5 
3 154 5 4 
3 156 157 7 
3 156 7 6 
3 158 159 160 
3 158 160 161 
3 162 163 164 
3 162 164 165 
3 166 167 168 
3 166 168 169 
3 8 9 11 
3 8 11 10 
3 170 171 13 
3 170 13 12 
3 172 173 15 
3 172 15 14 
3 174 175 176 
3 174 176 177 
3 178 179 180 
3 178 180 181 
3 182 183 184 
3 182 184 185 
3 24 25 26 
3 24 26 27 
3 186 187 28 
3 186 28 29 
3 188 189 30 
3 188 30 31 
3 18 19 17 
3 18 17 16 
3 190 191 192 
3 190 192 193 
3 194 195 196 
3 194 196 197 
3 198 199 21 
3 198 21 20 
3 200 201 22 
3 200 22 202 
3 23 203 204 
3 23 204 205 
3 206 207 208 
3 206 208 209 
3 20 21 25 
3 20 25 24 
3 203 23 31 
3 203 31 30 
3 202 22 191 
3 202 191 190 
3 209 208 195 
3 209 195 194 
3 32 33 34 
3 32 34 40 
3 210 146 211 
3 35 42 36 
3 35 36 37 
3 212 213 214 
3 212 214 215 
3 216 217 218 
3 216 218 219 
3 45 46 153 
3 45 153 220 
3 47 44 221 
3 47 221 152 
3 43 38 39 
3 43 39 41 
3 222 223 224 
3 222 224 225 
3 226 227 228 
3 226 228 229 
3 230 231 232 
3 230 232 233 
3 234 235 236 
3 234 236 237 
3 48 49 51 
3 48 51 50 
3 238 239 53 
3 238 53 52 
3 240 241 55 
3 240 55 54 
3 242 243 244 
3 242 244 245 
3 246 247 248 
3 246 248 249 
3 250 251 252 
3 250 252 253 
3 56 57 59 
3 56 59 58 
3 254 255 61 
3 254 61 60 
3 256 257 63 
3 256 63 62 
3 258 259 260 
3 258 260 261 
3 262 263 264 
3 262 264 265 
3 266 267 268 
3 266 268 269 
3 64 65 67 
3 64 67 66 
3 270 271 69 
3 270 69 68 
3 272 273 71 
3 272 71 70 
3 274 275 276 
3 274 276 277 
3 278 279 280 
3 278 280 281 
3 282 283 284 
3 282 284 285 
3 72 73 75 
3 72 75 74 
3 286 287 77 
3 286 77 76 
3 288 289 79 
3 288 79 78 
3 290 291 292 
3 290 292 293 
3 294 295 296 
3 294 296 297 
3 298 299 300 
3 298 300 301 
3 80 81 83 
3 80 83 82 
3 302 303 85 
3 302 85 84 
3 304 305 87 
3 304 87 86 
3 306 307 308 
3 306 308 309 
3 310 311 312 
3 310 312 313 
3 314 315 316 
3 314 316 317 
3 88 89 91 
3 88 91 90 
3 318 319 93 
3 318 93 92 
3 320 321 95 
3 320 95 94 
3 322 323 324 
3 322 324 325 
3 326 327 328 
3 326 328 329 
3 330 331 332 
3 330 332 333 
3 96 97 99 
3 96 99 98 
3 334 335 101 
3 334 101 100 
3 336 337 103 
3 336 103 102 
3 338 339 340 
3 338 340 341 
3 342 343 344 
3 342 344 345 
3 346 347 348 
3 346 348 349 
3 104 105 107 
3 104 107 106 
3 350 351 109 
3 350 109 108 
3 352 353 111 
3 352 111 110 
3 354 355 356 
3 354 356 357 
3 358 359 360 
3 358 360 361 
3 362 363 364 
3 362 364 365 
3 112 113 115 
3 112 115 114 
3 116 117 119 
3 116 119 118 
3 366 367 368 
3 366 368 369 
3 370 371 372 
3 370 372 373 
3 374 375 121 
3 374 121 120 
3 375 376 122 
3 375 122 121 
3 376 377 123 
3 376 123 122 
3 377 374 120 
3 377 120 123 
3 378 379 125 
3 378 125 124 
3 379 380 126 
3 379 126 125 
3 380 381 127 
3 380 127 126 
3 381 378 124 
3 381 124 127 
3 382 383 384 
3 382 384 385 
3 386 387 388 
3 386 388 389 
3 382 385 390 
3 382 390 391 
3 392 393 388 
3 392 388 387 
3 128 129 131 
3 128 131 130 
3 132 133 135 
3 132 135 134 
3 394 395 396 
3 394 396 397 
3 398 399 400 
3 398 400 401 
3 402 403 137 
3 402 137 136 
3 403 404 138 
3 403 138 137 
3 404 405 139 
3 404 139 138 
3 405 402 136 
3 405 136 139 
3 406 407 141 
3 406 141 140 
3 407 408 142 
3 407 142 141 
3 408 409 143 
3 408 143 142 
3 409 406 140 
3 409 140 143 
3 410 411 412 
3 410 412 413 
3 414 415 416 
3 414 416 417 
3 410 413 418 
3 410 418 419 
3 420 421 416 
3 420 416 415 
3 44 45 145 
3 44 145 144 
3 45 220 422 
3 45 422 145 
3 221 44 144 
3 221 144 147 
3 46 47 149 
3 46 149 148 
3 47 152 150 
3 47 150 149 
3 212 215 151 
3 212 151 423 
3 424 153 46 
3 424 46 148 
3 147 144 149 
3 147 149 150 
3 144 145 148 
3 144 148 149 
3 145 422 424 
3 145 424 148 
3 425 426 427 
3 425 427 428 
3 429 430 431 
3 431 430 146 
3 431 146 210 
3 432 433 434 
3 435 436 437 
3 438 439 440 
3 441 442 443 
