ply
format ascii 1.0
comment VCGLIB generated
comment TextureFile SpaceInteriors_Texture.png
element vertex 54
property float x
property float y
property float z
property float nx
property float ny
property float nz
property uchar red
property uchar green
property uchar blue
property uchar alpha
property float texture_u
property float texture_v
element face 32
property list uchar int vertex_indices
end_header
-1 0 0 -1 -1 3 192 192 192 255 0.233148 0.061667
-1 1 -0.629269 -1 2.7946 0.607132 192 192 192 255 0.749827 0.99129
-1 1 -1 -2 1 -2 192 192 192 255 0.300052 0.061667
-1 0 -1 -2 -2 -1 192 192 192 255 0.265187 0.061667
-1 0.519194 -0 -3 1.5892 4.21426 192 192 192 255 0.749827 0.873013
0 0.519194 0 1 0.794601 3.60713 192 192 192 255 0.991292 0.873013
0 1 -0.629269 3 2.5892 1.21426 192 192 192 255 0.991292 0.99129
0 1 -1 1 2 -1 192 192 192 255 0.300052 0.061667
0 0 -1 2 -1 -2 192 192 192 255 0.265187 0.061667
0 0 0 2 -2 3 192 192 192 255 0.200168 0.061667
-0.827683 0.089466 0 1 2 3 192 192 192 255 0.265187 0.061667
-0.172317 0.089466 0 -2 1 3 192 192 192 255 0.265187 0.061667
-0.172317 0.429728 0 -1 -2 3 192 192 192 255 0.265187 0.061667
-0.827683 0.429729 -0 2 -1 3 192 192 192 255 0.265187 0.061667
-0.827683 0.089466 -0.081945 2 1 2 192 192 192 255 0.237542 0.061667
-0.172317 0.089466 -0.081945 -1 2 1 192 192 192 255 0.237542 0.061667
-0.172317 0.429728 -0.081945 -2 -1 2 192 192 192 255 0.237542 0.061667
-0.827683 0.429729 -0.081945 0.999997 -2 1 192 192 192 255 0.237542 0.061667
-1 1 -0.629269 -1 2.7946 0.607132 192 192 192 255 0.300052 0.061667
0 1 -0.629269 3 2.5892 1.21426 192 192 192 255 0.300052 0.061667
-1 1 -1 -2 1 -2 192 192 192 255 0.265187 0.061667
0 1 -1 1 2 -1 192 192 192 255 0.265187 0.061667
-1 0.519194 -0 -3 1.5892 4.21426 192 192 192 255 0.233148 0.061667
-1 1 -0.629269 -1 2.7946 0.607132 192 192 192 255 0.233148 0.061667
-1 1 -1 -2 1 -2 192 192 192 255 0.233148 0.061667
-1 0 -1 -2 -2 -1 192 192 192 255 0.233148 0.061667
-1 0 -1 -2 -2 -1 192 192 192 255 0.200168 0.061667
0 0 -1 2 -1 -2 192 192 192 255 0.200168 0.061667
-1 0 0 -1 -1 3 192 192 192 255 0.200168 0.061667
0 1 -0.629269 3 2.5892 1.21426 192 192 192 255 0.234998 0.059727
0 0.519194 0 1 0.794601 3.60713 192 192 192 255 0.234998 0.059727
0 0 0 2 -2 3 192 192 192 255 0.234998 0.059727
0 0 -1 2 -1 -2 192 192 192 255 0.234998 0.059727
0 1 -1 1 2 -1 192 192 192 255 0.234998 0.059727
-1 0 0 -1 -1 3 192 192 192 255 0.265187 0.061667
0 0 0 2 -2 3 192 192 192 255 0.265187 0.061667
0 0.519194 0 1 0.794601 3.60713 192 192 192 255 0.265187 0.061667
-1 0.519194 -0 -3 1.5892 4.21426 192 192 192 255 0.265187 0.061667
-0.827683 0.089466 0 1 2 3 192 192 192 255 0.296518 0.061667
-0.172317 0.089466 0 -2 1 3 192 192 192 255 0.296518 0.061667
-0.172317 0.089466 -0.081945 -1 2 1 192 192 192 255 0.296518 0.061667
-0.827683 0.089466 -0.081945 2 1 2 192 192 192 255 0.296518 0.061667
-0.172317 0.089466 0 -2 1 3 192 192 192 255 0.204368 0.061667
-0.172317 0.429728 0 -1 -2 3 192 192 192 255 0.204368 0.061667
-0.172317 0.429728 -0.081945 -2 -1 2 192 192 192 255 0.204368 0.061667
-0.172317 0.089466 -0.081945 -1 2 1 192 192 192 255 0.204368 0.061667
-0.172317 0.429728 0 -1 -2 3 192 192 192 255 0.174879 0.061667
-0.827683 0.429729 -0 2 -1 3 192 192 192 255 0.174879 0.061667
-0.827683 0.429729 -0.081945 0.999997 -2 1 192 192 192 255 0.174879 0.061667
-0.172317 0.429728 -0.081945 -2 -1 2 192 192 192 255 0.174879 0.061667
-0.827683 0.429729 -0 2 -1 3 192 192 192 255 0.204368 0.061667
-0.827683 0.089466 0 1 2 3 192 192 192 255 0.204368 0.061667
-0.827683 0.089466 -0.081945 2 1 2 192 192 192 255 0.204368 0.061667
-0.827683 0.429729 -0.081945 0.999997 -2 1 192 192 192 255 0.204368 0.061667
3 4 5 6 
3 4 6 1 
3 18 19 7 
3 18 7 2 
3 20 21 8 
3 20 8 3 
3 22 23 24 
3 22 24 25 
3 22 25 0 
3 14 15 16 
3 14 16 17 
3 26 27 9 
3 26 9 28 
3 29 30 31 
3 29 31 32 
3 29 32 33 
3 34 35 11 
3 34 11 10 
3 35 36 12 
3 35 12 11 
3 36 37 13 
3 36 13 12 
3 37 34 10 
3 37 10 13 
3 38 39 40 
3 38 40 41 
3 42 43 44 
3 42 44 45 
3 46 47 48 
3 46 48 49 
3 50 51 52 
3 50 52 53 
