ply
format ascii 1.0
comment VCGLIB generated
comment TextureFile SpaceInteriors_Texture.png
element vertex 124
property float x
property float y
property float z
property float nx
property float ny
property float nz
property uchar red
property uchar green
property uchar blue
property uchar alpha
property float texture_u
property float texture_v
element face 100
property list uchar int vertex_indices
end_header
-0.410905 0 0.264118 -1 -1 3 192 192 192 255 0.32858 0.329387
0.410905 0 0.264118 2 -2 3 192 192 192 255 0.32858 0.329387
-0.410905 2.9772 0.264118 -2 2 3 192 192 192 255 0.361973 0.330839
0.410905 2.9772 0.264118 1 1 3 192 192 192 255 0.361973 0.330839
-0.410905 2.9772 -0.360008 -1 1 -2 192 192 192 255 0.361973 0.330839
0.410905 2.9772 -0.360008 2 2 -1 192 192 192 255 0.361973 0.330839
-0.410905 0 -0.360008 -2 -2 -1 192 192 192 255 0.32858 0.329387
0.410905 0 -0.360008 1 -1 -2 192 192 192 255 0.32858 0.329387
-0.340427 0.075429 0.264118 0 0 6 192 192 192 255 0.32858 0.329387
0.340427 0.075429 0.264118 0 0 6 192 192 192 255 0.32858 0.329387
0.340427 2.90177 0.264118 0 0 7 192 192 192 255 0.32858 0.329387
-0.340427 2.90177 0.264118 0 0 6 192 192 192 255 0.32858 0.329387
-0.300848 0.121123 0.264118 0 0 6 192 192 192 255 0.106539 0.469908
0.300847 0.121123 0.264118 0 0 6 192 192 192 255 0.106539 0.469908
0.300847 2.85608 0.264118 0 0 6 192 192 192 255 0.106539 0.469908
-0.300848 2.85608 0.264118 0 0 6 192 192 192 255 0.106539 0.469908
-0.239911 0.22676 0.264118 0 0 5 192 192 192 255 0.785053 0.012981
0.23991 0.22676 0.264118 0 0 4 192 192 192 255 0.785053 0.010374
0.23991 2.75044 0.264118 0 0 4 192 192 192 255 0.32858 0.329387
-0.239911 2.75044 0.264118 0 0 4 192 192 192 255 0.32858 0.329387
0.23991 2.36505 0.264118 0 0 5.10682 192 192 192 255 0.32858 0.329387
-0.239911 2.36505 0.264118 0 0 5.10682 192 192 192 255 0.785053 0.012981
-0.410905 1.4886 -0.360008 -3 0 -3 192 192 192 255 0.32858 0.329387
0.410905 1.4886 -0.360008 3 0 -3 192 192 192 255 0.32858 0.329387
0.410905 1.4886 0.264118 3 0 3 192 192 192 255 0.290832 0.332291
0.340427 1.4886 0.264118 0 0 5 192 192 192 255 0.32858 0.329387
0.300847 1.4886 0.264118 0 0 6.10682 192 192 192 255 0.106539 0.469908
0.23991 0.612152 0.264118 0 0 5.10682 192 192 192 255 0.700261 0.010374
-0.239911 0.612152 0.264118 0 0 4.10682 192 192 192 255 0.700261 0.012981
-0.300848 1.4886 0.264118 0 0 6.10682 192 192 192 255 0.106539 0.469908
-0.340427 1.4886 0.264118 0 0 6 192 192 192 255 0.32858 0.329387
-0.410905 1.4886 0.264118 -3 0 3 192 192 192 255 0.290832 0.332291
-0.242681 1.3172 0.317986 -1 -1 2 192 192 192 255 0.365638 0.265206
-0.188815 1.3172 0.317986 2 -2 1 192 192 192 255 0.365638 0.265206
-0.242681 1.66911 0.317986 -2 2 1 192 192 192 255 0.365638 0.265206
-0.188815 1.66911 0.317986 1 1 2 192 192 192 255 0.365638 0.265206
-0.242681 1.66911 0.264122 -1 1 -2 192 192 192 255 0.391046 0.268836
-0.188815 1.66911 0.264122 2 2 -1 192 192 192 255 0.391046 0.268836
-0.242681 1.3172 0.264122 -2 -2 -1 192 192 192 255 0.365638 0.265206
-0.188815 1.3172 0.264122 1 -1 -2 192 192 192 255 0.365638 0.265206
-0.09147 1.70538 0.360008 -0.982767 -0.982768 2.36969 192 192 192 255 0.146621 0.474919
-0.031652 1.70538 0.360008 1.96553 -1.96554 1.73938 192 192 192 255 0.146621 0.474919
-0.09147 1.7652 0.360008 -1.96553 1.96554 1.73938 192 192 192 255 0.146621 0.474919
-0.031652 1.7652 0.360008 0.982767 0.982768 2.36969 192 192 192 255 0.146621 0.474919
-0.020622 1.77623 0.301365 1.96553 1.96554 3.73938 192 192 192 255 0.172029 0.478548
-0.1025 1.77623 0.301365 -0.982767 0.982768 3.36969 192 192 192 255 0.172029 0.478548
-0.1025 1.69435 0.301365 -1.96553 -1.96554 3.73938 192 192 192 255 0.146621 0.474919
-0.020622 1.69435 0.301365 0.982767 -0.982768 3.36969 192 192 192 255 0.146621 0.474919
-0.121161 1.79489 0.264122 -1 1 -2 192 192 192 255 0.365638 0.265206
-0.001961 1.79489 0.264122 1 2 -1 192 192 192 255 0.365638 0.265206
-0.001961 1.67569 0.264122 2 -1 -2 192 192 192 255 0.365638 0.265206
-0.121161 1.67569 0.264122 -2 -2 -1 192 192 192 255 0.365638 0.265206
-0.001961 1.79489 0.301365 2 1 3 192 192 192 255 0.391046 0.268836
-0.121161 1.79489 0.301365 -2 2 3 192 192 192 255 0.391046 0.268836
-0.121161 1.67569 0.301365 -1 -1 3 192 192 192 255 0.327889 0.26811
-0.001961 1.67569 0.301365 1 -2 3 192 192 192 255 0.365638 0.265206
0.410905 0 0.264118 2 -2 3 192 192 192 255 0.290832 0.332291
0.410905 0 -0.360008 1 -1 -2 192 192 192 255 0.290831 0.332291
0.410905 1.4886 -0.360008 3 0 -3 192 192 192 255 0.290831 0.332291
-0.410905 0 -0.360008 -2 -2 -1 192 192 192 255 0.290832 0.332291
-0.410905 0 0.264118 -1 -1 3 192 192 192 255 0.290832 0.332291
-0.410905 1.4886 -0.360008 -3 0 -3 192 192 192 255 0.290832 0.332291
0.410905 1.4886 0.264118 3 0 3 192 192 192 255 0.32858 0.329387
0.410905 2.9772 0.264118 1 1 3 192 192 192 255 0.32858 0.329387
-0.410905 2.9772 0.264118 -2 2 3 192 192 192 255 0.32858 0.329387
-0.410905 1.4886 0.264118 -3 0 3 192 192 192 255 0.32858 0.329387
-0.340427 0.075429 0.264118 0 0 6 192 192 192 255 0.106539 0.469908
0.340427 0.075429 0.264118 0 0 6 192 192 192 255 0.106539 0.469908
0.340427 1.4886 0.264118 0 0 5 192 192 192 255 0.106539 0.469908
0.340427 2.90177 0.264118 0 0 7 192 192 192 255 0.106539 0.469908
-0.340427 2.90177 0.264118 0 0 6 192 192 192 255 0.106539 0.469908
-0.340427 1.4886 0.264118 0 0 6 192 192 192 255 0.106539 0.469908
-0.300848 0.121123 0.264118 0 0 6 192 192 192 255 0.32858 0.329387
0.300847 0.121123 0.264118 0 0 6 192 192 192 255 0.32858 0.329387
0.23991 0.22676 0.264118 0 0 4 192 192 192 255 0.32858 0.329387
-0.239911 0.22676 0.264118 0 0 5 192 192 192 255 0.32858 0.329387
0.300847 1.4886 0.264118 0 0 6.10682 192 192 192 255 0.32858 0.329387
0.23991 0.612152 0.264118 0 0 5.10682 192 192 192 255 0.32858 0.329387
0.300847 2.85608 0.264118 0 0 6 192 192 192 255 0.32858 0.329387
-0.300848 2.85608 0.264118 0 0 6 192 192 192 255 0.32858 0.329387
-0.300848 1.4886 0.264118 0 0 6.10682 192 192 192 255 0.32858 0.329387
-0.239911 0.612152 0.264118 0 0 4.10682 192 192 192 255 0.32858 0.329387
0.23991 2.36505 0.264118 0 0 5.10682 192 192 192 255 0.785053 0.010374
0.23991 2.75044 0.264118 0 0 4 192 192 192 255 0.700261 0.010374
-0.239911 2.75044 0.264118 0 0 4 192 192 192 255 0.700261 0.012981
-0.239911 2.36505 0.264118 0 0 5.10682 192 192 192 255 0.32858 0.329387
-0.410905 2.9772 0.264118 -2 2 3 192 192 192 255 0.290832 0.332291
-0.410905 2.9772 -0.360008 -1 1 -2 192 192 192 255 0.290832 0.332291
-0.410905 2.9772 -0.360008 -1 1 -2 192 192 192 255 0.32858 0.329387
0.410905 2.9772 -0.360008 2 2 -1 192 192 192 255 0.32858 0.329387
0.410905 2.9772 -0.360008 2 2 -1 192 192 192 255 0.290831 0.332291
0.410905 2.9772 0.264118 1 1 3 192 192 192 255 0.290832 0.332291
-0.242681 1.66911 0.317986 -2 2 1 192 192 192 255 0.391046 0.268836
-0.188815 1.66911 0.317986 1 1 2 192 192 192 255 0.391046 0.268836
-0.242681 1.66911 0.264122 -1 1 -2 192 192 192 255 0.365638 0.265206
-0.188815 1.66911 0.264122 2 2 -1 192 192 192 255 0.365638 0.265206
-0.188815 1.3172 0.317986 2 -2 1 192 192 192 255 0.327889 0.26811
-0.188815 1.3172 0.264122 1 -1 -2 192 192 192 255 0.327889 0.26811
-0.188815 1.66911 0.264122 2 2 -1 192 192 192 255 0.327889 0.26811
-0.188815 1.66911 0.317986 1 1 2 192 192 192 255 0.327889 0.26811
-0.242681 1.3172 0.264122 -2 -2 -1 192 192 192 255 0.327889 0.26811
-0.242681 1.3172 0.317986 -1 -1 2 192 192 192 255 0.327889 0.26811
-0.242681 1.66911 0.317986 -2 2 1 192 192 192 255 0.327889 0.26811
-0.242681 1.66911 0.264122 -1 1 -2 192 192 192 255 0.327889 0.26811
-0.09147 1.7652 0.360008 -1.96553 1.96554 1.73938 192 192 192 255 0.172029 0.478548
-0.031652 1.7652 0.360008 0.982767 0.982768 2.36969 192 192 192 255 0.172029 0.478548
-0.020622 1.77623 0.301365 1.96553 1.96554 3.73938 192 192 192 255 0.146621 0.474919
-0.1025 1.77623 0.301365 -0.982767 0.982768 3.36969 192 192 192 255 0.146621 0.474919
-0.001961 1.79489 0.264122 1 2 -1 192 192 192 255 0.391046 0.268836
-0.121161 1.79489 0.264122 -1 1 -2 192 192 192 255 0.391046 0.268836
-0.121161 1.67569 0.264122 -2 -2 -1 192 192 192 255 0.327889 0.26811
-0.121161 1.79489 0.301365 -2 2 3 192 192 192 255 0.327889 0.26811
-0.121161 1.79489 0.264122 -1 1 -2 192 192 192 255 0.327889 0.26811
-0.121161 1.67569 0.301365 -1 -1 3 192 192 192 255 0.365638 0.265206
-0.001961 1.79489 0.301365 2 1 3 192 192 192 255 0.327889 0.26811
-0.001961 1.67569 0.301365 1 -2 3 192 192 192 255 0.327889 0.26811
-0.001961 1.67569 0.264122 2 -1 -2 192 192 192 255 0.327889 0.26811
-0.001961 1.79489 0.264122 1 2 -1 192 192 192 255 0.327889 0.26811
-0.1025 1.77623 0.301365 -0.982767 0.982768 3.36969 192 192 192 255 0.365638 0.265206
-0.020622 1.77623 0.301365 1.96553 1.96554 3.73938 192 192 192 255 0.365638 0.265206
-0.001961 1.79489 0.301365 2 1 3 192 192 192 255 0.365638 0.265206
-0.121161 1.79489 0.301365 -2 2 3 192 192 192 255 0.365638 0.265206
-0.1025 1.69435 0.301365 -1.96553 -1.96554 3.73938 192 192 192 255 0.365638 0.265206
-0.020622 1.69435 0.301365 0.982767 -0.982768 3.36969 192 192 192 255 0.365638 0.265206
3 16 17 27 
3 16 27 28 
3 2 3 5 
3 2 5 4 
3 22 23 7 
3 22 7 6 
3 6 7 1 
3 6 1 0 
3 56 57 58 
3 56 58 24 
3 59 60 31 
3 59 31 61 
3 0 1 9 
3 0 9 8 
3 1 62 25 
3 1 25 9 
3 63 64 11 
3 63 11 10 
3 65 0 8 
3 65 8 30 
3 66 67 13 
3 66 13 12 
3 67 68 26 
3 67 26 13 
3 69 70 15 
3 69 15 14 
3 71 66 12 
3 71 12 29 
3 72 73 74 
3 72 74 75 
3 73 76 77 
3 73 77 74 
3 78 79 19 
3 78 19 18 
3 80 72 75 
3 80 75 81 
3 62 63 10 
3 62 10 25 
3 26 68 69 
3 26 69 14 
3 20 76 78 
3 20 78 18 
3 21 82 83 
3 21 83 84 
3 79 80 85 
3 79 85 19 
3 70 71 29 
3 70 29 15 
3 64 65 30 
3 64 30 11 
3 61 31 86 
3 61 86 87 
3 88 89 23 
3 88 23 22 
3 24 58 90 
3 24 90 91 
3 77 76 20 
3 81 77 20 
3 81 20 85 
3 80 81 85 
3 32 33 35 
3 32 35 34 
3 92 93 37 
3 92 37 36 
3 94 95 39 
3 94 39 38 
3 38 39 33 
3 38 33 32 
3 96 97 98 
3 96 98 99 
3 100 101 102 
3 100 102 103 
3 40 41 43 
3 40 43 42 
3 104 105 44 
3 104 44 45 
3 48 49 50 
3 48 50 51 
3 46 47 41 
3 46 41 40 
3 41 47 106 
3 41 106 43 
3 46 40 42 
3 46 42 107 
3 53 52 108 
3 53 108 109 
3 110 54 111 
3 110 111 112 
3 51 50 55 
3 51 55 113 
3 114 115 116 
3 114 116 117 
3 118 119 120 
3 118 120 121 
3 122 118 121 
3 122 121 113 
3 123 122 113 
3 123 113 55 
3 119 123 55 
3 119 55 120 
