ply
format ascii 1.0
comment VCGLIB generated
comment TextureFile SpaceInteriors_Texture.png
element vertex 68
property float x
property float y
property float z
property float nx
property float ny
property float nz
property uchar red
property uchar green
property uchar blue
property uchar alpha
property float texture_u
property float texture_v
element face 44
property list uchar int vertex_indices
end_header
-0.151385 0 0.151382 -1 -1 2 192 192 192 255 0.356791 0.085437
0.151385 0 0.151382 2 -2 1 192 192 192 255 0.356791 0.085437
-0.151385 0.049029 0.151382 -2 3 1 192 192 192 255 0.356791 0.085437
0.151385 0.049029 0.151382 1 3 2 192 192 192 255 0.356791 0.085437
-0.151385 0.049029 -0.151382 -1 3 -2 192 192 192 255 0.356791 0.085437
0.151385 0.049029 -0.151382 2 3 -1 192 192 192 255 0.356791 0.085437
-0.151385 0 -0.151382 -2 -2 -1 192 192 192 255 0.356791 0.085437
0.151385 0 -0.151382 1 -1 -2 192 192 192 255 0.356791 0.085437
-0.090857 0.049029 0.090858 -1 3 2 192 192 192 255 0.385152 0.085437
0.090857 0.049029 0.090858 2 3 1 192 192 192 255 0.385152 0.085437
0.090857 0.049029 -0.090858 1 3 -2 192 192 192 255 0.385152 0.085437
-0.090857 0.049029 -0.090858 -2 3 -1 192 192 192 255 0.385152 0.085437
-0.090857 0.972503 0.090858 -2 3 1 192 192 192 255 0.385152 0.085437
0.090857 0.972503 0.090858 1 3 2 192 192 192 255 0.385152 0.085437
0.090857 0.972503 -0.090858 2 3 -1 192 192 192 255 0.385152 0.085437
-0.090857 0.972503 -0.090858 -1 3 -2 192 192 192 255 0.385152 0.085437
-0.067038 0.972503 0.067039 0 5 0 192 192 192 255 0.267721 0.085437
0.067038 0.972503 0.067039 0 4 0 192 192 192 255 0.267721 0.085437
0.067038 0.972503 -0.067039 0 5 0 192 192 192 255 0.267721 0.085437
-0.067038 0.972503 -0.067039 0 4 0 192 192 192 255 0.267721 0.085437
-0.090857 0.510766 0.090858 -3 0 3 192 192 192 255 0.236016 0.358771
-0.090857 0.510766 -0.090858 -3 0 -3 192 192 192 255 0.236016 0.358771
0.090857 0.510766 -0.090858 3 0 -3 192 192 192 255 0.199856 0.358771
0.090857 0.510766 0.090858 3 0 3 192 192 192 255 0.236016 0.358771
0.151385 0 0.151382 2 -2 1 192 192 192 255 0.320631 0.085437
0.151385 0 -0.151382 1 -1 -2 192 192 192 255 0.320631 0.085437
0.151385 0.049029 -0.151382 2 3 -1 192 192 192 255 0.320631 0.085437
0.151385 0.049029 0.151382 1 3 2 192 192 192 255 0.320631 0.085437
-0.151385 0 -0.151382 -2 -2 -1 192 192 192 255 0.320631 0.085437
-0.151385 0 0.151382 -1 -1 2 192 192 192 255 0.320631 0.085437
-0.151385 0.049029 0.151382 -2 3 1 192 192 192 255 0.320631 0.085437
-0.151385 0.049029 -0.151382 -1 3 -2 192 192 192 255 0.320631 0.085437
-0.151385 0.049029 0.151382 -2 3 1 192 192 192 255 0.385152 0.085437
0.151385 0.049029 0.151382 1 3 2 192 192 192 255 0.385152 0.085437
0.151385 0.049029 -0.151382 2 3 -1 192 192 192 255 0.385152 0.085437
-0.151385 0.049029 -0.151382 -1 3 -2 192 192 192 255 0.385152 0.085437
-0.090857 0.049029 0.090858 -1 3 2 192 192 192 255 0.236016 0.358771
0.090857 0.049029 0.090858 2 3 1 192 192 192 255 0.236016 0.358771
0.090857 0.049029 0.090858 2 3 1 192 192 192 255 0.199856 0.358771
0.090857 0.049029 -0.090858 1 3 -2 192 192 192 255 0.199856 0.358771
0.090857 0.510766 0.090858 3 0 3 192 192 192 255 0.199856 0.358771
0.090857 0.049029 -0.090858 1 3 -2 192 192 192 255 0.236016 0.358771
-0.090857 0.049029 -0.090858 -2 3 -1 192 192 192 255 0.236016 0.358771
0.090857 0.510766 -0.090858 3 0 -3 192 192 192 255 0.236016 0.358771
-0.090857 0.049029 -0.090858 -2 3 -1 192 192 192 255 0.199856 0.358771
-0.090857 0.049029 0.090858 -1 3 2 192 192 192 255 0.199856 0.358771
-0.090857 0.510766 0.090858 -3 0 3 192 192 192 255 0.199856 0.358771
-0.090857 0.510766 -0.090858 -3 0 -3 192 192 192 255 0.199856 0.358771
0.067038 0.972503 0.067039 0 4 0 192 192 192 255 0.385152 0.085437
-0.067038 0.972503 0.067039 0 5 0 192 192 192 255 0.385152 0.085437
0.067038 0.972503 -0.067039 0 5 0 192 192 192 255 0.385152 0.085437
-0.067038 0.972503 -0.067039 0 4 0 192 192 192 255 0.385152 0.085437
-0.090857 0.510766 -0.090858 -3 0 -3 192 192 192 255 0.320631 0.085437
-0.090857 0.510766 0.090858 -3 0 3 192 192 192 255 0.320631 0.085437
-0.090857 0.972503 0.090858 -2 3 1 192 192 192 255 0.320631 0.085437
-0.090857 0.972503 -0.090858 -1 3 -2 192 192 192 255 0.320631 0.085437
0.090857 0.510766 -0.090858 3 0 -3 192 192 192 255 0.356791 0.085437
-0.090857 0.510766 -0.090858 -3 0 -3 192 192 192 255 0.356791 0.085437
-0.090857 0.972503 -0.090858 -1 3 -2 192 192 192 255 0.356791 0.085437
0.090857 0.972503 -0.090858 2 3 -1 192 192 192 255 0.356791 0.085437
0.090857 0.510766 0.090858 3 0 3 192 192 192 255 0.320631 0.085437
0.090857 0.510766 -0.090858 3 0 -3 192 192 192 255 0.320631 0.085437
0.090857 0.972503 -0.090858 2 3 -1 192 192 192 255 0.320631 0.085437
0.090857 0.972503 0.090858 1 3 2 192 192 192 255 0.320631 0.085437
-0.090857 0.510766 0.090858 -3 0 3 192 192 192 255 0.356791 0.085437
0.090857 0.510766 0.090858 3 0 3 192 192 192 255 0.356791 0.085437
0.090857 0.972503 0.090858 1 3 2 192 192 192 255 0.356791 0.085437
-0.090857 0.972503 0.090858 -2 3 1 192 192 192 255 0.356791 0.085437
3 0 1 3 
3 0 3 2 
3 16 17 18 
3 16 18 19 
3 4 5 7 
3 4 7 6 
3 6 7 1 
3 6 1 0 
3 24 25 26 
3 24 26 27 
3 28 29 30 
3 28 30 31 
3 32 33 9 
3 32 9 8 
3 33 34 10 
3 33 10 9 
3 34 35 11 
3 34 11 10 
3 35 32 8 
3 35 8 11 
3 36 37 23 
3 36 23 20 
3 38 39 22 
3 38 22 40 
3 41 42 21 
3 41 21 43 
3 44 45 46 
3 44 46 47 
3 12 13 48 
3 12 48 49 
3 13 14 50 
3 13 50 48 
3 14 15 51 
3 14 51 50 
3 15 12 49 
3 15 49 51 
3 52 53 54 
3 52 54 55 
3 56 57 58 
3 56 58 59 
3 60 61 62 
3 60 62 63 
3 64 65 66 
3 64 66 67 
