ply
format ascii 1.0
comment VCGLIB generated
comment TextureFile SpaceInteriors_Texture.png
element vertex 336
property float x
property float y
property float z
property float nx
property float ny
property float nz
property uchar red
property uchar green
property uchar blue
property uchar alpha
property float texture_u
property float texture_v
element face 196
property list uchar int vertex_indices
end_header
-2.22106 0 0 -1 -1 7 192 192 192 255 0.173018 0.331629
2e-006 0 0 2 -2 3 192 192 192 255 0.173018 0.331629
-2.22106 0.488063 0 -2 3 3 192 192 192 255 0.264068 0.331629
2e-006 0.488063 0 1 3 7 192 192 192 255 0.264068 0.331629
-2.22106 0.488063 -1.41886 -1 3 -7 192 192 192 255 0.264068 0.331629
2e-006 0.488063 -1.41886 2 3 -3 192 192 192 255 0.264068 0.331629
-2.22106 0 -1.41886 -2 -2 -3 192 192 192 255 0.173018 0.331629
2e-006 0 -1.41886 1 -1 -7 192 192 192 255 0.173018 0.331629
-2.04061 0.488063 -0.172706 1 3 -2 192 192 192 255 0.39055 0.331629
-0.180452 0.488063 -0.172706 -2 3 -1 192 192 192 255 0.39055 0.331629
-0.180452 0.488063 -1.24615 -1 3 2 192 192 192 255 0.39055 0.331629
-2.04061 0.488063 -1.24615 2 3 1 192 192 192 255 0.39055 0.331629
-2.04061 0.278218 -0.172706 2 2 -1 192 192 192 255 0.205483 0.398539
-0.180452 0.278218 -0.172706 -1 1 -2 192 192 192 255 0.205483 0.398539
-0.180452 0.278218 -1.24615 -2 2 1 192 192 192 255 0.205483 0.398539
-2.04061 0.278218 -1.24615 1 1 2 192 192 192 255 0.205483 0.398539
-2.09062 0.076337 0 0 0 5 192 192 192 255 0.325519 0.331629
-0.130436 0.076337 0 0 0 5 192 192 192 255 0.325519 0.331629
-0.130436 0.411726 0 0 0 4 192 192 192 255 0.325519 0.331629
-2.09062 0.411726 0 0 0 4 192 192 192 255 0.325519 0.331629
-2.09062 0.411726 -1.41886 0 0 -5 192 192 192 255 0.325519 0.331629
-0.130436 0.411726 -1.41886 0 0 -5 192 192 192 255 0.325519 0.331629
-0.130436 0.076337 -1.41886 0 0 -4 192 192 192 255 0.325519 0.331629
-2.09062 0.076337 -1.41886 0 0 -4 192 192 192 255 0.325519 0.331629
-0.375462 0.076337 -1.41886 0 0 -5 192 192 192 255 0.325519 0.331629
-0.375462 0.411726 -1.41886 0 0 -5 192 192 192 255 0.325519 0.331629
-0.988018 0.076337 -1.41886 0 0 -6 192 192 192 255 0.259961 0.331629
-0.988018 0.411726 -1.41886 0 0 -4 192 192 192 255 0.259961 0.331629
-1.23304 0.076337 -1.41886 0 0 -5 192 192 192 255 0.259961 0.331629
-1.23304 0.411726 -1.41886 0 0 -5 192 192 192 255 0.259961 0.331629
-1.8456 0.076337 -1.41886 0 0 -5 192 192 192 255 0.325519 0.331629
-1.8456 0.411726 -1.41886 0 0 -5 192 192 192 255 0.325519 0.331629
-0.375462 0.076337 0 0 0 4 192 192 192 255 0.325519 0.331629
-0.375462 0.411726 0 0 0 6 192 192 192 255 0.325519 0.331629
-1.8456 0.076337 0 0 0 4 192 192 192 255 0.325519 0.331629
-1.8456 0.411726 0 0 0 6 192 192 192 255 0.325519 0.331629
-0.988018 0.076337 0 0 0 6 192 192 192 255 0.259961 0.331629
-0.988018 0.411726 0 0 0 4 192 192 192 255 0.259961 0.331629
-1.23304 0.076337 0 0 0 5 192 192 192 255 0.259961 0.331629
-1.23304 0.411726 0 0 0 5 192 192 192 255 0.259961 0.331629
-0.834229 0.256135 -1.17284 1.24812 0.492056 -1.62769 192 192 192 255 0.210151 0.421486
-1.05603 0.256136 -1.20423 -1.64201 0.377686 -1.80138 192 192 192 255 0.210151 0.421486
-0.910948 0.256135 -0.951264 1.5408 0.611405 1.59031 192 192 192 255 0.210151 0.421486
-1.15054 0.256136 -1.02171 -1.50071 0.470277 1.46403 192 192 192 255 0.179068 0.421486
-0.944828 0.663658 -1.12843 1.18265 2.39599 -0.386522 192 192 192 255 0.237527 0.421486
-1.04053 0.619589 -1.15656 -0.985329 1.30552 -2.39692 192 192 192 255 0.237527 0.421486
-1.07117 0.608784 -1.06806 -2.9261 2.23834 0.0518383 192 192 192 255 0.237527 0.421486
-0.975473 0.652854 -1.03992 -0.088375 1.47943 2.17146 192 192 192 255 0.237527 0.421486
-0.838516 0.256135 -1.01357 0.169354 0.500795 -2.25866 192 192 192 255 0.210151 0.421486
-1.17505 0.256135 -0.877613 -2.1252 0.536357 -0.0501162 192 192 192 255 0.210151 0.421486
-0.690002 0.256135 -0.706292 2.15941 0.482084 0.0639898 192 192 192 255 0.210151 0.421486
-1.02653 0.256135 -0.570339 -0.12677 0.497694 2.25854 192 192 192 255 0.179068 0.421486
-0.884043 0.86854 -0.879137 1.84248 2.44826 -1.70353 192 192 192 255 0.237527 0.421486
-1.01847 0.89581 -0.824831 -1.39294 1.49893 -1.36977 192 192 192 255 0.237527 0.421486
-0.959143 0.879107 -0.702095 -0.965187 2.47834 1.84177 192 192 192 255 0.237527 0.421486
-0.82472 0.851837 -0.7564 1.85707 1.45365 1.43184 192 192 192 255 0.237527 0.421486
-0.215427 0.256135 -1.20399 0.493267 0.495447 -2.18181 192 192 192 255 0.210151 0.421486
-0.462578 0.256135 -1.14528 -2.11847 0.496979 -0.396743 192 192 192 255 0.210151 0.421486
-0.151028 0.256135 -0.979636 2.12874 0.479928 0.437956 192 192 192 255 0.210151 0.421486
-0.398178 0.256135 -0.920924 -0.488391 0.454767 2.20721 192 192 192 255 0.179068 0.421486
-0.268978 0.715034 -1.11306 1.746 2.45795 -1.08533 192 192 192 255 0.237527 0.421486
-0.367699 0.713985 -1.08961 -1.36493 1.4733 -1.43826 192 192 192 255 0.237527 0.421486
-0.341976 0.694742 -0.999992 -1.58765 2.43564 1.92506 192 192 192 255 0.237527 0.421486
-0.243256 0.695791 -1.02345 1.44384 1.43525 1.86291 192 192 192 255 0.237527 0.421486
-1.5359 0.256135 -1.10455 -1.5835 0.43331 -1.62929 192 192 192 255 0.210151 0.421486
-1.62938 0.256135 -0.847926 -1.51955 0.439288 1.54847 192 192 192 255 0.210151 0.421486
-1.25515 0.256135 -1.02001 1.47736 0.461148 -1.56409 192 192 192 255 0.210151 0.421486
-1.34863 0.256135 -0.763385 1.55752 0.487805 1.61665 192 192 192 255 0.179068 0.421486
-1.48877 0.79237 -1.00562 -0.81257 2.3768 -2.44211 192 192 192 255 0.237527 0.421486
-1.52611 0.794693 -0.903116 -2.37113 1.40637 0.163849 192 192 192 255 0.237527 0.421486
-1.41398 0.82328 -0.869347 -0.0979007 2.40728 2.02218 192 192 192 255 0.237527 0.421486
-1.37663 0.820957 -0.971853 1.91101 1.45656 -0.378637 192 192 192 255 0.237527 0.421486
-1.77508 0.256135 -0.490057 0.532151 0.468417 -2.17469 192 192 192 255 0.210151 0.421486
-2.02344 0.256135 -0.437167 -2.12372 0.454865 -0.464163 192 192 192 255 0.210151 0.421486
-1.71655 0.256135 -0.263817 2.11155 0.477502 0.482332 192 192 192 255 0.210151 0.421486
-1.96492 0.256135 -0.210926 -0.554729 0.439174 2.18892 192 192 192 255 0.179068 0.421486
-1.83617 0.737643 -0.403058 1.4694 2.45966 -1.23656 192 192 192 255 0.237527 0.421486
-1.93538 0.723788 -0.38193 -1.49426 1.44101 -1.57264 192 192 192 255 0.237527 0.421486
-1.912 0.716632 -0.291562 -1.94126 2.42268 1.68643 192 192 192 255 0.237527 0.421486
-1.81279 0.730487 -0.312689 1.24183 1.44157 1.80272 192 192 192 255 0.237527 0.421486
-1.41689 0.256135 -0.588561 -1.46931 0.706129 -1.63018 192 192 192 255 0.210151 0.421486
-1.55369 0.256136 -0.286963 -1.29 0.493841 1.58596 192 192 192 255 0.210151 0.421486
-1.07408 0.256135 -0.469809 1.43246 0.585753 -1.1829 192 192 192 255 0.210151 0.421486
-1.27397 0.256135 -0.222955 1.3244 0.361068 2.25406 192 192 192 255 0.179068 0.421486
-1.35283 0.80632 -0.43103 -0.178257 2.31539 -0.997376 192 192 192 255 0.237527 0.421486
-1.40748 0.71598 -0.31056 -1.97392 1.40535 0.846936 192 192 192 255 0.237527 0.421486
-1.29083 0.703491 -0.294056 0.423236 1.98419 3.77134 192 192 192 255 0.237527 0.421486
-1.2159 0.763657 -0.383595 1.88028 1.27184 0.962391 192 192 192 255 0.237527 0.421486
-1.94172 0.256135 -0.621249 -2.03477 0.602931 0.491952 192 192 192 255 0.210151 0.421486
-1.74581 0.256135 -0.395609 0.453633 0.592742 2.21305 192 192 192 255 0.210151 0.421486
-1.70116 0.256135 -0.797707 -0.392132 0.490619 -2.24829 192 192 192 255 0.210151 0.421486
-1.50525 0.256135 -0.572067 2.09482 0.477713 -0.505361 192 192 192 255 0.179068 0.421486
-1.79521 0.765644 -0.620707 -1.3135 2.47711 -1.07511 192 192 192 255 0.237527 0.421486
-1.71696 0.74827 -0.530578 -0.589888 1.57673 2.01802 192 192 192 255 0.237527 0.421486
-1.62087 0.715778 -0.601061 2.49764 2.43821 0.803847 192 192 192 255 0.237527 0.421486
-1.69912 0.733152 -0.69119 1.21126 1.4199 -2.14944 192 192 192 255 0.237527 0.421486
-1.63059 0.256136 -0.555413 -1.17093 0.719303 1.80738 192 192 192 255 0.210151 0.421486
-1.18151 0.256135 -0.511953 1.81169 0.773746 1.1801 192 192 192 255 0.210151 0.421486
-1.58133 0.256136 -0.964725 -1.84233 0.701811 -1.21665 192 192 192 255 0.210151 0.421486
-1.13226 0.256135 -0.921266 1.1262 0.715371 -1.83426 192 192 192 255 0.179068 0.421486
-1.49167 0.768176 -0.672795 -2.30673 2.68469 0.485157 192 192 192 255 0.237527 0.421486
-1.31229 0.795446 -0.655436 0.611925 1.73075 1.92065 192 192 192 255 0.237527 0.421486
-1.29261 0.778743 -0.818931 1.72338 2.72471 -0.990104 192 192 192 255 0.237527 0.421486
-1.47199 0.751473 -0.83629 -0.933009 1.67084 -2.18173 192 192 192 255 0.237527 0.421486
-1.98022 0.256136 -0.900006 -1.38963 0.764091 1.58679 192 192 192 255 0.210151 0.421486
-1.67813 0.256135 -0.824398 1.62257 0.768497 1.47317 192 192 192 255 0.210151 0.421486
-1.89747 0.256136 -1.17428 -1.60485 0.744302 -1.52664 192 192 192 255 0.210151 0.421486
-1.59538 0.256136 -1.09867 1.40257 0.709382 -1.62267 192 192 192 255 0.179068 0.421486
-1.86208 0.614671 -0.9667 -1.97967 2.74333 0.0398105 192 192 192 255 0.237527 0.421486
-1.74141 0.613621 -0.936499 0.50806 1.74898 1.98617 192 192 192 255 0.237527 0.421486
-1.70835 0.594378 -1.04605 2.19054 2.71408 -0.727872 192 192 192 255 0.237527 0.421486
-1.82902 0.595428 -1.07625 -0.39855 1.6968 -2.33935 192 192 192 255 0.237527 0.421486
-0.901737 0.256136 -0.216171 0.543082 0.634542 2.21353 192 192 192 255 0.210151 0.421486
-0.629534 0.256136 -0.436583 2.02583 0.659907 -0.581628 192 192 192 255 0.210151 0.421486
-1.143 0.256135 -0.462706 -1.98634 0.686969 0.628209 192 192 192 255 0.210151 0.421486
-0.870798 0.256135 -0.683118 -0.518536 0.705254 -2.1793 192 192 192 255 0.179068 0.421486
-0.885138 0.692007 -0.347568 -0.52594 2.61034 2.48315 192 192 192 255 0.237527 0.421486
-0.776411 0.69433 -0.435608 2.05228 1.61639 1.02092 192 192 192 255 0.237527 0.421486
-0.87278 0.722916 -0.534084 1.03207 2.65067 -1.75701 192 192 192 255 0.237527 0.421486
-0.98151 0.720593 -0.446043 -1.79442 1.68047 -0.646913 192 192 192 255 0.237527 0.421486
-0.607126 0.256136 -0.363698 -1.41945 0.715855 1.57189 192 192 192 255 0.210151 0.421486
-0.307667 0.256136 -0.281226 1.59779 0.69821 1.54249 192 192 192 255 0.210151 0.421486
-0.51687 0.256136 -0.636693 -1.56833 0.728564 -1.5541 192 192 192 255 0.210151 0.421486
-0.217409 0.256136 -0.554221 1.45594 0.67681 -1.57516 192 192 192 255 0.179068 0.421486
-0.483618 0.637279 -0.422006 -1.84173 2.72261 0.27433 192 192 192 255 0.237527 0.421486
-0.364 0.623425 -0.389063 0.543845 1.68815 2.15626 192 192 192 255 0.237527 0.421486
-0.327948 0.616269 -0.498107 2.35826 2.67316 -0.385364 192 192 192 255 0.237527 0.421486
-0.447563 0.630123 -0.531051 -0.263818 1.68901 -2.20924 192 192 192 255 0.237527 0.421486
-0.567028 0.256136 -0.513907 0.878376 0.748551 2.02842 192 192 192 255 0.210151 0.421486
-0.278336 0.256136 -0.838873 1.8817 0.779958 -0.921544 192 192 192 255 0.210151 0.421486
-0.916553 0.256135 -0.777596 -1.8926 0.743941 0.88345 192 192 192 255 0.210151 0.421486
-0.627859 0.256136 -1.10256 -0.84786 0.778137 -2.08519 192 192 192 255 0.179068 0.421486
-0.586563 0.784776 -0.691314 -0.347408 2.66623 1.64157 192 192 192 255 0.237527 0.421486
-0.471247 0.743346 -0.821117 2.09277 1.73233 0.22054 192 192 192 255 0.237527 0.421486
-0.610863 0.72181 -0.926445 0.536183 2.71151 -2.73232 192 192 192 255 0.237527 0.421486
-0.726177 0.76324 -0.796641 -1.96241 1.72127 -0.803632 192 192 192 255 0.237527 0.421486
2e-006 0 0 2 -2 3 192 192 192 255 0.264068 0.331629
2e-006 0 -1.41886 1 -1 -7 192 192 192 255 0.264068 0.331629
-2.22106 0 -1.41886 -2 -2 -3 192 192 192 255 0.264068 0.331629
-2.22106 0 0 -1 -1 7 192 192 192 255 0.264068 0.331629
-2.22106 0.488063 0 -2 3 3 192 192 192 255 0.39055 0.331629
2e-006 0.488063 0 1 3 7 192 192 192 255 0.39055 0.331629
2e-006 0.488063 -1.41886 2 3 -3 192 192 192 255 0.39055 0.331629
-2.22106 0.488063 -1.41886 -1 3 -7 192 192 192 255 0.39055 0.331629
-2.04061 0.488063 -0.172706 1 3 -2 192 192 192 255 0.267143 0.331629
-0.180452 0.488063 -0.172706 -2 3 -1 192 192 192 255 0.267143 0.331629
-0.180452 0.278218 -0.172706 -1 1 -2 192 192 192 255 0.267143 0.331629
-2.04061 0.278218 -0.172706 2 2 -1 192 192 192 255 0.267143 0.331629
-0.180452 0.488063 -0.172706 -2 3 -1 192 192 192 255 0.170775 0.331629
-0.180452 0.488063 -1.24615 -1 3 2 192 192 192 255 0.170775 0.331629
-0.180452 0.278218 -1.24615 -2 2 1 192 192 192 255 0.170775 0.331629
-0.180452 0.278218 -0.172706 -1 1 -2 192 192 192 255 0.170775 0.331629
-0.180452 0.488063 -1.24615 -1 3 2 192 192 192 255 0.267143 0.331629
-2.04061 0.488063 -1.24615 2 3 1 192 192 192 255 0.267143 0.331629
-2.04061 0.278218 -1.24615 1 1 2 192 192 192 255 0.267143 0.331629
-0.180452 0.278218 -1.24615 -2 2 1 192 192 192 255 0.267143 0.331629
-2.04061 0.488063 -1.24615 2 3 1 192 192 192 255 0.170775 0.331629
-2.04061 0.488063 -0.172706 1 3 -2 192 192 192 255 0.170775 0.331629
-2.04061 0.278218 -0.172706 2 2 -1 192 192 192 255 0.170775 0.331629
-2.04061 0.278218 -1.24615 1 1 2 192 192 192 255 0.170775 0.331629
-2.22106 0 0 -1 -1 7 192 192 192 255 0.325519 0.331629
2e-006 0 0 2 -2 3 192 192 192 255 0.325519 0.331629
-0.988018 0.076337 0 0 0 6 192 192 192 255 0.325519 0.331629
-1.23304 0.076337 0 0 0 5 192 192 192 255 0.325519 0.331629
2e-006 0.488063 0 1 3 7 192 192 192 255 0.325519 0.331629
-2.22106 0.488063 0 -2 3 3 192 192 192 255 0.325519 0.331629
-1.23304 0.411726 0 0 0 5 192 192 192 255 0.325519 0.331629
-0.988018 0.411726 0 0 0 4 192 192 192 255 0.325519 0.331629
-2.22106 0.488063 -1.41886 -1 3 -7 192 192 192 255 0.325519 0.331629
2e-006 0.488063 -1.41886 2 3 -3 192 192 192 255 0.325519 0.331629
-0.988018 0.411726 -1.41886 0 0 -4 192 192 192 255 0.325519 0.331629
-1.23304 0.411726 -1.41886 0 0 -5 192 192 192 255 0.325519 0.331629
2e-006 0 -1.41886 1 -1 -7 192 192 192 255 0.325519 0.331629
-2.22106 0 -1.41886 -2 -2 -3 192 192 192 255 0.325519 0.331629
-1.23304 0.076337 -1.41886 0 0 -5 192 192 192 255 0.325519 0.331629
-0.988018 0.076337 -1.41886 0 0 -6 192 192 192 255 0.325519 0.331629
-2.09062 0.076337 0 0 0 5 192 192 192 255 0.259961 0.331629
-1.8456 0.076337 0 0 0 4 192 192 192 255 0.259961 0.331629
-1.8456 0.411726 0 0 0 6 192 192 192 255 0.259961 0.331629
-2.09062 0.411726 0 0 0 4 192 192 192 255 0.259961 0.331629
-0.375462 0.076337 -1.41886 0 0 -5 192 192 192 255 0.259961 0.331629
-0.375462 0.411726 -1.41886 0 0 -5 192 192 192 255 0.259961 0.331629
-0.130436 0.411726 -1.41886 0 0 -5 192 192 192 255 0.259961 0.331629
-0.130436 0.076337 -1.41886 0 0 -4 192 192 192 255 0.259961 0.331629
-2.09062 0.411726 -1.41886 0 0 -5 192 192 192 255 0.259961 0.331629
-1.8456 0.411726 -1.41886 0 0 -5 192 192 192 255 0.259961 0.331629
-1.8456 0.076337 -1.41886 0 0 -5 192 192 192 255 0.259961 0.331629
-2.09062 0.076337 -1.41886 0 0 -4 192 192 192 255 0.259961 0.331629
-0.375462 0.411726 0 0 0 6 192 192 192 255 0.259961 0.331629
-0.375462 0.076337 0 0 0 4 192 192 192 255 0.259961 0.331629
-0.130436 0.076337 0 0 0 5 192 192 192 255 0.259961 0.331629
-0.130436 0.411726 0 0 0 4 192 192 192 255 0.259961 0.331629
-1.04053 0.619589 -1.15656 -0.985329 1.30552 -2.39692 192 192 192 255 0.210151 0.421486
-0.944828 0.663658 -1.12843 1.18265 2.39599 -0.386522 192 192 192 255 0.210151 0.421486
-1.05603 0.256136 -1.20423 -1.64201 0.377686 -1.80138 192 192 192 255 0.179068 0.421486
-1.07117 0.608784 -1.06806 -2.9261 2.23834 0.0518383 192 192 192 255 0.179068 0.421486
-1.04053 0.619589 -1.15656 -0.985329 1.30552 -2.39692 192 192 192 255 0.179068 0.421486
-1.15054 0.256136 -1.02171 -1.50071 0.470277 1.46403 192 192 192 255 0.210151 0.421486
-0.975473 0.652854 -1.03992 -0.088375 1.47943 2.17146 192 192 192 255 0.210151 0.421486
-1.07117 0.608784 -1.06806 -2.9261 2.23834 0.0518383 192 192 192 255 0.210151 0.421486
-0.910948 0.256135 -0.951264 1.5408 0.611405 1.59031 192 192 192 255 0.179068 0.421486
-0.834229 0.256135 -1.17284 1.24812 0.492056 -1.62769 192 192 192 255 0.179068 0.421486
-0.944828 0.663658 -1.12843 1.18265 2.39599 -0.386522 192 192 192 255 0.179068 0.421486
-0.975473 0.652854 -1.03992 -0.088375 1.47943 2.17146 192 192 192 255 0.179068 0.421486
-1.01847 0.89581 -0.824831 -1.39294 1.49893 -1.36977 192 192 192 255 0.210151 0.421486
-0.884043 0.86854 -0.879137 1.84248 2.44826 -1.70353 192 192 192 255 0.210151 0.421486
-1.17505 0.256135 -0.877613 -2.1252 0.536357 -0.0501162 192 192 192 255 0.179068 0.421486
-0.959143 0.879107 -0.702095 -0.965187 2.47834 1.84177 192 192 192 255 0.179068 0.421486
-1.01847 0.89581 -0.824831 -1.39294 1.49893 -1.36977 192 192 192 255 0.179068 0.421486
-1.02653 0.256135 -0.570339 -0.12677 0.497694 2.25854 192 192 192 255 0.210151 0.421486
-0.82472 0.851837 -0.7564 1.85707 1.45365 1.43184 192 192 192 255 0.210151 0.421486
-0.959143 0.879107 -0.702095 -0.965187 2.47834 1.84177 192 192 192 255 0.210151 0.421486
-0.690002 0.256135 -0.706292 2.15941 0.482084 0.0639898 192 192 192 255 0.179068 0.421486
-0.838516 0.256135 -1.01357 0.169354 0.500795 -2.25866 192 192 192 255 0.179068 0.421486
-0.884043 0.86854 -0.879137 1.84248 2.44826 -1.70353 192 192 192 255 0.179068 0.421486
-0.82472 0.851837 -0.7564 1.85707 1.45365 1.43184 192 192 192 255 0.179068 0.421486
-0.367699 0.713985 -1.08961 -1.36493 1.4733 -1.43826 192 192 192 255 0.210151 0.421486
-0.268978 0.715034 -1.11306 1.746 2.45795 -1.08533 192 192 192 255 0.210151 0.421486
-0.462578 0.256135 -1.14528 -2.11847 0.496979 -0.396743 192 192 192 255 0.179068 0.421486
-0.341976 0.694742 -0.999992 -1.58765 2.43564 1.92506 192 192 192 255 0.179068 0.421486
-0.367699 0.713985 -1.08961 -1.36493 1.4733 -1.43826 192 192 192 255 0.179068 0.421486
-0.398178 0.256135 -0.920924 -0.488391 0.454767 2.20721 192 192 192 255 0.210151 0.421486
-0.243256 0.695791 -1.02345 1.44384 1.43525 1.86291 192 192 192 255 0.210151 0.421486
-0.341976 0.694742 -0.999992 -1.58765 2.43564 1.92506 192 192 192 255 0.210151 0.421486
-0.151028 0.256135 -0.979636 2.12874 0.479928 0.437956 192 192 192 255 0.179068 0.421486
-0.215427 0.256135 -1.20399 0.493267 0.495447 -2.18181 192 192 192 255 0.179068 0.421486
-0.268978 0.715034 -1.11306 1.746 2.45795 -1.08533 192 192 192 255 0.179068 0.421486
-0.243256 0.695791 -1.02345 1.44384 1.43525 1.86291 192 192 192 255 0.179068 0.421486
-1.52611 0.794693 -0.903116 -2.37113 1.40637 0.163849 192 192 192 255 0.210151 0.421486
-1.48877 0.79237 -1.00562 -0.81257 2.3768 -2.44211 192 192 192 255 0.210151 0.421486
-1.62938 0.256135 -0.847926 -1.51955 0.439288 1.54847 192 192 192 255 0.179068 0.421486
-1.41398 0.82328 -0.869347 -0.0979007 2.40728 2.02218 192 192 192 255 0.179068 0.421486
-1.52611 0.794693 -0.903116 -2.37113 1.40637 0.163849 192 192 192 255 0.179068 0.421486
-1.34863 0.256135 -0.763385 1.55752 0.487805 1.61665 192 192 192 255 0.210151 0.421486
-1.37663 0.820957 -0.971853 1.91101 1.45656 -0.378637 192 192 192 255 0.210151 0.421486
-1.41398 0.82328 -0.869347 -0.0979007 2.40728 2.02218 192 192 192 255 0.210151 0.421486
-1.25515 0.256135 -1.02001 1.47736 0.461148 -1.56409 192 192 192 255 0.179068 0.421486
-1.5359 0.256135 -1.10455 -1.5835 0.43331 -1.62929 192 192 192 255 0.179068 0.421486
-1.48877 0.79237 -1.00562 -0.81257 2.3768 -2.44211 192 192 192 255 0.179068 0.421486
-1.37663 0.820957 -0.971853 1.91101 1.45656 -0.378637 192 192 192 255 0.179068 0.421486
-1.93538 0.723788 -0.38193 -1.49426 1.44101 -1.57264 192 192 192 255 0.210151 0.421486
-1.83617 0.737643 -0.403058 1.4694 2.45966 -1.23656 192 192 192 255 0.210151 0.421486
-2.02344 0.256135 -0.437167 -2.12372 0.454865 -0.464163 192 192 192 255 0.179068 0.421486
-1.912 0.716632 -0.291562 -1.94126 2.42268 1.68643 192 192 192 255 0.179068 0.421486
-1.93538 0.723788 -0.38193 -1.49426 1.44101 -1.57264 192 192 192 255 0.179068 0.421486
-1.96492 0.256135 -0.210926 -0.554729 0.439174 2.18892 192 192 192 255 0.210151 0.421486
-1.81279 0.730487 -0.312689 1.24183 1.44157 1.80272 192 192 192 255 0.210151 0.421486
-1.912 0.716632 -0.291562 -1.94126 2.42268 1.68643 192 192 192 255 0.210151 0.421486
-1.71655 0.256135 -0.263817 2.11155 0.477502 0.482332 192 192 192 255 0.179068 0.421486
-1.77508 0.256135 -0.490057 0.532151 0.468417 -2.17469 192 192 192 255 0.179068 0.421486
-1.83617 0.737643 -0.403058 1.4694 2.45966 -1.23656 192 192 192 255 0.179068 0.421486
-1.81279 0.730487 -0.312689 1.24183 1.44157 1.80272 192 192 192 255 0.179068 0.421486
-1.40748 0.71598 -0.31056 -1.97392 1.40535 0.846936 192 192 192 255 0.210151 0.421486
-1.35283 0.80632 -0.43103 -0.178257 2.31539 -0.997376 192 192 192 255 0.210151 0.421486
-1.55369 0.256136 -0.286963 -1.29 0.493841 1.58596 192 192 192 255 0.179068 0.421486
-1.29083 0.703491 -0.294056 0.423236 1.98419 3.77134 192 192 192 255 0.179068 0.421486
-1.40748 0.71598 -0.31056 -1.97392 1.40535 0.846936 192 192 192 255 0.179068 0.421486
-1.27397 0.256135 -0.222955 1.3244 0.361068 2.25406 192 192 192 255 0.210151 0.421486
-1.2159 0.763657 -0.383595 1.88028 1.27184 0.962391 192 192 192 255 0.210151 0.421486
-1.29083 0.703491 -0.294056 0.423236 1.98419 3.77134 192 192 192 255 0.210151 0.421486
-1.07408 0.256135 -0.469809 1.43246 0.585753 -1.1829 192 192 192 255 0.179068 0.421486
-1.41689 0.256135 -0.588561 -1.46931 0.706129 -1.63018 192 192 192 255 0.179068 0.421486
-1.35283 0.80632 -0.43103 -0.178257 2.31539 -0.997376 192 192 192 255 0.179068 0.421486
-1.2159 0.763657 -0.383595 1.88028 1.27184 0.962391 192 192 192 255 0.179068 0.421486
-1.71696 0.74827 -0.530578 -0.589888 1.57673 2.01802 192 192 192 255 0.210151 0.421486
-1.79521 0.765644 -0.620707 -1.3135 2.47711 -1.07511 192 192 192 255 0.210151 0.421486
-1.74581 0.256135 -0.395609 0.453633 0.592742 2.21305 192 192 192 255 0.179068 0.421486
-1.62087 0.715778 -0.601061 2.49764 2.43821 0.803847 192 192 192 255 0.179068 0.421486
-1.71696 0.74827 -0.530578 -0.589888 1.57673 2.01802 192 192 192 255 0.179068 0.421486
-1.50525 0.256135 -0.572067 2.09482 0.477713 -0.505361 192 192 192 255 0.210151 0.421486
-1.69912 0.733152 -0.69119 1.21126 1.4199 -2.14944 192 192 192 255 0.210151 0.421486
-1.62087 0.715778 -0.601061 2.49764 2.43821 0.803847 192 192 192 255 0.210151 0.421486
-1.70116 0.256135 -0.797707 -0.392132 0.490619 -2.24829 192 192 192 255 0.179068 0.421486
-1.94172 0.256135 -0.621249 -2.03477 0.602931 0.491952 192 192 192 255 0.179068 0.421486
-1.79521 0.765644 -0.620707 -1.3135 2.47711 -1.07511 192 192 192 255 0.179068 0.421486
-1.69912 0.733152 -0.69119 1.21126 1.4199 -2.14944 192 192 192 255 0.179068 0.421486
-1.31229 0.795446 -0.655436 0.611925 1.73075 1.92065 192 192 192 255 0.210151 0.421486
-1.49167 0.768176 -0.672795 -2.30673 2.68469 0.485157 192 192 192 255 0.210151 0.421486
-1.18151 0.256135 -0.511953 1.81169 0.773746 1.1801 192 192 192 255 0.179068 0.421486
-1.29261 0.778743 -0.818931 1.72338 2.72471 -0.990104 192 192 192 255 0.179068 0.421486
-1.31229 0.795446 -0.655436 0.611925 1.73075 1.92065 192 192 192 255 0.179068 0.421486
-1.13226 0.256135 -0.921266 1.1262 0.715371 -1.83426 192 192 192 255 0.210151 0.421486
-1.47199 0.751473 -0.83629 -0.933009 1.67084 -2.18173 192 192 192 255 0.210151 0.421486
-1.29261 0.778743 -0.818931 1.72338 2.72471 -0.990104 192 192 192 255 0.210151 0.421486
-1.58133 0.256136 -0.964725 -1.84233 0.701811 -1.21665 192 192 192 255 0.179068 0.421486
-1.63059 0.256136 -0.555413 -1.17093 0.719303 1.80738 192 192 192 255 0.179068 0.421486
-1.49167 0.768176 -0.672795 -2.30673 2.68469 0.485157 192 192 192 255 0.179068 0.421486
-1.47199 0.751473 -0.83629 -0.933009 1.67084 -2.18173 192 192 192 255 0.179068 0.421486
-1.74141 0.613621 -0.936499 0.50806 1.74898 1.98617 192 192 192 255 0.210151 0.421486
-1.86208 0.614671 -0.9667 -1.97967 2.74333 0.0398105 192 192 192 255 0.210151 0.421486
-1.67813 0.256135 -0.824398 1.62257 0.768497 1.47317 192 192 192 255 0.179068 0.421486
-1.70835 0.594378 -1.04605 2.19054 2.71408 -0.727872 192 192 192 255 0.179068 0.421486
-1.74141 0.613621 -0.936499 0.50806 1.74898 1.98617 192 192 192 255 0.179068 0.421486
-1.59538 0.256136 -1.09867 1.40257 0.709382 -1.62267 192 192 192 255 0.210151 0.421486
-1.82902 0.595428 -1.07625 -0.39855 1.6968 -2.33935 192 192 192 255 0.210151 0.421486
-1.70835 0.594378 -1.04605 2.19054 2.71408 -0.727872 192 192 192 255 0.210151 0.421486
-1.89747 0.256136 -1.17428 -1.60485 0.744302 -1.52664 192 192 192 255 0.179068 0.421486
-1.98022 0.256136 -0.900006 -1.38963 0.764091 1.58679 192 192 192 255 0.179068 0.421486
-1.86208 0.614671 -0.9667 -1.97967 2.74333 0.0398105 192 192 192 255 0.179068 0.421486
-1.82902 0.595428 -1.07625 -0.39855 1.6968 -2.33935 192 192 192 255 0.179068 0.421486
-0.776411 0.69433 -0.435608 2.05228 1.61639 1.02092 192 192 192 255 0.210151 0.421486
-0.885138 0.692007 -0.347568 -0.52594 2.61034 2.48315 192 192 192 255 0.210151 0.421486
-0.629534 0.256136 -0.436583 2.02583 0.659907 -0.581628 192 192 192 255 0.179068 0.421486
-0.87278 0.722916 -0.534084 1.03207 2.65067 -1.75701 192 192 192 255 0.179068 0.421486
-0.776411 0.69433 -0.435608 2.05228 1.61639 1.02092 192 192 192 255 0.179068 0.421486
-0.870798 0.256135 -0.683118 -0.518536 0.705254 -2.1793 192 192 192 255 0.210151 0.421486
-0.98151 0.720593 -0.446043 -1.79442 1.68047 -0.646913 192 192 192 255 0.210151 0.421486
-0.87278 0.722916 -0.534084 1.03207 2.65067 -1.75701 192 192 192 255 0.210151 0.421486
-1.143 0.256135 -0.462706 -1.98634 0.686969 0.628209 192 192 192 255 0.179068 0.421486
-0.901737 0.256136 -0.216171 0.543082 0.634542 2.21353 192 192 192 255 0.179068 0.421486
-0.885138 0.692007 -0.347568 -0.52594 2.61034 2.48315 192 192 192 255 0.179068 0.421486
-0.98151 0.720593 -0.446043 -1.79442 1.68047 -0.646913 192 192 192 255 0.179068 0.421486
-0.364 0.623425 -0.389063 0.543845 1.68815 2.15626 192 192 192 255 0.210151 0.421486
-0.483618 0.637279 -0.422006 -1.84173 2.72261 0.27433 192 192 192 255 0.210151 0.421486
-0.307667 0.256136 -0.281226 1.59779 0.69821 1.54249 192 192 192 255 0.179068 0.421486
-0.327948 0.616269 -0.498107 2.35826 2.67316 -0.385364 192 192 192 255 0.179068 0.421486
-0.364 0.623425 -0.389063 0.543845 1.68815 2.15626 192 192 192 255 0.179068 0.421486
-0.217409 0.256136 -0.554221 1.45594 0.67681 -1.57516 192 192 192 255 0.210151 0.421486
-0.447563 0.630123 -0.531051 -0.263818 1.68901 -2.20924 192 192 192 255 0.210151 0.421486
-0.327948 0.616269 -0.498107 2.35826 2.67316 -0.385364 192 192 192 255 0.210151 0.421486
-0.51687 0.256136 -0.636693 -1.56833 0.728564 -1.5541 192 192 192 255 0.179068 0.421486
-0.607126 0.256136 -0.363698 -1.41945 0.715855 1.57189 192 192 192 255 0.179068 0.421486
-0.483618 0.637279 -0.422006 -1.84173 2.72261 0.27433 192 192 192 255 0.179068 0.421486
-0.447563 0.630123 -0.531051 -0.263818 1.68901 -2.20924 192 192 192 255 0.179068 0.421486
-0.471247 0.743346 -0.821117 2.09277 1.73233 0.22054 192 192 192 255 0.210151 0.421486
-0.586563 0.784776 -0.691314 -0.347408 2.66623 1.64157 192 192 192 255 0.210151 0.421486
-0.278336 0.256136 -0.838873 1.8817 0.779958 -0.921544 192 192 192 255 0.179068 0.421486
-0.610863 0.72181 -0.926445 0.536183 2.71151 -2.73232 192 192 192 255 0.179068 0.421486
-0.471247 0.743346 -0.821117 2.09277 1.73233 0.22054 192 192 192 255 0.179068 0.421486
-0.627859 0.256136 -1.10256 -0.84786 0.778137 -2.08519 192 192 192 255 0.210151 0.421486
-0.726177 0.76324 -0.796641 -1.96241 1.72127 -0.803632 192 192 192 255 0.210151 0.421486
-0.610863 0.72181 -0.926445 0.536183 2.71151 -2.73232 192 192 192 255 0.210151 0.421486
-0.916553 0.256135 -0.777596 -1.8926 0.743941 0.88345 192 192 192 255 0.179068 0.421486
-0.567028 0.256136 -0.513907 0.878376 0.748551 2.02842 192 192 192 255 0.179068 0.421486
-0.586563 0.784776 -0.691314 -0.347408 2.66623 1.64157 192 192 192 255 0.179068 0.421486
-0.726177 0.76324 -0.796641 -1.96241 1.72127 -0.803632 192 192 192 255 0.179068 0.421486
3 36 37 39 
3 36 39 38 
3 12 13 14 
3 12 14 15 
3 26 28 29 
3 26 29 27 
3 6 7 1 
3 6 1 0 
3 136 137 5 
3 136 5 3 
3 138 139 2 
3 138 2 4 
3 140 141 9 
3 140 9 8 
3 141 142 10 
3 141 10 9 
3 142 143 11 
3 142 11 10 
3 143 140 8 
3 143 8 11 
3 144 145 146 
3 144 146 147 
3 148 149 150 
3 148 150 151 
3 152 153 154 
3 152 154 155 
3 156 157 158 
3 156 158 159 
3 160 161 17 
3 160 17 32 
3 160 32 162 
3 160 162 163 
3 160 163 34 
3 160 34 16 
3 161 164 18 
3 161 18 17 
3 164 165 19 
3 164 19 35 
3 164 35 166 
3 164 166 167 
3 164 167 33 
3 164 33 18 
3 165 160 16 
3 165 16 19 
3 168 169 21 
3 168 21 25 
3 168 25 170 
3 168 170 171 
3 168 171 31 
3 168 31 20 
3 169 172 22 
3 169 22 21 
3 172 173 23 
3 172 23 30 
3 172 30 174 
3 172 174 175 
3 172 175 24 
3 172 24 22 
3 173 168 20 
3 173 20 23 
3 176 177 178 
3 176 178 179 
3 180 181 182 
3 180 182 183 
3 25 24 175 
3 25 175 170 
3 31 171 174 
3 31 174 30 
3 184 185 186 
3 184 186 187 
3 188 189 190 
3 188 190 191 
3 35 34 163 
3 35 163 166 
3 33 167 162 
3 33 162 32 
3 44 45 46 
3 44 46 47 
3 40 41 192 
3 40 192 193 
3 194 43 195 
3 194 195 196 
3 197 42 198 
3 197 198 199 
3 200 201 202 
3 200 202 203 
3 52 53 54 
3 52 54 55 
3 48 49 204 
3 48 204 205 
3 206 51 207 
3 206 207 208 
3 209 50 210 
3 209 210 211 
3 212 213 214 
3 212 214 215 
3 60 61 62 
3 60 62 63 
3 56 57 216 
3 56 216 217 
3 218 59 219 
3 218 219 220 
3 221 58 222 
3 221 222 223 
3 224 225 226 
3 224 226 227 
3 68 69 70 
3 68 70 71 
3 64 65 228 
3 64 228 229 
3 230 67 231 
3 230 231 232 
3 233 66 234 
3 233 234 235 
3 236 237 238 
3 236 238 239 
3 76 77 78 
3 76 78 79 
3 72 73 240 
3 72 240 241 
3 242 75 243 
3 242 243 244 
3 245 74 246 
3 245 246 247 
3 248 249 250 
3 248 250 251 
3 84 85 86 
3 84 86 87 
3 80 81 252 
3 80 252 253 
3 254 83 255 
3 254 255 256 
3 257 82 258 
3 257 258 259 
3 260 261 262 
3 260 262 263 
3 92 93 94 
3 92 94 95 
3 88 89 264 
3 88 264 265 
3 266 91 267 
3 266 267 268 
3 269 90 270 
3 269 270 271 
3 272 273 274 
3 272 274 275 
3 100 101 102 
3 100 102 103 
3 96 97 276 
3 96 276 277 
3 278 99 279 
3 278 279 280 
3 281 98 282 
3 281 282 283 
3 284 285 286 
3 284 286 287 
3 108 109 110 
3 108 110 111 
3 104 105 288 
3 104 288 289 
3 290 107 291 
3 290 291 292 
3 293 106 294 
3 293 294 295 
3 296 297 298 
3 296 298 299 
3 116 117 118 
3 116 118 119 
3 112 113 300 
3 112 300 301 
3 302 115 303 
3 302 303 304 
3 305 114 306 
3 305 306 307 
3 308 309 310 
3 308 310 311 
3 124 125 126 
3 124 126 127 
3 120 121 312 
3 120 312 313 
3 314 123 315 
3 314 315 316 
3 317 122 318 
3 317 318 319 
3 320 321 322 
3 320 322 323 
3 132 133 134 
3 132 134 135 
3 128 129 324 
3 128 324 325 
3 326 131 327 
3 326 327 328 
3 329 130 330 
3 329 330 331 
3 332 333 334 
3 332 334 335 
